<svg xmlns="http://www.w3.org/2000/svg" width="1600" height="800" viewBox="0 0 1600 800" preserveAspectRatio="xMidYMid slice">
  <defs>
    <linearGradient id="bg" x1="0" y1="0" x2="1" y2="1">
      <stop offset="0" stop-color="#071425"/>
      <stop offset="0.55" stop-color="#0B1C2F"/>
      <stop offset="1" stop-color="#0B1023"/>
    </linearGradient>
    <filter id="softGlow" x="-30%" y="-30%" width="160%" height="160%">
      <feGaussianBlur stdDeviation="6"/>
    </filter>
  </defs>

  <rect width="1600" height="800" fill="url(#bg)"/>

  <g id="layer-front" class="parallax-anim--twinkle" fill="#EAF2FF" fill-opacity="0.9" filter="url(#softGlow)">
    <circle cx="120" cy="80" r="2.2"/>
    <circle cx="170" cy="140" r="1.7"/>
    <circle cx="1500" cy="110" r="2.4"/>
    <circle cx="1420" cy="170" r="1.6"/>
    <circle cx="1480" cy="720" r="2.6"/>
    <circle cx="1400" cy="650" r="1.8"/>
    <circle cx="150" cy="700" r="2.4"/>
    <circle cx="230" cy="620" r="1.6"/>
  </g>

  <g fill="none" stroke="#7BA7FF" stroke-opacity="0.18" stroke-width="1.2">
    <path d="M118 72 l10 0 M123 67 l0 10" />
    <path d="M1496 104 l12 0 M1502 98 l0 12" />
    <path d="M1476 714 l12 0 M1482 708 l0 12" />
    <path d="M146 694 l12 0 M152 688 l0 12" />
  </g>
</svg>
