<svg xmlns="http://www.w3.org/2000/svg" width="100%" height="100%" fill="none" aria-label="Unified light parallax background with rising bubbles on the left" preserveAspectRatio="xMidYMid slice" viewBox="0 0 1600 900"><defs><radialGradient id="b" cx="0" cy="0" r="1" gradientTransform="matrix(980 0 0 620 980 320)" gradientUnits="userSpaceOnUse"><stop offset="0" stop-color="#bfdbfe" stop-opacity=".4"/><stop offset=".55" stop-color="#dbeafe" stop-opacity=".25"/><stop offset="1" stop-color="#bfdbfe" stop-opacity="0"/></radialGradient><radialGradient id="c" cx="0" cy="0" r="1" gradientTransform="rotate(-10 4819.12 -6373.73) scale(900 520)" gradientUnits="userSpaceOnUse"><stop offset="0" stop-color="#bbf7d0" stop-opacity=".3"/><stop offset=".7" stop-color="#dcfce7" stop-opacity=".15"/><stop offset="1" stop-color="#bbf7d0" stop-opacity="0"/></radialGradient><radialGradient id="e" cx="0" cy="0" r="1" gradientTransform="matrix(520 0 0 560 240 420)" gradientUnits="userSpaceOnUse"><stop offset="0" stop-color="#bae6fd" stop-opacity=".35"/><stop offset=".55" stop-color="#e0f2fe" stop-opacity=".2"/><stop offset="1" stop-color="#bae6fd" stop-opacity="0"/></radialGradient><radialGradient id="f" cx="0" cy="0" r="1" gradientUnits="userSpaceOnUse"><stop offset="0" stop-color="#fff" stop-opacity=".5"/><stop offset=".35" stop-color="#e0f2fe" stop-opacity=".4"/><stop offset="1" stop-color="#bae6fd" stop-opacity=".05"/></radialGradient><linearGradient id="a" x1="0" x2="0" y1="0" y2="800" gradientUnits="userSpaceOnUse"><stop offset="0" stop-color="#fff"/><stop offset=".55" stop-color="#f8fafc"/><stop offset="1" stop-color="#f1f5f9"/></linearGradient><linearGradient id="g" x1="0" x2="1" y1="0" y2="1" gradientUnits="objectBoundingBox"><stop offset="0" stop-color="#93c5fd" stop-opacity=".4"/><stop offset=".55" stop-color="#60a5fa" stop-opacity=".45"/><stop offset="1" stop-color="#4ade80" stop-opacity=".25"/></linearGradient><pattern id="d" width="30" height="30" patternUnits="userSpaceOnUse"><circle cx="2" cy="2" r="1.1" fill="#1e293b" opacity=".03"/><circle cx="18" cy="12" r=".9" fill="#1e293b" opacity=".02"/></pattern></defs><path fill="url(#a)" d="M0 0h1600v800H0z" transform="translate(-160 -90) scale(1.35)"/><path fill="url(#b)" d="M0 0h1600v800H0z" transform="translate(-160 -90) scale(1.35)"/><path fill="url(#c)" d="M0 0h1600v800H0z" transform="translate(-160 -90) scale(1.35)"/><path fill="url(#d)" d="M0 0h1600v800H0z" opacity=".6" transform="translate(-160 -90) scale(1.35)"/><g transform="translate(-160 -90) scale(1.35)"><ellipse cx="230" cy="430" fill="url(#e)" rx="420" ry="520"/><path stroke="#38bdf8" stroke-opacity=".12" stroke-width="10" d="M120 820c10-120-15-220 20-310s10-170 50-250 20-140 60-220"/></g><g transform="translate(42.5 787.5) scale(1.35)"><circle r="44" fill="url(#f)" opacity=".9"/><circle r="44" stroke="url(#g)" stroke-width="2.2" opacity=".75"/><circle cx="-14" cy="-16" r="10" fill="#fff" opacity=".4"/></g><g transform="translate(150.5 612) scale(1.35)"><circle r="30" fill="url(#f)" opacity=".85"/><circle r="30" stroke="url(#g)" stroke-width="2" opacity=".7"/><circle cx="-10" cy="-12" r="7" fill="#fff" opacity=".4"/></g><g transform="translate(69.5 450) scale(1.35)"><circle r="56" fill="url(#f)" opacity=".75"/><circle r="56" stroke="url(#g)" stroke-width="2.4" opacity=".68"/><circle cx="-18" cy="-20" r="12" fill="#fff" opacity=".4"/></g><g transform="translate(191 274.5) scale(1.35)"><circle r="26" fill="url(#f)" opacity=".8"/><circle r="26" stroke="url(#g)" stroke-width="1.9" opacity=".7"/><circle cx="-8" cy="-10" r="6" fill="#fff" opacity=".4"/></g><g transform="translate(96.5 99) scale(1.35)"><circle r="38" fill="url(#f)" opacity=".7"/><circle r="38" stroke="url(#g)" stroke-width="2.1" opacity=".65"/><circle cx="-12" cy="-14" r="8" fill="#fff" opacity=".4"/></g><g opacity=".75"><g transform="translate(-11.5 882) scale(1.35)"><circle r="12" fill="url(#f)"/><circle r="12" stroke="url(#g)" stroke-width="1.6" opacity=".7"/></g></g></svg>