<svg xmlns="http://www.w3.org/2000/svg" width="100%" height="100%" preserveAspectRatio="xMidYMid slice" viewBox="0 0 1600 900"><title>Parallax Glass Tech Background</title><defs><radialGradient id="b" cx="35%" cy="35%" r="60%"><stop offset="0" stop-color="#30b2f6" stop-opacity=".55"/><stop offset=".45" stop-color="#5d9cff" stop-opacity=".22"/><stop offset="1" stop-color="#f8fafc" stop-opacity="0"/></radialGradient><radialGradient id="c" cx="78%" cy="55%" r="65%"><stop offset="0" stop-color="#30d17a" stop-opacity=".38"/><stop offset=".55" stop-color="#2ba66d" stop-opacity=".18"/><stop offset="1" stop-color="#f8fafc" stop-opacity="0"/></radialGradient><radialGradient id="d" cx="55%" cy="10%" r="60%"><stop offset="0" stop-color="#9cc9ff" stop-opacity=".35"/><stop offset=".55" stop-color="#4c82f3" stop-opacity=".12"/><stop offset="1" stop-color="#f8fafc" stop-opacity="0"/></radialGradient><radialGradient id="h" cx="50%" cy="50%" r="70%"><stop offset="55%" stop-color="#f8fafc" stop-opacity="0"/><stop offset="100%" stop-color="#f8fafc" stop-opacity=".78"/></radialGradient><linearGradient id="a" x1="0" x2="1" y1="0" y2="1"><stop offset="0" stop-color="#f8fafc"/><stop offset=".35" stop-color="#eef3fc"/><stop offset=".55" stop-color="#2f54c3" stop-opacity=".85"/><stop offset=".72" stop-color="#4c82f3" stop-opacity=".55"/><stop offset="1" stop-color="#2ba66d" stop-opacity=".35"/></linearGradient><linearGradient id="g" x1="0" x2="1" y1="0" y2="0"><stop offset="0" stop-color="#30b2f6" stop-opacity=".9"/><stop offset=".5" stop-color="#c7e2ff" stop-opacity=".55"/><stop offset="1" stop-color="#30d17a" stop-opacity=".8"/></linearGradient><pattern id="e" width="48" height="48" patternUnits="userSpaceOnUse"><path fill="none" stroke="#c7e2ff" stroke-opacity=".1" d="M48 0H0v48"/><path fill="none" stroke="#c7e2ff" stroke-opacity=".06" d="M24 0v48M0 24h48"/></pattern><pattern id="f" width="6" height="6" patternUnits="userSpaceOnUse"><path fill="#fff" d="M0 0h6v1H0z" opacity=".06"/></pattern></defs><path fill="#f8fafc" d="M-160-90h1944V990H-160z"/><g data-depth=".06" transform="translate(-160 -90) scale(1.35)"><path fill="url(#a)" d="M0 0h1440v800H0z"/><ellipse cx="520" cy="280" fill="url(#b)" rx="640" ry="460"/><ellipse cx="1120" cy="470" fill="url(#c)" rx="760" ry="520"/><ellipse cx="820" cy="120" fill="url(#d)" rx="640" ry="360"/></g><g data-depth=".12" style="mix-blend-mode:screen"><path fill="#4c82f3" d="M96.5 733.5C218 585 461 612 596 490.5c162-148.5 67.5-297 270-351 229.5-60.75 297 108 459 189 189 94.5 351 67.5 459-13.5v675H-160Z" opacity=".14"/><path fill="#30d17a" d="M-160 612c189-67.5 378 0 567-67.5 243-87.75 297-243 540-283.5 256.5-47.25 351 108 553.5 175.5C1622 477 1703 450 1784 396v594H-160Z" opacity=".1"/><path fill="#30b2f6" d="M-160 234c216-67.5 391.5-13.5 580.5-67.5C677 85.5 785-36 1028-9c256.5 27 378 148.5 594 202.5 94.5 24.3 135 13.5 162 0V-90H-160Z" opacity=".1"/></g><g data-depth=".18"><path fill="url(#e)" d="M0 0h1440v800H0z" opacity=".65" transform="translate(-160 -90) scale(1.35)"/><path fill="url(#f)" d="M0 0h1440v800H0z" opacity=".25" transform="translate(-160 -90) scale(1.35)"/><path d="M-160-90h1944V990H-160z" opacity=".55"/></g><g data-depth=".28" opacity=".95"><g fill="none" stroke="url(#g)" stroke-linecap="round" stroke-linejoin="round" stroke-width="2" opacity=".55" transform="translate(-160 -90) scale(1.35)"><path d="M120 560h300q40 0 40-40V420q0-40 40-40h180"/><path d="M220 220h300q40 0 40 40v50q0 40 40 40h220q40 0 40-40v-60"/><path d="M860 520h180q60 0 60-60V360q0-40 40-40h180"/><path d="M980 160h160q40 0 40 40v60q0 40 40 40h120"/><path d="M80 360h160q60 0 60-60v-60q0-40 40-40h80"/></g><g opacity=".75" style="mix-blend-mode:screen" transform="translate(-160 -90) scale(1.35)"><circle cx="460" cy="520" r="5" fill="#30b2f6"/><circle cx="560" cy="260" r="5" fill="#c7e2ff"/><circle cx="1100" cy="460" r="5" fill="#30d17a"/><circle cx="1180" cy="200" r="5" fill="#9cc9ff"/><circle cx="300" cy="300" r="5" fill="#5d9cff"/><circle cx="680" cy="380" r="4" fill="#30b2f6"/><circle cx="1320" cy="320" r="4" fill="#30d17a"/><circle cx="860" cy="250" r="4" fill="#c7e2ff"/></g><g fill="#e4ebff" opacity=".55" transform="translate(-160 -90) scale(1.35)"><circle cx="180" cy="120" r="2"/><circle cx="260" cy="640" r="2"/><circle cx="720" cy="690" r="2"/><circle cx="1180" cy="110" r="2"/><circle cx="1320" cy="610" r="2"/><circle cx="980" cy="420" r="2"/></g></g><g data-depth=".38"><g opacity=".92" transform="translate(-160 -90) scale(1.35)"><rect width="420" height="170" x="120" y="120" fill="#dfe7f4" fill-opacity=".42" stroke="#c7e2ff" stroke-opacity=".22" rx="22"/><rect width="460" height="190" x="860" y="480" fill="#e4e7ef" fill-opacity=".4" stroke="#30b2f6" stroke-opacity=".2" rx="24"/><rect width="320" height="140" x="560" y="310" fill="#f4f7fc" fill-opacity=".42" stroke="#30d17a" stroke-opacity=".16" rx="22"/></g><g stroke-linecap="round" stroke-width="2" opacity=".35" style="mix-blend-mode:screen"><path stroke="#30b2f6" stroke-width="2.7" d="M42.5 112.5H515"/><path stroke="#9cc9ff" stroke-width="2.7" d="M636.5 369h351"/><path stroke="#30d17a" stroke-width="2.7" d="M1041.5 598.5H1568"/></g></g><path fill="url(#h)" d="M0 0h1440v800H0z" transform="translate(-160 -90) scale(1.35)"/></svg>