<svg xmlns="http://www.w3.org/2000/svg" width="1600" height="800" viewBox="0 0 1600 800" preserveAspectRatio="xMidYMid slice" fill="none" role="img" aria-label="Translucent festive light parallax background with subtle gifts and stars">
  <defs>
    <linearGradient id="bg" x1="0%" y1="0%" x2="100%" y2="0%" gradientUnits="userSpaceOnUse" gradientTransform="rotate(25 0.5 0.5)">
      <stop offset="0%" stop-color="#00DE9F" />
      <stop offset="50%" stop-color="#00A1C2" />
      <stop offset="100%" stop-color="#0088D6" />
    </linearGradient>
    <radialGradient id="glowL" cx="0.12" cy="0.72" r="0.8">
      <stop offset="0%" stop-color="#00A1C2" stop-opacity="0.22" />
      <stop offset="100%" stop-color="#00A1C2" stop-opacity="0" />
    </radialGradient>
    <radialGradient id="glowR" cx="0.9" cy="0.2" r="0.84">
      <stop offset="0%" stop-color="#0088D6" stop-opacity="0.2" />
      <stop offset="100%" stop-color="#0088D6" stop-opacity="0" />
    </radialGradient>
    <pattern id="micro" width="22" height="22" patternUnits="userSpaceOnUse">
      <circle cx="11" cy="11" r="1.2" fill="#F4F4F4" opacity="0.08" />
    </pattern>
    <filter id="blur12" x="-20%" y="-20%" width="140%" height="140%">
      <feGaussianBlur stdDeviation="14" />
    </filter>
  </defs>

  <rect width="1600" height="800" fill="url(#bg)" opacity="0.88" />
  <rect width="1600" height="800" fill="url(#glowL)" />
  <rect width="1600" height="800" fill="url(#glowR)" />
  <rect width="1600" height="800" fill="url(#micro)" />

  <g id="parallax-back" opacity="0.7">
    <ellipse cx="210" cy="520" rx="320" ry="230" fill="#00A1C2" opacity="0.22" filter="url(#blur12)" />
    <ellipse cx="1480" cy="140" rx="280" ry="200" fill="#0088D6" opacity="0.18" filter="url(#blur12)" />
  </g>

  <g id="parallax-mid" opacity="0.75">
    <g stroke="#FF8479" stroke-width="1.1" fill="none" opacity="0.2">
      <circle cx="1360" cy="140" r="42" />
      <circle cx="1480" cy="220" r="58" />
    </g>
    <g fill="#F4F4F4">
      <circle cx="180" cy="200" r="34" opacity="0.16" />
      <circle cx="230" cy="300" r="18" opacity="0.17" />
      <circle cx="1500" cy="660" r="28" opacity="0.15" />
    </g>
  </g>

  <g id="parallax-front" opacity="0.78">
    <g fill="#F4F4F4" opacity="0.16">
      <path d="M130 90 l6 10 12 2-9 8 2 12-11-6-11 6 2-12-9-8 12-2z" />
      <path d="M1500 700 l5 8 10 2-7 6 2 10-9-5-9 5 2-10-7-6 10-2z" />
    </g>
    <g stroke="#FF8479" stroke-width="1.3" fill="none" opacity="0.24">
      <rect x="94" y="612" width="70" height="56" rx="7" />
      <path d="M94 640h70" />
      <path d="M129 612v56" />
    </g>
    <g stroke="#5BDB3B" stroke-width="1.1" fill="none" opacity="0.22">
      <rect x="1450" y="78" width="66" height="52" rx="7" />
      <path d="M1450 104h66" />
      <path d="M1483 78v52" />
    </g>
    <g fill="#5BDB3B" opacity="0.12">
      <circle cx="1320" cy="660" r="6" />
      <circle cx="1400" cy="710" r="7" />
      <circle cx="1480" cy="620" r="6" />
      <circle cx="1520" cy="690" r="7" />
    </g>
  </g>
</svg>
