<svg xmlns="http://www.w3.org/2000/svg" width="100%" height="100%" fill="none" aria-label="Unified light parallax background with bubbles rising in the middle" preserveAspectRatio="xMidYMid slice" viewBox="0 0 1600 900"><defs><radialGradient id="b" cx="0" cy="0" r="1" gradientTransform="matrix(980 0 0 620 980 300)" gradientUnits="userSpaceOnUse"><stop offset="0" stop-color="#bfdbfe" stop-opacity=".4"/><stop offset=".6" stop-color="#dbeafe" stop-opacity=".25"/><stop offset="1" stop-color="#bfdbfe" stop-opacity="0"/></radialGradient><radialGradient id="c" cx="0" cy="0" r="1" gradientTransform="rotate(-10 4933.42 -6363.73) scale(900 520)" gradientUnits="userSpaceOnUse"><stop offset="0" stop-color="#bbf7d0" stop-opacity=".3"/><stop offset=".7" stop-color="#dcfce7" stop-opacity=".15"/><stop offset="1" stop-color="#bbf7d0" stop-opacity="0"/></radialGradient><radialGradient id="e" cx="0" cy="0" r="1" gradientTransform="matrix(720 0 0 620 800 420)" gradientUnits="userSpaceOnUse"><stop offset="0" stop-color="#bae6fd" stop-opacity=".3"/><stop offset=".55" stop-color="#e0f2fe" stop-opacity=".15"/><stop offset="1" stop-color="#bae6fd" stop-opacity="0"/></radialGradient><radialGradient id="f" cx="0" cy="0" r="1" gradientUnits="objectBoundingBox"><stop offset="0" stop-color="#fff" stop-opacity=".5"/><stop offset=".35" stop-color="#e0f2fe" stop-opacity=".4"/><stop offset="1" stop-color="#bae6fd" stop-opacity=".05"/></radialGradient><radialGradient id="h" cx="0" cy="0" r="1" gradientTransform="matrix(980 0 0 600 800 400)" gradientUnits="userSpaceOnUse"><stop offset="0" stop-color="#fff" stop-opacity="0"/><stop offset="1" stop-color="#fff" stop-opacity=".6"/></radialGradient><linearGradient id="a" x1="0" x2="0" y1="0" y2="800" gradientUnits="userSpaceOnUse"><stop offset="0" stop-color="#fff"/><stop offset=".55" stop-color="#f8fafc"/><stop offset="1" stop-color="#f1f5f9"/></linearGradient><linearGradient id="g" x1="0" x2="1" y1="0" y2="1" gradientUnits="objectBoundingBox"><stop offset="0" stop-color="#93c5fd" stop-opacity=".4"/><stop offset=".55" stop-color="#60a5fa" stop-opacity=".45"/><stop offset="1" stop-color="#4ade80" stop-opacity=".25"/></linearGradient><pattern id="d" width="30" height="30" patternUnits="userSpaceOnUse"><circle cx="2" cy="2" r="1.1" fill="#1e293b" opacity=".03"/><circle cx="18" cy="12" r=".9" fill="#1e293b" opacity=".02"/></pattern></defs><path fill="url(#a)" d="M0 0h1600v800H0z" transform="translate(-160 -90) scale(1.35)"/><path fill="url(#b)" d="M0 0h1600v800H0z" transform="translate(-160 -90) scale(1.35)"/><path fill="url(#c)" d="M0 0h1600v800H0z" transform="translate(-160 -90) scale(1.35)"/><path fill="url(#d)" d="M0 0h1600v800H0z" opacity=".6" transform="translate(-160 -90) scale(1.35)"/><g transform="translate(-160 -90) scale(1.35)"><circle cx="800" cy="430" r="560" fill="url(#e)"/><path stroke="#38bdf8" stroke-opacity=".1" stroke-width="12" d="M790 840c-20-100 30-190 10-280s20-170 5-260 15-150 0-260"/></g><g transform="translate(812 821.25) scale(1.35)"><circle r="52" fill="url(#f)" opacity=".78"/><circle r="52" stroke="url(#g)" stroke-width="2.4" opacity=".7"/><circle cx="-18" cy="-20" r="12" fill="#fff" opacity=".4"/></g><g transform="translate(1007.75 720) scale(1.35)"><circle r="34" fill="url(#f)" opacity=".82"/><circle r="34" stroke="url(#g)" stroke-width="2.1" opacity=".7"/><circle cx="-12" cy="-14" r="8" fill="#fff" opacity=".4"/></g><g transform="translate(906.5 544.5) scale(1.35)"><circle r="64" fill="url(#f)" opacity=".7"/><circle r="64" stroke="url(#g)" stroke-width="2.6" opacity=".65"/><circle cx="-22" cy="-24" r="14" fill="#fff" opacity=".4"/></g><g transform="translate(1061.75 382.5) scale(1.35)"><circle r="28" fill="url(#f)" opacity=".8"/><circle r="28" stroke="url(#g)" stroke-width="2" opacity=".68"/><circle cx="-10" cy="-12" r="7" fill="#fff" opacity=".4"/></g><g transform="translate(879.5 193.5) scale(1.35)"><circle r="42" fill="url(#f)" opacity=".72"/><circle r="42" stroke="url(#g)" stroke-width="2.2" opacity=".62"/><circle cx="-14" cy="-16" r="9" fill="#fff" opacity=".4"/></g><g transform="translate(974 38.25) scale(1.35)"><circle r="24" fill="url(#f)" opacity=".72"/><circle r="24" stroke="url(#g)" stroke-width="1.9" opacity=".6"/><circle cx="-8" cy="-10" r="6" fill="#fff" opacity=".4"/></g><g opacity=".75"><g transform="translate(771.5 902.25) scale(1.35)"><circle r="10" fill="url(#f)"/><circle r="10" stroke="url(#g)" stroke-width="1.5" opacity=".7"/></g><g transform="translate(1088.75 855) scale(1.35)"><circle r="8" fill="url(#f)"/><circle r="8" stroke="url(#g)" stroke-width="1.4" opacity=".7"/></g><g transform="translate(812 666) scale(1.35)"><circle r="7" fill="url(#f)"/><circle r="7" stroke="url(#g)" stroke-width="1.3" opacity=".7"/></g><g transform="translate(1122.5 598.5) scale(1.35)"><circle r="9" fill="url(#f)"/><circle r="9" stroke="url(#g)" stroke-width="1.4" opacity=".7"/></g><g transform="translate(785 396) scale(1.35)"><circle r="6" fill="url(#f)"/><circle r="6" stroke="url(#g)" stroke-width="1.2" opacity=".7"/></g><g transform="translate(1095.5 288) scale(1.35)"><circle r="7" fill="url(#f)"/><circle r="7" stroke="url(#g)" stroke-width="1.3" opacity=".7"/></g><g transform="translate(832.25 78.75) scale(1.35)"><circle r="8" fill="url(#f)"/><circle r="8" stroke="url(#g)" stroke-width="1.4" opacity=".7"/></g><g transform="translate(1061.75 -9) scale(1.35)"><circle r="6" fill="url(#f)"/><circle r="6" stroke="url(#g)" stroke-width="1.2" opacity=".7"/></g></g><g opacity=".9" transform="translate(-160 -90) scale(1.35)"><path stroke="#2563eb" stroke-linecap="round" stroke-opacity=".25" stroke-width="2.2" d="M1040 240h225c45 0 80 35 80 80v40c0 45 35 80 80 80h135"/><path stroke="#10b981" stroke-linecap="round" stroke-opacity=".25" stroke-width="2.2" d="M980 585h230c40 0 72-32 72-72v-63c0-40 32-72 72-72h206"/><circle cx="1345" cy="320" r="5" fill="#3b82f6" opacity=".4"/><circle cx="1282" cy="513" r="5" fill="#10b981" opacity=".35"/></g><path fill="url(#h)" d="M0 0h1600v800H0z" transform="translate(-160 -90) scale(1.35)"/><path fill="transparent" d="M-160-90h2160V990H-160z"/></svg>