<svg xmlns="http://www.w3.org/2000/svg" width="100%" height="100%" fill="none" aria-label="Transparent parallax background with bubbles rising on the right" preserveAspectRatio="xMidYMid slice" viewBox="0 0 1600 900"><defs><radialGradient id="a" cx="0" cy="0" r="1" gradientTransform="matrix(720 0 0 620 1320 420)" gradientUnits="userSpaceOnUse"><stop offset="0" stop-color="#38bdf8" stop-opacity=".18"/><stop offset=".55" stop-color="#60a5fa" stop-opacity=".09"/><stop offset="1" stop-color="#38bdf8" stop-opacity="0"/></radialGradient><radialGradient id="b" cx="0" cy="0" r="1" gradientUnits="objectBoundingBox"><stop offset="0" stop-color="#f8fafc" stop-opacity=".2"/><stop offset=".35" stop-color="#38bdf8" stop-opacity=".16"/><stop offset="1" stop-color="#38bdf8" stop-opacity=".02"/></radialGradient><linearGradient id="c" x1="0" x2="1" y1="0" y2="1" gradientUnits="objectBoundingBox"><stop offset="0" stop-color="#cbd5f5" stop-opacity=".3"/><stop offset=".55" stop-color="#38bdf8" stop-opacity=".36"/><stop offset="1" stop-color="#22c55e" stop-opacity=".16"/></linearGradient></defs><g transform="translate(-160 -90) scale(1.35)"><circle cx="1320" cy="430" r="560" fill="url(#a)"/><path stroke="#38bdf8" stroke-opacity=".1" stroke-width="12" d="M1330 840c20-100-30-190-10-280s-20-170-5-260-15-150 0-260"/></g><g transform="translate(1696.25 821.25) scale(1.35)"><circle r="52" fill="url(#b)" opacity=".78"/><circle r="52" stroke="url(#c)" stroke-width="2.4" opacity=".7"/><circle cx="-18" cy="-20" r="12" fill="#f8fafc" opacity=".1"/></g><g transform="translate(1507.25 733.5) scale(1.35)"><circle r="34" fill="url(#b)" opacity=".82"/><circle r="34" stroke="url(#c)" stroke-width="2.1" opacity=".7"/><circle cx="-12" cy="-14" r="8" fill="#f8fafc" opacity=".1"/></g><g transform="translate(1608.5 544.5) scale(1.35)"><circle r="64" fill="url(#b)" opacity=".7"/><circle r="64" stroke="url(#c)" stroke-width="2.6" opacity=".65"/><circle cx="-22" cy="-24" r="14" fill="#f8fafc" opacity=".1"/></g><g transform="translate(1453.25 382.5) scale(1.35)"><circle r="28" fill="url(#b)" opacity=".8"/><circle r="28" stroke="url(#c)" stroke-width="2" opacity=".68"/><circle cx="-10" cy="-12" r="7" fill="#f8fafc" opacity=".1"/></g><g transform="translate(1635.5 193.5) scale(1.35)"><circle r="42" fill="url(#b)" opacity=".72"/><circle r="42" stroke="url(#c)" stroke-width="2.2" opacity=".62"/><circle cx="-14" cy="-16" r="9" fill="#f8fafc" opacity=".1"/></g><g transform="translate(1527.5 38.25) scale(1.35)"><circle r="24" fill="url(#b)" opacity=".72"/><circle r="24" stroke="url(#c)" stroke-width="1.9" opacity=".6"/><circle cx="-8" cy="-10" r="6" fill="#f8fafc" opacity=".1"/></g><g opacity=".75"><g transform="translate(1743.5 902.25) scale(1.35)"><circle r="10" fill="url(#b)"/><circle r="10" stroke="url(#c)" stroke-width="1.5" opacity=".7"/></g><g transform="translate(1426.25 855) scale(1.35)"><circle r="8" fill="url(#b)"/><circle r="8" stroke="url(#c)" stroke-width="1.4" opacity=".7"/></g><g transform="translate(1723.25 666) scale(1.35)"><circle r="7" fill="url(#b)"/><circle r="7" stroke="url(#c)" stroke-width="1.3" opacity=".7"/></g><g transform="translate(1406 598.5) scale(1.35)"><circle r="9" fill="url(#b)"/><circle r="9" stroke="url(#c)" stroke-width="1.4" opacity=".7"/></g><g transform="translate(1730 396) scale(1.35)"><circle r="6" fill="url(#b)"/><circle r="6" stroke="url(#c)" stroke-width="1.2" opacity=".7"/></g><g transform="translate(1419.5 288) scale(1.35)"><circle r="7" fill="url(#b)"/><circle r="7" stroke="url(#c)" stroke-width="1.3" opacity=".7"/></g><g transform="translate(1689.5 78.75) scale(1.35)"><circle r="8" fill="url(#b)"/><circle r="8" stroke="url(#c)" stroke-width="1.4" opacity=".7"/></g><g transform="translate(1446.5 -9) scale(1.35)"><circle r="6" fill="url(#b)"/><circle r="6" stroke="url(#c)" stroke-width="1.2" opacity=".7"/></g></g><g opacity=".9" transform="translate(-160 -90) scale(1.35)"><path stroke="#60a5fa" stroke-linecap="round" stroke-opacity=".12" stroke-width="2.2" d="M40 260h215c45 0 80 35 80 80v40c0 45 35 80 80 80h205"/><path stroke="#22c55e" stroke-linecap="round" stroke-opacity=".09" stroke-width="2.2" d="M40 600h170c40 0 72-32 72-72v-63c0-40 32-72 72-72h266"/><circle cx="335" cy="340" r="5" fill="#38bdf8" opacity=".3"/><circle cx="282" cy="528" r="5" fill="#22c55e" opacity=".26"/></g></svg>