<svg xmlns="http://www.w3.org/2000/svg" width="1600" height="800" viewBox="0 0 1600 800" preserveAspectRatio="xMidYMid slice" fill="none" role="img" aria-label="Translucent festive light parallax background with soft stars framing content">
  <defs>
    <linearGradient id="bg" x1="0%" y1="0%" x2="100%" y2="0%" gradientUnits="userSpaceOnUse" gradientTransform="rotate(26 0.5 0.5)">
      <stop offset="0%" stop-color="#00DE9F" />
      <stop offset="50%" stop-color="#00A1C2" />
      <stop offset="100%" stop-color="#0088D6" />
    </linearGradient>
    <radialGradient id="glowL" cx="0.1" cy="0.26" r="0.72">
      <stop offset="0%" stop-color="#00A1C2" stop-opacity="0.2" />
      <stop offset="100%" stop-color="#00A1C2" stop-opacity="0" />
    </radialGradient>
    <radialGradient id="glowR" cx="0.9" cy="0.82" r="0.82">
      <stop offset="0%" stop-color="#0088D6" stop-opacity="0.18" />
      <stop offset="100%" stop-color="#0088D6" stop-opacity="0" />
    </radialGradient>
    <pattern id="micro" width="22" height="22" patternUnits="userSpaceOnUse">
      <circle cx="11" cy="11" r="1.2" fill="#F4F4F4" opacity="0.08" />
    </pattern>
    <filter id="blur14" x="-20%" y="-20%" width="140%" height="140%">
      <feGaussianBlur stdDeviation="14" />
    </filter>
  </defs>

  <rect width="1600" height="800" fill="url(#bg)" opacity="0.86" />
  <rect width="1600" height="800" fill="url(#glowL)" />
  <rect width="1600" height="800" fill="url(#glowR)" />
  <rect width="1600" height="800" fill="url(#micro)" />

  <g id="parallax-back" opacity="0.7">
    <ellipse cx="240" cy="170" rx="300" ry="200" fill="#00A1C2" opacity="0.2" filter="url(#blur14)" />
    <ellipse cx="1360" cy="660" rx="300" ry="210" fill="#0088D6" opacity="0.18" filter="url(#blur14)" />
  </g>

  <g id="parallax-mid" opacity="0.75">
    <g fill="#F4F4F4">
      <circle cx="190" cy="660" r="28" opacity="0.16" />
      <circle cx="1540" cy="170" r="30" opacity="0.15" />
      <circle cx="1500" cy="520" r="26" opacity="0.14" />
    </g>
    <g stroke="#FF8479" stroke-width="1.1" fill="none" opacity="0.2">
      <circle cx="230" cy="640" r="50" />
      <circle cx="1460" cy="200" r="60" />
    </g>
  </g>

  <g id="parallax-front" opacity="0.75">
    <g fill="#F4F4F4" opacity="0.16">
      <path d="M130 200 l6 10 12 2-9 8 2 12-11-6-11 6 2-12-9-8 12-2z" />
      <path d="M1400 680 l5 8 10 2-7 6 2 10-9-5-9 5 2-10-7-6 10-2z" />
    </g>
    <g stroke="#FF8479" stroke-width="1.25" fill="none" opacity="0.22">
      <rect x="140" y="86" width="70" height="56" rx="7" />
      <path d="M140 112h70" />
      <path d="M174 86v56" />
    </g>
    <g stroke="#5BDB3B" stroke-width="1.1" fill="none" opacity="0.21">
      <rect x="1418" y="612" width="72" height="58" rx="7" />
      <path d="M1418 641h72" />
      <path d="M1454 612v58" />
    </g>
    <g fill="#5BDB3B" opacity="0.12">
      <circle cx="1320" cy="130" r="6" />
      <circle cx="1380" cy="170" r="7" />
      <circle cx="1460" cy="110" r="6" />
      <circle cx="1540" cy="160" r="7" />
    </g>
  </g>
</svg>
