<svg xmlns="http://www.w3.org/2000/svg" width="1600" height="800" viewBox="0 0 1600 800" fill="none" role="img" aria-label="Abstract dark tech parallax background variant">
  <defs>
    <!-- Background -->
    <linearGradient id="bg2" x1="0" y1="0" x2="1600" y2="800" gradientUnits="userSpaceOnUse">
      <stop offset="0" stop-color="#EEF3FC"></stop>
      <stop offset="0.45" stop-color="#E4E7EF"></stop>
      <stop offset="1" stop-color="#F4F7FC"></stop>
    </linearGradient>

    <!-- Diagonal atmosphere -->
    <linearGradient id="atm2" x1="0" y1="760" x2="1600" y2="40" gradientUnits="userSpaceOnUse">
      <stop offset="0" stop-color="#2BA66D" stop-opacity="0.22"></stop>
      <stop offset="0.5" stop-color="#4C82F3" stop-opacity="0.30"></stop>
      <stop offset="1" stop-color="#2F54C3" stop-opacity="0.40"></stop>
    </linearGradient>

    <!-- Glows -->
    <radialGradient id="gCyan2" cx="0" cy="0" r="1" gradientUnits="userSpaceOnUse" gradientTransform="translate(980 220) rotate(110) scale(560 520)">
      <stop stop-color="#30B2F6" stop-opacity="0.95"></stop>
      <stop offset="0.55" stop-color="#8BC4FF" stop-opacity="0.35"></stop>
      <stop offset="1" stop-color="#30B2F6" stop-opacity="0"></stop>
    </radialGradient>

    <radialGradient id="gGreen2" cx="0" cy="0" r="1" gradientUnits="userSpaceOnUse" gradientTransform="translate(520 520) rotate(25) scale(640 520)">
      <stop stop-color="#30D17A" stop-opacity="0.70"></stop>
      <stop offset="0.6" stop-color="#30D17A" stop-opacity="0.22"></stop>
      <stop offset="1" stop-color="#30D17A" stop-opacity="0"></stop>
    </radialGradient>

    <radialGradient id="gBlue2" cx="0" cy="0" r="1" gradientUnits="userSpaceOnUse" gradientTransform="translate(1380 640) rotate(-20) scale(520 420)">
      <stop stop-color="#A7C4FF" stop-opacity="0.55"></stop>
      <stop offset="0.6" stop-color="#C7E2FF" stop-opacity="0.18"></stop>
      <stop offset="1" stop-color="#A7C4FF" stop-opacity="0"></stop>
    </radialGradient>

    <!-- Subtle mesh gradient band -->
    <linearGradient id="meshBand" x1="200" y1="140" x2="1400" y2="720" gradientUnits="userSpaceOnUse">
      <stop offset="0" stop-color="#30B2F6" stop-opacity="0.10"></stop>
      <stop offset="0.5" stop-color="#4C82F3" stop-opacity="0.10"></stop>
      <stop offset="1" stop-color="#30D17A" stop-opacity="0.10"></stop>
    </linearGradient>

    <!-- Patterns -->
    <pattern id="thinGrid2" width="80" height="80" patternUnits="userSpaceOnUse">
      <path d="M80 0H0V80" fill="none" stroke="#E4EBFF" stroke-opacity="0.06" stroke-width="1"></path>
    </pattern>

    <pattern id="microDots2" width="28" height="28" patternUnits="userSpaceOnUse">
      <circle cx="2" cy="2" r="1" fill="#F8FAFC" opacity="0.06"></circle>
      <circle cx="14" cy="18" r="0.9" fill="#F8FAFC" opacity="0.05"></circle>
    </pattern>

    <!-- Vignette -->
    <radialGradient id="vig2" cx="0" cy="0" r="1" gradientUnits="userSpaceOnUse" gradientTransform="translate(800 400) scale(940 560)">
      <stop offset="0" stop-color="#F8FAFC" stop-opacity="0"></stop>
      <stop offset="1" stop-color="#F8FAFC" stop-opacity="0.58"></stop>
    </radialGradient>

    <!-- Filters -->
    <filter id="blur32" x="-50%" y="-50%" width="200%" height="200%" color-interpolation-filters="sRGB">
      <feGaussianBlur stdDeviation="32"></feGaussianBlur>
    </filter>

    <filter id="softGlow2" x="-60%" y="-60%" width="220%" height="220%" color-interpolation-filters="sRGB">
      <feGaussianBlur stdDeviation="16" result="b"></feGaussianBlur>
      <feColorMatrix in="b" type="matrix" values="1 0 0 0 0
                0 1 0 0 0
                0 0 1 0 0
                0 0 0 0.75 0" result="g"></feColorMatrix>
      <feMerge>
        <feMergeNode in="g"></feMergeNode>
        <feMergeNode in="SourceGraphic"></feMergeNode>
      </feMerge>
    </filter>

    <filter id="glass2" x="-30%" y="-30%" width="160%" height="160%" color-interpolation-filters="sRGB">
      <feGaussianBlur stdDeviation="7" result="bg"></feGaussianBlur>
      <feColorMatrix in="bg" type="matrix" values="1 0 0 0 0
                0 1 0 0 0
                0 0 1 0 0
                0 0 0 0.33 0" result="m"></feColorMatrix>
      <feMerge>
        <feMergeNode in="m"></feMergeNode>
        <feMergeNode in="SourceGraphic"></feMergeNode>
      </feMerge>
    </filter>

    <filter id="grain2" x="-20%" y="-20%" width="140%" height="140%">
      <feTurbulence type="fractalNoise" baseFrequency="0.85" numOctaves="2" stitchTiles="stitch" result="n"></feTurbulence>
      <feColorMatrix type="matrix" in="n" values="0 0 0 0 0
                0 0 0 0 0
                0 0 0 0 0
                0 0 0 0.16 0" result="a"></feColorMatrix>
      <feBlend in="SourceGraphic" in2="a" mode="overlay"></feBlend>
    </filter>
  </defs>

  <!-- Base -->
  <rect width="1600" height="800" fill="url(#bg2)"></rect>
  <rect width="1600" height="800" fill="url(#atm2)"></rect>

  <!-- Layer: back (slow) -->
  <g id="parallax-back">
    <rect width="1600" height="800" fill="url(#thinGrid2)" opacity="0.85"></rect>
    <rect width="1600" height="800" fill="url(#microDots2)" opacity="0.8"></rect>

    <!-- Wide blurred wave band -->
    <path d="M-40 560C180 470 350 500 560 560C820 635 1060 650 1320 560C1500 495 1620 420 1700 350" stroke="#CBD5E1" stroke-opacity="0.10" stroke-width="18" filter="url(#blur32)"></path>
  </g>

  <!-- Layer: mid (medium) -->
  <g id="parallax-mid" filter="url(#softGlow2)">
    <ellipse cx="980" cy="220" rx="560" ry="380" fill="url(#gCyan2)" opacity="0.9"></ellipse>
    <ellipse cx="520" cy="520" rx="640" ry="420" fill="url(#gGreen2)" opacity="0.8"></ellipse>
    <ellipse cx="1380" cy="640" rx="520" ry="360" fill="url(#gBlue2)" opacity="0.75"></ellipse>

    <!-- Mesh ribbon -->
    <path d="M200 150C420 80 620 120 820 210C1010 295 1180 330 1400 280V410C1180 470 1020 450 820 360C620 265 420 230 200 300Z" fill="url(#meshBand)"></path>

    <!-- “Constellation” nodes + links -->
    <g opacity="0.75">
      <path d="M360 250L520 320L700 240L890 310L1040 230" stroke="#30B2F6" stroke-opacity="0.28" stroke-width="2" stroke-linecap="round"></path>
      <path d="M520 520L680 460L860 520L1040 450L1220 520" stroke="#30D17A" stroke-opacity="0.22" stroke-width="2" stroke-linecap="round"></path>
      <circle cx="360" cy="250" r="5.5" fill="#8BC4FF" opacity="0.7"></circle>
      <circle cx="520" cy="320" r="5.5" fill="#30B2F6" opacity="0.75"></circle>
      <circle cx="700" cy="240" r="5.5" fill="#A7C4FF" opacity="0.65"></circle>
      <circle cx="890" cy="310" r="5.5" fill="#30B2F6" opacity="0.7"></circle>
      <circle cx="1040" cy="230" r="5.5" fill="#8BC4FF" opacity="0.7"></circle>

      <circle cx="520" cy="520" r="5.5" fill="#30D17A" opacity="0.7"></circle>
      <circle cx="680" cy="460" r="5.5" fill="#81C784" opacity="0.7"></circle>
      <circle cx="860" cy="520" r="5.5" fill="#30D17A" opacity="0.7"></circle>
      <circle cx="1040" cy="450" r="5.5" fill="#30B2F6" opacity="0.55"></circle>
      <circle cx="1220" cy="520" r="5.5" fill="#30D17A" opacity="0.7"></circle>
    </g>
  </g>

  <!-- Layer: front (fast) -->
  <g id="parallax-front" filter="url(#glass2)">
    <!-- Glass arc panel -->
    <path d="M1000 110C1120 70 1290 85 1445 140C1505 162 1540 215 1540 280V318C1540 356 1510 386 1472 386H1030C992 386 960 356 960 318V230C960 175 972 134 1000 110Z" fill="#DFE7F4" fill-opacity="0.32" stroke="#E4EBFF" stroke-opacity="0.11"></path>

    <!-- Lower glass slab -->
    <path d="M110 520C110 488 136 462 168 462H650C682 462 708 488 708 520V675C708 707 682 733 650 733H168C136 733 110 707 110 675V520Z" fill="#E4E7EF" fill-opacity="0.28" stroke="#E4EBFF" stroke-opacity="0.10"></path>

    <!-- Angular shards / highlights -->
    <path d="M1060 160L1260 110L1320 220L1120 270Z" fill="#30B2F6" fill-opacity="0.11"></path>
    <path d="M220 420L420 360L500 470L300 530Z" fill="#30D17A" fill-opacity="0.09"></path>
    <path d="M1260 560L1500 520L1545 640L1300 690Z" fill="#A7C4FF" fill-opacity="0.09"></path>

    <path d="M168 505H650" stroke="#F8FAFC" stroke-opacity="0.10" stroke-width="2"></path>
    <path d="M1030 160H1472" stroke="#F8FAFC" stroke-opacity="0.10" stroke-width="2"></path>
  </g>

  <!-- Vignette + grain -->
  <rect width="1600" height="800" fill="url(#vig2)"></rect>
  <g filter="url(#grain2)">
    <rect width="1600" height="800" fill="transparent"></rect>
  </g>
</svg>
