<svg xmlns="http://www.w3.org/2000/svg" width="100%" height="100%" fill="none" aria-label="Transparent parallax background with rising bubbles on the left" preserveAspectRatio="xMidYMid slice" viewBox="0 0 1600 900"><defs><radialGradient id="a" cx="0" cy="0" r="1" gradientTransform="matrix(520 0 0 560 240 420)" gradientUnits="userSpaceOnUse"><stop offset="0" stop-color="#30b2f6" stop-opacity=".22"/><stop offset=".55" stop-color="#8bc4ff" stop-opacity=".12"/><stop offset="1" stop-color="#30b2f6" stop-opacity="0"/></radialGradient><radialGradient id="b" cx="0" cy="0" r="1" gradientUnits="userSpaceOnUse"><stop offset="0" stop-color="#f8fafc" stop-opacity=".22"/><stop offset=".35" stop-color="#30b2f6" stop-opacity=".18"/><stop offset="1" stop-color="#30b2f6" stop-opacity=".02"/></radialGradient><linearGradient id="c" x1="0" x2="1" y1="0" y2="1" gradientUnits="objectBoundingBox"><stop offset="0" stop-color="#e4ebff" stop-opacity=".32"/><stop offset=".55" stop-color="#30b2f6" stop-opacity=".38"/><stop offset="1" stop-color="#30d17a" stop-opacity=".18"/></linearGradient></defs><g transform="translate(-160 -90) scale(1.35)"><ellipse cx="230" cy="430" fill="url(#a)" rx="420" ry="520"/><path stroke="#30b2f6" stroke-opacity=".12" stroke-width="10" d="M120 820c10-120-15-220 20-310s10-170 50-250 20-140 60-220"/></g><g transform="translate(42.5 787.5) scale(1.35)"><circle r="44" fill="url(#b)" opacity=".9"/><circle r="44" stroke="url(#c)" stroke-width="2.2" opacity=".75"/><circle cx="-14" cy="-16" r="10" fill="#f8fafc" opacity=".1"/></g><g transform="translate(150.5 612) scale(1.35)"><circle r="30" fill="url(#b)" opacity=".85"/><circle r="30" stroke="url(#c)" stroke-width="2" opacity=".7"/><circle cx="-10" cy="-12" r="7" fill="#f8fafc" opacity=".1"/></g><g transform="translate(69.5 450) scale(1.35)"><circle r="56" fill="url(#b)" opacity=".75"/><circle r="56" stroke="url(#c)" stroke-width="2.4" opacity=".68"/><circle cx="-18" cy="-20" r="12" fill="#f8fafc" opacity=".1"/></g><g transform="translate(191 274.5) scale(1.35)"><circle r="26" fill="url(#b)" opacity=".8"/><circle r="26" stroke="url(#c)" stroke-width="1.9" opacity=".7"/><circle cx="-8" cy="-10" r="6" fill="#f8fafc" opacity=".1"/></g><g transform="translate(96.5 99) scale(1.35)"><circle r="38" fill="url(#b)" opacity=".7"/><circle r="38" stroke="url(#c)" stroke-width="2.1" opacity=".65"/><circle cx="-12" cy="-14" r="8" fill="#f8fafc" opacity=".1"/></g><g opacity=".75"><g transform="translate(-11.5 882) scale(1.35)"><circle r="12" fill="url(#b)"/><circle r="12" stroke="url(#c)" stroke-width="1.6" opacity=".7"/></g><circle r="5" stroke="url(#c)" opacity=".6" transform="translate(204.5 733.5) scale(1.35)"/><circle r="8" fill="url(#b)" opacity=".6" transform="translate(83 18) scale(1.35)"/></g></svg>