<!-- Save as: hero-parallax.svg  |  Height fixed at 800, responsive width -->
<svg xmlns="http://www.w3.org/2000/svg" width="100%" height="800" viewBox="0 0 1440 800" preserveAspectRatio="xMidYMid slice">
  <title>Parallax Glass Tech Background</title>

  <defs>
    <!-- Core palette (from your tokens) -->
    <!-- hero-gradient-start: #2F54C3 | mid: #4C82F3 | end: #2BA66D -->
    <!-- accent-primary-highlight: #30B2F6 | accent-supporting: #30D17A | shadow-primary-600: #5D9CFF -->

    <linearGradient id="bgGrad" x1="0" y1="0" x2="1" y2="1">
      <stop offset="0" stop-color="#F8FAFC"></stop>
      <stop offset="0.35" stop-color="#EEF3FC"></stop>
      <stop offset="0.55" stop-color="#2F54C3" stop-opacity="0.85"></stop>
      <stop offset="0.72" stop-color="#4C82F3" stop-opacity="0.55"></stop>
      <stop offset="1" stop-color="#2BA66D" stop-opacity="0.35"></stop>
    </linearGradient>

    <radialGradient id="glowBlue" cx="35%" cy="35%" r="60%">
      <stop offset="0" stop-color="#30B2F6" stop-opacity="0.55"></stop>
      <stop offset="0.45" stop-color="#5D9CFF" stop-opacity="0.22"></stop>
      <stop offset="1" stop-color="#F8FAFC" stop-opacity="0"></stop>
    </radialGradient>

    <radialGradient id="glowGreen" cx="78%" cy="55%" r="65%">
      <stop offset="0" stop-color="#30D17A" stop-opacity="0.38"></stop>
      <stop offset="0.55" stop-color="#2BA66D" stop-opacity="0.18"></stop>
      <stop offset="1" stop-color="#F8FAFC" stop-opacity="0"></stop>
    </radialGradient>

    <radialGradient id="glowIce" cx="55%" cy="10%" r="60%">
      <stop offset="0" stop-color="#9CC9FF" stop-opacity="0.35"></stop>
      <stop offset="0.55" stop-color="#4C82F3" stop-opacity="0.12"></stop>
      <stop offset="1" stop-color="#F8FAFC" stop-opacity="0"></stop>
    </radialGradient>

    <!-- Subtle grid -->
    <pattern id="grid" width="48" height="48" patternUnits="userSpaceOnUse">
      <path d="M 48 0 H 0 V 48" fill="none" stroke="#C7E2FF" stroke-opacity="0.10" stroke-width="1"></path>
      <path d="M 24 0 V 48 M 0 24 H 48" fill="none" stroke="#C7E2FF" stroke-opacity="0.06" stroke-width="1"></path>
    </pattern>

    <!-- Scanlines -->
    <pattern id="scanlines" width="6" height="6" patternUnits="userSpaceOnUse">
      <rect width="6" height="1" y="0" fill="#FFFFFF" opacity="0.06"></rect>
    </pattern>

    <!-- Noise overlay -->
    <filter id="noise" x="-20%" y="-20%" width="140%" height="140%">
      <feTurbulence type="fractalNoise" baseFrequency="0.9" numOctaves="2" stitchTiles="stitch"></feTurbulence>
      <feColorMatrix type="matrix" values="
        1 0 0 0 0
        0 1 0 0 0
        0 0 1 0 0
        0 0 0 0.12 0"></feColorMatrix>
    </filter>

    <!-- Soft glow -->
    <filter id="softGlow" x="-30%" y="-30%" width="160%" height="160%">
      <feGaussianBlur stdDeviation="18" result="b"></feGaussianBlur>
      <feColorMatrix in="b" type="matrix" values="
        1 0 0 0 0
        0 1 0 0 0
        0 0 1 0 0
        0 0 0 0.9 0" result="g"></feColorMatrix>
      <feMerge>
        <feMergeNode in="g"></feMergeNode>
        <feMergeNode in="SourceGraphic"></feMergeNode>
      </feMerge>
    </filter>

    <!-- Glass card feel -->
    <filter id="glass" x="-20%" y="-20%" width="140%" height="140%">
      <feGaussianBlur stdDeviation="6" result="blur"></feGaussianBlur>
      <feSpecularLighting in="blur" surfaceScale="2" specularConstant="0.35" specularExponent="24" lighting-color="#FFFFFF" result="spec">
        <feDistantLight azimuth="220" elevation="35"></feDistantLight>
      </feSpecularLighting>
      <feComposite in="spec" in2="SourceAlpha" operator="in" result="specIn"></feComposite>
      <feMerge>
        <feMergeNode in="SourceGraphic"></feMergeNode>
        <feMergeNode in="specIn"></feMergeNode>
      </feMerge>
    </filter>

    <!-- Vignette -->
    <radialGradient id="vignette" cx="50%" cy="50%" r="70%">
      <stop offset="55%" stop-color="#F8FAFC" stop-opacity="0"></stop>
      <stop offset="100%" stop-color="#F8FAFC" stop-opacity="0.78"></stop>
    </radialGradient>

    <!-- “Circuit” stroke gradient -->
    <linearGradient id="circuitGrad" x1="0" y1="0" x2="1" y2="0">
      <stop offset="0" stop-color="#30B2F6" stop-opacity="0.9"></stop>
      <stop offset="0.5" stop-color="#C7E2FF" stop-opacity="0.55"></stop>
      <stop offset="1" stop-color="#30D17A" stop-opacity="0.8"></stop>
    </linearGradient>
  </defs>

  <!-- Base -->
  <rect width="1440" height="800" fill="#F8FAFC"></rect>

  <!-- LAYER 0: background gradient + large glows -->
  <g id="layer0" data-depth="0.06">
    <rect width="1440" height="800" fill="url(#bgGrad)"></rect>
    <ellipse cx="520" cy="280" rx="640" ry="460" fill="url(#glowBlue)"></ellipse>
    <ellipse cx="1120" cy="470" rx="760" ry="520" fill="url(#glowGreen)"></ellipse>
    <ellipse cx="820" cy="120" rx="640" ry="360" fill="url(#glowIce)"></ellipse>
  </g>

  <!-- LAYER 1: blurred “nebula” blobs (parallax friendly) -->
  <g id="layer1" data-depth="0.12" filter="url(#softGlow)" style="mix-blend-mode:screen">
    <path d="M190,610 C280,500 460,520 560,430 C680,320 610,210 760,170 C930,125 980,250 1100,310 C1240,380 1360,360 1440,300 L1440,800 L0,800 Z" fill="#4C82F3" opacity="0.14"></path>
    <path d="M0,520 C140,470 280,520 420,470 C600,405 640,290 820,260 C1010,225 1080,340 1230,390 C1320,420 1380,400 1440,360 L1440,800 L0,800 Z" fill="#30D17A" opacity="0.10"></path>
    <path d="M0,240 C160,190 290,230 430,190 C620,130 700,40 880,60 C1070,80 1160,170 1320,210 C1390,228 1420,220 1440,210 L1440,0 L0,0 Z" fill="#30B2F6" opacity="0.10"></path>
  </g>

  <!-- LAYER 2: grid + scanlines + noise -->
  <g id="layer2" data-depth="0.18">
    <rect width="1440" height="800" fill="url(#grid)" opacity="0.65"></rect>
    <rect width="1440" height="800" fill="url(#scanlines)" opacity="0.25"></rect>
    <rect width="1440" height="800" filter="url(#noise)" opacity="0.55"></rect>
  </g>

  <!-- LAYER 3: circuits + particles -->
  <g id="layer3" data-depth="0.28" opacity="0.95">
    <g fill="none" stroke="url(#circuitGrad)" stroke-width="2" stroke-linecap="round" stroke-linejoin="round" opacity="0.55">
      <path d="M120 560 H420 Q460 560 460 520 V420 Q460 380 500 380 H680"></path>
      <path d="M220 220 H520 Q560 220 560 260 V310 Q560 350 600 350 H820 Q860 350 860 310 V250"></path>
      <path d="M860 520 H1040 Q1100 520 1100 460 V360 Q1100 320 1140 320 H1320"></path>
      <path d="M980 160 H1140 Q1180 160 1180 200 V260 Q1180 300 1220 300 H1340"></path>
      <path d="M80 360 H240 Q300 360 300 300 V240 Q300 200 340 200 H420"></path>
    </g>

    <!-- Nodes -->
    <g opacity="0.75" style="mix-blend-mode:screen">
      <circle cx="460" cy="520" r="5" fill="#30B2F6"></circle>
      <circle cx="560" cy="260" r="5" fill="#C7E2FF"></circle>
      <circle cx="1100" cy="460" r="5" fill="#30D17A"></circle>
      <circle cx="1180" cy="200" r="5" fill="#9CC9FF"></circle>
      <circle cx="300" cy="300" r="5" fill="#5D9CFF"></circle>
      <circle cx="680" cy="380" r="4" fill="#30B2F6"></circle>
      <circle cx="1320" cy="320" r="4" fill="#30D17A"></circle>
      <circle cx="860" cy="250" r="4" fill="#C7E2FF"></circle>
    </g>

    <!-- Floating particles -->
    <g opacity="0.55">
      <circle cx="180" cy="120" r="2" fill="#E4EBFF"></circle>
      <circle cx="260" cy="640" r="2" fill="#E4EBFF"></circle>
      <circle cx="720" cy="690" r="2" fill="#E4EBFF"></circle>
      <circle cx="1180" cy="110" r="2" fill="#E4EBFF"></circle>
      <circle cx="1320" cy="610" r="2" fill="#E4EBFF"></circle>
      <circle cx="980" cy="420" r="2" fill="#E4EBFF"></circle>
    </g>
  </g>

  <!-- LAYER 4: glassmorphism cards (optional depth elements) -->
  <g id="layer4" data-depth="0.38">
    <g filter="url(#glass)" opacity="0.92">
      <rect x="120" y="120" width="420" height="170" rx="22" fill="#DFE7F4" fill-opacity="0.42" stroke="#C7E2FF" stroke-opacity="0.22"></rect>
      <rect x="860" y="480" width="460" height="190" rx="24" fill="#E4E7EF" fill-opacity="0.40" stroke="#30B2F6" stroke-opacity="0.20"></rect>
      <rect x="560" y="310" width="320" height="140" rx="22" fill="#F4F7FC" fill-opacity="0.42" stroke="#30D17A" stroke-opacity="0.16"></rect>
    </g>

    <!-- Card highlights -->
    <g opacity="0.35" style="mix-blend-mode:screen">
      <path d="M150 150 H500" stroke="#30B2F6" stroke-width="2" stroke-linecap="round"></path>
      <path d="M590 340 H850" stroke="#9CC9FF" stroke-width="2" stroke-linecap="round"></path>
      <path d="M890 510 H1280" stroke="#30D17A" stroke-width="2" stroke-linecap="round"></path>
    </g>
  </g>

  <!-- Vignette for focus -->
  <rect width="1440" height="800" fill="url(#vignette)"></rect>
</svg>
