<svg xmlns="http://www.w3.org/2000/svg" width="1600" height="900" viewBox="0 0 1600 900" preserveAspectRatio="xMidYMid slice" role="img" aria-label="Light SDG objections parallax background with layered leaves">
  <defs>
    <linearGradient id="sdgLightObjBase" x1="0" y1="0" x2="0" y2="1">
      <stop offset="0%" stop-color="#EEF6FF" />
      <stop offset="100%" stop-color="#E9FFF5" />
    </linearGradient>
    <linearGradient id="sdgLightObjLeafA" x1="0" y1="0" x2="1" y2="1">
      <stop offset="0%" stop-color="#30B0EC" stop-opacity="0.26" />
      <stop offset="100%" stop-color="#2EC788" stop-opacity="0.32" />
    </linearGradient>
    <linearGradient id="sdgLightObjLeafB" x1="1" y1="0" x2="0" y2="1">
      <stop offset="0%" stop-color="#7FD0FF" stop-opacity="0.28" />
      <stop offset="100%" stop-color="#9EE8C0" stop-opacity="0.24" />
    </linearGradient>
    <radialGradient id="sdgLightObjHalo" cx="0" cy="0" r="1" gradientUnits="userSpaceOnUse" gradientTransform="translate(240 260) scale(460 340)">
      <stop offset="0%" stop-color="#9FDFFF" stop-opacity="0.34" />
      <stop offset="100%" stop-color="#9FDFFF" stop-opacity="0" />
    </radialGradient>
  </defs>

  <rect width="1600" height="900" fill="url(#sdgLightObjBase)" />
  <circle cx="240" cy="260" r="340" fill="url(#sdgLightObjHalo)" />

  <path d="M-60 520C180 500 340 420 520 360C780 276 1080 260 1380 340C1480 368 1580 410 1680 470V900H-60Z" fill="url(#sdgLightObjLeafA)" />
  <path d="M-60 640C180 600 420 520 660 520C940 520 1240 620 1600 610L1680 600V900H-60Z" fill="url(#sdgLightObjLeafB)" />

  <g opacity="0.35" fill="none" stroke="#3A9FE8" stroke-width="2.2">
    <path d="M160 440C320 400 520 400 760 450C1000 500 1240 500 1440 440" />
    <path d="M220 520C420 480 680 480 880 520C1120 568 1340 560 1520 520" />
  </g>

  <g opacity="0.42" fill="#2FC08A">
    <circle cx="360" cy="360" r="9" />
    <circle cx="520" cy="320" r="8" />
    <circle cx="700" cy="360" r="7" />
    <circle cx="980" cy="320" r="7" />
    <circle cx="1240" cy="360" r="9" />
    <circle cx="1400" cy="300" r="8" />
  </g>
</svg>
