<svg xmlns="http://www.w3.org/2000/svg" width="1600" height="800" viewBox="0 0 1600 800" fill="none" role="img" aria-label="Abstract dark tech parallax background">
  <defs>
    <!-- Core background -->
    <linearGradient id="bg" x1="0" y1="0" x2="1600" y2="800" gradientUnits="userSpaceOnUse">
      <stop offset="0" stop-color="#F4F7FC"></stop>
      <stop offset="0.45" stop-color="#DFE7F4"></stop>
      <stop offset="1" stop-color="#EEF3FC"></stop>
    </linearGradient>

    <!-- Hero-ish sweep -->
    <linearGradient id="heroSweep" x1="1600" y1="0" x2="200" y2="800" gradientUnits="userSpaceOnUse">
      <stop offset="0" stop-color="#2F54C3" stop-opacity="0.55"></stop>
      <stop offset="0.55" stop-color="#4C82F3" stop-opacity="0.35"></stop>
      <stop offset="1" stop-color="#2BA66D" stop-opacity="0.25"></stop>
    </linearGradient>

    <!-- Glow fills -->
    <radialGradient id="glowBlue" cx="0" cy="0" r="1" gradientUnits="userSpaceOnUse" gradientTransform="translate(1180 240) rotate(110) scale(520 520)">
      <stop stop-color="#30B2F6" stop-opacity="0.95"></stop>
      <stop offset="0.55" stop-color="#8BC4FF" stop-opacity="0.35"></stop>
      <stop offset="1" stop-color="#30B2F6" stop-opacity="0"></stop>
    </radialGradient>

    <radialGradient id="glowGreen" cx="0" cy="0" r="1" gradientUnits="userSpaceOnUse" gradientTransform="translate(520 620) rotate(25) scale(560 460)">
      <stop stop-color="#30D17A" stop-opacity="0.75"></stop>
      <stop offset="0.55" stop-color="#30D17A" stop-opacity="0.25"></stop>
      <stop offset="1" stop-color="#30D17A" stop-opacity="0"></stop>
    </radialGradient>

    <radialGradient id="glowViolet" cx="0" cy="0" r="1" gradientUnits="userSpaceOnUse" gradientTransform="translate(340 180) rotate(15) scale(520 420)">
      <stop stop-color="#A7C4FF" stop-opacity="0.60"></stop>
      <stop offset="0.6" stop-color="#C7E2FF" stop-opacity="0.20"></stop>
      <stop offset="1" stop-color="#A7C4FF" stop-opacity="0"></stop>
    </radialGradient>

    <!-- Grid / dots -->
    <pattern id="grid" width="90" height="90" patternUnits="userSpaceOnUse">
      <path d="M90 0H0V90" fill="none" stroke="#CBD5E1" stroke-opacity="0.08" stroke-width="1"></path>
      <path d="M0 45H90M45 0V90" fill="none" stroke="#E4EBFF" stroke-opacity="0.04" stroke-width="1"></path>
    </pattern>

    <pattern id="dots" width="34" height="34" patternUnits="userSpaceOnUse">
      <circle cx="2" cy="2" r="1.2" fill="#F8FAFC" opacity="0.08"></circle>
    </pattern>

    <!-- Soft vignette -->
    <radialGradient id="vignette" cx="0" cy="0" r="1" gradientUnits="userSpaceOnUse" gradientTransform="translate(800 400) scale(900 520)">
      <stop offset="0" stop-color="#F8FAFC" stop-opacity="0"></stop>
      <stop offset="1" stop-color="#F8FAFC" stop-opacity="0.55"></stop>
    </radialGradient>

    <!-- Filters -->
    <filter id="blur40" x="-50%" y="-50%" width="200%" height="200%" color-interpolation-filters="sRGB">
      <feGaussianBlur stdDeviation="40"></feGaussianBlur>
    </filter>

    <filter id="glow" x="-60%" y="-60%" width="220%" height="220%" color-interpolation-filters="sRGB">
      <feGaussianBlur stdDeviation="18" result="b"></feGaussianBlur>
      <feColorMatrix in="b" type="matrix" values="1 0 0 0 0
                0 1 0 0 0
                0 0 1 0 0
                0 0 0 0.85 0" result="g"></feColorMatrix>
      <feMerge>
        <feMergeNode in="g"></feMergeNode>
        <feMergeNode in="SourceGraphic"></feMergeNode>
      </feMerge>
    </filter>

    <filter id="glass" x="-30%" y="-30%" width="160%" height="160%" color-interpolation-filters="sRGB">
      <feGaussianBlur stdDeviation="6" result="bg"></feGaussianBlur>
      <feColorMatrix in="bg" type="matrix" values="1 0 0 0 0
                0 1 0 0 0
                0 0 1 0 0
                0 0 0 0.35 0" result="m"></feColorMatrix>
      <feMerge>
        <feMergeNode in="m"></feMergeNode>
        <feMergeNode in="SourceGraphic"></feMergeNode>
      </feMerge>
    </filter>

    <!-- Subtle grain -->
    <filter id="grain" x="-20%" y="-20%" width="140%" height="140%">
      <feTurbulence type="fractalNoise" baseFrequency="0.9" numOctaves="2" stitchTiles="stitch" result="n"></feTurbulence>
      <feColorMatrix type="matrix" in="n" values="0 0 0 0 0
                0 0 0 0 0
                0 0 0 0 0
                0 0 0 0.18 0" result="a"></feColorMatrix>
      <feBlend in="SourceGraphic" in2="a" mode="overlay"></feBlend>
    </filter>
  </defs>

  <!-- Base -->
  <rect width="1600" height="800" fill="url(#bg)"></rect>
  <rect width="1600" height="800" fill="url(#heroSweep)" opacity="0.85"></rect>

  <!-- Layer: far back (slow parallax) -->
  <g id="parallax-back">
    <rect width="1600" height="800" fill="url(#grid)"></rect>
    <rect width="1600" height="800" fill="url(#dots)" opacity="0.55"></rect>
    <path d="M-40 610C190 520 320 540 560 610C820 688 1020 720 1300 640C1460 594 1560 530 1680 460" stroke="#E4EBFF" stroke-opacity="0.10" stroke-width="2"></path>
    <path d="M-60 260C160 210 320 250 540 300C780 360 960 330 1220 250C1400 195 1540 130 1700 90" stroke="#CBD5E1" stroke-opacity="0.10" stroke-width="2"></path>
  </g>

  <!-- Layer: mid (medium parallax) -->
  <g id="parallax-mid" filter="url(#glow)">
    <ellipse cx="1180" cy="240" rx="520" ry="360" fill="url(#glowBlue)" opacity="0.85"></ellipse>
    <ellipse cx="520" cy="620" rx="560" ry="380" fill="url(#glowGreen)" opacity="0.75"></ellipse>
    <ellipse cx="340" cy="180" rx="520" ry="360" fill="url(#glowViolet)" opacity="0.70"></ellipse>

    <!-- “Circuit” strokes -->
    <path d="M220 520H520C560 520 590 490 590 450V320C590 280 620 250 660 250H860" stroke="#30B2F6" stroke-opacity="0.35" stroke-width="2.2" stroke-linecap="round"></path>
    <path d="M980 560H1230C1270 560 1300 530 1300 490V360C1300 320 1330 290 1370 290H1500" stroke="#30D17A" stroke-opacity="0.28" stroke-width="2.2" stroke-linecap="round"></path>
    <path d="M860 250L910 250M590 320L640 320M1300 360L1355 360" stroke="#F8FAFC" stroke-opacity="0.20" stroke-width="3" stroke-linecap="round"></path>
    <circle cx="520" cy="520" r="5.5" fill="#30B2F6" opacity="0.75"></circle>
    <circle cx="590" cy="320" r="5.5" fill="#8BC4FF" opacity="0.75"></circle>
    <circle cx="1300" cy="560" r="5.5" fill="#30D17A" opacity="0.70"></circle>
  </g>

  <!-- Layer: front (faster parallax) -->
  <g id="parallax-front" filter="url(#glass)">
    <!-- Glass panels -->
    <g opacity="0.75">
      <path d="M1040 120C1040 102 1054 88 1072 88H1462C1480 88 1494 102 1494 120V310C1494 328 1480 342 1462 342H1072C1054 342 1040 328 1040 310V120Z" fill="#DFE7F4" fill-opacity="0.35" stroke="#E4EBFF" stroke-opacity="0.12"></path>
      <path d="M120 420C120 402 134 388 152 388H620C638 388 652 402 652 420V660C652 678 638 692 620 692H152C134 692 120 678 120 660V420Z" fill="#E4E7EF" fill-opacity="0.30" stroke="#E4EBFF" stroke-opacity="0.10"></path>
    </g>

    <!-- Angular shards -->
    <path d="M980 120L1120 80L1180 210L1040 250Z" fill="#30B2F6" fill-opacity="0.10"></path>
    <path d="M300 320L520 260L590 360L370 430Z" fill="#A7C4FF" fill-opacity="0.10"></path>
    <path d="M1260 520L1500 480L1540 610L1300 660Z" fill="#30D17A" fill-opacity="0.10"></path>

    <!-- Highlight lines -->
    <path d="M152 430H610" stroke="#F8FAFC" stroke-opacity="0.10" stroke-width="2"></path>
    <path d="M1072 126H1462" stroke="#F8FAFC" stroke-opacity="0.10" stroke-width="2"></path>
  </g>

  <!-- Vignette + grain -->
  <rect width="1600" height="800" fill="url(#vignette)"></rect>
  <g filter="url(#grain)">
    <rect width="1600" height="800" fill="transparent"></rect>
  </g>
</svg>
