<svg xmlns="http://www.w3.org/2000/svg" width="1600" height="800" viewBox="0 0 1600 800" preserveAspectRatio="xMidYMid slice" fill="none" role="img" aria-label="Translucent festive light parallax background with right-aligned sparkles">
  <defs>
    <linearGradient id="bg" x1="0%" y1="0%" x2="100%" y2="0%" gradientUnits="userSpaceOnUse" gradientTransform="rotate(25 0.5 0.5)">
      <stop offset="0%" stop-color="#00DE9F" />
      <stop offset="50%" stop-color="#00A1C2" />
      <stop offset="100%" stop-color="#0088D6" />
    </linearGradient>
    <radialGradient id="glowL" cx="0.08" cy="0.2" r="0.74">
      <stop offset="0%" stop-color="#00A1C2" stop-opacity="0.2" />
      <stop offset="100%" stop-color="#00A1C2" stop-opacity="0" />
    </radialGradient>
    <radialGradient id="glowR" cx="0.9" cy="0.7" r="0.82">
      <stop offset="0%" stop-color="#0088D6" stop-opacity="0.18" />
      <stop offset="100%" stop-color="#0088D6" stop-opacity="0" />
    </radialGradient>
    <pattern id="micro" width="22" height="22" patternUnits="userSpaceOnUse">
      <circle cx="11" cy="11" r="1.2" fill="#F4F4F4" opacity="0.08" />
    </pattern>
    <filter id="blur14" x="-20%" y="-20%" width="140%" height="140%">
      <feGaussianBlur stdDeviation="14" />
    </filter>
  </defs>

  <rect width="1600" height="800" fill="url(#bg)" opacity="0.86" />
  <rect width="1600" height="800" fill="url(#glowL)" />
  <rect width="1600" height="800" fill="url(#glowR)" />
  <rect width="1600" height="800" fill="url(#micro)" />

  <g id="parallax-back" opacity="0.7">
    <ellipse cx="190" cy="190" rx="300" ry="210" fill="#00A1C2" opacity="0.2" filter="url(#blur14)" />
    <ellipse cx="1420" cy="620" rx="320" ry="230" fill="#0088D6" opacity="0.18" filter="url(#blur14)" />
  </g>

  <g id="parallax-mid" opacity="0.75">
    <g stroke="#FF8479" stroke-width="1.1" fill="none" opacity="0.2">
      <circle cx="200" cy="180" r="58" />
      <circle cx="220" cy="260" r="36" />
      <circle cx="1440" cy="660" r="64" />
    </g>
    <g fill="#F4F4F4">
      <circle cx="1500" cy="560" r="30" opacity="0.16" />
      <circle cx="1560" cy="640" r="22" opacity="0.16" />
      <circle cx="150" cy="670" r="28" opacity="0.16" />
    </g>
  </g>

  <g id="parallax-front" opacity="0.75">
    <g fill="#F4F4F4" opacity="0.16">
      <path d="M100 130 l6 10 12 2-9 8 2 12-11-6-11 6 2-12-9-8 12-2z" />
      <path d="M1500 210 l5 8 10 2-7 6 2 10-9-5-9 5 2-10-7-6 10-2z" />
      <path d="M1360 130 l5 8 10 2-7 6 2 10-9-5-9 5 2-10-7-6 10-2z" />
    </g>
    <g stroke="#5BDB3B" stroke-width="1.15" fill="none" opacity="0.22">
      <rect x="1448" y="90" width="72" height="60" rx="7" />
      <path d="M1448 120h72" />
      <path d="M1484 90v60" />
    </g>
    <g stroke="#FF8479" stroke-width="1.25" fill="none" opacity="0.23">
      <rect x="104" y="574" width="74" height="60" rx="7" />
      <path d="M104 602h74" />
      <path d="M141 574v60" />
    </g>
    <g fill="#5BDB3B" opacity="0.12">
      <circle cx="1320" cy="590" r="6" />
      <circle cx="1360" cy="660" r="8" />
      <circle cx="1460" cy="520" r="6" />
      <circle cx="1540" cy="600" r="7" />
    </g>
  </g>
</svg>
