<?xml version="1.0" standalone="no"?>
<!DOCTYPE svg PUBLIC "-//W3C//DTD SVG 20010904//EN"
 "http://www.w3.org/TR/2001/REC-SVG-20010904/DTD/svg10.dtd">
<svg version="1.0" xmlns="http://www.w3.org/2000/svg"
 width="371.000000pt" height="371.000000pt" viewBox="0 0 371.000000 371.000000"
 preserveAspectRatio="xMidYMid meet">
<metadata>
Created by potrace 1.14, written by Peter Selinger 2001-2017
</metadata>
<g transform="translate(0.000000,371.000000) scale(0.100000,-0.100000)"
fill="#000000" stroke="none">
<path d="M1585 3699 c-22 -4 -54 -10 -72 -13 -18 -4 -65 -18 -105 -32 -248
-89 -456 -281 -571 -527 -15 -32 -27 -61 -27 -66 0 -4 -26 -14 -57 -21 -239
-53 -422 -247 -478 -504 -12 -54 -13 -203 -2 -268 13 -74 69 -196 120 -263
172 -223 435 -304 700 -214 63 21 101 29 105 23 4 -6 14 -14 22 -17 8 -4 31
-17 50 -28 19 -12 67 -34 105 -50 39 -16 69 -32 68 -36 0 -4 -4 -39 -7 -78 -7
-81 -13 -133 -22 -190 -4 -22 -8 -51 -9 -65 -7 -64 -41 -255 -61 -345 -9 -38
-18 -79 -20 -91 -8 -40 -65 -230 -91 -299 -38 -103 -102 -235 -114 -235 -6 0
-7 -5 -4 -11 4 -5 0 -18 -8 -27 -7 -9 -17 -25 -20 -34 -4 -12 -16 -16 -39 -15
-28 2 -33 -1 -31 -18 1 -14 -4 -21 -16 -22 -12 -1 -17 5 -17 20 1 31 -46 31
-50 0 -4 -25 11 -39 22 -22 4 7 3 9 -4 5 -6 -4 -10 1 -9 13 1 12 8 19 19 18
13 -1 18 -8 16 -22 -2 -16 3 -20 22 -20 19 1 25 6 23 21 -2 16 3 20 20 19 24
-3 25 -23 1 -41 -7 -6 -14 -16 -14 -23 0 -6 -4 -11 -8 -11 -5 0 -9 -7 -9 -15
0 -8 6 -15 14 -15 7 0 13 -6 13 -12 0 -7 5 -5 11 6 9 15 13 16 20 5 5 -8 3
-17 -4 -21 -9 -6 -9 -8 0 -8 7 0 21 8 31 17 13 14 35 18 102 19 47 0 88 -4 92
-10 9 -13 46 -18 52 -7 3 4 -6 7 -19 5 -14 -1 -25 1 -25 6 0 4 28 7 63 5 82
-4 79 -3 72 -18 -4 -6 0 -4 8 6 9 10 18 14 21 9 3 -6 15 -8 26 -5 12 3 20 0
20 -7 0 -6 8 -9 18 -6 9 3 24 1 32 -5 13 -9 12 -10 -2 -5 -10 3 -18 1 -18 -4
0 -6 6 -10 13 -10 15 0 46 20 32 20 -5 0 -3 4 5 10 9 6 17 5 22 -3 4 -7 -1
-16 -14 -23 -12 -6 -23 -22 -24 -35 -2 -13 0 -18 2 -12 3 7 4 15 2 19 -2 3 8
12 22 19 14 7 25 21 25 31 0 13 15 22 57 35 31 9 67 16 80 15 12 -1 28 2 35 6
6 5 14 5 17 0 3 -6 -1 -12 -9 -16 -8 -3 -15 -11 -15 -17 0 -7 11 0 24 14 13
14 25 24 27 22 2 -1 31 -5 65 -7 34 -3 66 -8 72 -12 7 -4 12 -2 12 4 0 6 4 8
10 5 5 -3 33 -8 62 -11 28 -2 55 -10 60 -16 5 -9 8 -8 8 5 0 9 5 17 11 17 5 0
7 -4 4 -10 -4 -6 2 -7 17 -1 28 10 32 48 7 62 -13 6 -19 6 -19 -1 0 -5 8 -10
17 -10 13 0 14 -3 5 -12 -12 -12 -27 0 -52 44 -8 14 -7 16 5 12 8 -3 12 -11 8
-17 -4 -6 -1 -7 7 -2 10 6 9 11 -4 21 -10 7 -24 10 -31 8 -7 -3 -15 3 -19 13
-3 10 -24 42 -46 72 -22 29 -37 58 -34 62 3 5 1 9 -5 9 -5 0 -32 46 -59 102
-97 201 -166 464 -197 758 -4 30 -8 69 -10 85 -2 17 -7 79 -11 138 l-7 107 24
1 c63 1 135 10 194 24 73 17 212 68 240 89 17 12 25 10 73 -16 167 -95 389
-101 560 -17 62 30 165 106 188 138 7 9 24 30 38 46 98 113 160 339 135 495
-17 105 -37 167 -76 238 -81 148 -210 255 -369 307 -49 16 -51 18 -69 73 -89
284 -351 547 -632 633 -138 43 -330 60 -438 38z m-490 -3519 c3 -5 1 -10 -4
-10 -6 0 -11 5 -11 10 0 6 2 10 4 10 3 0 8 -4 11 -10z"/>
<path d="M2043 469 c19 -26 21 -27 43 -12 20 13 25 33 8 33 -3 0 -3 -4 0 -8 2
-4 -5 -14 -16 -21 -18 -11 -20 -11 -15 4 5 11 3 14 -5 9 -7 -5 -9 -2 -6 7 4 9
-1 15 -12 15 -16 0 -16 -2 3 -27z"/>
<path d="M2337 476 l6 -28 -29 17 -29 17 25 -20 c30 -25 49 -13 32 20 -11 22
-11 21 -5 -6z"/>
<path d="M2014 460 c0 -13 4 -16 10 -10 7 7 7 13 0 20 -6 6 -10 3 -10 -10z"/>
<path d="M2150 462 c13 -11 28 -18 32 -16 11 7 10 34 -2 34 -5 0 -7 -7 -3 -16
5 -15 3 -15 -23 1 l-29 17 25 -20z"/>
<path d="M2212 463 c3 -17 38 -28 38 -11 0 6 -7 7 -16 4 -12 -4 -15 -2 -10 9
3 8 1 15 -5 15 -6 0 -9 -7 -7 -17z"/>
<path d="M2268 462 c9 -10 19 -17 21 -16 6 5 -20 34 -30 34 -5 0 -1 -8 9 -18z"/>
<path d="M2365 470 c-3 -6 1 -7 9 -4 18 7 21 14 7 14 -6 0 -13 -4 -16 -10z"/>
<path d="M2477 463 c-10 -10 -8 -23 4 -23 5 0 7 5 3 12 -5 8 -2 9 10 5 10 -4
15 -3 11 3 -7 12 -19 13 -28 3z"/>
<path d="M2110 450 c0 -5 5 -10 10 -10 6 0 10 5 10 10 0 6 -4 10 -10 10 -5 0
-10 -4 -10 -10z"/>
<path d="M2375 452 c-9 -9 -5 -32 5 -32 5 0 7 7 4 15 -5 11 -2 13 10 9 9 -3
16 -2 16 3 0 10 -26 13 -35 5z"/>
<path d="M2259 438 c-1 -7 -1 -16 0 -20 2 -12 -17 -10 -22 2 -3 6 -4 5 -3 -2
4 -22 29 -14 32 10 2 12 2 22 -1 22 -3 0 -6 -6 -6 -12z"/>
<path d="M2420 440 c0 -5 0 -13 1 -17 0 -5 -10 -11 -23 -15 l-23 -7 24 2 c17
1 25 9 27 25 2 12 2 22 -1 22 -3 0 -5 -4 -5 -10z"/>
<path d="M2446 435 c-3 -8 -1 -15 4 -15 6 0 10 7 10 15 0 8 -2 15 -4 15 -2 0
-6 -7 -10 -15z"/>
<path d="M2515 441 c-3 -5 -2 -12 3 -15 5 -3 9 1 9 9 0 17 -3 19 -12 6z"/>
<path d="M2025 430 c-3 -5 -2 -10 4 -10 5 0 13 5 16 10 3 6 2 10 -4 10 -5 0
-13 -4 -16 -10z"/>
<path d="M2145 430 c3 -5 11 -10 16 -10 6 0 7 5 4 10 -3 6 -11 10 -16 10 -6 0
-7 -4 -4 -10z"/>
<path d="M2197 423 c4 -10 2 -14 -5 -9 -6 4 -16 -3 -22 -16 -9 -20 -9 -21 2
-7 7 9 18 16 23 17 13 1 19 32 6 32 -6 0 -7 -7 -4 -17z"/>
<path d="M2290 430 c-8 -5 -10 -10 -5 -10 6 0 17 5 25 10 8 5 11 10 5 10 -5 0
-17 -5 -25 -10z"/>
<path d="M2546 432 c5 -4 12 -11 15 -15 3 -5 9 -2 12 5 3 9 -3 14 -15 15 -11
1 -16 -1 -12 -5z"/>
<path d="M2661 426 c-9 -11 -9 -16 0 -22 8 -5 9 -3 4 6 -6 9 -4 12 7 8 9 -4
15 0 15 8 0 18 -11 18 -26 0z"/>
<path d="M2055 421 c-6 -11 13 -26 22 -17 4 3 1 6 -6 6 -7 0 -9 5 -6 10 3 6 4
10 1 10 -3 0 -7 -4 -11 -9z"/>
<path d="M2113 420 c2 -8 10 -14 16 -12 6 1 11 -7 11 -19 0 -11 -4 -18 -9 -14
-15 9 -23 -13 -11 -32 9 -16 10 -15 5 5 -5 16 -3 22 7 20 8 -2 13 6 13 20 0
12 -4 22 -9 21 -5 0 -13 5 -18 13 -8 10 -9 10 -5 -2z"/>
<path d="M2334 419 c1 -7 10 -13 19 -15 9 -1 15 2 11 7 -3 5 -9 7 -14 4 -4 -3
-11 0 -13 5 -3 6 -4 5 -3 -1z"/>
<path d="M2475 419 c-4 -6 -5 -12 -2 -15 2 -3 7 2 10 11 7 17 1 20 -8 4z"/>
<path d="M2314 396 c3 -16 8 -31 11 -35 3 -3 4 7 1 23 -3 16 -8 31 -11 35 -3
3 -4 -7 -1 -23z"/>
<path d="M2493 403 c-8 -20 5 -45 18 -37 9 5 10 -1 5 -22 -5 -24 -4 -26 5 -11
12 21 4 51 -11 42 -5 -3 -10 3 -10 13 0 15 5 19 19 15 10 -3 21 -1 24 4 3 4
-6 8 -20 8 -14 0 -28 -6 -30 -12z"/>
<path d="M2634 396 c3 -16 8 -31 11 -35 3 -3 4 7 1 23 -3 16 -8 31 -11 35 -3
3 -4 -7 -1 -23z"/>
<path d="M2090 390 c0 -5 5 -10 10 -10 6 0 10 5 10 10 0 6 -4 10 -10 10 -5 0
-10 -4 -10 -10z"/>
<path d="M2230 382 c14 -9 26 -25 28 -35 3 -15 0 -16 -17 -5 -11 6 -19 17 -18
22 3 17 -46 13 -50 -4 -3 -9 -1 -11 4 -5 11 13 47 19 39 7 -3 -6 5 -17 19 -26
25 -17 35 -11 31 17 -2 18 -34 46 -51 47 -5 0 1 -8 15 -18z"/>
<path d="M2270 390 c0 -5 7 -7 15 -4 8 4 15 8 15 10 0 2 -7 4 -15 4 -8 0 -15
-4 -15 -10z"/>
<path d="M2438 393 c7 -3 16 -2 19 1 4 3 -2 6 -13 5 -11 0 -14 -3 -6 -6z"/>
<path d="M2537 388 c-7 -5 0 -6 17 -4 16 3 31 7 33 10 8 8 -37 2 -50 -6z"/>
<path d="M2690 388 c0 -3 9 -6 20 -5 11 1 20 5 20 9 0 3 -9 6 -20 5 -11 -1
-20 -5 -20 -9z"/>
<path d="M2348 383 c7 -3 16 -2 19 1 4 3 -2 6 -13 5 -11 0 -14 -3 -6 -6z"/>
<path d="M2284 369 c-4 -8 -3 -9 4 -5 8 5 11 -1 9 -16 -1 -18 3 -22 23 -23 15
0 24 5 23 12 -2 7 5 12 16 10 11 -1 20 3 20 8 0 6 10 13 23 17 22 7 22 7 -2 5
-14 -1 -24 -8 -23 -15 2 -7 -6 -11 -20 -9 -12 1 -21 -3 -20 -10 2 -6 -6 -11
-17 -10 -14 1 -18 6 -15 18 7 20 -10 35 -21 18z"/>
<path d="M2436 369 c3 -5 9 -7 14 -4 4 3 11 0 13 -5 3 -6 4 -5 3 1 -1 7 -10
13 -19 15 -9 1 -15 -2 -11 -7z"/>
<path d="M2579 377 c-5 -16 -2 -54 4 -50 5 3 6 14 4 24 -4 14 -1 19 11 17 10
-2 21 -7 25 -13 5 -6 7 -4 5 4 -3 11 -46 27 -49 18z"/>
<path d="M2737 374 c-8 -8 3 -34 15 -34 6 0 4 8 -3 17 -12 15 -12 16 4 10 9
-3 17 -2 17 3 0 11 -23 14 -33 4z"/>
<path d="M2081 354 c0 -11 3 -14 6 -6 3 7 2 16 -1 19 -3 4 -6 -2 -5 -13z"/>
<path d="M2550 361 c0 -6 4 -13 10 -16 6 -3 7 1 4 9 -7 18 -14 21 -14 7z"/>
<path d="M2672 361 c-11 -6 -10 -10 4 -15 9 -3 19 -4 22 -1 3 3 0 5 -7 5 -7 0
-9 5 -6 10 7 12 4 12 -13 1z"/>
<path d="M2777 351 c-3 -11 -2 -22 1 -25 9 -10 32 -7 32 4 0 5 -6 7 -14 4 -11
-4 -13 0 -9 15 3 12 3 21 0 21 -2 0 -7 -9 -10 -19z"/>
<path d="M870 350 c0 -5 5 -10 11 -10 5 0 7 5 4 10 -3 6 -8 10 -11 10 -2 0 -4
-4 -4 -10z"/>
<path d="M1080 350 c-8 -5 -10 -10 -5 -10 6 0 17 5 25 10 8 5 11 10 5 10 -5 0
-17 -5 -25 -10z"/>
<path d="M2153 345 c2 -11 9 -19 16 -17 14 3 11 -29 -4 -41 -6 -5 -4 -7 5 -4
16 4 21 41 5 44 -5 1 -13 10 -17 20 -7 16 -8 16 -5 -2z"/>
<path d="M2400 345 c-19 -22 -8 -25 13 -3 9 10 13 18 8 18 -5 0 -14 -7 -21
-15z"/>
<path d="M2480 350 c0 -5 5 -10 11 -10 5 0 7 5 4 10 -3 6 -8 10 -11 10 -2 0
-4 -4 -4 -10z"/>
<path d="M2830 351 c0 -6 4 -13 10 -16 6 -3 7 1 4 9 -7 18 -14 21 -14 7z"/>
<path d="M2196 337 c3 -10 9 -15 12 -12 3 3 0 11 -7 18 -10 9 -11 8 -5 -6z"/>
<path d="M2641 343 c-1 -7 -7 -12 -13 -10 -19 3 -16 -46 2 -50 9 -3 11 -1 5 4
-5 4 -11 16 -13 25 -2 12 3 16 17 13 12 -2 24 1 27 7 4 6 3 8 -4 4 -5 -3 -13
0 -15 6 -4 10 -6 10 -6 1z"/>
<path d="M965 329 c-4 -6 -5 -12 -2 -15 2 -3 7 2 10 11 7 17 1 20 -8 4z"/>
<path d="M1027 323 c6 -16 23 -17 23 -2 0 5 6 7 13 3 6 -4 9 -3 4 1 -13 15
-46 13 -40 -2z"/>
<path d="M2413 323 c-7 -18 5 -45 16 -39 5 4 12 -2 15 -11 4 -14 4 -13 2 2 -1
11 -8 19 -14 18 -7 -2 -12 6 -12 16 0 14 5 18 19 14 10 -3 21 -1 24 4 3 4 -6
8 -20 8 -14 0 -28 -6 -30 -12z"/>
<path d="M2534 325 c-3 -8 -3 -19 1 -25 3 -6 -3 -10 -15 -10 -12 0 -18 5 -15
10 9 15 -21 23 -42 11 -15 -9 -13 -10 10 -5 21 5 27 3 25 -7 -2 -9 6 -14 21
-14 19 0 24 5 25 28 2 30 -2 34 -10 12z"/>
<path d="M2710 330 c0 -5 5 -10 10 -10 6 0 10 5 10 10 0 6 -4 10 -10 10 -5 0
-10 -4 -10 -10z"/>
<path d="M2885 330 c-3 -6 1 -7 9 -4 18 7 21 14 7 14 -6 0 -13 -4 -16 -10z"/>
<path d="M755 320 c-4 -6 -11 -7 -17 -4 -7 4 -8 2 -4 -5 6 -9 11 -9 22 0 14
11 18 19 10 19 -3 0 -8 -5 -11 -10z"/>
<path d="M2820 320 c0 -5 0 -13 1 -16 0 -4 -5 -11 -13 -16 -11 -8 -10 -9 1 -6
13 4 28 48 16 48 -3 0 -5 -4 -5 -10z"/>
<path d="M2941 311 c7 -11 21 -22 31 -24 24 -7 23 -4 -13 22 -27 20 -29 21
-18 2z"/>
<path d="M701 304 c0 -11 3 -14 6 -6 3 7 2 16 -1 19 -3 4 -6 -2 -5 -13z"/>
<path d="M830 310 c0 -5 7 -7 15 -4 8 4 15 8 15 10 0 2 -7 4 -15 4 -8 0 -15
-4 -15 -10z"/>
<path d="M900 308 c0 -11 22 -10 39 1 10 7 7 9 -12 8 -15 -1 -27 -5 -27 -9z"/>
<path d="M990 306 c7 -7 13 -7 20 0 6 6 3 10 -10 10 -13 0 -16 -4 -10 -10z"/>
<path d="M2130 316 c0 -2 7 -7 16 -10 8 -3 12 -2 9 4 -6 10 -25 14 -25 6z"/>
<path d="M2215 311 c-3 -6 -3 -11 2 -11 4 0 0 -5 -9 -11 -10 -5 -18 -14 -18
-19 0 -6 9 -2 19 7 11 9 18 20 15 25 -3 4 -1 8 5 8 5 0 12 -5 14 -10 3 -6 4
-5 3 2 -3 16 -23 22 -31 9z"/>
<path d="M2270 305 c0 -8 2 -15 4 -15 2 0 6 7 10 15 3 8 1 15 -4 15 -6 0 -10
-7 -10 -15z"/>
<path d="M2350 310 c0 -5 7 -7 15 -4 8 4 15 8 15 10 0 2 -7 4 -15 4 -8 0 -15
-4 -15 -10z"/>
<path d="M2556 307 c3 -10 9 -15 12 -12 3 3 0 11 -7 18 -10 9 -11 8 -5 -6z"/>
<path d="M2591 304 c0 -11 3 -14 6 -6 3 7 2 16 -1 19 -3 4 -6 -2 -5 -13z"/>
<path d="M2678 313 c7 -3 16 -2 19 1 4 3 -2 6 -13 5 -11 0 -14 -3 -6 -6z"/>
<path d="M2748 313 c7 -3 16 -2 19 1 4 3 -2 6 -13 5 -11 0 -14 -3 -6 -6z"/>
<path d="M2841 304 c0 -11 3 -14 6 -6 3 7 2 16 -1 19 -3 4 -6 -2 -5 -13z"/>
<path d="M2916 307 c3 -10 9 -15 12 -12 3 3 0 11 -7 18 -10 9 -11 8 -5 -6z"/>
<path d="M3050 306 c0 -8 4 -17 9 -20 5 -4 7 3 4 14 -6 23 -13 26 -13 6z"/>
<path d="M675 301 c-3 -5 -2 -12 3 -15 5 -3 9 1 9 9 0 17 -3 19 -12 6z"/>
<path d="M873 295 c0 -8 4 -15 9 -15 4 0 8 4 8 9 0 6 -4 12 -8 15 -5 3 -9 -1
-9 -9z"/>
<path d="M2295 301 c-9 -15 13 -23 32 -11 15 9 14 10 -6 4 -16 -4 -21 -3 -17
5 4 6 5 11 2 11 -3 0 -7 -4 -11 -9z"/>
<path d="M2871 303 c-1 -17 19 -27 31 -15 6 6 6 12 -3 17 -8 5 -10 4 -5 -3 4
-7 3 -12 -3 -12 -5 0 -12 6 -14 13 -4 9 -6 9 -6 0z"/>
<path d="M3155 300 c-4 -6 -12 -7 -18 -4 -7 4 -9 3 -4 -1 4 -5 18 -10 30 -11
12 -2 16 0 9 2 -6 3 -10 10 -6 15 3 5 3 9 0 9 -3 0 -8 -5 -11 -10z"/>
<path d="M717 285 c-7 -18 6 -27 27 -19 13 5 15 2 10 -12 -4 -11 -4 -16 0 -13
4 4 8 16 11 28 3 18 1 20 -15 11 -25 -14 -30 -13 -24 5 4 8 4 15 1 15 -3 0 -7
-7 -10 -15z"/>
<path d="M795 290 c-4 -6 -4 -14 -1 -17 3 -4 6 -1 6 5 0 20 16 13 17 -7 1 -13
-5 -18 -20 -17 -13 1 -23 -6 -25 -16 -2 -10 1 -18 7 -18 6 0 8 6 5 14 -4 9 2
13 18 12 18 -1 23 4 23 23 0 26 -19 39 -30 21z"/>
<path d="M2365 289 c-5 -8 -4 -10 3 -5 7 4 12 3 12 -3 0 -5 -6 -12 -12 -14
-10 -4 -10 -6 -1 -6 17 -1 27 19 15 31 -6 6 -12 6 -17 -3z"/>
<path d="M2655 291 c-3 -5 0 -13 6 -17 7 -4 9 -3 5 4 -4 7 1 10 14 9 21 -1 27
-12 10 -20 -6 -3 -5 -4 2 -3 7 2 13 9 13 16 0 15 -41 24 -50 11z"/>
<path d="M2734 289 c-7 -12 4 -29 19 -28 9 0 9 2 0 6 -19 7 -16 19 6 20 14 1
19 -4 16 -18 -2 -11 2 -22 10 -26 8 -3 12 -10 8 -16 -3 -6 -1 -7 5 -3 16 10
15 26 -2 26 -8 0 -13 10 -12 23 1 16 -5 22 -22 23 -12 1 -25 -3 -28 -7z"/>
<path d="M3030 291 c0 -6 4 -13 10 -16 6 -3 7 1 4 9 -7 18 -14 21 -14 7z"/>
<path d="M3077 280 c-9 -11 -13 -20 -7 -20 5 0 14 9 20 20 6 11 9 20 8 20 -2
0 -11 -9 -21 -20z"/>
<path d="M655 280 c3 -5 2 -10 -2 -10 -5 0 -18 -7 -29 -15 -16 -14 -15 -14 14
0 18 9 30 20 27 25 -4 6 -8 10 -11 10 -3 0 -2 -4 1 -10z"/>
<path d="M2470 281 c0 -5 5 -13 10 -16 6 -3 10 -2 10 4 0 5 -4 13 -10 16 -5 3
-10 2 -10 -4z"/>
<path d="M848 263 c13 -23 51 -24 63 -1 6 12 6 18 -1 18 -5 0 -10 -6 -10 -13
0 -7 -9 -13 -20 -13 -11 0 -20 6 -20 13 0 7 -5 13 -10 13 -7 0 -8 -6 -2 -17z"/>
<path d="M2220 270 c-9 -6 -10 -10 -3 -10 6 0 15 5 18 10 8 12 4 12 -15 0z"/>
<path d="M2251 275 c4 -3 19 -8 35 -11 16 -3 26 -2 23 1 -4 3 -19 8 -35 11
-16 3 -26 2 -23 -1z"/>
<path d="M2334 265 c3 -9 0 -15 -9 -15 -8 0 -15 -5 -15 -10 0 -17 33 5 36 24
1 9 -2 16 -8 16 -6 0 -8 -7 -4 -15z"/>
<path d="M2396 265 c-9 -26 -7 -32 5 -12 6 10 9 21 6 23 -2 3 -7 -2 -11 -11z"/>
<path d="M2550 270 c0 -6 6 -13 13 -16 7 -2 13 -13 14 -24 1 -16 -1 -18 -17
-8 -10 7 -18 17 -17 22 1 6 -9 11 -23 11 -20 0 -24 -4 -22 -23 2 -14 -1 -21
-9 -20 -7 2 -15 -5 -17 -14 -2 -10 1 -18 7 -18 6 0 8 7 4 15 -3 10 0 15 8 13
9 -2 14 5 13 20 0 15 5 22 18 22 11 0 17 -4 14 -9 -3 -5 5 -16 19 -25 25 -16
35 -11 32 16 -3 18 -37 54 -37 38z"/>
<path d="M2571 275 c4 -3 19 -8 35 -11 16 -3 26 -2 23 1 -4 3 -19 8 -35 11
-16 3 -26 2 -23 -1z"/>
<path d="M2817 268 c-7 -5 0 -6 17 -4 16 3 31 7 33 10 8 8 -37 2 -50 -6z"/>
<path d="M2897 268 c-7 -5 0 -6 17 -4 16 3 31 7 33 10 8 8 -37 2 -50 -6z"/>
<path d="M3010 273 c17 -8 11 -19 -10 -20 -13 -1 -18 2 -14 9 4 7 2 8 -5 4
-17 -11 -3 -26 22 -22 24 3 31 28 9 32 -7 1 -8 0 -2 -3z"/>
<path d="M3096 265 c-3 -9 3 -19 14 -25 14 -7 20 -7 20 0 0 5 -7 10 -15 10 -9
0 -12 6 -9 15 4 8 4 15 1 15 -3 0 -7 -7 -11 -15z"/>
<path d="M3127 269 c7 -7 15 -10 18 -7 3 3 -2 9 -12 12 -14 6 -15 5 -6 -5z"/>
<path d="M3210 270 c-9 -6 -10 -10 -3 -10 6 0 15 5 18 10 8 12 4 12 -15 0z"/>
<path d="M675 259 c-4 -6 -5 -12 -2 -15 2 -3 7 2 10 11 7 17 1 20 -8 4z"/>
<path d="M2637 255 c-4 -10 -3 -23 3 -29 8 -8 9 -6 4 8 -5 13 -4 17 4 12 6 -3
14 -1 18 5 4 7 3 9 -4 5 -5 -3 -12 -1 -14 6 -3 7 -7 4 -11 -7z"/>
<path d="M3235 259 c-4 -6 -5 -12 -2 -15 2 -3 7 2 10 11 7 17 1 20 -8 4z"/>
<path d="M587 243 c4 -11 3 -14 -5 -9 -8 5 -10 2 -6 -9 4 -10 2 -15 -6 -13 -7
2 -14 -3 -15 -10 -2 -7 -1 -8 2 -2 2 5 9 8 14 4 5 -3 12 2 15 10 3 9 11 13 16
10 6 -4 5 3 -1 15 -14 25 -23 28 -14 4z"/>
<path d="M696 253 c-10 -10 -7 -33 4 -33 5 0 7 7 3 16 -5 14 -3 14 15 3 11 -7
18 -17 16 -21 -3 -5 2 -11 10 -14 9 -3 14 -9 12 -13 -3 -4 5 -8 17 -8 19 -2
18 0 -6 16 -15 10 -25 20 -22 23 3 3 -5 12 -19 21 -13 9 -26 13 -30 10z"/>
<path d="M2235 249 c-4 -6 -4 -13 -1 -16 3 -4 6 -1 6 5 0 7 5 12 11 12 5 0 7
-5 3 -12 -4 -7 -3 -8 5 -4 12 8 6 26 -9 26 -5 0 -12 -5 -15 -11z"/>
<path d="M2413 243 c-8 -19 5 -45 18 -37 8 4 9 -1 5 -17 -6 -20 -5 -21 4 -6
12 19 4 41 -11 32 -5 -4 -9 3 -9 13 0 15 5 19 19 15 10 -3 21 -1 24 4 3 4 -6
8 -20 8 -14 0 -28 -6 -30 -12z"/>
<path d="M2710 250 c0 -5 5 -10 10 -10 6 0 10 5 10 10 0 6 -4 10 -10 10 -5 0
-10 -4 -10 -10z"/>
<path d="M2858 253 c-2 -4 -4 -17 -4 -28 1 -14 7 -20 24 -19 12 1 22 -4 22
-12 0 -17 16 -18 26 -2 4 6 3 8 -3 5 -6 -4 -13 0 -16 8 -4 8 -15 12 -26 10
-14 -3 -19 2 -18 16 1 21 12 25 20 9 3 -6 4 -5 3 2 -3 14 -23 22 -28 11z"/>
<path d="M2937 253 c-2 -5 -3 -17 -3 -28 1 -14 7 -19 21 -17 14 2 21 -3 22
-16 1 -11 -6 -18 -18 -19 -12 -1 -17 3 -13 9 4 7 2 8 -5 4 -17 -11 -3 -26 22
-22 32 5 31 51 -1 50 -23 -1 -27 23 -7 38 6 5 6 8 -2 8 -6 0 -14 -3 -16 -7z"/>
<path d="M3039 253 c0 -5 -2 -18 -5 -30 -2 -13 0 -23 4 -23 4 0 8 14 8 30 1
17 0 30 -2 30 -2 0 -4 -3 -5 -7z"/>
<path d="M3254 245 c-3 -8 -3 -19 1 -25 3 -6 -3 -10 -15 -10 -12 0 -19 4 -15
9 3 6 -4 15 -15 21 -13 7 -20 7 -20 0 0 -5 7 -10 15 -10 8 0 14 -6 13 -12 -2
-8 7 -13 21 -13 19 0 24 5 25 28 2 30 -2 34 -10 12z"/>
<path d="M3310 250 c0 -5 5 -10 11 -10 5 0 7 5 4 10 -3 6 -8 10 -11 10 -2 0
-4 -4 -4 -10z"/>
<path d="M2201 234 c0 -11 3 -14 6 -6 3 7 2 16 -1 19 -3 4 -6 -2 -5 -13z"/>
<path d="M2276 235 c-3 -8 -1 -15 4 -15 6 0 10 7 10 15 0 8 -2 15 -4 15 -2 0
-6 -7 -10 -15z"/>
<path d="M2601 234 c0 -11 3 -14 6 -6 3 7 2 16 -1 19 -3 4 -6 -2 -5 -13z"/>
<path d="M2831 234 c0 -11 3 -14 6 -6 3 7 2 16 -1 19 -3 4 -6 -2 -5 -13z"/>
<path d="M2911 234 c0 -11 3 -14 6 -6 3 7 2 16 -1 19 -3 4 -6 -2 -5 -13z"/>
<path d="M3150 235 c0 -8 4 -15 10 -15 5 0 7 7 4 15 -4 8 -8 15 -10 15 -2 0
-4 -7 -4 -15z"/>
<path d="M530 228 c0 -4 4 -8 9 -8 6 0 12 4 15 8 3 5 -1 9 -9 9 -8 0 -15 -4
-15 -9z"/>
<path d="M643 234 c9 -3 15 -9 12 -14 -3 -5 5 -14 17 -20 20 -9 21 -9 7 2 -9
7 -16 18 -17 23 -1 6 -9 11 -19 12 -17 2 -17 1 0 -3z"/>
<path d="M830 225 c0 -8 4 -15 8 -15 5 0 9 7 9 15 0 8 -4 15 -9 15 -4 0 -8 -7
-8 -15z"/>
<path d="M910 225 c0 -8 4 -15 8 -15 5 0 9 7 9 15 0 8 -4 15 -9 15 -4 0 -8 -7
-8 -15z"/>
<path d="M954 229 c-3 -6 -3 -13 0 -16 3 -4 6 -1 6 5 0 6 7 9 15 6 8 -4 15 -4
15 -1 0 11 -30 16 -36 6z"/>
<path d="M2350 230 c0 -5 7 -7 15 -4 8 4 15 8 15 10 0 2 -7 4 -15 4 -8 0 -15
-4 -15 -10z"/>
<path d="M2460 230 c-9 -6 -10 -10 -3 -10 6 0 15 5 18 10 8 12 4 12 -15 0z"/>
<path d="M2678 233 c7 -3 16 -2 19 1 4 3 -2 6 -13 5 -11 0 -14 -3 -6 -6z"/>
<path d="M2748 233 c7 -3 16 -2 19 1 4 3 -2 6 -13 5 -11 0 -14 -3 -6 -6z"/>
<path d="M3060 236 c0 -2 7 -6 15 -10 8 -3 15 -1 15 4 0 6 -7 10 -15 10 -8 0
-15 -2 -15 -4z"/>
<path d="M3283 232 c10 -4 18 -11 17 -15 0 -4 6 -15 15 -23 8 -9 15 -11 15 -5
0 5 -8 14 -17 20 -10 5 -17 13 -15 18 2 4 -5 9 -15 10 -17 3 -17 2 0 -5z"/>
<path d="M3336 225 c-3 -9 3 -19 17 -27 25 -14 52 -20 42 -10 -4 4 -10 7 -13
8 -23 3 -40 18 -35 30 3 8 3 14 0 14 -3 0 -7 -7 -11 -15z"/>
<path d="M792 214 c-7 -8 -8 -14 -3 -14 10 0 25 19 20 25 -2 1 -10 -3 -17 -11z"/>
<path d="M870 220 c0 -5 5 -10 10 -10 6 0 10 5 10 10 0 6 -4 10 -10 10 -5 0
-10 -4 -10 -10z"/>
<path d="M2998 223 c7 -3 16 -2 19 1 4 3 -2 6 -13 5 -11 0 -14 -3 -6 -6z"/>
<path d="M616 212 c-9 -15 0 -46 15 -50 8 -2 10 0 4 5 -5 4 -11 17 -13 28 -3
20 -2 20 13 1 8 -11 15 -15 15 -9 0 15 -27 36 -34 25z"/>
<path d="M2213 203 c-3 -7 -10 -10 -16 -6 -6 3 -7 1 -3 -5 10 -17 26 -15 26 3
0 9 6 12 15 9 8 -4 15 -2 15 3 0 15 -31 11 -37 -4z"/>
<path d="M2293 203 c-3 -7 -2 -16 1 -22 4 -5 -3 -9 -14 -8 -15 1 -19 6 -15 22
5 18 5 18 -5 2 -14 -22 -6 -35 22 -33 18 1 22 6 20 25 -2 13 0 21 5 18 5 -3
15 -2 23 3 11 7 9 9 -9 7 -13 -1 -25 -7 -28 -14z"/>
<path d="M2364 209 c-4 -7 -3 -9 4 -5 5 3 13 0 15 -6 4 -9 6 -10 6 -1 1 17
-16 25 -25 12z"/>
<path d="M2516 203 c-6 -14 -5 -15 5 -6 7 7 10 15 7 18 -3 3 -9 -2 -12 -12z"/>
<path d="M2619 213 c-1 -5 -1 -12 0 -17 1 -5 -6 -5 -16 -2 -14 6 -15 4 -6 -4
8 -9 16 -9 30 -1 10 6 13 11 5 11 -7 0 -10 5 -7 10 3 6 4 10 1 10 -3 0 -7 -3
-7 -7z"/>
<path d="M2659 217 c-6 -20 -5 -36 2 -31 5 3 7 9 4 14 -3 5 3 8 14 7 12 -1 19
-8 18 -19 -1 -11 -7 -16 -14 -14 -7 3 -13 1 -13 -5 0 -6 8 -9 17 -7 27 5 23
50 -4 54 -13 2 -23 3 -24 1z"/>
<path d="M2729 199 c-6 -13 -6 -19 1 -19 5 0 10 6 10 13 0 7 9 13 21 14 20 2
20 1 5 -16 -9 -10 -16 -22 -16 -27 0 -4 8 3 17 16 21 30 20 35 -7 36 -12 1
-25 -7 -31 -17z"/>
<path d="M2805 210 c-5 -8 -4 -11 2 -7 6 4 15 -5 22 -19 6 -14 15 -23 20 -19
5 3 12 -5 14 -17 5 -20 5 -20 3 2 -1 15 -7 24 -15 22 -9 -2 -11 3 -7 15 4 9 4
14 0 10 -4 -4 -12 1 -19 10 -9 13 -14 13 -20 3z"/>
<path d="M3099 212 c-1 -4 -1 -10 0 -14 0 -4 -9 -7 -22 -5 -12 1 -21 -3 -20
-10 2 -6 -6 -11 -17 -10 -11 1 -20 7 -20 14 0 7 -5 13 -10 13 -7 0 -7 -6 -1
-19 11 -20 58 -23 54 -3 -2 7 6 11 20 9 12 -1 21 3 20 10 -2 6 6 11 17 10 11
-1 20 -7 20 -14 0 -7 5 -13 10 -13 7 0 7 6 1 18 -9 17 -50 28 -52 14z"/>
<path d="M3176 212 c-9 -15 0 -46 15 -50 8 -2 10 0 4 5 -5 4 -11 17 -13 28 -3
20 -2 20 13 1 8 -11 15 -15 15 -9 0 15 -27 36 -34 25z"/>
<path d="M710 203 c5 -2 8 -9 4 -14 -3 -5 2 -12 10 -15 9 -3 14 -9 12 -13 -3
-4 0 -13 5 -21 7 -11 8 -9 6 8 -2 13 -9 27 -16 31 -7 5 -12 12 -11 17 1 5 -3
9 -9 11 -7 1 -8 0 -1 -4z"/>
<path d="M991 193 c-1 -12 4 -25 9 -28 12 -7 12 2 0 30 -8 19 -9 19 -9 -2z"/>
<path d="M1868 203 c6 -2 10 -8 8 -12 -3 -4 5 -8 16 -8 20 -2 20 -1 2 12 -11
8 -23 14 -29 14 -5 0 -4 -3 3 -6z"/>
<path d="M1908 203 c7 -3 16 -2 19 1 4 3 -2 6 -13 5 -11 0 -14 -3 -6 -6z"/>
<path d="M585 190 c-3 -5 -1 -10 4 -10 6 0 11 5 11 10 0 6 -2 10 -4 10 -3 0
-8 -4 -11 -10z"/>
<path d="M810 196 c0 -2 7 -7 16 -10 8 -3 12 -2 9 4 -6 10 -25 14 -25 6z"/>
<path d="M850 190 c0 -5 5 -10 10 -10 6 0 10 5 10 10 0 6 -4 10 -10 10 -5 0
-10 -4 -10 -10z"/>
<path d="M890 196 c0 -2 7 -7 16 -10 8 -3 12 -2 9 4 -6 10 -25 14 -25 6z"/>
<path d="M930 190 c0 -5 5 -10 10 -10 6 0 10 5 10 10 0 6 -4 10 -10 10 -5 0
-10 -4 -10 -10z"/>
<path d="M1750 182 c32 -22 37 -48 10 -48 -15 0 -20 6 -18 21 2 15 -3 20 -22
20 -14 0 -24 -5 -23 -11 1 -5 -7 -16 -18 -23 -18 -11 -20 -10 -17 11 2 16 -2
23 -17 25 -14 1 -15 0 -3 -3 9 -3 15 -11 12 -19 -10 -26 6 -36 31 -19 14 9 22
20 19 25 -3 5 3 9 14 9 13 0 18 -7 18 -22 -1 -17 5 -22 24 -22 34 -1 36 38 4
59 -32 21 -45 19 -14 -3z"/>
<path d="M1820 190 c-8 -5 -10 -10 -5 -10 6 0 17 5 25 10 8 5 11 10 5 10 -5 0
-17 -5 -25 -10z"/>
<path d="M1935 190 c-3 -5 -3 -10 2 -10 4 0 1 -5 -7 -11 -12 -8 -12 -10 -1 -7
8 2 15 12 17 21 3 19 -2 22 -11 7z"/>
<path d="M1960 190 c0 -5 5 -10 11 -10 5 0 7 5 4 10 -3 6 -8 10 -11 10 -2 0
-4 -4 -4 -10z"/>
<path d="M2009 185 c5 -11 20 -21 33 -22 13 0 17 1 11 4 -7 2 -15 3 -17 1 -3
-2 -12 6 -21 17 -16 20 -16 20 -6 0z"/>
<path d="M2045 190 c3 -5 11 -10 16 -10 6 0 7 5 4 10 -3 6 -11 10 -16 10 -6 0
-7 -4 -4 -10z"/>
<path d="M2325 190 c-3 -5 -2 -10 4 -10 5 0 13 5 16 10 3 6 2 10 -4 10 -5 0
-13 -4 -16 -10z"/>
<path d="M2400 187 c0 -9 -6 -16 -12 -14 -19 3 -16 -46 2 -50 9 -3 11 -1 5 4
-14 11 -19 47 -6 38 12 -7 27 22 17 32 -3 4 -6 -1 -6 -10z"/>
<path d="M2539 193 c-1 -5 -1 -12 0 -16 1 -5 -9 -7 -21 -5 -19 2 -23 -2 -23
-22 0 -16 5 -24 14 -22 10 2 12 -4 7 -25 -5 -23 -4 -25 5 -10 12 21 4 51 -11
42 -5 -3 -10 2 -10 13 0 13 7 18 23 18 12 -1 21 4 20 12 -4 17 8 15 22 -5 9
-13 14 -13 20 -3 5 8 4 11 -2 7 -6 -4 -13 0 -17 8 -6 15 -25 21 -27 8z"/>
<path d="M3280 190 c8 -5 20 -10 25 -10 6 0 3 5 -5 10 -8 5 -19 10 -25 10 -5
0 -3 -5 5 -10z"/>
<path d="M959 180 c-5 -28 -3 -33 14 -36 9 -1 17 2 17 8 0 6 -7 7 -16 4 -12
-4 -14 -1 -9 14 4 11 4 20 1 20 -3 0 -7 -4 -7 -10z"/>
<path d="M2100 179 c0 -5 -4 -8 -9 -4 -5 3 -12 1 -15 -4 -4 -5 2 -8 11 -7 15
3 33 26 19 26 -3 0 -6 -5 -6 -11z"/>
<path d="M2175 180 c6 -10 4 -12 -8 -7 -10 3 -17 2 -17 -3 0 -13 27 -13 35 -1
3 5 0 13 -6 17 -8 5 -9 3 -4 -6z"/>
<path d="M2355 179 c-4 -6 -5 -12 -2 -15 2 -3 7 2 10 11 7 17 1 20 -8 4z"/>
<path d="M2800 182 c0 -7 -5 -11 -12 -9 -6 1 -14 -6 -16 -15 -2 -10 1 -18 7
-18 6 0 7 7 4 17 -4 10 -2 14 5 9 12 -7 28 12 18 21 -3 4 -6 1 -6 -5z"/>
<path d="M2876 177 c3 -10 9 -15 12 -12 3 3 0 11 -7 18 -10 9 -11 8 -5 -6z"/>
<path d="M655 170 c-3 -5 -3 -10 2 -11 4 0 -1 -4 -11 -8 -19 -7 -19 -8 1 -13
17 -5 21 -2 18 13 -3 13 2 19 15 19 13 0 17 -6 14 -22 -4 -21 -4 -21 5 -3 4
11 7 23 4 28 -6 10 -41 9 -48 -3z"/>
<path d="M795 170 c-4 -6 -4 -14 -1 -17 3 -4 6 -1 6 5 0 21 16 13 17 -8 1 -13
-2 -18 -9 -14 -7 4 -8 2 -4 -5 11 -17 26 -3 22 21 -3 25 -21 35 -31 18z"/>
<path d="M875 170 c-4 -6 -4 -14 -1 -17 3 -4 6 -1 6 5 0 21 16 13 17 -8 1 -13
-2 -18 -9 -14 -7 4 -8 2 -4 -5 11 -17 26 -3 22 21 -3 25 -21 35 -31 18z"/>
<path d="M1155 170 c-3 -5 -1 -10 4 -10 6 0 11 5 11 10 0 6 -2 10 -4 10 -3 0
-8 -4 -11 -10z"/>
<path d="M1259 171 c8 -5 16 -17 17 -26 1 -9 5 -20 8 -23 9 -8 2 30 -7 46 -5
6 -14 12 -20 12 -8 0 -7 -4 2 -9z"/>
<path d="M1845 173 c6 -4 12 -17 13 -28 3 -16 1 -18 -9 -7 -7 6 -17 12 -23 12
-5 0 -1 -6 9 -14 11 -8 23 -12 27 -10 12 8 2 48 -13 52 -8 2 -10 0 -4 -5z"/>
<path d="M1994 156 c3 -16 8 -31 11 -35 3 -3 4 7 1 23 -3 16 -8 31 -11 35 -3
3 -4 -7 -1 -23z"/>
<path d="M2233 163 c0 -12 3 -20 6 -18 2 3 10 -3 18 -13 13 -16 13 -15 4 3
-22 43 -30 51 -28 28z"/>
<path d="M2460 160 c6 -11 13 -20 16 -20 2 0 0 9 -6 20 -6 11 -13 20 -16 20
-2 0 0 -9 6 -20z"/>
<path d="M3114 150 c-1 -16 1 -30 5 -30 3 0 7 14 7 30 1 17 -1 30 -5 30 -3 0
-7 -13 -7 -30z"/>
<path d="M3214 169 c-4 -7 -3 -9 4 -5 5 3 13 0 15 -6 4 -9 6 -10 6 -1 1 17
-16 25 -25 12z"/>
<path d="M3259 178 c-8 -36 -8 -51 0 -38 5 8 7 18 5 22 -3 4 -1 8 5 8 5 0 12
-5 14 -10 3 -6 4 -5 3 2 -2 10 -25 25 -27 16z"/>
<path d="M3335 170 c-4 -6 1 -7 12 -3 16 6 17 5 3 -13 -14 -18 -14 -18 2 -5
10 7 15 17 12 22 -7 12 -21 11 -29 -1z"/>
<path d="M761 154 c0 -11 3 -14 6 -6 3 7 2 16 -1 19 -3 4 -6 -2 -5 -13z"/>
<path d="M841 154 c0 -11 3 -14 6 -6 3 7 2 16 -1 19 -3 4 -6 -2 -5 -13z"/>
<path d="M921 154 c0 -11 3 -14 6 -6 3 7 2 16 -1 19 -3 4 -6 -2 -5 -13z"/>
<path d="M1021 153 c-1 -13 -6 -22 -13 -20 -6 1 -13 -11 -14 -28 -2 -20 0 -25
5 -16 5 8 7 21 3 29 -3 10 -1 13 6 8 14 -8 27 17 19 36 -3 7 -6 3 -6 -9z"/>
<path d="M1187 159 c-9 -6 -15 -14 -12 -20 4 -5 -3 -9 -14 -9 -12 0 -20 5 -18
12 1 6 -6 14 -15 16 -10 2 -18 -1 -18 -7 0 -6 7 -8 15 -4 10 3 15 0 13 -8 -2
-9 6 -14 22 -14 16 0 24 5 22 14 -2 9 3 11 13 7 9 -3 14 -2 10 3 -3 5 1 12 7
14 7 3 9 6 3 6 -5 0 -18 -4 -28 -10z"/>
<path d="M1413 151 c4 -27 21 -38 32 -22 4 7 0 8 -11 4 -10 -4 -15 -2 -11 3 3
6 1 16 -4 24 -7 11 -8 9 -6 -9z"/>
<path d="M2134 151 c2 -14 9 -27 17 -29 11 -3 12 -2 1 6 -8 5 -13 12 -12 16 1
4 -1 12 -4 19 -2 6 -3 1 -2 -12z"/>
<path d="M2653 150 c1 -14 6 -24 12 -22 5 2 13 -5 17 -15 7 -17 8 -17 5 0 -1
10 -6 18 -12 17 -5 -1 -13 9 -17 22 -7 22 -7 22 -5 -2z"/>
<path d="M546 152 c-3 -5 1 -9 9 -9 8 0 15 4 15 9 0 4 -4 8 -9 8 -6 0 -12 -4
-15 -8z"/>
<path d="M1238 153 c7 -3 16 -2 19 1 4 3 -2 6 -13 5 -11 0 -14 -3 -6 -6z"/>
<path d="M1356 149 c2 -4 -1 -9 -8 -11 -6 -2 -12 -14 -13 -26 -1 -11 2 -19 7
-16 5 4 7 12 4 20 -3 8 1 14 8 14 8 0 16 6 19 13 3 8 -1 14 -9 14 -7 0 -11 -4
-8 -8z"/>
<path d="M1950 150 c0 -5 7 -7 15 -4 8 4 15 8 15 10 0 2 -7 4 -15 4 -8 0 -15
-4 -15 -10z"/>
<path d="M2111 144 c0 -11 3 -14 6 -6 3 7 2 16 -1 19 -3 4 -6 -2 -5 -13z"/>
<path d="M2198 153 c7 -3 16 -2 19 1 4 3 -2 6 -13 5 -11 0 -14 -3 -6 -6z"/>
<path d="M2300 150 c-18 -12 -2 -12 25 0 13 6 15 9 5 9 -8 0 -22 -4 -30 -9z"/>
<path d="M2405 150 c-3 -6 1 -7 9 -4 18 7 21 14 7 14 -6 0 -13 -4 -16 -10z"/>
<path d="M2540 150 c-12 -7 -10 -9 7 -7 12 0 19 5 17 9 -6 10 -6 10 -24 -2z"/>
<path d="M2598 153 c7 -3 16 -2 19 1 4 3 -2 6 -13 5 -11 0 -14 -3 -6 -6z"/>
<path d="M2700 150 c-11 -8 -8 -9 13 -4 20 5 27 3 25 -7 -2 -8 7 -14 22 -16
24 -2 24 -2 2 5 -13 4 -23 12 -22 17 2 14 -22 17 -40 5z"/>
<path d="M2805 150 c-3 -6 1 -7 9 -4 18 7 21 14 7 14 -6 0 -13 -4 -16 -10z"/>
<path d="M2900 156 c0 -2 7 -6 15 -10 8 -3 15 -1 15 4 0 6 -7 10 -15 10 -8 0
-15 -2 -15 -4z"/>
<path d="M2996 145 c4 -8 8 -15 10 -15 2 0 4 7 4 15 0 8 -4 15 -10 15 -5 0 -7
-7 -4 -15z"/>
<path d="M3070 150 c0 -6 7 -10 15 -10 8 0 15 2 15 4 0 2 -7 6 -15 10 -8 3
-15 1 -15 -4z"/>
<path d="M3140 156 c0 -2 7 -6 15 -10 8 -3 15 -1 15 4 0 6 -7 10 -15 10 -8 0
-15 -2 -15 -4z"/>
<path d="M713 135 c0 -8 4 -15 9 -15 4 0 8 4 8 9 0 6 -4 12 -8 15 -5 3 -9 -1
-9 -9z"/>
<path d="M1308 143 c7 -3 16 -2 19 1 4 3 -2 6 -13 5 -11 0 -14 -3 -6 -6z"/>
<path d="M1516 137 c3 -10 9 -15 12 -12 3 3 0 11 -7 18 -10 9 -11 8 -5 -6z"/>
<path d="M1910 140 c8 -5 20 -10 25 -10 6 0 3 5 -5 10 -8 5 -19 10 -25 10 -5
0 -3 -5 5 -10z"/>
<path d="M2028 143 c7 -3 16 -2 19 1 4 3 -2 6 -13 5 -11 0 -14 -3 -6 -6z"/>
<path d="M2071 141 c-8 -5 -16 -17 -17 -25 -1 -9 2 -14 7 -10 5 3 7 10 4 15
-4 5 1 9 9 9 9 0 16 5 16 10 0 12 -1 12 -19 1z"/>
<path d="M2949 140 c-24 -14 -16 -46 17 -72 l29 -22 -20 24 c-18 21 -18 23 -2
17 11 -4 16 -3 12 4 -4 5 -14 7 -24 4 -12 -3 -17 1 -17 15 0 11 6 20 13 20 7
0 13 5 13 10 0 12 -1 12 -21 0z"/>
<path d="M3030 140 c0 -5 7 -10 16 -10 8 0 13 -4 10 -8 -2 -4 -1 -14 4 -22 7
-11 9 -9 7 8 -1 23 -37 54 -37 32z"/>
<path d="M3185 137 c-15 -12 -16 -15 -4 -22 8 -5 10 -4 6 0 -4 5 3 15 15 22
13 7 18 12 12 13 -5 0 -18 -6 -29 -13z"/>
<path d="M775 129 c-4 -6 -5 -12 -2 -15 2 -3 7 2 10 11 7 17 1 20 -8 4z"/>
<path d="M857 132 c-3 -4 3 -18 14 -31 10 -13 19 -19 19 -13 0 6 -7 17 -15 25
-8 8 -11 17 -8 21 4 3 4 6 0 6 -3 0 -8 -3 -10 -8z"/>
<path d="M935 131 c-6 -10 33 -36 42 -28 2 3 -5 8 -16 12 -12 3 -19 11 -16 16
4 5 4 9 1 9 -3 0 -7 -4 -11 -9z"/>
<path d="M1053 123 c-3 -7 -10 -10 -16 -6 -6 3 -7 1 -3 -5 10 -17 26 -15 26 4
0 8 4 13 8 10 4 -2 14 -1 22 4 11 7 9 9 -9 7 -13 -1 -26 -7 -28 -14z"/>
<path d="M1216 132 c-3 -4 0 -14 6 -22 8 -12 9 -12 4 3 -8 26 27 18 36 -8 6
-17 7 -17 5 4 -1 16 -9 25 -24 27 -12 2 -24 0 -27 -4z"/>
<path d="M1470 130 c8 -5 18 -6 23 -3 5 3 6 -5 3 -18 -3 -13 -3 -18 0 -11 3 6
10 9 16 6 7 -4 7 0 0 13 -6 10 -21 19 -34 20 -17 2 -19 0 -8 -7z"/>
<path d="M1631 130 c3 -30 -1 -41 -13 -34 -6 4 -8 3 -5 -4 4 -5 15 -9 25 -8 9
2 21 -2 25 -8 6 -7 7 -6 4 4 -2 8 -10 14 -17 12 -7 -2 -10 3 -7 11 3 8 1 20
-4 28 -8 12 -10 12 -8 -1z"/>
<path d="M1716 116 c5 -19 3 -27 -3 -23 -6 4 -18 -6 -27 -21 l-17 -27 19 22
c11 12 22 19 26 16 11 -12 17 26 7 44 -9 15 -10 13 -5 -11z"/>
<path d="M1799 133 c0 -5 -2 -16 -4 -25 -3 -15 0 -16 18 -7 32 17 35 23 10 15
-18 -6 -22 -4 -17 8 3 9 3 16 0 16 -3 0 -6 -3 -7 -7z"/>
<path d="M1876 123 c-6 -14 -5 -15 5 -6 7 7 10 15 7 18 -3 3 -9 -2 -12 -12z"/>
<path d="M1964 128 c-4 -7 -3 -8 4 -4 7 4 12 1 12 -8 0 -9 5 -16 10 -16 7 0 7
6 0 20 -12 23 -16 24 -26 8z"/>
<path d="M2190 131 c8 -5 18 -7 22 -5 4 3 8 1 8 -5 0 -5 -5 -12 -10 -14 -6 -3
-5 -4 2 -3 23 5 14 29 -12 33 -18 2 -21 1 -10 -6z"/>
<path d="M2342 127 c10 -8 15 -17 12 -20 -3 -3 5 -10 18 -17 20 -10 21 -10 6
3 -10 8 -15 17 -12 20 3 3 -5 10 -18 17 -20 10 -21 10 -6 -3z"/>
<path d="M2415 130 c-3 -6 -3 -10 2 -11 4 0 -1 -5 -12 -10 l-20 -9 20 3 c11 2
19 9 17 16 -3 14 29 11 41 -4 5 -6 7 -4 5 4 -5 17 -44 25 -53 11z"/>
<path d="M2579 132 c-1 -4 -1 -10 0 -14 2 -12 -17 -10 -22 2 -3 6 -4 5 -3 -2
2 -7 9 -13 17 -13 8 0 13 5 12 12 -2 6 6 11 17 10 12 -1 18 -8 17 -20 -1 -12
5 -21 16 -22 9 -2 17 1 17 7 0 6 -7 8 -15 4 -10 -4 -14 1 -12 16 1 14 -5 22
-20 24 -13 2 -24 1 -24 -4z"/>
<path d="M2817 134 c-3 -4 1 -17 10 -30 9 -14 18 -22 21 -19 3 2 11 -3 19 -13
13 -15 13 -15 3 6 -6 12 -14 20 -19 18 -4 -3 -13 5 -20 16 -11 18 -11 20 3 15
9 -4 16 -2 16 3 0 11 -23 14 -33 4z"/>
<path d="M3230 133 c0 -6 8 -17 18 -24 16 -13 16 -13 2 6 -8 11 -16 22 -17 24
-2 2 -3 0 -3 -6z"/>
<path d="M3270 128 c0 -10 17 -10 24 0 3 5 -1 9 -9 9 -8 0 -15 -4 -15 -9z"/>
<path d="M2281 112 c0 -13 -5 -21 -10 -17 -6 3 -15 -5 -21 -17 -9 -20 -9 -21
2 -7 7 9 21 15 30 13 10 -1 21 3 25 8 3 6 1 8 -5 4 -6 -3 -12 3 -15 16 l-4 23
-2 -23z"/>
<path d="M2310 120 c0 -5 5 -10 11 -10 5 0 7 5 4 10 -3 6 -8 10 -11 10 -2 0
-4 -4 -4 -10z"/>
<path d="M2710 121 c0 -5 5 -13 10 -16 6 -3 10 -2 10 4 0 5 -4 13 -10 16 -5 3
-10 2 -10 -4z"/>
<path d="M2875 120 c-3 -5 -2 -18 4 -27 7 -14 9 -12 8 10 -2 30 -3 31 -12 17z"/>
<path d="M666 108 c3 -5 10 -6 15 -3 13 9 11 12 -6 12 -8 0 -12 -4 -9 -9z"/>
<path d="M820 110 c-9 -6 -10 -10 -3 -10 6 0 15 5 18 10 8 12 4 12 -15 0z"/>
<path d="M905 110 c-3 -5 -1 -10 4 -10 6 0 11 5 11 10 0 6 -2 10 -4 10 -3 0
-8 -4 -11 -10z"/>
<path d="M1090 105 c0 -8 2 -15 4 -15 2 0 6 7 10 15 3 8 1 15 -4 15 -6 0 -10
-7 -10 -15z"/>
<path d="M1190 111 c0 -5 7 -15 17 -22 15 -13 15 -12 4 9 -12 23 -21 28 -21
13z"/>
<path d="M1300 110 c0 -5 5 -10 10 -10 6 0 10 5 10 10 0 6 -4 10 -10 10 -5 0
-10 -4 -10 -10z"/>
<path d="M1365 110 c-3 -6 1 -7 9 -4 18 7 21 14 7 14 -6 0 -13 -4 -16 -10z"/>
<path d="M1392 104 c-7 -8 -8 -14 -3 -14 10 0 25 19 20 25 -2 1 -10 -3 -17
-11z"/>
<path d="M1456 105 c4 -8 8 -15 10 -15 2 0 4 7 4 15 0 8 -4 15 -10 15 -5 0 -7
-7 -4 -15z"/>
<path d="M1545 110 c3 -5 8 -10 11 -10 2 0 4 5 4 10 0 6 -5 10 -11 10 -5 0 -7
-4 -4 -10z"/>
<path d="M1675 110 c-3 -5 -2 -10 4 -10 5 0 13 5 16 10 3 6 2 10 -4 10 -5 0
-13 -4 -16 -10z"/>
<path d="M1899 113 c-1 -5 -1 -12 0 -16 2 -11 -32 -4 -42 8 -5 6 -7 4 -4 -5 4
-16 47 -21 46 -6 0 5 5 13 13 17 10 7 10 9 1 9 -7 0 -14 -3 -14 -7z"/>
<path d="M1937 103 c5 -12 3 -14 -7 -8 -9 5 -11 4 -6 -4 4 -6 12 -9 17 -6 12
8 12 35 -1 35 -5 0 -6 -7 -3 -17z"/>
<path d="M2025 110 c3 -5 8 -10 11 -10 2 0 4 5 4 10 0 6 -5 10 -11 10 -5 0 -7
-4 -4 -10z"/>
<path d="M2090 110 c0 -5 5 -10 10 -10 6 0 10 5 10 10 0 6 -4 10 -10 10 -5 0
-10 -4 -10 -10z"/>
<path d="M2174 105 c3 -9 0 -15 -9 -15 -18 0 -20 -16 -3 -26 6 -4 8 -3 4 4 -3
5 -1 12 6 14 14 5 20 38 6 38 -6 0 -8 -7 -4 -15z"/>
<path d="M2236 105 c-9 -26 -7 -32 5 -12 6 10 9 21 6 23 -2 3 -7 -2 -11 -11z"/>
<path d="M2480 110 c0 -5 5 -10 11 -10 5 0 7 5 4 10 -3 6 -8 10 -11 10 -2 0
-4 -4 -4 -10z"/>
<path d="M2790 111 c0 -5 5 -13 10 -16 6 -3 10 -2 10 4 0 5 -4 13 -10 16 -5 3
-10 2 -10 -4z"/>
<path d="M2900 110 c0 -5 5 -10 10 -10 6 0 10 5 10 10 0 6 -4 10 -10 10 -5 0
-10 -4 -10 -10z"/>
<path d="M3010 110 c0 -5 5 -10 10 -10 6 0 10 5 10 10 0 6 -4 10 -10 10 -5 0
-10 -4 -10 -10z"/>
<path d="M3090 110 c8 -5 20 -10 25 -10 6 0 3 5 -5 10 -8 5 -19 10 -25 10 -5
0 -3 -5 5 -10z"/>
<path d="M3145 110 c3 -5 11 -10 16 -10 6 0 7 5 4 10 -3 6 -11 10 -16 10 -6 0
-7 -4 -4 -10z"/>
<path d="M3200 116 c0 -2 7 -7 16 -10 8 -3 12 -2 9 4 -6 10 -25 14 -25 6z"/>
<path d="M1162 97 c10 -8 14 -18 10 -22 -4 -5 -1 -5 6 -1 17 10 15 14 -10 26
-21 10 -21 10 -6 -3z"/>
<path d="M1750 100 c0 -5 5 -10 10 -10 6 0 10 5 10 10 0 6 -4 10 -10 10 -5 0
-10 -4 -10 -10z"/>
<path d="M775 90 c3 -5 8 -10 11 -10 2 0 4 5 4 10 0 6 -5 10 -11 10 -5 0 -7
-4 -4 -10z"/>
<path d="M836 92 c-3 -4 4 -9 15 -9 23 -2 25 3 4 10 -8 4 -16 3 -19 -1z"/>
<path d="M1015 91 c-6 -11 13 -26 22 -17 4 3 1 6 -6 6 -7 0 -9 5 -6 10 3 6 4
10 1 10 -3 0 -7 -4 -11 -9z"/>
<path d="M1110 91 c0 -6 5 -13 12 -17 7 -5 8 -3 3 6 -6 10 -4 12 9 7 10 -4 15
-3 11 3 -8 13 -35 13 -35 1z"/>
<path d="M1239 98 c-5 -18 -6 -38 -1 -34 7 8 12 36 6 36 -2 0 -4 -1 -5 -2z"/>
<path d="M1428 93 c7 -3 16 -2 19 1 4 3 -2 6 -13 5 -11 0 -14 -3 -6 -6z"/>
<path d="M1540 80 c6 -11 13 -20 16 -20 2 0 0 9 -6 20 -6 11 -13 20 -16 20 -2
0 0 -9 6 -20z"/>
<path d="M1590 91 c0 -6 4 -13 10 -16 6 -3 7 1 4 9 -7 18 -14 21 -14 7z"/>
<path d="M1830 94 c0 -5 7 -18 15 -28 8 -11 15 -16 15 -10 0 5 -7 18 -15 28
-8 11 -15 16 -15 10z"/>
<path d="M1957 87 c-3 -8 -2 -20 3 -26 5 -9 8 -4 8 13 0 29 -3 32 -11 13z"/>
<path d="M1995 84 c-10 -8 -14 -14 -9 -14 6 0 16 6 23 13 11 10 13 9 8 -5 -4
-10 -2 -18 3 -18 12 0 13 27 2 34 -4 2 -16 -2 -27 -10z"/>
<path d="M2070 91 c0 -5 7 -15 17 -22 15 -13 15 -12 4 9 -12 23 -21 28 -21 13z"/>
<path d="M2320 96 c0 -2 7 -7 16 -10 8 -3 12 -2 9 4 -6 10 -25 14 -25 6z"/>
<path d="M2455 91 c-3 -6 5 -15 17 -21 21 -10 21 -10 6 3 -10 8 -15 17 -11 20
3 4 4 7 0 7 -3 0 -8 -4 -12 -9z"/>
<path d="M2535 91 c-3 -6 5 -15 17 -21 21 -10 21 -10 6 3 -10 8 -15 17 -11 20
3 4 4 7 0 7 -3 0 -8 -4 -12 -9z"/>
<path d="M2695 89 c-4 -6 -4 -13 -1 -16 3 -4 6 -1 6 6 0 7 5 9 12 5 7 -4 8 -3
4 4 -9 15 -13 15 -21 1z"/>
<path d="M2737 93 c-3 -5 -1 -15 5 -23 8 -12 9 -12 4 3 -4 12 0 17 13 17 14 0
18 -5 14 -19 -3 -10 -1 -21 4 -24 5 -3 8 7 7 21 0 19 -7 28 -21 30 -12 2 -23
-1 -26 -5z"/>
<path d="M3037 93 c-4 -3 -7 -11 -7 -17 0 -6 5 -5 12 2 6 6 9 14 7 17 -3 3 -9
2 -12 -2z"/>
<path d="M2050 75 c0 -8 4 -15 10 -15 5 0 7 7 4 15 -4 8 -8 15 -10 15 -2 0 -4
-7 -4 -15z"/>
<path d="M2113 72 c2 -12 6 -24 10 -28 3 -4 4 4 2 16 -6 30 -16 40 -12 12z"/>
<path d="M2656 75 c-3 -9 -2 -14 3 -10 5 3 11 -1 14 -7 2 -7 7 -11 10 -8 3 3
0 13 -8 23 -11 16 -13 16 -19 2z"/>
<path d="M3000 81 c0 -6 4 -13 10 -16 6 -3 7 1 4 9 -7 18 -14 21 -14 7z"/>
<path d="M1059 63 c-13 -17 -13 -17 6 -3 11 8 22 16 24 17 2 2 0 3 -6 3 -6 0
-17 -8 -24 -17z"/>
<path d="M1730 69 c0 -5 4 -8 9 -4 5 3 12 1 16 -5 3 -5 11 -10 18 -10 6 0 2 7
-9 15 -23 17 -34 19 -34 4z"/>
<path d="M1906 72 c-3 -5 1 -9 9 -9 8 0 12 4 9 9 -3 4 -7 8 -9 8 -2 0 -6 -4
-9 -8z"/>
<path d="M2191 77 c2 -1 12 -9 22 -16 15 -12 17 -12 11 3 -3 9 -13 16 -22 16
-8 0 -13 -1 -11 -3z"/>
<path d="M2310 76 c0 -2 7 -7 16 -10 8 -3 12 -2 9 4 -6 10 -25 14 -25 6z"/>
<path d="M2593 65 c0 -8 4 -12 9 -9 4 3 8 9 8 15 0 5 -4 9 -8 9 -5 0 -9 -7 -9
-15z"/>
<path d="M2810 72 c0 -5 7 -9 15 -9 8 0 12 4 9 9 -3 4 -9 8 -15 8 -5 0 -9 -4
-9 -8z"/>
<path d="M2904 64 c-18 -14 -18 -15 4 -4 12 6 22 13 22 15 0 8 -5 6 -26 -11z"/>
<path d="M2180 56 c0 -2 7 -7 16 -10 8 -3 12 -2 9 4 -6 10 -25 14 -25 6z"/>
<path d="M1735 41 c-3 -5 -2 -12 3 -15 5 -3 9 1 9 9 0 17 -3 19 -12 6z"/>
</g>
</svg>
