<?xml version="1.0" standalone="no"?>
<!DOCTYPE svg PUBLIC "-//W3C//DTD SVG 20010904//EN"
 "http://www.w3.org/TR/2001/REC-SVG-20010904/DTD/svg10.dtd">
<svg version="1.0" xmlns="http://www.w3.org/2000/svg"
 width="355.000000pt" height="355.000000pt" viewBox="0 0 355.000000 355.000000"
 preserveAspectRatio="xMidYMid meet">
<metadata>
Created by potrace 1.14, written by Peter Selinger 2001-2017
</metadata>
<g transform="translate(0.000000,355.000000) scale(0.100000,-0.100000)"
fill="#000000" stroke="none">
<path d="M2673 3390 c-176 -32 -301 -139 -319 -273 l-7 -47 -24 38 c-41 63
-83 85 -172 90 -58 3 -92 0 -131 -13 l-52 -17 29 -32 c16 -17 46 -55 67 -83
53 -74 80 -93 134 -93 49 0 112 18 112 33 0 21 -34 68 -75 105 -35 30 -63 45
-108 56 -61 14 -61 14 -20 15 63 1 146 -33 186 -78 34 -37 41 -53 68 -156 l14
-50 5 90 c9 153 76 256 205 316 82 38 138 50 68 15 -82 -43 -139 -99 -178
-179 -20 -40 -38 -95 -42 -124 l-6 -53 74 0 c94 0 141 13 185 52 44 39 58 66
105 205 21 62 47 127 59 144 12 16 20 32 17 35 -10 10 -144 13 -194 4z"/>
<path d="M689 2861 c-97 -32 -119 -101 -84 -261 12 -54 14 -222 15 -961 0
-872 1 -899 20 -960 26 -82 60 -128 135 -184 178 -133 452 -51 535 160 23 58
24 71 30 437 l5 377 73 -87 c40 -48 213 -258 385 -466 329 -401 384 -456 470
-477 101 -24 243 7 313 68 45 40 95 117 116 181 l23 67 3 845 c3 891 -1 1007
-39 1081 -74 147 -198 196 -473 187 -151 -5 -205 -19 -227 -61 -13 -22 -7
-149 10 -262 7 -43 10 -196 9 -399 l-3 -329 -285 379 c-371 492 -431 567 -485
604 -82 56 -112 63 -325 66 -107 2 -207 0 -221 -5z m326 -312 c14 -12 48 -48
73 -79 163 -201 257 -319 713 -892 443 -556 508 -634 513 -612 4 13 6 376 6
807 l-1 782 26 8 c18 6 33 4 50 -7 l24 -16 3 -878 c2 -696 0 -882 -10 -899
-22 -40 -60 -30 -114 30 -45 49 -1062 1317 -1193 1488 -33 43 -63 78 -67 78
-5 1 -8 -359 -8 -799 l0 -799 -21 -11 c-26 -14 -65 -6 -73 15 -3 9 -6 415 -6
903 -1 841 0 887 17 894 29 11 39 9 68 -13z"/>
</g>
</svg>
