<svg xmlns="http://www.w3.org/2000/svg" width="1600" height="800" viewBox="0 0 1600 800" preserveAspectRatio="xMidYMid slice">
  <defs>
    <linearGradient id="bg" x1="0" y1="0" x2="1" y2="0" gradientUnits="objectBoundingBox" gradientTransform="rotate(25 0.5 0.5)">
      <stop offset="0" stop-color="#00DE9F"/>
      <stop offset="0.52" stop-color="#00A1C2"/>
      <stop offset="1" stop-color="#0088D6"/>
    </linearGradient>

    <radialGradient id="glow-soft" cx="50%" cy="50%" r="60%">
      <stop offset="0" stop-color="#F4F4F4" stop-opacity="0.22"/>
      <stop offset="1" stop-color="#F4F4F4" stop-opacity="0"/>
    </radialGradient>

    <radialGradient id="orb-red" cx="35%" cy="30%" r="70%">
      <stop offset="0" stop-color="#F4F4F4" stop-opacity="0.55"/>
      <stop offset="0.22" stop-color="#FF8479" stop-opacity="0.85"/>
      <stop offset="1" stop-color="#FF8479" stop-opacity="0.10"/>
    </radialGradient>

    <radialGradient id="orb-green" cx="35%" cy="30%" r="70%">
      <stop offset="0" stop-color="#F4F4F4" stop-opacity="0.55"/>
      <stop offset="0.22" stop-color="#5BDB3B" stop-opacity="0.85"/>
      <stop offset="1" stop-color="#5BDB3B" stop-opacity="0.10"/>
    </radialGradient>

    <filter id="blur16" x="-20%" y="-20%" width="140%" height="140%">
      <feGaussianBlur stdDeviation="16"/>
    </filter>
    <filter id="blur10" x="-20%" y="-20%" width="140%" height="140%">
      <feGaussianBlur stdDeviation="10"/>
    </filter>
  </defs>

  <rect width="1600" height="800" fill="url(#bg)"/>
  <!-- parallax-background-christmas-blog -->
  <g id="parallax-back">
    <circle cx="207" cy="442" r="256.0" fill="url(#glow-soft)" opacity="0.18" filter="url(#blur16)"/>
    <circle cx="1443" cy="182" r="256.0" fill="url(#glow-soft)" opacity="0.16" filter="url(#blur16)"/>
    <ellipse cx="743" cy="760" rx="390.0" ry="180.0" fill="url(#glow-soft)" opacity="0.12" filter="url(#blur16)"/>
    <path d="M 80 820 C 30 620 70 480 120 340 C 180 170 120 60 60 -40" fill="none" stroke="#F4F4F4" stroke-opacity="0.10" stroke-width="10" stroke-linecap="round"/>
    <circle cx="40" cy="40" r="220" fill="url(#glow-soft)" opacity="0.18" filter="url(#blur10)"/>
    <circle cx="1560" cy="760" r="240" fill="url(#glow-soft)" opacity="0.16" filter="url(#blur10)"/>
  </g>
  <g id="parallax-mid">
    <circle cx="1409" cy="165" r="120" fill="none" stroke="#FF8479" stroke-opacity="0.12" stroke-width="1.25"/>
    <circle cx="1367" cy="134" r="175" fill="none" stroke="#FF8479" stroke-opacity="0.12" stroke-width="1.25"/>
    <circle cx="1391" cy="167" r="230" fill="none" stroke="#FF8479" stroke-opacity="0.12" stroke-width="1.25"/>
    <circle cx="1393" cy="110" r="285" fill="none" stroke="#FF8479" stroke-opacity="0.12" stroke-width="1.25"/>
    <circle cx="210" cy="691" r="90" fill="none" stroke="#5BDB3B" stroke-opacity="0.1" stroke-width="1.25"/>
    <circle cx="174" cy="708" r="150" fill="none" stroke="#5BDB3B" stroke-opacity="0.1" stroke-width="1.25"/>
    <circle cx="198" cy="691" r="210" fill="none" stroke="#5BDB3B" stroke-opacity="0.1" stroke-width="1.25"/>
    <path d="M150 70 l18 0 m-9 -9 l0 18 m-14 -14 l14 14 m0 -14 l-14 14" stroke="#F4F4F4" stroke-opacity="0.18" stroke-width="1.2" stroke-linecap="round"/>
    <path d="M1450 730 l20 0 m-10 -10 l0 20 m-16 -16 l16 16 m0 -16 l-16 16" stroke="#F4F4F4" stroke-opacity="0.16" stroke-width="1.2" stroke-linecap="round"/>
    <circle cx="90" cy="110" r="56" fill="url(#orb-red)" opacity="0.85"/>
    <circle cx="76.0" cy="96.0" r="10.1" fill="#F4F4F4" opacity="0.35"/>
    <circle cx="1510" cy="710" r="72" fill="url(#orb-green)" opacity="0.8"/>
    <circle cx="1492.0" cy="692.0" r="13.0" fill="#F4F4F4" opacity="0.35"/>
    <circle cx="1530" cy="90" r="38" fill="url(#orb-red)" opacity="0.75"/>
    <circle cx="1520.5" cy="80.5" r="6.8" fill="#F4F4F4" opacity="0.35"/>
    <rect x="60" y="640" width="130" height="90" rx="18" fill="#F4F4F4" opacity="0.18"/>
    <rect x="119.8" y="640" width="10.4" height="90" fill="#FF8479" opacity="0.22"/>
    <rect x="60" y="679.6" width="130" height="10.8" fill="#5BDB3B" opacity="0.18"/>
    <rect x="1410" y="520" width="150" height="100" rx="18" fill="#F4F4F4" opacity="0.18"/>
    <rect x="1479.0" y="520" width="12.0" height="100" fill="#FF8479" opacity="0.22"/>
    <rect x="1410" y="564.0" width="150" height="12.0" fill="#5BDB3B" opacity="0.18"/>
  </g>
  <g id="parallax-front">
    <circle cx="73" cy="299" r="3.2" fill="#F4F4F4" opacity="0.17503644949162206"/>
    <circle cx="1480" cy="402" r="3.3" fill="#F4F4F4" opacity="0.1945614931560534"/>
    <circle cx="1411" cy="727" r="2.9" fill="#F4F4F4" opacity="0.11039014116953023"/>
    <circle cx="116" cy="533" r="3.8" fill="#F4F4F4" opacity="0.11801892822265372"/>
    <circle cx="693" cy="56" r="4.0" fill="#F4F4F4" opacity="0.18759488614178435"/>
    <circle cx="1106" cy="105" r="4.4" fill="#F4F4F4" opacity="0.13610651604466628"/>
    <circle cx="1116" cy="698" r="3.3" fill="#F4F4F4" opacity="0.12772944153124463"/>
    <circle cx="1008" cy="745" r="2.7" fill="#F4F4F4" opacity="0.12900237388990474"/>
    <circle cx="1462" cy="305" r="2.8" fill="#F4F4F4" opacity="0.13621791752492307"/>
    <circle cx="1520" cy="472" r="2.8" fill="#F4F4F4" opacity="0.15329161440728212"/>
    <circle cx="1532" cy="602" r="3.3" fill="#F4F4F4" opacity="0.19283919339734512"/>
    <circle cx="1453" cy="47" r="3.1" fill="#F4F4F4" opacity="0.1633671532353425"/>
    <circle cx="1483" cy="34" r="4.8" fill="#F4F4F4" opacity="0.1542876808685453"/>
    <circle cx="1559" cy="25" r="4.2" fill="#F4F4F4" opacity="0.19333573818684865"/>
    <circle cx="1317" cy="769" r="4.4" fill="#5BDB3B" opacity="0.10"/>
    <circle cx="1343" cy="778" r="5.3" fill="#5BDB3B" opacity="0.10"/>
    <circle cx="1372" cy="744" r="5.2" fill="#5BDB3B" opacity="0.10"/>
    <circle cx="1387" cy="759" r="5.4" fill="#5BDB3B" opacity="0.10"/>
    <circle cx="1419" cy="755" r="3.3" fill="#5BDB3B" opacity="0.10"/>
    <circle cx="1440" cy="760" r="5.7" fill="#5BDB3B" opacity="0.10"/>
    <circle cx="1461" cy="746" r="3.1" fill="#5BDB3B" opacity="0.10"/>
    <circle cx="1492" cy="767" r="4.4" fill="#5BDB3B" opacity="0.10"/>
    <circle cx="1518" cy="745" r="3.7" fill="#5BDB3B" opacity="0.10"/>
    <circle cx="1530" cy="744" r="4.2" fill="#5BDB3B" opacity="0.10"/>
  </g>

</svg>
