<svg xmlns="http://www.w3.org/2000/svg" width="1600" height="900" viewBox="0 0 1600 900" preserveAspectRatio="xMidYMid slice" role="img" aria-label="Dark SDG features parallax background with angular ribbons">
  <defs>
    <linearGradient id="sdgDarkFeaturesBase" x1="0" y1="0" x2="1" y2="1">
      <stop offset="0%" stop-color="#0A1728" />
      <stop offset="60%" stop-color="#0A2236" />
      <stop offset="100%" stop-color="#0C293F" />
    </linearGradient>
    <linearGradient id="sdgDarkFeaturesRibbonA" x1="0" y1="0" x2="1" y2="0">
      <stop offset="0%" stop-color="#1E7DD7" stop-opacity="0.44" />
      <stop offset="100%" stop-color="#1FA273" stop-opacity="0.48" />
    </linearGradient>
    <linearGradient id="sdgDarkFeaturesRibbonB" x1="0" y1="0" x2="0" y2="1">
      <stop offset="0%" stop-color="#48B4F0" stop-opacity="0.36" />
      <stop offset="100%" stop-color="#4CD1A3" stop-opacity="0.22" />
    </linearGradient>
    <radialGradient id="sdgDarkFeaturesGlow" cx="0" cy="0" r="1" gradientUnits="userSpaceOnUse" gradientTransform="translate(1180 220) scale(420 320)">
      <stop offset="0%" stop-color="#2FBBFF" stop-opacity="0.36" />
      <stop offset="100%" stop-color="#2FBBFF" stop-opacity="0" />
    </radialGradient>
  </defs>

  <rect width="1600" height="900" fill="url(#sdgDarkFeaturesBase)" />
  <circle cx="1180" cy="220" r="320" fill="url(#sdgDarkFeaturesGlow)" />

  <path d="M-40 360L460 520C640 580 820 580 1040 520L1640 360V900H-40Z" fill="url(#sdgDarkFeaturesRibbonA)" />
  <path d="M-20 520L360 640C600 720 900 760 1200 700L1650 600V900H-20Z" fill="url(#sdgDarkFeaturesRibbonB)" />

  <g fill="none" stroke="#2C9DE6" stroke-width="2.6" opacity="0.44">
    <path d="M100 320C260 280 520 280 760 340C1000 400 1320 420 1500 360" />
    <path d="M200 220C420 190 680 210 920 280C1180 356 1430 370 1600 330" />
  </g>

  <g opacity="0.46" fill="#2BBE87">
    <circle cx="320" cy="360" r="9" />
    <circle cx="480" cy="310" r="8" />
    <circle cx="640" cy="380" r="7" />
    <circle cx="820" cy="300" r="10" />
    <circle cx="1000" cy="260" r="8" />
    <circle cx="1380" cy="320" r="9" />
  </g>
</svg>
