<svg xmlns="http://www.w3.org/2000/svg" width="1600" height="800" viewBox="0 0 1600 800" preserveAspectRatio="xMidYMid slice" role="img" aria-label="Festive light parallax background for call to action with bright stars and gifts">
  <defs>
    <linearGradient id="bg" x1="0%" y1="0%" x2="100%" y2="0%" gradientTransform="rotate(29 0.5 0.5)">
      <stop offset="0%" stop-color="#00DE9F" />
      <stop offset="52%" stop-color="#00A1C2" />
      <stop offset="100%" stop-color="#0088D6" />
    </linearGradient>
    <radialGradient id="glowL" cx="16%" cy="56%" r="70%">
      <stop offset="0%" stop-color="#00A1C2" stop-opacity="0.28" />
      <stop offset="100%" stop-color="#00A1C2" stop-opacity="0" />
    </radialGradient>
    <radialGradient id="glowR" cx="84%" cy="34%" r="78%">
      <stop offset="0%" stop-color="#0088D6" stop-opacity="0.2" />
      <stop offset="100%" stop-color="#0088D6" stop-opacity="0" />
    </radialGradient>
    <pattern id="microdots" width="22" height="22" patternUnits="userSpaceOnUse">
      <circle cx="11" cy="11" r="1.2" fill="#F4F4F4" opacity="0.10" />
    </pattern>
    <filter id="softBlur" x="-20%" y="-20%" width="140%" height="140%">
      <feGaussianBlur stdDeviation="18" />
    </filter>
    <filter id="gentleBlur" x="-20%" y="-20%" width="140%" height="140%">
      <feGaussianBlur stdDeviation="11" />
    </filter>
    <symbol id="star" viewBox="0 0 24 24">
      <path d="M12 2.5l2.4 6.1 6.6.4-5.1 4 1.7 6.5L12 15.8 6.4 19.5l1.7-6.5-5.1-4 6.6-.4z" fill="#F4F4F4" />
    </symbol>
    <symbol id="gift" viewBox="0 0 32 32">
      <rect x="3" y="10" width="26" height="18" rx="3" fill="#FF8479" opacity="0.9" />
      <rect x="14" y="4" width="4" height="24" fill="#F4F4F4" opacity="0.85" />
      <rect x="3" y="16" width="26" height="4" fill="#F4F4F4" opacity="0.75" />
      <circle cx="16" cy="8" r="5" fill="#5BDB3B" opacity="0.85" />
    </symbol>
    <symbol id="tree" viewBox="0 0 36 40">
      <path d="M18 2l9 11h-6l7 9h-6l6 8h-8v6h-4v-6H8l6-8H8l7-9H9z" fill="#5BDB3B" opacity="0.9" />
      <rect x="15" y="30" width="6" height="6" fill="#FF8479" opacity="0.95" />
    </symbol>
  </defs>

  <rect width="1600" height="800" fill="url(#bg)" />
  <circle cx="80" cy="520" r="520" fill="url(#glowL)" />
  <circle cx="1580" cy="260" r="620" fill="url(#glowR)" />
  <rect width="1600" height="800" fill="url(#microdots)" />

  <g id="parallax-back">
    <circle cx="240" cy="220" r="250" fill="#00A1C2" opacity="0.18" filter="url(#gentleBlur)" />
    <circle cx="1380" cy="640" r="260" fill="#0088D6" opacity="0.18" filter="url(#softBlur)" />
    <path d="M-40 240 C 180 300, 240 420, 300 580" stroke="#F4F4F4" stroke-width="9.5" opacity="0.12" fill="none" />
    <path d="M1520 760 C 1400 710, 1300 640, 1200 540" stroke="#F4F4F4" stroke-width="9" opacity="0.12" fill="none" />
  </g>

  <g id="parallax-mid">
    <g opacity="0.84">
      <circle cx="200" cy="640" r="64" fill="#F4F4F4" opacity="0.18" />
      <circle cx="160" cy="160" r="40" fill="#F4F4F4" opacity="0.14" />
      <circle cx="1340" cy="180" r="48" fill="#F4F4F4" opacity="0.16" />
      <circle cx="1460" cy="220" r="34" fill="#F4F4F4" opacity="0.14" />
    </g>
    <g stroke="#FF8479" stroke-width="2.5" opacity="0.16" fill="none">
      <circle cx="140" cy="620" r="40" />
      <circle cx="200" cy="680" r="28" />
      <circle cx="1400" cy="620" r="42" />
      <circle cx="1480" cy="680" r="30" />
    </g>
    <g opacity="0.92">
      <use href="#gift" x="1500" y="520" width="74" height="74" />
      <use href="#gift" x="120" y="520" width="66" height="66" />
      <use href="#tree" x="1420" y="90" width="80" height="80" />
    </g>
  </g>

  <g id="parallax-front">
    <g fill="#5BDB3B" opacity="0.12">
      <circle cx="1520" cy="600" r="12" />
      <circle cx="1560" cy="560" r="10" />
      <circle cx="1320" cy="130" r="11" />
      <circle cx="140" cy="700" r="10" />
      <circle cx="200" cy="740" r="8" />
    </g>
    <g opacity="0.19">
      <use href="#star" x="150" y="620" width="32" height="32" />
      <use href="#star" x="1480" y="520" width="34" height="34" />
      <use href="#star" x="1360" y="110" width="30" height="30" />
      <use href="#star" x="140" y="140" width="32" height="32" />
    </g>
    <path d="M160 80 C 260 120, 340 180, 380 250" stroke="#F4F4F4" stroke-width="1.5" opacity="0.18" fill="none" />
    <path d="M1500 740 C 1350 700, 1220 640, 1120 570" stroke="#F4F4F4" stroke-width="1.5" opacity="0.18" fill="none" />
  </g>
</svg>
