<svg xmlns="http://www.w3.org/2000/svg" width="1600" height="900" viewBox="0 0 1600 900" preserveAspectRatio="xMidYMid slice" role="img" aria-label="Dark SDG essentials parallax background with layered currents">
  <defs>
    <linearGradient id="sdgDarkSky" x1="0" y1="0" x2="0" y2="1">
      <stop offset="0%" stop-color="#0E1A2D" />
      <stop offset="50%" stop-color="#0B2139" />
      <stop offset="100%" stop-color="#0C2B3A" />
    </linearGradient>
    <linearGradient id="sdgDarkWave" x1="0" y1="1" x2="1" y2="0">
      <stop offset="0%" stop-color="#1E7BCB" stop-opacity="0.4" />
      <stop offset="100%" stop-color="#1F9C74" stop-opacity="0.5" />
    </linearGradient>
    <radialGradient id="sdgDarkGlow" cx="0" cy="0" r="1" gradientUnits="userSpaceOnUse" gradientTransform="translate(1240 240) scale(520 420)">
      <stop offset="0%" stop-color="#37B0FF" stop-opacity="0.36" />
      <stop offset="100%" stop-color="#37B0FF" stop-opacity="0" />
    </radialGradient>
    <radialGradient id="sdgDarkHalo" cx="0" cy="0" r="1" gradientUnits="userSpaceOnUse" gradientTransform="translate(320 760) scale(820 420)">
      <stop offset="0%" stop-color="#1C5A7A" stop-opacity="0.42" />
      <stop offset="100%" stop-color="#1C5A7A" stop-opacity="0" />
    </radialGradient>
  </defs>

  <rect width="1600" height="900" fill="url(#sdgDarkSky)" />
  <circle cx="1240" cy="240" r="360" fill="url(#sdgDarkGlow)" />
  <circle cx="320" cy="760" r="520" fill="url(#sdgDarkHalo)" />

  <path d="M0 620C240 560 520 520 820 550C1120 580 1380 640 1600 600V900H0Z" fill="#0F2743" />
  <path d="M0 690C260 640 540 680 840 700C1120 720 1380 690 1600 650V900H0Z" fill="#0F3142" />
  <path d="M0 740C220 720 520 760 820 760C1140 760 1400 720 1600 700V900H0Z" fill="url(#sdgDarkWave)" />

  <g opacity="0.48" fill="none" stroke="#2B9AE3" stroke-width="2.6">
    <path d="M160 380C260 340 340 340 420 360C520 386 620 350 760 300" />
    <path d="M1180 320C1280 300 1380 300 1520 340" />
    <path d="M220 480C340 460 440 440 560 470C700 510 860 500 980 450" />
  </g>

  <g opacity="0.6" fill="#2BC18D">
    <circle cx="180" cy="520" r="10" />
    <circle cx="260" cy="410" r="8" />
    <circle cx="340" cy="560" r="12" />
    <circle cx="1260" cy="360" r="9" />
    <circle cx="1340" cy="430" r="7" />
    <circle cx="1180" cy="500" r="10" />
  </g>

  <g opacity="0.4" fill="#2C8AE0">
    <circle cx="980" cy="260" r="6" />
    <circle cx="890" cy="320" r="5" />
    <circle cx="1040" cy="340" r="7" />
    <circle cx="1160" cy="420" r="6" />
  </g>
</svg>
