<svg xmlns="http://www.w3.org/2000/svg" width="100%" height="100%" fill="none" aria-label="Abstract dark tech parallax background variant" preserveAspectRatio="xMidYMid slice" viewBox="0 0 1600 900"><defs><radialGradient id="e" cx="0" cy="0" r="1" gradientTransform="rotate(110 412.977 453.102) scale(560 520)" gradientUnits="userSpaceOnUse"><stop stop-color="#38bdf8" stop-opacity=".95"/><stop offset=".55" stop-color="#60a5fa" stop-opacity=".35"/><stop offset="1" stop-color="#38bdf8" stop-opacity="0"/></radialGradient><radialGradient id="f" cx="0" cy="0" r="1" gradientTransform="rotate(25 -912.784 1432.784) scale(640 520)" gradientUnits="userSpaceOnUse"><stop stop-color="#22c55e" stop-opacity=".7"/><stop offset=".6" stop-color="#22c55e" stop-opacity=".22"/><stop offset="1" stop-color="#22c55e" stop-opacity="0"/></radialGradient><radialGradient id="g" cx="0" cy="0" r="1" gradientTransform="rotate(-20 2504.81 -3593.184) scale(520 420)" gradientUnits="userSpaceOnUse"><stop stop-color="#82b1ff" stop-opacity=".55"/><stop offset=".6" stop-color="#90caf9" stop-opacity=".18"/><stop offset="1" stop-color="#82b1ff" stop-opacity="0"/></radialGradient><radialGradient id="i" cx="0" cy="0" r="1" gradientTransform="matrix(940 0 0 560 800 400)" gradientUnits="userSpaceOnUse"><stop offset="0" stop-opacity="0"/><stop offset="1" stop-opacity=".58"/></radialGradient><linearGradient id="a" x1="0" x2="1600" y1="0" y2="800" gradientUnits="userSpaceOnUse"><stop offset="0" stop-color="#0b1220"/><stop offset=".45" stop-color="#111827"/><stop offset="1" stop-color="#0f172a"/></linearGradient><linearGradient id="b" x1="0" x2="1600" y1="760" y2="40" gradientUnits="userSpaceOnUse"><stop offset="0" stop-color="#166534" stop-opacity=".22"/><stop offset=".5" stop-color="#1d4ed8" stop-opacity=".3"/><stop offset="1" stop-color="#1e3a8a" stop-opacity=".4"/></linearGradient><linearGradient id="h" x1="200" x2="1400" y1="140" y2="720" gradientUnits="userSpaceOnUse"><stop offset="0" stop-color="#38bdf8" stop-opacity=".1"/><stop offset=".5" stop-color="#1d4ed8" stop-opacity=".1"/><stop offset="1" stop-color="#22c55e" stop-opacity=".1"/></linearGradient><pattern id="c" width="80" height="80" patternUnits="userSpaceOnUse"><path stroke="#cbd5f5" stroke-opacity=".06" d="M80 0H0v80"/></pattern><pattern id="d" width="28" height="28" patternUnits="userSpaceOnUse"><circle cx="2" cy="2" r="1" fill="#f8fafc" opacity=".06"/><circle cx="14" cy="18" r=".9" fill="#f8fafc" opacity=".05"/></pattern></defs><path fill="url(#a)" d="M0 0h1600v800H0z" transform="translate(-160 -90) scale(1.35)"/><path fill="url(#b)" d="M0 0h1600v800H0z" transform="translate(-160 -90) scale(1.35)"/><path fill="url(#c)" d="M0 0h1600v800H0z" opacity=".85" transform="translate(-160 -90) scale(1.35)"/><path fill="url(#d)" d="M0 0h1600v800H0z" opacity=".8" transform="translate(-160 -90) scale(1.35)"/><path stroke="#94a3b8" stroke-opacity=".1" stroke-width="24.3" d="M-214 666c297-121.5 526.5-81 810 0 351 101.25 675 121.5 1026 0 243-87.75 405-189 513-283.5"/><g transform="translate(-160 -90) scale(1.35)"><ellipse cx="980" cy="220" fill="url(#e)" opacity=".9" rx="560" ry="380"/><ellipse cx="520" cy="520" fill="url(#f)" opacity=".8" rx="640" ry="420"/><ellipse cx="1380" cy="640" fill="url(#g)" opacity=".75" rx="520" ry="360"/><path fill="url(#h)" d="M200 150c220-70 420-30 620 60 190 85 360 120 580 70v130c-220 60-380 40-580-50-200-95-400-130-620-60Z"/><g opacity=".75"><path stroke="#38bdf8" stroke-linecap="round" stroke-opacity=".28" stroke-width="2" d="m360 250 160 70 180-80 190 70 150-80"/><path stroke="#22c55e" stroke-linecap="round" stroke-opacity=".22" stroke-width="2" d="m520 520 160-60 180 60 180-70 180 70"/><circle cx="360" cy="250" r="5.5" fill="#60a5fa" opacity=".7"/><circle cx="520" cy="320" r="5.5" fill="#38bdf8" opacity=".75"/><circle cx="700" cy="240" r="5.5" fill="#82b1ff" opacity=".65"/><circle cx="890" cy="310" r="5.5" fill="#38bdf8" opacity=".7"/><circle cx="1040" cy="230" r="5.5" fill="#60a5fa" opacity=".7"/><circle cx="520" cy="520" r="5.5" fill="#22c55e" opacity=".7"/><circle cx="680" cy="460" r="5.5" fill="#81c784" opacity=".7"/><circle cx="860" cy="520" r="5.5" fill="#22c55e" opacity=".7"/><circle cx="1040" cy="450" r="5.5" fill="#38bdf8" opacity=".55"/><circle cx="1220" cy="520" r="5.5" fill="#22c55e" opacity=".7"/></g></g><path fill="#1e293b" fill-opacity=".32" stroke="#cbd5f5" stroke-opacity=".11" stroke-width="1.35" d="M1190 58.5c162-54 391.5-33.75 600.75 40.5 81 29.7 128.25 101.25 128.25 189v51.3c0 51.3-40.5 91.8-91.8 91.8h-596.7c-51.3 0-94.5-40.5-94.5-91.8V220.5c0-74.25 16.2-129.6 54-162Z"/><path fill="#111827" fill-opacity=".28" stroke="#cbd5f5" stroke-opacity=".1" stroke-width="1.35" d="M-11.5 612c0-43.2 35.1-78.3 78.3-78.3h650.7c43.2 0 78.3 35.1 78.3 78.3v209.25c0 43.2-35.1 78.3-78.3 78.3H66.8c-43.2 0-78.3-35.1-78.3-78.3z"/><path fill="#38bdf8" fill-opacity=".11" d="m1271 126 270-67.5 81 148.5-270 67.5Z"/><path fill="#22c55e" fill-opacity=".09" d="m137 477 270-81 108 148.5-270 81Z"/><path fill="#82b1ff" fill-opacity=".09" d="m1541 666 324-54 60.75 162L1595 841.5Z"/><path stroke="#f8fafc" stroke-opacity=".1" stroke-width="2.7" d="M66.8 591.75h650.7M1230.5 126h596.7"/><path fill="url(#i)" d="M0 0h1600v800H0z" transform="translate(-160 -90) scale(1.35)"/><path fill="transparent" d="M-160-90h2160V990H-160z"/></svg>