<svg xmlns="http://www.w3.org/2000/svg" width="1600" height="800" viewBox="0 0 1600 800" preserveAspectRatio="xMidYMid slice" fill="none" role="img" aria-label="Festive dark parallax background with gifts and stars framing the edges">
  <defs>
    <linearGradient id="bg" x1="0%" y1="0%" x2="100%" y2="0%" gradientUnits="userSpaceOnUse" gradientTransform="rotate(25 0.5 0.5)">
      <stop offset="0%" stop-color="#00B97F" />
      <stop offset="52%" stop-color="#0087AD" />
      <stop offset="100%" stop-color="#006199" />
    </linearGradient>
    <radialGradient id="glowL" cx="0.12" cy="0.74" r="0.8">
      <stop offset="0%" stop-color="#009CC7" stop-opacity="0.32" />
      <stop offset="100%" stop-color="#009CC7" stop-opacity="0" />
    </radialGradient>
    <radialGradient id="glowR" cx="0.9" cy="0.18" r="0.86">
      <stop offset="0%" stop-color="#006199" stop-opacity="0.28" />
      <stop offset="100%" stop-color="#006199" stop-opacity="0" />
    </radialGradient>
    <pattern id="micro" width="22" height="22" patternUnits="userSpaceOnUse">
      <circle cx="11" cy="11" r="1.2" fill="#FFFFFF" opacity="0.1" />
    </pattern>
    <filter id="blur12" x="-20%" y="-20%" width="140%" height="140%">
      <feGaussianBlur stdDeviation="16" />
    </filter>
    <filter id="blur8" x="-20%" y="-20%" width="140%" height="140%">
      <feGaussianBlur stdDeviation="12" />
    </filter>
  </defs>

  <rect width="1600" height="800" fill="url(#bg)" />
  <rect width="1600" height="800" fill="url(#glowL)" />
  <rect width="1600" height="800" fill="url(#glowR)" />
  <rect width="1600" height="800" fill="url(#micro)" />
  <rect width="1600" height="800" fill="#04121C" opacity="0.14" />

  <g id="parallax-back" opacity="0.85">
    <ellipse cx="220" cy="520" rx="340" ry="240" fill="#0087AD" opacity="0.26" filter="url(#blur12)" />
    <ellipse cx="1480" cy="120" rx="300" ry="210" fill="#006199" opacity="0.24" filter="url(#blur8)" />
    <path d="M-120 640 C 140 520, 420 540, 700 690" fill="none" stroke="#BFE9FF" stroke-width="10" opacity="0.14" />
  </g>

  <g id="parallax-mid">
    <g stroke="#FF8479" stroke-width="1.3" fill="none" opacity="0.2">
      <circle cx="1340" cy="130" r="50" />
      <circle cx="1460" cy="210" r="70" />
      <circle cx="1520" cy="300" r="44" />
    </g>
    <g fill="#E6F4FF">
      <circle cx="160" cy="200" r="42" opacity="0.2" />
      <circle cx="230" cy="280" r="22" opacity="0.22" />
      <circle cx="190" cy="120" r="30" opacity="0.18" />
      <circle cx="1480" cy="650" r="36" opacity="0.19" />
      <circle cx="1380" cy="720" r="26" opacity="0.18" />
      <circle cx="1540" cy="520" r="32" opacity="0.18" />
    </g>
  </g>

  <g id="parallax-front">
    <g fill="#E6F4FF" opacity="0.2">
      <path d="M120 90 l6 10 12 2-9 8 2 12-11-6-11 6 2-12-9-8 12-2z" />
      <path d="M1500 700 l5 8 10 2-7 6 2 10-9-5-9 5 2-10-7-6 10-2z" />
      <path d="M240 740 l5 8 10 2-7 6 2 10-9-5-9 5 2-10-7-6 10-2z" />
      <path d="M1540 520 l5 8 10 2-7 6 2 10-9-5-9 5 2-10-7-6 10-2z" />
      <path d="M180 520 l5 8 10 2-7 6 2 10-9-5-9 5 2-10-7-6 10-2z" />
    </g>

    <g stroke="#FF8479" stroke-width="1.4" fill="none" opacity="0.28">
      <rect x="88" y="600" width="76" height="64" rx="7" />
      <path d="M88 632h76" />
      <path d="M126 600v64" />
      <path d="M126 600c-4-18 24-22 26-6 1 6-3 13-10 17 7-3 20-2 21 9 1 14-19 18-26 2" />
    </g>
    <g stroke="#5BDB3B" stroke-width="1.2" fill="none" opacity="0.25">
      <rect x="1448" y="70" width="70" height="58" rx="7" />
      <path d="M1448 101h70" />
      <path d="M1483 70v58" />
      <path d="M1483 70c-3-14 20-16 22-4 1 5-3 11-9 14 6-2 18-2 19 8 1 12-15 14-19 1" />
    </g>

    <g fill="#5BDB3B" opacity="0.16">
      <circle cx="1320" cy="660" r="7" />
      <circle cx="1400" cy="710" r="9" />
      <circle cx="1470" cy="620" r="6" />
      <circle cx="1520" cy="690" r="8" />
      <circle cx="1560" cy="610" r="9" />
      <circle cx="1420" cy="760" r="7" />
    </g>
  </g>
</svg>
