<svg xmlns="http://www.w3.org/2000/svg" width="100%" height="100%" fill="none" aria-label="Abstract dark tech parallax background" preserveAspectRatio="xMidYMid slice" viewBox="0 0 1600 900"><defs><radialGradient id="e" cx="0" cy="0" r="1" gradientTransform="rotate(110 505.975 533.122) scale(520)" gradientUnits="userSpaceOnUse"><stop stop-color="#38bdf8" stop-opacity=".95"/><stop offset=".55" stop-color="#60a5fa" stop-opacity=".35"/><stop offset="1" stop-color="#38bdf8" stop-opacity="0"/></radialGradient><radialGradient id="f" cx="0" cy="0" r="1" gradientTransform="rotate(25 -1138.32 1482.784) scale(560 460)" gradientUnits="userSpaceOnUse"><stop stop-color="#22c55e" stop-opacity=".75"/><stop offset=".55" stop-color="#22c55e" stop-opacity=".25"/><stop offset="1" stop-color="#22c55e" stop-opacity="0"/></radialGradient><radialGradient id="g" cx="0" cy="0" r="1" gradientTransform="rotate(15 -513.618 1381.278) scale(520 420)" gradientUnits="userSpaceOnUse"><stop stop-color="#82b1ff" stop-opacity=".6"/><stop offset=".6" stop-color="#90caf9" stop-opacity=".2"/><stop offset="1" stop-color="#82b1ff" stop-opacity="0"/></radialGradient><radialGradient id="h" cx="0" cy="0" r="1" gradientTransform="matrix(900 0 0 520 800 400)" gradientUnits="userSpaceOnUse"><stop offset="0" stop-opacity="0"/><stop offset="1" stop-opacity=".55"/></radialGradient><linearGradient id="a" x1="0" x2="1600" y1="0" y2="800" gradientUnits="userSpaceOnUse"><stop offset="0" stop-color="#0f172a"/><stop offset=".45" stop-color="#1e293b"/><stop offset="1" stop-color="#0b1220"/></linearGradient><linearGradient id="b" x1="1600" x2="200" y1="0" y2="800" gradientUnits="userSpaceOnUse"><stop offset="0" stop-color="#1e3a8a" stop-opacity=".55"/><stop offset=".55" stop-color="#1d4ed8" stop-opacity=".35"/><stop offset="1" stop-color="#166534" stop-opacity=".25"/></linearGradient><pattern id="c" width="90" height="90" patternUnits="userSpaceOnUse"><path stroke="#94a3b8" stroke-opacity=".08" d="M90 0H0v90"/><path stroke="#cbd5f5" stroke-opacity=".04" d="M0 45h90M45 0v90"/></pattern><pattern id="d" width="34" height="34" patternUnits="userSpaceOnUse"><circle cx="2" cy="2" r="1.2" fill="#f8fafc" opacity=".08"/></pattern></defs><path fill="url(#a)" d="M0 0h1600v800H0z" transform="translate(-160 -90) scale(1.35)"/><path fill="url(#b)" d="M0 0h1600v800H0z" opacity=".85" transform="translate(-160 -90) scale(1.35)"/><path fill="url(#c)" d="M0 0h1600v800H0z" transform="translate(-160 -90) scale(1.35)"/><path fill="url(#d)" d="M0 0h1600v800H0z" opacity=".55" transform="translate(-160 -90) scale(1.35)"/><path stroke="#cbd5f5" stroke-opacity=".1" stroke-width="2.7" d="M-214 733.5c310.5-121.5 486-94.5 810 0C947 838.8 1217 882 1595 774c216-62.1 351-148.5 513-243"/><path stroke="#94a3b8" stroke-opacity=".1" stroke-width="2.7" d="M-241 261c297-67.5 513-13.5 810 54 324 81 567 40.5 918-67.5 243-74.25 432-162 648-216"/><g transform="translate(-160 -90) scale(1.35)"><ellipse cx="1180" cy="240" fill="url(#e)" opacity=".85" rx="520" ry="360"/><ellipse cx="520" cy="620" fill="url(#f)" opacity=".75" rx="560" ry="380"/><ellipse cx="340" cy="180" fill="url(#g)" opacity=".7" rx="520" ry="360"/><path stroke="#38bdf8" stroke-linecap="round" stroke-opacity=".35" stroke-width="2.2" d="M220 520h300c40 0 70-30 70-70V320c0-40 30-70 70-70h200"/><path stroke="#22c55e" stroke-linecap="round" stroke-opacity=".28" stroke-width="2.2" d="M980 560h250c40 0 70-30 70-70V360c0-40 30-70 70-70h130"/><path stroke="#f8fafc" stroke-linecap="round" stroke-opacity=".2" stroke-width="3" d="M860 250h50m-320 70h50m660 40h55"/><circle cx="520" cy="520" r="5.5" fill="#38bdf8" opacity=".75"/><circle cx="590" cy="320" r="5.5" fill="#60a5fa" opacity=".75"/><circle cx="1300" cy="560" r="5.5" fill="#22c55e" opacity=".7"/></g><g stroke="#cbd5f5" opacity=".75"><path fill="#1e293b" fill-opacity=".35" stroke-opacity=".12" stroke-width="1.35" d="M1244 72c0-24.3 18.9-43.2 43.2-43.2h526.5c24.3 0 43.2 18.9 43.2 43.2v256.5c0 24.3-18.9 43.2-43.2 43.2h-526.5c-24.3 0-43.2-18.9-43.2-43.2z"/><path fill="#111827" fill-opacity=".3" stroke-opacity=".1" stroke-width="1.35" d="M2 477c0-24.3 18.9-43.2 43.2-43.2H677c24.3 0 43.2 18.9 43.2 43.2v324c0 24.3-18.9 43.2-43.2 43.2H45.2C20.9 844.2 2 825.3 2 801z"/></g><path fill="#38bdf8" fill-opacity=".1" d="m1163 72 189-54 81 175.5-189 54Z"/><path fill="#82b1ff" fill-opacity=".1" d="m245 342 297-81 94.5 135-297 94.5Z"/><path fill="#22c55e" fill-opacity=".1" d="m1541 612 324-54 54 175.5-324 67.5Z"/><path stroke="#f8fafc" stroke-opacity=".1" stroke-width="2.7" d="M45.2 490.5h618.3M1287.2 80.1h526.5"/><path fill="url(#h)" d="M0 0h1600v800H0z" transform="translate(-160 -90) scale(1.35)"/><path fill="transparent" d="M-160-90h2160V990H-160z"/></svg>