<svg xmlns="http://www.w3.org/2000/svg" width="1600" height="800" viewBox="0 0 1600 800" preserveAspectRatio="xMidYMid slice" fill="none" role="img" aria-label="Festive dark parallax background with right-side sparkles and gifts">
  <defs>
    <linearGradient id="bg" x1="0%" y1="0%" x2="100%" y2="0%" gradientUnits="userSpaceOnUse" gradientTransform="rotate(25 0.5 0.5)">
      <stop offset="0%" stop-color="#00B97F" />
      <stop offset="50%" stop-color="#0087AD" />
      <stop offset="100%" stop-color="#006199" />
    </linearGradient>
    <radialGradient id="glowL" cx="0.08" cy="0.18" r="0.74">
      <stop offset="0%" stop-color="#009CC7" stop-opacity="0.28" />
      <stop offset="100%" stop-color="#009CC7" stop-opacity="0" />
    </radialGradient>
    <radialGradient id="glowR" cx="0.9" cy="0.7" r="0.82">
      <stop offset="0%" stop-color="#006199" stop-opacity="0.26" />
      <stop offset="100%" stop-color="#006199" stop-opacity="0" />
    </radialGradient>
    <pattern id="micro" width="22" height="22" patternUnits="userSpaceOnUse">
      <circle cx="11" cy="11" r="1.2" fill="#FFFFFF" opacity="0.1" />
    </pattern>
    <filter id="blur14" x="-20%" y="-20%" width="140%" height="140%">
      <feGaussianBlur stdDeviation="14" />
    </filter>
    <filter id="blur10" x="-20%" y="-20%" width="140%" height="140%">
      <feGaussianBlur stdDeviation="12" />
    </filter>
  </defs>

  <rect width="1600" height="800" fill="url(#bg)" />
  <rect width="1600" height="800" fill="url(#glowL)" />
  <rect width="1600" height="800" fill="url(#glowR)" />
  <rect width="1600" height="800" fill="url(#micro)" />
  <rect width="1600" height="800" fill="#04121C" opacity="0.14" />

  <g id="parallax-back" opacity="0.86">
    <ellipse cx="180" cy="180" rx="320" ry="220" fill="#0087AD" opacity="0.24" filter="url(#blur14)" />
    <ellipse cx="1420" cy="620" rx="340" ry="240" fill="#006199" opacity="0.22" filter="url(#blur10)" />
    <path d="M-60 540 C 220 450, 480 480, 760 610" fill="none" stroke="#BFE9FF" stroke-width="10" opacity="0.14" />
  </g>

  <g id="parallax-mid">
    <g stroke="#FF8479" stroke-width="1.3" fill="none" opacity="0.22">
      <circle cx="180" cy="160" r="64" />
      <circle cx="220" cy="240" r="40" />
      <circle cx="1420" cy="640" r="72" />
      <circle cx="1500" cy="720" r="48" />
    </g>
    <g fill="#E6F4FF">
      <circle cx="1500" cy="560" r="34" opacity="0.2" />
      <circle cx="1560" cy="640" r="26" opacity="0.19" />
      <circle cx="140" cy="660" r="32" opacity="0.2" />
      <circle cx="200" cy="720" r="22" opacity="0.2" />
      <circle cx="260" cy="120" r="20" opacity="0.18" />
    </g>
  </g>

  <g id="parallax-front">
    <g fill="#E6F4FF" opacity="0.2">
      <path d="M90 120 l6 10 12 2-9 8 2 12-11-6-11 6 2-12-9-8 12-2z" />
      <path d="M300 620 l5 8 10 2-7 6 2 10-9-5-9 5 2-10-7-6 10-2z" />
      <path d="M1500 200 l5 8 10 2-7 6 2 10-9-5-9 5 2-10-7-6 10-2z" />
      <path d="M1360 120 l5 8 10 2-7 6 2 10-9-5-9 5 2-10-7-6 10-2z" />
      <path d="M1520 440 l5 8 10 2-7 6 2 10-9-5-9 5 2-10-7-6 10-2z" />
    </g>

    <g stroke="#5BDB3B" stroke-width="1.25" fill="none" opacity="0.25">
      <rect x="1444" y="82" width="78" height="66" rx="7" />
      <path d="M1444 114h78" />
      <path d="M1483 82v66" />
      <path d="M1483 82c-4-18 24-22 26-6 1 6-3 13-10 17 7-3 20-2 21 9 1 14-20 18-26 2" />
    </g>
    <g stroke="#FF8479" stroke-width="1.35" fill="none" opacity="0.28">
      <rect x="96" y="560" width="82" height="68" rx="8" />
      <path d="M96 594h82" />
      <path d="M138 560v68" />
      <path d="M138 560c-5-18 24-22 26-6 1 6-3 13-10 17 7-3 20-2 21 9 1 14-20 18-26 2" />
    </g>

    <g fill="#5BDB3B" opacity="0.16">
      <circle cx="1320" cy="580" r="7" />
      <circle cx="1360" cy="660" r="9" />
      <circle cx="1460" cy="520" r="6" />
      <circle cx="1540" cy="600" r="8" />
      <circle cx="1580" cy="520" r="9" />
      <circle cx="1400" cy="720" r="7" />
    </g>
  </g>
</svg>
