<svg xmlns="http://www.w3.org/2000/svg" width="1600" height="800" viewBox="0 0 1600 800" preserveAspectRatio="xMidYMid slice" fill="none" role="img" aria-label="Festive dark parallax background with balanced stars and gifts">
  <defs>
    <linearGradient id="bg" x1="0%" y1="0%" x2="100%" y2="0%" gradientUnits="userSpaceOnUse" gradientTransform="rotate(26 0.5 0.5)">
      <stop offset="0%" stop-color="#00B97F" />
      <stop offset="50%" stop-color="#0087AD" />
      <stop offset="100%" stop-color="#006199" />
    </linearGradient>
    <radialGradient id="glowL" cx="0.1" cy="0.25" r="0.72">
      <stop offset="0%" stop-color="#009CC7" stop-opacity="0.28" />
      <stop offset="100%" stop-color="#009CC7" stop-opacity="0" />
    </radialGradient>
    <radialGradient id="glowR" cx="0.92" cy="0.8" r="0.86">
      <stop offset="0%" stop-color="#006199" stop-opacity="0.26" />
      <stop offset="100%" stop-color="#006199" stop-opacity="0" />
    </radialGradient>
    <pattern id="micro" width="22" height="22" patternUnits="userSpaceOnUse">
      <circle cx="11" cy="11" r="1.2" fill="#FFFFFF" opacity="0.1" />
    </pattern>
    <filter id="blur16" x="-20%" y="-20%" width="140%" height="140%">
      <feGaussianBlur stdDeviation="16" />
    </filter>
    <filter id="blur10" x="-20%" y="-20%" width="140%" height="140%">
      <feGaussianBlur stdDeviation="12" />
    </filter>
  </defs>

  <rect width="1600" height="800" fill="url(#bg)" />
  <rect width="1600" height="800" fill="url(#glowL)" />
  <rect width="1600" height="800" fill="url(#glowR)" />
  <rect width="1600" height="800" fill="url(#micro)" />
  <rect width="1600" height="800" fill="#04121C" opacity="0.14" />

  <g id="parallax-back" opacity="0.86">
    <ellipse cx="240" cy="160" rx="320" ry="210" fill="#0087AD" opacity="0.24" filter="url(#blur16)" />
    <ellipse cx="1360" cy="660" rx="320" ry="220" fill="#006199" opacity="0.22" filter="url(#blur10)" />
    <path d="M-100 120 C 260 220, 520 160, 840 80" fill="none" stroke="#BFE9FF" stroke-width="10" opacity="0.14" />
    <path d="M780 760 C 980 720, 1260 710, 1680 820" fill="none" stroke="#BFE9FF" stroke-width="9" opacity="0.12" />
  </g>

  <g id="parallax-mid">
    <g fill="#E6F4FF">
      <circle cx="180" cy="640" r="32" opacity="0.2" />
      <circle cx="220" cy="700" r="22" opacity="0.21" />
      <circle cx="1500" cy="160" r="34" opacity="0.19" />
      <circle cx="1420" cy="120" r="22" opacity="0.18" />
      <circle cx="1500" cy="520" r="28" opacity="0.18" />
      <circle cx="1560" cy="580" r="20" opacity="0.17" />
    </g>
    <g stroke="#FF8479" stroke-width="1.25" fill="none" opacity="0.22">
      <circle cx="220" cy="620" r="58" />
      <circle cx="210" cy="710" r="38" />
      <circle cx="1460" cy="190" r="68" />
      <circle cx="1520" cy="260" r="44" />
    </g>
  </g>

  <g id="parallax-front">
    <g fill="#E6F4FF" opacity="0.2">
      <path d="M110 180 l6 10 12 2-9 8 2 12-11-6-11 6 2-12-9-8 12-2z" />
      <path d="M320 110 l5 8 10 2-7 6 2 10-9-5-9 5 2-10-7-6 10-2z" />
      <path d="M1380 680 l5 8 10 2-7 6 2 10-9-5-9 5 2-10-7-6 10-2z" />
      <path d="M1500 560 l5 8 10 2-7 6 2 10-9-5-9 5 2-10-7-6 10-2z" />
      <path d="M230 650 l5 8 10 2-7 6 2 10-9-5-9 5 2-10-7-6 10-2z" />
    </g>

    <g stroke="#FF8479" stroke-width="1.4" fill="none" opacity="0.28">
      <rect x="126" y="76" width="78" height="66" rx="7" />
      <path d="M126 108h78" />
      <path d="M166 76v66" />
      <path d="M166 76c-5-18 24-22 26-6 1 6-3 13-10 17 7-3 20-2 21 9 1 14-20 18-26 2" />
    </g>
    <g stroke="#5BDB3B" stroke-width="1.2" fill="none" opacity="0.25">
      <rect x="1418" y="602" width="76" height="62" rx="7" />
      <path d="M1418 633h76" />
      <path d="M1456 602v62" />
      <path d="M1456 602c-4-16 22-20 24-6 1 5-2 12-9 16 7-3 20-2 21 8 1 12-19 16-24 2" />
    </g>

    <g fill="#5BDB3B" opacity="0.16">
      <circle cx="1320" cy="120" r="7" />
      <circle cx="1380" cy="160" r="9" />
      <circle cx="1460" cy="90" r="6" />
      <circle cx="1540" cy="150" r="8" />
      <circle cx="1580" cy="90" r="9" />
      <circle cx="1420" cy="200" r="7" />
    </g>
  </g>
</svg>
