<?xml version="1.0" encoding="UTF-8"?>
<svg id="Calque_2" data-name="Calque 2" xmlns="http://www.w3.org/2000/svg" xmlns:xlink="http://www.w3.org/1999/xlink" viewBox="0 0 298.95 72.74">
  <defs>
    <style>
      .cls-1 {
        fill: url(#Dégradé_sans_nom_538);
      }

      .cls-2 {
        fill: #fff;
      }

      .cls-3 {
        filter: url(#drop-shadow-1);
      }
    </style>
    <filter id="drop-shadow-1" x="17.85" y="-62.37" width="355" height="198" filterUnits="userSpaceOnUse">
      <feOffset dx="0" dy="0"/>
      <feGaussianBlur result="blur" stdDeviation="24.34"/>
      <feFlood flood-color="#000" flood-opacity=".75"/>
      <feComposite in2="blur" operator="in"/>
      <feComposite in="SourceGraphic"/>
    </filter>
    <linearGradient id="Dégradé_sans_nom_538" data-name="Dégradé sans nom 538" x1="1.39" y1="1.39" x2="89.46" y2="89.46" gradientUnits="userSpaceOnUse">
      <stop offset=".03" stop-color="#00de9f"/>
      <stop offset=".27" stop-color="#00daa1"/>
      <stop offset=".5" stop-color="#00cea8"/>
      <stop offset=".74" stop-color="#00bab3"/>
      <stop offset=".96" stop-color="#00a1c2"/>
    </linearGradient>
  </defs>
  <g id="_00_-_Header" data-name="00 - Header">
    <g>
      <g class="cls-3">
        <g>
          <path class="cls-2" d="M110.83,22.23c-6.21,0-9.42,2.49-10.81,7.7h-.11l.33-7.26h-8.42v27.38h8.42v-13.02c0-5.21,2.66-7.81,7.09-7.81,3.71,0,5.93,1.72,5.93,5.6v15.24h8.42v-17.13c0-7.09-4.27-10.7-10.86-10.7Z"/>
          <path class="cls-2" d="M146.75,34.53c0,5.99-2.72,8.98-7.26,8.98-3.6,0-5.71-1.77-5.71-5.6v-15.24h-8.42v16.24c0,8.04,4.43,11.58,11.53,11.58,5.21,0,8.92-2.33,10.14-7.59h.11c-.06,2.99-.22,5.27-.39,7.15h8.42v-27.38h-8.42v11.86Z"/>
          <path class="cls-2" d="M180.72,26.72h-.06c-1.22-2.83-4.1-4.49-8.54-4.49-7.98,0-13.19,5.54-13.19,13.91s4.93,14.35,12.86,14.35c4.99,0,8.09-2.44,9.15-6.32h.11c-.17,2.94-.28,5.32-.33,5.88h8.42V11.64h-8.42v15.08ZM180.72,36.58c0,4.49-2.77,7.48-6.98,7.48-3.88,0-6.43-3.21-6.43-7.87s2.61-7.54,6.54-7.54,6.87,2.66,6.87,6.6v1.33Z"/>
          <path class="cls-2" d="M214.81,27.16h-.06c-1.16-3.1-3.99-4.93-8.59-4.93-7.48,0-13.19,5.54-13.19,13.8,0,8.7,4.93,14.47,12.91,14.47,4.93,0,7.87-2.33,8.81-5.93h.06v4.21c0,5.43-2.49,7.26-6.65,7.26-3.33,0-5.65-1.27-5.65-3.44,0-.11,0-.39.06-.83h-7.76c-.06.28-.11.89-.11,1.16,0,5.71,5.32,8.98,13.47,8.98,10.03,0,15.08-5.38,15.08-14.52v-24.72h-8.37v4.49ZM214.75,36.64c0,4.43-2.77,7.43-6.98,7.43-3.88,0-6.43-3.21-6.43-7.98,0-4.43,2.66-7.43,6.6-7.43s6.82,2.66,6.82,6.6v1.39Z"/>
          <path class="cls-2" d="M266.85,31.09h-.11l.33-8.43h-8.43v27.38h8.43v-8.31c0-7.65,2.72-12.42,9.09-12.42,1.5,0,2.72.28,3.66.55v-6.93c-.72-.22-1.94-.61-3.94-.61-4.99,0-7.98,2.55-9.04,8.76Z"/>
          <path class="cls-2" d="M293.72,18.62v-.05c1.21,0,1.84-.58,1.84-1.65,0-1.62-1.08-2.22-2.44-2.22h-3.38v6.91h1.42v-2.61h1.45c.7.01.79.33.91.68l.67,1.93h1.54l-.73-2.08c-.26-.73-.86-.83-1.27-.9ZM292.6,18.07h-1.45v-2.21h1.52c.86,0,1.5.17,1.5,1.06,0,.99-.68,1.15-1.58,1.15Z"/>
          <path class="cls-2" d="M292.44,11.63c-3.59,0-6.51,2.92-6.51,6.51s2.92,6.51,6.51,6.51,6.51-2.92,6.51-6.51-2.92-6.51-6.51-6.51ZM292.44,23.49c-2.95,0-5.35-2.39-5.35-5.35s2.39-5.35,5.35-5.35,5.35,2.39,5.35,5.35-2.39,5.35-5.35,5.35Z"/>
          <path class="cls-2" d="M241.91,22.23c-9.26,0-14.91,5.38-14.91,14.41s5.65,13.86,14.74,13.86c7.72,0,12.89-3.57,13.18-9.69h.01s0-1.22,0-1.22l-7.43.99c-.22,2.66-2.35,4.18-5.62,4.18-3.72,0-5.7-1.97-6.29-5.83l19.34-2.44v-.9c0-8.98-5.38-13.36-13.02-13.36ZM241.79,27.59c3.01,0,5.12,1.93,5.61,4.25l-11.69,1.64c.67-3.6,2.53-5.89,6.08-5.89Z"/>
        </g>
      </g>
      <path class="cls-1" d="M42.81,64.45h-6.26c-15.61,0-28.26-12.65-28.26-28.26V8.29h27.9c15.61,0,28.26,12.65,28.26,28.26v21.05l-8.72-8.72v-12.41c0-10.74-8.71-19.45-19.45-19.45h-19.26v19.15c0,2.63,2.04,4.86,4.67,4.96,2.76.1,5.02-2.11,5.02-4.84v-9.58h9.58c5.39,0,9.76,4.37,9.76,9.76v14.43c0,1.28.51,2.5,1.41,3.4l17.34,17.34c.69.69,1.71.91,2.62.56,3.12-1.19,5.34-4.21,5.34-7.75v-27.53c0-9.88-3.83-19.42-10.86-26.36C55,3.75,45.88,0,36.19,0H8.29C3.71,0,0,3.71,0,8.29v27.53c0,9.88,3.83,19.42,10.86,26.36,6.88,6.81,16,10.55,25.69,10.55h13.83c1.2,0,1.8-1.45.95-2.3l-4.2-4.2c-1.15-1.15-2.7-1.79-4.33-1.79Z"/>
    </g>
  </g>
</svg>