<?xml version="1.0" encoding="UTF-8"?>
<svg id="Calque_2" data-name="Calque 2" xmlns="http://www.w3.org/2000/svg" xmlns:xlink="http://www.w3.org/1999/xlink" viewBox="0 0 72.74 72.74">
  <defs>
    <style>
      .cls-1 {
        fill: url(#Dégradé_sans_nom_538);
      }
    </style>
    <linearGradient id="Dégradé_sans_nom_538" data-name="Dégradé sans nom 538" x1="1.39" y1="1.39" x2="89.46" y2="89.46" gradientUnits="userSpaceOnUse">
      <stop offset=".03" stop-color="#00de9f"/>
      <stop offset=".27" stop-color="#00daa1"/>
      <stop offset=".5" stop-color="#00cea8"/>
      <stop offset=".74" stop-color="#00bab3"/>
      <stop offset=".96" stop-color="#00a1c2"/>
    </linearGradient>
  </defs>
  <g id="_00_-_Header" data-name="00 - Header">
    <path class="cls-1" d="M42.81,64.45h-6.26c-15.61,0-28.26-12.65-28.26-28.26V8.29h27.9c15.61,0,28.26,12.65,28.26,28.26v21.05l-8.72-8.72v-12.41c0-10.74-8.71-19.45-19.45-19.45h-19.26v19.15c0,2.63,2.04,4.86,4.67,4.96,2.76.1,5.02-2.11,5.02-4.84v-9.58h9.58c5.39,0,9.76,4.37,9.76,9.76v14.43c0,1.28.51,2.5,1.41,3.4l17.34,17.34c.69.69,1.71.91,2.62.56,3.12-1.19,5.34-4.21,5.34-7.75v-27.53c0-9.88-3.83-19.42-10.86-26.36C55,3.75,45.88,0,36.19,0H8.29C3.71,0,0,3.71,0,8.29v27.53c0,9.88,3.83,19.42,10.86,26.36,6.88,6.81,16,10.55,25.69,10.55h13.83c1.2,0,1.8-1.45.95-2.3l-4.2-4.2c-1.15-1.15-2.7-1.79-4.33-1.79Z"/>
  </g>
</svg>