<?xml version="1.0" encoding="UTF-8"?>
<svg id="Calque_2" data-name="Calque 2" xmlns="http://www.w3.org/2000/svg" xmlns:xlink="http://www.w3.org/1999/xlink" viewBox="0 0 299.53 72.88">
  <defs>
    <style>
      .cls-1 {
        fill: url(#Dégradé_sans_nom_538);
      }

      .cls-2 {
        fill: #004b64;
      }
    </style>
    <linearGradient id="Dégradé_sans_nom_538" data-name="Dégradé sans nom 538" x1="1.4" y1="1.4" x2="89.63" y2="89.63" gradientUnits="userSpaceOnUse">
      <stop offset=".03" stop-color="#00de9f"/>
      <stop offset=".27" stop-color="#00daa1"/>
      <stop offset=".5" stop-color="#00cea8"/>
      <stop offset=".74" stop-color="#00bab3"/>
      <stop offset=".96" stop-color="#00a1c2"/>
    </linearGradient>
  </defs>
  <g id="_00_-_Menu" data-name="00 - Menu">
    <g>
      <path class="cls-1" d="M42.89,64.57h-6.27c-15.64,0-28.31-12.68-28.31-28.31V8.31h27.96c15.64,0,28.31,12.68,28.31,28.31v21.09l-8.74-8.74v-12.44c0-10.76-8.72-19.48-19.48-19.48h-19.3v19.19c0,2.63,2.05,4.87,4.68,4.97,2.76.1,5.03-2.11,5.03-4.85v-9.59h9.59c5.4,0,9.78,4.38,9.78,9.78v14.46c0,1.28.51,2.51,1.41,3.41l17.37,17.37c.69.69,1.71.91,2.62.57,3.13-1.19,5.35-4.22,5.35-7.76v-27.59c0-9.89-3.84-19.46-10.88-26.41C55.1,3.75,45.97,0,36.26,0H8.31C3.72,0,0,3.72,0,8.31v27.59c0,9.89,3.84,19.46,10.88,26.41,6.9,6.82,16.03,10.57,25.74,10.57h13.86c1.2,0,1.81-1.45.95-2.3l-4.21-4.21c-1.15-1.15-2.71-1.79-4.33-1.79Z"/>
      <g>
        <path class="cls-2" d="M111.05,22.27c-6.22,0-9.44,2.5-10.83,7.72h-.11l.33-7.27h-8.44v27.43h8.44v-13.05c0-5.22,2.67-7.83,7.11-7.83,3.72,0,5.94,1.72,5.94,5.61v15.27h8.44v-17.16c0-7.11-4.28-10.72-10.88-10.72Z"/>
        <path class="cls-2" d="M147.03,34.6c0,6-2.72,9-7.27,9-3.61,0-5.72-1.78-5.72-5.61v-15.27h-8.44v16.27c0,8.05,4.44,11.61,11.55,11.61,5.22,0,8.94-2.33,10.16-7.61h.11c-.06,3-.22,5.28-.39,7.16h8.44v-27.43h-8.44v11.88Z"/>
        <path class="cls-2" d="M181.07,26.77h-.06c-1.22-2.83-4.11-4.5-8.55-4.5-8,0-13.22,5.55-13.22,13.94s4.94,14.38,12.88,14.38c5,0,8.11-2.44,9.16-6.33h.11c-.17,2.94-.28,5.33-.33,5.89h8.44V11.66h-8.44v15.1ZM181.07,36.65c0,4.5-2.78,7.5-7,7.5-3.89,0-6.44-3.22-6.44-7.89s2.61-7.55,6.55-7.55,6.89,2.67,6.89,6.61v1.33Z"/>
        <path class="cls-2" d="M215.22,27.21h-.06c-1.17-3.11-4-4.94-8.61-4.94-7.5,0-13.22,5.55-13.22,13.83,0,8.72,4.94,14.49,12.94,14.49,4.94,0,7.89-2.33,8.83-5.94h.06v4.22c0,5.44-2.5,7.27-6.66,7.27-3.33,0-5.66-1.28-5.66-3.44,0-.11,0-.39.06-.83h-7.77c-.06.28-.11.89-.11,1.17,0,5.72,5.33,9,13.49,9,10.05,0,15.1-5.39,15.1-14.55v-24.77h-8.39v4.5ZM215.17,36.71c0,4.44-2.78,7.44-7,7.44-3.89,0-6.44-3.22-6.44-8,0-4.44,2.67-7.44,6.61-7.44s6.83,2.67,6.83,6.61v1.39Z"/>
        <path class="cls-2" d="M267.37,31.15h-.11l.33-8.44h-8.44v27.44h8.44v-8.33c0-7.66,2.72-12.44,9.11-12.44,1.5,0,2.72.28,3.67.56v-6.94c-.72-.22-1.94-.61-3.94-.61-5,0-8,2.55-9.05,8.78Z"/>
        <path class="cls-2" d="M294.28,18.65v-.05c1.21,0,1.84-.58,1.84-1.65,0-1.62-1.08-2.23-2.44-2.23h-3.39v6.92h1.43v-2.62h1.45c.7.01.79.34.91.68l.67,1.94h1.55l-.74-2.09c-.26-.74-.87-.83-1.28-.9ZM293.17,18.1h-1.45v-2.22h1.52c.87,0,1.5.17,1.5,1.06,0,.99-.68,1.16-1.58,1.16Z"/>
        <path class="cls-2" d="M293,11.65c-3.6,0-6.53,2.93-6.53,6.53s2.93,6.53,6.53,6.53,6.53-2.93,6.53-6.53-2.93-6.53-6.53-6.53ZM293,23.53c-2.96,0-5.36-2.4-5.36-5.36s2.4-5.36,5.36-5.36,5.36,2.4,5.36,5.36-2.4,5.36-5.36,5.36Z"/>
        <path class="cls-2" d="M242.38,22.27c-9.27,0-14.94,5.39-14.94,14.44s5.66,13.88,14.77,13.88c7.73,0,12.92-3.58,13.2-9.71h.01s0-1.22,0-1.22l-7.44.99c-.22,2.67-2.36,4.19-5.63,4.19-3.73,0-5.72-1.98-6.3-5.84l19.37-2.44v-.91c0-9-5.39-13.38-13.05-13.38ZM242.25,27.65c3.02,0,5.13,1.93,5.62,4.26l-11.71,1.64c.67-3.61,2.54-5.9,6.09-5.9Z"/>
      </g>
    </g>
  </g>
</svg>