<svg xmlns="http://www.w3.org/2000/svg" width="1600" height="800" viewBox="0 0 1600 800" preserveAspectRatio="xMidYMid slice">
  <defs>
    <linearGradient id="bg" x1="0" y1="0" x2="1" y2="0" gradientUnits="objectBoundingBox" gradientTransform="rotate(25 0.5 0.5)">
      <stop offset="0" stop-color="#00DE9F"/>
      <stop offset="0.52" stop-color="#00A1C2"/>
      <stop offset="1" stop-color="#0088D6"/>
    </linearGradient>

    <radialGradient id="glow-soft" cx="50%" cy="50%" r="60%">
      <stop offset="0" stop-color="#F4F4F4" stop-opacity="0.22"/>
      <stop offset="1" stop-color="#F4F4F4" stop-opacity="0"/>
    </radialGradient>

    <radialGradient id="orb-red" cx="35%" cy="30%" r="70%">
      <stop offset="0" stop-color="#F4F4F4" stop-opacity="0.55"/>
      <stop offset="0.22" stop-color="#FF8479" stop-opacity="0.85"/>
      <stop offset="1" stop-color="#FF8479" stop-opacity="0.10"/>
    </radialGradient>

    <radialGradient id="orb-green" cx="35%" cy="30%" r="70%">
      <stop offset="0" stop-color="#F4F4F4" stop-opacity="0.55"/>
      <stop offset="0.22" stop-color="#5BDB3B" stop-opacity="0.85"/>
      <stop offset="1" stop-color="#5BDB3B" stop-opacity="0.10"/>
    </radialGradient>

    <filter id="blur16" x="-20%" y="-20%" width="140%" height="140%">
      <feGaussianBlur stdDeviation="16"/>
    </filter>
    <filter id="blur10" x="-20%" y="-20%" width="140%" height="140%">
      <feGaussianBlur stdDeviation="10"/>
    </filter>
  </defs>

  <rect width="1600" height="800" fill="url(#bg)"/>
  <!-- christmas/blog-background.svg -->
  <g>
    <circle cx="212" cy="486" r="320" fill="url(#glow-soft)" opacity="0.18" filter="url(#blur16)"/>
    <circle cx="1373" cy="210" r="290" fill="url(#glow-soft)" opacity="0.15" filter="url(#blur16)"/>
    <circle cx="1420" cy="680" r="150" fill="none" stroke="#FF8479" stroke-opacity="0.13" stroke-width="1.3"/>
    <circle cx="1420" cy="680" r="220" fill="none" stroke="#FF8479" stroke-opacity="0.11" stroke-width="1.3"/>
    <circle cx="1420" cy="680" r="290" fill="none" stroke="#FF8479" stroke-opacity="0.09" stroke-width="1.3"/>
    <circle cx="120" cy="120" r="60" fill="url(#orb-red)" opacity="0.85"/>
    <circle cx="106" cy="106" r="10" fill="#F4F4F4" opacity="0.32"/>
    <path d="M -40 680 C 220 620 480 560 740 620 C 980 674 1210 720 1660 650" fill="none" stroke="#F4F4F4" stroke-opacity="0.10" stroke-width="8" stroke-linecap="round"/>
    <circle cx="1485" cy="413" r="4.4" fill="#F4F4F4" opacity="0.16"/>
    <circle cx="524" cy="739" r="3.6" fill="#F4F4F4" opacity="0.11"/>
    <circle cx="1502" cy="293" r="4.3" fill="#F4F4F4" opacity="0.17"/>
    <circle cx="262" cy="101" r="3.9" fill="#F4F4F4" opacity="0.12"/>
    <circle cx="811" cy="740" r="3.2" fill="#F4F4F4" opacity="0.11"/>
    <circle cx="265" cy="32" r="2.9" fill="#F4F4F4" opacity="0.10"/>
    <circle cx="847" cy="66" r="4.2" fill="#F4F4F4" opacity="0.16"/>
    <circle cx="646" cy="755" r="3.9" fill="#F4F4F4" opacity="0.11"/>
    <circle cx="182" cy="529" r="3.9" fill="#F4F4F4" opacity="0.12"/>
    <circle cx="725" cy="752" r="2.8" fill="#F4F4F4" opacity="0.11"/>
    <circle cx="666" cy="21" r="3.4" fill="#F4F4F4" opacity="0.10"/>
    <circle cx="179" cy="723" r="2.6" fill="#F4F4F4" opacity="0.17"/>
  </g>

</svg>
