<svg xmlns="http://www.w3.org/2000/svg" width="1600" height="800" viewBox="0 0 1600 800" preserveAspectRatio="xMidYMid slice">
  <defs>
    <linearGradient id="bg" x1="0" y1="0" x2="1" y2="0" gradientUnits="objectBoundingBox" gradientTransform="rotate(25 0.5 0.5)">
      <stop offset="0" stop-color="#00DE9F"/>
      <stop offset="0.52" stop-color="#00A1C2"/>
      <stop offset="1" stop-color="#0088D6"/>
    </linearGradient>

    <radialGradient id="glow-soft" cx="50%" cy="50%" r="60%">
      <stop offset="0" stop-color="#F4F4F4" stop-opacity="0.22"/>
      <stop offset="1" stop-color="#F4F4F4" stop-opacity="0"/>
    </radialGradient>

    <radialGradient id="orb-red" cx="35%" cy="30%" r="70%">
      <stop offset="0" stop-color="#F4F4F4" stop-opacity="0.55"/>
      <stop offset="0.22" stop-color="#FF8479" stop-opacity="0.85"/>
      <stop offset="1" stop-color="#FF8479" stop-opacity="0.10"/>
    </radialGradient>

    <radialGradient id="orb-green" cx="35%" cy="30%" r="70%">
      <stop offset="0" stop-color="#F4F4F4" stop-opacity="0.55"/>
      <stop offset="0.22" stop-color="#5BDB3B" stop-opacity="0.85"/>
      <stop offset="1" stop-color="#5BDB3B" stop-opacity="0.10"/>
    </radialGradient>

    <filter id="blur16" x="-20%" y="-20%" width="140%" height="140%">
      <feGaussianBlur stdDeviation="16"/>
    </filter>
    <filter id="blur10" x="-20%" y="-20%" width="140%" height="140%">
      <feGaussianBlur stdDeviation="10"/>
    </filter>
  </defs>

  <rect width="1600" height="800" fill="url(#bg)"/>
  <!-- christmas/categories-background.svg -->
  <g>
    <circle cx="169" cy="516" r="320" fill="url(#glow-soft)" opacity="0.18" filter="url(#blur16)"/>
    <circle cx="1406" cy="226" r="290" fill="url(#glow-soft)" opacity="0.15" filter="url(#blur16)"/>
    <circle cx="1420" cy="680" r="150" fill="none" stroke="#FF8479" stroke-opacity="0.13" stroke-width="1.3"/>
    <circle cx="1420" cy="680" r="220" fill="none" stroke="#FF8479" stroke-opacity="0.11" stroke-width="1.3"/>
    <circle cx="1420" cy="680" r="290" fill="none" stroke="#FF8479" stroke-opacity="0.09" stroke-width="1.3"/>
    <circle cx="120" cy="120" r="60" fill="url(#orb-green)" opacity="0.85"/>
    <circle cx="106" cy="106" r="10" fill="#F4F4F4" opacity="0.32"/>
    <rect x="60" y="610" width="180" height="22" rx="11" fill="#F4F4F4" opacity="0.14"/>
    <rect x="60" y="646" width="150" height="22" rx="11" fill="#F4F4F4" opacity="0.14"/>
    <rect x="60" y="682" width="120" height="22" rx="11" fill="#F4F4F4" opacity="0.14"/>
    <circle cx="162" cy="161" r="4.3" fill="#F4F4F4" opacity="0.10"/>
    <circle cx="214" cy="399" r="4.4" fill="#F4F4F4" opacity="0.12"/>
    <circle cx="1389" cy="208" r="3.5" fill="#F4F4F4" opacity="0.17"/>
    <circle cx="70" cy="54" r="3.8" fill="#F4F4F4" opacity="0.14"/>
    <circle cx="809" cy="20" r="3.9" fill="#F4F4F4" opacity="0.17"/>
    <circle cx="418" cy="76" r="3.1" fill="#F4F4F4" opacity="0.16"/>
    <circle cx="1393" cy="54" r="4.1" fill="#F4F4F4" opacity="0.12"/>
    <circle cx="50" cy="156" r="2.7" fill="#F4F4F4" opacity="0.13"/>
    <circle cx="1458" cy="287" r="3.2" fill="#F4F4F4" opacity="0.14"/>
    <circle cx="370" cy="108" r="3.3" fill="#F4F4F4" opacity="0.12"/>
    <circle cx="102" cy="70" r="3.2" fill="#F4F4F4" opacity="0.12"/>
    <circle cx="1046" cy="70" r="3.8" fill="#F4F4F4" opacity="0.10"/>
  </g>

</svg>
