<svg xmlns="http://www.w3.org/2000/svg" width="1600" height="800" viewBox="0 0 1600 800" preserveAspectRatio="xMidYMid slice">
  <defs>
    <linearGradient id="bg" x1="0" y1="0" x2="1" y2="0" gradientUnits="objectBoundingBox" gradientTransform="rotate(25 0.5 0.5)">
      <stop offset="0" stop-color="#00DE9F"/>
      <stop offset="0.52" stop-color="#00A1C2"/>
      <stop offset="1" stop-color="#0088D6"/>
    </linearGradient>

    <radialGradient id="glow-soft" cx="50%" cy="50%" r="60%">
      <stop offset="0" stop-color="#F4F4F4" stop-opacity="0.22"/>
      <stop offset="1" stop-color="#F4F4F4" stop-opacity="0"/>
    </radialGradient>

    <radialGradient id="orb-red" cx="35%" cy="30%" r="70%">
      <stop offset="0" stop-color="#F4F4F4" stop-opacity="0.55"/>
      <stop offset="0.22" stop-color="#FF8479" stop-opacity="0.85"/>
      <stop offset="1" stop-color="#FF8479" stop-opacity="0.10"/>
    </radialGradient>

    <radialGradient id="orb-green" cx="35%" cy="30%" r="70%">
      <stop offset="0" stop-color="#F4F4F4" stop-opacity="0.55"/>
      <stop offset="0.22" stop-color="#5BDB3B" stop-opacity="0.85"/>
      <stop offset="1" stop-color="#5BDB3B" stop-opacity="0.10"/>
    </radialGradient>

    <filter id="blur16" x="-20%" y="-20%" width="140%" height="140%">
      <feGaussianBlur stdDeviation="16"/>
    </filter>
    <filter id="blur10" x="-20%" y="-20%" width="140%" height="140%">
      <feGaussianBlur stdDeviation="10"/>
    </filter>
  </defs>

  <rect width="1600" height="800" fill="url(#bg)"/>
  <!-- christmas/contact-background.svg -->
  <g>
    <circle cx="164" cy="544" r="320" fill="url(#glow-soft)" opacity="0.18" filter="url(#blur16)"/>
    <circle cx="1445" cy="260" r="290" fill="url(#glow-soft)" opacity="0.15" filter="url(#blur16)"/>
    <circle cx="1420" cy="680" r="150" fill="none" stroke="#FF8479" stroke-opacity="0.13" stroke-width="1.3"/>
    <circle cx="1420" cy="680" r="220" fill="none" stroke="#FF8479" stroke-opacity="0.11" stroke-width="1.3"/>
    <circle cx="1420" cy="680" r="290" fill="none" stroke="#FF8479" stroke-opacity="0.09" stroke-width="1.3"/>
    <circle cx="120" cy="120" r="60" fill="url(#orb-red)" opacity="0.85"/>
    <circle cx="106" cy="106" r="10" fill="#F4F4F4" opacity="0.32"/>
    <circle cx="64" cy="195" r="6.4" fill="#F4F4F4" opacity="0.14"/>
    <circle cx="57" cy="267" r="7.0" fill="#F4F4F4" opacity="0.14"/>
    <circle cx="55" cy="343" r="4.1" fill="#F4F4F4" opacity="0.14"/>
    <circle cx="56" cy="416" r="6.8" fill="#F4F4F4" opacity="0.14"/>
    <circle cx="55" cy="481" r="6.4" fill="#F4F4F4" opacity="0.14"/>
    <circle cx="63" cy="550" r="6.2" fill="#F4F4F4" opacity="0.14"/>
    <circle cx="68" cy="618" r="4.3" fill="#F4F4F4" opacity="0.14"/>
    <circle cx="1519" cy="327" r="3.8" fill="#F4F4F4" opacity="0.16"/>
    <circle cx="110" cy="387" r="3.4" fill="#F4F4F4" opacity="0.16"/>
    <circle cx="444" cy="95" r="4.0" fill="#F4F4F4" opacity="0.11"/>
    <circle cx="189" cy="571" r="2.8" fill="#F4F4F4" opacity="0.15"/>
    <circle cx="44" cy="74" r="2.5" fill="#F4F4F4" opacity="0.15"/>
    <circle cx="192" cy="63" r="2.9" fill="#F4F4F4" opacity="0.16"/>
    <circle cx="72" cy="255" r="3.7" fill="#F4F4F4" opacity="0.17"/>
    <circle cx="1440" cy="693" r="2.8" fill="#F4F4F4" opacity="0.14"/>
    <circle cx="972" cy="704" r="3.5" fill="#F4F4F4" opacity="0.14"/>
    <circle cx="1420" cy="548" r="3.1" fill="#F4F4F4" opacity="0.15"/>
    <circle cx="1548" cy="736" r="4.0" fill="#F4F4F4" opacity="0.17"/>
    <circle cx="1317" cy="94" r="2.9" fill="#F4F4F4" opacity="0.16"/>
  </g>

</svg>
