<svg xmlns="http://www.w3.org/2000/svg" width="1600" height="800" viewBox="0 0 1600 800" preserveAspectRatio="xMidYMid slice">
  <defs>
    <linearGradient id="bg" x1="0" y1="0" x2="1" y2="0" gradientUnits="objectBoundingBox" gradientTransform="rotate(25 0.5 0.5)">
      <stop offset="0" stop-color="#00DE9F"/>
      <stop offset="0.52" stop-color="#00A1C2"/>
      <stop offset="1" stop-color="#0088D6"/>
    </linearGradient>

    <radialGradient id="glow-soft" cx="50%" cy="50%" r="60%">
      <stop offset="0" stop-color="#F4F4F4" stop-opacity="0.22"/>
      <stop offset="1" stop-color="#F4F4F4" stop-opacity="0"/>
    </radialGradient>

    <radialGradient id="orb-red" cx="35%" cy="30%" r="70%">
      <stop offset="0" stop-color="#F4F4F4" stop-opacity="0.55"/>
      <stop offset="0.22" stop-color="#FF8479" stop-opacity="0.85"/>
      <stop offset="1" stop-color="#FF8479" stop-opacity="0.10"/>
    </radialGradient>

    <radialGradient id="orb-green" cx="35%" cy="30%" r="70%">
      <stop offset="0" stop-color="#F4F4F4" stop-opacity="0.55"/>
      <stop offset="0.22" stop-color="#5BDB3B" stop-opacity="0.85"/>
      <stop offset="1" stop-color="#5BDB3B" stop-opacity="0.10"/>
    </radialGradient>

    <filter id="blur16" x="-20%" y="-20%" width="140%" height="140%">
      <feGaussianBlur stdDeviation="16"/>
    </filter>
    <filter id="blur10" x="-20%" y="-20%" width="140%" height="140%">
      <feGaussianBlur stdDeviation="10"/>
    </filter>
  </defs>

  <rect width="1600" height="800" fill="url(#bg)"/>
  <!-- christmas/hero-background.svg -->
  <g opacity="1">
    <circle cx="220" cy="520" r="320" fill="url(#glow-soft)" opacity="0.18" filter="url(#blur16)"/>
    <circle cx="1460" cy="220" r="300" fill="url(#glow-soft)" opacity="0.16" filter="url(#blur16)"/>
    <ellipse cx="820" cy="780" rx="440" ry="170" fill="url(#glow-soft)" opacity="0.12" filter="url(#blur16)"/>
    <circle cx="1380" cy="150" r="140" fill="none" stroke="#FF8479" stroke-opacity="0.14" stroke-width="1.35"/>
    <circle cx="1380" cy="150" r="210" fill="none" stroke="#FF8479" stroke-opacity="0.12" stroke-width="1.35"/>
    <circle cx="1380" cy="150" r="280" fill="none" stroke="#FF8479" stroke-opacity="0.1" stroke-width="1.35"/>
    <circle cx="1380" cy="150" r="350" fill="none" stroke="#FF8479" stroke-opacity="0.08" stroke-width="1.35"/>
    <circle cx="220" cy="700" r="120" fill="none" stroke="#5BDB3B" stroke-opacity="0.12" stroke-width="1.35"/>
    <circle cx="220" cy="700" r="190" fill="none" stroke="#5BDB3B" stroke-opacity="0.1" stroke-width="1.35"/>
    <circle cx="220" cy="700" r="260" fill="none" stroke="#5BDB3B" stroke-opacity="0.08" stroke-width="1.35"/>
    <path d="M -60 140 C 220 40 520 30 820 90 C 1120 150 1360 110 1660 10" fill="none" stroke="#F4F4F4" stroke-opacity="0.10" stroke-width="8" stroke-linecap="round"/>
    <circle cx="120" cy="120" r="62" fill="url(#orb-red)" opacity="0.85"/>
    <circle cx="106.4" cy="106.4" r="9.9" fill="#F4F4F4" opacity="0.35"/>
    <path d="M112.6 60.5 h14.9" stroke="#F4F4F4" stroke-opacity="0.22" stroke-width="1.4" stroke-linecap="round"/>
    <circle cx="1510" cy="690" r="78" fill="url(#orb-green)" opacity="0.85"/>
    <circle cx="1492.8" cy="672.8" r="12.5" fill="#F4F4F4" opacity="0.35"/>
    <path d="M1500.6 615.1 h18.7" stroke="#F4F4F4" stroke-opacity="0.22" stroke-width="1.4" stroke-linecap="round"/>
    <circle cx="1500" cy="110" r="42" fill="url(#orb-red)" opacity="0.85"/>
    <circle cx="1490.8" cy="100.8" r="6.7" fill="#F4F4F4" opacity="0.35"/>
    <path d="M1495.0 69.7 h10.1" stroke="#F4F4F4" stroke-opacity="0.22" stroke-width="1.4" stroke-linecap="round"/>
    <rect x="60" y="620" width="170" height="110" rx="22" fill="#F4F4F4" opacity="0.18"/>
    <rect x="1360" y="520" width="190" height="120" rx="24" fill="#F4F4F4" opacity="0.17"/>
    <rect x="1388" y="520" width="14" height="120" fill="#FF8479" opacity="0.22"/>
    <rect x="1360" y="572" width="190" height="14" fill="#5BDB3B" opacity="0.18"/>
    <circle cx="300" cy="70" r="4" fill="#F4F4F4" opacity="0.16"/>
    <circle cx="318" cy="80" r="2.8" fill="#F4F4F4" opacity="0.12"/>
    <circle cx="520" cy="40" r="4" fill="#F4F4F4" opacity="0.16"/>
    <circle cx="538" cy="50" r="2.8" fill="#F4F4F4" opacity="0.12"/>
    <circle cx="1240" cy="60" r="4" fill="#F4F4F4" opacity="0.16"/>
    <circle cx="1258" cy="70" r="2.8" fill="#F4F4F4" opacity="0.12"/>
    <circle cx="1540" cy="260" r="4" fill="#F4F4F4" opacity="0.16"/>
    <circle cx="1558" cy="270" r="2.8" fill="#F4F4F4" opacity="0.12"/>
    <circle cx="80" cy="300" r="4" fill="#F4F4F4" opacity="0.16"/>
    <circle cx="98" cy="310" r="2.8" fill="#F4F4F4" opacity="0.12"/>
    <circle cx="1520" cy="420" r="4" fill="#F4F4F4" opacity="0.16"/>
    <circle cx="1538" cy="430" r="2.8" fill="#F4F4F4" opacity="0.12"/>
    <circle cx="90" cy="760" r="4" fill="#F4F4F4" opacity="0.16"/>
    <circle cx="108" cy="770" r="2.8" fill="#F4F4F4" opacity="0.12"/>
    <circle cx="1560" cy="740" r="4" fill="#F4F4F4" opacity="0.16"/>
    <circle cx="1578" cy="750" r="2.8" fill="#F4F4F4" opacity="0.12"/>
    <path d="M150 70 l18 0 m-9 -9 l0 18 m-14 -14 l14 14 m0 -14 l-14 14" stroke="#F4F4F4" stroke-opacity="0.18" stroke-width="1.2" stroke-linecap="round"/>
    <path d="M1450 730 l20 0 m-10 -10 l0 20 m-16 -16 l16 16 m0 -16 l-16 16" stroke="#F4F4F4" stroke-opacity="0.16" stroke-width="1.2" stroke-linecap="round"/>
  </g>

</svg>
