<svg xmlns="http://www.w3.org/2000/svg" width="1600" height="800" viewBox="0 0 1600 800" preserveAspectRatio="xMidYMid slice">
  <defs>
    <linearGradient id="bg" x1="0" y1="0" x2="1" y2="0" gradientUnits="objectBoundingBox" gradientTransform="rotate(25 0.5 0.5)">
      <stop offset="0" stop-color="#00DE9F"/>
      <stop offset="0.52" stop-color="#00A1C2"/>
      <stop offset="1" stop-color="#0088D6"/>
    </linearGradient>

    <radialGradient id="glow-soft" cx="50%" cy="50%" r="60%">
      <stop offset="0" stop-color="#F4F4F4" stop-opacity="0.22"/>
      <stop offset="1" stop-color="#F4F4F4" stop-opacity="0"/>
    </radialGradient>

    <radialGradient id="orb-red" cx="35%" cy="30%" r="70%">
      <stop offset="0" stop-color="#F4F4F4" stop-opacity="0.55"/>
      <stop offset="0.22" stop-color="#FF8479" stop-opacity="0.85"/>
      <stop offset="1" stop-color="#FF8479" stop-opacity="0.10"/>
    </radialGradient>

    <radialGradient id="orb-green" cx="35%" cy="30%" r="70%">
      <stop offset="0" stop-color="#F4F4F4" stop-opacity="0.55"/>
      <stop offset="0.22" stop-color="#5BDB3B" stop-opacity="0.85"/>
      <stop offset="1" stop-color="#5BDB3B" stop-opacity="0.10"/>
    </radialGradient>

    <filter id="blur16" x="-20%" y="-20%" width="140%" height="140%">
      <feGaussianBlur stdDeviation="16"/>
    </filter>
    <filter id="blur10" x="-20%" y="-20%" width="140%" height="140%">
      <feGaussianBlur stdDeviation="10"/>
    </filter>
  </defs>

  <rect width="1600" height="800" fill="url(#bg)"/>
  <!-- christmas/open-source-background.svg -->
  <g>
    <circle cx="198" cy="491" r="320" fill="url(#glow-soft)" opacity="0.18" filter="url(#blur16)"/>
    <circle cx="1480" cy="168" r="290" fill="url(#glow-soft)" opacity="0.15" filter="url(#blur16)"/>
    <circle cx="1380" cy="150" r="150" fill="none" stroke="#5BDB3B" stroke-opacity="0.13" stroke-width="1.3"/>
    <circle cx="1380" cy="150" r="220" fill="none" stroke="#5BDB3B" stroke-opacity="0.11" stroke-width="1.3"/>
    <circle cx="1380" cy="150" r="290" fill="none" stroke="#5BDB3B" stroke-opacity="0.09" stroke-width="1.3"/>
    <circle cx="120" cy="120" r="60" fill="url(#orb-red)" opacity="0.85"/>
    <circle cx="106" cy="106" r="10" fill="#F4F4F4" opacity="0.32"/>
    <path d="M 70 720 C 180 660 240 700 330 640 C 420 580 500 600 610 520" fill="none" stroke="#F4F4F4" stroke-opacity="0.12" stroke-width="3" stroke-linecap="round"/>
    <circle cx="70" cy="720" r="10" fill="#5BDB3B" opacity="0.12"/>
    <circle cx="330" cy="640" r="10" fill="#5BDB3B" opacity="0.12"/>
    <circle cx="610" cy="520" r="10" fill="#5BDB3B" opacity="0.12"/>
    <circle cx="1479" cy="729" r="3.9" fill="#F4F4F4" opacity="0.15"/>
    <circle cx="1531" cy="31" r="3.7" fill="#F4F4F4" opacity="0.13"/>
    <circle cx="234" cy="738" r="4.3" fill="#F4F4F4" opacity="0.12"/>
    <circle cx="92" cy="719" r="4.0" fill="#F4F4F4" opacity="0.14"/>
    <circle cx="140" cy="472" r="4.1" fill="#F4F4F4" opacity="0.13"/>
    <circle cx="567" cy="66" r="4.0" fill="#F4F4F4" opacity="0.13"/>
    <circle cx="174" cy="103" r="4.1" fill="#F4F4F4" opacity="0.12"/>
    <circle cx="1099" cy="709" r="4.5" fill="#F4F4F4" opacity="0.10"/>
    <circle cx="1427" cy="679" r="4.1" fill="#F4F4F4" opacity="0.16"/>
    <circle cx="1568" cy="340" r="3.7" fill="#F4F4F4" opacity="0.11"/>
    <circle cx="672" cy="36" r="4.0" fill="#F4F4F4" opacity="0.16"/>
    <circle cx="482" cy="699" r="4.0" fill="#F4F4F4" opacity="0.10"/>
  </g>

</svg>
