<svg xmlns="http://www.w3.org/2000/svg" width="1600" height="800" viewBox="0 0 1600 800" preserveAspectRatio="xMidYMid slice">
  <defs>
    <linearGradient id="bg" x1="0" y1="0" x2="1" y2="0" gradientUnits="objectBoundingBox" gradientTransform="rotate(25 0.5 0.5)">
      <stop offset="0" stop-color="#00DE9F"/>
      <stop offset="0.52" stop-color="#00A1C2"/>
      <stop offset="1" stop-color="#0088D6"/>
    </linearGradient>

    <radialGradient id="glow-soft" cx="50%" cy="50%" r="60%">
      <stop offset="0" stop-color="#F4F4F4" stop-opacity="0.22"/>
      <stop offset="1" stop-color="#F4F4F4" stop-opacity="0"/>
    </radialGradient>

    <radialGradient id="orb-red" cx="35%" cy="30%" r="70%">
      <stop offset="0" stop-color="#F4F4F4" stop-opacity="0.55"/>
      <stop offset="0.22" stop-color="#FF8479" stop-opacity="0.85"/>
      <stop offset="1" stop-color="#FF8479" stop-opacity="0.10"/>
    </radialGradient>

    <radialGradient id="orb-green" cx="35%" cy="30%" r="70%">
      <stop offset="0" stop-color="#F4F4F4" stop-opacity="0.55"/>
      <stop offset="0.22" stop-color="#5BDB3B" stop-opacity="0.85"/>
      <stop offset="1" stop-color="#5BDB3B" stop-opacity="0.10"/>
    </radialGradient>

    <filter id="blur16" x="-20%" y="-20%" width="140%" height="140%">
      <feGaussianBlur stdDeviation="16"/>
    </filter>
    <filter id="blur10" x="-20%" y="-20%" width="140%" height="140%">
      <feGaussianBlur stdDeviation="10"/>
    </filter>
  </defs>

  <rect width="1600" height="800" fill="url(#bg)"/>
  <!-- christmas/open-data-background.svg -->
  <g>
    <circle cx="167" cy="546" r="320" fill="url(#glow-soft)" opacity="0.18" filter="url(#blur16)"/>
    <circle cx="1433" cy="235" r="290" fill="url(#glow-soft)" opacity="0.15" filter="url(#blur16)"/>
    <circle cx="220" cy="700" r="150" fill="none" stroke="#5BDB3B" stroke-opacity="0.13" stroke-width="1.3"/>
    <circle cx="220" cy="700" r="220" fill="none" stroke="#5BDB3B" stroke-opacity="0.11" stroke-width="1.3"/>
    <circle cx="220" cy="700" r="290" fill="none" stroke="#5BDB3B" stroke-opacity="0.09" stroke-width="1.3"/>
    <circle cx="1500" cy="110" r="60" fill="url(#orb-green)" opacity="0.85"/>
    <circle cx="1486" cy="96" r="10" fill="#F4F4F4" opacity="0.32"/>
    <path d="M1420 40 V 200" stroke="#F4F4F4" stroke-opacity="0.08" stroke-width="2"/>
    <path d="M1452 40 V 200" stroke="#F4F4F4" stroke-opacity="0.08" stroke-width="2"/>
    <path d="M1484 40 V 200" stroke="#F4F4F4" stroke-opacity="0.08" stroke-width="2"/>
    <path d="M1516 40 V 200" stroke="#F4F4F4" stroke-opacity="0.08" stroke-width="2"/>
    <path d="M1548 40 V 200" stroke="#F4F4F4" stroke-opacity="0.08" stroke-width="2"/>
    <path d="M1580 40 V 200" stroke="#F4F4F4" stroke-opacity="0.08" stroke-width="2"/>
    <path d="M1410 60 H 1600" stroke="#F4F4F4" stroke-opacity="0.08" stroke-width="2"/>
    <path d="M1410 100 H 1600" stroke="#F4F4F4" stroke-opacity="0.08" stroke-width="2"/>
    <path d="M1410 140 H 1600" stroke="#F4F4F4" stroke-opacity="0.08" stroke-width="2"/>
    <path d="M1410 180 H 1600" stroke="#F4F4F4" stroke-opacity="0.08" stroke-width="2"/>
    <circle cx="54" cy="603" r="2.5" fill="#F4F4F4" opacity="0.13"/>
    <circle cx="170" cy="69" r="4.4" fill="#F4F4F4" opacity="0.13"/>
    <circle cx="145" cy="131" r="3.3" fill="#F4F4F4" opacity="0.17"/>
    <circle cx="1420" cy="604" r="2.8" fill="#F4F4F4" opacity="0.13"/>
    <circle cx="56" cy="580" r="3.3" fill="#F4F4F4" opacity="0.11"/>
    <circle cx="70" cy="452" r="2.5" fill="#F4F4F4" opacity="0.15"/>
    <circle cx="1003" cy="726" r="3.5" fill="#F4F4F4" opacity="0.10"/>
    <circle cx="1466" cy="75" r="3.4" fill="#F4F4F4" opacity="0.12"/>
    <circle cx="1297" cy="735" r="3.1" fill="#F4F4F4" opacity="0.16"/>
    <circle cx="46" cy="296" r="3.1" fill="#F4F4F4" opacity="0.16"/>
    <circle cx="1194" cy="73" r="3.6" fill="#F4F4F4" opacity="0.16"/>
    <circle cx="27" cy="165" r="4.0" fill="#F4F4F4" opacity="0.17"/>
  </g>

</svg>
