<svg xmlns="http://www.w3.org/2000/svg" width="1600" height="800" viewBox="0 0 1600 800" preserveAspectRatio="xMidYMid slice">
  <defs>
    <linearGradient id="bg" x1="0" y1="0" x2="1" y2="0" gradientUnits="objectBoundingBox" gradientTransform="rotate(25 0.5 0.5)">
      <stop offset="0" stop-color="#00DE9F"/>
      <stop offset="0.52" stop-color="#00A1C2"/>
      <stop offset="1" stop-color="#0088D6"/>
    </linearGradient>

    <radialGradient id="glow-soft" cx="50%" cy="50%" r="60%">
      <stop offset="0" stop-color="#F4F4F4" stop-opacity="0.22"/>
      <stop offset="1" stop-color="#F4F4F4" stop-opacity="0"/>
    </radialGradient>

    <radialGradient id="orb-red" cx="35%" cy="30%" r="70%">
      <stop offset="0" stop-color="#F4F4F4" stop-opacity="0.55"/>
      <stop offset="0.22" stop-color="#FF8479" stop-opacity="0.85"/>
      <stop offset="1" stop-color="#FF8479" stop-opacity="0.10"/>
    </radialGradient>

    <radialGradient id="orb-green" cx="35%" cy="30%" r="70%">
      <stop offset="0" stop-color="#F4F4F4" stop-opacity="0.55"/>
      <stop offset="0.22" stop-color="#5BDB3B" stop-opacity="0.85"/>
      <stop offset="1" stop-color="#5BDB3B" stop-opacity="0.10"/>
    </radialGradient>

    <filter id="blur16" x="-20%" y="-20%" width="140%" height="140%">
      <feGaussianBlur stdDeviation="16"/>
    </filter>
    <filter id="blur10" x="-20%" y="-20%" width="140%" height="140%">
      <feGaussianBlur stdDeviation="10"/>
    </filter>
  </defs>

  <rect width="1600" height="800" fill="url(#bg)"/>
  <!-- christmas/product-background.svg -->
  <g>
    <circle cx="182" cy="512" r="320" fill="url(#glow-soft)" opacity="0.18" filter="url(#blur16)"/>
    <circle cx="1407" cy="259" r="290" fill="url(#glow-soft)" opacity="0.15" filter="url(#blur16)"/>
    <circle cx="220" cy="700" r="150" fill="none" stroke="#FF8479" stroke-opacity="0.13" stroke-width="1.3"/>
    <circle cx="220" cy="700" r="220" fill="none" stroke="#FF8479" stroke-opacity="0.11" stroke-width="1.3"/>
    <circle cx="220" cy="700" r="290" fill="none" stroke="#FF8479" stroke-opacity="0.09" stroke-width="1.3"/>
    <circle cx="1500" cy="110" r="60" fill="url(#orb-red)" opacity="0.85"/>
    <circle cx="1486" cy="96" r="10" fill="#F4F4F4" opacity="0.32"/>
    <rect x="1400" y="520" width="160" height="105" rx="22" fill="#F4F4F4" opacity="0.16"/>
    <rect x="1472" y="520" width="12" height="105" fill="#FF8479" opacity="0.20"/>
    <rect x="1400" y="568" width="160" height="12" fill="#5BDB3B" opacity="0.16"/>
    <circle cx="947" cy="764" r="2.9" fill="#F4F4F4" opacity="0.14"/>
    <circle cx="179" cy="760" r="2.8" fill="#F4F4F4" opacity="0.15"/>
    <circle cx="89" cy="242" r="3.6" fill="#F4F4F4" opacity="0.10"/>
    <circle cx="513" cy="744" r="4.5" fill="#F4F4F4" opacity="0.16"/>
    <circle cx="481" cy="63" r="2.8" fill="#F4F4F4" opacity="0.17"/>
    <circle cx="828" cy="49" r="4.4" fill="#F4F4F4" opacity="0.11"/>
    <circle cx="54" cy="630" r="4.1" fill="#F4F4F4" opacity="0.12"/>
    <circle cx="41" cy="754" r="3.0" fill="#F4F4F4" opacity="0.10"/>
    <circle cx="98" cy="354" r="3.7" fill="#F4F4F4" opacity="0.17"/>
    <circle cx="1448" cy="246" r="2.9" fill="#F4F4F4" opacity="0.14"/>
    <circle cx="193" cy="412" r="3.7" fill="#F4F4F4" opacity="0.18"/>
    <circle cx="203" cy="279" r="3.7" fill="#F4F4F4" opacity="0.17"/>
  </g>

</svg>
