<svg id="_ÎÓÈ_1" data-name="—ÎÓÈ_1" xmlns="http://www.w3.org/2000/svg" xmlns:xlink="http://www.w3.org/1999/xlink" viewBox="0 0 393.83 310.41"><defs><linearGradient id="_ÂÁ_Ï_ÌÌ_È_ËÂÌÚ_21" x1="186.9" y1="179.29" x2="396.25" y2="179.29" gradientUnits="userSpaceOnUse"><stop offset="0" stop-color="#86b8e0"/><stop offset="0.12" stop-color="#98c4e7"/><stop offset="0.33" stop-color="#b2d6f2"/><stop offset="0.54" stop-color="#c5e2f9"/><stop offset="0.76" stop-color="#d0eafe"/><stop offset="1" stop-color="#d4ecff"/></linearGradient><radialGradient id="_ÂÁ_Ï_ÌÌ_È_ËÂÌÚ_28" cx="375.81" cy="138.43" r="203.92" gradientUnits="userSpaceOnUse"><stop offset="0" stop-color="#173d7a"/><stop offset="0.42" stop-color="#153b76"/><stop offset="0.82" stop-color="#0e336b"/><stop offset="1" stop-color="#092e63"/></radialGradient><linearGradient id="_ÂÁ_Ï_ÌÌ_È_ËÂÌÚ_9" x1="133.39" y1="29.97" x2="200.73" y2="63.42" gradientUnits="userSpaceOnUse"><stop offset="0" stop-color="#d4ecff"/><stop offset="0.24" stop-color="#d0eafe"/><stop offset="0.46" stop-color="#c5e2f9"/><stop offset="0.67" stop-color="#b2d6f2"/><stop offset="0.88" stop-color="#98c4e7"/><stop offset="1" stop-color="#86b8e0"/></linearGradient><clipPath id="clip-path" transform="translate(-12.63 -6.81)"><ellipse cx="146.28" cy="63.69" rx="18.83" ry="32.61" transform="translate(-12.25 81.68) rotate(-30)" fill="none"/></clipPath></defs><g opacity="0.4"><path d="M368.57,99l-.28-.16-31-17.9,31.29-18.06L399.85,80.9ZM339.5,80.9l29.07,16.78L397.64,80.9,368.57,64.12Z" transform="translate(-12.63 -6.81)" fill="#fff"/><path d="M308.21,99,276.93,80.9l31.28-18.06L339.5,80.9ZM279.14,80.9l29.07,16.78L337.28,80.9,308.21,64.12Z" transform="translate(-12.63 -6.81)" fill="#fff"/><path d="M338.39,116.39l-.28-.16-31-17.91,31.28-18.06.28.16,31,17.9ZM309.32,98.32l29.07,16.79,29.07-16.79L338.39,81.54Z" transform="translate(-12.63 -6.81)" fill="#fff"/><path d="M368.57,133.81l-.28-.16-31-17.9,31.29-18.07.27.16,31,17.91ZM339.5,115.75l29.07,16.78,29.07-16.78L368.57,99Z" transform="translate(-12.63 -6.81)" fill="#fff"/><path d="M247.86,99l-.28-.16-31-17.9,31.29-18.06L279.14,80.9ZM218.79,80.9l29.07,16.78L276.93,80.9,247.86,64.12Z" transform="translate(-12.63 -6.81)" fill="#fff"/><path d="M278,116.39,246.75,98.32,278,80.26l31.28,18.06ZM249,98.32,278,115.11l29.07-16.79L278,81.54Z" transform="translate(-12.63 -6.81)" fill="#fff"/><path d="M308.21,133.81l-31.28-18.06,31.28-18.07.28.16,31,17.91Zm-29.07-18.06,29.07,16.78,29.07-16.78L308.21,99Z" transform="translate(-12.63 -6.81)" fill="#fff"/><path d="M338.39,151.23l-.27-.16-31-17.9,31.28-18.06.28.16,31,17.9Zm-29.07-18.06L338.39,150l29.07-16.78-29.07-16.78Z" transform="translate(-12.63 -6.81)" fill="#fff"/><path d="M368.57,168.66l-.28-.16-31-17.91,31.29-18.06.27.16,31,17.9ZM339.5,150.59l29.07,16.79,29.07-16.79-29.07-16.78Z" transform="translate(-12.63 -6.81)" fill="#fff"/><path d="M187.5,99l-.27-.16-31-17.9L187.5,62.84l.28.16,31,17.9ZM158.43,80.9,187.5,97.68,216.57,80.9,187.5,64.12Z" transform="translate(-12.63 -6.81)" fill="#fff"/><path d="M217.68,116.39l-.27-.16-31-17.91,31.28-18.06.28.16,31,17.9ZM188.61,98.32l29.07,16.79,29.07-16.79L217.68,81.54Z" transform="translate(-12.63 -6.81)" fill="#fff"/><path d="M247.86,133.81l-.28-.16-31-17.9,31.28-18.07,31.28,18.07Zm-29.07-18.06,29.07,16.78,29.07-16.78L247.86,99Z" transform="translate(-12.63 -6.81)" fill="#fff"/><path d="M278,151.23l-31.29-18.06L278,115.11l31.28,18.06ZM249,133.17,278,150l29.07-16.78L278,116.39Z" transform="translate(-12.63 -6.81)" fill="#fff"/><path d="M308.22,168.66l-31.29-18.07,31.28-18.06.28.16,31,17.9Zm-29.08-18.07,29.08,16.79,29.06-16.79-29.07-16.78Z" transform="translate(-12.63 -6.81)" fill="#fff"/><path d="M338.39,186.08l-.27-.16-31-17.9L338.39,150l.28.16,31,17.91ZM309.32,168l29.07,16.78L367.46,168l-29.07-16.79Z" transform="translate(-12.63 -6.81)" fill="#fff"/><path d="M368.57,203.5l-.28-.16-31-17.9,31.28-18.06.28.16,31,17.9ZM339.5,185.44l29.07,16.78,29.07-16.78-29.07-16.78Z" transform="translate(-12.63 -6.81)" fill="#fff"/><path d="M127.15,99l-.28-.16-31-17.9,31.28-18.06L158.43,80.9ZM98.08,80.9l29.07,16.78L156.22,80.9,127.15,64.12Z" transform="translate(-12.63 -6.81)" fill="#fff"/><path d="M157.33,116.38l-.28-.16-31-17.9,31.29-18.06.27.16,31,17.9ZM128.26,98.32l29.07,16.79L186.4,98.32,157.33,81.54Z" transform="translate(-12.63 -6.81)" fill="#fff"/><path d="M187.51,133.81l-31.29-18.06L187.5,97.68l.28.16,31,17.91Zm-29.07-18.06,29.07,16.78,29.07-16.78L187.5,99Z" transform="translate(-12.63 -6.81)" fill="#fff"/><path d="M217.68,151.23l-.27-.16-31-17.9,31.28-18.06.28.16,31,17.9Zm-29.07-18.06L217.68,150l29.07-16.78-29.07-16.78Z" transform="translate(-12.63 -6.81)" fill="#fff"/><path d="M247.86,168.65l-31.28-18.06,31.28-18.06,31.28,18.06Zm-29.07-18.06,29.07,16.79,29.07-16.79-29.07-16.78Z" transform="translate(-12.63 -6.81)" fill="#fff"/><path d="M278,186.08l-.28-.16-31-17.91L278,150,309.32,168ZM249,168,278,184.8,307.11,168,278,151.23Z" transform="translate(-12.63 -6.81)" fill="#fff"/><path d="M308.22,203.5l-.28-.16-31-17.9,31.29-18.06.27.16,31,17.9Zm-29.07-18.06,29.07,16.78,29.07-16.78-29.07-16.78Z" transform="translate(-12.63 -6.81)" fill="#fff"/><path d="M338.39,220.92l-31.28-18.06,31.28-18.06.28.16,31,17.9Zm-29.07-18.06,29.07,16.78,29.07-16.78-29.07-16.78Z" transform="translate(-12.63 -6.81)" fill="#fff"/><path d="M368.57,238.35l-.27-.16-31-17.91,31.28-18.06.28.16,31,17.9ZM339.5,220.28l29.07,16.79,29.07-16.79L368.57,203.5Z" transform="translate(-12.63 -6.81)" fill="#fff"/><path d="M66.8,99,35.51,80.9,66.79,62.84l.28.16,31,17.9ZM37.73,80.9,66.8,97.68,95.87,80.9,66.79,64.12Z" transform="translate(-12.63 -6.81)" fill="#fff"/><path d="M97,116.38l-.27-.16-31-17.9L97,80.26l.28.16,31,17.9ZM67.9,98.32,97,115.11,126,98.32,97,81.54Z" transform="translate(-12.63 -6.81)" fill="#fff"/><path d="M127.15,133.81l-.27-.16-31-17.9,31.28-18.07.28.16,31,17.91ZM98.08,115.75l29.07,16.78,29.07-16.78L127.15,99Z" transform="translate(-12.63 -6.81)" fill="#fff"/><path d="M157.33,151.23l-.28-.16-31-17.9,31.29-18.06,31.28,18.06Zm-29.07-18.06L157.33,150l29.07-16.78-29.07-16.79Z" transform="translate(-12.63 -6.81)" fill="#fff"/><path d="M187.51,168.65l-.28-.16-31-17.9,31.29-18.06.27.16,31,17.9Zm-29.07-18.06,29.07,16.78,29.07-16.78-29.07-16.78Z" transform="translate(-12.63 -6.81)" fill="#fff"/><path d="M217.68,186.08,186.4,168,217.68,150,249,168ZM188.61,168l29.07,16.79L246.75,168l-29.07-16.78Z" transform="translate(-12.63 -6.81)" fill="#fff"/><path d="M247.86,203.5l-.27-.16-31-17.9,31.28-18.06.28.16,31,17.9Zm-29.07-18.06,29.07,16.78,29.07-16.78-29.07-16.79Z" transform="translate(-12.63 -6.81)" fill="#fff"/><path d="M278,220.92l-.28-.16-31-17.9L278,184.8l.27.16,31,17.9ZM249,202.86,278,219.64l29.07-16.78L278,186.08Z" transform="translate(-12.63 -6.81)" fill="#fff"/><path d="M308.22,238.35l-.28-.16-31-17.91,31.29-18.06,31.28,18.06Zm-29.07-18.07,29.07,16.79,29.07-16.79L308.22,203.5Z" transform="translate(-12.63 -6.81)" fill="#fff"/><path d="M338.39,255.77l-.27-.16-31-17.9,31.28-18.07.28.16,31,17.91Zm-29.07-18.06,29.07,16.78,29.07-16.78-29.07-16.79Z" transform="translate(-12.63 -6.81)" fill="#fff"/><path d="M368.57,273.19l-31.28-18.06,31.28-18.06.28.16,31,17.9ZM339.5,255.13l29.07,16.78,29.07-16.78-29.07-16.78Z" transform="translate(-12.63 -6.81)" fill="#fff"/><path d="M66.8,133.81,35.51,115.74,66.8,97.68l.27.16,31,17.91ZM37.73,115.74,66.8,132.53l29.07-16.78L66.8,99Z" transform="translate(-12.63 -6.81)" fill="#fff"/><path d="M97,151.23l-.27-.16-31-17.9L97,115.11l.28.16,31,17.9ZM67.9,133.17,97,150,126,133.17,97,116.38Z" transform="translate(-12.63 -6.81)" fill="#fff"/><path d="M127.15,168.65l-.27-.16-31-17.9,31.28-18.06.28.16,31,17.9ZM98.08,150.59l29.07,16.78,29.07-16.78-29.07-16.78Z" transform="translate(-12.63 -6.81)" fill="#fff"/><path d="M157.33,186.08l-.28-.16L126,168,157.33,150l.28.16,31,17.9ZM128.26,168l29.07,16.79L186.4,168l-29.07-16.78Z" transform="translate(-12.63 -6.81)" fill="#fff"/><path d="M187.51,203.5l-31.29-18.06,31.29-18.07,31.28,18.07Zm-29.07-18.06,29.07,16.78,29.07-16.78-29.07-16.79Z" transform="translate(-12.63 -6.81)" fill="#fff"/><path d="M217.68,220.92,186.4,202.86l31.28-18.06.28.16,31,17.9Zm-29.07-18.06,29.07,16.78,29.07-16.78-29.07-16.78Z" transform="translate(-12.63 -6.81)" fill="#fff"/><path d="M247.86,238.35l-.27-.16-31-17.91,31.28-18.06.28.16,31,17.9Zm-29.07-18.07,29.07,16.79,29.07-16.79L247.86,203.5Z" transform="translate(-12.63 -6.81)" fill="#fff"/><path d="M278,255.77l-.28-.16-31-17.9L278,219.64l.28.16,31,17.91ZM249,237.71,278,254.49l29.07-16.78L278,220.92Z" transform="translate(-12.63 -6.81)" fill="#fff"/><path d="M308.22,273.19l-.28-.16-31-17.9,31.29-18.06.27.16,31,17.9Zm-29.07-18.06,29.07,16.78,29.07-16.78-29.07-16.78Z" transform="translate(-12.63 -6.81)" fill="#fff"/><path d="M338.4,290.61l-.28-.16-31-17.9,31.28-18.06,31.29,18.06Zm-29.07-18.06,29.07,16.79,29.07-16.79-29.08-16.78Z" transform="translate(-12.63 -6.81)" fill="#fff"/><path d="M368.57,308,337.29,290l31.28-18.06.28.16,31,17.91ZM339.5,290l29.07,16.79L397.64,290l-29.07-16.79Z" transform="translate(-12.63 -6.81)" fill="#fff"/><path d="M66.8,168.65l-.28-.16-31-17.9L66.8,132.53l.27.16,31,17.9ZM37.73,150.59,66.8,167.37l29.07-16.78L66.8,133.81Z" transform="translate(-12.63 -6.81)" fill="#fff"/><path d="M97,186.08,65.69,168,97,150l.28.16,31,17.9ZM67.91,168,97,184.8,126,168,97,151.23Z" transform="translate(-12.63 -6.81)" fill="#fff"/><path d="M127.15,203.5l-.27-.16-31-17.9,31.28-18.07.28.16,31,17.91ZM98.08,185.44l29.07,16.78,29.07-16.78-29.07-16.79Z" transform="translate(-12.63 -6.81)" fill="#fff"/><path d="M157.33,220.92l-.28-.16-31-17.9,31.28-18.06,31.28,18.06Zm-29.07-18.06,29.07,16.78,29.07-16.78-29.07-16.78Z" transform="translate(-12.63 -6.81)" fill="#fff"/><path d="M187.51,238.34l-31.29-18.06,31.29-18.06,31.28,18.06Zm-29.07-18.06,29.07,16.79,29.07-16.79L187.51,203.5Z" transform="translate(-12.63 -6.81)" fill="#fff"/><path d="M217.69,255.77l-.28-.16-31-17.9,31.28-18.07.28.16,31,17.91Zm-29.07-18.06,29.07,16.78,29.07-16.78-29.08-16.79Z" transform="translate(-12.63 -6.81)" fill="#fff"/><path d="M247.86,273.19l-31.28-18.06,31.28-18.06.28.16,31,17.9Zm-29.07-18.06,29.07,16.78,29.07-16.78-29.07-16.78Z" transform="translate(-12.63 -6.81)" fill="#fff"/><path d="M278,290.61l-.28-.16-31-17.9L278,254.49l.28.16,31,17.9ZM249,272.55,278,289.34l29.07-16.79L278,255.77Z" transform="translate(-12.63 -6.81)" fill="#fff"/><path d="M308.22,308l-.28-.16-31-17.91,31.29-18.06.27.16,31,17.9ZM279.15,290l29.07,16.79L337.29,290l-29.07-16.78Z" transform="translate(-12.63 -6.81)" fill="#fff"/><path d="M66.8,203.5l-.28-.16-31-17.9L66.8,167.37l31.28,18.07ZM37.73,185.44,66.8,202.22l29.07-16.78L66.8,168.65Z" transform="translate(-12.63 -6.81)" fill="#fff"/><path d="M97,220.92l-.28-.16-31-17.9L97,184.8l.27.16,31,17.9ZM67.91,202.86,97,219.64l29.07-16.78L97,186.08Z" transform="translate(-12.63 -6.81)" fill="#fff"/><path d="M127.15,238.34,95.87,220.28l31.28-18.06.28.16,31,17.9ZM98.08,220.28l29.07,16.79,29.07-16.79L127.15,203.5Z" transform="translate(-12.63 -6.81)" fill="#fff"/><path d="M157.33,255.77l-31.28-18.06,31.28-18.07,31.29,18.07Zm-29.07-18.06,29.07,16.78,29.07-16.78-29.07-16.79Z" transform="translate(-12.63 -6.81)" fill="#fff"/><path d="M187.51,273.19l-.28-.16-31-17.9,31.29-18.06.27.16,31,17.9Zm-29.07-18.06,29.07,16.78,29.07-16.78-29.07-16.79Z" transform="translate(-12.63 -6.81)" fill="#fff"/><path d="M217.69,290.61l-.28-.16-31-17.9,31.29-18.06L249,272.55Zm-29.07-18.06,29.07,16.78,29.07-16.78-29.07-16.78Z" transform="translate(-12.63 -6.81)" fill="#fff"/><path d="M247.86,308l-.27-.16-31-17.91,31.28-18.06.28.16,31,17.9ZM218.79,290l29.07,16.79L276.93,290l-29.07-16.78Z" transform="translate(-12.63 -6.81)" fill="#fff"/><path d="M66.8,238.34l-.28-.16-31-17.9L66.8,202.22l.28.16,31,17.9ZM37.73,220.28,66.8,237.06l29.07-16.78L66.8,203.5Z" transform="translate(-12.63 -6.81)" fill="#fff"/><path d="M97,255.77l-.28-.16-31-17.91L97,219.64l31.28,18.07ZM67.91,237.7,97,254.49l29.07-16.78L97,220.92Z" transform="translate(-12.63 -6.81)" fill="#fff"/><path d="M127.15,273.19,95.87,255.13l31.28-18.06,31.29,18.06ZM98.09,255.13l29.06,16.78,29.07-16.78-29.07-16.79Z" transform="translate(-12.63 -6.81)" fill="#fff"/><path d="M157.33,290.61l-.27-.16-31-17.9,31.28-18.06.28.16,31,17.9Zm-29.07-18.06,29.07,16.78,29.07-16.78-29.07-16.78Z" transform="translate(-12.63 -6.81)" fill="#fff"/><path d="M187.51,308l-.28-.16-31-17.91,31.29-18.06.28.16,31,17.9ZM158.44,290l29.07,16.79L216.58,290l-29.07-16.78Z" transform="translate(-12.63 -6.81)" fill="#fff"/><path d="M66.8,273.19l-.28-.16-31-17.9L66.8,237.06l.28.16,31,17.91ZM37.73,255.13,66.8,271.91l29.07-16.78L66.8,238.34Z" transform="translate(-12.63 -6.81)" fill="#fff"/><path d="M97,290.61l-.28-.16-31-17.9L97,254.49l31.28,18.06ZM67.91,272.55,97,289.33l29.07-16.78L97,255.77Z" transform="translate(-12.63 -6.81)" fill="#fff"/><path d="M127.16,308,95.87,290l31.28-18.06.28.16,31,17.9ZM98.09,290l29.07,16.79L156.22,290l-29.07-16.78Z" transform="translate(-12.63 -6.81)" fill="#fff"/><path d="M66.8,308l-.27-.16L35.52,290,66.8,271.91l.28.16,31,17.9ZM37.73,290,66.8,306.76,95.87,290,66.8,273.19Z" transform="translate(-12.63 -6.81)" fill="#fff"/></g><path d="M373.86,180.91l-84.08-48.69c-4.57-2.65-12.55-2.33-17.83.71L95.49,234.48c-5.28,3-5.86,7.65-1.29,10.3l84.08,48.68c4.56,2.65,12.55,2.33,17.83-.71L372.56,191.2C377.84,188.16,378.42,183.55,373.86,180.91Z" transform="translate(-12.63 -6.81)" fill="#7dc3ea"/><path d="M186.07,284.85a17.32,17.32,0,0,1-8.53-2L93.46,234.16c-2.46-1.42-3.82-3.47-3.81-5.75,0-2.64,1.86-5.22,5.11-7.09L271.21,119.77c5.78-3.32,14.26-3.64,19.31-.71l84.07,48.69c2.47,1.42,3.82,3.46,3.82,5.75,0,2.64-1.87,5.22-5.11,7.09L196.84,282.14A22.05,22.05,0,0,1,186.07,284.85ZM282,120a19.33,19.33,0,0,0-9.35,2.3L96.23,223.87c-2.28,1.31-3.64,3-3.64,4.55s1.28,2.57,2.35,3.2L179,280.3c4.09,2.37,11.58,2,16.36-.71L371.83,178c2.27-1.31,3.63-3,3.64-4.55s-1.28-2.58-2.35-3.2L289,121.6A14.33,14.33,0,0,0,282,120Z" transform="translate(-12.63 -6.81)" fill="#fff"/><path d="M175.83,263.54l-87.5-50.67c-2.87-1.66-4.21-3.91-4.12-6.24h0l0-12.69,4.86,5.7c.32-.21.64-.42,1-.62l179-103c7.1-4.09,17.85-4.52,24-1l86.27,50c1.75-1.91,5.41-5.95,5.41-5.95l0,12.42h0c.13,2.8-1.86,5.78-5.87,8.09l-179,103C192.72,266.67,182,267.1,175.83,263.54Z" transform="translate(-12.63 -6.81)" fill="#396caa"/><path d="M128.51,232.46l5,2.91c.67.38,1.22,0,1.22-.92h0a2.89,2.89,0,0,0-1.22-2.31l-5-2.91c-.66-.39-1.21,0-1.21.91h0A2.94,2.94,0,0,0,128.51,232.46Z" transform="translate(-12.63 -6.81)" fill="#173d7a"/><path d="M269.07,96c7.1-4.09,17.85-4.52,24-1l86.27,50c1.75-1.91,5.41-5.95,5.41-5.95l0,12.42h0c.13,2.8-1.86,5.78-5.87,8.09l-179,103a27.79,27.79,0,0,1-12.92,3.36l.17-122.74Z" transform="translate(-12.63 -6.81)" fill="url(#_ÂÁ_Ï_ÌÌ_È_ËÂÌÚ_21)"/><path d="M380.6,133,293.1,82.28c-6.15-3.55-16.89-3.12-24,1l-179,103c-7.11,4.09-7.89,10.29-1.74,13.85l87.5,50.67c6.14,3.56,16.88,3.13,24-1l179-103C386,142.71,386.74,136.51,380.6,133Z" transform="translate(-12.63 -6.81)" fill="#d4ecff"/><path d="M175.8,252.13,88.3,201.46c-3.17-1.83-4.48-4.37-4-7,.16,2.1,1.5,4.09,4.12,5.61l87.5,50.67c6.14,3.56,16.88,3.13,24-1l179-103c3.45-2,5.39-4.45,5.8-6.88.21,2.84-1.78,5.89-5.86,8.24l-179,103C192.69,255.26,181.94,255.69,175.8,252.13Z" transform="translate(-12.63 -6.81)" fill="#fff"/><path d="M373.86,135,289.78,86.26c-4.57-2.64-12.55-2.32-17.83.72L95.49,188.53c-5.28,3-5.86,7.65-1.29,10.29l84.08,48.69c4.56,2.64,12.55,2.32,17.83-.72L372.56,145.25C377.84,142.21,378.42,137.6,373.86,135Z" transform="translate(-12.63 -6.81)" fill="url(#_ÂÁ_Ï_ÌÌ_È_ËÂÌÚ_28)"/><polygon points="186.82 215.41 127.49 181.16 131.28 178.97 190.61 213.22 186.82 215.41" fill="#d4ecff"/><polygon points="145.54 205.42 115.5 188.08 119.29 185.89 149.33 203.24 145.54 205.42" fill="#d4ecff"/><polygon points="160.12 213.84 150.38 208.22 154.16 206.03 163.91 211.66 160.12 213.84" fill="#424aa0"/><polygon points="174.83 222.33 165.09 216.71 168.87 214.52 178.62 220.15 174.83 222.33" fill="#fff"/><polygon points="145.88 198.69 121.5 184.62 125.28 182.43 149.66 196.51 145.88 198.69" fill="#fff"/><polygon points="175.64 215.88 151.26 201.8 155.04 199.62 179.43 213.69 175.64 215.88" fill="#d4ecff"/><path d="M176.82,196.41a4.91,4.91,0,0,1-4.42,0,1.35,1.35,0,0,1,0-2.55,4.91,4.91,0,0,1,4.42,0A1.35,1.35,0,0,1,176.82,196.41Z" transform="translate(-12.63 -6.81)" fill="#fff"/><path d="M183.42,200.22a4.83,4.83,0,0,1-4.41,0,1.35,1.35,0,0,1,0-2.55,4.89,4.89,0,0,1,4.41,0A1.35,1.35,0,0,1,183.42,200.22Z" transform="translate(-12.63 -6.81)" fill="#d4ecff"/><path d="M190,204a4.85,4.85,0,0,1-4.42,0,1.35,1.35,0,0,1,0-2.55,4.91,4.91,0,0,1,4.42,0A1.35,1.35,0,0,1,190,204Z" transform="translate(-12.63 -6.81)" fill="#424aa0"/><path d="M196.63,207.84a4.85,4.85,0,0,1-4.42,0,1.35,1.35,0,0,1,0-2.55,4.91,4.91,0,0,1,4.42,0A1.35,1.35,0,0,1,196.63,207.84Z" transform="translate(-12.63 -6.81)" fill="#fff"/><polygon points="316.69 128.52 306.7 122.75 310.58 120.51 320.57 126.27 316.69 128.52" fill="#424aa0"/><polygon points="330.6 136.55 320.61 130.78 324.49 128.54 334.48 134.31 330.6 136.55" fill="#fff"/><polygon points="272.07 102.51 262.08 96.75 265.96 94.5 275.95 100.27 272.07 102.51" fill="#fff"/><polygon points="314.46 134.33 300.55 126.3 304.43 124.06 318.34 132.09 314.46 134.33" fill="#fff"/><polygon points="324.45 140.1 318.35 136.57 322.23 134.33 328.33 137.85 324.45 140.1" fill="#d4ecff"/><path d="M355.92,223.53a1.39,1.39,0,0,1-.63-.15,1.36,1.36,0,0,1-.58-1.83,15.28,15.28,0,0,1,5.55-6.11,7.26,7.26,0,0,1,3.91-1.08c1.78.08,3.93-1.23,5.83-3.52a13.26,13.26,0,0,1,3.52-3.05,7,7,0,0,1,3.91-1.08c1.77,0,3.93-1.23,5.83-3.52a13.32,13.32,0,0,1,3.53-3.06,7,7,0,0,1,3.91-1.08c1.77,0,3.93-1.23,5.83-3.52a13.31,13.31,0,0,1,3.52-3.06,6.22,6.22,0,0,1,5.59-.7,1.36,1.36,0,1,1-1.08,2.49,3.64,3.64,0,0,0-3.15.56,10.62,10.62,0,0,0-2.79,2.44c-2.49,3-5.42,4.63-8.06,4.5a4.41,4.41,0,0,0-2.41.72,10.65,10.65,0,0,0-2.8,2.44c-2.48,3-5.39,4.62-8.05,4.5a4.44,4.44,0,0,0-2.42.72,10.78,10.78,0,0,0-2.79,2.44c-2.48,3-5.4,4.63-8.06,4.49a4.52,4.52,0,0,0-2.41.73,12.42,12.42,0,0,0-4.5,5A1.36,1.36,0,0,1,355.92,223.53Z" transform="translate(-12.63 -6.81)" fill="#fff"/><path d="M276.23,275.68a5.78,5.78,0,0,1-2.61,4.53c-1.45.83-2.62.16-2.62-1.51a5.74,5.74,0,0,1,2.62-4.52C275.06,273.34,276.23,274,276.23,275.68Z" transform="translate(-12.63 -6.81)" fill="#fff"/><path d="M284.69,270.8a5.78,5.78,0,0,1-2.61,4.52c-1.44.83-2.61.16-2.61-1.51a5.78,5.78,0,0,1,2.61-4.52C283.52,268.46,284.69,269.13,284.69,270.8Z" transform="translate(-12.63 -6.81)" fill="#fff"/><path d="M293.16,265.91a5.78,5.78,0,0,1-2.61,4.52c-1.44.84-2.61.16-2.61-1.51a5.78,5.78,0,0,1,2.61-4.52C292,263.57,293.16,264.24,293.16,265.91Z" transform="translate(-12.63 -6.81)" fill="#fff"/><path d="M301.63,261a5.74,5.74,0,0,1-2.62,4.52c-1.44.84-2.61.16-2.61-1.5a5.79,5.79,0,0,1,2.61-4.53C300.46,258.68,301.63,259.36,301.63,261Z" transform="translate(-12.63 -6.81)" fill="#fff"/><path d="M255.6,54.46A5.76,5.76,0,0,1,253,59c-1.45.84-2.62.16-2.62-1.5A5.78,5.78,0,0,1,253,53C254.43,52.12,255.6,52.8,255.6,54.46Z" transform="translate(-12.63 -6.81)" fill="#fff"/><path d="M262.8,50.3a5.76,5.76,0,0,1-2.61,4.52c-1.44.84-2.61.16-2.61-1.5a5.79,5.79,0,0,1,2.61-4.53C261.63,48,262.8,48.64,262.8,50.3Z" transform="translate(-12.63 -6.81)" fill="#fff"/><path d="M255.6,46.14A5.79,5.79,0,0,1,253,50.67c-1.45.83-2.62.15-2.62-1.51A5.78,5.78,0,0,1,253,44.63C254.43,43.8,255.6,44.48,255.6,46.14Z" transform="translate(-12.63 -6.81)" fill="#fff"/><path d="M262.8,42a5.79,5.79,0,0,1-2.61,4.53c-1.44.83-2.61.15-2.61-1.51a5.79,5.79,0,0,1,2.61-4.53C261.63,39.64,262.8,40.32,262.8,42Z" transform="translate(-12.63 -6.81)" fill="#fff"/><polygon points="84.2 143.68 78.98 146.7 78.98 140.67 84.2 137.65 84.2 143.68" fill="#fff"/><polygon points="92.67 138.79 87.45 141.81 87.45 135.78 92.67 132.76 92.67 138.79" fill="#fff"/><polygon points="101.14 133.91 95.91 136.92 95.91 130.89 101.14 127.88 101.14 133.91" fill="#fff"/><polygon points="109.6 129.02 104.38 132.03 104.38 126 109.6 122.99 109.6 129.02" fill="#fff"/><polygon points="208.32 299.57 203.1 302.59 203.1 296.56 208.32 293.54 208.32 299.57" fill="#fff"/><polygon points="215.57 295.33 210.35 298.35 210.35 292.32 215.57 289.3 215.57 295.33" fill="#fff"/><polygon points="208.37 307.4 203.14 310.41 203.14 304.38 208.37 301.37 208.37 307.4" fill="#fff"/><polygon points="215.57 303.24 210.35 306.25 210.35 300.22 215.57 297.2 215.57 303.24" fill="#fff"/><path d="M342.62,32.81a10.13,10.13,0,0,0-2.56,2.2c-.12-5-3.73-7-8.17-4.48A15,15,0,0,0,328,34c-2-3.46-6.08-4.26-10.83-1.52-6.68,3.86-12.1,13.24-12.1,21a14.7,14.7,0,0,0,.12,1.8,4.56,4.56,0,0,0-3.39.68,12.82,12.82,0,0,0-5.78,10c0,3.69,2.59,5.19,5.78,3.34l40.86-23.58A12.31,12.31,0,0,0,348.18,36C348.18,32.48,345.69,31,342.62,32.81Z" transform="translate(-12.63 -6.81)" fill="#fff"/><path d="M102.65,277.35a10.63,10.63,0,0,0-2.7,2.32c-.13-5.33-4-7.46-8.65-4.74a15.73,15.73,0,0,0-4.17,3.63C85,274.9,80.7,274.05,75.67,277c-7.08,4.09-12.81,14-12.81,22.19a14.57,14.57,0,0,0,.13,1.91,4.86,4.86,0,0,0-3.59.72,13.55,13.55,0,0,0-6.13,10.62c0,3.91,2.74,5.49,6.13,3.54l43.25-25a13,13,0,0,0,5.9-10.2C108.55,277,105.91,275.47,102.65,277.35Z" transform="translate(-12.63 -6.81)" fill="#fff" opacity="0.4"/><path d="M167.66,133.42l60.09-34.69c6.5-3.76,5.69-10.32-1.82-14.65h0c-7.51-4.34-18.88-4.81-25.38-1.06l-60.09,34.7c-6.5,3.75-5.69,10.31,1.83,14.65h0C149.8,136.7,161.16,137.18,167.66,133.42Z" transform="translate(-12.63 -6.81)" fill="#7dc3ea"/><path d="M156.61,126.84A30.86,30.86,0,0,1,141.55,123c-4.42-2.55-7-6-7-9.56,0-3,1.82-5.73,5.13-7.64l60.08-34.69c7-4,18.82-3.59,26.85,1,4.42,2.55,7,6,7,9.56,0,3-1.82,5.73-5.12,7.64L168.4,124.08A23.92,23.92,0,0,1,156.61,126.84Zm55-55.51a20.88,20.88,0,0,0-10.28,2.36L141.2,108.38c-2.39,1.38-3.66,3.14-3.66,5.09,0,2.44,2,5,5.48,7,7.09,4.1,17.82,4.57,23.91,1L227,86.84c2.4-1.38,3.66-3.14,3.66-5.09,0-2.45-2-5-5.48-7A28,28,0,0,0,211.57,71.33Z" transform="translate(-12.63 -6.81)" fill="#fff"/><path d="M200.7,80.06V75.7l5.16-26-5.09-3.15-10.2,5.63-.07,33.48c0,2.25.83,3.77,2.13,4.27h0l4.54,2.85.57-2.15.78-3.93A12.52,12.52,0,0,0,200.7,80.06Z" transform="translate(-12.63 -6.81)" fill="#5793ce"/><path d="M200.67,92.71h0c-2.81,1.56-5.09-.18-5.08-3.88l.07-33.47,10.2-5.63-.07,33.47C205.78,86.9,203.49,91.16,200.67,92.71Z" transform="translate(-12.63 -6.81)" fill="#5793ce"/><path d="M228.2,31.7c0-8.49-6-18.82-13.32-23.07-3.81-2.2-7.24-2.33-9.67-.78h0L164.82,31.17l20.84,31.31,38.59-22.12.1-.06.08,0h0C226.76,38.82,228.2,35.87,228.2,31.7Z" transform="translate(-12.63 -6.81)" fill="#424aa0"/><path d="M209.18,43.05c0-8.74-6.13-19.36-13.7-23.73-3.44-2-6.58-2.34-9-1.31h0l-.05,0-.06,0-.31.15A95.93,95.93,0,0,1,140,28l-4.52-.17,36.76,63,2-3.85A96,96,0,0,1,205.1,52C207.62,50.54,209.18,47.46,209.18,43.05Z" transform="translate(-12.63 -6.81)" fill="url(#_ÂÁ_Ï_ÌÌ_È_ËÂÌÚ_9)"/><path d="M176.52,76.56c0-16.76-11.77-37.14-26.29-45.53-7.24-4.18-13.8-4.58-18.55-1.86h0l0,0,0,0-4.31,2.52,1.5-.31c-3.06,3.19-4.87,8.23-4.87,14.79,0,16.76,11.77,37.15,26.29,45.53,5.7,3.29,11,4.24,15.28,3.17l-.69,1,4-2.32.07,0,.14-.09h0C173.65,90.68,176.52,84.84,176.52,76.56Z" transform="translate(-12.63 -6.81)" fill="#d4ecff"/><path d="M173.44,78.36c0-16.77-11.77-37.15-26.29-45.53-7.14-4.13-13.61-4.57-18.35-2l-.66.39a7.66,7.66,0,0,0-.66.45l1.33-.28c-3.06,3.19-4.87,8.23-4.87,14.79,0,16.76,11.77,37.15,26.29,45.53,5.7,3.29,11,4.24,15.28,3.17l-.63.91C170.14,93.31,173.44,87.23,173.44,78.36Z" transform="translate(-12.63 -6.81)" fill="#fff"/><ellipse cx="146.28" cy="63.69" rx="21.46" ry="37.17" transform="translate(-24.88 74.87) rotate(-30)" fill="#5793ce"/><ellipse cx="146.28" cy="63.69" rx="18.83" ry="32.61" transform="translate(-24.88 74.87) rotate(-30)" fill="#173d7a"/><path d="M147.36,89.86c-12.74-7.35-23.06-25.24-23.06-39.94,0-7.73,2.84-13,7.39-15.27-5.17,1.89-8.47,7.41-8.47,15.73,0,14.71,10.32,32.59,23.06,39.94,6.05,3.49,11.55,4,15.67,2C158,93.74,152.89,93.06,147.36,89.86Z" transform="translate(-12.63 -6.81)" fill="#fff"/><g clip-path="url(#clip-path)"><polygon points="130.2 51.37 163.66 25.5 175.81 46.58 136.53 62.69 130.2 51.37" fill="#d4ecff"/><path d="M150.89,66.35c0,2.94-2.06,4.13-4.61,2.66a10.19,10.19,0,0,1-4.6-8c0-2.93,2.06-4.12,4.6-2.65A10.15,10.15,0,0,1,150.89,66.35Z" transform="translate(-12.63 -6.81)" fill="#5793ce"/></g><path d="M193.13,80.35l-.18-.11a2.89,2.89,0,0,1-1.22-2.31l0-6.45c0-.89.54-1.3,1.21-.92l.18.1A2.93,2.93,0,0,1,194.32,73v6.46C194.34,80.32,193.8,80.73,193.13,80.35Z" transform="translate(-12.63 -6.81)" fill="#fff"/><ellipse cx="230.18" cy="162.96" rx="34.36" ry="19.84" fill="#092e63"/><path d="M285.53,142.85v-12h-2.27A27.23,27.23,0,0,0,273,121.28c-16.69-9.64-43.73-9.64-60.42,0a27.27,27.27,0,0,0-10.25,9.58h-2.26v11.93h0c0,6.33,4.13,12.67,12.5,17.5,16.69,9.64,43.73,9.64,60.42,0C281.36,155.48,285.53,149.17,285.53,142.85Z" transform="translate(-12.63 -6.81)" fill="#424aa0"/><path d="M273,121.28c-8.35-4.82-19.28-7.23-30.21-7.23v53.47c10.93,0,21.87-2.41,30.21-7.22s12.51-11.13,12.51-17.45v-12h-2.27A27.23,27.23,0,0,0,273,121.28Z" transform="translate(-12.63 -6.81)" fill="#3436a0"/><ellipse cx="230.18" cy="124.05" rx="42.72" ry="24.66" fill="#424aa0"/><path d="M273,148.3c-16.69,9.63-43.73,9.63-60.42,0-8-4.62-12.11-10.61-12.44-16.66-.36,6.58,3.76,13.21,12.44,18.23,16.69,9.63,43.73,9.63,60.42,0,8.68-5,12.8-11.65,12.44-18.22C285.13,137.69,281,143.68,273,148.3Z" transform="translate(-12.63 -6.81)" fill="#fff"/><path d="M225.78,131.94l16.72-9.66c1.9-1.09,5.12-.61,5.88.87l7,13.71c.8,1.55-1.7,3-4.38,2.53l-23.76-4.06C224.71,134.9,223.89,133,225.78,131.94Z" transform="translate(-12.63 -6.81)" fill="#fff"/><polygon points="223.49 200.71 155.29 161.33 157.1 160.29 225.3 199.67 223.49 200.71" fill="#79b1e0"/><polygon points="177.29 175.18 154.3 161.9 158.08 159.72 181.07 172.99 177.29 175.18" fill="#d4ecff"/><polygon points="176.39 175.9 175.42 175.35 181.36 171.92 182.33 172.47 176.39 175.9" fill="#fff"/><path d="M14,278.2a1.31,1.31,0,0,1-.63-.16,1.37,1.37,0,0,1-.58-1.85,15.37,15.37,0,0,1,5.6-6.15A7,7,0,0,1,22.33,269c1.77.1,4-1.25,5.88-3.56a13.36,13.36,0,0,1,3.56-3.08,7,7,0,0,1,3.94-1.09c1.81.08,4-1.24,5.89-3.56a13.36,13.36,0,0,1,3.56-3.08,7.09,7.09,0,0,1,3.94-1.09c1.78.08,4-1.24,5.89-3.55a13.08,13.08,0,0,1,3.56-3.09,6.25,6.25,0,0,1,5.64-.7,1.37,1.37,0,1,1-1.1,2.51,3.68,3.68,0,0,0-3.17.56,10.9,10.9,0,0,0-2.83,2.47c-2.5,3-5.43,4.67-8.12,4.53a4.73,4.73,0,0,0-2.44.73,10.81,10.81,0,0,0-2.82,2.46c-2.51,3-5.44,4.69-8.13,4.54a4.78,4.78,0,0,0-2.44.73,10.79,10.79,0,0,0-2.82,2.46c-2.5,3-5.44,4.68-8.13,4.54a4.69,4.69,0,0,0-2.44.73,12.64,12.64,0,0,0-4.53,5A1.38,1.38,0,0,1,14,278.2Z" transform="translate(-12.63 -6.81)" fill="#fff"/><path d="M359.76,96a5.71,5.71,0,0,1-2.89-.75c-2.05-1.18-3.18-3.56-3.18-6.71,0-6,4.09-13.09,9.3-16.1,2.73-1.58,5.35-1.79,7.4-.61s3.17,3.56,3.17,6.71c0,6-4.08,13.09-9.29,16.1A9.08,9.08,0,0,1,359.76,96Zm7.73-22.37a6.61,6.61,0,0,0-3.22,1c-4.43,2.56-8,8.79-8,13.9,0,2.2.68,3.8,1.9,4.5s2.95.49,4.85-.61c4.43-2.55,8-8.78,8-13.89,0-2.2-.67-3.8-1.89-4.5A3.19,3.19,0,0,0,367.49,73.58Z" transform="translate(-12.63 -6.81)" fill="#fff"/></svg>