<?xml version="1.0" encoding="utf-8"?>
<!-- Generator: Adobe Illustrator 24.1.3, SVG Export Plug-In . SVG Version: 6.00 Build 0)  -->
<svg version="1.1" id="_x2014_ÎÓÈ_x5F_1" xmlns="http://www.w3.org/2000/svg" xmlns:xlink="http://www.w3.org/1999/xlink"
	 x="0px" y="0px" viewBox="0 0 317.2 312.9" style="enable-background:new 0 0 317.2 312.9;" xml:space="preserve">
<style type="text/css">
	._x005B_œÓ_x0020_ÛÏÓÎ˜‡ÌË˛_x005D_{fill:#FFFFFF;stroke:#231F20;stroke-miterlimit:10;}
	.st0{opacity:0.5;fill:#173D7A;}
	.st1{fill:#424AA0;}
	.st2{fill:#FFFFFF;}
	.st3{fill:#5793CE;}
	.st4{fill:#173D7A;}
	.st5{fill:#396CAA;}
	.st6{fill:#D4ECFF;}
	.st7{fill:#424A88;}
	.st8{fill:#FDD762;}
	.st9{fill:#E8A200;}
	.st10{fill:#F9BF30;}
	.st11{fill:#092E63;}
	.st12{fill:#F2B42A;}
</style>
<g>
	<g>
		<path class="st0" d="M86.4,141c-8.7,4.6-22.9,4.6-31.6,0c-8.7-4.6-8.7-12,0-16.6c8.7-4.6,22.9-4.6,31.6,0
			C95.2,129,95.2,136.4,86.4,141z"/>
		<path class="st1" d="M96.1,122.6v-6.5h-1.3c-1.2-1.9-3.2-3.7-6.1-5.2c-9.9-5.2-26-5.2-36,0c-2.9,1.5-4.9,3.3-6.1,5.2h-1.3v6.5h0
			c0,3.4,2.5,6.9,7.4,9.5c9.9,5.2,26,5.2,36,0C93.6,129.5,96.1,126.1,96.1,122.6z"/>
		<ellipse class="st1" cx="70.6" cy="116.1" rx="25.4" ry="13.4"/>
		<path class="st2" d="M88.6,125.6c-9.9,5.2-26,5.2-36,0c-4.8-2.5-7.2-5.8-7.4-9c-0.2,3.6,2.2,7.2,7.4,9.9c9.9,5.2,26,5.2,36,0
			c5.2-2.7,7.6-6.3,7.4-9.9C95.8,119.8,93.4,123.1,88.6,125.6z"/>
	</g>
	<g>
		<path class="st2" d="M58.4,120.5c-0.4-0.2-0.7-0.5-0.7-0.9l0-8.7c0-0.7,1-1.2,2.3-1.2c1.3,0,2.3,0.5,2.3,1.2l0,7.2l23-2.6
			c1.2-0.1,2.5,0.3,2.7,0.9c0.3,0.7-0.5,1.3-1.8,1.4l-25.8,2.9c-0.7,0.1-1.4,0-1.9-0.2C58.5,120.6,58.4,120.6,58.4,120.5z"/>
	</g>
</g>
<g>
	<g>
		<path class="st0" d="M306.1,177.2l-85.7-49.6c-4.7-2.7-12.8-2.4-18.2,0.7L22.4,231.8c-5.4,3.1-6,7.8-1.3,10.5l85.7,49.6
			c4.7,2.7,12.8,2.4,18.2-0.7l179.8-103.5C310.2,184.6,310.8,179.9,306.1,177.2z"/>
		<path class="st3" d="M104.3,273.6l-89.2-51.6c-2.9-1.7-4.3-4-4.2-6.4l0,0l0-12.9l5,5.8c0.3-0.2,0.6-0.4,1-0.6l182.4-105
			c7.2-4.2,18.2-4.6,24.5-1l87.9,50.9c1.8-1.9,5.5-6.1,5.5-6.1l0,12.7l0,0c0.1,2.9-1.9,5.9-6,8.2l-182.4,105
			C121.5,276.7,110.6,277.2,104.3,273.6z"/>
		<path class="st4" d="M56.1,241.9l5.1,3c0.7,0.4,1.2,0,1.2-0.9l0,0c0-0.9-0.6-2-1.2-2.4l-5.1-3c-0.7-0.4-1.2,0-1.2,0.9l0,0
			C54.9,240.4,55.4,241.5,56.1,241.9z"/>
		<path class="st5" d="M199.3,102.8c7.2-4.2,18.2-4.6,24.5-1l87.9,50.9c1.8-1.9,5.5-6.1,5.5-6.1l0,12.7l0,0c0.1,2.9-1.9,5.9-6,8.2
			l-182.4,105c-3.8,2.2-8.6,3.3-13.2,3.4l0.2-125.1L199.3,102.8z"/>
		<path class="st6" d="M313,140.5l-89.2-51.6c-6.3-3.6-17.2-3.2-24.5,1L17,194.8c-7.2,4.2-8,10.5-1.8,14.1l89.2,51.6
			c6.3,3.6,17.2,3.2,24.5-1l182.4-105C318.5,150.4,319.3,144.1,313,140.5z"/>
		<path class="st2" d="M104.3,261.9l-89.2-51.6c-3.2-1.9-4.6-4.5-4.1-7.1c0.2,2.1,1.5,4.2,4.2,5.7l89.2,51.6
			c6.3,3.6,17.2,3.2,24.5-1l182.4-105c3.5-2,5.5-4.5,5.9-7c0.2,2.9-1.8,6-6,8.4l-182.4,105C121.5,265.1,110.5,265.6,104.3,261.9z"/>
		<path class="st4" d="M306.1,142.5l-85.7-49.6c-4.7-2.7-12.8-2.4-18.2,0.7L22.4,197.1c-5.4,3.1-6,7.8-1.3,10.5l85.7,49.6
			c4.7,2.7,12.8,2.4,18.2-0.7L304.8,153C310.2,149.9,310.8,145.2,306.1,142.5z"/>
	</g>
	<g>
		<polygon class="st6" points="128.4,231.4 67.9,196.5 71.8,194.3 132.3,229.2 		"/>
		<polygon class="st6" points="86.3,221.3 55.7,203.6 59.6,201.4 90.2,219 		"/>
		<polygon class="st1" points="101.2,229.8 91.2,224.1 95.1,221.9 105,227.6 		"/>
		<polygon class="st2" points="116.2,238.5 106.2,232.8 110.1,230.5 120,236.3 		"/>
		<polygon class="st2" points="86.7,214.4 61.8,200.1 65.7,197.8 90.5,212.2 		"/>
		<polygon class="st6" points="117,231.9 92.1,217.6 96,215.3 120.9,229.7 		"/>
		<g>
			<path class="st2" d="M105.3,205.1c-1.2,0.7-3.3,0.7-4.5,0c-1.2-0.7-1.2-1.9,0-2.6c1.2-0.7,3.3-0.7,4.5,0
				C106.6,203.3,106.6,204.4,105.3,205.1z"/>
			<path class="st6" d="M112.1,209c-1.2,0.7-3.3,0.7-4.5,0c-1.2-0.7-1.2-1.9,0-2.6c1.2-0.7,3.3-0.7,4.5,0
				C113.3,207.1,113.3,208.3,112.1,209z"/>
			<path class="st2" d="M118.4,212.6c-1.2,0.7-3.3,0.7-4.5,0c-1.2-0.7-1.2-1.9,0-2.6c1.2-0.7,3.3-0.7,4.5,0S119.7,211.9,118.4,212.6
				z"/>
		</g>
	</g>
	<g>
		<polygon class="st1" points="260.7,142.9 250.6,137 254.5,134.7 264.7,140.6 		"/>
		<polygon class="st2" points="274.9,151.1 264.7,145.2 268.7,142.9 278.9,148.8 		"/>
		<polygon class="st2" points="215.3,116.4 205.1,110.5 209,108.2 219.2,114.1 		"/>
		<polygon class="st2" points="258.5,148.8 244.3,140.6 248.3,138.3 262.4,146.5 		"/>
		<polygon class="st6" points="268.7,154.7 262.4,151.1 266.4,148.8 272.6,152.4 		"/>
	</g>
</g>
<g>
	<g>
		<polygon class="st0" points="290.3,116.5 273,106.6 290.3,96.6 307.5,106.6 		"/>
		<polygon class="st7" points="307.5,93.9 290.3,103.9 290.3,84 307.5,74 		"/>
		<polygon class="st1" points="290.3,84 273,74 290.3,64.1 307.5,74 		"/>
		<polygon class="st1" points="290.3,103.9 273,93.9 273,74 290.3,84 		"/>
	</g>
	<polygon class="st2" points="284,93.1 279.2,90.3 279.2,84.8 284,87.6 	"/>
</g>
<g>
	<g>
		<polygon class="st0" points="29.9,304 11.9,293.7 29.9,283.3 47.8,293.7 		"/>
		<polygon class="st4" points="47.8,280.5 29.9,290.9 29.9,270.2 47.8,259.8 		"/>
		<polygon class="st6" points="29.9,270.2 11.9,259.8 29.9,249.5 47.8,259.8 		"/>
		<polygon class="st3" points="29.9,290.9 11.9,280.5 11.9,259.8 29.9,270.2 		"/>
	</g>
	<polygon class="st2" points="23.4,279.7 18.4,276.8 18.4,271 23.4,273.9 	"/>
</g>
<g>
	<polygon class="st0" points="235.6,278.1 253.4,267.8 271.2,278.1 253.4,288.4 	"/>
	<polygon class="st0" points="203.6,297.4 221.4,287.1 239.2,297.4 221.4,307.7 	"/>
	<g>
		<polygon class="st0" points="267.6,259.8 285.5,249.5 303.3,259.8 285.5,270.1 		"/>
		<polygon class="st8" points="285.5,259.8 285.5,226.7 265.1,214.9 265.1,248.1 		"/>
		<polygon class="st9" points="285.5,226.7 305.8,214.9 305.8,248.1 285.5,259.8 		"/>
		<polygon class="st8" points="265.1,214.9 285.5,203.2 305.8,214.9 285.5,226.7 		"/>
		<polygon class="st8" points="285.5,228.3 305.8,216.6 305.8,217.7 285.5,229.4 265.1,217.7 265.1,216.6 		"/>
	</g>
	<g>
		<g>
			<polygon class="st1" points="253.4,278.6 253.4,231.4 233.1,219.6 233.1,266.9 			"/>
			<polygon class="st7" points="253.4,231.4 273.8,219.6 273.8,266.9 253.4,278.6 			"/>
			<polygon class="st1" points="233.1,219.6 253.4,207.9 273.8,219.6 253.4,231.4 			"/>
		</g>
		<polygon class="st7" points="253.4,233 273.8,221.3 273.8,222.4 253.4,234.1 233.1,222.4 233.1,221.3 		"/>
	</g>
	<g>
		<polygon class="st3" points="221.4,297.4 221.4,276.7 201.1,265 201.1,285.7 		"/>
		<polygon class="st5" points="221.4,276.7 241.7,265 241.7,285.7 221.4,297.4 		"/>
		<polygon class="st6" points="201.1,265 221.4,253.3 241.7,265 221.4,276.7 		"/>
	</g>
	<polygon class="st3" points="221.4,278.4 241.7,266.7 241.7,267.7 221.4,279.5 201.1,267.7 201.1,266.7 	"/>
</g>
<g>
	<g>
		<path class="st8" d="M130,11.9l-6-3.5c-4.6-2.7-8.9-3.1-12.2-1.4l0,0l-6.1,3.4l2.4,0.1c-0.6,1-1,2-1.3,3.2
			c3.9,0.2,7.7,0.9,9.4,3.6c0.4-0.3,0.8-0.6,1.2-0.8l6.7,7.7l5.9-3.3L130,11.9L130,11.9z"/>
		<path class="st9" d="M131.3,57c-5.3-3.1-10.2-9.5-12.4-16.3l-4-12.2c-1.4-4.5-1.2-8.3,0.7-10.6c0.2-0.2,0.4-0.4,0.6-0.6
			c-1.6-2.6-5.5-3.4-9.4-3.6c-1.1,3.9-0.7,9,1,14.5l3.2,9.9l-1.1,1.5c0,0,7.5,19,7.9,19.2c0.3,0.2,3.7,0.9,6,1.3
			c2.3,2.4,4.9,4.4,7.4,5.9L150,76.8v6.7l5.9-3.3l0,0v-9L131.3,57z"/>
		<path class="st10" d="M125.4,60.3c-5.3-3.1-10.2-9.5-12.4-16.3l-4-12.2c-1.4-4.5-1.2-8.3,0.7-10.6c1.9-2.3,4.9-2.5,8.4-0.5l6,3.5
			v-9l-6-3.5c-6.1-3.5-11.7-3.2-14.9,0.8c-3.3,4-3.7,11.1-1.2,18.9l4,12.2c3.5,10.7,11.1,20.8,19.5,25.6L150,83.5v-9L125.4,60.3z"/>
	</g>
	<g>
		<g>
			<g>
				<g>
					<ellipse class="st11" cx="165.8" cy="173.9" rx="36.7" ry="21.2"/>
					<path class="st5" d="M205.3,139.7l-9.1,0.1c-0.7-0.5-1.4-0.9-2.1-1.3c-14.9-8.6-39.1-8.6-54.1,0c-0.9,0.5-1.8,1.1-2.6,1.7
						l-8.6,0.1V154l0,0c0,5.6,3.7,11.3,11.2,15.6c14.9,8.6,39.1,8.6,54.1,0c7.5-4.3,11.2-10,11.2-15.6l0,0V139.7z"/>
					<path class="st3" d="M165.8,132c-9.4,0.2-18.6,2.3-25.8,6.4c-0.9,0.5-1.8,1.1-2.6,1.7l-8.6,0.1V154c0,5.6,3.7,11.3,11.2,15.6
						c7.1,4.1,16.4,6.3,25.8,6.4V132z"/>
					<path class="st6" d="M134.1,140.1l-5.3,0V154c0,3.9,1.8,7.7,5.3,11.2V140.1z"/>
					<ellipse class="st6" cx="167.1" cy="139.7" rx="38.2" ry="22.1"/>
					<path class="st2" d="M194.1,155.3c-14.9,8.6-39.1,8.6-54.1,0c-7.1-4.1-10.8-9.4-11.2-14.8c-0.4,5.9,3.3,11.9,11.2,16.5
						c14.9,8.6,39.1,8.6,54.1,0c7.8-4.5,11.6-10.5,11.2-16.5C204.9,145.9,201.2,151.2,194.1,155.3z"/>
				</g>
				<g>
					<path class="st5" d="M188.2,133.7c-0.5-0.3-1-0.6-1.5-1c-10.8-6.3-28.4-6.3-39.2,0c-0.7,0.4-1.3,0.8-1.9,1.2l-2.4,0v12.9
						c1.2,1.1,2.6,2.2,4.3,3.2c10.8,6.3,28.4,6.3,39.2,0c5.4-3.1,8.1-7.2,8.1-11.3v-5.1L188.2,133.7z"/>
					<path class="st3" d="M147.5,132.7c-0.7,0.4-1.3,0.8-1.9,1.2l-2.4,0v12.9c1.2,1.1,2.6,2.2,4.3,3.2c5.2,3,11.9,4.5,18.7,4.7V128
						C159.4,128.2,152.7,129.7,147.5,132.7z"/>
					<path class="st3" d="M143.2,133.9l-3.8,0v4.8c0,2.8,1.3,5.6,3.8,8.1V133.9z"/>
					<ellipse class="st3" cx="167.1" cy="133.6" rx="27.7" ry="16"/>
				</g>
			</g>
			<g>
				<g>
					<g>
						<g>
							<g>
								<path class="st2" d="M152.2,120.6c8.2,4.7,21.5,4.7,29.7,0c8.2-4.7,8.2-12.4,0-17.2c-8.2-4.7-21.5-4.7-29.7,0
									C144,108.1,144,115.8,152.2,120.6z"/>
							</g>
						</g>
						<g>
							<g>
								<path class="st10" d="M142.6,124.1c4.4-3.3,3.6-6.5,3.6-6.5l3.3,4c10.2-4.9,25.1-4.9,35.2,0l3.4-4c0,0-0.9,3.2,3.6,6.5
									c4.4,3.3,3,9.7,3,9.7l0,0c0,4.1-2.7,8.1-8.1,11.2c-10.7,6.2-28.2,6.2-38.9,0c-5.4-3.1-8.1-7.2-8.1-11.2
									C139.6,133.8,138.1,127.4,142.6,124.1z"/>
							</g>
						</g>
						<g>
							<g>
								<path class="st9" d="M182.5,125.1c0,0-7.9-4.7-7.9-5.7c0-0.1,0.2-0.4,0.4-0.7c3.5,0.6,6.8,1.6,9.8,3l3.4-4
									c0,0-0.9,3.2,3.6,6.5c4.4,3.3,3,9.7,3,9.7l0,0c0,2.2-0.8,4.4-2.4,6.5c0.1-0.5,0.9-7.2-4.1-9.3
									C182.9,128.7,182.5,125.1,182.5,125.1z"/>
							</g>
						</g>
						<g>
							<g>
								<path class="st9" d="M152.2,125.4c8.2,4.7,21.5,4.7,29.7,0c8.2-4.7,8.2-12.4,0-17.2c-8.2-4.7-21.5-4.7-29.7,0
									C144,113,144,120.6,152.2,125.4z"/>
							</g>
						</g>
						<g>
							<g>
								<path class="st10" d="M222,34.9c-0.6,30.6-16.3,34.3-24.8,45.8c-7.9,10.7-7,26.2-6.8,28.2c0,0.1,0,0.2,0,0.2v0l0,0
									c0,3.5-2.3,6.9-6.8,9.5c-9.1,5.3-23.9,5.3-33,0c-4.3-2.5-6.5-5.7-6.8-8.9l-0.1,0v-0.6l0,0c0-0.1,0-0.1,0-0.2
									c0.2-2,1.1-17.5-6.8-28.2c-8.4-11.5-24.2-15.2-24.8-45.8H222z"/>
							</g>
						</g>
						<path class="st9" d="M181.9,68.3c0,0-1.3,3.7-5.3,14.1c-4,10.5-2.1,37-2.1,37l6.8,0.5c0.8-0.4,1.6-0.7,2.3-1.2
							c4.6-2.6,6.8-6.1,6.8-9.5l0,0c0-0.1,0-0.2,0-0.2c-0.2-2-1.1-17.5,6.8-28.2c8.4-11.5,24.2-15.2,24.8-45.8h-6L181.9,68.3z"/>
						<g>
							<g>
								<ellipse class="st8" cx="167.1" cy="34.9" rx="55" ry="31.7"/>
							</g>
						</g>
						<path class="st2" d="M128.2,57.4c21.5,12.4,56.3,12.4,77.7,0c10.1-5.8,15.5-13.4,16-21c0.6,8.6-4.7,17.3-16,23.8
							c-21.5,12.4-56.3,12.4-77.7,0c-11.3-6.5-16.7-15.3-16-23.8C112.8,44,118.1,51.5,128.2,57.4z"/>
						<g>
							<g>
								<ellipse class="st12" cx="167.1" cy="34.9" rx="46.1" ry="26.6"/>
							</g>
						</g>
						<path class="st9" d="M134.5,53.8c7.5,4.4,17.1,6.9,26.9,7.6c1.5-1.9,2.1-4,1.4-6.2C158,40.7,159.8,11,159.8,11l-8.7-1
							c-6.1,1.3-11.8,3.3-16.7,6.1C116.5,26.5,116.5,43.4,134.5,53.8z"/>
						<path class="st2" d="M199.7,18.5c-18-10.4-47.2-10.4-65.2,0c-8.5,4.9-13,11.2-13.5,17.6c-0.6-7.2,3.9-14.5,13.5-20
							c18-10.4,47.2-10.4,65.2,0c9.5,5.5,14,12.8,13.5,20C212.7,29.7,208.2,23.4,199.7,18.5z"/>
						<path class="st9" d="M189.7,58.2c-14,4.5-31.2,4.5-45.2,0c0.5-0.3,1-0.6,1.5-0.9c11.6-6.7,30.5-6.7,42.2,0
							C188.7,57.5,189.2,57.8,189.7,58.2z"/>
					</g>
				</g>
				<g>
					<path class="st2" d="M143.8,108.9c0-0.2,0-0.7,0.1-1.3c0.4,3.2,2.6,6.2,6.7,8.7c9.1,5.3,23.9,5.3,33,0c4.1-2.4,6.3-5.4,6.8-8.5
						c0,0.5,0,0.9,0.1,1.1c0,0.1,0,0.2,0,0.2l0,0c0,3.5-2.3,6.9-6.8,9.5c-9.1,5.3-23.9,5.3-33,0c-4.3-2.5-6.5-5.7-6.8-8.9l-0.1,0
						v-0.6l0,0C143.7,109.1,143.8,109,143.8,108.9z"/>
				</g>
			</g>
		</g>
	</g>
	<g>
		<g>
			<path class="st9" d="M228.9,80.8c-3.3-7.8-8.9-14.5-14.9-18.1l-6-3.5h0l-5.9,3.3l0.3,2.1l8.1,8.7L222,89.8l1.9-1.1
				c0,1.7-0.3,3.2-0.9,4.5l-4,7.6c-0.6,1.2-1.5,2.1-2.5,2.8c1.3,3.2,1.8,6.6-0.3,9.5l-1.3,0l0.4,1.1c-0.2,0.2-0.3,0.3-0.5,0.5
				c0.2,0,0.5,0,0.7,0l0.7,1.8l5.9-3.3h0c1.6-1,3-2.5,4-4.4l4-7.6C232.6,96.2,232.1,88.6,228.9,80.8z"/>
			<path class="st9" d="M216.5,103.6c-2.5,1.6-6.1,1.4-9.9-0.8L182,88.6l0,0l-5.9,3.3l1.7,2.9L182,96v1.6l24.6,14.2
				c2.9,1.7,5.6,2.6,8.2,2.8C218.5,111.4,218.1,107.4,216.5,103.6z"/>
			<path class="st8" d="M213.9,62.7l-6-3.5h0l-5.9,3.3l0.3,2.1l8.1,8.7l6.4,9.1l10-5.8C223.5,70.6,218.9,65.6,213.9,62.7z"/>
			<g>
				<path class="st10" d="M200.7,115.1L176.2,101v-9l24.6,14.2c5.3,3.1,10.2,2.3,12.4-2l4-7.6c1.4-2.8,1.2-6.9-0.7-11.4
					c-1.9-4.4-4.9-8.1-8.4-10.1l-6-3.5v-9l6,3.5c6.1,3.5,11.7,10.3,14.9,18.1c3.3,7.8,3.7,15.4,1.2,20.3l-4,7.6
					C216.7,118.7,209.1,119.9,200.7,115.1z"/>
			</g>
		</g>
	</g>
</g>
</svg>
