<svg id="_ÎÓÈ_1" data-name="—ÎÓÈ_1" xmlns="http://www.w3.org/2000/svg" xmlns:xlink="http://www.w3.org/1999/xlink" viewBox="0 0 323.13 378.71"><defs><linearGradient id="_ÂÁ_Ï_ÌÌ_È_ËÂÌÚ_14" x1="18.94" y1="350.11" x2="18.94" y2="11.28" gradientTransform="matrix(-1, 0, 0, 1, 163.26, 0)" gradientUnits="userSpaceOnUse"><stop offset="0" stop-color="#5778ff"/><stop offset="0.18" stop-color="#5c7dff"/><stop offset="0.39" stop-color="#6a8aff"/><stop offset="0.61" stop-color="#82a0ff"/><stop offset="0.85" stop-color="#a3beff"/><stop offset="1" stop-color="#bcd5ff"/></linearGradient><linearGradient id="_ÂÁ_Ï_ÌÌ_È_ËÂÌÚ_11" x1="-26.94" y1="101.6" x2="-26.94" y2="77.33" gradientTransform="matrix(-1, 0, 0, 1, 163.26, 0)" gradientUnits="userSpaceOnUse"><stop offset="0" stop-color="#c0d6ff"/><stop offset="0.3" stop-color="#c5dbff"/><stop offset="0.65" stop-color="#d3e9ff"/><stop offset="1" stop-color="#e9ffff"/></linearGradient><linearGradient id="_ÂÁ_Ï_ÌÌ_È_ËÂÌÚ_11-2" x1="72.96" y1="582.75" x2="72.96" y2="352.85" gradientTransform="matrix(-0.87, -0.5, 0, 1.15, 200.46, -319.16)" xlink:href="#_ÂÁ_Ï_ÌÌ_È_ËÂÌÚ_11"/><linearGradient id="_ÂÁ_Ï_ÌÌ_È_ËÂÌÚ_35" x1="-5.67" y1="179.19" x2="47.98" y2="82.6" gradientTransform="matrix(-1, 0, 0, 1, 163.26, 0)" gradientUnits="userSpaceOnUse"><stop offset="0" stop-color="#5778ff"/><stop offset="0.04" stop-color="#5c7dff"/><stop offset="0.09" stop-color="#6a8aff"/><stop offset="0.14" stop-color="#82a0ff"/><stop offset="0.19" stop-color="#a3beff"/><stop offset="0.22" stop-color="#bcd5ff"/></linearGradient><linearGradient id="_ÂÁ_Ï_ÌÌ_È_ËÂÌÚ_11-3" x1="60.24" y1="179.54" x2="24.53" y2="109.73" xlink:href="#_ÂÁ_Ï_ÌÌ_È_ËÂÌÚ_11"/><linearGradient id="_ÂÁ_Ï_ÌÌ_È_ËÂÌÚ_34" x1="112.23" y1="326.62" x2="0.34" y2="128.36" gradientTransform="matrix(-1, 0, 0, 1, 163.26, 0)" gradientUnits="userSpaceOnUse"><stop offset="0" stop-color="#c0d6ff"/><stop offset="0.12" stop-color="#d0e6ff"/><stop offset="0.26" stop-color="#e9ffff"/><stop offset="0.51" stop-color="#c0d6ff"/><stop offset="0.62" stop-color="#d0e6ff"/><stop offset="0.75" stop-color="#e9ffff"/><stop offset="1" stop-color="#c0d6ff"/></linearGradient><linearGradient id="_ÂÁ_Ï_ÌÌ_È_ËÂÌÚ_13" x1="296.53" y1="223.15" x2="226.35" y2="279.42" gradientUnits="userSpaceOnUse"><stop offset="0" stop-color="#bcd5ff"/><stop offset="0.15" stop-color="#a3beff"/><stop offset="0.39" stop-color="#82a0ff"/><stop offset="0.61" stop-color="#6a8aff"/><stop offset="0.82" stop-color="#5c7dff"/><stop offset="1" stop-color="#5778ff"/></linearGradient><linearGradient id="_ÂÁ_Ï_ÌÌ_È_ËÂÌÚ_11-4" x1="86.64" y1="536.41" x2="22.84" y2="587.56" gradientTransform="matrix(0.87, 0.5, -1, 0.58, 771.17, -112.73)" xlink:href="#_ÂÁ_Ï_ÌÌ_È_ËÂÌÚ_11"/><linearGradient id="_ÂÁ_Ï_ÌÌ_È_ËÂÌÚ_13-2" x1="296.53" y1="204.68" x2="226.35" y2="260.96" xlink:href="#_ÂÁ_Ï_ÌÌ_È_ËÂÌÚ_13"/><linearGradient id="_ÂÁ_Ï_ÌÌ_È_ËÂÌÚ_11-6" x1="68.17" y1="520.42" x2="4.38" y2="571.57" gradientTransform="matrix(0.87, 0.5, -1, 0.58, 771.17, -112.73)" xlink:href="#_ÂÁ_Ï_ÌÌ_È_ËÂÌÚ_11"/></defs><path d="M209.06,366.29a9.1,9.1,0,0,1-4.46-1L47.9,274.8A3.38,3.38,0,0,1,46,272c0-1.32,1-2.62,2.62-3.58l13.64-7.88c3-1.73,7.58-1.91,10.19-.4l156.71,90.47a3.37,3.37,0,0,1,1.91,2.85c0,1.32-1,2.62-2.61,3.58l-13.64,7.88A11.85,11.85,0,0,1,209.06,366.29ZM68,260a10.85,10.85,0,0,0-5.27,1.32l-13.64,7.87c-1.36.79-2.14,1.8-2.14,2.77a2.46,2.46,0,0,0,1.44,2l156.7,90.47c2.36,1.37,6.51,1.18,9.26-.4L228,356.17c1.36-.78,2.14-1.79,2.14-2.76a2.46,2.46,0,0,0-1.44-2L72,260.91A8,8,0,0,0,68,260Z" transform="translate(-5.73 -11.28)" fill="#e6e7e8"/><path d="M298.75,316.38a6.66,6.66,0,0,1-3.35-.9l-25.91-15a1.72,1.72,0,0,1,0-3l25.91-15a6.71,6.71,0,0,1,6.69,0l25.91,15a1.72,1.72,0,0,1,0,3l-25.91,15A6.65,6.65,0,0,1,298.75,316.38Zm0-33.76a5.68,5.68,0,0,0-2.88.77l-25.91,15a.76.76,0,0,0-.39.68.77.77,0,0,0,.39.68l25.91,15a5.78,5.78,0,0,0,5.75,0l25.91-15a.77.77,0,0,0,.39-.68.76.76,0,0,0-.39-.68l-25.91-15A5.67,5.67,0,0,0,298.75,282.62Z" transform="translate(-5.73 -11.28)" fill="#e6e7e8"/><path d="M78.69,19l13.13-7.56v0a2,2,0,0,1,1.94.18l113.1,65.29A7.4,7.4,0,0,1,210,82.82V340.07a2.69,2.69,0,0,1-1.09,2.48h0l-13.13,7.55-.29-14.3L93.77,277.1a7.38,7.38,0,0,1-3.08-5.88V25.75c-.26.84-.46,1.45-.49,1.47S78.69,19,78.69,19Z" transform="translate(-5.73 -11.28)" fill="url(#_ÂÁ_Ï_ÌÌ_È_ËÂÌÚ_14)"/><path d="M209.87,81.87,175.69,101.6l-5.16-3,36.89-21.29A7.68,7.68,0,0,1,209.87,81.87Z" transform="translate(-5.73 -11.28)" fill="url(#_ÂÁ_Ï_ÌÌ_È_ËÂÌÚ_11)"/><path d="M80.73,284.61l113.09,65.3c1.7,1,3.08-.06,3.08-2.33V90.33a7.36,7.36,0,0,0-3.08-5.88L80.73,19.15c-1.7-1-3.08.06-3.08,2.33V278.73A7.36,7.36,0,0,0,80.73,284.61Z" transform="translate(-5.73 -11.28)" fill="url(#_ÂÁ_Ï_ÌÌ_È_ËÂÌÚ_11-2)"/><polygon points="71.91 253.37 191.17 322.22 191.17 93.13 71.91 24.28 71.91 253.37" fill="#242993"/><polygon points="71.91 253.37 191.17 322.22 191.17 93.13 71.91 24.28 71.91 253.37" fill="#242993"/><g opacity="0.51"><polygon points="71.91 245.33 191.17 314.18 191.17 100.47 71.91 31.62 71.91 245.33" fill="#424aa0"/></g><path d="M128,58l21.57,12.5c.63.37,1.17.47,1.4-.12a1.94,1.94,0,0,0,.12-.72h0a3.66,3.66,0,0,0-1.52-2.92l-21.8-12.58c-.07,0-.13-.12-.19-.1-.69.19-.8.33-.8,1.36l.09.29A2.29,2.29,0,0,0,128,58Z" transform="translate(-5.73 -11.28)" fill="#5778ff"/><path d="M127.55,54.09a1.94,1.94,0,0,0-.12.72A3.61,3.61,0,0,0,129,57.72l21.8,12.59a1.63,1.63,0,0,0,.19.09.89.89,0,0,1-1.4.43l-21.8-12.59a3.64,3.64,0,0,1-1.52-2.91C126.23,54.3,126.81,53.79,127.55,54.09Z" transform="translate(-5.73 -11.28)" fill="#bcd5ff"/><path d="M203.86,111.68l.24-.14a1.06,1.06,0,0,1,1.05-.09h0l.93.53-.46,0a2,2,0,0,1,.14.78v14.9a3.93,3.93,0,0,1-1.66,3.15l-.24.15a1.88,1.88,0,0,1-.34.14l.24.5-1-.56h0a1.43,1.43,0,0,1-.59-1.33v-14.9A4,4,0,0,1,203.86,111.68Z" transform="translate(-5.73 -11.28)" fill="#e9ffff"/><path d="M204.79,131.52l.25-.14a4,4,0,0,0,1.65-3.16V113.33c0-1.22-.74-1.78-1.65-1.25l-.25.14a4,4,0,0,0-1.65,3.16v14.89C203.14,131.49,203.88,132.05,204.79,131.52Z" transform="translate(-5.73 -11.28)" fill="#bcd5ff"/><path d="M203.86,134.42l.24-.14a1.07,1.07,0,0,1,1.05-.1h0l.93.53-.46,0a2.07,2.07,0,0,1,.14.79v14.89a4,4,0,0,1-1.66,3.16l-.24.14a1.42,1.42,0,0,1-.34.15l.24.5-1-.57h0a1.43,1.43,0,0,1-.59-1.33v-14.9A3.94,3.94,0,0,1,203.86,134.42Z" transform="translate(-5.73 -11.28)" fill="#e9ffff"/><path d="M204.79,154.26l.25-.14a4,4,0,0,0,1.65-3.16v-14.9c0-1.21-.74-1.77-1.65-1.25l-.25.15a4,4,0,0,0-1.65,3.15V153C203.14,154.23,203.88,154.79,204.79,154.26Z" transform="translate(-5.73 -11.28)" fill="#bcd5ff"/><path d="M77.65,278.73v-145c4.4-12.22,13.18-23.89,23.3-29.73h0l79.54,45.92c-14.53,8.39-26.31,28.79-26.31,45.57v127a34.78,34.78,0,0,1-.32,4.39L80.73,284.61A7.36,7.36,0,0,1,77.65,278.73Z" transform="translate(-5.73 -11.28)" fill="#242993" opacity="0.6"/><path d="M78.5,88l8.1-4.66h0a.37.37,0,0,1,.4,0l101.4,58.54A1.43,1.43,0,0,1,189,143v19.14a.56.56,0,0,1-.17.45h0l-8.17,4.71-.07-9.25L87,104.07a1.46,1.46,0,0,1-.6-1.15V96.35Z" transform="translate(-5.73 -11.28)" fill="url(#_ÂÁ_Ï_ÌÌ_È_ËÂÌÚ_35)"/><path d="M78.87,108.75l101.39,58.54c.33.19.6,0,.6-.45V147.7a1.43,1.43,0,0,0-.6-1.15L78.87,88c-.34-.19-.6,0-.6.45V107.6A1.42,1.42,0,0,0,78.87,108.75Z" transform="translate(-5.73 -11.28)" fill="url(#_ÂÁ_Ï_ÌÌ_È_ËÂÌÚ_11-3)"/><path d="M92.85,104.87l79,46.42a54.29,54.29,0,0,0-6.87,7.15L85.4,112.52A54.62,54.62,0,0,1,92.85,104.87Z" transform="translate(-5.73 -11.28)" fill="#242993" opacity="0.6"/><path d="M81.76,103l95.61,55.2c.23.13.41,0,.41-.31v-4.81a1,1,0,0,0-.41-.78L81.76,97.1c-.23-.13-.41,0-.41.31v4.81A1,1,0,0,0,81.76,103Z" transform="translate(-5.73 -11.28)" fill="#242993"/><path d="M81.76,97.1l1.94,1.12v2.6a1,1,0,0,0,.41.78l93.67,54.08v2.21c0,.3-.18.44-.41.31L81.76,103a1,1,0,0,1-.41-.78V97.41C81.35,97.11,81.53,97,81.76,97.1Z" transform="translate(-5.73 -11.28)" fill="#4553c7"/><path d="M121.18,359.26,41.64,313.34h0C54,306.2,64,288.85,64,274.57v-127C64,130.83,75.8,110.43,90.33,102h0L169.87,148h0c-14.53,8.39-26.31,28.79-26.31,45.56v127c0,14.27-10,31.63-22.38,38.76Z" transform="translate(-5.73 -11.28)" opacity="0.96" fill="url(#_ÂÁ_Ï_ÌÌ_È_ËÂÌÚ_34)"/><path d="M90.33,102,169.87,148c-.64.37-1.27.77-1.89,1.18h0L88.44,103.22C89.06,102.81,89.69,102.41,90.33,102Z" transform="translate(-5.73 -11.28)" fill="#4553c7" opacity="0.8"/><polygon points="174.16 187 177.29 188.82 177.29 186.71 174.16 184.9 174.16 187" fill="#42ffff"/><polygon points="174.16 201.22 177.29 203.03 177.29 190.73 174.16 188.92 174.16 201.22" fill="#42ffff"/><polygon points="174.16 208.02 177.29 209.84 177.29 204.95 174.16 203.14 174.16 208.02" fill="#42ffff"/><polygon points="174.16 215.07 177.29 216.88 177.29 212 174.16 210.19 174.16 215.07" fill="#42ffff"/><polygon points="169.48 191.1 172.61 192.91 172.61 188.03 169.48 186.22 169.48 191.1" fill="#42ffff"/><polygon points="169.48 200.44 172.61 202.25 172.61 195.08 169.48 193.27 169.48 200.44" fill="#42ffff"/><polygon points="169.48 209.03 172.61 210.84 172.61 204.69 169.48 202.88 169.48 209.03" fill="#42ffff"/><polygon points="174.16 222.12 177.29 223.93 177.29 219.05 174.16 217.24 174.16 222.12" fill="#42ffff"/><polygon points="169.48 184.3 172.61 186.12 172.61 184.01 169.48 182.2 169.48 184.3" fill="#42ffff"/><polygon points="171.82 227.61 177.29 230.77 177.29 228.73 171.82 225.57 171.82 227.61" fill="#42ffff"/><path d="M269.41,290l-43.2-24.94c-.74-.43-.65-1.17.21-1.67l42.78-24.7a3.19,3.19,0,0,1,2.88-.11l43.2,24.93c.73.43.64,1.18-.21,1.67l-42.78,24.7A3.23,3.23,0,0,1,269.41,290Z" transform="translate(-5.73 -11.28)" fill="#242993" opacity="0.5"/><path d="M315.77,247.78v-8.33H302.19l-30.11-17.39a3.2,3.2,0,0,0-2.88.12l-30,17.31H225.71v8.35h0a.85.85,0,0,0,.49.69l43.2,24.94a3.2,3.2,0,0,0,2.88-.12l42.78-24.7A1.21,1.21,0,0,0,315.77,247.78Z" transform="translate(-5.73 -11.28)" fill="url(#_ÂÁ_Ï_ÌÌ_È_ËÂÌÚ_13)"/><path d="M269.41,265.16l-43.2-24.94c-.74-.43-.65-1.17.21-1.67l42.78-24.69a3.16,3.16,0,0,1,2.88-.12l43.2,24.93c.73.43.64,1.18-.21,1.67L272.29,265A3.23,3.23,0,0,1,269.41,265.16Z" transform="translate(-5.73 -11.28)" fill="url(#_ÂÁ_Ï_ÌÌ_È_ËÂÌÚ_11-4)"/><path d="M269.41,265.16l-43.2-24.94c-.74-.43-.65-1.17.21-1.67l42.78-24.69a3.16,3.16,0,0,1,2.88-.12l43.2,24.93c.73.43.64,1.18-.21,1.67L272.29,265A3.23,3.23,0,0,1,269.41,265.16Z" transform="translate(-5.73 -11.28)" fill="url(#_ÂÁ_Ï_ÌÌ_È_ËÂÌÚ_11-4)"/><path d="M269.56,262.24l-38.29-22.11c-.66-.38-.57-1,.18-1.47l37.92-21.9a2.86,2.86,0,0,1,2.56-.1l38.29,22.1c.65.38.57,1-.19,1.48l-37.92,21.89A2.81,2.81,0,0,1,269.56,262.24Z" transform="translate(-5.73 -11.28)" fill="#242993"/><path d="M269.65,260.39l-35.17-20.31c-.61-.35-.53-1,.16-1.36l34.84-20.11a2.58,2.58,0,0,1,2.35-.1L307,238.82c.6.35.52,1-.17,1.35L272,260.29A2.64,2.64,0,0,1,269.65,260.39Z" transform="translate(-5.73 -11.28)" fill="#4553c7"/><polygon points="264.2 226.84 260.09 224.47 262.33 223.17 266.45 225.54 264.2 226.84" fill="#42ffff"/><polygon points="271.85 226.51 267.73 228.88 265.49 227.58 269.6 225.21 271.85 226.51" fill="#42ffff"/><polygon points="263.27 227.38 261.02 228.68 258.77 227.38 261.02 226.08 263.27 227.38" fill="#42ffff"/><polygon points="271.03 231.86 268.78 233.16 262.31 229.42 264.55 228.12 271.03 231.86" fill="#42ffff"/><path d="M315.77,228.24l-18.37.11-25.32-14.61a3.16,3.16,0,0,0-2.88.12l-25.67,14.81-17.82.11V239.6h0a.91.91,0,0,0,.49.61l43.2,24.94a3.23,3.23,0,0,0,2.88-.12l42.78-24.7a1.33,1.33,0,0,0,.68-.78h0Z" transform="translate(-5.73 -11.28)" fill="#42ffff" opacity="0.4"/><path d="M315.77,229.32V221H302.19l-30.11-17.38a3.16,3.16,0,0,0-2.88.12l-30,17.3H225.71v8.36h0a.86.86,0,0,0,.49.69L269.41,255a3.23,3.23,0,0,0,2.88-.12l42.78-24.7A1.23,1.23,0,0,0,315.77,229.32Z" transform="translate(-5.73 -11.28)" fill="url(#_ÂÁ_Ï_ÌÌ_È_ËÂÌÚ_13-2)"/><path d="M269.41,246.69l-43.2-24.93c-.74-.43-.65-1.18.21-1.67l42.78-24.7a3.23,3.23,0,0,1,2.88-.12l43.2,24.94c.73.43.64,1.17-.21,1.67l-42.78,24.7A3.19,3.19,0,0,1,269.41,246.69Z" transform="translate(-5.73 -11.28)" fill="url(#_ÂÁ_Ï_ÌÌ_È_ËÂÌÚ_11-6)"/><path d="M269.56,243.77l-38.29-22.1c-.66-.38-.57-1,.18-1.48l37.92-21.89a2.83,2.83,0,0,1,2.56-.11l38.29,22.11c.65.38.57,1-.19,1.47l-37.92,21.9A2.84,2.84,0,0,1,269.56,243.77Z" transform="translate(-5.73 -11.28)" fill="#242993"/><path d="M269.65,241.92l-35.17-20.31c-.61-.35-.53-1,.16-1.35l34.84-20.12a2.61,2.61,0,0,1,2.35-.09L307,220.35c.6.35.52,1-.17,1.36L272,241.82A2.58,2.58,0,0,1,269.65,241.92Z" transform="translate(-5.73 -11.28)" fill="#424aa0"/><polygon points="264.2 208.38 260.09 206 262.33 204.71 266.45 207.08 264.2 208.38" fill="#42ffff"/><polygon points="271.85 208.04 267.73 210.42 265.49 209.12 269.6 206.75 271.85 208.04" fill="#42ffff"/><polygon points="263.27 208.92 261.02 210.21 258.77 208.92 261.02 207.62 263.27 208.92" fill="#42ffff"/><polygon points="271.03 213.4 268.78 214.7 262.31 210.96 264.55 209.66 271.03 213.4" fill="#42ffff"/><rect x="218.43" y="332.97" width="54.87" height="0.94" transform="translate(-138.34 153.67) rotate(-29.6)" fill="#e6e7e8"/><g opacity="0.32"><polygon points="108.51 227.67 123.06 236.04 123.06 234.42 108.5 226.05 108.51 227.67" fill="#4553c7"/><polygon points="101.04 223.38 106.28 226.4 106.28 224.78 101.04 221.76 101.04 223.38" fill="#4553c7"/><polygon points="95.26 220.06 98.82 222.1 98.82 220.48 95.26 218.44 95.26 220.06" fill="#4553c7"/><polygon points="115.14 235.18 123.07 239.74 123.06 238.12 115.13 233.56 115.14 235.18" fill="#4553c7"/><polygon points="103.2 228.32 112.91 233.91 112.91 232.28 103.19 226.7 103.2 228.32" fill="#4553c7"/><polygon points="97.41 224.99 100.97 227.04 100.97 225.42 97.41 223.37 97.41 224.99" fill="#4553c7"/><polygon points="91.91 221.83 95.47 223.87 95.47 222.25 91.91 220.21 91.91 221.83" fill="#4553c7"/><polygon points="117.33 240.15 123.07 243.44 123.07 241.82 117.33 238.53 117.33 240.15" fill="#4553c7"/><polygon points="113.15 237.74 115.11 238.87 115.11 237.25 113.15 236.12 113.15 237.74" fill="#4553c7"/><polygon points="107.37 234.41 110.93 236.46 110.92 234.84 107.36 232.79 107.37 234.41" fill="#4553c7"/><polygon points="101.9 234.97 123.08 247.15 123.08 245.53 101.9 233.35 101.9 234.97" fill="#4553c7"/><polygon points="94.44 230.68 99.68 233.69 99.68 232.07 94.44 229.06 94.44 230.68" fill="#4553c7"/><polygon points="117.35 247.55 123.08 250.84 123.08 249.22 117.34 245.93 117.35 247.55" fill="#4553c7"/><polygon points="103.88 239.8 115.13 246.27 115.12 244.65 103.88 238.18 103.88 239.8" fill="#4553c7"/><polygon points="98.1 236.48 101.66 238.53 101.66 236.91 98.1 234.86 98.1 236.48" fill="#4553c7"/><polygon points="111.35 247.8 123.09 254.55 123.09 252.93 111.35 246.18 111.35 247.8" fill="#4553c7"/><polygon points="100.64 241.63 109.13 246.52 109.13 244.9 100.64 240.01 100.64 241.63" fill="#4553c7"/><polygon points="92.68 237.06 98.42 240.36 98.42 238.74 92.68 235.44 92.68 237.06" fill="#4553c7"/><polygon points="119.13 255.97 123.1 258.25 123.09 256.63 119.13 254.35 119.13 255.97" fill="#4553c7"/><polygon points="111.67 251.68 116.91 254.69 116.91 253.07 111.67 250.06 111.67 251.68" fill="#4553c7"/><polygon points="101 245.54 109.45 250.4 109.44 248.78 101 243.92 101 245.54" fill="#4553c7"/><polygon points="110.96 254.96 123.11 261.95 123.1 260.33 110.96 253.34 110.96 254.96" fill="#4553c7"/><polygon points="97.36 247.14 108.74 253.69 108.73 252.06 97.36 245.52 97.36 247.14" fill="#4553c7"/><polygon points="91.57 243.81 95.13 245.86 95.13 244.24 91.57 242.19 91.57 243.81" fill="#4553c7"/><polygon points="86.02 240.62 89.58 242.67 89.58 241.05 86.02 239 86.02 240.62" fill="#4553c7"/><polygon points="115.83 261.46 123.11 265.65 123.11 264.03 115.83 259.84 115.83 261.46" fill="#4553c7"/><polygon points="78.99 210.7 68.9 204.9 68.89 203.28 78.99 209.08 78.99 210.7" fill="#4553c7"/><polygon points="76.83 213.16 68.91 208.6 68.9 206.98 76.83 211.54 76.83 213.16" fill="#4553c7"/><polygon points="74.65 215.6 68.91 212.3 68.91 210.68 74.64 213.98 74.65 215.6" fill="#4553c7"/><polygon points="77.26 220.8 68.92 216 68.92 214.38 77.26 219.18 77.26 220.8" fill="#4553c7"/><polygon points="74.66 223 68.92 219.7 68.92 218.08 74.66 221.38 74.66 223" fill="#4553c7"/><polygon points="76.21 227.59 68.93 223.4 68.93 221.78 76.2 225.97 76.21 227.59" fill="#4553c7"/><polygon points="72.9 229.38 68.94 227.1 68.93 225.48 72.9 227.76 72.9 229.38" fill="#4553c7"/><polygon points="76.63 235.22 68.94 230.8 68.94 229.18 76.62 233.6 76.63 235.22" fill="#4553c7"/><polygon points="76.23 238.69 68.95 234.5 68.95 232.88 76.22 237.07 76.23 238.69" fill="#4553c7"/><polygon points="110.52 258.41 113.61 260.19 113.61 258.56 110.51 256.79 110.52 258.41" fill="#4553c7"/><polygon points="101.33 253.12 108.29 257.13 108.29 255.51 101.33 251.5 101.33 253.12" fill="#4553c7"/><polygon points="108.51 185.09 123.06 193.46 123.06 191.84 108.5 183.47 108.51 185.09" fill="#4553c7"/><polygon points="101.04 180.8 106.28 183.81 106.28 182.19 101.04 179.18 101.04 180.8" fill="#4553c7"/><polygon points="95.26 177.47 98.82 179.52 98.82 177.9 95.26 175.85 95.26 177.47" fill="#4553c7"/><polygon points="115.14 192.6 123.07 197.16 123.06 195.54 115.13 190.98 115.14 192.6" fill="#4553c7"/><polygon points="103.2 185.73 112.91 191.32 112.91 189.7 103.19 184.11 103.2 185.73" fill="#4553c7"/><polygon points="97.41 182.41 100.97 184.45 100.97 182.83 97.41 180.79 97.41 182.41" fill="#4553c7"/><polygon points="91.91 179.24 95.47 181.29 95.47 179.67 91.91 177.62 91.91 179.24" fill="#4553c7"/><polygon points="117.33 197.56 123.07 200.86 123.07 199.24 117.33 195.94 117.33 197.56" fill="#4553c7"/><polygon points="113.15 195.15 115.11 196.28 115.11 194.66 113.15 193.53 113.15 195.15" fill="#4553c7"/><polygon points="107.37 191.83 110.93 193.88 110.92 192.25 107.36 190.21 107.37 191.83" fill="#4553c7"/><polygon points="101.9 192.38 123.08 204.56 123.08 202.94 101.9 190.76 101.9 192.38" fill="#4553c7"/><polygon points="94.44 188.09 99.68 191.1 99.68 189.48 94.44 186.47 94.44 188.09" fill="#4553c7"/><polygon points="117.35 204.96 123.08 208.26 123.08 206.64 117.34 203.34 117.35 204.96" fill="#4553c7"/><polygon points="103.88 197.22 115.13 203.68 115.12 202.06 103.88 195.6 103.88 197.22" fill="#4553c7"/><polygon points="98.1 193.89 101.66 195.94 101.66 194.32 98.1 192.27 98.1 193.89" fill="#4553c7"/><polygon points="111.35 205.21 123.09 211.96 123.09 210.34 111.35 203.59 111.35 205.21" fill="#4553c7"/><polygon points="100.64 199.05 109.13 203.93 109.13 202.31 100.64 197.43 100.64 199.05" fill="#4553c7"/><polygon points="92.68 194.47 98.42 197.77 98.42 196.15 92.68 192.85 92.68 194.47" fill="#4553c7"/><polygon points="119.13 213.38 123.1 215.66 123.09 214.04 119.13 211.76 119.13 213.38" fill="#4553c7"/><polygon points="111.67 209.09 116.91 212.1 116.91 210.48 111.67 207.47 111.67 209.09" fill="#4553c7"/><polygon points="101 202.96 109.45 207.81 109.44 206.19 101 201.34 101 202.96" fill="#4553c7"/><polygon points="110.96 212.38 123.11 219.36 123.1 217.74 110.96 210.76 110.96 212.38" fill="#4553c7"/><polygon points="97.36 204.56 108.74 211.1 108.73 209.48 97.36 202.94 97.36 204.56" fill="#4553c7"/><polygon points="91.57 201.23 95.13 203.28 95.13 201.66 91.57 199.61 91.57 201.23" fill="#4553c7"/><polygon points="86.02 198.04 89.58 200.09 89.58 198.47 86.02 196.42 86.02 198.04" fill="#4553c7"/><polygon points="115.83 218.88 123.11 223.06 123.11 221.44 115.83 217.26 115.83 218.88" fill="#4553c7"/><polygon points="78.99 168.12 68.9 162.31 68.89 160.69 78.99 166.5 78.99 168.12" fill="#4553c7"/><polygon points="76.83 170.57 68.91 166.01 68.9 164.39 76.83 168.95 76.83 170.57" fill="#4553c7"/><polygon points="74.65 173.01 68.91 169.71 68.91 168.09 74.64 171.39 74.65 173.01" fill="#4553c7"/><polygon points="77.26 178.21 68.92 173.41 68.92 171.79 77.26 176.59 77.26 178.21" fill="#4553c7"/><polygon points="74.66 180.41 68.92 177.12 68.92 175.5 74.66 178.79 74.66 180.41" fill="#4553c7"/><polygon points="76.21 185 68.93 180.81 68.93 179.19 76.2 183.38 76.21 185" fill="#4553c7"/><polygon points="72.9 186.8 68.94 184.52 68.93 182.9 72.9 185.18 72.9 186.8" fill="#4553c7"/><polygon points="76.63 192.63 68.94 188.22 68.94 186.6 76.62 191.01 76.63 192.63" fill="#4553c7"/><polygon points="76.23 196.1 68.95 191.92 68.95 190.3 76.22 194.48 76.23 196.1" fill="#4553c7"/><polygon points="110.52 215.82 113.61 217.6 113.61 215.98 110.51 214.2 110.52 215.82" fill="#4553c7"/><polygon points="101.33 210.54 108.29 214.54 108.29 212.92 101.33 208.92 101.33 210.54" fill="#4553c7"/><polygon points="93.39 267.82 105.15 274.58 105.14 272.96 93.39 266.2 93.39 267.82" fill="#4553c7"/><polygon points="85.34 263.2 89.97 265.86 89.97 264.24 85.34 261.58 85.34 263.2" fill="#4553c7"/></g><path d="M35.1,362a5.88,5.88,0,0,1-2.9-.77L7,346.66a2.49,2.49,0,0,1,0-4.31L32.2,327.79a5.81,5.81,0,0,1,5.79,0l25.23,14.57a2.48,2.48,0,0,1,0,4.3L38,361.23A5.82,5.82,0,0,1,35.1,362Zm0-34a4.79,4.79,0,0,0-2.43.65L7.45,343.17a1.53,1.53,0,0,0,0,2.67l25.22,14.57a4.88,4.88,0,0,0,4.85,0l25.23-14.57a1.51,1.51,0,0,0,.77-1.33,1.54,1.54,0,0,0-.77-1.34L37.52,328.61A4.78,4.78,0,0,0,35.1,328Z" transform="translate(-5.73 -11.28)" fill="#e6e7e8"/><path d="M281.82,326.84a6,6,0,0,1-3-.8l-25.59-14.78a2.17,2.17,0,0,1,0-3.77l7.82-4.48a6,6,0,0,1,6,0l25.58,14.77a2.17,2.17,0,0,1,0,3.77L284.81,326A6,6,0,0,1,281.82,326.84ZM264,303.16a5,5,0,0,0-2.52.67l-7.82,4.48a1.24,1.24,0,0,0,0,2.14l25.59,14.77a5.06,5.06,0,0,0,5,0l7.81-4.47a1.23,1.23,0,0,0,.62-1.07,1.21,1.21,0,0,0-.62-1.07l-25.58-14.78A5.07,5.07,0,0,0,264,303.16Z" transform="translate(-5.73 -11.28)" fill="#e6e7e8"/><path d="M245.5,303.82a6,6,0,0,1-3-.8l-25.59-14.78a2.17,2.17,0,0,1,0-3.77l7.82-4.48a6,6,0,0,1,6,0l25.59,14.78a2.17,2.17,0,0,1,0,3.77L248.5,303A6,6,0,0,1,245.5,303.82Zm-17.77-23.68a5,5,0,0,0-2.52.67l-7.82,4.47a1.25,1.25,0,0,0,0,2.15L243,302.2a5.06,5.06,0,0,0,5.05,0l7.81-4.48a1.21,1.21,0,0,0,.62-1.07,1.23,1.23,0,0,0-.62-1.07l-25.59-14.77A5,5,0,0,0,227.73,280.14Z" transform="translate(-5.73 -11.28)" fill="#e6e7e8"/><path d="M91.88,377.68a6,6,0,0,1-3-.8L63.3,362.11a2.18,2.18,0,0,1,0-3.78l7.82-4.47a6,6,0,0,1,6,0l25.59,14.77a2.18,2.18,0,0,1,0,3.78l-7.82,4.47A6,6,0,0,1,91.88,377.68ZM74.11,354a5,5,0,0,0-2.52.67l-7.82,4.48a1.23,1.23,0,0,0,0,2.14l25.59,14.77a5,5,0,0,0,5,0l7.82-4.47a1.23,1.23,0,0,0,0-2.14L76.63,354.67A5,5,0,0,0,74.11,354Z" transform="translate(-5.73 -11.28)" fill="#e6e7e8"/><path d="M73.35,390a6,6,0,0,1-3-.8L44.77,374.42a2.18,2.18,0,0,1,0-3.78l7.81-4.47a6,6,0,0,1,6,0l25.58,14.77a2.18,2.18,0,0,1,0,3.78l-7.81,4.47A6,6,0,0,1,73.35,390ZM55.57,366.31a5,5,0,0,0-2.52.68l-7.82,4.47a1.24,1.24,0,0,0,0,2.14l25.58,14.77a5.06,5.06,0,0,0,5.05,0l7.81-4.47a1.23,1.23,0,0,0,0-2.14L58.09,367A5,5,0,0,0,55.57,366.31Z" transform="translate(-5.73 -11.28)" fill="#e6e7e8"/></svg>