<?xml version="1.0" encoding="utf-8"?>
<!-- Generator: Adobe Illustrator 24.1.3, SVG Export Plug-In . SVG Version: 6.00 Build 0)  -->
<svg version="1.1" id="Layer_1" xmlns="http://www.w3.org/2000/svg" xmlns:xlink="http://www.w3.org/1999/xlink" x="0px" y="0px"
	 viewBox="0 0 840.1 736" style="enable-background:new 0 0 840.1 736;" xml:space="preserve">
<style type="text/css">
	.st0{fill-rule:evenodd;clip-rule:evenodd;fill:#893168;}
	.st1{fill-rule:evenodd;clip-rule:evenodd;fill:#FFFFFF;}
	.st2{fill:#FFFFFF;}
</style>
<g>
	<g transform="translate(-68.000000, -18.000000)">
		<path class="st0" d="M720.3,614.8c4.8,16.1,1.7,34.9-9.2,48.1c-7,8.6-23.8,16.2-33.1,7.3c-4.2-4-6-17.6-7.8-24
			c-1.6-5.8-4.4-16.7-3.2-21.6c1.8-7.2,16-5.5,22.7-6.1C700,617.6,710.1,616.1,720.3,614.8z M854.8,623c2.2,4.9,5.8,8.2,7.3,13.7
			c1,3.6,1.6,7.1,2,10.8c0.5,4.4,0.8,4.3-2.3,6.3c-4.7,3.2-16.6,2.9-22.3,3.8c-7.4,1.2-14.8,2.6-22.2,3.8c1.8-6.9,0.9-14.3,2.7-21.4
			c1.8-6.8,5-13.6,9.4-19.2c3.3-4.2,8.1-9.2,14.1-9.2C851.2,611.5,852.4,617.6,854.8,623z M383.7,474.9c1.1,14.8-1,30.6-9.4,43.3
			c-3.6,5.4-8.8,8.3-13,12.9c-4.9,5.4-7.5,12-15.2,14.3c-5,1.5-10.8,0.5-16,1.1c-8.6,1.1-11.1-0.1-18.4-4.5
			c-5.2-3.2-11.2-2.6-16.7-6.1c-6.6-4.2-12.3-10.2-18.5-14.9C311.5,503.9,347.5,489.3,383.7,474.9z M477.6,483.7
			c13.4,6.3,20.5,17,24.3,30.9c-36.9,8.4-72.8,18.8-109,30.4c10.1-25.7,21.5-49.3,49.2-61.3c5.5-2.4,11.2-6.2,17.5-6.1
			C465.8,477.7,472.2,481.1,477.6,483.7z M814.2,521.9c19,10,9.4,42,2.7,56.2c-8.5-6.2-17.3-12.3-25.6-18.3
			c-9-6.6-17.1-15.1-25.4-22.7c4.4-2.3,7.2-5.9,11.2-8.5s8-2.8,12.5-3.8C798.3,522.9,805.3,517.2,814.2,521.9z M665.8,449.8
			c1.5,1.9,3.3,3.8,4.8,5.8c3.5,4.9,6.5,9.8,10.5,14.3c7.1,8,17.5,18.5,29.2,19.2l0.3,3.4c-3.4-0.1-5.5-3.1-8.5-3.4
			c-2.3-0.2-5.6,1.6-8.5,1.3c-8.9-0.8-17.7-1.2-26.7-1c-17.8,0.5-35.4,3.3-52.9,5.6c3.4-11.9,9.6-24.2,19.6-32.2
			c3.4-2.8,6.7-6.6,10.6-8.8c2.3-1.3,4.8-1.4,7.2-2.5c2.8-1.2,6.4-5.2,9.2-5.6C663.7,445.7,663.7,447.1,665.8,449.8z M808.8,450.9
			c9.4,7.5,16.5,17,24.2,26.1c7,8.2,16.4,19.8,18.9,30.3c-12.4,5.8-33.5,0.5-41.5-10.3C800.6,483.8,805.4,465.3,808.8,450.9z
			 M594.6,408c-1.8,12.5-7.8,26.3-16.8,35.6c-3.9,4-7.3,9.2-11.7,12.7c-5.7,4.6-10.4,2.2-17,2.9c-7.2,0.8-11.8,5.4-19.4,4.2
			c-5.4-0.9-10.5-3.9-15.6-4.8c-5.6-1-10.5-0.4-16-3.2c-6.9-3.4-12.3-10.1-17.7-15.3c2.8-2.2,8.5-2.4,12.1-3.6
			c4.8-1.6,9.5-3.2,14.3-4.7c9.9-3.1,19.7-6.4,29.6-9.4C555.1,416.7,575,411.1,594.6,408z"/>
		<g transform="translate(68.000000, 18.000000)">
			<path class="st1" d="M821.9,82.5l-0.6,4.1C827.3,87.7,827.5,84,821.9,82.5z M795.8,75.4c-3.2-1.1-8.5,0.5-6,4.4
				C793.4,85.2,795,78.1,795.8,75.4z M535.9,225.9c0.5-0.5-5.2-11.4-6-13.2c-3.7,2.1-3.9,1.6-2.4,5.1
				C528.8,220.8,533.3,223.9,535.9,225.9z M199.1,228.9c-1.8-0.2-5.3-1.2-6.8-0.6c-2.1,0.9-1.5,2.8-1.8,5.7
				C196.6,233.7,197.5,234.5,199.1,228.9z M191.1,222.9c3,0.5,6,1.1,9,1.6c0.6-3.4,2.3-9.1-4-7C195.5,217.7,191.9,221.8,191.1,222.9
				z M542.9,229.9c-3.2,3.2,11.6,9.8,13.1,7.7C559.3,232.9,545.1,230.6,542.9,229.9z M615.9,192.6c1.8-0.2,3.6-0.4,5.3-0.5
				c-0.6-2.6-2.5-12.2-6.4-11.7C610.9,180.9,615.3,190.6,615.9,192.6z M622.4,208.3c0-2.2,0.9-7,0.1-9c-0.6-1.4-2.9-5.7-6.3-2.9
				c-0.7,0.6-1.1,9.2-0.8,9.5C616.2,207,621,207.8,622.4,208.3z M603.9,236c-3.7-2.8-11.6-6.9-15.1-0.6
				C583.9,244.2,600.7,238.3,603.9,236z M583,236.7c-4.8,0.9-9.7,0.8-14.5,0.4c-5.5-0.4-6.7-2-8.3,3.2c5.8,2.1,18.3,3.6,24.2,1.6
				C583.9,240.2,583.5,238.5,583,236.7z M613.3,212.8c-1.7,3.4-5.3,8-6.3,11.6c-0.7,2.7-1,1.3-0.4,3.4c0.2,0.7,3.2,3.8,3.7,4.6
				c3.6-2.7,7.9-5.5,9.8-9.7C623,215.9,619.2,215.3,613.3,212.8z M531.6,198.7c-12.2,3.8-27.2,7.5-40.2,6.4
				c-0.2,1.1,21.9,7.5,24.6,7.1c2.7-0.5,2.9-4.2,6.2-6.2c3.6-2.2,6.5-0.9,10.5-1.2C532.2,202.7,531.9,200.7,531.6,198.7z
				 M571.8,249.9c-11.2-0.7-21.3-3.4-31.2-8.5c-5.7-2.9-9.8-7.2-13.6-12.1c-3-3.8-2.4-3.5-7-4.8c-3.4-1-7.7-0.6-11.2-1
				c-11.8-1.5-23.6-5.1-34.8-8.8c-12.6-4.2-23.4-10.1-37.3-9.7c-23.8,0.6-43,18.6-67.8,11c-9.8-3-20-7-28-13.4
				c-10.3-8.4-16.6-13.3-31.2-10.3c-11.7,2.4-20.7,8.6-30.8,14.3c-11.5,6.5-24,10.4-36.7,13.9c-5,1.4-9.6,2.1-14.9,2.4
				c-3.1,0.2-17.9-2.1-19.7-0.5c-1.8,1.5-2.6,12.1-2.4,14.1c0.3,3.2-1.1,3.6,2.3,4.9c2.4,0.9,9.8,0,12.8,0.3
				c23.9,2.7,48.3,3.5,71.8,7.7c22.1,3.9,44.2,7,66.1,11.5c28.4,5.9,57.3,8.6,85.8,14.3c13.7,2.8,27.6,6.7,41.2,9.6
				c12.4,2.7,24.8,5.2,37.2,7.6c-0.5-1.7-3-7.9,1.1-7.4c2.6,0.4,7,9.4,8.4,11.4c6.3,9.4,13.1,16.4,21.7,23.9
				c8.7,7.5,17.5,14.9,26.3,22.3c7.2,6,22.7,15,22.3,25.5c-4.4,0.8-13.1-6.9-16.4-9.1c-6.7-4.3-13-8.9-19.2-13.8
				c-5.8,8.5,8,18.4,9.6,26.5c-3.6,0-9.5-9.8-11.7-12.4c-5.7,5.3-12.2,10.1-16.3,16.8c46.3-2,53.9,55.5,87.3,74.9
				c7.4,4.3,16.7,6.1,25.2,4.2c8.8-2,17.3-4.8,25.1-9.7c17.3-11.1,30-32.5,36.8-50.9c3.7-10.1,7.3-20,9-30.7
				c1.9-11.8,0.1-23.8-1.4-35.6c-2.7-21-13.9-42.2-29.7-57.2c-7.1-6.7-14.8-12.6-21.3-20c-2.3-2.6-7.4-12.4-10.3-13
				c-5.2-1.1-7.9,6.2-11.6,0.2c-3.5-5.9,3.2-8.2,7.3-10.9c4.4-3,8.8-6.1,13.1-9.2c8.6-6.1,17.1-12.1,25.3-18.6
				c40.2-31.7,75.8-67.1,111.8-103.1c-6.7-1.6-16.3-6.2-23.2-5s-12.9,6.1-20.2,6.9c-7,0.8-13.9-0.7-20.4-3c-7.7-2.6-12.9-6-19.4,0.5
				c-10.4,10.5-16.1,25-27,34.9c-11,10-26.4,15.8-40.7,18.9c-13.3,2.8-31.7,1.5-41.4,11.9c-2.2,2.4-4.1,4-4.3,7.5
				c-0.2,6.2,1.2,1.8,3.2,5.6c3.3,6.3,4.6,14.2,5.3,21.1c1.5,14.1-0.4,29.5-11.7,39.2C602.9,245.8,587.9,250.2,571.8,249.9z
				 M571.1,227.1c8.2,4.2,24.9-1.3,31.5-6.4c9-7,9.7-19.1,8.2-29.2c-4.2,1-8.3,2-12.5,3c-1.8,0.4-3.6,0.9-5.3,1.3
				c0.2,1.5-0.1,2.8-0.7,4.1c-3.9,5-5.8,2.5-10.1-1.8c-9.1-9.3-17.2-19.9-20.9-32.3c-4.2,4.9-8.9,8-15.5,7.3
				c-2.9-0.3-14.1-3.8-11.2-8.9c0.9-1.6,10,0.4,13.1,0.3c6.4-0.3,9.4-0.2,11.7-6.2c1.9-5,1.3-7-4.7-8c-7.6-1.2-7.8,3.4-13.3,5.5
				c-13.8,5.4-4.4-16.1-6.3-22.1c6.8-2,13.9-3.4,19.9-7.2c-6.6,0.8-12.9,3-19.4,4.6c0.5-7.9,16.2-9.6,22.1-12.1
				c-6.3-0.8-12.4,3.3-18.7,3.1c-5.9-0.2-14.3-2.7-20-4.6c-5.9-2-10.5-7.4-16.2-2.7c-3.7,3.1-8.7,11.6-9.9,16.1
				c3.7-0.5,12.5-1.3,13.5,3c1.3,5.4-9.6,2.3-13,3.1c-5.1,1.3-3.5,2.8-5.4,7.9c-1.8,5-5.1,9-10.3,11c5.8,3.1,7.4,3,6.2,8.8
				c-1.1,5.6-0.4,12,0.2,18.3c3.4-1.4,7.1-1.9,10.8-2.2c0.7,4.6-6.4,6.5-10.1,6.7c1.9,6,2,5.8,8.6,5.8c3.7,0,7.4-0.2,11.1-0.4
				c7.5-0.4,14.8-1.7,22.3-2.9c2.8-0.5,6.9-2,9.7-1.7c5.2,0.6,4.2,1.1,3.3,5.5c-1.2,6,0.1,10.5,1.6,17c-8.9-3-1.7,6.2,2.4,8.1
				C551.9,222.6,562,226.6,571.1,227.1z M86.9,588.2c6.3,3.1,12.2,6.1,17.9,10.1c5.7,4,11.7,10.7,18.9,12c8.6,1.5,10.7-2.9,12.8-9.5
				c2.4-7.4,4.6-10.8,11.4-14.8c12-7.2,26.1-11.9,39.3-17.1c5-2,5.4-1.6,3.9-6.7c-0.9-3.1-2-6.1-3.2-9.1c-2.2-5.5-4.6-11.4-8.2-16.2
				c-20.9,13.7-45.7,29.6-71.4,32.9c-10.4,1.3-20.7,3.7-30.9,4.6c-5.1,0.4-9.2,1.7-13.7,3.9c-5,2.4-13.3,3.3-16.8,7.3
				C60.4,585.4,73.6,587.1,86.9,588.2z M598.3,606.2c-4.2,1.7,1.5,11.6,2.7,15.7c1.8,6.2,3.5,12.4,5.4,18.6
				c3.9,13.1,7.5,26.2,11.2,39.3c24.2-13.1,50.1-20.6,76.9-26.9c26.8-6.3,54.1-10.7,81.4-15c14.9-2.3,30.6-5.5,44.5-11.6
				c8.6-3.8,6.9-7.3,6.8-15.7c-0.1-7.9-1.4-15.9-2.6-23.7c-2.3-14.7-4.7-30.8-10.6-44.6c-5.8-13.5-13.5-26.4-21-39.1
				c-8.8-15.1-16.4-31.3-27.9-44.7c-12-13.9-24.9-26.6-38-39.5c-7.8,14.8-18.9,32.8-33.3,42.1C678,471.4,653,476.6,635,468
				c-18.1-8.6-28.9-26.4-40.2-41.8c-10.9-14.9-20.4-31-39.7-36.3c-20.4-5.6-41.9,2-61.8,6.8c-22.7,5.5-44.9,13.3-66.9,20.7
				c-38.3,12.9-76.3,24.6-113.6,39.9c-45.9,18.9-91.9,37.6-136.3,59.6c9.6,13.7,17.1,26.2,22.5,42c4.2,12.3,6.8,25.3,7.8,38.6
				c5.2-5.1,9.1-11.3,14.3-16.5c5.9-5.9,12.8-10.4,19.8-15c12.6-8.4,25.4-15.9,39.3-22.3c31.5-14.4,64.9-24.4,98.1-34.6
				c7.5-2.3,16.4-5,24.2-6.3c6.6-1.1,12.5-3,19.3-4.6c15.3-3.6,30.8-6.9,46.3-9.6c29.7-5,60-10.4,90.1-13.9
				c20.4-2.4,41.7-6.2,62.7-4.1c3.5,0.3,7,1,10.6,0.9c1,0,2.2-1.5,3.2-1.4c2,0.2,4.1,2.4,6.1,3.1c4.6,1.5,11.2,0.6,13.7,4.3
				c2,3,1.3,5.4-1.7,7.4c3.6,4.5,10.5,8.7,15.3,12.3c4.3,3.2,8.4,6.6,12.7,9.7c4.7,3.3,10.3,6.4,15.2,9.8c6.4,4.4,11.8,10.1,17.8,15
				c10.8,8.9,21.6,16.6,33,25c6.1,4.5,12,8.7,18.6,12.4c3.6,2,11.9,7.5,7.6,12.5c-4.3,5-12.9-2.4-17.6-2.9
				c-5.4-0.6-12.7,2.8-18.1,3.5c-14.2,2.1-28.5,3.9-42.8,6.2c-16.3,2.6-32.4,6.1-48.7,8.2c-8.4,1.1-16.9,2.2-25.4,2.9
				c-4.4,0.4-10.6-0.2-14.7,1.2c-3.1-0.9-4.5,0-4.1,2.7C600.8,604.8,599.8,605.7,598.3,606.2z M147.7,234c8.9-0.1,17.7,0.5,26.6,0.4
				c3.4,0,6.4,0.7,7.8-1.7c1.7-2.9,0.9-10.5,1.2-13.8c-10.4,0.8-19.9,1.1-30.3,0.2c-11.1-1-21.9-4.1-33.1-4.8
				c2.4,0.9,5.1,5.8,3.6,8.2s-4.1,0.2-6.5-0.8c-9.4-4.2-17.3-10.3-27.9-7.6c9.8,5,19,13.1,29.2,16.1C127.9,233,137.6,234,147.7,234z
				 M808.5,70.3c4.3,0.8,12.8,5.1,16.7,3c4.7-2.7,3.7-13.4,3.9-17.6c0.5-12.9,1.5-30.7-8.6-41.1c-1.8,12.4,2.1,25.4,1.9,37.9
				c-0.2,9.4-3.8,4.3-5-2.4c-1.2-6.1-1-12.1-2.6-18.2c-2.9,4.9-3.5,11.6-5.6,17c-2.6,6.8-6.2,13-9.8,19.4
				C802.4,68.8,805.5,69.5,808.5,70.3z M190,239.8c-0.1,3.6-0.6,7,4,7.3c6,0.4,4-5.7,3.6-9.5C195.4,237.9,190.5,237.3,190,239.8z
				 M806,76.2c-3.8-0.5-4.3-1.3-6.7,1.3c-1.5,1.7-1.7,4.7-0.3,5.7C804.7,87.8,805.6,78.7,806,76.2z M809.6,84.5
				c2.9,0.6,5.8,2.1,7.4-0.8c2.4-4.2-3.3-4.6-6.5-5.9C810.2,80.1,809.9,82.3,809.6,84.5z M626,484.1c-32.3-0.8-64.1,4.3-95.8,9.9
				c-28,4.9-55.9,9-83.3,15.2c-55.3,12.5-110.6,26.4-162,50.4c-12.5,5.8-24.9,11.7-36.4,18.7c-6.2,3.8-12.5,7.6-18.3,11.9
				c-3.2,2.4-6.5,4.7-9.6,7.3c-2.8,2.4-4.3,5.6-6.8,8c-1.2,1.1-6.2,5.1-7.7,5.6c-3.2,1-1.9,1.1-5.2-1.2c-6.8-4.6-8.1-10.8-10.2-18.2
				c-1.4-5.2-0.3-7-5.1-6.8c-2.4,0.1-6,2.5-8.2,3.5c-7.2,3-15,5.4-21.9,8.9c-5.6,2.9-10,6.6-12.4,12.3c-2.8,6.7-4.5,12.2-13,13
				c-15.3,1.3-24-13.9-37.1-19c-14-5.5-31.8-4.4-46.5-4.6c-5.4-0.1-11.2,0.5-16.3,1.2c-7.2,1-15.8,5-23.3,2.5
				c-8.6-2.9-8.5-15.2-2.8-20.5c6-5.6,14.9-6.4,22.5-8.2c15.5-3.7,29.6-12.3,45.4-14.9c15.7-2.6,32.4-3.2,47.7-7.9
				c7.8-2.4,15.4-4.3,22.8-7.7c9.2-4.3,19.2-7,28.3-11.2c-3.1-5.5-4-10.6-4.2-16.8c-0.1-4.1-0.8-4.1,2.1-5.9
				c0.6,0.3,1.1,0.6,1.7,0.9c1.8,1.3,3.1,0.7,3.9-1.8c12.7-7.7,24.4-16,37.9-22.6c22.7-11.2,46.7-20.3,69.4-30.9
				c43.1-20.3,91.1-32,136.4-46.8c27.4-9,55.5-16.3,83.6-23c4.9-1.2,9.8-2.1,14.8-2.9c8.5-1.3,6.5-1.4,10.8-7.9
				c5.5-8.4,14.2-17.3,23.1-22.5c5.5-3.2,7.8-2.7,7.6-9.7c-0.1-5.3-1.6-5.3-6-8.9c-4.9-4.1-9.5-8.5-13.7-13.3
				c-4.8-5.5-6.9-11.6-10.9-17.2c-4.8-6.8-19.7-5.6-28.1-6.8c-13.1-1.8-26.4-3.2-39.3-6c-26-5.8-52.2-7.8-78.5-11.8
				c-26.5-4-53-7.7-79.4-11.4c-9.5-1.3-19.1-2.4-28.6-4.1c-13.2-2.3-27.2-2.5-40.6-4.7c-6.9-1.1-15.4-5-22.3-4.7
				c-7.5,0.4-0.8,0.3-5.7,2.8c-2.2,1.2-4.8,2.2-7.3,2.3c-4,0.2-8-1.5-10.5-4.6c-4.1-5.1-2.1-9-10.4-9.6c-5.5-0.4-11.9,1.7-17.4,2
				c-5.4,0.3-11.1,1.1-16.6,0.9c-10.9-0.3-23.9-1.3-33.8-5.9c-10.4-5.2-19.8-11.8-30.8-16c-5.5-2.1-13.4-3-17.1-8.1
				c-3.1-4.3-4.1-12.9,0.7-16.4c7.3-5.3,21.4,2.7,29.5,0.7c4.1-1,0.7-2.3,3.8-3.7c1.9-0.9,1.6-1,3.9-1.4c5.7-0.8,14.9,3.2,20.7,4.1
				c11.3,1.9,22.6,4.7,33.9,6.4c6.5,1,13,1.2,19.5,2.3c5.6,0.9,10.3,3.1,14.4-1.4c1.7-1.9,1.2-3.9,4-4.9c2.5-0.9,9.6,0.4,12,1.3
				c2.6,1,3.2,2.5,5.3,3.6c0.1,2.2,1,2.8,2.7,1.9c1.6-0.1,3.3,0,4.9,0.3c14.4,0.1,28.7-4.4,41.8-9.7c21.7-8.7,48.6-33.5,73.5-20
				c6.1,3.3,10.1,8.8,16.1,12.4c5.3,3.2,12.1,6,18,7.8c11.9,3.6,23.7,3.1,35.5-0.6c14.4-4.5,25.9-9.3,41.4-8.8
				c14.3,0.5,25.8,10.4,39.9,10.8c-3.4-5.5-4.1-11.9-4.4-18.1c-0.2-4.1,2-14.8-0.4-18.1c-2.7-3.7-24.1-5.1-12.2-15.9
				c3.9-3.5,11.1-2.2,15.1-6.1c4.1-3.9,4.1-10,6.3-14.9c2.5-5.5,6.5-10.1,10.6-14.5c1.8-1.9,2.9-3.1,3.9-5.3
				c1.2-2.6,0.4-4.8,2.2-7.6c6.3-9.3,17.2-6,26.7-4.8c5.8,0.7,12.7,0,18.3,1.6c4.5,1.3,10.3,5.1,14,7.9c8.1,6.2,9.9,17.6,10.5,27
				c0.4,5.5-0.7,10.7-0.8,16.1c-0.1,5.7-2.6,8.3-7,12.1c-0.1-1.1-0.6-1.8-1.5-2.1c-1.9,2.4-1.4,3.3,1.5,2.8c0.1,1.4,0.6,2.7,1.5,3.9
				c2.4,2.7,4.5,5.7,6.9,8.4c5.2,6,11.2,11.3,15.2,18.1c4.2-4.9,9.5-5.7,14.5-9c4.9-3.3,1.2-4.2,3-9c0.7-1.9,2.6-2.2,3.3-3.7
				c0.6-1.4-0.1-2.3,0.3-3.8c1.9-7.6,1.1-12.3,7.2-18.2c8.1-7.9,18.1-10,29.2-11.5c11.1-1.5,19-2,28.8-6.4c3.4-1.5,6.7-2.2,9.9-3.9
				c4.4-2.3,8.5-4.8,12.3-7.9c8.9-7.3,14.4-17.5,21.6-26.3c5.7-7,12.7-16,23-14.2c11.8,2.1,22.2,9.3,34.7,5.4c4.7-1.4,4.2-0.6,6-5.1
				c0.6-1.5,1-3,1.6-4.5c2.2-5.5,6.5-6.2,9.2-10.7c6.3-10.6,9.7-23.9,13.3-35.6c1.7-5.4,4.9-10.1,6.8-15.3c0.8-2.2,0.4-11.8,3-12.7
				c8.2-2.7,14.8,18.8,16.3,22.8c3.9,10.6,7.4,22.6,5.8,34c-0.6,4.7-1.1,10.1-2.4,14.7c-1.1,4.2-1.4,3.9-0.7,7.7
				c0.7,3.8,1.4,6.1,0.9,10.2c-0.2,1.1-0.7,5.3-1.2,5.9c-2.2,2.7-2.6,0.8-5.4,1.9c-4.5,1.7-5.6,3.2-8.8,7.3
				c-8,10.1-16.4,20.3-25,29.9c-15.2,16.9-31.2,32-48.2,47c-16.7,14.7-34.2,29.7-53.2,41.7c-4.6,2.9-12.2,5.5-15.9,9.3
				c-4.1,4.2,2.1,6,6.3,9c8.3,5.9,16.8,12,24,18.9c15.4,14.7,24.2,36.4,29.6,56.1c2.8,10.3,3.4,22,4.4,32.6
				c1.2,12.5-0.3,26.1-4.2,37.9c-1.5,4.5-3.2,8.9-4.7,13.4c-0.7,2.1-3.9,8.5-3,10.9c1.5,4,11.1,8.8,14.5,11.5
				c4.6,3.8,9.3,7.7,13.2,12.1c16.4,19.1,29.8,39.1,41.8,61.1c12.2,22.3,23.8,42.5,28.6,67.6c1.3,6.6,2.4,13.1,3.7,19.7
				c1.4,7,0,17.2,2.9,23.7c1.8,4,5.1,5.2,3.7,10.7c-1.2,4.8-7.1,13.2-10.3,17c-7.3,8.5-20.7,11.9-31.2,15
				c-12.8,3.8-26.5,5.5-39.7,7.6c-47.5,7.7-94,16.1-137.9,35.8c1.5,2.2,2.7,6.8-0.3,8.3c-4,2-5.9-3.9-7.3-6.5
				c-4-7.5-5.2-17.3-7.6-25.5c-5.8-20.1-10.2-40.5-15-60.8c-16.2,3.4-32.5,5.2-48.6,8.4c-7.4,1.5-14.9,1.6-22.4,2.5
				c-8,1-8.5,3.5-7.9,11.2c1.4,16.9,8.1,33.1,12,49.5c1.9,8,5.1,15.5,6.9,23.5c0.6,2.6,0,9.5,1.8,11.4c-0.1-0.1,6.1,1.1,7.1,1.4
				c-0.5-10,0.6-19.7,0.1-29.7c-0.5-10.3-1.9-23.8,0.4-33.7c2.1-9,10.1-18.6,18.9-22.4c7.7-3.3,22.9-8.7,31.1-3.7
				c1.5,0.9,5,3.6,4.1,5.6c-1.1,2.8-13.4,5-15.8,5.8c-9.7,3.4-20,9.4-25.5,18.1c-4.9,7.8-2.9,19.9-2.8,28.8
				c0.1,5.1,0.7,9.8,0.1,14.9c-0.9,7.2-1.3,9.8,1.6,15.9c3.4,7.2,1.3,17.8-9,15.2c-6.2-1.6-6.4-4.9-10.1-8.6c-1.4-1.4-3-0.8-4.4-2.5
				c-1.8-2.3-1.8-7.5-2.8-10.5c-3-9.4-7.2-18.6-10.4-28.1c-4.2-12.8-7.7-25.7-10.7-38.8c-2.4-10.2-4.9-20.5,0-30.4
				c4.4-8.8,15-8.1,23.9-8.4c20.5-0.7,41.7-5.2,62.6-6.2c1.5-0.1,4.6,0.4,6-0.2c1.9-0.9,2.6-3.4,5-5c4.6-3.1,13.7-4.1,19-5.1
				c12.1-2.1,24.1-3.9,36.1-6.1c13.8-2.6,27.5-5.6,41.3-8c13.2-2.2,26.6-2.7,40-4.2c-21.2-13.7-39.9-30.4-60.4-45.2
				c-9.5-6.9-18.3-13.6-26.8-21.6c-3.5-3.3-7-6.5-10.3-10.1c-1.7-1.9-3.2-5.6-5.4-6.9C632.7,484,629.6,484.4,626,484.1z"/>
			<path class="st1" d="M548,98.6c-7-0.6-15.1-0.7-21.9-2.2C532.2,96.9,542.5,96.6,548,98.6"/>
			<path class="st1" d="M162,208.3c-3-0.3-6-0.5-9-0.8C156.1,207.1,159.1,207.4,162,208.3"/>
			<path class="st1" d="M346,273.4c2,0.2,4,0.3,6,0.5C350,273.7,348,273.5,346,273.4"/>
			<path class="st1" d="M549.5,686.2c0.1-2.3,0.2-4.7,0.3-7C549.7,681.5,549.6,683.8,549.5,686.2"/>
			<path class="st1" d="M538.5,704.3c0,1.7-0.1,3.3-0.1,5C538.5,707.6,538.5,706,538.5,704.3"/>
			<path class="st1" d="M583.2,626.1c-2,0-4,0-6,0C579.2,626.1,581.2,626.1,583.2,626.1"/>
			<path class="st1" d="M297.5,266c1.3,0.2,2.7,0.3,4,0.5C300.1,266.4,298.8,266.2,297.5,266"/>
			<path class="st1" d="M522.2,96c-1.7-0.1-3.3-0.3-5-0.4C518.8,95.8,520.5,95.9,522.2,96"/>
			<path class="st1" d="M538.8,678.2c0,1.7-0.1,3.3-0.1,5C538.7,681.5,538.8,679.9,538.8,678.2"/>
			<path class="st1" d="M289.5,265.4c1.3,0.1,2.7,0.3,4,0.4C292.2,265.7,290.8,265.5,289.5,265.4"/>
			<path class="st1" d="M310.4,268.2c1.3,0.1,2.7,0.2,4,0.4C313,268.5,311.7,268.4,310.4,268.2"/>
			<path class="st1" d="M527.9,604.2c-1.7,0-3.3,0-5,0C524.5,604.3,526.2,604.3,527.9,604.2"/>
			<path class="st1" d="M469.9,292.2c1,0.1,2,0.2,3,0.2C471.9,292.4,470.9,292.3,469.9,292.2"/>
			<path class="st1" d="M539.5,695.3c-0.1,1.3-0.2,2.7-0.3,4C539.3,698,539.4,696.7,539.5,695.3"/>
			<path class="st1" d="M625.7,484.6c1,0.1,2,0.2,3,0.3C627.7,484.7,626.7,484.6,625.7,484.6"/>
			<path class="st1" d="M317.3,177.3c-1.7,0-3.3,0-5,0C314,177.3,315.6,177.3,317.3,177.3"/>
			<path class="st1" d="M121.5,200.7c-1.3-0.2-2.6-0.5-4-0.7C118.9,200.2,120.2,200.5,121.5,200.7"/>
			<path class="st1" d="M144.2,204.8l-3.9-0.9L144.2,204.8z"/>
			<path class="st1" d="M91.3,202.1c-1.3-0.3-2.6-0.5-3.9-0.8C88.6,201.6,90,201.8,91.3,202.1"/>
			<path class="st1" d="M611.7,484.3c0.7,0.1,1.3,0.2,2,0.3C613,484.5,612.3,484.4,611.7,484.3"/>
			<path class="st1" d="M474,165c0.7,0.1,1.3,0.2,2,0.3C475.3,165.2,474.6,165.1,474,165"/>
			<path class="st1" d="M698.2,573.9c-1.3,0.1-2.7,0.2-4,0.2C695.5,574.1,696.8,574,698.2,573.9"/>
			<path class="st1" d="M742.3,373.8c0.1-1,0.2-2,0.3-3C742.5,371.8,742.4,372.8,742.3,373.8"/>
			<path class="st1" d="M504.6,296.3c0.7,0.1,1.3,0.1,2,0.2C506,296.4,505.3,296.3,504.6,296.3"/>
			<path class="st1" d="M232.9,258.5c0.7,0,1.3,0.1,2,0.1C234.2,258.6,233.6,258.5,232.9,258.5"/>
			<path class="st1" d="M128.8,231.9c3.1,0.3,6,0.4,8.9,1.3C134.8,233,131.4,233.4,128.8,231.9"/>
			<path class="st1" d="M160.8,233.4c2.2-0.6,5.8-0.4,8,0.6C166.1,233.8,163.5,233.6,160.8,233.4"/>
			<path class="st1" d="M570.9,227.5c2.3,0.2,4.7,0.4,7,0.6C575.5,228.6,573.1,228.7,570.9,227.5"/>
			<path class="st1" d="M806,75.8c-1.7-0.2-3.3-0.4-5-0.6C802.7,75.4,804.4,75.6,806,75.8"/>
			<path class="st1" d="M80.6,587.8c2.1-1,4-0.3,6,0.5C84.6,588.1,82.6,587.9,80.6,587.8"/>
			<path class="st1" d="M205.3,233.5c0,1.7-0.1,3.3-0.1,5C205.2,236.8,205.3,235.1,205.3,233.5"/>
			<path class="st1" d="M142.7,233.7c1.7,0,3.3,0,5,0C146.1,233.7,144.4,233.7,142.7,233.7"/>
			<path class="st1" d="M571.9,249.9c-1.3-0.1-2.7-0.2-4-0.3C569.3,249.8,570.6,249.8,571.9,249.9"/>
			<path class="st1" d="M202.1,567.4c0,1.7,0,3.3,0,5C202.1,570.8,202.1,569.1,202.1,567.4"/>
			<path class="st1" d="M490.5,285.8c1.6,0.3,3.3,0.6,4.9,0.9C493.8,286.4,492.2,286.1,490.5,285.8"/>
			<path class="st1" d="M150,219c-1.3-0.1-2.7-0.1-4-0.2C147.4,218.9,148.7,218.9,150,219"/>
			<path class="st1" d="M479.6,283.7c1.6,0.3,3.3,0.6,4.9,0.9C482.9,284.5,481.1,285,479.6,283.7"/>
			<path class="st1" d="M166,220.4c-1-0.1-2-0.1-3-0.2C164,220.3,165,220.4,166,220.4"/>
			<path class="st1" d="M453.1,277.5c1.6,0.3,3.3,0.6,4.9,0.9C456.4,278.1,454.7,277.8,453.1,277.5"/>
			<path class="st1" d="M809.2,84.8c1.6,0.3,3.3,0.6,4.9,0.9C812.5,85.4,810.9,85.1,809.2,84.8"/>
			<path class="st1" d="M392.7,267.4c1.7,0.2,3.3,0.3,5,0.5C396.1,267.7,394.4,267.6,392.7,267.4"/>
			<path class="st1" d="M808.5,70.7c1.6,0.3,3.3,0.6,4.9,0.9C811.8,71.3,810.1,71,808.5,70.7"/>
			<path class="st1" d="M205.4,240.7c1.7,0.1,3.3,0.2,5,0.3C208.6,241.9,207,241.7,205.4,240.7"/>
			<path class="st1" d="M534.9,139.8c0.1-1.3,0.2-2.7,0.4-4C535.1,137.2,535,138.5,534.9,139.8"/>
			<path class="st1" d="M534.5,144.8c0.1-1.3,0.2-2.7,0.4-4C534.7,142.1,534.6,143.5,534.5,144.8"/>
			<path class="st1" d="M539.8,387.7c-1-0.1-2-0.1-3-0.2C537.8,387.5,538.8,387.6,539.8,387.7"/>
			<path class="st1" d="M626.9,202.1c-0.2,1.3-0.3,2.7-0.5,4C626.6,204.7,626.7,203.4,626.9,202.1"/>
			<path class="st1" d="M648.3,455.7c1.7,0,3.3,0,5-0.1C651.7,455.6,650,455.6,648.3,455.7"/>
			<path class="st1" d="M536.2,187.9c1.4-0.7,2.7-0.6,4,0.3C538.9,188.2,537.5,188.1,536.2,187.9"/>
			<path class="st1" d="M547.5,173.6c-0.7-0.1-1.3-0.2-2-0.3C546.2,173.4,546.8,173.5,547.5,173.6"/>
			<path class="st1" d="M553.9,375.6c1.3,0.3,2.6,0.5,3.9,0.8C556.5,376.2,555.2,375.9,553.9,375.6"/>
			<path class="st1" d="M508.5,481.5c1.3,0,2.7-0.1,4-0.1C511.2,481.5,509.9,481.5,508.5,481.5"/>
			<path class="st1" d="M479.9,487.1c1.3,0,2.7-0.1,4-0.1C482.6,487,481.3,487,479.9,487.1"/>
			<path class="st1" d="M467.7,489.1c1.3-0.1,2.7-0.1,4-0.2L467.7,489.1z"/>
			<path class="st1" d="M455.5,491l4-0.2C458.2,490.9,456.8,490.9,455.5,491"/>
			<path class="st1" d="M713.1,586.5c-1,0-2-0.1-3-0.1C711.2,586.4,712.1,586.4,713.1,586.5"/>
			<path class="st1" d="M508.3,289.3c1.3,0.3,2.6,0.5,3.9,0.8C510.9,289.9,509.6,289.6,508.3,289.3"/>
			<path class="st1" d="M755.9,97.4c-0.7,0-1.3-0.1-2-0.1C754.6,97.3,755.3,97.4,755.9,97.4"/>
			<path class="st1" d="M161,220.1c-0.7-0.1-1.3-0.2-2-0.2C159.7,219.9,160.3,220,161,220.1"/>
			<path class="st1" d="M442.3,274.5c1.3,0.3,2.6,0.5,3.9,0.8C444.9,275.1,443.6,274.8,442.3,274.5"/>
			<path class="st1" d="M291.9,249.4c1.3,0.2,2.6,0.5,4,0.7C294.6,249.9,293.2,249.6,291.9,249.4"/>
			<path class="st1" d="M189.7,240.1c0,1,0,2,0,3C189.7,242.1,189.7,241.1,189.7,240.1"/>
			<path class="st1" d="M175.8,234.6c1.3,0,2.7-0.1,4-0.1C178.5,234.5,177.1,234.6,175.8,234.6"/>
			<path class="st1" d="M212.4,240.9c1.4-0.6,2.7-0.8,4,0.3C215,241.1,213.7,241,212.4,240.9"/>
			<path class="st1" d="M504.9,144.2c6.5,4.7-7.9,22.1-13.6,8c-1.6-3.9-1.1-8.8,3.1-7.8c1.9,0.5,2.1,3.3,4.8,3.4
				C501.8,147.9,503.1,145.6,504.9,144.2"/>
			<path class="st1" d="M542.6,160.6c0.1-3.5,6.8-10.4,10.6-5.8C557.1,159.3,545.5,160.5,542.6,160.6"/>
		</g>
	</g>
</g>
<path class="st2" d="M622.3,290.9l2.2,5.4l-5.4,2.2l14.4,34.9l5.4-2.2l2.2,5.4l5.4-2.2l-2.2-5.4l5.4-2.2l2.2,5.4l5.4-2.2l-2.3-5.6
	c0.7-0.4,1.4-0.8,2.1-1.2c1.4-1.2,2.5-2.3,3.5-3.7c0.7-1.2,1.4-2.7,1.6-4.4s0-3.2-0.8-5.1c-0.9-2.1-2.5-3.6-4.3-4.8
	c-2-1.1-4.1-1.4-6.7-1c1.5-1.6,2.4-3.2,2.8-4.6c0.4-1.4,0.3-3-0.5-4.9c-0.7-1.6-1.4-2.9-2.4-3.7c-1-0.8-2.3-1.6-3.5-1.7
	s-2.6-0.2-4.3,0.2c-0.6,0.1-1.1,0.3-1.7,0.4l-2.3-5.6l-5.4,2.2l2.2,5.4l-5.4,2.2l-2.2-5.4L622.3,290.9z M629.4,300.5l7.8-3.2
	c0.8-0.3,1.6-0.7,2.2-0.6c0.8-0.3,1.5-0.3,2.2-0.2c0.6,0.1,1.3,0,1.8,0.5c0.5,0.4,1,0.9,1.3,1.7c0.7,1.6,0.8,2.8,0,3.7
	c-0.7,1.2-1.7,2-3.3,2.6l-8.6,3.5L629.4,300.5z M634.9,313.9l9.4-3.9c1.9-0.8,3.7-0.9,5.4-0.7c1.7,0.3,2.8,1.6,3.6,3.5
	c0.3,0.8,0.6,2,0.5,2.6c-0.2,1-0.6,1.8-1,2.3s-1.1,1.1-1.8,1.7s-1.8,1-2.6,1.4l-9.1,3.8L634.9,313.9z"/>
</svg>
