<?xml version="1.0" encoding="utf-8"?>
<!-- Generator: Adobe Illustrator 24.1.3, SVG Export Plug-In . SVG Version: 6.00 Build 0)  -->
<svg version="1.1" id="Layer_1" xmlns="http://www.w3.org/2000/svg" xmlns:xlink="http://www.w3.org/1999/xlink" x="0px" y="0px"
	 viewBox="0 0 1024 768" style="enable-background:new 0 0 1024 768;" xml:space="preserve">
<style type="text/css">
	.st0{fill-rule:evenodd;clip-rule:evenodd;fill:#893168;}
	.st1{fill-rule:evenodd;clip-rule:evenodd;fill:#FFFFFF;}
	.st2{fill:#DD9E76;}
	.st3{fill:#DBAF77;}
	.st4{fill:#FFFFFF;}
</style>
<desc>Created with Sketch.</desc>
<g id="Character_x2F_clumsy">
	<g id="Accent" transform="translate(256.999643, 190.499706)">
		<path id="Fill-1" class="st0" d="M298.9,147.1c-1.1-1.7-3.2-2.5-4.8-3.6c0.7,1.6,0.8,2.1,0.1,3.7c-0.6,1.2-0.9,2.5-1.5,3.7
			c-0.4,0.8-1,1.7-1.2,2.5c-0.3,1-0.1,2-0.5,3c4.4-1.2,8.3-4,12-6.5c-0.7-0.1-2.5-0.1-3.1-0.6C299.4,149,299.3,147.7,298.9,147.1"/>
		<path id="Fill-3" class="st0" d="M404.3,132.3c1.9,1.5,1.9,1.5,2,4.1C404.7,135.4,404.1,134.2,404.3,132.3 M311.7,139.1
			c-0.9,0.1-1.1-2.5-1.3-3.2c0.3,0,0.6-0.1,0.9-0.1C311.7,136.2,313.3,139,311.7,139.1 M444.5,165.2c1.2-6.9,2.8-13.8,4.8-20.6
			c1-3.3,2.1-6.6,3.3-9.8c1-2.8,3-5.8,3.4-8.8c-3.2,2.9-5.7,6.4-8.5,9.7c-2.6,3.1-5.3,6.2-7.8,9.4c-1,1.3-1.9,2.8-2,4.5
			c-0.1,1.9,1,3,1.8,4.6s1.3,3.7,1.7,5.4c0.4,1.9-0.2,2.9-0.9,4.6c-1.4-0.7-2.6-1.1-3.7-2.4c-1.1-1.3-2-2.9-3.1-4.3
			c-2.3-3-4.6-6.1-6.8-9.1c-4.5-6.1-8.5-12.3-11.9-19.1c-3.4-6.9-6.5-14-9.9-20.9c-0.7-1.5-1-3.1-2.9-3.1c-1.4,0-2.6,0.9-3.9,1.2
			c-0.3,0.1-0.7,0.2-1,0.2c0,0.3,0,0.7-0.2,1c-0.3,0.4-0.5,0.3-0.9,0.2c-0.6,0-1-0.4-1.6-0.3c-0.8,0.1-1.7,0.6-2.4,0.9v-1.9
			c-2.5,1.3-8.6,5.6-9.9,0.7c-0.1,0.9,0.1,2.5-0.8,3.1c-0.6,0.4-1.3,0-1.9,0.1c-0.8,0.1-1.5,0.7-2.2,0.9c0-1.3-1.1-1.2-2-1.3
			c-1.3-0.2-2.4-0.9-3.7-0.7c-1.3,0.2-2.2,0.8-3.5,0.1c-0.9-0.5-1.7-1.1-2.6-1.6s-1.1-0.9-1.4-1.7c-0.4-1-0.3-0.8-1.4-0.5
			c-2.2,0.6-3-2-3.4-3.8c-0.9-4.3,0.1-9,3-12.4c3.7-4.3,7.5-8.6,12.3-11.7c4.4-2.9,9.1-6.5,14.3-7.9c-4.1-9.2-10-17.8-15.2-26.5
			c-1.5,0.3-2.4,1.2-4,0.9c-1.3-0.2-1.2-0.1-1.7,1.2c-0.4,1.2-0.6,1.3-1.8,1.7c-1.2,0.4-0.2-0.4-1.1,0.6c-0.4,0.4-0.6,0.9-1.1,1.2
			c-1.8,1.2-4.1,0.5-6,1.3c-1.3,0.5-0.7,1.2-1.3,2.1c-0.7,1-1.9,0.5-2.9,0.3c-2.1-0.3-2.7,0.4-3.1,2.3c-0.3,1.4-0.5,2.2-2.1,2.5
			c-0.9,0.2-2.2-0.5-2.8,0c-0.2,0.2-0.1,0.8-0.2,1.1c-0.2,0.5-0.5,0.9-0.9,1.3c-0.7,0.8-1.7,1.5-2.7,1.9c-0.9,0.4-2,0.2-2.9,0.5
			c-1.4,0.5-1.1,2.1-1,3.3c-0.8-0.2-1-0.2-1.5-0.8c-0.2-0.3-0.1-0.7-0.5-0.9c-0.4-0.1-2.4,1.1-2.7,1.5c-0.8,1,0,2.5-0.2,3.7
			s-1.2,2.1-2,3c-0.3-0.7-0.5-1.5-0.8-2.2c-0.4,0.5-0.9,0.8-1.1,1.4c-0.1,0.3,0.2,0.7,0,1.1c-0.4,0.9-0.8,0.3-1.6,0.4
			c-0.7,0-2.5,0.5-2.1,1.6c0.2,0.7,1.6,0.5,1.4,1.5c-0.2,1.2-1.7,0.4-2.3,0.6c-0.8,0.3-0.5,1-0.8,1.7c-0.5,1.2-1.4,1.3-2.5,1.9
			c-1,0.6-1.4,1.3-1.8,2.3c-0.6,1.3-0.5,0.9-1.7,0.8c-0.8-0.1-1.1,0.1-1.4,0.8c-0.2,0.6,0.2,1.3,0,1.8c-0.3,0.6-1.6,1.4-2.1,2
			c-1.3,1.8-1.8,4-2.9,5.9c-0.5,0.8-1,1.7-1.6,2.4c-0.8,1-1.3,0.8-2.3,1.4c-1.7,0.9-1.2,3.3-1.4,4.8c-0.1,0.8-0.3,1.6-0.9,2.2
			c-0.3,0.4-1.6,0.8-1.3,1.5c0.3,0.9,1.3-0.1,1.1,1.3c-0.1,1.1-1.4,2-1.7,3.1c-0.2,0.8,0.1,1.5-0.1,2.2c-0.2,0.8-0.9,1.5-1.2,2.2
			c-0.3,0.8,0.2,1.8-0.1,2.4c-0.3,0.7-1.5,0.5-1.8,1.4c-0.3,1,0.5,2.5,0.6,3.5c0.1,0.6,0.4,1.3-0.1,1.9c-0.5,0.4-1.6,0.4-1.1,1.5
			c0.2,0.5,1,0.4,1.1,1.2c0.1,0.6-0.6,1.5-1,1.9c-1,1.1-2.9,2-1.5,3.4c0.2,0.2,0.5,0.1,0.7,0.4c0.3,0.4,0.3,1,0.4,1.5
			c0.4,1,0.9,2,1.5,2.9c2.4,3.4,6.4,5,9,8c3.2-3.2,6.5-6.3,9.5-9.7c2.6-2.9,5.1-5.8,8-8.4c1.5-1.3,3.3-2.3,4.5-3.9
			c1.2-1.5,1.7-3.4,2.6-5.1c1.8-3.3,4.4-6,6.3-9.2c3.8,2.5,2.2,8.8,1.1,12.3c-0.7,2.2-1.6,4.2-2.7,6.2c-0.9,1.7-2.3,3.3-2.7,5.2
			c-0.4,1.5,0.2,2.8,1.1,4.1c1.3,1.8,2.8,3.5,4.1,5.2c3.3,4.3,6.6,8.5,9.8,12.8c1.2-1.7,3.1-0.6,4.7-0.3c2.3,0.5,4.7,0.3,7,0.5
			c2.5,0.2,4.9,0.6,7.4,1c2.2,0.4,0.7,1.4,1.8,2.6c2.2-4,6.5-1.5,10-1.1c2.2,0.2,4.5,0.1,6.6,0.4c2.2,0.3,4.3,1,6.5,1.2
			c4.2,0.4,8,1.9,12.2,2.6c2.2,0.4,4.4,0.7,6.6,1.1c0.8,0.1,2.1,0.2,2.6,1c0.5,0.9-0.5,2.9-0.8,3.8c-0.4,1.3-0.7,3.2-1.6,4.3
			c-0.7,0.8-0.8,0.3-1.7,0.3c-1,0-0.6,0.2-1.3,0.9c-0.8,0.9-2,1-3.2,1.1c-0.5,0-1.6,0-2,0.3c-0.6,0.5-0.1,0.6-0.1,1.4
			c-0.1,1.4-2,2.4-3.1,3c-0.7,0.4-1.5,0.6-2.3,0.6c-0.5,0-1.1-0.5-1.6-0.3c-0.7,0.3-0.7,1.7-1.1,2.3c-0.8,1.1-1.8,0.3-2.9,0.8
			c-1.2,0.7-1.9,2.2-3.1,3c-2.3,1.5-5,1.7-6.1-1.2c-0.5,1-1.6,2.4-1.1,3.4c0.4,0.9,1.5,1.5,2.3,1.9c2.3,1.2,4.5,2.5,6.7,3.9
			c5,3.2,9.8,6.7,15.1,9.4c5.3,2.6,10.8,5.4,16.6,6.6c6,1.2,12,0.4,17.6-2c-0.8-1.6-1-2.7-1-4.6c0-1.8-0.1-3.6-0.1-5.3
			c0-3.5,0-7.1,0.1-10.6C442.5,179.2,443.2,172.2,444.5,165.2"/>
		<path id="Fill-13" class="st0" d="M507.4,160.1c-0.5-1.9-1.1-3.9-1.3-5.9c-0.1-1.4,0.4-3.6-0.4-4.8c-0.4-0.5-1-0.7-1.2-1.4
			c-0.2-0.5,0.1-1.5,0-2.1c-0.2-1.5-0.8-2.8-1.3-4.2c-1.2-3.1-1.3-6.3-2.3-9.5c-0.6-1.7-1.6-3.2-2.2-4.9c-0.6-1.5-0.8-3.2-1-4.8
			c-0.2-1.7-0.2-3.4-0.6-5.1c-0.4-1.6-0.9-3.1-1.2-4.7c-0.8-3.8-1.8-7.5-3.1-11.2c-0.5-1.4-0.9-3.7-2.1-4.6
			c-0.9-0.7-2.1-0.5-3.1-0.4c-1.2,0.1-2.1,0.1-2.9,1.1c-1,1.3-1.6,2.6-2.8,3.8c-1.2,1.2-2.7,2.2-3.7,3.5c-0.8,1-0.4,1.4,0.5,2.2
			c-1.2,0.2-2.1-0.2-3,0.7c-0.9,0.9-1.5,2.4-2.1,3.5c-1.2,2.5-1.4,4.7-1.7,7.4c-0.3-0.5-0.7-1-1-1.5c-0.4,1.1-1,2.3-2.2,2.8
			c-1.5,0.6-1.4,0.4-1.4,2c0,2.4-2,3.8-3.2,5.6c-0.7,1-1.4,2.1-1.8,3.3c-0.6,1.4-0.2,2.4-0.1,3.9c0.2,2.2-1.9,3.9-3.2,5.5
			c-0.4,0.5-0.6,0.7-0.8,1.3c-0.2,0.4,0.1,0.7-0.3,1.2c-0.6,0.9-1.9,0.6-2.3,1.7c-0.5,1,0.2,2,0.3,2.9c0.2,1.5-0.8,3-1.3,4.4
			c-0.6,1.5-1,3.1-1.2,4.7c-0.1,0.9-0.2,1.9-0.1,2.8c0,0.4,0.4,1.5,0.1,1.9c-0.4,0.5-1.2-0.1-1.5,0.5c-0.7,1.2,1.9,1.5,2.4,1.7
			c-0.6,0.4-1.4,0.6-1.9,1.2c-0.6,0.7-0.2,1.1-0.5,1.9c-0.3,0.9-1.3,1.1-1.7,1.9c-0.3,0.8,0.3,1,0.7,1.6c0.8,1.6,0.1,4-0.2,5.6
			c-0.1,0.7-0.1,2.4-0.5,2.9c-0.3,0.3-0.8,0.2-1.1,0.5c-0.5,0.6,0,0.8,0.2,1.5c0.2,0.9,0.2,1.8,0,2.6s-0.8,1.6-0.9,2.4
			c-0.2,0.9,0.3,1.2,0.6,2.1c0.7,1.9,0.2,4.2,0,6.1c-0.3,2.2,0.5,4.3-0.1,6.4c-0.6-0.3-1.2-0.5-1.9-0.8c0.2,1,0.4,2,0.6,3
			c0.1,0.5,0.2,1,0.3,1.5c-0.1,0.6,0.1,0.9,0.6,0.8c1.1,0.3,2.7-1.4,3.6-1.9c2.7-1.5,5.5-2.6,8.3-3.9c2.9-1.3,5.3-3.2,7.9-4.9
			c2.7-1.8,5.5-3.3,8.2-5.1c11.4-8.1,23.7-14.9,35.6-22.2C508.7,166.9,508.1,162.5,507.4,160.1"/>
		<path id="Fill-17" class="st0" d="M521.5,68.3c1.8,0.5,1.4,2,0.7,3.3c-0.7-0.6-1.9-1.4-2.2-2.3C519.6,68.1,520.5,68,521.5,68.3
			 M571.3,112.9c-0.1,0.5-0.2,2.3-0.5,2.6c-0.3,0.3-2-0.1-2.4-0.1c-1.4-0.1-2.4,0.2-3.7,0.5c-2.2,0.6-2.6-0.8-2.7-2.9
			c-1.7,3.4-4.6,5.1-8.2,5.8c-1.6,0.3-3.4,0.6-5,0.7c-1.2,0.1-2.6-0.1-3.9-0.3c-0.8-0.1-1.5-0.6-2.2-0.8c-1.6-0.3-0.2,0.9-1.3,1.2
			c-0.3,0.1-1.4-0.4-1.9-0.4c-0.7,0-1.4,0.1-2.1,0c-1.6-0.1-2.1-1-3.4-1.7c-0.7-0.4-1.1-0.3-1.8-0.2c-0.8,0.1-0.2,0.4-1.1,0.2
			c-0.3-0.1-0.8-0.4-1.1-0.5c-1.7-0.8-3.1-1.5-4.4-2.8c-1-1-2.2-1.7-3.2-2.6c-0.4-0.4-0.5-0.8-0.9-1.2c-0.4-0.5-0.4-0.4-0.9-0.7
			c-0.6-0.4-1-0.6-1.4-1.3c-0.6-1.1-0.6-2.6-0.7-3.8c-0.3-4.1,0.4-7.8,2.4-11.4c2.1-3.9,3.9-8.1,6.4-11.8c2.2-3.4,5.1-6.5,7.8-9.5
			c0.8-0.8,1.6-1.8,2.6-2.5c0.6-0.4,1.4-0.6,2-1.1c1.4-1.1,0.7-3.1,0.7-4.7c0.4,0.8,1.1,1.9,2.2,1.7c0.7-0.2,0.7-0.9,1.2-1.2
			c0.4-0.2,0.8-0.1,1.3-0.2c-1.7-8.2-3.8-16.5-6.5-24.4c-7.4,7.2-14.7,14.5-21.9,21.9c-3.7,3.8-7.1,7.9-10.8,11.8
			c-3.9,4-7.8,8-11.7,12c1.1,1,2.3,1.7,3,3c0.7,1.2,1.4,2.1,2.3,3.2c2.1,2.3,3.1,5.8,4.3,8.7c0.3,0.6,0.3,0.7,0.3,1.2
			c0,0.3-0.4,0.6-0.4,1c0,0.5,0.2,0.8,0.5,1.1c0.3,0.3,1,0.7,1.1,1.2s-0.5,0.9-0.6,1.4c-0.8,2.2,1.8,3.7,2.7,5.4
			c0.5,0.9,0.7,1.9,0.1,2.8c-0.5,0.8-1.6,1.1-1,2.2c0.4,0.7,1.4,0.3,1.3,1.3c-0.1,0.5-1.1,1-0.1,1.6c0.8,0.5,1.7-0.4,1.4,1.1
			c-0.2,0.7-1.1,1.3-0.8,2.1c0.2,0.7,1.5,0.8,2.1,1.4c0.6,0.7,0.9,1.9,1.1,2.8c0.4,3.2,1.2,6,1.9,9.1c0.5,2.1-0.8,2.1-2.6,2.1
			c1.2,1.7,2.5,3.5,3.8,5.2c1.3,1.7,1.6,4.2,2.3,6.2c0.7,2.4,1.5,4.8,2.2,7.2c0.3,1.1,0.5,2.2,0.1,3.3c-0.5,1.3-0.5,1.3-0.3,2.6
			c5.8-3.3,11.2-7,16.7-10.8c2.6-1.8,5.3-3.6,7.8-5.5c2-1.5,4.1-3,5.4-5.2c3-5.1,7.5-9,11.6-13.3c2.1-2.2,4-4.9,6.5-6.5
			s5.1-3,7.5-4.6C573.1,115.4,572.2,114.1,571.3,112.9"/>
		<path id="Fill-35" class="st0" d="M388.7,180.8c2.4-1.1,4.5-2.6,6.8-3.9c2-1.1,3.8-1.6,5.5-3.1c0.7-0.6,1.4-0.9,2.2-1.3
			c1.1-0.5,1.9-1.5,2.8-2.2c-2.4-0.9-4.8-2.4-7.4-2.4c-1.2,0-2.3,0.4-3.5,0.2s-2.1-0.8-3.1-1.5c-1.7-1.3-2.5-1.1-4.4,0
			c-0.4,0.3-1.1,0.8-1.6,0.8c-0.9,0-0.7-0.6-1.1-1.2c-0.3-0.6,0.1-0.6-0.5-0.6c-0.4,0-0.6,0.5-1,0.6c-0.8,0.2-2.3-0.6-3.2-0.8
			c-1.4-0.2-2.4,0-3.8,0.1s-2.8-0.2-4.1-0.7c-1.2-0.4-2.4-1-3.6-1.4c-1.6-0.5-1.9,0.1-3.4,0.5c-2.2,0.5-4.4-2.7-6.4-1
			c3,4.4,7.1,8,10.9,11.7c2,2,4.1,3.9,6.3,5.7c1,0.8,2,1.6,3.1,2.4c0.5,0.4,0.9,0.7,1.4,1.1c0.8,0.6,0.8,0.8,1.5,0.5
			c1.1-0.5,1.9-1.5,3-2C386.4,181.8,387.5,181.4,388.7,180.8"/>
		<path id="Fill-37" class="st0" d="M390.2,85.4c0.1,2,1.3,3.6-0.4,5.2c-0.1-1-0.1-1.9-0.2-2.9S389,85.6,390.2,85.4 M388.2,76.9
			c-0.3,0.9-0.7,1.5-1.5,1.9c-1.2,0.6-2.8-0.4-3.6,0.5c-0.8,0.9-0.7,3-1.8,3.7c-0.3,0.2-0.7,0.1-1.1,0.4c-0.3,0.3-0.4,0.9-0.7,1.2
			c-0.6,0.4-1.1,0-1.6,0.2c-0.6,0.3-0.7,1-0.9,1.6c-0.2,0.6-0.2,1.4-0.6,1.8c-0.5,0.6-1.8,1-2.4,1.4c-2.4,1.5-4.7,2.9-7.1,4.4
			c0.7,0.7,2.3,1.5,2.4,2.6c0.1,0.7-0.4,0.8,0.2,1.4c0.3,0.3,1.2,0.5,1.5,0.7c1.3,0.7,2.7,1.3,4.1,1.6c1.7,0.4,3.5,0.2,5.2,0.6
			c1.8,0.4,3.6,0.8,5.5,0.7c1.6,0,3.1-0.5,4.7-0.6c3-0.3,6.8,0,9.3-2.1c-0.2-2.2-0.5-3.8-1.3-5.8c-0.7-1.9-1.5-3.8-2.2-5.6
			c-1.5-3.8-3.1-7.4-5.1-11c-0.4,2.5-1.4-0.8-2.3-0.8C388.4,75.5,388.4,76.4,388.2,76.9"/>
		<path id="Fill-45" class="st0" d="M553,104.1c1.3,0.3,2.4,0.5,3.6,1.1c0.9,0.4,1.3,0.6,2-0.1c0.4-0.4,0.5-1,1.1-1.3
			c0.5-0.3,1.3-0.2,1.9-0.2c1.5-0.1,3-0.1,4.4-0.2c-1.7-1.6-3.4-3.3-5.1-4.9c-0.3,0.5-1,2.1-1.5,2.2c-0.2,0-0.6-0.5-0.9-0.5
			c-0.3,0-0.5,0.1-0.7,0.2c-0.6,0.3-0.9,0.9-1.6,1.1c-0.7,0.2-1.5-0.1-2.2-0.2C553.8,102,553.3,103.2,553,104.1"/>
		<path id="Fill-47" class="st0" d="M550.9,82.9c0.3-1.2-0.3-2.5-0.1-3.7c-0.1-0.2-0.3-0.4-0.4-0.6c-0.3,0.7-0.5,1.5-1,2.1
			c-0.4,0.6-1,1-1.2,1.7c-0.5,1.2,0.1,2.1,0.7,3.2C549.6,84.6,550.6,84,550.9,82.9"/>
		<path id="Fill-51" class="st0" d="M540.8,85.5c-1,0-0.6,0.5-0.8,1.3c-0.1,0.5-0.3,0.9-0.6,1.3c-0.5,0.8-1.8,1.7-1.1,2.8
			c0.6,0.9,0.7-0.2,1.2,0.2c0.5,0.5-3,4.1-3.6,4.3c-0.3,0.1-0.6-0.2-0.9,0c-0.2,0.2,0.1,2.3,0.1,2.7c0,1.1-0.1,2.3,0.8,3.1
			c1.1,0.9,2.8,1,4.1,1.5c0.9,0.4,1.7,0.9,2.6,1.1c1,0.3,1.8-0.3,2.6-0.2c0.6,0.1,1.8,1.1,2.5,1.4c0.8,0.4,1,0.5,1.8,0.2
			c0.5-0.2,1.3-0.5,1.6-0.9c0.5-0.6,0.1-0.6,0.2-1.4c0.1-1.5,1.7-1.3,2.7-1.7c-2.1-0.6-3.2-2.9-4.3-4.7c-0.5-0.8-1.4-1.8-1.6-2.7
			c-0.3-1.1,0.5-1.9,1-2.8c-0.7,0.3-3.4,1.5-2.1,0.1c0.4-0.5,2.9-1.2,1.9-2.4c-0.6-0.7-1.4,0.8-2.1,0.6c-0.8-0.2-1.8-1.6-2.5-2
			C543.5,86.8,541.8,85.5,540.8,85.5"/>
		<path id="Fill-5" class="st0" d="M289.8,127.5c0.1-3.5,0.6-7,1.6-10.3c2.1-6.9,6.5-12.9,7.9-20c0.7-3.4,0.5-6.9,1.1-10.3
			c0.7-3.6,0.7-7.3,0.8-11c0.1-3.6,0.3-7.2,0.2-10.8c0-1.3-0.4-3.1-0.1-4.3c0.3-1.1,0.7-0.7,1.6-1c-0.6-0.4-1.9-0.6-2-1.4
			c-0.1-0.5,0.4-1.1,0.4-1.7c0-0.5-0.3-1-0.4-1.4c-0.8-2.5-1.9-6.4-0.5-8.8c-0.9-0.1-1.2-0.4-2,0c-0.9,0.4-1.7,1.3-2.5,1.9
			c-1.5,1.2-3,2.4-4.3,3.7c-2.5,2.6-4.6,5.5-6.8,8.3c-2.2,2.8-4.5,5.6-6.7,8.4c-1.8,2.2-4.5,5.4-7,2.5c-0.7,1-1.2,2-2.4,2.4
			c-1.5,0.6-2.1,1.2-3.1,2.4c-0.2,0.3-0.8,1.3-1.1,1.4c-0.6,0.2-0.2-0.2-0.7-0.5c-0.7-0.4-1-0.7-1.3,0.5c-0.1,0.5,0.2,1.1-0.1,1.6
			c-0.2,0.5-1,1-1.5,1.3c-1.1,0.6-2.3,0.6-3.4,1c-1.9,0.6-3.1,3.5-5.2,2.1c-0.8-0.5-1.4-1.3-2.3-0.8c-0.7,0.4-0.9,1.4-1.9,1
			c-0.6-0.2-1-0.9-1.7-1.2c-0.5-0.2-0.9-0.2-1.4-0.3c-1.1-0.1-2.1-0.1-3.2-0.4c-2.2-0.7-3.8-2.7-5.3-4.4c-1.1-1.2-0.8-2-0.5-3.6
			c0.3-1.3,0.5-2.7,0.9-4c0.7-2.7,1.5-5.3,2.8-7.7c1.5-2.8,3.6-5.2,5.6-7.7c4.1-5.1,8-10.6,12.4-15.4c0.8-0.9,2.3-1.9,2.1-3.3
			c-0.2-1.5-1.9-0.8-3-0.5c-2.8,0.7-5.5,2.1-8.2,3.1c-1.5,0.6-3.5,1.7-5.1,1c-1.5-0.7-3.9-2.6-3.1-4.4c0.7-1.3,1.4-2.3,1.7-3.8
			c0.3-1.4,0.5-2.7,0.8-4.1c0.7-3.2,1.5-6.4,2.5-9.6c1.8-6,4.1-11.9,6.1-17.9c-8.3,0.7-15.9,3.2-23.6,5.9c0.4,0.8,1.1,1.8,0.8,2.7
			c-0.3,1.1-1.8,0.7-2.2,1.5c-0.4,0.9,0.9,1.4,0.5,2.5c-0.3,1-1.3,2.1-1.8,2.9c2.6,1.6,1.6-1.8,3.3-2c0.5,2.7-0.6,4-1.7,6.3
			c-0.9,2,1.2,1.8,1.7,3.4c-1.2,0.2-2.1-0.4-2.6,1.1c-0.2,0.6,0.1,2.9-0.6,3c-0.5,0-0.4-1-0.8-1c-0.6-0.1-2,1.9-2.3,2.3
			c1.5,0,2.3,0.2,3.8,0.7c-0.9,0.9-1.9,1.8-2.8,2.7c0.9,0.4,2.4,0.4,2.8,1.4c0.4,0.9-0.2,2.6-0.3,3.5c0.4-0.6,0.9-1.9,1.5-2.3
			c0.8-0.5,1,0,0.9,1c-0.1,1.9-2.6,1.8-3,3.3s1.8,0.5,1.9,2c0,0.9-1,1.6-0.5,2.5c-1.1-0.6-1.3-1-1.9-2.2c-0.4,1.5-1.3,4-0.8,5.6
			c0.4,1.3,1.3,1,0.3,2.3c-0.4,0.5-0.9,0.8-0.9,1.5c0,1.5,2.1,2.6,0.4,3.9c-0.6,0.5-1.3,0.6-1.6,1.5c-0.3,0.8,0,1.8-0.2,2.6
			c-0.5,1.7-1.7,2.9-2.9,4c-1.1,1-2.1,2.2-3.2,3.1c-0.6,0.5-0.9,0.8-1.3,1.4c-0.2,0.3,0,0.5-0.2,0.8c-0.3,0.3-1,0.3-1.4,0.3
			c-1.3,0.3-2.8,0.8-3.3,2.2c-1.6-1.2-3.2,0.3-4.7,0.7c-0.8,0.2-1.4,0.3-2.2-0.1c-1.1-0.6-1.1-0.7-2.5-0.5c-3.8,0.5-6.9-3.4-9.1-6.1
			c-1.5-1.9-2.4-4.4-2.8-6.8c-0.5-2.8-1-5.7-1.2-8.6c-0.5-6-0.3-12-0.1-18c-7,3.7-13.6,8.5-19.9,13.4c-6.3,4.8-11.7,10.8-17.3,16.4
			c1.4,0.1,2.8,0.6,4.3,0.6c0.7,0,1.4-0.1,2.1-0.4c0.4-0.2,0.7-0.4,1-0.6c0.3-0.5,0.6-0.6,1.1-0.3c1.4-0.1,2.7-0.4,4.1-0.6
			c1.8-0.3,3.7,0.3,5.5,0.6c3.3,0.6,6.8,0.2,10,1.2c2.8,0.9,5.7,2.2,8.4,3.3c2.6,1.1,4.8,3.6,7,5.3c1.3,1,2.6,1.4,4,2.3
			c1.3,0.8,2.3,2.5,3.2,3.7c2.2,2.8,4.6,5.5,6.8,8.3c1,1.3,1.9,2.6,2.4,4.1c0.3,0.8,0.3,1.6,0.6,2.4c0.2,0.7,0.7,1.1,1.1,1.6
			c1.3-3.6,2.6-7.3,4-10.9c0.5-1.4,2.9-8,4.8-5.5c1.6,2.2,0.7,6.7,0.2,9.1c-0.7,3.3-1.4,6.5-2.2,9.8c-1.5,6.5-2.8,13-4.6,19.4
			c-0.1,0.4-0.4,0.9-0.4,1.3c-0.1,0.7-0.3,0.3,0.2,0.8c0.3,0.3,0.9,0.2,1.1,0.5c0.5,0.6,0.3,2.6,0.3,3.3c-0.1,1.3-0.8,1.9-1.2,3.1
			c-0.3,1,0.2,2.1,0.2,3.1c0,2.6-1.3,5.4-1.8,8c-0.3,1.6,0.6,4.2-1.6,4.5c0.6,1-0.1,1.4-0.6,2.1c-0.6,0.9-0.7,1.8-1.1,2.8
			c-0.3,0.9-0.9,1.5-1,2.4c-0.1,0.8,0.3,1.6,0,2.4c-0.3,1-0.9,1.1-1.8,1.5c-0.8,0.4-0.6-0.1-0.8,0.7c-0.1,0.3,0,1.2,0,1.6
			c-0.4,1.9-1.9,3.2-3.1,4.5c-0.5,0.5-1.1,1.7-1.7,2c-0.8,0.4-2.1-0.3-2.9,0.1c-0.7,0.4-1.5,3.4-1.7,4.2c-0.6,1.6-1.1,3.2-1.6,4.7
			c-1.9,5.8-3.9,11.6-5.8,17.4c0.9,0,2.5-1,3.3-0.6c1,0.5,0.4,1.9,0.7,2.6c0.3,0.5,1.9,0.5,2.6,0.5c1.2,0.1,1.8-0.3,2.9-0.6
			c1.9-0.6,4.4-0.4,6.4-0.6c4.5-0.5,9.1-0.6,13.5-1.6c4.2-0.9,8.2-2.5,12.4-3.7c-1.9-1-2.3-3.5-2.8-5.4c-0.3-1.1-0.4-1.9-1-2.8
			c-0.7-1.1-1.3-2.2-1.7-3.5c-1.7-4.8-1.8-10.7-1.2-15.7c1.2-10.2,4.8-19.8,10.4-28.3c2.7-4.1,5.8-7.9,9.2-11.4
			c3.5-3.6,7.1-7.4,11.2-10.3c1.9-1.3,4-1.8,5.7-3.3c1.2-1.2,3.2-1.4,4.8-2.3c2.1-1.2,4-2.1,6.4-2.6c1.8-0.4,3.8-1.3,5.6-1
			c1.3,0.2,0.8,0.7,1.5,1.3c1,0.8,0.6-0.3,1.4-0.6c0.6-0.2,1,0.4,1.5,0.5c0.2,0.1,1.3,0.1,1.2,0c0.6,0.3,0.5,1.5,0.8,2.1
			s0.9,1,1.1,1.7c0.3,0.9,0.1,1.6-0.3,2.4c-0.4,0.9-1.1,1.3,0,2.1c-2.6,1.7-1,5.1-2.9,7.2c-0.7,0.7-2.2,1.7-2.1,2.8
			c0,1.2,2.1,1.6,1.1,2.8c-1,1.1-3.1,0.6-4.3,1.5c-1.2,1-0.8,2.6-0.9,3.9c-0.1,1-1.1,2.2-0.7,3.2c0.3,0.6,0.7,0.5,0.8,1.2
			c0,0.6-0.5,1.3-0.6,1.9l-1.3-0.6c-0.2,0.8-0.6,1.5-0.7,2.3c-0.1,0.9,0.3,1.4,0.5,2.2s-0.3,2.3-0.3,3.3c-0.1,1.1-0.2,2.3-1,3.2
			c-0.5,0.5-1.1,0.6-1.6,1s-0.6,0.9-1,1.4c0.7-0.2,1.5-0.4,2.2-0.7c-0.3,1.4-0.8,2-1.8,3.1c-0.2-0.8-0.3-1.6-0.5-2.5
			c-0.3,0.9-0.8,1.5-0.7,2.5c0,0.8,0.4,1.6,0.4,2.4c0,1.6-1.2,2.6-0.7,4.2c0.6,1.9,0.7,2.8,0.1,4.7c-0.5,1.7-1.2,3.3-1.3,5.1
			c-0.1,2,0.8,3.7,0.6,5.7c-0.1,0.9-0.5,1.6,0.6,1.7c0.9,0.1,1.9-0.7,2.7-1.1c4-1.9,7.9-3.8,11.8-5.7c-0.7-1-0.6-1.1-0.1-2.3
			c0.3-0.9,0.7-1.9,1-2.8c0.7-2,1.5-4,2.2-6c1.4-3.7,3.3-7.4,4-11.4C290,134.7,289.7,131.1,289.8,127.5"/>
		<path id="Fill-7" class="st0" d="M48.3,415.1c-1.3-0.8-2.6-1.6-3.9-2.5c0.8-0.6,1.5-1.2,2.3-1.7c0.8-0.6,1.2-1.2,1.7,0
			C48.9,412.2,48.3,413.8,48.3,415.1 M46.6,405.6c1.8,2.1-1.6,2.8-2.9,3C43.9,407.6,44.7,403.4,46.6,405.6 M86.9,398.1
			c-0.6-1.8-1.6-6.9-4.3-6.6c-0.7,0.1-1.3,0.7-2,0.8c-0.7,0-1.3-0.1-2-0.2c-1.4-0.1-3,0-4.4,0.4c-1.6,0.5-2.8,1.3-4.6,1.4
			c-1.3,0.1-2.6,0-3.8,0.3c-2.1,0.6-2,2.5-1.7,4.3c-0.4-0.4-0.8-0.7-1-1.2c-0.3-0.5-0.3-1.1-0.7-1.6c-0.9-0.9-1.9-0.5-3-0.4
			c-1.2,0.1-2.9-0.7-4.1-0.3c-0.5,0.2-0.8,0.8-1.4,1.1c-0.5,0.2-1,0.3-1.6,0.3c-1.2,0.1-2.4,0.5-3.5,0.5c-1.5,0-2.8-0.1-4.3,0.3
			c-1.4,0.4-2.7,1-4.1,1.3c-1.6,0.4-3.2,0.5-4.7,0.8c-3.1,0.6-6.2,2-9.5,2.2c-1.7,0.1-3.3,0.1-5,0.4c-0.5,0.1-1.7,0.1-2.1,0.3
			c-0.5,0.3-0.8,1.7-1.1,2.2c-2.9,6-5,12.3-7.3,18.5c-2.4,6.4-4.8,12.9-7.2,19.3c-1.1,3-2.6,6-3.5,9.1c-0.9,2.9,2.5,4.9,4.3,6.7
			c4.4,4.4,8.8,8.7,13.8,12.5s10.7,6.3,16.4,8.8c5.9,2.6,12,4.1,18.3,5c3.3,0.5,6.5,0.8,9.8,1c3.3,0.3,6.1-0.2,9.3-0.6
			c-0.3-0.7-1.4-2.1-1.2-2.9c0-0.2,0.5-0.6,0.6-0.9c0.2-0.4,0.1-0.8,0.1-1.2c0-1.9-0.7-3.7,1.7-4.4c0.1,1,0.2,2.1,0.2,3.1
			c1.2-1.8,0.4-3.6-0.3-5.4c-0.8,0.7-1.6,1.4-2.5,2.1c0.2-0.5,1.5-3.7,1.2-4c-0.4-0.3-1.1,0.5-1.5,0.1c-0.3-0.3,0-1-0.1-1.4
			c-0.2-0.6-0.9-1.1-0.9-1.8c0-0.9,1.2-1.7,1.8-2.3c0.8-0.9,1.2-1.5,1.2-2.7c0-1.7,0.8-1.6,2-2.7c2-1.8,2.1-4.3,1.1-6.6
			c0.9-0.1,1.7-0.1,2.6-0.2c-0.8-2-1.6-4-2.4-6.1c-0.8-2,0.3-3.1,0.8-4.9c1.2,1.2,2.4,2.4,3.6,3.5c0.3-3.8,1.3-7.6,0.9-11.5
			c-0.1-1.2-0.4-1.1,0.2-2c0.4-0.6,0.9-1.1,1.3-1.8c0.7-1.4,0.9-2.9,1-4.4c0.1-1.4,0.1-2.9,0.5-4.3c0.3-1,1.3-1.6,1.5-2.7
			c0.4-2-2.7-5.4-0.9-6.8c0.9-0.7,2.1,0,2.8-1.2c0.6-1,0.8-2.5,1.1-3.6c0.5-1.8,0.8-3.2,0.1-5C88,401.2,87.4,399.7,86.9,398.1"/>
		<path id="Fill-11" class="st0" d="M115.7,306.3c-0.5-1-1.2-1.2-2.3-1.4c-4.7-0.9-9.4-0.9-14.1-1.3c-1.3-0.1-2.7-0.3-4-0.6
			c-1.1-0.3-2.1-0.9-3.2-1.1c-2.1-0.5-4.3,0.9-6.4,0.8c-1.1-0.1-2-0.7-3.1-1c-0.9-0.2-1.6,0-2.5,0c-1.7,0.1-3.4,0-5.1-0.2
			c-2.1-0.2-4.1-0.6-6.1-1.1c-1.3-0.4-3.3-0.7-4.3-1.8c-2.2,3.4-4.1,7-5.7,10.8c-1.6,3.7-3.7,7.1-5.6,10.6
			c-3.9,7.1-6.7,14.7-9.4,22.4c1.5-0.7,2.5-1.4,3.6,0.2c1,1.4,2.3,1,3.9,1.2c2.7,0.4,3,3.4,3.6,5.6c0.9-1.1,1.7-2.2,2.6-3.2
			c0.7,0.8,1.8,1.2,2.4,2.1c0.4,0.6,0.2,1.1,0.4,1.6s0.7,0.7,1.1,1.1c2.7-3.4,5.2,3,5.5,5.2c0.3-0.8,0.7-1.7,1-2.5
			c0.5,0.5,1.1,1,1.5,1.6c0.2,0.4,0.2,1,0.5,1.3c0.4,0.5,0.6,0.3,1.1,0.4c0.8,0.2,0.7,0.2,1.2,0.8c1.5,2,3.7,3.5,4.9,5.6
			c1.6,2.7,3.7,5.4,4.6,8.4c0.5,1.7,0.8,3.3,1.7,4.9c0.5,0.8,1.3,1.5,1.7,2.3c0.5,1-0.4,1.4-0.3,2.3s1.6,1.8,2.4,2.1
			c1.2,0.4,2.6,0.3,3.8,0.3c1.6,0,3.5,0,5-0.5c1.4-0.4,1.2-1.1,1.6-2.3c0.4-1.4,1.2-2.8,1.8-4.1c0.9-2,1.4-3.3-1.4-3.9
			c1.6-0.3,4.1-0.7,3.6-2.8c-0.2-1-1.1-1.7-1-2.8c0.1-1.1,1-1.5,1.9-2.1c1.6-1.1,2.7-3.2,3.3-5c0.3-1,0.4-1.8,0.1-2.8
			c-0.5-1.6-0.8-2.9-0.9-4.6c0.7,0.1,1.4,0.2,2.2,0.2c-0.2-0.6-0.2-1.1-0.5-1.7c-0.1-0.2-0.6-0.3-0.6-0.6c0-0.5,0.7-0.5,1-0.8
			c0.7-0.8,0.9-2.8,1.2-3.8c0.3-1,0.4-2.2,1-3c1-1.6,2.2,0.7,2-1.6c-0.1-1.2-0.2-2.9-1.7-3.1c-1.7-0.2-2.2,0.5-2.1-1.6
			c0.1-1.5-0.3-4.6,1.3-5.4c0.8-0.4,2-0.3,2.8-0.4c1-0.1,1.8,0.4,2.7,0.4c1.6-0.1,1.5-2.3,1.6-3.4c0.8-5,1.2-10.1,0.7-15.1
			C116.6,310.6,116.5,308.1,115.7,306.3"/>
		<path id="Fill-15" class="st0" d="M156,109.1c-0.1-3.6-0.1-3.6,1.9-5C158.5,106.4,157.2,107.5,156,109.1 M192.8,118.4
			c0.4-0.9,2.2-0.6,3-0.6c-0.4,0.7-1.6,2.5-2,3.9C193.4,120.9,192.4,119.2,192.8,118.4 M188.1,144.2c0.8-0.6,0.6-0.6,1-1.4
			c0.3-0.6,0.2-0.9,0.8-1.3c1.3-0.8,1.5-0.8,1.8-2.5c0.3-1.5,0.2-3.5,0.8-4.9c0.5-1,2-1.1,2-2.3c0-2.4-4.2-3.6-3.4-6
			c0.2-0.7,1-0.9,1.3-1.5c0.2-0.4,0.1-0.9,0.1-1.3c0.1-0.9,0.4-1.1,1.2-1.3c-0.1,0.4-0.1,0.8,0,1c0.5,1,2.7-0.2,3.2-0.9
			c1-1.5,0.1-4-0.3-5.5c-0.5-2.1-0.4-3.7-0.2-5.8c0.9,1,1.8,2,2.8,3c0.5-1.5,0.6-2.3,2-3.3c1.3-0.9,1.8-1.5,2.6-2.8
			c0.3-0.5,0.5-1.1,1.2-1.2c0.6-0.2,1.6,0.5,2.1,0.2c0.3-0.2,0.7-1.8,0.8-2.1c0.3-0.9,0.7-1.9,1-2.8c-2-5-3.6-10.2-6.5-14.7
			c-2.7-4.1-6.6-7.5-10.5-10.4c-2-1.5-3.9-3-6-4.3s-4.3-1.8-6.5-2.8s-4.8-2-7.2-2.2c-1.2-0.1-2.5,0.2-3.7,0.1
			c-1.4-0.2-2.7-0.6-4.1-0.9c0,7.2-2.6,14.5-5.1,21.1c-1.1,3-2.7,5.8-3.9,8.9c-1.2,3-2.3,6.1-3.6,9.1c-2.6,6.2-5,12.6-8.4,18.4
			c-0.3,0.5-0.6,0.9-0.5,1.3c0.1,0.1,0.5,0.4,0.6,0.5c0.3,0.4,0.6,0.8,0.9,1.2c0.6,1,0.8,2.2,1.2,3.2c0.9,2.5,2.6,4.9,3.9,7.2
			c1.5,2.6,3.5,4.9,5.7,7c1,1,2.6,1.9,3.2,3.2c0.5,1,0.5,2.2,0.8,3.3c0.1-0.8,0.2-1.7,0.4-2.5c0.9,1.9,3.2,2.1,4.9,3
			c2.1,1.2,4,2.7,6.2,3.7c2.3,1,4.7,1.8,7.1,2.2c1.2,0.2,2.5,0.3,3.8,0.3c1.3-0.1,2.2-0.7,3.3-1.1c-3.6-3.1-2.3-8.5-0.2-12.1
			c0.6,1.4,1.3,2.8,1.9,4.2c0.4-1,1.8-1.9,1.2-3.1c-0.4-0.7-0.9-0.5-1-1.3c-0.1-0.6,0.3-1.5,0.6-2
			C187.9,142.7,188,143.4,188.1,144.2"/>
		<path id="Fill-19" class="st0" d="M177.5,167.5c-0.8-1.8-4.2-2.2-5.8-2.6c-2.8-0.6-5.4-2.2-7.9-3.5c-2.4-1.3-4.4-2.4-6.3-4.3
			c-0.9-0.9-1.7-1.1-2.8-1.6s-1.8-1.2-2.6-2.1c-1.6-1.8-3.7-3.2-5-5.3c-1.2-2.1-3-3.5-4.5-5.4c-1.8-2.3-3.1-4.9-4.6-7.3
			c-2.8,3-3.5,7.7-5.2,11.3c-2.1,4.5-4.1,9.1-6.1,13.7c-3.5,8.2-7,16.5-10.1,25c-0.1,0.3-0.7,1.3-0.6,1.7c0.1,0.3,0.9,0.7,1.1,0.9
			c0.7,0.7,1.1,1.5,1.6,2.3c1,1.4,2.1,2.8,3.2,4.1c2.7,2.9,5.8,5.5,9.2,7.5c1.5,0.8,3.6,2.5,5.3,2.4c2.2-0.2,3.8-0.3,6,0.2
			c2.1,0.5,4,0.9,6.2,0.8c0.9,0,1.7-0.1,2.6,0.2c0.6,0.2,1,0.9,1.7,0.9c0.8,0,1.3-0.7,2.1-1c0.7-0.2,1.4-0.3,2.1-0.3
			c1,0.1,3.5,1,4.3,0.2c0.9-0.9,0.6-3.4,2.2-3.7c1.2-0.2,3.8,2,4.8,2.7c-0.4-1.3-2-3.9-1.1-5.3c0.4-0.6,0.8-0.7,1.6-0.6
			c0.8,0.2,0.9,0.8,1.6,1.1c3.6,2,3.3-7.5,3.1-9c-0.9-0.1-1.8-0.1-2.7-0.2c0,0.8,0.3,2.7-0.3,3.1c-0.5,0.3-2.1,0-2.7,0
			c1.2,1.2,1.8,2.2-0.1,3.2c-1.3,0.7-2.9-0.1-3-1.6c-0.1-1.6,2.4-1.9,2-3.5c-0.6-2.2-2.5,1.5-2.9,2.2c-0.5-1.9-0.2-3.6,1.1-5.1
			c1.5-1.8,3.2-1.9,5.3-1.3c0.2-0.9,0.7-1.5,0.9-2.3c0.3-1-0.2-0.7-0.6-1.6c-0.7-1.4,0.7-1.9,1-3c0.2-0.7-0.1-1.3-0.5-1.9
			c-0.4-0.7-1.1-1.1,0-1.5c0.8-0.3,1.8,0.5,2.6-0.2c0.8-0.8,0.5-2.4,1-3.3c0.7-1.4,1.4-0.5,2.6-0.1c0.8,0.3,1.1,0.3,1.2-0.6
			c0.1-0.5,0-0.9-0.4-1.2c-0.6-0.5-1.4-0.2-2-0.3c-0.9-0.2-0.9-0.8-1.3-1.6c1.5-0.1,1.6,0.4,2.9,0.9c1.1,0.5,2.3,0.4,3.4,0
			c-0.8-0.3-1.7-0.3-2.4-0.8C177.7,169,177.9,168.3,177.5,167.5"/>
		<path id="Fill-21" class="st0" d="M273.2,115.5c1.5-2.8,2.9-5.7,4.3-8.6c0.8-1.8,2.6-4.2,0.5-5.6c-1.4-1-4.1-2.3-5.9-1.6
			c-1.5,0.6-2.4,4.3-4.5,1.9c-0.4,1.1-1.7,0.9-2.5,1.5c-0.6,0.4-0.5,0.9-0.9,1.5s-1,1-1.4,1.5c-0.4-0.8-0.8-1.4-1.4-2.1
			c-0.5,0.8-0.4,1.3-0.6,2.1c-0.2,0.5-0.3,0.8-0.8,1c-1.1,0.4-2.2-1-2.8-1.7c0.3,1.2,0.5,2.6-0.3,3.6c-0.6,0.8-1.7,1-2.3,1.8
			c-0.7,0.9-0.7,1.7-1.9,2.1c-0.2,0.1-1,0.3-1.3,0.3s-0.4-0.5-0.5-0.5c-0.4,0-1,0.5-1.3,0.6c0.7,0.9,0.5,1.3-0.4,1.9
			c-1,0.7-0.9,0.8-1.4,2c-0.2,0.5-0.5,1-1,1.3s-1.3,0-1.7,0.4c-0.9,0.6-0.8,2.3-1.5,3.1c-1,1.1-2.2,1.8-3.1,3
			c-0.9,1.2-1.6,2.5-2.3,3.9c-1.3,2.6-3.1,5-3.3,7.9c-0.1,1.2,0,2.8-0.5,4c-0.6,1.1-1.8,1.6-2.3,2.9c-0.4,1.1-0.6,2.5-0.8,3.7
			c-0.2,1.4,0.7,2.5,0.1,3.9c-0.6,1.3-0.7,2.3-0.8,3.7c-0.1,1.3-1.2,2.3-0.5,3.4c0.6,1.1,1.3,1.9,1.5,3.3c0.2,1.5,0,2-1.3,2.6
			c0.8,1.3,1.6,2.3,2,3.8c0.4,1.4,0.9,2.6,1.8,3.8c1.8,2.3,4,3.5,4,6.8c8-2.7,16-5.4,24.1-8.1c-3.1-0.6-1.5-6-1.3-8
			c0.4-3.7,0.8-7.4,1.3-11.1c0.5-3.2,1.4-6.3,1.9-9.4c0.3-1.6,0.5-3.3,0.9-4.9c0.4-1.4,1.2-2.7,1.5-4.1c0.7-3.1,1.2-6,2.5-9
			C270.2,121,271.8,118.2,273.2,115.5"/>
		<path id="Fill-23" class="st0" d="M39.5,392.1c0.6-0.4,1.2-0.4,2-0.4c1.9-0.2,3.5-0.6,5.4-1.2c2.2-0.6,4.6-1,6.9-1.4
			c2.2-0.4,4.4-0.3,6.5-0.9s3.8-1.2,6.1-1.3c2.5-0.1,3.9-1.2,5.9,0.8c1.8-2.5,4.4-2.5,7.3-2.9c1-0.1,2.2,0,2.5-1.2
			c0.2-1.1-0.7-2.7-1.2-3.6c-2.6-4.9-4.9-10.1-8.4-14.5c-3.4-4.3-7.9-9.1-12.7-11.8c-2.6-1.5-5.7-2.3-8.5-3.4c-3-1.2-6-2.5-9-3.8
			c-1.6,1.7-1.7,3.7-2.5,5.8c-0.7,2-2,3.7-2.6,5.7c-1.3,4-2.5,7.9-4.1,11.8c-3.5,8.2-6.9,16.4-10.1,24.7c5-0.8,9.9-1.3,14.9-1.6
			C38.9,392.9,38.8,392.6,39.5,392.1"/>
		<path id="Fill-25" class="st0" d="M304,85.8c1.4,0.2,3.1,0.5,4,1.7c3.9-5.6,8.5-10.6,13.4-15.4c4.7-4.7,9.5-9.3,14.7-13.4
			c10.4-8.4,22-15.2,33.9-21.2c-3.8-4.4-7.5-8.8-11.3-13.1c-3.6-4-7.7-7.4-11.9-10.8c-0.3,3.4-0.9,6.8-0.9,10.2s0.5,6.8,0.5,10.2
			c0,2.8,0,5.7-0.8,8.4c-0.6,2.1-1.8,5.1-4.1,5.8c-3.1,0.9-8.4-0.6-10.7-2.8c-2-1.9-3.1-4.7-4.7-6.9c-1.1-1.5-2.2-2.1-4.1-1.6
			c-2.7,0.9-5.4,2.5-8,3.8c-2.9,1.5-5.8,2.9-8.7,4.4c0.2,0.1,1.4,0.8,1.4,1c0,0.1-0.7,1.5-0.7,1.8c-0.1,1.1,0.4,2.1,0.8,3.2
			c0.4,1.1,0.6,2.2,0.6,3.3c0,1.2-0.7,2-1,3.2s0.6,1.6,1.1,2.6s0.5,2.2,0.3,3.3c-0.2,0.9-0.7,1.8-0.7,2.7c0,0.5,0.4,1,0.3,1.5
			s-0.7,0.8-1.1,1.1c1.6,1,1.9,0.9,1.2,2.6c-0.4,1.2-0.3,2.4-0.1,3.7c0.1,0.7,0.8,2.5,0.3,3.2c-0.4,0.6-1.9,0.1-2.5,0.1
			c0.2,1.3,0.6,1.1,1.2,2.2c0.4,0.7,0.3,1.6,0.3,2.3C306.8,84.9,305.6,85.1,304,85.8"/>
		<path id="Fill-27" class="st0" d="M72.6,294.1c2.1,0.6,4.1,1.1,6.3,1.2c1.9,0.1,3.9,0.2,5.6,1c0.6,0.3,1.4,1.1,2.1,1.1
			c0.8,0,0.6-0.6,1.2-1s1,0,1.5,0.2c0.8,0.2,1.7,0.2,2.5,0.2c2.4,0.1,4.7,0.1,7.1,0.2c2.1,0.1,4.2,0.4,6.3,0.4c2.2,0,4.5,0,6.7,0
			c-1.8-3.4-3.2-6.9-6-9.7c-1.4-1.4-2.6-2.9-3.9-4.4c-1.3-1.4-2.9-2.5-4.4-3.7c-1.5-1.3-2.8-2.7-4.6-3.7c-0.7-0.4-1.6-1-2.4-1.2
			c-0.7-0.2-1.3-0.1-1.9-0.5c-0.7-0.4-1.4-1.3-2.1-1.8s-1.5-1-2.3-1.4c-1.6-0.9-3.2-1.6-4.7-2.6C75.1,277.2,70.9,286,67,295
			C68.7,293.7,70.5,293.5,72.6,294.1"/>
		<path id="Fill-29" class="st0" d="M195.3,28.4c0.4,0.5,0.9,1,1.2,1.7s0.1,1.4,0.3,2.1c0.3,0.8,1.2,1.2,0.6,2.3
			c-0.4,0.7-1.4,0.9-1.6,1.7c-0.5,1.5,1.2,2.9,1.9,4.1c0.4,0.7,0.7,1.5,0.5,2.3c-0.1,0.5-0.5,0.9-0.7,1.3c-0.2,0.8,0,0,0.1,0.8
			s0.4,1.7,0.5,2.5c0.1,0.9-0.2,1.9-0.1,2.7c0.4,1.9,1.7,4.5,2.8,6.1c1,1.4,1.7,1.9,3.3,1.3c8.4-3.3,10.1-12.4,11.8-20.2
			c1-4.6,1.6-9,1.6-13.8c0.1-4.9,0.4-9.9,0.1-14.8c-1.4,0.4-3.1,0.5-4.1,1.7c-0.5,0.6-0.5,1.4-1,2c-0.7,0.8-2.1,1.5-3,2.1
			c-4.4,3.3-8.8,6.6-13.2,9.9c-0.6,0.5-1.2,0.9-1.8,1.4s-0.8,0.4-0.7,1.1C194.1,27.3,195,28,195.3,28.4"/>
		<path id="Fill-31" class="st0" d="M254.3,55.8c-0.8,1-2.3,1.3-3.3,2.2c-0.9,0.9-1.5,2.1-1.9,3.3c-0.6,1.6-1.2,2.8-1.3,4.5
			c0,1.6-0.5,3.1-0.8,4.7c-0.2,1.1-0.1,1.4,1,1.7c1.5,0.4,3.3,0.4,4.8,0.2c7.3-0.7,13.1-6.4,17.6-11.7c5.1-6.1,9.2-12.9,13.5-19.5
			c-2.1-1.2-4.4-2.1-6.4-3.4c-1.9-1.3-3.6-2.9-5.4-4.2c-0.3,0.8-0.3,1.7-0.6,2.4c-0.4,0.9-0.9,1-1.6,1.5c-1.4,0.9-2.5,2.1-3.4,3.4
			c-0.8,1.2-1.2,2.8-2.2,3.9c-0.9,1-2.3,1.4-3.3,2.3c-1.5,1.2-2.8,3.4-4.1,4.9C256,53.2,255.2,54.6,254.3,55.8"/>
		<path id="Fill-33" class="st0" d="M117.5,122.7c0.3,0.8,0.9,1.9,0.4,2.7c-0.8,1.5-1.6-0.7-2.3-1.1c0.2,1.3,0.3,2.6,0.7,3.8
			c0.2,0.8,0.5,1.7,0.4,2.6c-0.2,0.9-0.9,1.5-1,2.4c0,0.9,0.5,1.8,0.6,2.7c-1.5-0.2-1.8-0.4-2.7,0.7c0.4,0.1,1.3,0.2,1.6,0.4
			c0.4,0.3,0.2,0.2,0.3,0.8c0.1,0.9,0,2.3-0.1,3.2c0,1.1-0.6,0.9-1.1,1.6c-0.3,0.5-0.2,1.5-0.2,2.1c0.1,0.8,0.8,1.6,0.7,2.4
			c-0.1,1-1,1-1.5,1.7c-0.6,0.9-0.1,1.6,0.2,2.6c0.4,1.3,0.3,2.7,0.5,4c6.4-13,11.5-26.6,18.7-39.2c0.2-0.3,0.4-0.6,0.5-0.9
			c-0.2-0.1-0.4-0.3-0.6-0.4c-0.1-0.6-0.1-1.4-0.1-2.1c-0.1-1.5-0.5-3-0.7-4.5c-0.2-1.7,0.2-3.3,0-5c-0.1-0.6-0.2-1.1-0.2-1.7
			c0-0.9,0.5-1.5,0.5-2.3c0.1-0.8-0.4-1.9-0.4-2.7c0-0.7,0.1-1.3,0.2-2c0.3-1.8,0.8-3.5,1.1-5.3c0.6-3.6,0.6-7.3,1.2-11
			c-1,1.4-2.1,2.8-3,4.2c-1,1.4-1.6,3-2.4,4.5c-0.7,1.2-1.6,2.4-2.6,3.5c-0.8,0.9-0.8,0.8-0.5,2c0.1,0.5,0.3,1.1,0.2,1.6
			c-0.3,2.2-3.6,1.5-3.2,3.9c0.2,1.2,1.2,2.3,0.7,3.6c-0.4,1.2-1.8,1.8-2.3,2.9c-0.6,1.3,0.2,2.1,0.2,3.4c0,1.1-0.4,1.9-1.2,2.6
			c-1,1-1,1.7-1.2,3.1c-0.2,1.3-0.7,2.5-1.3,3.6c-0.6,1.1-1.4,1.4-1.1,2.7C116.6,120.9,117.1,121.8,117.5,122.7"/>
		<path id="Fill-39" class="st0" d="M102.1,142.5c1.1,4.2,2.8,8.3,5.1,12c0.4-2.1,1-4.2,1.1-6.4s0.2-4.3,0.4-6.5c0.4-4,1.2-8.1,2-12
			c1.7-8.4,3.4-16.7,5.2-25.1c-2.6,4.2-5.2,8.3-7.8,12.5c-1.3,2-2.5,4.1-3.8,6.1c-1,1.7-2.9,3.8-3.2,5.7c-0.3,2.2-0.1,4.9,0,7.2
			C101.2,138.3,101.6,140.4,102.1,142.5"/>
		<path id="Fill-41" class="st0" d="M139,92.5c0,0.6,0.4,1.2,0.6,1.8c0.1,0.7,0.1,1.4,0.1,2.1c0,1.7,0.1,3.4,0.2,5.1
			c3.5-4.8,5.3-10.4,8.4-15.4c1.3-2.1,2.8-4.2,3.8-6.6c1.1-2.6,2.1-5.1,3.3-7.6c0.7-1.4,1.4-2.7,2.1-4.1c0.3-0.7,0.7-1,0.3-1.6
			c-0.1-0.3-0.6-0.6-0.9-0.7c-0.9-0.2-1.4,0.9-2.1,1.2c-1,0.5-2.2,0.3-3.2,0.7c-2.3,0.8-4.6,2.3-6.9,3.2c-0.7,0.3-1.3,0.4-1.2,1.3
			c0.1,0.8,0.9,0.6,0,1.3c-0.4,0.4-1,0.2-1.5,0.1c0,1.7,0.3,2.7-0.5,4.2c-0.7,1.2-0.4,2.1-0.5,3.4c-0.1,1.5-0.7,3-1.2,4.3
			s-1.3,2.2-0.5,3.5c0.4,0.7,1.3,1.2,0.8,2.1C139.7,91.6,138.9,91.3,139,92.5"/>
		<path id="Fill-43" class="st0" d="M129.1,314.9c-2.5-1.5-0.1-3,0-4.4V314.9z M125.3,306.5c-0.4,0-1.7,0.2-1.9,0.5
			c-0.1,0.2,0.1,1.8,0.1,2c0,1.2-0.1,2.5-0.1,3.7c0.1,1.3,0.7,2.4,0.8,3.6c0,1.1-0.7,1.7-1,2.8c-0.4,1.3,0.1,5,1.6,5.4
			c0-0.3,0.1-2.7,0.3-2.8c0.7-0.3,1.1,1.5,1.3,2c2-1.9,2.5-4.6,3.5-7.2c1.1-3,2.1-6,3.2-9c-1.3-0.1-2.6-0.2-3.9-0.4
			C127.8,306.9,126.5,306.4,125.3,306.5L125.3,306.5z"/>
		<path id="Fill-49" class="st0" d="M90.8,391.7c-1.1,0.5-0.8,1.8-0.8,3c0,1.6,0.6,2.9,2,3.8c0.5-1.4,2.4-4.4,1.8-5.9
			C93.5,391.5,91.8,391.3,90.8,391.7"/>
		<path id="Fill-106" class="st0" d="M304,58.5c0.7-0.7,1.9-1.1,2-2.2c0.1-1.1-0.9-2.8-1.2-3.8C304.5,54.5,304.3,56.5,304,58.5"/>
		<path id="Fill-9" class="st0" d="M142.6,264.1c-1.9,0,0.2-3.9,0.5-4.8C143.7,260.2,145.1,264.1,142.6,264.1 M158.4,214.3
			c0.7-0.4,2.2-1,2.6-1.8c0.5-1-0.5-1-1.3-1c-1-0.1-2.3-0.1-3.3,0.1c-1,0.2-1.4,0.4-2.4-0.2c-0.5-0.3-1-1.2-1.6-1.3
			s-1.4,0.5-1.9,0.8c-1.9,0.9-4,0.3-6,0.4c-0.8,0-1.4,0.2-2.1-0.1c-0.9-0.4-1.1-1-2.2-0.9c-1.8,0.1-3.2,0.7-5.1,0.2
			c-1.2-0.3-2.7-1.5-4-1.2c-1.2,0.3-1.8,2.2-2.7,2.9c-0.3-1.6-0.5-3.3-1.7-4.5c-1.4-1.3-3.6-1.8-5.1-2.9c-3.6-2.5-6.1-6-8.8-9.3
			c-1.7,2.6-2.9,5-4.1,7.9c-1.1,2.8-2.2,5.6-3.3,8.4c-2.2,5.6-4.6,11.1-7,16.7c-4.9,11.2-10.4,22.1-15.3,33.3
			c3.3,0.1,6.5,1.7,9.4,3.3c0.7,0.4,0.8,0.6,1.3,1.2c0.2,0.3,0.5,1.1,1,1.2c0.2,0.1,1-0.4,1.4-0.3c0.6,0.1,1,0.5,1.4,0.8
			c2.8,2.2,5.6,4.5,8.2,6.9c1.2,1.1,2,2.1,2.9,3.5c0.9,1.5,1.9,2.5,3.3,3.7c2.2,1.8,3.5,5,5.1,7.4c0.9,1.4,1.8,2.8,2.5,4.3
			c0.6,1.4,0.8,3,2,4.1c2.4,2.3,6.1,1,9,1.3c1.1,0.1,1.4,0.5,2.4,0c0-0.4,0.2-0.5,0.5-0.4s0.6,0.2,0.9,0.5c0.8,0.4,1.5,0.9,2.2,1.4
			c0.4-1,0.8-2.1,1.3-3.1c-0.5,0-2.2,0.2-2.5-0.5c-0.2-0.6,0.7-0.8,1.1-1.1c0.4-0.4,0.6-1.8,1.4-1.7c0.6,0,0.6,0.6,0.6,1.1
			c1.4,0,1.3-1.2,1.6-2.2c0.2-0.7,0.4-1.4,0.6-2c0.1-0.5,0.9-2.3,0.7-2.7c-0.5-1-3.6-0.9-1.6-2.1c0.6-0.4,2.1-0.3,2.6-0.8
			c0.4-0.4,0.4-2.2,0.5-2.8c-0.9,0.1-2,0.6-2.6-0.2c-0.8-1.2,0.4-3,1-4c0.8,0.6,1.3,1.3,2.2,0.6c1-0.8,1.8-2.2,2.2-3.3
			c-1,0-0.9,0.2-1.4-0.6c-0.3-0.5-0.4-1.3-0.5-1.8c-0.3-1.1-0.9-1.9,0.4-2.2c0.8-0.2,1,0,1.2,0.8c0.3,1,0.2,2.7,0.3,3.8
			c1.3-1.6,2.5-3.3,2.1-5.4c-0.8,0.8-0.9,0.6-1.8,0c-1-0.6-1.9-1.3-2.9-1.9c1.2-1.1,3.1,0,4.3-0.9c0.8-0.6,0.4-2.5,0.5-3.3
			c0.1-1.1,0.5-2.1,0.5-3.2c-0.1-1.1-1.4-1.7-0.7-2.7c0.5-0.7,1.6-0.6,1.8-1.7s-0.9-1.8-1.7-2.3c1.2-0.4,3.6-0.8,2.5-2.5
			c-0.5-0.8-1.2-0.8-1.2-2c0-0.8,0.5-1.7,0.9-2.4c0.5,1.1,1.1,3.5,2.6,3.5c1.2-0.1,2.3-1.1,1.9-2.2c-1.1-3.3-4.1-3.6-7-4.2
			c0.5-2,2-1.9,3.5-0.9c0.9,0.6,1.4,1.1,2.5,0.5c1.1-0.7,0.6-0.9,0.1-1.8c-1-1.9,0.4-3,1.8-4.1c0.8-0.6,1.2-1.4,1.9-2.1
			c0.7-0.7,1.9-0.9,2.7-1.3c-1.1-0.5-2-1.1-3.2-0.7c-0.8,0.3-1.4,0.8-2.3,0.3c-2-1,0.6-1.3,0.9-2.1c0.2-0.5-0.4-1.5-0.2-2.1
			c0.2-0.7,0.6-1.3,1-1.9c0.8-1.3,1.7-2.6,1.2-4.2c1,1.1,1.3,1.4,1.4,3c0.1,1.4,0.1,2.8,0.4,4.2c0.1-2.1,2-3.4,2.3-5.4
			c0.1-0.6-0.4-2.1,0.2-2.5c0.5-0.3,1.4,0.4,1.9,0.4c-0.3-1.9-0.4-3.9-1-5.7C161.3,216.2,159.7,215.5,158.4,214.3"/>
	</g>
	<g id="Ink" transform="translate(27.999643, -0.500294)">
		<path id="Fill-53" class="st1" d="M905.7,205c-2.5,0.5-4.9,1.3-7.4,1.8c-3,0.6-6,1.1-9,1.5c-2,0.3-3.9,0.8-5.2,2.4
			c-2.5,3.2-5,8.6-1.6,11.9c1.6,1.6,4.4,1.1,6.5,1.7c2.3,0.7,4.4,1.5,6.8,1.9c11.2,1.5,22.4,4.2,33.4,6.9c5,1.2,10,2.9,14.8,4.9
			c2.5,1,4.8,2.1,7,3.6c1.9,1.3,4,2.5,5.5,4.2c-6,1-12.7,1.1-18.7,0.1c-3-0.5-6-0.4-9.1-0.6c-3-0.2-6.1-0.4-9.1-0.7s-5.9-0.6-8.8-1
			c-1.1-0.2-2.2-0.3-3.3-0.2c-0.6,0.1-1,0.3-1.6,0.1c-0.5-0.1-1-0.5-1.5-0.7c-2.2-0.8-4.6-0.6-7-0.7c-1.7-0.1-3.6-0.6-5.4-0.2
			c-3.1,0.7-4.5,5-5.2,7.6c-0.4,1.7-0.1,3.7,0.4,5.4c0.6,1.9,1.8,1.9,3.3,2.7c2.2,1.2,4.1,2.6,6.4,3.5c2,0.8,4,1.5,5.9,2.4
			c4.3,1.9,8.9,3.5,13,5.9c2.2,1.3,4.3,2.6,6.6,3.7c2.1,1,4.1,2.1,5.9,3.5c3.9,2.7,7.2,6,10.1,9.7c-1.3,0-2.4,0.2-3.7-0.3
			c-1.6-0.6-3-1.4-4.6-1.9c-3-0.9-6-1.8-8.9-2.9c-3-1.1-6-2.2-9-3.1c-1.6-0.5-3.1-0.7-4.7-1c-1.4-0.3-2.6-0.9-3.9-1.5
			c-6.3-2.5-13.1-3.8-19.6-5.6c-6.4-1.8-12.6-3.6-19.1-4.9c-3-0.6-6-1.1-9.1-1.6c-3-0.4-5.6,0-8.5,0.8c-3,0.8-5.8,1.6-8.7,2.8
			c-2.1,0.9-5.1,1.7-6.8,3.3c-1,0.9-1.6,1.9-2.8,2.6c-0.9,0.5-1.9,0.9-3,1.3c-2.3,0.8-4.4,1.9-6.7,2.8c-1.4,0.5-2.9,1-4.4,1.1
			s-2,0.4-3.3,1.1c-2,1-4.3,1.5-6.4,2.1c-2.1,0.7-4.6,2.5-6.9,1.7c-2.3-0.8-3.7-3.7-5.1-5.5c-3.5-4.7-6.6-9.4-8.6-15.1
			c-2.1-6-4.1-11.9-6.1-17.9c-1.1-3.1-2.1-6.2-3.2-9.3c-0.6-1.7-1.8-3.6-0.5-5.2c1.6-1.8,2.1-4.7,3.7-6.8c1.6-2.1,3.4-3.9,5.1-5.9
			c1-1.2,2-2.3,2.9-3.6c0.7-1,1.3-2.3,2.1-3.2c0.7-0.9,1.8-1.4,2.6-2.1c0.9-0.9,1.7-1.9,2.5-2.8c2.1-2.4,4.1-5,6.3-7.3
			c1.9-1.9,4-3.6,5.9-5.5c4.1-4.1,8.5-7.9,12.8-11.8c4.2-3.8,8.4-7.5,12.4-11.4c3.8-3.7,8.4-6.6,12.6-9.7c4.7-3.3,9.1-6.9,14.2-9.7
			c4.8-2.7,9.6-3.5,15-4.3c-0.5,1-0.9,2.1-1.6,3.1c-1,1.4-2.4,2.6-3.6,3.9c-2.4,2.6-4.8,5.2-7.2,7.8c-4.7,5-9.6,9.8-14.2,15
			c-3.6,4.1-6.5,8.3-8,13.6c-0.8,2.8-1.2,5.8,0.5,8.4c1.3,2,3.4,1.8,5.6,1.6c5.6-0.5,11.1-2.4,16.6-3.4c6.1-1.1,12.4-1.4,18.5-2
			c3.1-0.3,6.2-1.2,9.3-1.4c1.4-0.1,2.8,0.2,4.2,0.1c1.4-0.1,2.8-0.5,4.2-0.7c2.9-0.5,5.5-0.8,8.4-0.4c2.9,0.4,5.7,0.1,8.6-0.2
			c6.1-0.5,12.4,0.2,18.5,0.8c5.8,0.6,11.6,1.3,17.3,2.7c-6,1.5-11.9,3.1-17.9,4.5c-6.1,1.4-12.4,2.4-18.4,4.2
			C911,204.3,908.4,204.5,905.7,205L905.7,205z M433.9,331.3c0.7-2.4,1.3-4.9,2.1-7.3c0.2-0.5,0.5-1,0.8-1.4c-0.6,0.9-1,1.9-1.3,3.1
			C434.9,327.6,434.4,329.5,433.9,331.3L433.9,331.3z M432.6,333.7c0.1-0.3,0.3-0.6,0.4-0.9C432.9,333.1,432.7,333.4,432.6,333.7
			L432.6,333.7z M432.1,334.9c0.1-0.3,0.2-0.6,0.3-0.9C432.3,334.3,432.2,334.6,432.1,334.9L432.1,334.9z M433.7,331.8
			c-0.2,0.3-0.4,0.6-0.6,0.9C433.3,332.3,433.5,332,433.7,331.8L433.7,331.8z M798.6,309.6c-2.4,1.5-4.7,2.5-6.6,4.6
			c-4.4,4.7-9.1,9.2-13.3,14.1c-1.7,2-2.6,4.4-4.5,6.2c-2.2,2.1-4.8,3.7-7.2,5.4c-5.4,3.8-10.8,7.9-16.5,11.2
			c-1.3,0.7-2.6,1.5-3.9,2.2c-0.9,0.4-2,0.7-2.7,1.3c-0.7,0.6-1,1.5-1.8,2c-0.6,0.4-1.3,0.8-1.9,1.2c-5,3.2-10.1,6.3-15.1,9.4
			c-5,3-9.9,6-14.8,9.2c-2.6,1.7-5,3.6-7.6,5.2c-2.1,1.4-4.3,2.6-6.4,4c-2.2,1.5-4.2,3-6.7,4.2c-2.3,1.1-4.7,2.1-7.1,3.2
			c-1.4,0.7-2.6,1.5-3.9,2.3c-0.9,0.5-1.6,0.4-2.5,0.8c-2.7,0.9-5.1,2.5-7.9,3.4c-11.4,3.5-22.5-1.5-32.4-6.9
			c-5-2.7-9.6-6.2-14.4-9.2c-2.1-1.3-4.7-2.3-6.6-3.9c-1-0.8-1.3-1.6-2.5-2.2c-1-0.6-2-1.1-2.9-1.8c-4.6-3.5-8.8-7.2-12.9-11.3
			c-2.2-2.2-4.4-4.5-6.6-6.8c-1.7-1.8-3-4-4.6-5.9c-3.8-4.6-7.4-9.3-11.1-14.1c-1.8-2.3-3.5-4.6-5.3-6.9c-1.2-1.5-3-3-3.4-5
			c-0.4-1.8,0.7-3.6,1.6-5.1c1.3-2.3,2.6-4.5,3.5-7c1.3-3.7,3.4-10.9-0.7-13.6c-1.5,2.5-3.4,4.7-5,7.1s-2.3,5.5-4.3,7.7
			c-2.1,2.3-4.8,3.9-7,6.1s-4.1,4.6-6.2,6.9c-2.2,2.4-4.5,4.6-6.8,6.9c-2.2,2.1-4.6,3.9-7.1,5.7c-2.5,1.9-5.2,3.6-7.9,5.2
			c-1.2,0.7-2.4,1.6-3.7,2c-1.4,0.5-2.6,0.8-3.9,1.5c-5.4,2.8-10.8,5.5-16.3,8.1c-1.5,0.7-3,1.7-4.6,2.1c-0.6,0.1-1,0-1.6,0.2
			c-0.7,0.2-1.4,0.6-2.1,0.9c-2.8,1.2-5.7,2.2-8.6,3.2c-6.1,2-12.2,3.9-18.2,6.1c-5.6,2.1-11.1,4.3-16.9,5.9
			c-5.7,1.6-11.7,1.8-17.6,2.4c-1.6,0.2-3.4,0-4.9,0.4c-1.4,0.4-2.1,0.7-3.6,0.6c-2.6-0.2-5.1,0.3-7.7,0.7c4-7.8,6-16.7,8.9-24.9
			c0.8-2.2,1.7-4.2,2.3-6.4c0.6-2,1.4-3.9,2.4-5.7c1.2-2.2,1.6-4.8,2.4-7.1c-0.6,1.9-1,3.8-1.6,5.7c0.8-1.6,1.7-3.1,2.5-4.7
			c0.8-1.7,0.8-2.6,0.8-4.4c2.1,0.2,2.2-1.9,2.5-3.5c0.5-2.4,1-4.7,1.5-7.1c0.3-0.5,0.2-1.4,0.3-2c0.2-0.7,0.4-1.4,0.7-2.1
			c1.9-5.3,3.9-10.4,5.2-15.8c1.5-6,2.8-12,4.1-18c0.7-3.2,1.7-6.4,2-9.7c0.1-1.6,0.9-6.6-1.3-7.3c-1.7-0.5-3.5,4.7-4,5.8
			c-1.1,2.8-2.1,5.6-3.1,8.4c-0.9,2.5-1.6,5-2.7,7.5c-1,2.5-1.4,5.1-2.3,7.6c-0.5,1.5-1.4,2.6-2,4c-0.4,1-0.6,2.2-1,3.2
			c-0.7,2.2-1.9,4.4-2.7,6.6c-1.1,2.8-2.4,5.5-3.5,8.3c-1.1,2.5-1.7,5.2-2.7,7.7c-1,2.4-2.5,4.6-3.4,7.1c-1.1,2.7-2,5.4-3.1,8.1
			c-2.2,5.6-4.3,11.1-6,16.9c-0.4,1.4-1.1,2.9-1.5,4.1c-0.3,1.2-0.9,2.1-1.3,3.2c-0.8,2.1-1.2,4.4-1.6,6.6l0,0l0.1-0.7
			c-0.9,0-1.8,0.2-2.4-0.5c-0.7-0.9-0.5-2.6-0.6-3.6c-1,0.1-0.6,0.6-0.5,1.5c0.1,0.5,0.1,0.9,0.2,1.4l0.4,3.5c0.3-0.2,1-1.3,1.3-1.3
			c0.4,0,0.9,1.1,1.1,1.7c-0.1,0.2-0.2,0.4-0.3,0.6c-0.3,0.5-0.5,0.9-0.7,1.5c-0.4,1.1-0.7,2.1-1.2,3.1c-0.3,0.5-0.6,1-0.9,1.4
			c-0.3,0.3-1.2,0.8-1.3,1.2c-0.4,0.8,0.2,2.9,0.1,3.9c-0.1,1.3-0.3,2.6-0.8,3.8c-0.2,0.5-0.7,0.8-0.9,1.2c-0.3,0.6-0.3,0.9-0.4,1.7
			c-0.3,2.7-1.3,5.3-2.2,7.8c-1.1,2.8-1.9,5.8-2.8,8.6c-0.9,2.7-2.1,5.3-3,8c-1.1,3.1-2.1,6.3-3.2,9.5c-0.8,2.4-2,4.5-2.8,6.8
			c-0.9,2.4-2.1,4.5-2.5,7c-0.5,2.7-1.9,5.5-3,8.1c-0.9,2.1-2.7,4.4-3,6.7c-0.2,1.1,0.1,2.1-0.3,3.1c-0.3,0.9-0.9,1.7-1.3,2.6
			c-0.5,1.2-0.1,2.3-0.5,3.6c-0.3,1.1-1.1,1.8-1.6,2.8c-1,1.6-0.7,3.5-1.8,5.2c-1.5,2.4-2,5.1-2.9,7.8c-0.4,1.3-0.7,2.7-1.1,4.1
			c-0.1,0.5-0.2,1.6-0.5,2.1c-0.4,0.6-1,0.4-1.3,0.7c-0.3,0.3-0.3,1.3-0.4,1.7c-0.4,1.3-0.9,2.5-1.4,3.7c-1.1,2.6-2.4,5.2-3.3,7.9
			c-1,2.8-2,5.6-3,8.4c-0.5,1.3-0.9,2.7-1.5,4c-0.5,1.3-1,1.7-1.9,2.7c-0.8,1-1.2,2.3-2,3.4c-0.7,1-1.2,1.7-1.6,2.9
			c-0.6,2.3-1.1,4.5-2,6.7c-2.4,5.5-5.4,10.7-7.8,16.2c-2.5,5.8-4.9,11.6-7.1,17.4c-2,5.5-3.4,11.3-5.4,16.8
			c-2.1,5.5-3.9,11-5.9,16.5c-2.1,5.7-4.3,11.3-6.1,17.1c-0.7,2.1-1.1,4.1-1.6,6.2c0.1-0.9,0.3-1.9,0.4-2.7c-2,3.4-3.9,7.1-3,11.1
			c0.6-0.8,1-1.7,1.3-2.6c-0.1,0.5-0.3,1-0.5,1.4c-0.6,1.2-1.1,2.1-1.5,3.5c-0.9,3-1.7,5.9-2.6,8.9c-0.4,1.4-0.8,2.9-1.3,4.3
			c-0.4,1.2-1.3,2.3-1.7,3.5c-0.4,1.4-0.3,3-0.6,4.4c-0.3,1.2-0.7,2.5-1.4,3.6c-0.5,0.9-1.2,1.6-1.6,2.5c-0.5,1.1-0.2,2.2-0.3,3.4
			c-0.2,1.5-0.7,2.9-0.9,4.3c-0.2,1.4,0.5,2.3,0.7,3.6c0.3,1.4-0.3,2.3-0.7,3.6c-0.4,1.1-0.6,2.3-0.8,3.4c-0.1,0.5-0.2,2-0.5,2.3
			c-0.2,0.2-1.7,0.3-2,0.3c-1.3,0.2-2.7,0.5-4.1,0.5c-2.9,0-5.8-0.4-8.7-0.7c-5.8-0.6-11.6-1.5-17.2-3.3c-5.3-1.7-10.6-4.2-15.5-6.8
			s-9.3-6.2-13.4-9.9c-2.2-2-4.4-4.2-6.5-6.3c-1-1-2-2.1-3.1-3.1c-0.8-0.8-1.9-1.6-2-2.8c-0.1-1.4,0.9-3,1.4-4.3
			c0.4-1.1,0.9-2.3,1.3-3.4c1.1-2.8,2.1-5.6,3.1-8.4c2.2-5.8,4.3-11.6,6.4-17.4c2.2-5.8,4.4-11.5,7-17.2c2.5-5.4,4.8-10.8,6.9-16.4
			c2-5.3,4.3-10.3,6.5-15.5c1.2-2.8,2.3-5.6,3.3-8.4c0.8-2.4,1.3-4.7,2.5-6.9c0.8-1.5,1.4-2.9,1.8-4.5c0.4-1.4,0.6-2.5,1.5-3.6
			c1.9-2.3,2.9-5,3.9-7.8c1.9-5.5,4-11,6.6-16.1c2.6-5.2,5.6-10.2,8-15.6s5.7-10.2,8-15.7c4.7-11.3,11.1-21.6,15.9-32.8
			c4.7-11.1,10.2-21.7,15-32.7c2.5-5.8,4.9-11.5,7.2-17.4c1.1-2.8,2.2-5.6,3.3-8.4c1-2.5,2.8-4.4,3.5-7s1.9-4.7,3.2-7.1
			c1.3-2.5,2-5.4,3-8c2.2-5.7,4.6-11.3,7-16.9c2.5-5.8,5.1-11.4,7.6-17.2c1-2.2,1.5-4.5,2.5-6.6c0.5-1.1,1.5-2,1.9-3
			c0.2-0.5,0.2-1.1,0.3-1.6c0.2-0.7,0.7-1.4,1-2c2.6-5.2,5.4-10.3,7.7-15.6c2.4-5.5,4.8-10.9,6.9-16.5c2.1-5.5,4.7-10.7,6.5-16.4
			c0.8-2.7,1.7-5.4,2.3-8.1c0.6-2.4,1.6-5.9,1.1-8.4c-0.3-1.5-2.1-4.6-3.9-3.2c-1.6,1.3-2.6,3.8-3.5,5.6c-1.3,2.7-2.8,5.4-3.9,8.2
			c-0.9,2.2-1.7,4.4-3,6.5c-3.1,5-5.5,10.2-8.3,15.4c-0.6,1.2-1.4,2.1-2.2,3.1c-0.8,1-0.6,1.4-0.9,2.7c-0.6,2.2-2.4,4-3.4,6.1
			c-1.2,2.8-2.3,5.4-3.9,8c-1.3,2.3-2.6,4.6-3.7,7c-2.5,5.5-4.9,11-7.4,16.5c-1.3,2.9-2.6,5.9-4,8.7c-0.6,1.3-1.2,2.5-1.9,3.8
			c-0.4,0.8-1.2,1.4-1.6,2.3s0,1.7-0.3,2.6c-0.4,1-0.9,1.5-1.8,0.9c-2-1.4-2.4-4.3-3.5-6.3c-2.6-4.9-5-9.5-6-15
			c-0.5-3.1-0.3-6.2-0.3-9.3c0-2.7,1.7-4.6,3.1-6.9c3.4-5.3,6.7-10.7,10.2-16c1.5-2.3,2.8-4.8,4.4-7.1c1.5-2.2,3.5-3.9,5.1-5.9
			c0.9-1.2,1.6-2.4,2.6-3.5c0.8-0.9,1.6-1.9,2.3-3c1.3-2,2.2-4.2,3.6-6.1c3.3-4.6,6.7-9.1,10.2-13.6c1.9-2.4,4.1-3.8,6.4-5.7
			c2.3-1.8,4.3-4,6.3-6c4-3.9,7.8-8,12.2-11.5c4.6-3.5,9.3-6.8,14.1-10c2.4-1.5,5.3-2.7,7.2-4.8c0.8-0.9,1.6-1.7,2.6-2.3
			s2.1-0.7,3-1.3c2.7-1.5,5.1-3.9,7.6-5.8c2.4-1.9,4.8-3.7,7.3-5.6c1-0.8,2.9-1.7,3.7-2.7c0.4-0.6,0.4-1.3,0.8-1.9
			c1.1-1.3,3.2-1.5,4.7-2c2.9-1.1,5.8-1.7,8.8-2.3c2.7-0.5,5.2-1.7,7.8-2.6c5.6-2,11.4-3.1,17.3-3.7c-2.7,7.8-5.7,15.5-7.7,23.5
			c-0.8,3.2-1,7-2.3,10.1c-0.5,1.1-1.8,2.2-1.2,3.4c0.5,0.9,1.9,1.9,2.7,2.5c1.8,1.2,4.1-0.1,5.8-0.8c3-1.2,5.9-2.8,9.2-3.3
			c3.4-0.6,6.2-3.7,9.6-3.7c1.5,0,2.6,0.7,3.7,1.6c1.1,0.9,2.4,1.7,3.5,2.7c2.4,2.2,5.2,4,8.2,5.2c1,0.4,1.9,0.2,2.9,1
			c0.7,0.6,1.3,1.5,2.3,1.7c-4.6,4.9-9,9.8-12.9,15.3c-1.9,2.7-3.3,5.3-4.4,8.5c-0.5,1.5-0.9,2.6,0,4c0.5,0.8,1.4,1.4,2.3,1.3
			c2.4-0.4,4.5-3.6,5.8-5.3c1.5-2,3.2-3.9,4.8-5.9c3.3-4.1,6.2-8.4,10.3-11.8c1.2-1,2.5-2.1,3.8-3c1.1-0.7,1.8-0.2,3-0.4
			c3-0.5,5.7-2.1,8.3-3.4c2.9-1.5,5.8-2.9,8.7-4.3c1.5-0.7,3.8-2.3,5.6-1.6c2,0.8,3.1,4,4.2,5.7c1.1,1.6,2,3,3.7,3.9
			c2.8,1.5,8.4,3.3,10.8,0.4c3.5-4.1,3.2-10.8,2.9-15.9c-0.2-3.1-0.6-6.2-0.3-9.3c0.2-2.7,0.5-5.4,0.8-8.1c5,4.1,9.7,8.3,13.9,13.3
			c2.2,2.7,4.5,5.2,6.8,7.8c1.1,1.3,2.2,2.4,2.9,4c0.7,1.3,1.6,2.5,2.6,3.5c2.1,2.3,3.5,5.3,5.1,7.9c1.5,2.5,3.1,5.1,4.5,7.7
			c2.9,5,5.6,10,7.9,15.4c1.2,2.8,2.7,5.3,3.9,8.1c1.2,2.8,2.3,5.5,3.5,8.3c0.7,1.6,1.4,3.2,1.9,4.9c0.4,1.1,0,2.6,0.5,3.7
			c0.4,1,1.4,1.9,1.8,3c0.4,1.1,0.7,2.3,1.1,3.4c2.2,5.4,5.1,10.6,7.6,16c2.5,5.5,5,11.1,8.1,16.4c3.1,5.4,6.9,10.3,10.6,15.3
			c1.9,2.6,3.9,5.1,5.8,7.8c0.7,1,1.3,2,2.2,2.8c0.8,0.7,1.9,1,2.9,1.5c0.5-1.4,1.3-2.4,1-4c-0.2-1.4-0.7-2.7-1.1-4
			c-0.8-2.5-2.9-4.8-2.4-7.5c0.5-2.6,2.6-4.7,4.2-6.6c2.1-2.6,4.3-5.2,6.4-7.8c7.2-8.7,14.8-17,22.3-25.4c3.8-4.3,7.5-8.7,11.4-12.9
			c1.8-1.9,3.8-3.4,5.7-5.2c1.5-1.4,2.5-3.2,4-4.7c1.1-1.1,2.3-1.9,3.4-3c0.9-0.9,1.8-1.8,2.7-2.7c2-2,3.9-4,5.8-6
			c3.9-4,7.5-8.3,11.3-12.4c7.4-7.9,15.1-15.4,22.8-23c2.2,6.6,4.1,13.4,5.6,20.1c0.4,1.7,0.6,3.4,1.1,5c0.6,1.6,1.3,3.1,1.9,4.6
			c1.3,3.5,2.4,7.2,4.1,10.4c3.2,6.3,6,13.5,10.6,18.9c2.3,2.7,5.4,5,8.1,7.3c2.9,2.5,5.7,5,8.6,7.5
			C803.9,305.9,801.3,307.9,798.6,309.6L798.6,309.6z M560.8,351.2c-0.2-0.6-0.5-0.9-0.7-1c0.2,0.1,0.4,0.3,0.6,0.7
			c0.5,1,0.8,2,1.1,3.1C561.5,353,561.2,352.1,560.8,351.2L560.8,351.2z M491.4,400.9c2,2.2,4.1,4.3,6.1,6.5c1.9,2,3.3,4.2,5,6.4
			c3.6,4.7,7.3,9.3,11.2,13.7c3.7,4.3,7.8,8.3,11.4,12.7c3.6,4.4,6.3,9.2,9,14.2c1.2,2.3,2.7,4.5,4.3,6.6c0.8,0.9,1.8,1.8,2.3,2.9
			c0.5,1.3,0.7,2.8,1,4.1c2.8,11.9,5.6,23.8,8.3,35.7c1.3,5.8,2.2,11.6,3.4,17.4c1.3,5.9,3.2,11.5,4.4,17.4
			c2.4,11.9,4.1,24,6.7,35.8c2.6,11.5,7,22.5,9.4,34.1c0.3,1.6,0.8,3.1,0.4,4.8c-0.3,1.4-0.6,2.6-0.6,4c0,2.4-0.3,4.4-1.7,6.5
			c-2.8,4.1-6.7,7.7-11.2,9.7c-2.4,1.1-4.7,2.6-7.3,3.2c-1.3,0.3-2.5,0.1-3.7,0.3c-1.3,0.2-2.3,1.1-3.5,1.5
			c-4.7,1.9-10.6,1.3-15.5,1.3c-5.4,0-10.9-0.4-15.9-2.6c-0.4-0.2-0.8-0.4-1.2-0.6c-0.7-0.1-0.8-0.4-0.4-0.9c0-0.6,0.3-1.2,0.3-1.8
			c0.1-1.2-0.3-2.4-0.6-3.6c-0.7-2.8-1.4-5.6-2.1-8.5c-2.7-11.8-3.9-23.7-5.6-35.6c-0.8-6.1-2.1-12.2-3.1-18.4
			c-1-5.9-1.6-11.8-2.4-17.7s-1.6-11.8-2.4-17.6c-0.4-3.2-1.4-6.4-1.8-9.6c-0.3-2.4,0.3-4.7-0.2-7.2c-1.3-5.7-1.3-11.7-2.8-17.4
			c-1.5-5.9-3.7-11.6-5.7-17.3c-1-3-2.1-5.9-3.1-8.9c-0.6-1.7-1.3-3.6-3.1-4.5c-1-0.5-2-0.4-2.9-1.1c-1.1-0.8-2-2-3-3
			c-2.1-2.1-4.2-4.2-6.3-6.4c-8.2-8.2-16.2-16.8-25.2-24.1c-4.2-3.4-8.1-7.2-12.8-9.9c-5-2.9-9.9-6-14.9-9c-2.5-1.5-5-2.7-7.7-3.8
			c-2.4-0.9-0.9-3.2-0.2-5c1-2.8,2-5.7,2.8-8.5c0.7-2.2,1-5,3.2-6.2c1.5-0.8,2.1,0.1,3.5,0.6c1,0.3,2,0.4,3.1,0.3
			c2.3-0.1,5-1.1,7.3-0.8c1.5,0.2,2.3,0.3,3.8,0c1.4-0.3,2.8-0.3,4.2-0.4c2.6-0.2,5.2-0.2,7.8-0.7c5.6-1,11.3-2.3,16.6-4.2
			c5.7-2,11.2-4.8,16.7-7.4c0.4,2.5,0.7,5.1,1.7,7.5c0.7,1.9,2,4.5,3.8,5.5C486.4,393.7,488.5,397.5,491.4,400.9L491.4,400.9z
			 M575.4,642.3c1.7-0.9,2.1,0.4,3.1,1.8c2.8,3.9,5.7,7.8,8.5,11.7c2.8,3.8,5.6,7.6,8.3,11.3c2.6,3.5,5.5,6.9,7.9,10.6
			c2.5,3.8,4.4,8,6.3,12.1c1.6,3.5,3.9,7.1,2.3,11c-1.6,3.6-6,5.1-9.3,6.8c-4.1,2.2-7.3,3.7-11.9,2.1c-8.8-3.1-17.4-7.2-25.8-11.4
			c-7.7-3.8-13.4-9.5-19.8-15.1c-3.3-2.9-6.8-5.6-9.9-8.8c-3.2-3.3-6.3-6.8-9.6-10c-5.1-5.1-10.4-9.6-9.5-17.5
			c4.8,1.6,9.6,3.7,14.6,4.6c5.3,1,10.7,1.7,16.1,1.4c2.3-0.1,4.5-0.8,6.7-1.2s4.5,0,6.6-1.1c1.8-1,3-2.1,5.1-2.6s4-1.2,5.8-2.5
			C572.4,644.4,573.8,643.2,575.4,642.3L575.4,642.3z M422.6,432.4c0,0,0.1,0,0.1,0.1C422.7,432.5,422.7,432.4,422.6,432.4
			L422.6,432.4z M417,429.2c0.1,0,0.1,0.1,0.2,0.1C417.1,429.3,417,429.3,417,429.2L417,429.2z M313.2,708.6
			c2.3,4.1,4.5,8.2,6.7,12.3c1.1,2.1,2.1,4.2,3.1,6.2c0.9,1.9,1.8,3.4,1.9,5.6c-4.5-0.5-9.1-3.2-13-5.6c-4-2.5-7.5-5.6-10.9-8.8
			c-3.3-3.2-6.8-6.3-10.3-9.2c-1.7-1.3-3.4-2.5-5.2-3.6c-0.6-0.3-1.1-0.7-1.6-1.1c-0.6-0.6-0.8-1.6-1.4-2c-1.4-0.9-3.5,0.4-4.8,1
			c-1.6,0.8-3.2,1.8-4.6,3c-1.6,1.4-2.6,3.2-4,4.7c-1.3,1.5-2.6,2.9-3.7,4.5c-2.6,3.6-5.4,7.4-8.7,10.3c-1.5,1.4-3.4,2.4-4.7,3.9
			c-1.2,1.5-2.5,2.7-4,4c-3.3,2.7-6.1,5.4-8.9,8.5c-3.1,3.5-6.6,6.6-9.9,9.9c-0.5-2.1,0.4-3.8,1.3-5.6c1.1-2.1,1.8-4.3,2.7-6.5
			c1.9-4.7,4.1-9.3,6.4-13.7c2.2-4.2,4.5-8.3,6.6-12.5c1.8-3.5,4.5-7.8,3.7-11.9c-0.3-1.6-1.2-4-2.9-4.5s-3.4,1-4.8,1.8
			c-4,2.4-8.2,4.3-12.5,6.1s-8.7,3.6-12.8,5.7c-4,2.1-7.8,4.6-11.9,6.7c-2,1-4.1,1.8-6.1,2.9c-1.9,1-3.7,2.2-5.6,3.2
			c-3.7,2.1-7.6,3.5-11.9,4.1c3-3.9,7-6.8,10.9-9.8c4.5-3.5,9-7,13.6-10.3c4.2-3,8.4-5.8,12.5-8.9c1.9-1.4,3.8-2.9,5.6-4.5
			c1.5-1.3,3.2-2.6,3.6-4.7c0.3-1.9-0.5-4.1-2.1-5.2c-1.6-1.1-3.6-0.8-5.4-0.6c-5,0.7-10,2.3-14.9,3.7c-1.1,0.3-2.3,0.9-3.4,1.1
			c-1.1,0.3-2.5,0.2-3.6,0.2c-2.2,0.1-4.4,0.2-6.5,0.5c-2.3,0.3-4.6,0.2-6.8,0.6c-2,0.3-3.5,1.4-5.6,1.4c-9.3-0.2-17.9,4.9-27.1,4.9
			c5.5-3.2,11-6.4,16.5-9.6c2.5-1.5,5.2-2.7,7.6-4.3c2.7-1.8,5.2-3.8,8-5.4c10-5.9,21.1-10.2,30.2-17.5c2.2-1.8,4.3-3.7,6.4-5.5
			c0.5-0.4,1.1-1.2,1.7-1.5c0.9-0.4,0.6-0.5,1.4,0.3c0.9,0.9,1.5,2,2.2,3c2.9,4.1,6.5,7.6,10.5,10.6c4.7,3.4,10.1,5.5,15.3,7.9
			c5.3,2.4,10.5,5,16,6.9c5.6,1.8,11.5,2.8,17.3,3.5c6.2,0.7,11.9,0.3,18-0.4c0.4,4.6,0.8,8.5,3,12.7
			C308.5,701.1,311.1,704.7,313.2,708.6L313.2,708.6z M336.4,358.1c0.5,0.1,1,0.1,1.5,0.3c-0.4-0.1-0.8-0.1-1.1-0.2
			C336.6,358.2,336.5,358.2,336.4,358.1L336.4,358.1z M338.1,360.8c0.2-0.4,0.4-0.9,0.5-1.4C338.5,359.8,338.3,360.3,338.1,360.8
			L338.1,360.8z M285.4,438.6c-6.9,4.1-13,9.2-19.7,13.6c-3.3,2.2-6.8,4.2-10.3,6c-1.7,0.9-3.4,1.7-5.2,2.4c-1.5,0.6-3,1.6-4.6,2.1
			c-1.7,0.5-3.5,0.2-5.2,0c-1.5-0.2-3-0.1-4.2-1.1c-2.2-1.8-3.7-5.4-5-7.9c-1.9-3.5-4.1-7.2-5.5-10.9c-1.3-3.5-3-6.7-3.6-10.4
			c1.2-2,1.1-4,0.1-6c-0.5-0.9-1-1.8-1.6-2.6c-0.6-1-0.6-1.2-1.7-1.2c1.1,3.3,2.1,6.5,3.2,9.8c-1-3.2-2.4-6.5-3.2-9.8
			c-0.6-2.9-0.9-5.7-1.9-8.5c-0.5-1.4-1.4-2.8-1.8-4.2c-0.3-1.2-0.3-2.5-0.5-3.7c-0.4-3.4-1.3-6.8-1.9-10.2
			c-1-6.5-1.7-13.1-2.9-19.6c-1.3-6.7-2.9-13.3-4.4-19.9c-0.6-2.5-1.5-4.7,0.9-6.4c2.4-1.7,5-3,7.5-4.5c2.4-1.4,4.7-2.7,7.3-3.8
			c2.1-0.9,4.2-1.8,6.2-3c1.2-0.8,2.5-0.8,3.8-1.2c1.4-0.5,2.8-1,4.2-1.5c2.6-0.9,5.1-1.8,7.7-2.7c1.4-0.5,4.3-2.3,5.6-0.9
			c0.7,0.7,0.8,2.2,1,3.1c0.3,1.5,0.6,3,0.9,4.5c1.1,5.8,2.2,11.6,3.1,17.4c0.9,5.7,1.4,11.5,2.3,17.2c0.2,1.4,0.9,3.1,0.8,4.5
			c-0.1,1-0.8,1.6-1.5,2.3c-1.8,1.7-3.5,3.5-5.1,5.4c-1.8,2.1-3.5,4.3-5.4,6.2c-1.9,1.9-3.5,3.6-4.8,6c-1.1,2-2.6,3.8-2.1,6.2
			c0.4,1.8,0.9,3.7,3.1,2.9c2.5-0.9,4.7-3.3,6.7-5.1c1.9-1.7,3.8-3.4,5.8-5c2.2-1.8,4.6-3.3,6.7-5.2c1.8-1.6,3.4-3.5,5.1-5.3
			c4.2-4.2,8.6-7.9,13-11.7c2-1.8,3.7-4,5.5-5.9s3.8-3.7,5.7-5.6c4.1-4,8.5-8,12.3-12.3c1.9-2,3.8-4,5.7-6c0.8-0.8,1.3-1.9,2.1-2.7
			c0.7-0.8,1.8-1.3,2.6-2c3.5-3.2,5.4-7.6,8.8-10.8c0.9,2,1.6,4,2.2,6.1c0.6,1.9,1.1,4.2,2.2,5.9c0.5,0.8,1.4,1.4,1.8,2.2
			c0.4,0.8,0.3,1.7,0.6,2.6c0.6,1.6,1.7,3.3,2.6,4.8c1,1.6,2.3,3.1,3.6,4.5c0.3,0.4,0.7,0.7,1,1c-0.2-0.1-0.3-0.2-0.5-0.2
			c1,1.8,2,2.6,3.6,3.7c0,0.1-0.1,0.2-0.1,0.3c-0.9,1.9-1.8,3.6-2.5,5.6c-1.2,3.4-2.9,6.6-4,10c-0.6,1.8-0.8,3.7-1.7,5.5
			c-0.8,1.5-1.8,2.9-2.5,4.5c-1.8,3.6-2.9,7.6-4.3,11.3c-1.4,3.9-3.1,7.6-4.8,11.4c-1.7,3.7-3.4,7.5-4.9,11.3
			c-0.7,1.7-1.2,3.6-2.3,5.1c-1.2,1.6-2.9,2.1-4.7,2.7C298.9,430.9,291.9,434.7,285.4,438.6L285.4,438.6z M199.6,328.6
			c-4.1-3.4-9.7-2.5-14.7-2.5c-5.8,0-11.5,1.1-17.3,1.5s-11.6,0.7-17.3,0.5c-5.2-0.1-10.3-0.6-15.3-1.6c-2.5-0.5-4.9-0.8-7.5-1
			c-1.6-0.1-3.1-0.6-3.9-2.1c-1.1-2-0.8-5-0.9-7.1s-0.4-4.8,0.5-6.8c0.8-2,2.7-2.9,4.6-3.7c2.3-0.9,4.6-1.8,7-2.7
			c9.4-3.6,19.1-7.7,29.2-8.6c2.8-0.2,5.6-0.3,8.5-0.3c2.4-0.1,4.7-0.7,7.1-0.9c5-0.5,9.9-0.6,14.8-1.7c1.4-0.3,2.2,0.4,3.6,0.7
			c1.1,0.2,2.2,0.1,3.2,0.1c2.2-0.2,4.4-0.4,6.6-0.2c2.6,0.2,5.3,0.4,7.9,0.8c2.3,0.4,4.6,1,7,1.3c2.6,0.3,5.1,0.4,7.7,1
			c1.3,0.3,3.2,0.6,4,1.8c1,1.6,0.2,4.7,0.1,6.5c-0.1,2.5-0.3,5-0.3,7.5c0,2.7,0.4,5.4,1,8.1c0.4,1.9,1.2,4.2,0.8,6.2
			c-0.2,1.1-1,1.6-2.2,1.4c-0.8-0.1-1.4-0.9-2.2-1c-1.4-0.2,0,0.9-0.8,1.8c-0.6,0.7-1.7,0.5-2.6,0.8c-0.9,0.3-1.8,0.7-2.7,1.1
			c-2,0.9-4,1.5-6,2.4c-4.3,2.1-8.5,4.7-12.6,7.2c-0.7-2.1-1.2-5.2-2.6-6.9C202.9,330.6,201,329.8,199.6,328.6L199.6,328.6z
			 M484.1,198.5c0.9-2.6,2.2-5.2,2.9-7.9c0.3-1,0.3-2.3,1.3-2.9c0.8-0.4,2.3-0.2,3.1-0.2c1.6,0,3.2,0,4.7,0c0.8,0,1.9-0.2,2.4,0.6
			c0.5,0.9-0.3,2.4-0.3,3.4c0,1.4,0.3,2.9,0.7,4.2c1.6,5.9,3.2,11.7,5,17.6c-1.8-0.8-3.2-2.7-5.2-2.9c-1.3-0.1-2.3,0.6-3.5,0.8
			c-1,0.2-2,0.2-3,0.5c-4.5,1.1-8.7,3.4-13.3,4.2c0.2-1.7,0.3-3.2,0.8-4.9c0.5-1.4,1-2.8,1.4-4.2
			C482.1,204.1,483.1,201.3,484.1,198.5L484.1,198.5z M499.1,158.8c2.2-1,4.4-3.8,2.3-6.1c-1.1-1.2-3.9-0.6-5.3-0.3
			c-2,0.4-9.8,5.5-10.7,2c-0.6-2.3,0.5-5.7,1.5-7.7c0.6-1.3,1.5-2.5,2.6-3.4c1.1-1,1.6-0.7,3-0.6c2.3,0.3,4.4-0.4,5.9,1.8
			c0.3,0.4,0.4,1,1,1.1c0.5,0.1,0.7-0.5,1.2-0.5c0.8,0,0.9,0.5,1.2,1.1c0.8,1.6,1.9,4.6,4.3,3.3s2.5-5.5,2.5-7.7
			c0-3.5,0.2-7,0.4-10.4c0.1-2.8,0.4-5.3,2.4-7.3c1.9-2,3.4-4.7,5.7-6.2c2.6-1.7,6-1.5,8.9-1.7c3.4-0.3,7-0.6,10.4-0.3
			c3.5,0.4,6.9,0.5,10.4,0.4c3.5-0.2,6.9-0.4,10.4-0.5c3.3-0.1,6.7,0.2,10-0.2c1.3-0.1,3.1-0.6,4,0.7c1,1.5,0.9,4.2,1.2,5.9
			c-3.6-0.7-9.4-2.3-10.8,2.7c-0.4,1.5,0.9,2.9,2,3.8c1.6,1.3,4,1.3,6,1.5c1.1,0.2,2.9,0.1,3.6,1.2c0.6,1.1,0.3,3.1,0.4,4.3
			c0.3,4.9,1,9.8,1.5,14.7c0.5,4.7,0.9,9.5,0.1,14.2c-0.4,2.4-1.3,4.7-1.5,7.1c-0.1,1.5,0.1,3.2-1.2,4.2c-1.6,1.1-4.3,1.2-6.2,1.6
			c-2.5,0.5-4.9,1.2-7.3,1.9c-3.8,1.1-8.5,1.7-9.9,6c-1.5,4.6-2.6,9.3-4,13.9c-0.7,2.3-1.7,4.4-2.8,6.7c-0.4,0.9-1,1.8-0.9,2.8
			s0.8,2,1.2,3c0.9-0.5,1.8-0.7,2.5-1.4c0.8-0.7,1.4-1.7,2-2.5c1.3-1.7,2.2-3.2,4.1-4.4c0.1,0.9,0.3,1.7-0.2,2.5
			c-0.3,0.6-1,1.1-1.4,1.6c-1.2,1.4-2.3,2.9-3.5,4.3c-2.5,2.7-5.5,4.9-8.1,7.6c-2.6,2.6-5,5.7-8.2,7.7c-3,1.9-6.3,3.5-9.5,5.2
			c2.8-6.3,0.9-12.7-2.5-18.4c-1.5-2.6-3.4-5.1-5.2-7.6c-1.4-2-4-4.7-4-7.2c0-1.4,1-2.5,1.6-3.7c0.7-1.2,1.3-2.6,1.9-3.9
			c1.2-2.7,2.8-5.5,3.3-8.4c0.4-2.6-0.2-6.1-1.9-8.2c-0.7-0.8-1.7-0.7-2.6-1.3s-1.6-1.4-2.3-2.1c-0.8-0.8-1.9-1.4-2.7-2.2
			c-0.9-0.9-1.5-2-2.1-3C502.2,163.8,500.6,161.4,499.1,158.8L499.1,158.8z M508.7,103.2c2.6,0,4,1.5,5.2,3.6
			c-0.8,1.3-3,5.2-4.8,3.6c-0.3-0.3-0.5-0.9-0.9-1.2c-0.4-0.3-0.9-0.5-1.3-0.7c-1-0.4-2.1-0.9-2.8-1.8
			C502.6,104.5,507.1,103.2,508.7,103.2L508.7,103.2z M559.9,201.4c0.5-0.1,1.9,0.8,2.4,1c0.9,0.4,1.9,0.7,2.7,1.3s1,1.4,1.5,2.2
			c0.2,5.7,0.5,11.4,0.5,17.2c-0.2-5.7-0.3-11.4-0.5-17.2c-0.3,1.6-0.9,3-0.9,4.6s0.3,3.3,0.4,5c0.3,3.1,0.6,6.2,1,9.3
			c0,1.8-0.1,3.6-0.3,5.4c-2.3-3.2-4.5-6.4-6.8-9.5c-2-2.8-4.7-3-7.9-3.2c2.1-4.2,4.2-8.5,6.3-12.7
			C558.5,204.2,559.4,201.5,559.9,201.4L559.9,201.4z M931.3,211.1c3.4-0.9,6.9-2.2,10.4-2.7c3.3-0.4,6.3-1.9,9.4-2.8
			c2.8-0.8,5.7-1.5,8.4-2.5c2.1-0.7,4.4-1.5,6-3c1.7-1.6,2.6-4.1,2.3-6.5c-0.4-2.7-2.4-3.1-4.7-3.9c-11.8-4-23.7-6.4-36-8
			c-6.3-0.8-12.7-1.8-19.1-1.7c-3.3,0.1-6.6,0.3-9.9,0c-3-0.2-6,0.9-9,0.3c-3-0.6-5.8,0.2-8.9,0.6c-3.2,0.4-6.5,0.6-9.7,0.7
			c-3,0.1-6.1,0-9,0.8c-2.8,0.8-5,1.3-7.9,0.4c3-3.3,6-6.6,9-9.9c6.2-6.8,12.6-14.1,16.3-22.6c1.6-3.6,2.4-8.9-0.3-12.3
			c-2.4-3-7.6-2.4-10.9-1.9c-4.3,0.6-8.3,2.2-12,4.4c-3.5,2.2-7.4,3.9-10.6,6.5c-3.2,2.6-6.8,4.3-10,6.8c-3.3,2.6-6.6,5.1-9.9,7.6
			c-7.2,5.5-13.2,12.4-20,18.4c-3.6,3.1-7,6.5-10.2,10.1c-1.5,1.7-3.1,3.3-4.4,5.2c-1.1,1.6-2,3.2-3.2,4.7c-1.4,1.8-3.1,3.3-4.6,5.1
			c-1.3,1.6-2.6,3.3-3.8,5.1c-1.3,1.8-2.5,3.7-3.7,5.5c-0.7,1-1.3,2.6-2.6,2.4c-1.9-0.2-2.9-1.8-4.9-0.7c-0.7,0.4-1.1,1-1.7,1.5
			c-0.8,0.7-1.7,1-2.6,1.5c-1.9,0.9-3.5,2.4-5.2,3.6c-1.8,1.3-3.6,2.4-5.3,3.9c-7,6.3-13.4,13.1-20.1,19.6c-1.6,1.6-3.3,3.1-4.9,4.7
			c-1.3,1.3-2.2,2.8-3.5,4.1c-0.7,0.7-1.6,1-2.4,1.7c-0.7,0.6-1.3,1.5-1.9,2.3c-1.5,1.7-2.9,3.4-4.4,5.1c-3,3.2-6.2,6.1-9.1,9.4
			c-2.9,3.4-6.2,6.6-9.2,10c-6.3,7.2-12.1,14.5-17.9,22c-2.9,3.8-6.1,7.2-8.8,11.1c-2.6,3.7-4.8,7.6-6.7,11.6
			c-0.6,1.1-1.3,4.5-3.3,3.3c-0.7-0.4-1.2-1.7-1.7-2.4c-0.6-1-1.2-1.9-1.8-2.9c-2.6-4.2-5.4-8.3-7.5-12.8c-4-8.6-8-17.1-11.3-26
			c-1.7-4.5-3.6-8.9-5.4-13.3c-1.9-4.4-3.3-8.9-5.1-13.3c-3.6-8.7-8.4-17-13.2-25.1c-4.4-7.5-9-15.2-15.1-21.4
			c-3.2-3.3-5.7-7.1-9.1-10.2c-1.7-1.6-3.5-3.1-5.2-4.7c-1.2-1.2-2.3-2.9-3.8-3.6c-1.1-0.5-2.2-0.4-3.4-0.4c-0.9,0-1.9-0.2-2.8-0.2
			c-0.8,0.1-1.1,0.8-1.9,0.9c-0.8,0.2-1.3-0.2-1.9-0.6c-3.9-2.7-9.2-3.8-13.6-5.4c2.8-1.7,6.2-1.8,9.3-2.5c2.6-0.6,5.1-1.7,7.3-3.3
			c4.8-3.6,5.6-9.3,6.4-14.9c1-6.4,1.8-13.2,0.9-19.7c-0.8-6.3-1.7-12.7-2.7-19c-0.5-3.1-1-6.1-2-9c-0.7-2.4-1.7-4.9-1.6-7.5
			c0-1.3,0.1-3.2,1-4.1c0.7-0.7,1.7-1,2.5-1.7c1.8-1.6,3.2-3.4,4.3-5.5c0.9-1.7,2.3-4.2,1.5-6.1c-0.9-2.1-3.8-2.5-5.8-3
			c-5.8-1.5-11.7-1.3-17.6-2.1c-2.8-0.4-5.8-1.2-8.6-1.2s-5.6,0.1-8.4,0c-6.1-0.1-12.3-0.3-18.4,0.4c-1.6,0.2-3.2,0.3-4.8,0.4
			c-1.3,0.1-2.2,0.7-3.5,0.9c-0.7,0.1-1.8-0.3-2.5-0.3c-1.2-0.1-2.5-0.1-3.7,0.2c-2.6,0.5-4.6,2.1-7.2,2.7c-2,0.4-3.5,1.5-4.6,3.3
			c-2.6,4.5-2.7,10.7-3,15.7c-0.3,6,0.2,12-0.1,17.9c-0.1,1.4-0.2,2-1.8,1.9c-2.1-0.2-4-0.8-6.2-0.2c-4.1,1.1-6.7,4.8-8.3,8.5
			c-1.7,3.9-2.6,8.3-2.3,12.5c0.2,3.7,1.6,8.5,5.7,9.6c2.2,0.6,4.4-0.3,6.5-1c2-0.6,3.7-2.4,4.8,0.1c2.2,5,4.3,9.5,7.8,13.9
			c-3.2-0.2-6.4-0.5-9.7-0.7c-2.1-0.1-5.1-0.7-7.2,0.1c-1.2,0.5-1.2,1.3-2.1,2.1s-2.8,0.5-3.9,0.4c-3.5-0.1-6.7-0.7-10.2-0.4
			c-2.6,0.3-4.9,1.6-7.5,2c-3.1,0.6-6.3,1.8-9.2,3c-2.8,1.1-5.5,2.3-8.4,3.2s-5.8,1.9-8.6,3.1c-5,2.3-9.2,6-13.6,9.1
			c-1.2,0.8-2.4,1.5-3.5,2.5c-0.9,0.8-1.5,1.8-2.3,2.5c-1.4,1.3-3,1.2-4.5,1.9s-3,2.1-4.4,3c-1.3,0.9-2.5,1.7-3.8,2.6
			c-2.4,1.6-4.7,3.6-7.3,4.9c-4.8,2.4-8.5,6.2-12.4,9.9c-4.2,3.9-8.8,7.4-12.9,11.4c-4,4.1-7.7,8.4-11,13.1
			c-3.4,4.9-6.2,10.2-9.4,15.2c-1.5,2.3-3.3,4.2-5,6.3c-0.9,1.1-1.7,2.2-2.4,3.3c-0.7,1-1.1,2.3-2.1,3.1c-1.9,1.5-3.9,2.4-5.5,4.4
			c-1.8,2.2-3.3,4.7-4.8,7.1c-3,4.8-5.8,9.8-8.4,14.9c-0.8,1.5-0.8,2.6-0.9,4.2c-0.1,1.3-0.5,2.5-0.7,3.7c-0.4,2-0.1,4.1-0.7,6.1
			c-0.3,1.3-1.2,1.5-2.2,2.2s-1.9,1.5-2.8,2.4c-1.8,1.7-3.5,3.4-5.5,4.9c-2,1.6-4,3.1-5.8,4.9c-1.8,1.9-3.4,3.8-5.4,5.4
			c-4.4,3.6-8.5,7.5-12.8,11.1c-4.5,3.8-8.5,8-12.6,12.1c-4.2,4.3-8.7,8.4-13.2,12.5c-0.3-4.9-0.6-9.8-1-14.7
			c-0.4-5.3-1.6-10.4-2.7-15.6c-0.9-4.6-1.6-9.6-3.1-14c-1.1-3.1-3.2-5.6-6.4-6.3c-1.6-0.4-4.1,0.4-4.9-1.4
			c-0.8-1.8-0.9-4.6-1.2-6.5c-1.4-8.6,1.4-18.1-2.2-26.3c-1.6-3.6-4.4-5.4-7.9-7c-4.5-2-9.5-1.5-14.2-2.5c-2.2-0.5-3.9-1.6-6.2-1.7
			s-4.6,0-6.8,0.1c-2.4,0.1-4.7-0.4-7-0.4c-2.1,0-3.7,1.4-5.7,1.1c-2.3-0.4-4.1-0.9-6.4-0.3c-2,0.6-4,0.8-6.1,0.8
			c-2.6,0.1-5.2-0.2-7.8,0c-2.4,0.1-4.7,0.8-7,1.1c-5,0.6-9.8,1.2-14.7,2.5c-4.8,1.3-9.4,3.2-14.1,5c-7.5,2.8-16.1,4.9-18.2,13.8
			c-1.1,4.9-1.4,10.2-0.8,15.2c0.5,4,1.4,8.5,3.8,11.9c2.5,3.6,6.8,4.7,10.8,6c4.6,1.4,9.4,1.7,14.1,2.5c4.9,0.9,9.8,1.6,14.8,1.5
			s9.8-1.4,14.8-1.8c5.1-0.4,10.2-1,15.3-1.5c3.4-0.3,10-1.3,11.7,2.6c0.5,1.2,1.3,2.7,0.3,3.8c-1.2,1.3-2.2,2.6-3.3,4.1
			c-1.4,2-2.5,3.9-3,6.3c-0.4,2.4-0.5,4.8-0.5,7.2c-0.1,10,2.4,20.1,4.9,29.7c2.5,10,5.4,20,8.9,29.8c3.4,9.3,5.9,18.9,9.9,28
			c2,4.5,4.6,8.6,7.4,12.7c2.3,3.5,4.4,7.6,7.9,10.1c2.9,2.1,6.5,3.1,10.1,2.9c4.2-0.3,8.3-2.9,12-4.8c9-4.5,17.2-10.7,25.3-16.7
			c3.9-2.9,7.4-6.2,11.5-8.7c4-2.5,8.1-4.7,12.6-6c-3.8,7.9-7.2,16-11.2,23.8c-3.9,7.7-7.2,15.7-10.8,23.6c-1.5,3.2-3.6,6.1-5.1,9.3
			c-1.6,3.7-3.3,7.4-4.9,11.1c-3,6.8-6.2,13.5-8.9,20.4c-0.6,1.6-0.3,3.5-1.1,4.8c-0.8,1.4-1.7,2.6-2.3,4.1
			c-1.3,3.2-2.4,6.5-3.9,9.7c-3.3,7-5.4,14.6-8.6,21.7c-3.2,7.1-6.1,14.3-8.9,21.6c-1.4,3.6-3,7.1-4.3,10.7
			c-1.2,3.3-2.3,6.7-4.3,9.7c-4.3,6.5-7.6,13.6-10.9,20.7c-1.5,3.4-2.9,6.7-3.1,10.4c-0.2,3.4,1.9,6.1,3.6,8.8
			c-3.1,1.5-5.9,3.5-8.9,5.1c-3.3,1.7-6.7,3-10.1,4.4c-3.5,1.4-6.9,2.8-10.4,4.2c-3,1.3-5.8,2.8-8.8,4.2c-2.8,1.4-5.3,3.1-8,4.8
			c-2.9,1.7-5.7,3.4-8.6,5.2c-5.6,3.4-11,6.9-16.9,9.8c-3.1,1.5-6.1,3-9.2,4.6c-2.5,1.3-5.3,2.4-7.1,4.6c-2.7,3.3-2.5,8.6,0.1,11.9
			c1.7,2.2,5.9,2,8.4,2.1c1.7,0,3.5,0,5.2-0.4c1.4-0.3,2.6-1,4-1.4c1.6-0.4,3.3-0.3,4.9-0.5c1.6-0.2,3.1-0.5,4.7-0.8
			c3.3-0.7,6.7-1.5,10-2.2s6.5-1.4,9.7-2.3c1.3-0.4,2.7-1.1,4.1-1.1c1.5,0,2.8,0.1,4.3-0.1c1.5-0.3,3-0.7,4.6-0.9
			c1.4-0.2,2.9,0,4.3-0.2c1.6-0.3,3.1-1,4.6-1.4s2.9-0.3,4.4-0.3c-3.8,3-7.8,5.7-11.7,8.5c-3.9,2.9-7.6,6.1-11.4,9.1
			c-3.1,2.5-6.9,4.9-8.8,8.5c-1.5,2.9-1.8,6.4-1.2,9.6c0.8,4,3.7,4.5,7.3,4.7c4.6,0.3,8.2-1.6,12.2-3.6c7.9-3.9,15.5-8.4,23-13
			c3.7-2.3,7.8-4,11.7-5.9c2.1-1,4.2-2,6.2-3c1.7-0.8,3.9-2.4,5.8-2.2c-5.2,10.7-10.6,21.3-15.1,32.3c-1.9,4.6-3.4,9.4-3.8,14.4
			c-0.3,3.5-0.1,10.4,4.3,11.6c2,0.5,3.7-0.8,5-2.1c1.9-1.8,3.6-3.9,5.4-5.8c3.5-3.8,7.2-7.3,11-10.8c3.9-3.5,7.7-6.9,11.2-10.8
			c3.3-3.7,7.5-6.5,10.6-10.4c3.2-4,6.1-8.2,9.4-12.1c2.1-2.6,3.9-6.7,7.6-7.2c0.5,3.1,3.2,5.8,5,8.3c4.1,5.5,9,10.1,14.1,14.6
			c4.6,4.1,9.6,7.6,15.4,9.8c3.8,1.5,11.8,4.9,14.8,0.3c1.4-2.2,0.7-6.5,0.1-8.9c-0.7-3.4-2.4-6.5-3.8-9.6c-3-6.3-6.3-12.3-9.7-18.4
			c-1.7-3.1-3.3-6.1-5.2-9.1c-1.6-2.6-3.8-5.1-4.6-8c-0.3-1.2-0.5-2.9-0.1-4.1c0.4-1.3,1-1.1,2.1-1.2c2.6-0.4,1.8-5.1,1.5-7
			c-0.3-1.7-0.9-3.3-1.5-4.8c-0.5-1.3-1.6-3.1-1.6-4.6c0.1-1.4,1.4-2.8,1.9-4c0.6-1.4,1-2.9,1.5-4.4c2-6.8,4.7-13.4,6.3-20.3
			c1.7-6.9,3.4-13.6,5.9-20.3c2.5-6.9,5.3-13.7,7.6-20.7c2.2-6.8,4.5-13.5,6.9-20.3c4.9-13.5,10.2-26.8,16.1-39.9
			c5.8-12.9,12.3-25.5,17.3-38.8c2.4-6.4,4.8-12.7,7-19.1c2.3-6.7,4.8-13.2,7.5-19.7c2.8-6.7,5-13.5,7.4-20.3
			c2.3-6.7,4.3-13.6,7.2-20.1c0.7,0.8,1.4,1.4,1.9,2.3s1,1.8,1.7,2.6c1.3,1.5,3,2.5,4.6,3.6c1,0.7,1.8,1.5,3,1.7h0.1
			c-0.2,0-0.4,0-0.6,0.1c1.4,1,2.9,2,4.4,3c-0.1-0.3-0.2-0.6-0.4-0.8c0.5,0.8,1,1.6,2,1.8c-0.1,0-0.2,0-0.2,0
			c0.7,0.5,3.1,2.9,2.9,0.3c0.1,0.4-0.1,0.7,0.1,1.2c0.2,0.4,0.6,0.9,1,1.2c0.7,0.8,1.5,1.4,2.3,2c1.9,1.4,4,2.6,5.9,4
			c0.5,0.4,2.4,2.6,3,2.6c1.2,1,2.4,2.1,3.6,3.1c-0.5-1.6-0.9-3.2-1.4-4.8c0.3,1.2,0.7,2.3,1,3.5c0.4,1.3,1,1.8,2,2.7
			c1.8,1.6,3.5,3.2,5.3,4.7c3.3,2.7,7.2,4.9,10.8,7.3c1.9,1.3,3.9,2.7,5.7,4.1c1.5,1.2,3.4,1.6,4.9,2.7c1.9,1.4,3.6,3.3,5.2,5
			c1.5,1.5,3.2,3.1,4.2,5c1.2,2.1,1.2,4.9,1.5,7.3c0.4,2.4,0.7,4.8,1.1,7.2c0.7,4.9,1.4,9.9,2,14.8c0.6,4.9,1.3,9.7,1.7,14.6
			c0.4,4.9,0.3,9.9,0.9,14.8c1.1,9.9,2.4,20,4.5,29.7c2.1,9.8,3.5,19.8,5.4,29.6c1,5.1,2,10.1,3,15.2c0.5,2.5,1,5,1.5,7.5
			c0.4,2.1,0.2,4.1,0.6,6.2c0.2,1.1,0.5,2.2,0.5,3.4c0,1.1-0.7,2.1-0.7,3.1c-0.1,1.4,1.2,3.6,2,4.7c1.2,1.7,2.8,3.2,4.1,4.7
			c1.4,1.5,1.9,2.1,1.4,4.2c-2.1,9,3.2,16.5,8.9,22.8c6.3,7,12.5,13.7,19.7,19.7c3.8,3.2,7.3,6.6,10.9,9.9c3.5,3.2,7.2,5.7,11.2,8.2
			c4.1,2.5,8.4,4.3,12.7,6.5c4.2,2.1,8.2,4.2,12.7,5.7c4.2,1.5,8.5,2.8,12.6,4.6c3.2,1.5,7.3,1.4,10.5,0c2.2-0.9,4-2.6,6-3.9
			c1.8-1.2,3.7-2.4,5.6-3.5c3.1-1.8,6.2-3.9,7.6-7.5c1.6-4.2,0.2-9.2-0.7-13.4c-0.9-4.3-2.8-8.3-5.2-12c-2.4-3.9-5.4-7.2-8.1-10.9
			c-2.8-3.7-5.4-7.7-8.4-11.3c-2.9-3.6-6-7.1-9.4-10.3c-3.3-3.3-6.2-6.9-9.3-10.4c-0.7-0.8-1.9-1.7-2-2.9c-0.1-1,0.6-1.8,0.9-2.7
			c0.7-1.8,0.5-3.7,0.5-5.6c0-0.9,0-1.8,0.5-2.7c0.4-0.8,1.2-1.1,1.5-1.9c0.3-0.7,0.2-1.7,0.3-2.4c0.2-1,0.6-1.7,1-2.6
			c0.8-2.3-0.2-5-0.6-7.3c-0.4-2.2-0.8-4.3-1.2-6.5c-0.9-4.7-1.5-9.3-3-13.9c-3-9.2-5.9-18.3-6.1-28.1c-0.1-4.9-1.5-9.6-2.6-14.3
			c-1.2-5-2.4-10-3.7-15c-2.4-9.6-5.2-19-7.6-28.6c-2.4-9.5-4.6-19.1-7.5-28.5c-2.9-9.5-6.9-18.4-11.3-27.4c-2.1-4.3-4.4-8-7.4-11.7
			c-3.2-3.8-6.4-7.5-9.7-11.3c-6.6-7.5-13.2-15-19.8-22.5c-3.3-3.7-6.7-7.2-10.6-10.4c-3.5-2.8-8.2-5.1-9.3-9.7
			c-0.3-1.3-0.5-2.6-0.9-3.9c-0.2-0.7-0.8-1.9-0.7-2.7c0.2-1.6,3.1-2.2,4.3-2.8c4.1-1.9,8.3-3.7,12.4-5.8c2.2-1.1,4.2-2.5,6.3-3.9
			c1.8-1.2,3.8-1.5,5.7-2.1c4.4-1.4,8.5-3.3,12.5-5.5c4.2-2.2,8.4-4.4,12.5-6.9s7.3-5.5,10.8-8.8c1.6-1.5,2.7-0.7,3.8,0.9
			c1.3,1.9,2.8,3.8,4.2,5.7c0.6,0.9,1.2,1.9,2.1,2.5c0,0,0.1,0,0.1,0.1c-0.2-0.1-0.3-0.1-0.5-0.2c0.3,2.4,2.1,4,3.7,5.7
			c-0.1-0.4-0.3-0.8-0.4-1.2c0.4,1.1,1,1.9,1.7,2.9c1.5,1.9,3.1,3.6,4.8,5.4c0.9,0.9,1.8,1.8,2.7,2.6c0.4,0.3,0.7,0.7,1.1,1
			c0.6,0.6,0.9,0.7,1.5,1c1.2,0.6,1.5,1.5,2.6,2.3c1.6,1.2,3.6,1.9,5.3,3.1c1.4,0.9,2.5,2.8,4.1,3.2c0.6,0.1,1,0,1.4,0.5
			c0.6,0.6,0,0.6,0.9,0.8c0.5,0.1,1-0.2,1.5,0s1,0.6,1.4,0.9c1,0.7,2,1.4,2.9,2.1c1.8,1.3,3.5,2.6,5.3,3.9c3.5,2.6,6.6,5.6,10.1,8.2
			c1.8,1.4,3.7,2.3,5.6,3.5c1.6,1,2.9,2.3,4.4,3.4c1.8,1.3,3.9,1.9,5.7,3.1s3.6,2.4,5.5,3.4c4.1,2.3,8.3,4.4,12.7,6.2
			c4.4,1.8,9,3.2,13.8,3.5c4.9,0.2,9.5-1,14-2.8c4.4-1.8,8.8-3.8,13-6c4.1-2.2,7.9-4.8,11.9-7.2c4-2.3,7.9-4.8,11.7-7.4
			c3.7-2.5,7.1-5.3,11.1-7.4s7.5-4.8,11.3-7.2c3.9-2.5,7.7-5.1,11.5-7.6c8-5.3,16-10.8,23.5-16.7c3.6-2.8,7.2-5.8,10.4-9.1
			c3.4-3.6,7.5-6.6,11.2-9.8c3.6-3.5,7.2-7,10.8-10.4l0,0c-3.6,3.5-7.2,7-10.8,10.5c1.7-0.3,2.8-1.4,4.2-2.5s2.9-2.3,4.3-3.4
			c2.1-1.7,4.4-3.4,4.2-6.4c0.9-0.8,1.8-1.7,2.8-2.4c1.6-1.3,3.4-2,5.1-3.1c3.4-2.3,6.4-5.2,9.6-7.7c1.4-1.1,2.7-2,2.9-3.9
			c0.2-2.1,0-4.3-0.1-6.4c0-1.6-0.5-3.9,0.1-5.4s2.7-2.2,4-2.9c3.8-2.1,7.5-4.3,11.3-6.3c3.7-2,7-3.4,11.2-3.8
			c1.9-0.2,3.6-0.4,5.5-0.7c1.9-0.3,3.7,0.3,5.5,0.6c4.2,0.8,8.5,1.2,12.7,2s8.4,1.8,12.6,2.9c4.2,1,8.4,2.1,12.6,2.9
			c2.2,0.4,4.4,0.6,6.5,1.3c1.6,0.5,3.1,1.2,4.8,1.6c4,0.9,8,1,11.9,2.3s7.8,2,11.9,2.6c2.1,0.3,4.2,0.7,6.3,1.1
			c1.3,0.3,2.4,0.4,3.7,0.1c2.7-0.7,4.8-2.8,5.7-5.4c2.3-7.1-2.2-14.7-6.8-19.8c-5-5.4-11.2-9.2-17.1-13.4c2.4-0.3,4.7,0.1,7.1,0.1
			c2,0,4-0.1,6,0.1c4.5,0.2,9-1.1,13.5-1.2c6.1-0.1,13.6-1.4,15.2-8.3c1.5-6.5-5.4-12.3-10.3-15.2c-3.1-1.9-6.3-3.6-9.4-5.6
			c-3.3-2.1-7.4-3.4-11-4.8c-3.7-1.5-7.4-2.9-11.3-3.9c-3.7-1-7.4-1.5-11-3c3.2-1.4,6.7-1.7,10.2-2.4
			C924.6,212.8,928,212,931.3,211.1L931.3,211.1z"/>
		<path id="Fill-58" class="st1" d="M691.2,53.8c2.1-1.1,4.2-2.1,6.3-3.1c4.5-2.2,8.9-4.5,13.4-6.6c2-0.9,4.2-1.5,6.3-2.3
			c2.2-0.8,4.4-1.9,6.5-3c4.5-2.2,9.1-4.1,13.8-5.8c1.4-0.5,2.9-1.1,4.3-1.6c1.1-0.4,2.4-1.2,3.6-1.3c1.8-0.2,3.2,1.6,4.4,2.8
			c6.7,6,11.4,15,14.3,23.4c1.6,4.6,2.3,9.4,3.1,14.2c0.9,4.9,1.8,9.7,1.8,14.7c0,5.1,0.6,10.1,0.3,15.1c-0.1,1.9,0.3,5.3-0.8,6.9
			c-1.1,1.7-3.7,2.1-5.4,2.8c-9.3,3.4-18.6,7-28.1,10c-9.8,3.1-19.6,6.2-29.5,9.4c0.4-2.8,0.9-5.6,1.2-8.4c0.3-2.6,0.1-5.4,0.1-8
			c0-5.8-0.2-11.6-1.4-17.3c-2.1-10.4-5.6-20.6-11.3-29.6c-1.3-2.1-3-4-4.6-5.9c-0.6-0.7-2.5-2.3-2.4-3.3
			C687.3,55.3,690.2,54.3,691.2,53.8 M803,52.7c2.2,0.1,3.5,0.6,3.7,2.9c0.2,2.9,0.1,5.9,0.3,8.8c0.2,5.6,0.4,11.3,0.3,16.9
			c-0.3,9.9-1.3,19.7-4.3,29.1c-1.5,4.6-3.2,9-5.1,13.4c-1.8,4.3-4.4,8.1-6.7,12.1c-1.1,2-2.4,3.6-3.9,5.2c-0.7,0.8-1.1,1.2-2.1,1.3
			c-1.1,0.1-2.4-0.1-3.4-0.2c-5-0.4-10-0.9-15-1.1c-5-0.2-9.9,0-14.9-0.3c-2.3-0.1-4.5-0.9-6.8-1.2c-2.3-0.4-4.6-0.5-6.9-0.8
			c-1.2-0.1-1.2,0.1-1.3-0.9c-0.1-0.6,0.1-1.3,0.1-1.9c0.1-1.1,0.1-2.3,0.2-3.4c0.1-1-0.1-2.8,0.3-3.8c0.4-0.9,1.2-1,2-1.2
			c4.6-1.3,9.1-2.8,13.5-4.6c4.5-1.8,9.1-3.5,13.6-5.5c1.9-0.8,4.1-1.6,5.6-3.2c1.2-1.3,1.9-3,2.4-4.6c2.9-9.1,2-19.7,1.1-29.1
			c-0.9-9.7-2.3-19.6-5.8-28.7C780.7,52,791.9,52.2,803,52.7 M678.6,61.1c3.1,1.2,5,3.9,6.9,6.5c2.2,3.2,4.4,6.5,6.1,10.1
			c3.7,7.5,6.1,15.7,7.5,23.8c1.3,7.8,2,16.5,0.5,24.4c-0.4,2.1-1.5,3.8-2.1,5.8c-0.4,1.3-0.1,3.3,0.2,4.6c0.5,1.9,2.3,1.3,3.8,0.9
			c2.2-0.4,4.4-0.9,6.5-1.4c8.2-1.7,16.4-4.8,24.7-5.4c-0.7,2.2-1.1,4.2-2.5,6.2c-1.3,1.8-3.1,3.3-3.9,5.5c-0.6,1.8-0.8,4.3-0.1,6.1
			c0.7,1.9,2.4,1.9,4.1,2.2c5,0.6,9.9,1.4,14.9,1.7c1.1,0.1,2.2,0.2,3.2,0c0.9-0.2,1.5-0.4,2.3-0.3c1.1,0.2,2.2,0.8,3.4,0.9
			c1.1,0.1,2.3,0.1,3.4,0c4.2-0.2,8.3,0.3,12.5-0.1c1.2-0.1,3.5-0.8,4.7-0.1s0.3,2.2,0.9,3.3c0.8,1.3,3.5,0.7,4.8,0.6
			c1.9-0.1,3.6-0.4,5.2-1.3c3.4-1.8,6.5-4.1,9-7c2.6-3,4.5-6.6,6.4-10.1c2-3.7,3.9-7.3,5.4-11.2c1.5-4,3-8.1,3.9-12.3
			c0.9-4.2,1.4-8.4,2.2-12.7c0.8-4.4,1-8.9,1.2-13.3c0.2-4.6,0.3-9.1,0-13.8c-0.3-4.5-0.8-9-1.3-13.5c-0.1-1.2-0.1-2.3-0.2-3.5
			c-0.1-0.8-0.5-1.5-0.6-2.3c-0.1-1.5,1.3-2.5,1.3-4.2c-0.1-3.8-4.1-5.2-7-6.1c-3.9-1.2-8.2-1.9-12.2-1.6
			c-8.7,0.6-17.6,0.7-25.8,3.9c-4.3-7.3-8.2-15.2-15.2-20.4c-0.8-0.6-1.6-1-2.2-1.8c-0.4-0.7-0.6-1.5-1.2-2.1
			c-1.4-1.6-3.2-1.8-5.2-1.4c-4.4,0.9-8.5,1.9-12.7,3.6c-1.8,0.7-3.8,1.1-5.6,1.8c-1.8,0.7-3.5,1.6-5.2,2.4
			c-3.7,1.8-7.6,3.4-11.3,5.3c-7.5,3.7-14.9,7.6-21.8,12.4c-3.3,2.3-7.1,4.7-10,7.6c-1.2,1.3-1.8,2.9-1.6,4.7
			C676.3,61.2,677.2,60.5,678.6,61.1"/>
		<path id="Fill-60" class="st1" d="M188.1,75.3c0.4-4.8,0.2-9.5,0.6-14.3c0.3-4.5,1.2-9.1,2.1-13.6c0.9-4.5,2.5-8.5,4.4-12.7
			c1-2.3,2-4.6,3-7c0.6-1.4,1-2.9,2.7-3.3c2.2-0.5,4.8-0.1,7-0.2c2.3-0.1,4.5-0.2,6.7-0.4c4.9-0.4,9.7-1.1,14.6-1.7
			c4.7-0.5,9.3-0.8,13.9-1.7c2.4-0.5,4.7-1.1,7.1-1.6c1.8-0.4,4.2-1.5,6-1.1c-2.2,5-2.9,10.3-2.9,15.7c0,2.1-0.3,3-2.5,2.9
			c-2.8-0.2-5.5-0.4-8.3-0.8c-5.2-0.6-10.3-1.5-15.5-2.4c-2.4-0.4-4.8-1-7.2-1.6c-1.7-0.4-2.4,0.3-3,1.8c-0.4,1.1-0.5,1.6-1.6,2.3
			c-0.9,0.5-1.7,1-2.5,1.6c-1.4,1.1-2.6,2.4-3.7,3.9c-2.3,3.2-3.8,7.1-5.1,10.8c-3.4,9.4-5.1,19.5-5.4,29.5c-0.2,5.1-1,10-1,15.1
			c0,2.2,0.5,5.1-1.3,6.7s-4.2,2.7-6.2,4c-1.8-5.1-2.2-10.5-2.3-15.9C187.6,86,187.7,80.7,188.1,75.3 M263.6,48.3
			c2.2,0.6,4.5,1.1,6.7,1.6c-3.8,9.2-3.7,19.3-4,29.1c-0.1,4.4,0,8.7,0.4,13.1s1.4,8.7,2.3,13.1c0.2,1,0.7,2.5,0,3.4
			c-0.7,1-3,1.5-4,1.9c-3.9,1.8-7.8,3.7-11.8,5.3c-4.1,1.6-8.3,2.6-12.2,4.4s-7.8,3.5-11.8,4.9s-8.1,2.5-11.9,4.2
			c-3.6,1.7-6.6,4-9.7,6.5c-1.9-5.8-2.6-11.8-2.9-17.9c-0.3-5.8-0.8-11.9-0.2-17.8c0.3-2.7,0.3-5.1,0.2-7.8c0-2.4,0.5-4.7,0.7-7.1
			c0.4-5.2,0.4-10.4,1.1-15.7c1.3-9.8,4-20.3,9.4-28.7c0.3-0.5,0.7-1.4,1.1-1.8c0.8-0.7,0.5-0.5,1.6,0c1,0.5,1.9,1,2.9,1.5
			c2.1,0.9,4.4,1.3,6.6,2c2.4,0.7,4.7,1.8,7.2,2.2s5,0.4,7.4,0.8c1.4,0.2,2.6,0.7,3.9,1c1.1,0.3,2.1,0.2,3.3,0.3
			c2.2,0.2,4.3,0.8,6.5,1C259,48.1,261.2,47.6,263.6,48.3 M182.8,90.8c0.8,6,2.4,11.9,4.7,17.5c0.8,1.8,1.6,4.3,3.8,4.8
			c2,0.5,4.4-1,6.3-1.5c1.5,8.7,2.1,17.8,6,26c0.5,1,1.1,2.9,2.2,3.6c1,0.7,2.3,0,3.3-0.4c4.3-1.6,8.8-2.7,13.3-3.8
			c2.2-0.6,4.4-1,6.6-1.8c1.8-0.6,3.5-1.4,5.3-1.7c3.9-0.7,7.5-2,11.2-3.3c7.8-2.8,15.6-5.2,22.8-9.4c3.4-2,7-3.9,10.2-6.3
			c2.6-2,5.5-4.9,4.2-8.4c-0.4-1.1-1.4-2.8-2.7-3.2c-1.1-0.3-2.2,0.7-3.2,1c-1.6,0.4-1.2-0.9-1.4-2.2c-0.1-1-0.2-2-0.4-2.9
			c-0.2-2.1-0.5-4.1-0.7-6.2c-0.8-8.5-0.4-17.1-0.4-25.6c0-4.3,1-8,2-12.2c0.5-2.2,1-4.4,1.5-6.6c0.3-1.2,0.6-2.6,0.2-3.8
			c-0.8-2.8-4.8-3.5-7.1-4.3c-2-0.7-4.1-1.3-6.1-1.7c-1.1-0.2-4.2,0-4.9-1c-0.7-0.9,0.1-4,0.2-5.2c0.1-2.1,0.3-4.2,0.6-6.2
			c0.4-3.3,0.4-6.4-2.3-8.9c1.7-1.3,2.8-4.1,0.4-5.4c-2.8-1.4-6.5-1.6-9.4-0.9c-3.2,0.8-6.7,0.8-10,1.2c-3.5,0.4-7,0.8-10.5,1.3
			c-6,0.8-12.1,0.9-18.1,2.1c-3,0.6-5.9,1.1-8.9,1.5c-3.1,0.5-5,0.9-6.8,3.5c-3.5,5-6.8,10-8.7,15.8c-1.9,5.5-2.7,11.3-3.3,17
			c-0.6,6.2-0.7,12.4-0.6,18.6C182.1,78.3,182,84.6,182.8,90.8"/>
		<path id="Fill-62" class="st1" d="M56.6,336.1c0.4-0.6,1.4-0.8,2-1c0.9-0.4,1.7-0.8,2.6-1.3c4.2-2.4,8.3-4.9,12.1-7.8
			c0.9-0.7,3.3-3.3,4.6-2.9c0.7,0.2,1,1.3,1.3,1.9c0.5,1,1,1.9,1.6,2.8c2.3,3.6,5.1,6.9,8.3,9.8c5.9,5.4,12.7,8.9,20.9,9.3
			c-5.3,7.2-10.3,14.6-16.3,21.2c-3,3.3-6.3,6.3-9.5,9.6c-0.5,0.5-0.8,0.9-1.5,1.2c-0.7,0.3-1.3,0.4-1.9,1c-1,1-1.1,2.4-0.8,3.7
			c-5.6,0.2-11.6-2.3-16.7-4.3c-3-1.2-5.9-2.5-8.7-4.1c-1.9-1.1-4-2.3-5.4-4c5.1-2.7,10.3-5.3,15.2-8.4c3.3-2.1,9.2-4.6,8.8-9.5
			c-0.1-0.8-0.4-1.7-1-2.1c-1-0.6-1.2,0.1-2.1,0.3c-1.5,0.3-3.2-1.6-4.3-2.5c-3-2.3-6-4.8-7.8-8.1C57.4,339.9,55.9,337.3,56.6,336.1
			 M25.5,379.3c0.8-2.7-3-4.8-4.7-6.1c-2.6-1.9-4.3-4.1-6.1-6.8c-6.7-10.6-9.1-23.6-8.6-36c0.2-3.4,0.5-6.9,0.6-10.3
			c0-1.8-0.1-3.5,0.3-5.2s0.8-3.3,1.2-5c0.8-3.3,1.2-6.7,2.2-10c0.9-3,2.1-6,3.6-8.8c1-1.9,1.9-4.5,4.4-4.2c3.2,0.5,6.2,2.1,9.3,2.9
			c3.4,0.9,6.8,1.7,10.3,2.5c3.3,0.8,6.6,1.9,9.9,2.6c1.7,0.4,3.5,0.5,5.3,0.5c0.8,0,2.2-0.1,2.2,1c0.1,1.2-1.7,2.4-2.4,3.1
			c-1,1-1.8,2-2.4,3.3c-1.3,3.2-2.6,6.5-3.1,9.9c-0.5,3.3-0.4,6.8-0.4,10.2c-0.1,6.8,0.9,13.3,3.3,19.7c2.2,5.8,5.7,9.7,10.4,13.6
			c-4.9,2.5-9.9,4.9-14.8,7.4c-4.5,2.2-9,4.1-12.8,7.4c-1.6,1.3-3.4,2.9-4.5,4.7c-1.4,2.2,0.6,3.7,2.7,2.8c2.3-1,4.6-2.1,6.8-3.1
			c1.5-0.7,3.9-2.6,5.6-2.5c1.5,0,2,1.9,2.6,2.9c1,1.6,2.3,3.1,3.7,4.4c3,2.8,6.5,5.1,10.2,6.9c4.1,1.9,8.4,3.3,12.9,4
			c2.4,0.4,4.9,0.6,7.3,0.5c1.8-0.1,4.4-0.1,6.1-1c1.4-0.8,0.7-2.4,2.1-3.2c1.5-0.8,3.1-1.5,4.5-2.4c3.4-2.3,5.4-5.2,7.4-8.6
			c4.6-8,10.2-15.3,13.6-23.9c0.8-2,1.3-4.4,2.6-6.2c0.9-1.2,2.8-1.9,3-3.4s-0.4-4.8-1.9-5.5c-1.7-0.8-4.2-0.8-6.1-1.3
			c-8.1-1.9-15.7-4.8-22.2-10.2c-1.6-1.3-3.1-2.8-4.6-4.3c-1.1-1.1-2.2-2.3-2-4c0.2-1.5,1.4-3.7-1.1-4.1c-1.6-0.3-3.9,0.6-5.2,1.4
			c-4,2.5-7.7,5.6-11.6,8.4c-3.5,2.5-7.1,5-10.6,7.4c0.4-5.9,0.2-12.2,1.6-17.9c0.7-2.8,1.9-5.4,3.4-7.9c1.6-2.5,2.8-5.1,4.2-7.7
			c0.8,0.4,2,1.4,2.7,0.3c0.4-0.7,0.1-2.7,0-3.5c-1.2-6.3-10.7-6.9-15.6-8c-7-1.5-14.1-3.4-21.2-4.5c-3.3-0.5-6.6-0.6-9.9-0.8
			c-1.7-0.1-3.7-0.5-4.7,1.2c-0.3,0.5-0.3,1.1-0.6,1.5c-0.3,0.3-1.1,0.7-1.5,1c-1.1,0.9-2,1.9-2.9,3.1c-1.7,2.3-2.9,5-4,7.6
			c-2.7,6.3-4.3,13.1-5.1,19.9c-0.9,7-1.5,14.3-1,21.3c0.8,13,4.4,26.2,12.6,36.6c1.9,2.4,3.9,4.3,6.6,5.7
			C20.7,379.2,24.8,381.7,25.5,379.3"/>
		<path id="Fill-65" class="st1" d="M118.7,532.1c-2.5,3.3-5.1,6.5-7.3,9.9c-2.3,3.5-4.5,7-6.7,10.5c-2.2,3.4-4.6,6.7-6.3,10.3
			c-1,2.1-1.1,4.9-3.8,4.8c-3.6-0.1-7.1-1.2-10.2-2.9c-6.4-3.4-11.7-8.2-15.7-14.2c-4.1-6.3-7.4-13.4-9.7-20.5
			c-1.3-3.9-2.3-8-3.3-12c-0.5-2.1-1-4.1-1-6.2c0-0.9,0.1-1.9,0.1-2.8s0.5-2.4-0.5-2.5c0.3-2.5,0.6-5.1,0.9-7.6
			c0.2-1.8,0.2-3.9,1.8-5.1c1.5-1.2,3.9-1.2,5.7-1.6c2.2-0.5,4.3-1.1,6.5-1.7c4.4-1.3,8.6-3.1,12.8-4.9c2.1-0.9,4.2-1.8,6.2-2.9
			c1.6-0.9,2.8-2.3,4-0.2c7.6,14.5,13.2,30.8,25.6,42c1,0.9,2.7,2,2.8,3.5C120.9,529.7,119.5,531.1,118.7,532.1 M128.8,521.9
			c-1.8-1.2-3.9-1.4-5.7-2.5c-2-1.3-3.4-4.2-4.8-6.1c-3.3-4.6-6.7-9.2-9.7-14c-2.7-4.4-5.2-8.9-7.8-13.3c-1.3-2.3-2.7-4.5-4.3-6.6
			c-0.7-0.9-2.4-4.1-3.8-3.9c-0.7,0.1-0.7,0.8-1.2,1c-0.3,0.1-0.5,0-0.8,0c-1,0.1-2-0.4-3-0.3c-2.5,0.2-5.1,1.3-7.5,2
			c-4.9,1.5-9.6,3.6-14.5,5.3c-4.8,1.7-10.2,2.8-14.6,5.5c-1.7,1-3.7,2.7-2,4.8c0.6,0.8,1.5,0.8,2.2,1.4c0.6,0.5,0.3,0.8,0.2,1.6
			c-0.1,0.5-0.2,1-0.2,1.5c-0.8,5.1-1.4,10.2-0.7,15.3c0.7,5.2,1.8,10.4,3.3,15.4c4.6,15.9,12.8,34.8,29,41.8
			c3.8,1.6,7.5,2,11.5,2.8c1.3,0.2,2.3,0.8,3.4,1.4c0.5,0.3,1.2,0.7,1.8,0.6c1.5-0.2,2.7-2.5,3.3-3.5c2.6-4.1,5.5-7.9,8.2-11.9
			c1.4-2.1,2.7-4.2,3.8-6.4c0.7-1.3,1.1-3.4,2.9-3.4c0.5,0.7,1,1.3,1.5,2c0.2,0.3,0.5,0.6,0.6,0.8c0.4,0.7,0.3,0.2,0.2,1.1
			c-0.2,1.1-1.2,2.4-1.9,3.2c-3.8,5.1-7.8,10.2-11.8,15.2c-3.9,4.9-7.9,9.8-12.5,14.1c-0.9,0.9-1.9,1.9-3.3,2
			c-1.3,0.1-2.6-0.6-3.9-0.8c-2.7-0.5-5.5-0.6-8.1-1.4c-1.4-0.4-2.5-1.2-3.9-1.3c-1.2-0.1-2-0.3-3.1-0.9c-2.4-1.4-5-2.2-7.4-3.6
			c-4.9-2.8-10.1-6.9-13.7-11.3c-1.9-2.3-3.4-4.8-5.3-7.1c-1.8-2.2-3.6-4.4-5.1-6.8c-3.1-4.7-5.5-9.9-7.4-15.2c-1-2.8-1.5-4.6,1-6.6
			c2.3-1.9,4.4-3.9,6.3-6.2c0.9-1.1,5.1-5.2,2-5.9c-1.7-0.4-4.4,2.5-5.7,3.6c-2.1,1.7-4.1,3.3-6.6,4.6c-2.7,1.4-2.8,3.1-2.7,6
			c0.1,5.9,2.3,11.7,4.6,17c2.3,5.5,5.3,10.8,8.8,15.7c6.8,9.3,14.3,18.7,24.8,24c5.2,2.6,10.8,3.9,16.5,4.6
			c3.4,0.4,6.8,0.5,10.2,0.4c1.4,0,3.3,0.2,4.7-0.3c1.1-0.4,1.3-1.2,1.7-2.2c1-2.4,3.5-3.7,5.2-5.6c1.8-2.1,3.7-4,5.6-6
			c4-4.3,6.7-9.5,9.9-14.4c1.8-2.7,3.7-5.4,5.3-8.2c1.3-2.3,2.8-5.4,3.3-8c0.3-2.1-1.3-5.1-3.6-5.2c-1.2-0.1-2.2,0.9-3.4,1
			c-0.4,0-1.6-0.2-2,0c1.9-4.7,4.8-9.1,7-13.7c1.2-2.6,2.4-5.2,3.5-7.8C129.9,524.9,130.8,523.3,128.8,521.9"/>
		<path id="Fill-67" class="st1" d="M159.8,149.2c3.8,8.8,9.9,15.8,16.2,22.9c3.3,3.8,6.7,7.2,10.7,10.2c3.7,2.8,7.5,5.6,11.3,8.4
			c-3.8,4.9-8,9.3-12.2,13.8c-3.9,4.2-7.8,8.4-10.3,13.5c-0.3-2.5-1.9-4-4-5c-2.7-1.2-5.1-2.6-7.5-4.4c-4.9-3.9-9.5-8.6-13.7-13.2
			c-8.6-9.5-14-21.5-20-32.6C140,158.2,149.9,153.7,159.8,149.2 M128.1,171.4c1.4,4.1,3.5,8,5.5,11.8c1.9,3.8,3.8,7.6,6.1,11.2
			c4.2,6.9,9.3,13.3,15.8,18.2c3.2,2.4,6.6,4.7,10.2,6.5c1.7,0.9,3.5,1.5,5.4,1.4c1.2-0.1,2.8-1.1,3.7-0.2c0.9,0.9,0.6,2.8,2.6,1.9
			c1.6-0.8,3-2.4,4.2-3.6c3-3.2,6-6.4,8.9-9.8c2.8-3.2,5.1-6.9,7.5-10.4c1.3-2,2.6-3.9,3.9-5.9c0.9-1.4,2.2-2.8,2.2-4.6
			c-0.1-3.5-4.4-5.8-6.8-7.7c-3-2.4-5.7-4.8-8.2-7.6c-2.7-3-6.1-5.5-9-8.4c-3.2-3.1-6-6.4-8.8-9.8c-2.2-2.7-4.5-5.4-6.4-8.3
			c-1.5-2.3-3.2-4-6.1-3.6c-2.3,0.5-4.7,0.9-6.9,1.8c-2.3,0.9-4.4,1.9-6.6,2.9c-4,1.8-7.6,4.1-11.5,6.2c-0.9,0.5-1.7,0.9-2.5,1.5
			c-0.4,0.3-0.9,1-1.3,1.2c-0.3,0.2-0.6,0.1-1,0.2c-1.6,0.4-2.1,1.3-2.9,2.7c-1.3,2.2-1.2,3.4-0.1,5.6
			C126.9,166.8,127.4,169.2,128.1,171.4"/>
		<path id="Fill-69" class="st1" d="M284.5,280.6c1,1.6,2.6,0.8,3.5-0.3c2.8-3.4,5.4-7,7.9-10.6c2.5-3.7,4.8-7.4,7.7-10.8
			c2.9-3.4,5.8-6.8,8.8-10.2c11.2-12.5,22.6-24.7,34.9-36c3-2.8,6.1-5.5,9-8.4c1.3-1.3,2.8-2.7,2.8-4.7c0-1.4-1-3.1-2.2-3.8
			c-2.7-1.6-6.2,2.2-8.2,3.6c-1.5,1.1-3.1,1.6-4.7,2.5c-1.4,0.8-2.8,2-4,3c-2.7,2.4-5.5,4.4-8.2,6.7c-2.7,2.4-5.2,5.1-7.9,7.5
			c-2.9,2.6-6,4.8-8.5,7.7s-4.7,6.1-7.3,8.9c-5.6,6-10.2,12.8-15,19.4c-2.3,3.2-4.1,6.7-5.6,10.4c-0.8,1.8-1.5,3.6-2.3,5.5
			c-0.7,1.7-0.8,3.5-1.1,5.3C284.4,276.5,284.1,280,284.5,280.6"/>
		<path id="Fill-71" class="st1" d="M907.4,643.2c2.1-2.5,3.5-6.2,5-9.1c1.6-3.1,3.2-6,3.9-9.5c0.3-1.7,0.5-3.4,0.9-5.1
			c0.4-1.6,0.9-3,0.7-4.6c-0.2-1.7-1-6.9-3.6-6.3c-1.5,0.3-1.2,2-1.2,3.1c0,1.4-0.2,2.7-0.6,4c-0.9,3.1-3.2,5.8-4.6,8.7
			c-1.4,2.8-3,5.4-5.1,7.7c-2,2.3-4.2,4.4-6.6,6.3c-2.1,1.7-4.5,2.9-6,5.2c-0.9,1.4-1,1.8-2.7,2.1c-1.3,0.3-2.6,0.8-3.7,1.6
			c-1.3,0.9-2.2,2-3.6,2.6c-1.3,0.5-2.6,0.8-3.9,1.3c-3,1.1-5.6,3-8.7,4c-1.6,0.5-3.2,1-4.8,1.5c-1.3,0.4-2.8,0.6-3.9,1.5
			c-1.8,1.5-2.8,5.2-1.2,7.1c1.7,2.1,5.6,0.8,7.8,0.5c0,0.1,0.1,0.3,0.1,0.4c3.7-0.7,7.5-1.2,11.1-2.3c1.9-0.6,3.6-1.5,5.3-2.4
			c1.5-0.8,3-1.1,4.5-1.6c1.4-0.5,2.5-1.2,3.4-2.4c1.1-1.5,1.6-1.1,3.3-1.5c2.8-0.6,5.2-3.8,7.1-5.7
			C902.7,648,905.3,645.8,907.4,643.2"/>
		<path id="Fill-73" class="st1" d="M377.7,129c0.6-1,2.9-2,3.9-2.6c1.4-0.9,2.8-1.8,4.2-2.8c2.5-1.8,4.2-0.6,6.4,1.1
			c4.1,3.2,5.7,7.4,5.4,12.4c0,1.5,0.4,3.9-0.7,5.1c-1.1,1.2-3.3,1-4.7,1.3c-1.9,0.4-4.7,2.7-6.6,2.1c-1.7-0.6-1.1-3.6-1.2-5
			c-0.3-2.5-1.1-4.9-2.6-6.9c-0.8-1-1.7-1.9-2.8-2.7C378.1,130.4,377,130,377.7,129 M370.2,136.5c1.6,0.3,3.2,1,4.7,1.6
			c1,0.4,2.3,0.8,3.1,1.5c1.3,1.2,0.8,3.1,1.1,4.6c0.2,0.9,0.6,1.7,0.3,2.6c-0.4,1.1-1.5,1.3-2.1,2.2c-0.9,1.3,0.2,3.2,1,4.3
			c1.3,1.9,3,0.9,5,0.7c2.4-0.3,4.8-0.4,7.1-1.2c1.9-0.6,3.4-2.1,4.8-0.1c0.5,0.7,0.6,1.4,1.7,1.1c0.9-0.2,1.8-1.4,2.3-2
			c3.7-3.8,4.6-8.9,4.7-14c0.2-5.6-1.9-10.9-4.8-15.7c-0.6-1-1.2-2.2-2.1-2.9c-0.9-0.8-2-1.1-2.8-1.9c-1.2-1.3-0.9-4-2.8-4.6
			c-2-0.6-4.9,1.8-6.4,2.9c-2.1,1.5-4.2,3-6.3,4.6c-4.4,3.4-9.4,6.6-13.4,10.5c-1.4,1.3-1.9,3.6-0.5,5.2
			C366.1,137.2,368.5,136.2,370.2,136.5"/>
		<path id="Fill-75" class="st1" d="M607.4,540.2c-0.9-5-2.3-9.8-4.1-14.6c-1.1-3.1-3.7-8.4-7.9-8.1c-4.6,0.3-1.5,6.3-1.1,8.6
			c1.7,9.3,2.7,18.7,4.1,28c0.7,4.6,0.9,9.4,2,13.9c0.5,2.2,1.3,4.4,2.2,6.5c0.6,1.3,1.3,3.1,2.8,3.7c4.5,1.8,3.4-6.1,3.3-8.1
			c-0.1-4.8-0.2-9.6-0.4-14.4h0.4C608.2,550.6,608.3,545.3,607.4,540.2"/>
		<path id="Fill-77" class="st1" d="M70.5,627.3c-2.5,0.8-4.3,1.4-7,1.2c-1.9-0.2-3.7-0.6-5.6-0.8c-4.8-0.6-9.5-1.9-13.9-3.9
			c-4-1.8-7.8-4-11.2-6.9c-1.8-1.5-3.4-3.2-4.9-4.9c-1.1-1.2-2.2-2.2-3.9-2.4c0.5,2.5,1,4.5,2.2,6.7c1,1.8,2.1,3.6,3.3,5.2
			c2.5,3.4,5.6,6.3,9.1,8.7c3.4,2.3,7.3,4.3,11.3,5.3c2.3,0.6,4.6,0.9,6.9,1.4c2.2,0.4,4.3,0.8,6.5,0.5c2.1-0.3,4.2-0.4,6.3-0.9
			c1.6-0.5,3.1-1.5,4.5-2.4C76.6,632.3,73.7,626.3,70.5,627.3"/>
		<path id="Fill-79" class="st1" d="M151.1,64.3c1.2,1.6,3.9,1.7,3.7-0.8c-0.2-2.2-0.8-4.4-1.6-6.5c-0.7-2.1-0.6-4.4-0.6-6.7
			c-0.1-5.3,0.1-10.4,1.1-15.7c1-5,1.6-10.1,2.7-15.1c1.1-4.9,3.1-9.5,4.3-14.4c0.4-1.5,0.7-4.4-1.5-4.8c-1.8-0.3-2.9,2.3-3.6,3.5
			c-2.4,4-4.9,7.7-6.3,12.2c-1.3,4-2.2,8.3-2.7,12.5c-0.5,4.4-0.4,8.9-0.7,13.3c0.4,5.1,0.2,10.8,1.9,15.8
			C148.6,60,149.7,62.5,151.1,64.3"/>
		<path id="Fill-82" class="st1" d="M840.7,84.5c-0.7,1.7-1.1,3.6,0.2,5.2c2.3,3,5.8-3.8,6.4-5.7c1.2-4.1,2.7-8.2,3.3-12.4
			c0.7-4.3,0.4-8.9,0.5-13.3c-0.4-5.2-1-10.3-2.3-15.3c-1.1-4.5-2.2-9-5.9-12c-1.5-1.2-2.5-0.3-2.8,1.5c-0.2,2,0.3,3.9,1.2,5.6
			c2.1,4,2.1,8.7,2.6,13.2c0.9,8.9,1.4,17.8-0.9,26.6C842.3,80.2,841.5,82.4,840.7,84.5"/>
		<path id="Fill-84" class="st1" d="M74.6,184.3c0.5,2,1.1,4,1.8,6c1.4,3.8,3.3,7.4,5.6,10.7c3.8,5.5,8.8,10.7,14.3,14.6
			c1.8,1.3,6.2,4.8,8.5,3.6c3.2-1.6-1.1-5.8-2.4-7c-2.7-2.5-5.3-5-8-7.5s-4.7-5.7-6.9-8.6c-2.2-3-4.3-6-6.2-9.2
			c-1-1.6-1.9-3.3-2.9-4.9c-0.9-1.4-2.2-2.4-3.3-3.5c-0.9,0.4-0.8,0.4-1.1,1.2c-0.1,0.4-0.1,1.1-0.1,1.4
			C74,182.2,74.3,183.3,74.6,184.3"/>
		<path id="Fill-86" class="st1" d="M304,215.8c5.1-4.6,10.6-8.5,15.4-13.4c1.2-1.2,2.1-2,1.1-3.6c-0.7-1.1-1.5-1.7-2.7-0.9
			c-2.8,1.8-5.5,4.1-8.2,6.1c-5.6,4.1-11.3,8.1-16.3,12.9c-2.3,2.2-4.4,4.5-6.1,7.1c-1.9,2.7-3.2,5.5-1.2,8.5
			C292.1,227,298,221.3,304,215.8"/>
		<path id="Fill-88" class="st1" d="M928.1,657c-0.9-0.2-2.4,0.8-3.1,1.2c-2.7,1.8-5.5,3.4-8.2,5.1c-2.5,1.6-5,3.2-7.4,4.9
			c-2.1,1.4-3.4,3.1-2.7,5.7c0.3,1.2,0.9,2.6,2.3,1.9c1-0.5,1.9-1,3-1.4c2.8-1,5.6-2,8.2-3.4c4.5-2.5,8.7-6.3,9.4-11.7
			C929.2,658.6,929.1,657.3,928.1,657"/>
		<path id="Fill-90" class="st1" d="M624.7,539.2c-0.9-1-2-1-2.5,0.2s0.1,3.4,0.3,4.6c0.3,2,0.6,4,1,6.1c0.2,1.2,0.4,4.8,1.9,5.3
			c2.4,0.7,2.4-5,2.6-6.2c-0.5-1.7-1-3.4-1.5-5.1C626.1,542.6,625.8,540.4,624.7,539.2"/>
		<path id="Fill-92" class="st1" d="M225.2,439.7c-0.6-0.3-1-0.2-1.1-0.8c-0.1-0.6,0.8-1.1,0.9-1.6c0.5-1.7-1.3,0.1-2,0.6
			c0.6,1.5,1.2,3.1,1.9,4.6c0.7-0.3,1.4-0.6,2.1-0.8C226.3,440.7,226.2,440.2,225.2,439.7"/>
		<path id="Fill-94" class="st1" d="M557,160.4c1.2,0.4,2.9-0.1,4.1-0.4c1.2-0.2,2.5-0.5,3.6-1c2.7-1.1,2.5-4.3,1.9-6.8
			c-0.9-3.4-2.7-6.6-4.3-9.8c-0.8-1.6-1.5-3.3-2.2-4.9c-0.5-1.3-1.2-3-2.9-3c-2.5,0-1.3,5.9-0.9,7.3c1,3.5,2.9,6.8,4.4,10.1
			c-1.4,0.1-2.9,0.3-4.3,0.2c-1.5,0-1.9,0-2.3,1.7C553.6,156.2,554.4,159.5,557,160.4"/>
		<path id="Fill-96" class="st1" d="M534.4,131.4c2.7-0.2,5.4-0.4,8.1-0.8c2-0.2,5.4-0.3,6.8-1.8c1-1.1,0.8-3.4-0.1-4.5
			c-1-1.3-3.3-0.8-4.8-0.8c-4,0.1-7.9,0.6-11.5,2.4c-1.3,0.6-4.3,1.8-4,3.6C529.4,131.8,532.8,131.5,534.4,131.4"/>
		<path id="Fill-98" class="st1" d="M545.7,162.6c-2.3,0.6-1.8,4.4-1.1,6c1,2.4,3.7,3,6.1,2.9c1.2-0.1,2.8,0.3,3.7-0.7
			s0.8-2.9,0.2-4c-0.8-1.4-2.9-2.2-4.3-2.9C549,163.4,547.1,162.2,545.7,162.6"/>
		<path id="Fill-100" class="st1" d="M546,142.5c0.2-2.2-1.1-7.2-4-7c-1.4,0.1-2.6,2.1-2.9,3.3c-0.3,1.3,0.1,2.6,0.4,3.9
			c0.6,2.1,1.4,5.2,4.1,4.8C545.9,147.1,546,144.4,546,142.5"/>
		<path id="Fill-102" class="st1" d="M567.3,144.7c0.6,0.6,1.5,1,2.3,0.6c1.2-0.6,1-2,1-3.1c0.1,0,0.3-0.1,0.4-0.1
			c-0.7-1.9-1.2-6-3.6-6.6c-2.4-0.5-2.6,2.1-2.3,3.8C565.3,141.1,565.9,143.4,567.3,144.7"/>
		<path id="Fill-104" class="st1" d="M492.2,144.5c-1.2,0.1-3.4,0.7-3.2,2.2c0.3,2.2,3.7,2.6,5.4,2.8c2,0.2,4.9,0,2.9-2.5
			C496.2,145.3,494.2,144.7,492.2,144.5"/>
		<path id="Fill-108" class="st1" d="M392.3,403.5c-0.4,0.8-0.8,1.7-1.3,2.5c1.3,0.2,2.7,0.3,4,0.5
			C395.1,405.4,393,404.1,392.3,403.5"/>
	</g>
	<circle class="st2" cx="833.9" cy="524" r="79.7"/>
	<circle class="st3" cx="848.1" cy="524" r="79.7"/>
	<circle class="st2" cx="848.1" cy="524" r="60"/>
	<path class="st4" d="M867.5,546.3c-3,3.2-7.5,5.3-13.2,6.1v8.8h-9.2v-8.5c-3.7-0.2-7.4-0.9-10.9-2c-3-0.9-5.9-2.2-8.5-4l5-11.6
		c2.6,1.7,5.4,3.1,8.4,4c3,1,6.2,1.5,9.4,1.5c5.8,0,8.7-1.5,8.7-4.5c0-1.6-0.8-2.8-2.5-3.5c-1.7-0.8-4.3-1.6-8-2.4
		c-3.4-0.7-6.8-1.7-10.1-2.9c-2.7-1-5.1-2.7-7-5s-2.9-5.3-2.9-9.2c-0.1-4.4,1.7-8.6,4.8-11.7c3.2-3.3,7.7-5.2,13.7-6v-8.7h9.2v8.6
		c2.8,0.3,5.7,0.8,8.4,1.6c2.5,0.7,4.9,1.8,7.2,3.1l-4.7,11.7c-5.1-2.9-10.1-4.3-14.9-4.3c-3,0-5.2,0.5-6.6,1.4s-2.1,2.1-2.1,3.6
		c0,1.5,0.8,2.6,2.5,3.3c1.6,0.7,4.3,1.5,7.9,2.3c3.5,0.7,6.9,1.7,10.2,2.9c2.7,1,5.1,2.7,7,4.9c2,2.2,3,5.3,3,9.2
		C872.2,539.2,870.5,543.3,867.5,546.3z"/>
</g>
</svg>
