<?xml version="1.0" encoding="utf-8"?>
<!-- Generator: Adobe Illustrator 24.1.3, SVG Export Plug-In . SVG Version: 6.00 Build 0)  -->
<svg version="1.1" id="Layer_1" xmlns="http://www.w3.org/2000/svg" xmlns:xlink="http://www.w3.org/1999/xlink" x="0px" y="0px"
	 viewBox="0 0 1024 1006.6" style="enable-background:new 0 0 1024 1006.6;" xml:space="preserve">
<style type="text/css">
	.st0{fill-rule:evenodd;clip-rule:evenodd;fill:#893168;}
	.st1{fill-rule:evenodd;clip-rule:evenodd;fill:#FFFFFF;}
	.st2{fill:#FFFFFF;}
	.st3{fill:none;stroke:#FFFFFF;stroke-width:3;stroke-linecap:round;stroke-linejoin:round;stroke-miterlimit:10;}
</style>
<desc>Created with Sketch.</desc>
<g>
	<path id="Accent" class="st0" d="M357.6,364.3c3.1,31.7,6.3,63.4,9.4,95.1c17.1-9.8,34.2-19.5,51.3-29.3v72.2v19c0,1.7-1,7.4,0,8.9
		c0.8,1.2,7.1,1.3,8.6,1.5c9.7,1.4,19.4,2.6,29.1,3.6c25.6,2.8,52.9,6.9,78.6,3.6c22.3-2.8,43.9-10.8,64.3-20
		c7.2-3.2,14.2-6.7,21.1-10.4c1.5-0.8,6.8-2.6,7.6-4.2c0.7-1.3-0.9-5.9-1.1-7.3c-0.9-5.8-1.7-11.6-2.6-17.4l-12-80.9l22.7,22.7
		c1.8,1.8,5.2,6.8,7.6,7.6c1.8,0.6,6.3-1.2,8.1-1.6c12.9-2.5,25.7-5,38.6-7.4c3-0.6,9.8-0.6,12.3-2.4c1.4-1,1.4-3,1.9-4.8
		c3.1-12.3,6.3-24.6,9.4-36.9c0.6-2.2,3.7-9.2,2.9-11.4c-0.3-0.8-1.7-1.3-2.5-1.9c-19.4-11.9-38.8-23.7-58.3-35.6
		c-10.6-6.5-21.3-13-31.9-19.5c-4.5-2.7-9.9-7.6-15-9.2c-3.1-0.9-7.7-0.2-10.9-0.3c-6.6-0.2-13.2-0.4-19.8-0.6c-1,0-4.6-0.8-5.5-0.2
		c-0.7,0.5-0.4,1.2-0.7,2.4c-0.6,2.9-0.6,6.1-0.9,9.1c-0.2,2.4,0.2,6.8-0.9,9c-0.7,1.4,0.2,0.8-0.7,1.5c-1.1,0.8-4.7,0.5-6,0.7
		c-6.5,0.8-12.9,1.5-19.4,2.3c-7.7,0.9-15.4,2.6-23.2,1.8c-11.7-1.2-24.3-1.1-35.8-3.6c-3-0.6-4.1-2.3-6.4-4.6
		c-4.5-4.5-8.9-9-13.5-13.5c-2.2-2.2-1.3-1.8-3.6-1c-2.9,1-5.8,3.5-8.4,5.1c-10,6.1-20,12.2-29.9,18.2L361.4,362
		C360.1,362.7,358.8,363.5,357.6,364.3"/>
	<g id="Ink" transform="translate(80.999793, 52.973204)">
		<path id="ink-shape" class="st1" d="M859.2,315.3c-12.6,47.7-37.8,99.7-88.7,114.8c-12.4,3.7-24.4,6.5-37.3,5.1
			c-1.2-0.1-2.2,0-3.4,0.1c-2.1,0-0.3,0.8-2.6,0.1c-1.8-0.6-3.5-2-5.4-2.6c-5-1.7-10.4-2-15.6-3.3c-12.6-3.3-25.6-7.3-37.8-11.9
			c-5.8-2.1-11-5.1-16.4-7.9c-5.5-2.9-11.3-4.7-16.9-7.4c-4.4-2.1-11.9-4.8-15-8.8c-3.3-4.2,1.3-13.2,2.6-17.6
			c4.4-15.2,9.7-30.2,13-45.7c11.5,13.3,27.5,21.6,44,26.9c9,2.9,18.2,5,27.5,6.3c8.5,1.2,17.6,2.6,26.1,0.9
			c6.4-1.3,14.4-4.2,19-9.1c1.6-1.7,3.6-4.9,2.7-7.5c-1.2-3.2-4.5-1.7-6.4-4.1c-1.6-2.1-1.3-7-1.9-9.5c-0.9-4.5-2.1-8.9-3.6-13.2
			c-2.9-8.4-6.6-16.9-7.4-25.8c-0.8-7.8,1-15.1,4.9-21.9c1.8-3.2,6.4-11.9,10.9-11.5c4.9,0.4-1.7,21.2-1.9,25.4
			c-0.9,16.8,1.4,34.8,10,49.5c3.3,5.6,8.1,12.2,15.1,12.9c7.5,0.7,13.5-5.1,17.1-11.1c8.7-14.5,4.3-34.4-0.1-49.7
			c-5.4-18.7-19.5-31.5-28.4-48.3c13.3,1.3,20.4,9.8,27.2,20.5c7.5,11.8,13.4,26,16.2,39.7c1.5,6.9,0.5,13.9,0.5,20.9
			c0,2.3,0,10.9,3.8,10.6c4.1-0.4,5.4-10,6-13c1.4-6.8,2.8-13.5,4-20.4c2.1-12,3-24.4,5.5-36.3c0.4-2,1.3-7.6,4.3-6.1
			c2.3,1.2,2,9.8,2,11.9c0.2,5,0.5,9.9,0.5,14.9c0.1,7.4-1.4,15-0.7,22.3c0.5,4.8,3,10.1,6.2,3.6c3.2-6.4,3.8-14.4,5.6-21.3
			c1.9-7.2,3.8-14.6,7.7-21c1.1-1.8,2.3-4.6,4.7-3.8c1.8,0.6,3.1,4.8,3.6,6.2c2.5,6.6,2,14,1.9,21
			C862.3,298.6,861.3,307,859.2,315.3L859.2,315.3z M614.3,327.6c-0.7-0.2-3.5-0.5-4.2-0.5c-0.8-0.1,0.1-1.6-1.9-1.2
			c0.4,1,1.1,1.6,2.1,1.9c-3,1-5.2-1.5-7.3-1.8c-2-0.3-2.1,0-4,2.1c-2.1-2.6-1.7-1-3.4-1c-0.6,0-0.7,1-1.7,0.8
			c-0.9-0.1-1-1.5-1.5-1.6c-2.9-0.9-5.8,3.5-9.1-0.3c-0.8,4-9.9-1-13.3-0.3c-3.7,0.7-2.1,2-5-0.2c-2.8-2.1-2-0.7-5.3,1
			c0.1,0-1.8,1.3-1.7,1.3c-2.3-0.3-2.1-2.6-5-2.5c-3,0.1-4.3,2.5-7.1-0.4c-0.6,2.2-0.7,1.2-2.2,1.8c-0.8,0.2-1.5,0-2.1-0.6
			c-0.2,0.6-0.6,1-1.2,1.1c-1.6,0.1-4.5,0.4-5.9-0.4c-2.1-1.1-0.4-1.6-1.9-2.8c-0.7,3.5-2.1,2.7-5.1,3.1c-2.3,0.2-2.8-0.5-5-0.8
			s-5,0.5-7.1,0.9c-0.9,0.1-2.1,0.8-2.9,0.5c-0.8-0.2-1.2-0.8-1.6-1c-0.6-0.2-0.5-0.7-1.5-1c-0.7-0.2-1.9,0.5-2.6,0.6
			c-5,0.8-9.7,0.8-14.4-1.1c2.3,4.1-5.4,1.9-6.8,0.2c-1.7,2.7-3.8,0.8-7.3,1c-3.4,0.2-8.4,1.2-9.8-3c-0.3,0.9-2.2,3.3-2.9,3.7
			c-2.2,1.1-2.5-0.5-4.5-1.2c-2.8-0.9-2.2,0.8-3.9,1.1c-2.9,0.6-4.5-1.5-7.1-2.6c-0.1,1.7-0.2,2.7-1.6,3.8c-1.3-4.7-5.9,0.4-5.1-5.9
			c-1.8,1.1-4.3,2-4.8,4.4c3-0.8,0.3,1.1,0.2,1.2c-0.4,0.2-1.7-1.6-2-1.9c-0.1,0.9-0.2,1.7-0.2,2.6c-1.2-0.6-2.3-1.6-3.2-2.2
			c-0.9-0.5,0.4-1.5-1.1-1.5c-0.8,0-1.6,1.6-2.4,1.8c-1.2,0.2-0.6-1.5-1.2-1.5c-0.8,0.1-2.1,1.2-2.7,1.2c-1.9-0.1-0.6-1-2.1-1.4
			c-2.7-0.7-2.5,1-4.4,1.6c-4.4,1.4-3.9-5.2-8.4-0.8c-1.1,1.1-1.7,2.7-3.2,2.6c-3-0.2-2-3.8-1.3-5.5c0.6,0.3-11,6.3-10.9,6.1
			c0.1-1.4,1.9-2.5,0.3-3.8c-1.3,2.9-2.7,2.9-5.8,3.5c-1.5,0.3-1.8,0.6-3.4,0c-1-0.4-1.7-2-2.7-2.1c0.1,0-1.7,1.4-2,1.6
			c-1.7,0.8-2.7-0.1-4.4,0.2c-1.4,0.3-1.9,1.5-3.3,1.1c-1.9-0.4-0.8-2.6-3.3-2c-0.9,0.2-1.4,1.9-2.8,2.2c-2.1,0.5-4.8-0.5-7,0.1
			c-1.8,0.4-3.1,0.6-4.7,0.7c-1.3,0.1-0.7-0.9-3.1,0.2l-1-2.5c-1.2,1.1-2.3,2.1-3.5,3.2c-0.2-0.9-0.4-1.9-0.4-2.9
			c-1.7,1.7-3.9,2-6.3,2.2c-2.5,0.2-4.4,0.7-6.9,1.2c-0.8,0.1-2.8,0.4-3.4,0.1c0.1,0-1.2-0.5-0.8-0.4c-0.2-0.3-0.3-0.7-0.5-1
			c-0.2-1-0.9-1-2.1-0.1c-0.6-0.1-1.8-0.9-2.4-0.7c-1.6,0.5-1.4,1.8-3,1.6c-1-0.1-1.6-1.6-2.6-1.7c-1.6-0.2-3.1,1.7-4.5,2.1
			c4.5-1.2-5.8-0.3-2.6-0.2c-2.1-0.1-4.3-0.2-6.2,0.8c-1.1-0.7,0.2-2.2-0.9-2.8c-1-0.6-1.1,0.9-1.2,0.9c0.6-0.2,0.3,1.1-0.3,1.3
			c-1.9,0.7-3.5-1.1-3.6-2.8c-1.6,2.5-2.1,1.5-4.5,1.6c-2.4,0.2-4.4,1.4-6.8,1.4c-4.7,0-7.9-1.7-9.5-5.9c5,0.6,10.1-2.6,15-1.9
			c1.6,0.3,2.6,1.5,4,1.2c1.7-0.3,3-2.2,5.2-2.4c4.9-0.5,9.8,0,14.8-0.8c5.9-0.9,12.1-1.4,18.1-1c4.6,0.3,8.4-1.4,13.1-1.8
			c6.1-0.4,12.2-0.5,18.3-0.8c6.2-0.3,13-1.3,19.2-1c1.9,0.1,3.6,0.3,5.5,0.2c0.8,0,1.6-0.6,2.4-0.5c1.1,0.1,1.6,1.2,2.8,1.2
			c2-0.1,4.1-1.7,6.4-1.7c3.8-0.1,7.7-0.1,11.5-0.3c3.4-0.2,7-1,10.4-0.9c2.4,0,3,2.1,4.4,2.3c2.5,0.4,15.1-6.8,16.2-0.4
			c6.6-4.5,15.4-0.7,22.7-1.5c9.4-1.1,19-0.1,28.4-0.5c9.6-0.4,19.5,0,29.1,0.9c4,0.4,7.8,0.7,11.8,0.5c1.8-0.1,3.8-0.6,5.6-0.1
			c0.4,0.1,3.7,2.4,3.3,2.5c1.8-1.6,0.6-1.9,3.7-1.9c2.4-0.1,4.7,0.5,7.2,0.6c4.4,0.3,8.7-0.3,13.1-0.2c3.6,0.1,7.2,0.6,10.8,0.7
			c3.9,0,8.6,0.1,11.4,3.3c-0.3-1-0.6-2-0.9-3c4.4,0.3,8.7,1.9,13.2,1.2c-1.1,1.1-2.3,2-2.7,3.5c2.4-0.3,4-2,6.5-2
			c2.1,0,2.6,1,4.8-0.3c0.3,1.7,0.5,3.4,0.8,5c3.1-0.7,1.1-3,1.3-5.1c2.5,0.8,4.6-0.1,3.7,3.5C620.4,327.1,616.9,328.5,614.3,327.6
			L614.3,327.6z M610,358.7c-1.1,3-10.4,1.3-12.6,1c-2.9-0.4-6.1-1.1-8.7-1.4c-0.3-0.4-0.7-0.8-1.1-1.1c-0.3,0.5-0.7,0.8-1.3,1
			c-1.2,0.3-1.2,1.5-2.8,1.2c-0.1,1.8,1.2,0.8,2.2,1.5c-2.5,1.7-1.3-0.3-2.7-0.2c-0.3-0.5-0.8-0.7-1.4-0.6c-0.8,0.2-1.5,0.5-2.2,1
			c-0.6,0.7-1.1,0.7-1.6,0.1c-0.4-0.4-0.9-0.7-1.5-0.8c-2.4,0.4-3.1,1.5-5.9,1.3c-3.9-0.3-8.1,0.8-12,0.2c-2.4-0.3-6.4-4.1-7.5-0.4
			c-1.7-2.7-4.3-4.6-5.9-7.3c7.4-0.4,14.7-0.9,22.1-1.2c6.5-0.2,13.5,0.5,19.5,0.2c5.6-0.3,11.6-0.9,17.4-1.4
			C610.1,351.2,612.2,352.5,610,358.7L610,358.7z M417.9,359.1c2.7,0.7,5.2-0.9,7.8-0.4c0.9,0.2,2.6,1.7,3,1.8
			c0.7,0.1,2.8-1.5,3.7-1.7c5.7-1.3,12.6-1.2,18.3-0.4c3,0.4,3.5-1,6.1-1.6c2.7-0.7,6.6-0.2,9.5-0.4c6.8-0.5,13.6-0.1,20.3-0.6
			c6.9-0.5,13.8-0.8,20.7-1.1c4.7-0.2,16-2.9,19.9,0.6c3.2,2.9-0.9,7.9-4.1,9c-2.4,0.9-3.6-0.9-5.3-0.8c-2,0.2-1.3,2.6-3.1,0.4
			c-1.1,2.2-8.2,1.3-10.2,1.4c-4.4,0.3-8.2,1.2-11.2-2.9c0.2,1.2,0.4,2.4,0.6,3.6c-4-2.1-8.3-1.4-11.7-0.7c-1.7,0.4-7,2.9-8.8,1.8
			c-1.3-0.8,1-2-1.2-2.7c-1.1-0.3-3.1,1.5-4.5,1.4c-3.8-0.3-2.7-2.8-6.5,0.4c-1.3-1.1-1.7-3-1.5-4.6c-2.7,2.3-2.5,6.2-7.4,5.5
			c-1.8-0.3-2.2-2.1-3.1-2.5c-2-0.7-2.2,0.6-4,1.6c-0.7,0.4-1.5,1-2.2,1.1c-1.6,0.2-1.8-0.6-2.1-0.5c-1.1,0.1-2.4,0.7-3.7,0.3
			c-1.1-0.3-1.5-2.3-3.5-1.9c-1.9,0.4-1.9,1.7-1.6,3.7c-1.9-0.2-3-1.2-4.4-2.4c-1.4,3.3-4.4,0.6-6.1,3.4c-2.2-2.6-3.5-1.9-6.2-4.4
			c0.1,1,0.3,2.1,0.4,3.1c-2.1-0.4-3-1.9-4.8,0.1c-1.7-3.2-7,1.4-9.7-1.7c-1.2,3.9-9.1,3-12.5,3.1c-3,0.1-5.2-0.2-8.1,0.5
			c-2.6,0.6-6.1,1.2-8.5,1c-1.6-0.2-3.3-0.5-5.3-0.3c-2.8,0.3-5.3,1.8-8.2,1.1c-4.4-1-7.1-6.8-2.2-9.4c3.4-1.7,9.4-1.1,13.1-1.4
			c6.1-0.5,13-1.7,19.2-1.1c4.8,0.4,9.2-0.7,14-1.2c3.7-0.4,9.7-1,12.1,2.6C416.1,360.8,416,358.6,417.9,359.1L417.9,359.1z
			 M350.8,409.1c-0.7-3.3,27.4-5.1,30.2-5.3c5.8-0.5,11.7-0.8,17.6-0.9c4.8-0.1,9.3,0.8,14.1,0.1c4.5-0.7,9.9-2.1,13.8,1.1
			c0.6-4.4,17.5-2.2,20.7-2.2c14,0.1,27.4,0.1,40.9-0.8c7.7-0.5,15.9-1.2,23.7-0.8c3.5,0.2,6.3,1.1,9.8,0.3c2.3-0.5,4.7-1.6,6.9-0.1
			c2.5,1.8,3.6,8,1.9,10.5c-1.3,1.9-2.4,1.7-4.4,1.3c-3.1-0.5-5.4-1.2-8.6,0.1c0.5-0.2-2.1,0.4-1.9,0.4c-3.6,0.3-8.5,2.8-11.6-0.1
			c1.2,0.2,3.1-2,1.5-2.2c-1.2-0.1-1.9,1.1-2.8,1.5c-3.1,1.4-4.8,1-6.6-2c-3.8,3.3-4.2,2.4-5.9-1.7c-1.3,1-1.6,3.3-2.6,4.1
			c-0.1,0.1,0.5,1.5-0.3,1.5c-0.7-0.1-0.9-1.2-1.4-1.2c-0.3-0.1-0.5-1-0.8-1.1s-0.7,0.6-1.1,0.5c-1,0-4,2.2-2.9-0.9
			c-1.6,2-2.3,0.7-2.8-1.1c-1.8,1.4-3.6,2.8-5.5,4.1c-0.8-2.4-2.3-1.7-4.1-0.9c0.6-1.6,0.2-3.2-1.2-2c-0.8,0.7-1.3,2.7-2.2,3.6
			c-3.3-3.4-4.5-2.4-9.1-2c-1.8,0.2-3.9,0.5-5.5-0.6c-1.4-0.9-2.2-4.3-4.5-1.6c0.5-0.6-0.3,4.1-0.4,4.8c-1-0.7-1.9-1.6-2.6-2.6
			c-1.4,2.7-4.9,0.3-7.8,0.8c-4.6,0.9-9.3,2.3-13.4-1.1c-0.3,1.1-3.6,2.5-3.6,2.5c0.2-2,1.4-1.3-1.1-1.6c-0.5-0.1-1,0.8-1.4,0.9
			c-1.5,0.3-3.3,0-4.8,0c-6.3-0.2-12,1.2-18.2,1.7c-2.1,0.2-4.6,0.5-6.5-0.3c-2-0.8-2-1.7-4-1.2c0.6-0.2-1.3,1.9-1.2,1.8
			c-0.3,0.2-1.4-0.8-1.8-0.7c-0.1,0.4-0.2,0.9-0.4,1.3c-0.5-0.1-1-0.1-1.5-0.2c-1.3,0.2-2.6-1.2-3.8-1.2c0.2,0-3.4,1.4-3.3,1.5
			c-2.6-1.3-1.8-0.9-5.1-0.1c-3.1,0.7-6.1,0.6-9.2,1C346.5,419.2,351.9,414.7,350.8,409.1L350.8,409.1z M342.7,454.7
			c-1.7-2.4,2.9-3.3,4.3-3.5c2.4-0.4,5.6,0.3,7.2,0c2.4-0.6,4.8-2,7.5-2.3c3.5-0.5,6.9-0.5,10.4-0.8c1.2-0.1,2.6-0.5,3.7-0.4
			c1.7,0.1,2.4,1,3.7,1c2.3,0,5.2-1.4,7.5-1.7c3-0.3,6.1-0.5,9.1-0.7c6.4-0.3,12.7-0.2,19.2-0.2c2.9,0,10.7-3,12.2,0.4
			c2-2.6,7.2-2.2,10.1-2.3c5.1-0.1,10.1-0.6,15.2-0.9c4.4-0.2,9.2,0.7,13.5,0.1c2.4-0.4,3.1-1.1,5.8-0.8c2,0.3,5-0.8,6.7-0.3
			c-0.1,0,2.1,1.4,1.4,1.4c0.8,0,0.7,0.5,1.6,0.2c1.1-0.3,0.6-1.7,2.9-2.2c3.6-0.8,8.3,0.1,12-0.1c3.6-0.2,7.2-0.3,10.8-0.3
			c1.7,0,3.7-0.4,5.3-0.1c0.8,0.2,2.5,1.2,3.1,1.1c1.9-0.3,2.9-1.6,5.4-1.5c2.9,0.1,5.5,0.1,8.4-0.2c2.8-0.2,3.3-0.6,4.6,1.7
			c1.4,2.3,1.8,5.3-0.8,6.9c1.6-0.1,3.7,2.1,1.7,3.3c-1.2,0.8-3.6-0.9-5-0.8c-1.8,0.2-3.2,1.1-5.1,1.1c-2,0.1-4.1,0.6-6.1,0.6
			c-2.1,0-3.6-0.9-5.6-0.5c-1.7,0.3-1.9,1.8-4,0.5c-1-0.6-1.2-2.9-2.6-2.9c-1.9,0-1.1,2.4-2.2,3.6c-0.3-3.5-3,2.3-4.1-2
			c-1,1.4-4.7,3.4-6.4,2.3c-1.6-1-1.1-3.4-1.8-5.1c-1.1,3-4.1,6.2-3.9,0.7c-1.5,1.8-5.4,1.5-4.4,4.7c-1.2,0-1.5-1.7-2.5-1.9
			c-0.9-0.1-1.6,0.6-1.7,0.5c0.5,0-1.4,0.7-1.4,0.7c1.3-0.3-3.7-0.7-2.9-0.7c-1.2,0-2.6,0.9-3.9,0.9c-1.2,0-2.5-0.5-3.7-0.6
			c-3.2-0.4-2.5,0.3-4.5,1.3c-0.7,0.4-0.9,1-2,0.9c-0.8-0.1-1.1-1.1-1.1-1.1c-1.1-0.1-0.3-0.5-2-0.3c-0.2,0.3-0.4,0.7-0.6,1
			c-0.6,0.8-1.4,1-2.4,0.6c-2.5,0.5-10.7,2.8-9.9-1.4c-1.3,0.6-2.5,1.2-3.8,1.8c-0.5-3.4-7.4,1.1-8.9,1.4c-2,0.3-2.1-0.5-4-0.9
			c-0.3-0.1-1,1-1.8,0.9c-2-0.4-2.4-0.6-2.7-2.8c-1.5,2.7-2.7,1.5-5.3,1.9c-0.6,0.1-1,1.2-1.8,1c-0.6-0.1-0.6-1.2-1-1.4
			c-0.4-0.1-0.3-1-0.9-1.1s-2.8,1.6-3.4,1.9c-1.4,0.6-3.7,1.6-5,1.3c-1.7-0.4-0.9-1.6-3.3-1.5c-3.8,0.2-5.3,3.4-7.6-1.6
			c-1.1,2-0.9,2.6-2.6,3.2c-1.3,0.5-4.4,0-6.1-0.1c-7-0.3-13.9,2.1-20.9,1.5c-3.1-0.3-5.6-0.9-8.7-0.4c-3.2,0.5-6.4,1.3-9.7,1.6
			c-1.7,0.2-5.2,0.6-6-1.5C341.5,458.1,344.2,456.9,342.7,454.7L342.7,454.7z M356.5,532.1c-9.1,6.1-16.7,14.4-25,21.5
			c-8.4,7.1-15.1,14.9-22.6,22.8c-7,7.2-13.4,14.1-21.8,19.6c-5.3,3.5-10.1,7.7-15.6,11c-4.1,2.4-10.3,5.7-8.3-1.8
			c2.1-7.7,5.8-15.4,9.1-22.6c4.7-10.2,9.4-20.3,14.5-30.2c1.9-3.7,3-7.5,6-10.5c3.3-3.3,5.6-7.5,9.2-10.6
			C317,518.3,339.8,528.3,356.5,532.1L356.5,532.1z M385.1,536.4c-4.1,2.2-8.8,2.7-13.1,4.1c-3.7,1.2-7.2,3.4-11.2,3.6
			c3.7-2.7,6.8-6.5,10.9-8.6C376.3,533.2,380.5,534.9,385.1,536.4L385.1,536.4z M566.6,554.5c-15.2-5.1-29.4-12.7-44.2-18.8
			c-2.6-1.1-22.6-7.6-22.2-10.8c14-2.6,28.5-7,42.5-2.2c12.8,4.4,23.2,14.9,33.1,23.6c2.6,2.3,18.5,12.7,17.1,16
			c-1,2.3-8.7,1.7-10.5,1.2c-2.3-0.6-3.7-2-5.5-3.6C573.9,557.4,570.5,555.8,566.6,554.5L566.6,554.5z M538.6,468.7
			c2.3-2.1,3.7-5.4,5.9-7.3c2.8-2.5,7.4-1.3,10.5,0c9.3,3.9,17.3,10.5,26.5,14.6c10.2,4.5,19.1,10.6,28.4,16.9
			c8.4,5.7,17.6,10.5,26.2,15.9c8.8,5.6,18.6,9.2,27.5,14.6c9.1,5.5,18.1,10.9,26.8,17c15.5,10.7,31.7,21.8,43.2,37
			c5.9,7.8,11.4,16.7,15.8,25.6c3.9,8,8.2,19.1,3.1,27.5c-4.9,8-13.3,14.3-20.3,20.3c-2.7,2.3-5.2,5-8.7,6
			c-4.2,1.2-9.2,0.9-13.5,1.2c-23.2,1.9-44.9,0.1-67.7-4c-22.1-4-44.2-6.2-66.5-9c-12.5-1.6-25.1-3.4-37.5-6
			c-5.3-1.1-10.7-2.4-15.8-3.9c-4.5-1.3-8.3-4.3-13-5.4c-19.7-4.9-42.3-6.8-61.8-15.1c17.3-7.2,35.6-11.5,53.4-17.5
			c18.6-6.3,36.8-11.6,56.5-13.3c10.1-0.9,19.2-3.5,28.9-6.2c9.3-2.6,18.9-3.4,28.5-4.5c4.2-0.5,16.3,0.3,17.7-5.3
			c2.1-8.2-9.8-9.2-14.8-8.5c-7.2,1-13.1,2.8-18.6-3.1c-5.6-6-11.1-12.2-16.8-18.1c-10.6-11-21.5-23.7-36.5-28.7
			c-18.3-6-39.4-0.3-57.7,3.1c-19.2,3.6-38.5,7.1-57.4,12.3c-7.8,2.2-17.9,7-26,6.2c-8-0.8-17.1-2.1-24.8-4.4c-3.5-1-6.4-3-9.5-4.8
			c-4.1-2.3-8.5-3.8-12.8-5.7c-8.7-3.7-17.2-7.1-26.7-8.5c-7.9-1.2-16.4-1.9-24.1,0.8c-7.5,2.7-14.2,8.3-19.5,14.2
			c-5.7,6.4-10.4,13.7-15.1,20.9c-2.3,3.5-5,6.5-7.3,9.9c-2,2.8-3.1,6-5.2,8.8c-4.6,6.2-7.8,14.1-10.6,21.3
			c-3.1,8-6.6,17.5-5.8,26.1c0.3,3.3,0.6,7.6,1.8,10.7c1.6,3.9,3.9,3.8,7.2,5.2c5.7,2.5,7.3,9.4,14.7,8.1c6.9-1.3,12.9-7,17.9-11.5
			c6.6-5.9,12.9-12.1,19.1-18.4c6.5-6.4,12.8-13.4,17.9-20.9c2-3,3.6-6.3,6-9c3-3.4,6.5-3.8,10.6-5.2
			c36.1-11.9,72.4-23.4,109.6-31.3c8.9-1.9,17.9-4.3,26.7-6.8c9.3-2.7,14.1,0.2,21.8,5.2c16,10.6,35,18.1,52.8,25
			c5.6,2.2,14.6,2.3,19,6.6c-26,4-50.8,11.6-75.9,19.2c-12.4,3.7-24.9,7-37.3,10.6s-24.4,8.2-36.6,12.3c-12.2,4-25.1,5.7-37.4,9.4
			c-12.6,3.8-25.1,6.4-38,8.7c-13,2.3-26,5-39.1,7.1c-6,1-12,1.9-17.9,3.3c-5.8,1.3-11.4,4.4-17.2,5.1c-26,3.2-51.5,10.3-77.4,14.3
			c-19.3,3-53,7.2-65.5-12.2c-12.6-19.5,2.9-42.3,16.7-56.2c8.6-8.7,18.2-16.3,28.3-23.1c10.8-7.3,21.2-15.1,32.1-22.4
			c24.5-16.4,51.1-29.8,77.4-43c12.6-6.3,24.8-13.1,37.1-20.1c6.1-3.4,9.5,2.1,14.3,5.9c3.8,3,10.8,10.3,16.1,6.9
			c0.2,1.2,0.4,2.4,0.6,3.7c1.6-0.7,3.1-1.4,4.7-2.1c1,2.7,0.9,4.4,3.8,5.9c1.8,0.9,5.6,1.9,7.3,0.4c0.3,1.1,0.7,2.2,1,3.2
			c1.5-0.1,1.8-4.4,2.1-5.4c2.6,3.7,6.1,6.9,10.6,7.9c0-0.2-0.7-3.3-0.7-3.3c1.4-0.9,3.2,2.9,4,3.7c2.5,2.6,4,2.2,6.8,0.1
			c0.2,0.2,1.1,2.7,1.3,2.6c0.6-0.2,1.7-2.4,1.9-2.5c-0.2,2.8,5.3,3.4,7.3,2.8c-0.4-0.8-0.9-1.7-1.3-2.5c6.8-0.9,9.4,6.3,15.9,5.9
			c4.8-0.3,0.9-1.3,3.7-3.4c2.4-1.8,2.8,2.1,3,2c0.5-0.5,0.8-1,1.1-1.6c0.9,3.4,7.9,6.4,7.1,0.8c2.7,1.1,4.7,2.9,7.7,3.3
			c3.7,0.5,7.6-0.3,11.3-0.6c7.9-0.7,15.4-2.3,22.6-5.9c4.2-2.2,8.8-4.1,12.8-6.7c3.3-2.2,9.7-8.8,14.1-5.9
			c-1.1-3.4,4.2-0.2,4.4-4.6c0.9,0.6,1.7,1.3,2.6,1.9c0.5-1.1,0.4-2.9,1.1-3.9c0.9-1.4,1.4-0.6,2.2-1.3c0.9-0.9,1.7-3.1,2.8-3.8
			c1.1-0.7,2.4,0.1,3.6-0.5c1.8-0.9,9.7-9.6,8.4-2.1c3.4-1.2,0.8-2.2,1.2-4.5c0.9-4.5,2.9-1.3,5-0.9c3.4,0.6,3.3-2.1,5.2-4.2
			c1.7-1.9,5-2.7,3.8-5.9C538.1,466.1,538.4,467.4,538.6,468.7L538.6,468.7z M334.9,372c-2.7,3-4.7,1.7-7.6,1.3
			c-0.3-1.1-0.9-1.2-1.6-0.4c-0.9,0.5-1.8,0.8-2.8,1c-2.4,0.6-4.9,0.3-7.3,1.2c0.1-0.8,0.9-2.2,0.4-3c-2.5,1.7-4,2.8-7.1,2.9
			c-2.5,0-6.8-1.9-8.9,0.4c-0.1-0.9-0.1-1.8-0.2-2.6c-1,0.5-1.9,1.2-2.6,2c-0.1-1.3-0.2-2.3-1.1-3.4c-1.6,3.4-3.4,3.5-6.6,2.2
			c0.4,0.2-3.2-2-3.1-1.4c-1.1-4.8,17-4.4,18.9-4.6c4.8-0.5,9.5-0.8,14.3-1.2c4.5-0.4,7.9-1.1,11,2.7
			C329.1,363.5,342.3,363.8,334.9,372L334.9,372z M126.8,287.5c0.5,8.2,2.3,17-0.9,24.9c-2.6,6.4-7.7,13.6-13.2,17.7
			c-11.3,8.5-20.9-1.9-22.5-13.4c-1.6-11.9,1.6-26.5,11.9-33.9c6.1-4.4,12.1-4.1,19.2-2.6c1.7,0.3,4.4,0.2,5.3,1.9
			C126.8,282.5,126.6,287.5,126.8,287.5L126.8,287.5z M277.3,397.3c-2,1-4,1.6-5.7,2.9c-0.6,0.5-0.8,1.5-1.4,1.9
			c-1.2,0.7-2.8,0.2-4,0.8c-2,1-3.4,2.4-5.8,3.3c-3.5,1.3-6.6,3.2-9.9,4.9c-5.5,2.9-11.5,5.4-17.3,7.7c-2.9,1.2-11,3.5-10.7,7.8
			c-0.7,0.2-1.3-1.3-2.7-1.1c-1.9,0.2-4.4,2.3-6.3,2.9c-3.6,1-6.5,1.1-6.5,5.7c-1.2-0.8-1.5-2.7-3-3c-1.7-0.3-2.5,1.6-3.9,2.2
			c-1.6,0.7-3.7,0-5.3,0.8c-0.7,0.7-1.5,1.4-2.4,2c-0.9,0.1-1.8,0.1-2.6-0.1c-3.4,0.7-6.6,2-10.1,2.7c-3.4,0.7-5.7,0.9-4.3,4.9
			c-3.6,0.7-4.5-3.1-8.5-1.7c-5,1.7-9.6,2.9-14.8,4c-2.6,0.5-5.4,1.7-8.1,2c-1.9,0.2-3.7-0.5-5.6-0.3c-2.3,0.3-4.1,1.3-6.4,1.3
			c-2.2,0-4.5-0.4-6.7-0.7c0.3,0.9,0.7,1.7,1.2,2.5c-1.5-0.3-2.2-2.1-3.5-2.4s-2.5,1.1-3.7,0.8c-0.5-0.1-0.2-1.6-1-1.9
			s-1.1,0-1.9-0.1c-0.3,0-3.5-0.2-4,0.1c-0.9,0.5,0,1.4-0.2,1.5c-3,2.2-3.1,1-4.4-1.3c-2-3.4-4.4-1.3-8-1.9c-4-0.7-7.2,1.1-11.1,0.8
			c-4.3-0.3-9.2-3.5-13-5.3c-8.1-4-16-7.8-22.8-13.9c-13.3-11.9-24.2-26.5-30.6-43.2c-6.9-18-8.2-36.7-7.6-55.8
			c0.3-11.5,1.2-22.9,3.1-34.2c1.2-7.8,1.5-21.6,10.3-25.2c1.5,18.2-3.3,36.8-0.3,55c0.9,5.5,3.1,12.7,7.3,16.8
			c6.2,6,7.6-2.7,8.2-7.4c1-8.9,3-17.7,4.3-26.5c1.4-8.8,2.3-17.8,4.2-26.5c0.7-3.2,6.3-26.5,10.4-25.4c-0.8,17-3,33.7-3.1,50.7
			c0,6.8-0.6,14,0.3,20.8c0.5,3.5,3.7,13.7,9.2,12.9c5.1-0.8-0.5-8-1-10.8c-1.3-7.4,0.3-16.5,1.5-23.9c2.2-13.8,7.1-28,15.2-39.6
			c7.2-10.4,18.3-20.2,31.7-18.4c5.7,0.8,10.2,2.2,13.1,7.4c2.3,4.1,11.1,8.8,6,13.9c-4.7,4.7-12.3,0.9-17.5-0.2
			c-6.4-1.4-13.2,0.3-18.5,4c-9.1,6.4-14.4,17.9-16.1,28.6c-2.3,14.5,3.8,52.4,26.4,43.9c15-5.6,26.3-26,25-41.5
			c-0.5-6.2-2.9-18,5.7-19.7c11-2.2,12.6,10,11.5,17.9c-1.6,11.5-7.7,22.2-14.7,31.3c-6.1,7.9-13.1,12.9-20.4,19.4
			c-2.2,1.9-7.7,6.3-6.7,9.9c1,3.9,9.7,5.1,13.1,5.7c17.1,3.2,36.5,0.3,53.6-2c35.2-4.6,69.9-16,98.7-36.8
			c1.2,12.9,2.6,25.8,3.2,38.7c0.3,6.3,0.3,12.7,1,18.9C280,389.7,281.6,395,277.3,397.3L277.3,397.3z M179.7,442.2
			c-1.4,0.7,0.1-3.6-0.3-2.2C181.5,440.8,181.6,441.5,179.7,442.2L179.7,442.2z M325.6,286c2.2-2.4,8.2-8.2,10.1-2.7
			c0.7-2.3,0.8-5.8,3.5-2.6c1.1-3.9,13.1-3.5,16-3.7c9.5-0.5,19.1-0.8,28.5-1.8c19.5-1.9,39.3-0.9,58.8-1c4.2,0,8.5-0.2,12.7,0.4
			c4.1,0.6,8.3,2.3,12.4,1.6c3.7-0.5,6.1-1.6,9.9-1.1c4.5,0.5,8.9,0.9,13.5,0.9c20.2-0.1,40.4,0.7,60.6,0.8c3.9,0,8.7-0.8,12.3,0.9
			c1.4,0.6,2.9,2.7,3.9,2.9c1.2,0.3,0.5-1.6,2.1-0.8c2.1,1.1,0.5,4.6-0.9,5.2c0.8-0.3-1.5-0.7-1.3-0.7c-1.1,0.1-2.1,0.9-3.3,0.9
			c-1.8-0.1-3.4-1.2-4.9-2.2c0,0.4,0.8,3.1-0.1,3.2c-0.8,0.1-1.6-2.5-1.6-3.2c-4.5,4-9.3,1.8-14.9,2.3c-4,0.4-12.3,3-15-1.1
			c-0.1,0.9-0.5,1.7-1.1,2.3c-0.8,1.2-1.5,1.1-2.1-0.3c-0.2,0-2.1,0.4-2.2,0.4c-1.4-0.1-3.1-0.6-4.5-0.7c-2.1-0.2-1.7,1.4-3.5,1.4
			c-0.9,0-3.3-1.3-4.9-1.4c-2.8-0.1-5.7,1-8.5,0.7c-1.9-0.2-3.6-1.8-5.5-1.9c-2.3-0.1-3.1,1.7-4.9-0.8c-0.4-0.1-0.6,1.4-0.8,1.4
			c0,0-1.8,0.3-2,0.3c-0.4,0.1-1.8,0.8-2.2,0.8c-0.9,0-1.5-0.7-2.5-0.7c-1.7,0-6.9,1.4-6.8-1.6c-5.9,2.2-11,1.3-17,1.9
			c-2.8,0.2-4.5-0.1-7.2-0.6c-3.3-0.6-5.5,0.2-8.8,0.3c-3.2,0.2-4.2-1.2-6.9-2.4c-1.1-0.5-1.8-1.1-3.1-0.8c-0.7,0.2-0.2,1.4-0.4,1.5
			c-1.1,0.4-1.9,0-3.5,0.1c-2.9,0.2-4,2.6-7,0.3c1-0.1,2-0.2,3-0.4c-2.8-1.2-6.6-1.8-5.9,2.6c-2.4-0.3-0.3-2-1.5-2.6s-2.5,0.4-4,0.9
			c-4,1.3-7.3,0.6-11.4,0.4c-4.7-0.3-15.7,3.6-19-1.4c-0.1,1-1.2,4-2.7,3.8c-0.5,0,0.9-3.1,1-3.5c-0.8,1.6-4.3,2-6,2.8
			c0.2-0.9,0.4-1.8,0.6-2.6c-1.6,1.7-2.4,0.7-4.3,1.2c-0.8,0.3-2,2-2.7,2.1c-0.8-1-1.9-1.4-3.1-1.2c-0.8-0.2-1.7-0.2-2.5-0.1
			c-3.3,0.2-6.3,2.1-9.6,0.8c-2.9-1.1-4-3.9-5.7,0.6c-0.4-0.8-0.9-1.6-1.3-2.4c-0.6,0.9-1.1,1.7-1.7,2.6c-2.2-1.4-2.3-2.2-4.8-1.7
			c-0.6,0.2-1.2,0.2-1.8-0.1c-0.1,0.4-0.3,0.9-0.4,1.3c-0.1,1.1-0.4,1.5-1,1.1c-0.5-0.2-0.9-0.5-1.3-0.8c-1.6,0.1-3.7,0.6-5.5,0.3
			C330.2,288,326,285.7,325.6,286L325.6,286z M376,256.6c0.2,0.3,0.4,0.6,0.6,0.9c-2.7,1.4-3.3,0.6-3.6-2.2
			C374.3,255.2,374.6,257.5,376,256.6L376,256.6z M377.7,254.9c1.3,0.6,2.8,1.7,4,0.2C382.5,257.5,376.4,260.7,377.7,254.9
			L377.7,254.9z M386,255.9c2.7,1.8-3.8,0.4-3.8,0.4C383.4,255.2,384.6,255.1,386,255.9L386,255.9z M409.2,245.8
			c0.9,4.7,3.5,4.5,7.6,2.4c6-3.2,7-8.4,7.5-14.6c0.4-5.9,1.1-8.2,7.3-7c4.3,0.9,7.9,0.1,12.2,0c4.6-0.1,6.2,0.6,6.6,5.3
			s1.2,8.3,4.7,12s8.2,5.9,12.7,7.9c2.3,1.1,4.5,2.2,7.1,2.4c1,0.1,6.2-0.6,6.3,1.1c0.1,1.2-7.1,4.7-7.9,5.2
			c-3.4,1.8-6.7,3.5-10.4,4.6c-8.4,2.5-17.3,2.7-26.1,2.5c-14.1-0.2-33.5-6.2-41.9-18.7C399.7,247.8,404.5,246.8,409.2,245.8
			L409.2,245.8z M408,205.3c-2.2-1.9-3.7-4.7-5.5-6.9c-0.9-1.1-1.6-1.5-2.5-2c-0.9-0.6-1.5,0.2-2.2-1.1c-2-3.6,4.2-8.6-2.4-10
			c-2.2-0.5-7.6,1.3-8.2-1.9c-0.9-4.5,7.7-4.8,9.7-7.1c4-4.6,1.3-12.3,3.8-17.5c2.3-5,8.3-5.9,13.1-7.4c6.6-2.1,13.3-3.3,20-5
			c4.7-1.2,12.5-5.9,16.8-1.7c-6.7,1.5-2.8,3.8,1.7,5.1c5.1,1.5,10.4,2.1,15.7,2.5c5.4,0.4,10.9,0.5,16.2-0.6
			c4.9-1,10.4-5.3,15.6-4.2c-2.9,5-11.4,7.7-16.6,9c-2.6,0.7-4.3,0.5-4,3.8c0.3,3.2,3.1,6.4,3.8,9.7c0.8,4.4,0.1,8.5-1.5,12.6
			c-1.5,4.1-1.9,4.6-0.6,8.5c2.1,6.1-2.4,12.8-6.6,17.2C457.3,226.2,424.9,219.5,408,205.3L408,205.3z M450.9,98.7
			C451,98.9,450.9,98.8,450.9,98.7L450.9,98.7z M456.2,143.7c-0.7,0.5-4.7,1.6-4.6,0C451.8,141.6,455.5,142.4,456.2,143.7
			L456.2,143.7z M465.4,101c-0.9-0.7-3.6-0.4-1.7-3.1C464.3,99.1,464.9,100,465.4,101L465.4,101z M401.7,84.1
			c1.2-3.1,2.5-6.1,3.1-9.4c0.3-2.1-0.3-4.4,2.5-4.7c-3.7-1.6-3.7-7.9-3.9-11.2c-0.3-4.5-1.7-10.5,0.3-14.7c2-4.3,4.8-4.2,5.6,0.9
			c0.3,2-0.9,2.7-1.1,4.1c-0.5,2.8,0.5,2.2,2.2,0.1c0.7,2.1,1,5.4,4,5.2c-0.2-0.6-1.3-1.9-1-2.6c0.6-1.1,3.5,0.6,3.8,0.8
			c2.6,1.8,3.2,3.5,1.3,5.8c2.6,0.3,0.4,2.6,2.1,3.1c2.6,0.9,0.8-3.4,0.6-4.1c1.6,0.6,2.1,1.3,3.1,2.5c0.6,0.8,1.1,1.7,1.6,2.6
			c0.5,1.7,1.6,2.1,3.3,1.3c3.3,1,7.9,0.9,10.9,2.7c1.4,0.8,1.8,2.6,3,3.3c1.3,0.8,3,0.4,4.4,0.9c-0.5,1.1-0.1,1.8,1.2,1.8
			c1,0.1,2,0.3,3,0.7c0.7-0.5,1.5-1,2.3-1.3c0.6,1,1.4,1.2,2.4,0.7c3.1,0.6,4.5,1.7,6.5,3.5c1.7,1.6,0.3,1.7,2.2,1.5
			c0.8-0.1,2.1-1.4,3.9-1.1c1,0.2,2,0.5,2.9,0.9c1,0.9,2.1,1,3.2,0.3c1.8,0.9,2,2.5,4.3,2.7c2.5,0.2,1.7-2.9,3.4,1.5
			c2.3-4.6,3.2,2.8,5.5,3.4c2.5,0.6,2.7-1.4,4.8,0.8c0.6,0.7,0.6,1.7,1.3,2.4c1.2,1.1,2.7,0.9,3.8,2.5c-0.6-0.9,0.1,3.1,0.1,2.9
			c0.2,1.7-1.4,3.7,1.8,3.5c0,0.2-1.6,2.4-1.8,2.1c-0.1-0.3-0.1-0.5-0.2-0.8c-0.3,0.1-0.5,2.3-0.4,2.6c0.3,0,0.4-0.2,0.3-0.6
			c-0.5,1.6,0.3,2.7-0.7,4.2c-0.6,1-2.4,1.7-3.3,2.3c-2.2,1.5-4.4,2.9-6.6,4.5c-5.1,3.6-10.8,8-17.2,8.8
			c3.2-3.2,21.8-15.1,12.5-18.6c-1.7-0.6-4.9-1.2-6.7-1.4c-2.2-0.2-4.6,1.1-7,0.3c-3-1-1.9-3.8-3.7-4.8c-3.9-2.1-3,2.9-4.2,4.2
			c-1.3-1.3-1-2-3-2.1c-2.1-0.1-2.5,1.8-4.9,0.6c-3.3-1.6-1.6-4.9-6.2-4.9c0.1-0.7,0.8-2.7-0.1-3.3c-1.2,1.6-0.3,3.3-1.4,4.8
			c-0.6,0.8-1.8,1.4-2.7,1.6c-2.1,0.6-2.4,1.7-2-1.5c-1.5,2.8-6.3,1.6-9.1,1.4c-4.6-0.5-9.4-1.3-13.8-2.8c-4-1.4-6.2-3.7-9.5-5.8
			c-1.3-0.8-1.9-0.5-3.7-1C402.6,87.2,400.9,86.3,401.7,84.1L401.7,84.1z M411.3,35c0.7-0.4,1.2,5.8,0.3,6.9
			C410.2,39.5,407.5,36,411.3,35L411.3,35z M413.5,32.6c2.2-2,0.7,3.2,0.3,4c-0.8-0.5-1.6-1.1-2.5-1.6
			C412.4,34.4,412.7,33.4,413.5,32.6L413.5,32.6z M497.1,24.2c20.5,4.3,40.7,12.3,57.1,25.5c14.9,12,25.5,29.1,31.4,47.2
			c6.1,18.8,4.1,39.7-10.5,54.2c-7.7,7.6-17.8,12.2-27.5,16.6c-4.6,2.1-9.4,3.9-14.1,6c-3.3,1.5-7.4,3.9-11.2,3.5
			c1.9-2,4.8-2.1,7.1-3.3c2.8-1.5,5.2-4.4,7.6-6.5c2.4-2.1,7.8-8.6,11.6-7c-0.5-3.5,3.4-5.1,5.2-7.3c1.9-2.4,2-5.2,5.5-6
			c-3.7-2.9-2.6-8.4-1.8-12.3c1-5.1,1.5-9.7,1.9-14.9c0.7-9.3,1.3-21.1-3.8-29.3c-1.7-2.7-3.8-5.1-5.3-7.8c-1.8-3.3-1.4-6.2-1.4-9.9
			c-3.3,2.2-4-2.3-5.3-4.5c-1-1.6-2.4-2.6-2.7-4.6c-0.2-1.5,1.4-1.8,0.5-3.3c-1.1,0.8-1.5,2.1-2.1,3.3c-1-0.4,0.2-1.8-0.4-2.3
			c0,0-2-0.9-1.9-0.7c-1.3-1.6-1.7-4.2-2.3-6.1c-2.3,1.2-1.9,1-4.4-0.9c-0.5-0.3-2.7-1.9-2.9-2.4c-1-2.4,0.7-1,0.3-2.5
			c-1.4-4.3-9.2-3.5-9.9-9.9c-3.8,2.4-5.3-1-7.5-3.5c-2.3-2.5-6.2-3.5-6-7.4c-1.2,0.4-2.4,0.8-3.6,1.2c0.6-3.7-4.8-3.4-6.8-5.3
			C494.9,24,496,24.1,497.1,24.2L497.1,24.2z M500.2,251.3c1.9-1.7,1.3,0.6,2.5,0.3c1-0.2,1.2-1,2.2-1.3c4.1-1,10.3,0.3,14.6,0
			c5-0.2,13.6,0.8,16,6.7c1.4,3.5-0.8,2.3-3.2,2.1c-1.9-0.2-3.5,0.2-5.4,0.2c-0.9,0.1-1.8,0.1-2.7,0c-0.4-0.3-0.7-0.7-0.8-1.2
			c-2.6-0.4-5.3,1.1-8.2,1.2c-3.8,0.1-7.2-0.6-10.1-3.2c-1.2,1.7-1.9,2.6-4,2.8c-0.1,0-2.1-0.8-2.4-0.9c-0.4-0.1-1.5,0.8-2.3,0.5
			C497.9,256.2,498.1,253.2,500.2,251.3L500.2,251.3z M761.2,271.8c0.7-2.3,1.2-4.7,1.9-7.1c9.4,10.7,17.7,25.1,21.4,38.9
			c2.4,9,6.2,25.2-5.3,29.8c-9.4,3.8-14.6-9.7-17-16.4C757,302.3,757,286.7,761.2,271.8L761.2,271.8z M339.1,103.4
			c0.1,0-6.1,3.6-4.1,0.7c0.8-1.2,4-2,5.3-2L339.1,103.4z M333.1,105c-0.7,0.6-1.4,1.2-2.2,1.8c-0.7-1.1-1.4-2.2-2.1-3.3
			C330.2,102.9,336.1,102.4,333.1,105L333.1,105z M328.7,217.6c-1.3-0.9-2.3-0.4-2.7,1.1c0-1.5,0.8-4.9,1.9-5.3
			c0.8-0.3-2.5-4.2-1.6-5.2c2.4,1.4,0.9,2.6,1.6,4.4c0.3,0.8,1.2,1.5,1.5,2.1C329.8,215.8,331.2,219.3,328.7,217.6L328.7,217.6z
			 M322.3,208.8c-1.3,0.3,1,2.5,1,3.5c0,0.7-0.9,1.3-1.3,2.3c-0.8,2.2,0.6,3.7-1.7,5.3c0-4.8-3.2-17.5,3-19.8
			c-3-2.4-0.5-5.1,1.8-2.3C327.5,200.7,326,207.9,322.3,208.8L322.3,208.8z M319.1,190c-1.2-4.3-4.9-5.8-9-5.5
			c0.2-2.2,1.8-5.4,3-1.4c0.5-1.2,0.8-2.7,2-3.5c1.9,6,11.4,9.3,5.5,15.7C320.1,193.5,319.6,191.7,319.1,190L319.1,190z
			 M308.1,184.7c-22,1.6-52.8,6.2-70.4-10.7c-11.5-11-10.8-28.1-1.6-40.3c5.3-7,12.5-11.9,19.7-16.5c2.8-1.8,5.2-3,8.2-4
			c0.5-0.1,1,0.1,1.4,0.3c0.2-0.7,0.6-1.3,1.3-1.6c1.2-0.6,2.9-0.9,3.6-2.2c-0.7,2.5-1.1,5-1.4,7.6c-0.6-0.7-1.2-1.4-1.8-2.1
			c-0.5,4.7-5.4,1.8-8.3,2.4c1.9,2.6,3.3,3.6,3.4,7.1c-1.4-2.6-4.4-4.4-7.2-5.2c1.5,4.4,2.6,7.1,1.1,12c-1.8-1-1.9-3.5-4.2-4.1
			c-0.6,2.9-0.7,6.1-1.4,8.9c-5.7-2.6-5.1,4.4-2.8,7.8c1.2,1.8,1.8,4,2.9,5.7c2.7,4.3,0.6-2.1,3.6-1.8c-0.7,4.6-0.9,5,2.4,8.3
			s4.9,7.8,8.4,10.8c1-1.3-0.6-2.6-0.7-3.9c3.2,0.5,4.8,3.8,7.9,0.9c1.4,2.6,2.8,5.6,6.1,6.1c-2.1-4.1,4.1-1.3,5.7-0.7
			c1.2,0.4,3.4,0.8,3.9,1c2.7,1,0.8-0.8,2.4,2.4c2.4-0.7,3.3-2.7,6.1-1c2.3,1.3,2.3,3.7,2.8,6c0.5-1.5,1.1-3.1,1.7-4.6
			c0.6,0.3,3.2,3.1,2.9,3.1C310,176.2,309.8,179.9,308.1,184.7L308.1,184.7z M277.3,107.6c1.2-0.9,2.7,0.3,4.1,0
			c1.9-0.4,3-2,5.1-2.2c-0.6,1.9-1.7,1.7-2.6,3.2c-0.3,0.5-0.2,1.7-0.4,2c-2.4,2.4-3.2,0.4-5.6-1.4c0.2,2.2,0.6,2.9-1.4,3.5
			c-1.9,0.5-5-1.4-6-3C271.1,108.1,275.8,108.6,277.3,107.6L277.3,107.6z M292.3,104.2c2.1,0.2-0.4,6.2-3.4,0.4
			C290.1,104.3,291.2,104.2,292.3,104.2L292.3,104.2z M302.9,103c3.2-0.7,14-3.7,15.2,1.3c0.2-0.1,1-3,1.4-2.6
			c1.5,1.4,1.7,3.2,1.5,5.2c-1.8-3.8-1.2-0.5-2.4-0.7c-0.3-0.1-0.8,0.5-1.6,0.3c-1.1-0.3-1.8-2.6-2.5-3.3c-1.1,1.6-2.5,3.6-4.7,3.5
			c-1.6-0.1-4.1-4.2-2.1,0.3c-1.2-0.4-2.6-1.3-3.9-1.1c-1.5,0.2-2.3,1.7-3.7,1.9c-3.1,0.5-3.6-2.5-5.6-4.1
			C297.3,103.4,300.1,103.5,302.9,103L302.9,103z M322.4,102.9c0.2-1,3.1-1.4,3.8-1.1c1.8,0.8,1.1,1.9,0.8,3.6
			c-1.3-0.6-2.6-1.2-3.9-1.9C325,106.7,321.5,107.2,322.4,102.9L322.4,102.9z M870.4,286.7c-0.2-7.5-0.4-15.2-2.4-22.5
			c-1.3-5.1-4.6-14.3-10.8-15.2c-9.3-1.3-14.5,17.1-17.1,23.5c-0.5-7.5-0.1-15.4-2.9-22.5c-2.3-5.7-8-11.1-12.9-4.7
			c-4.4,5.7-5.2,14.1-6.4,20.9c-1.5,8.8-2.4,17.8-3.5,26.7c-4.3-8.3-5-17.7-8.4-26.3c-3.2-8.1-8.2-15.8-13-23
			c-3.9-5.9-8.7-11.4-14.9-15c-5.4-3.1-14.8-6.5-19.9-1.3c-4.3,4.3-3.6,10.1-3.4,15.6c0.1,2.4,0.5,4.1-1.7,5.3
			c-1.1,0.6-2.7,0.3-3.9,0.6c-1.9,0.5-3.3,1.4-4.9,2.6c-11.1,8.2-16.2,23-17.7,36.2c-2,16.7,4.5,31.1,10.1,46.4
			c0.9,2.4,3.7,7.6,3.3,10.3c-0.4,3-4.2,3.1-6.7,3.1c-7.6,0.2-15.6-0.4-23.2-1.1c-18.1-1.7-36.1-10.4-52.3-18.2
			c-3-1.4-7.1-2.2-9.5-4.5c-2.3-2.1-2.9-5.5-4.8-7.9c-4.8-5.9-7.9-10.9-14.9-14.5c-7.2-3.6-14.5-7-21.6-11
			c-8.7-4.9-16.7-11.2-25-16.7c-15.5-10.2-30.8-21.5-47.2-30.2c-7.6-4-16.1-4.7-24-8c-7.7-3.2-17.2-3.2-25.2-1.2
			c-3.9,1-6.6,3.3-10.2,4.9c-4.2,1.8-7.7-0.2-11.4-2.3c-5.7-3.3-11.3-8.6-3.2-12.2c2.7-1.2,6.2-1.7,8.6-3.5c2.6-2,4.6-5.7,6.7-8.3
			c4.6-5.6,7.4-12.1,14.1-15.6c7.5-3.9,16.3-4.9,24.3-7.4c8.6-2.7,17.1-6,25.5-9.2c15.3-5.7,31.1-11.9,42.1-24.6
			c9.5-10.9,13.6-25,13.2-39.3c-0.8-29.2-16.4-58.9-38.9-77.2C528.9,17.3,493.8,9.8,459,10.2c-16.3,0.2-35.8,2.3-49.5,12.2
			c-11.8,8.6-13.7,23.6-12,37.1c0.7,5.5,3.1,12.7-0.7,17.6c-2.2,2.7-6.1,3.4-9,5.1c-3.7,2.1-6.9,4.2-11.1,5.3
			c-17.7,4.8-36.2,3.1-54.3,2.8c-30.1-0.4-60.9,7.7-83.3,28.9c-18.1,17.1-23.5,49.4-1.5,66c17.8,13.5,45.8,12,66.9,9.6
			c6.5-0.7,11-1.8,11,6.2c0,8.7-1.4,17.8,0.8,26.4c3.5,13.5,16.5,13.8,27.9,10.9c6-1.5,11.9-3.8,17.6-6.2
			c8.4-3.5,16.1-8.7,24.5-12.3c5.6-2.4,9.9,5.3,14.9,0c0.9-1,1.1-2.5,2.5-3c2.2-0.8,5.8,2,7.8,2.9c2.9,1.3,5.8,2.3,6.9,5.5
			c1.1,3,0.6,7.7-0.4,10.6c-2.2,6.4-8.2,5.1-13.7,4.7c-9.6-0.7-19.1-2.3-28.6-3c-8.6-0.6-16.6,2-24,6.2c-15.5,8.9-28.3,23-41.7,34.6
			c-6.9,6-13.6,12.4-21.2,17.7c-3.3,2.3-6.8,4.3-9.7,7.2c-2.8,2.8-3.1,5.3-4.1,9c-1.7,6.6-10.3,9.9-15.6,13.3
			c-7.6,4.9-15.6,8.4-24.1,11.4c-18,6.4-36.1,10.9-54.8,14.2c-9.2,1.6-18.3,2.7-27.6,3.6c-8,0.8-16.5,3.2-24.5,1.2
			c2.3-3.7,6.4-6,9.6-8.9c4.1-3.7,7.6-8.1,10.7-12.7c6-8.9,10.3-18.4,11.2-29.2c0.9-9.7-0.1-21.3-6-29.5c-2-2.8-6-3.6-7.8-6.2
			c-1.8-2.5-1.1-6.9-2.1-9.9c-2.5-7.5-10-16.8-16.5-21.2c-7.1-4.7-17.5-6.5-25.7-4c-15.2,4.6-24.6,20.8-31.5,34
			c-3.8-8,2.6-19.9-4.9-26.4c-6.3-5.5-11.2,5.2-13.3,9.8C42.3,273.2,40,296,35.9,319c-1.7-1.7-0.8-5.9-0.7-7.9
			c0.3-3.7,0.3-7.3,0.3-11c0-9.3,1.8-18.7,1-28c-0.5-5.4-2.2-16.7-10-15c-6.6,1.5-10.8,10.9-12.9,16.6c-3,8.2-3.7,16.4-3.5,25.1
			c0.2,9.6-1.6,19.1-2.1,28.7c-0.9,18.6,0,37.1,5.3,55.1c8.8,29.5,28.9,53.9,55.8,68.7c14.8,8.1,31.2,13.3,48.1,14.4
			c9.2,0.6,18-0.5,27.1-1.4c9-0.9,18-1.4,26.9-2.5c19.9-2.4,39.3-8.7,57.4-17.2c9.5-4.5,18.5-9.9,27.8-14.7c3.8-1.9,6.3-4.3,9.5-7
			c3.2-2.6,4.1-2.8,7.7-2.8c-1.1-2.8,2-3.7,3.4-5.5c-0.1,0.9-0.2,1.7-0.2,2.6c1.1-2.3,2-2.3,2.9,0.1c0.9-2.6,1.6-5.3,2.6-7.8
			c4.1,2.1,3.8,7.1,9.3,3.4c4.5-3,8.7-6.5,13.4-9.4c10.6-6.7,19.7-15.3,30.3-21.9c0,6.4,0.5,12.9-0.4,19.3
			c-0.8,6.1-3.1,11.7-4.9,17.6c-3.3,10.7-3.6,22.2-7.2,32.8c-1.5,4.4-5.5,8.1-6.6,12.4c-1.2,4.4,1.5,7.9-3,10.7
			c-3.2,2-7.1,2.9-10.6,4.1c-5.4,1.9-10.4,4.5-15.6,6.7c-24.4,10.5-48.3,21.1-70.9,35.2c-21.5,13.4-43.3,27.2-63,43
			c-17.1,13.8-34.4,31.6-38.6,54c-4,21.8,6.7,45.2,28.4,52.3c11.3,3.7,24,3.3,35.7,3.4c12.6,0.2,26-2.9,38.4-5.1
			c13.1-2.3,26-6,39.1-8c12.6-2,24.2-6.4,36.5-9.2c13.2-2.9,26.7-4.5,40-7.1c6-1.2,11.8-2.9,17.8-4c6.6-1.2,13.2-1.6,19.7-3.2
			c12.6-3.1,24.7-8,37.3-10.9c5.7-1.3,11.3-3,17-4.2c5.2-1.1,9.3-4.1,14.6-1.6c4.2,2,7.6,5.3,11.6,7.6c5.2,3,10.7,5.7,16.1,8.3
			c10.9,5.2,22.2,8.9,33.6,12.8c12,4.1,23.7,8.8,36.2,11.6c12.7,2.8,25.7,3.6,38.5,5.8c26.2,4.5,52.3,6.6,78.9,6.7
			c13.5,0.1,26.9-1.5,40.4-1.3c11.9,0.2,22.2,2.8,33.1-3.5c17.4-10.1,37.5-25.3,37.1-47.4c-0.4-20-12.4-39.1-23.7-54.9
			c-13.7-19.2-33.2-32.7-52.3-45.9c-20.4-14.1-43.2-23.8-64.7-36.1c-10.9-6.3-21-13.1-32.9-17.5c-5.7-2.1-11.2-4.6-16.8-6.9
			c-4.5-1.8-11-2.9-14.9-5.9c-2.4-1.9-2.6-4.8-3.3-7.7c-1.4-6.3-3.6-12.3-5.8-18.3c-4.1-11.7-6.9-23.7-8.7-36
			c-1.7-11.7-5.5-23.9-3.5-35.8c12.8,12.4,26,24.4,39.2,36.4c4.9,4.5,9.8,9.2,14.7,13.7c3.7,3.4,8.4,8.4,13.5,9.4
			c6.6,1.3,4.2-6,8.7-7.2c2.8-0.7,11.1,6.4,13.3,7.8c13.9,8.8,29.3,14.4,44.6,20.4c16,6.3,32.5,11.9,49.8,13.5
			c15.9,1.5,32.2-0.4,47.6-4.8c30.6-8.7,53.2-29.2,69.7-55.8C857.8,358.4,871.5,322.9,870.4,286.7L870.4,286.7z"/>
		<path class="st1" d="M402.1,220.6l-0.1,0.1C402.1,220.7,402.1,220.7,402.1,220.6"/>
		<path class="st1" d="M403.6,221c-0.1-1-0.4-1.9-0.7-2.8c-1,1.6-1.9,2.3-0.6,4C402.7,221.8,403.1,221.4,403.6,221"/>
		<path class="st1" d="M474.2,450.9c1.1-1.2-0.8-1.7-1.6-1.7c0.1,1.3-0.6,4.4,1.2,5C473.4,453,473.5,451.9,474.2,450.9"/>
		<path class="st1" d="M444.3,198.2c-1.9,3.8,2.4,4.9,4.9,3.1c1.9-1.4,3-4.9,3.3-7.1c1-7.2-4.1-14.1-6.6-20.6
			c-0.7-1.7-1.5-7.4-3.6-7.5c-2.4-0.2-2.6,5.1-2.6,6.4c-0.1,4.1,1,8.2,2.3,12.1C443.2,188.9,446.6,193.8,444.3,198.2"/>
		<path class="st1" d="M453.6,183.1c7.5,6.7,13.5-4.4,13-11c-0.1-1.6-1.2-7.6-4.3-5.4c-1.6,1.1-0.2,4.7-1,6.2
			c-3.6,7.6-7-4.2-9.5-5.1c-2.9-1.1-3.2,2.7-3.2,4.8C448.6,176.7,450.5,180.4,453.6,183.1"/>
		<path class="st1" d="M426.3,184.2c1.8-2.8,3.9-6.5,4.2-9.8c0.4-5.2-2.6-4.7-5.1-1.1c-1.8,2.6-3.1,6.9-6.9,5.8
			c-4.8-1.3-3.3-7.8-6-10.8C405.7,177.3,418.5,196.5,426.3,184.2"/>
		<path class="st1" d="M436.5,211.9c2.8,0.6,10.1,0.4,7.6-3.9C440.8,202.7,430.3,210.6,436.5,211.9"/>
		<path class="st1" d="M534.4,51.2c0.5-1.5-0.2-1.8-1.4-3C531.8,49.3,533.3,50.4,534.4,51.2"/>
		<path class="st1" d="M586.5,327.1c1.8,0.3,2.4-0.7,1.8-2.9C585.4,324,584.8,325,586.5,327.1"/>
		<path class="st1" d="M485.8,91.7c2,0.9,1.3,2.8,1.2,4.5c1-1.1,3.2-3.2,2.3-4.9C488,88.8,484.6,91.2,485.8,91.7"/>
		<path class="st1" d="M416.6,60c-0.3-0.6-0.6-1.2-0.9-1.8c-1.3,1-3.2,3.7-1.2,5C415.2,62.2,416,61.1,416.6,60"/>
		<path class="st1" d="M441,77.8c2.5,2,1.3-4.1,1.2-4.6C441.8,73.9,439.7,76.8,441,77.8"/>
		<path class="st1" d="M439.6,74.7c-0.2-0.5-0.4-1-0.6-1.5c-1,0.9-2.3,2.9-0.6,4C438.8,76.4,439.2,75.6,439.6,74.7"/>
		<path class="st1" d="M455.6,95.6c0.2,0.2,0.4,0.4,0.6,0.6c0.8-1.7-0.1-2.9-1.7-3C454.7,94.1,455,94.9,455.6,95.6"/>
		<path class="st1" d="M387.8,285c1-0.7,1.9-1.5,2.7-2.3c-3-1.8-1.2,2.1-4.8-0.3C385,283.5,386.3,285.8,387.8,285"/>
		<path class="st1" d="M512.7,450.2c1.1-1.7,1.3-1.7-0.2-3C511.2,449.3,511.3,448.8,512.7,450.2"/>
		<path class="st1" d="M276.6,174.3c0.6,0.6,1.2,1.3,1.8,1.9c0.3-0.8,1.9-3.2,0.8-4C278.3,172.9,277.4,173.6,276.6,174.3"/>
		<path class="st1" d="M298.4,180.6c-1-0.2-3.3-0.9-3.9,0C296,181.8,299.2,180.8,298.4,180.6"/>
	</g>
</g>
<g id="Character_x2F_zombieing_1_">
	<g id="Ink_3_" transform="translate(160.999594, 54.000301)">
		<path id="Fill-5_1_" class="st1" d="M-37.6,44c6.9,4.9,15,8.3,22.2,12.7c1.8,1.1,7.5,3.4,7.5,5.5c-0.1,1.2-1.7,2.7-2.5,3.6
			c-1.3,1.5-2.5,2.9-3.6,4.4c-5.5,6.9-10.5,14-16.4,20.6c-0.9,1-3.5,5.7-4.4,3.4c-0.4-1.1-0.1-2.3-1.1-3.3c-0.5-0.5-2.5-0.8-2-1.9
			c0.4,0.2,0.8,0.4,1.1,0.5c-0.3-0.9-0.3-1.8-0.8-2.7c-0.3-0.5-0.8-0.8-1-1.3c-0.3-0.8,0.2-1.7,0.1-2.5c-0.1-0.8-0.5-1.6-0.8-2.4
			c-1.5-4.6-2-9.2-2.8-14c-0.8-4.7-2-9.3-2.4-14c-0.5-5-1.1-10.1-1.9-15c1.5,0.2,2.5,1.8,3.6,2.7C-41,41.5-39.3,42.7-37.6,44
			 M-43,92.7c-0.3-0.3-0.6-0.6-0.8-1C-40.4,90-42.5,92.9-43,92.7 M-45.1,89.1c-1.5,0.4-2.5,0.5-3.7-0.1c-0.1-0.1,0-0.5-0.2-0.6
			s-0.4,0-0.6-0.1c-0.5-0.3-1.4,0.3-1.5-0.7c1.9-0.6,3.8-1.7,5.7-1.8C-42.5,85.5-42.6,88.4-45.1,89.1 M-51.6,83.5
			c-2,0.4-3.7,1.6-5.9,1.3c-2-0.3-3.8-1.3-5.4-2.5c4-1.1,8.2-1.3,12.2-2.4c1.3-0.4,3-1.3,4.4-0.9c1.5,0.4,1.7,1.8,2.1,3.2
			C-46.7,82.5-49.1,82.9-51.6,83.5 M-64.3,77.8c-2,0.4-4,1.5-5.5-0.3c-0.3-0.3-0.5,0-0.4-0.9s0.9-1.5,1.6-1.8
			c1.7-0.8,4.1-0.3,5.9-0.4c2.9-0.2,5.8-0.8,8.6-1.2c2-0.3,4-1,6-0.9c1.5,0.1,3.4,1.4,1.1,2.4c-2,0.9-5.2,0.8-7.3,1.1
			C-57.8,76.4-61.1,77.1-64.3,77.8 M-66.2,68.7c0.1,0.1,0.3,0.3,0.4,0.4c0,0,0.8-0.6,1-0.6c1-0.1,2,0,3-0.1c2.3-0.1,4.6-0.5,6.8-1
			c1.8-0.4,3.7-1,5.5-0.8c1.7,0.1,1.8,0.4,1.9,2c-4.1,0-8.4-0.1-12.5,0.8c-2.7,0.6-5.6,2.3-6.9-0.8C-66.8,68.6-66.5,68.6-66.2,68.7
			 M-63.6,62c1,0.8,3.8-0.5,5-0.6c1.3-0.1,2.6-0.3,3.9-0.6c1.1-0.3,5-1.8,5.9-0.4c1.3,2.2-4.1,2.5-5,2.7c-3.6,0.4-7.4,0.8-11,1.8
			C-64.4,63.9-64,63-63.6,62 M-58.6,54.7c0.3,1,8.5-2.7,8.7,0c0.1,2-8.2,3.1-9.6,2.9C-59.3,56.6-58.3,55.8-58.6,54.7 M-55.8,48.4
			c0.2-2,0.4-2,2-2.2c1.2-0.1,2.9-0.9,2.6,1.3C-51.4,49.4-56,50.4-55.8,48.4 M-52.9,41.4c0.4-1.1,1.3,0.4,1.3,1
			c0.1,1.5-1.1,1.1-2.1,1.1C-53.5,42.8-53.2,42.1-52.9,41.4 M-39.4,33.3c-0.2-0.3-1.5-0.4-1.8-0.5c-0.8-0.3-0.8-1-1.8-0.3
			c-0.1-0.1,0.1-0.6,0-0.6c0,0-0.8-0.3-1-0.4c-0.6-0.4-1.1-0.8-1.7-1.3c-0.6-0.5-1.2-1.3-1.8-1.7c-0.3-0.2-0.5-0.4-0.8-0.4
			c-0.9-0.1-0.6,0.5-1.4,0.6c-0.5,0.1-0.8-0.5-1.5-0.3c-0.5,0.2-0.8,1-1.1,1.4c-0.9,1.7-1.5,3.4-2.4,5c-4.4,8.5-9.4,16.6-13.6,25.2
			c-2,4.1-4.2,8.3-5.6,12.7c-1,3.2-3.4,7.8-1.3,11c1.5,2.3,4.4,3.3,6.8,4.4c3.5,1.7,6.8,3.8,10.3,5.5c4.3,1.9,8.4,4,12.5,6.1
			c1.8,0.9,3.4,2.2,5.1,3.1c1.1,0.5,2.7-0.4,3.1,0.8c1.3-1.7,3.5-0.6,5.1-1.7c0.9-0.7,1.6-2,2.4-2.9c1.1-1.3,2.4-2.4,3.6-3.6
			c4.7-4.9,8.9-9.9,13.2-15.2c4-5,8.8-9.8,12.2-15.2c1.3-2.2,1.6-4.5,0.7-6.9c-0.6-1.7-2.2-4.4-4.5-3.3c0.8-1.4-2.4-2.9-3.4-3.2
			c0,0-0.2,1.1-0.5,1.1c0.1,0-0.8-2.4-1.3-2.7c-1.2-0.9-2.7-2-4-2.7c-1.2-0.7-2.5-1-3.7-1.8c-1.4-1-2.7-2-4.2-3
			c-1.4-0.9-2.9-2-4.5-2.6c-1.3-0.5-2.5-0.6-3.7-1.5c-1.5-1.1-2.8-1.8-4.5-2.6C-36.3,35.1-38.3,34.5-39.4,33.3"/>
		<path id="Fill-9_1_" class="st1" d="M-103.5,92.2c-0.3,0.8-3.3,0.5-3.3-0.4C-106.9,90.4-102.9,90.9-103.5,92.2 M-100.3,91.7
			c1.7,0.1,4.4,1.3,6.1,0.6c2.5-1-0.1-2.7-1.5-3.1c-1.3-0.5-3.3-0.3-4-1.7c-0.5-1.1,0.8-4-0.8-3.5c-1.7,0.5-1.2,4.7-3.8,3.3
			c-1.3-0.7-0.8-4.8-2.8-2.7c-0.6,0.6-0.6,1.7-1.4,2c-0.8,0.4-1.7,0-2.5,0c-2.2,0.1-2.9,2.1-0.6,2.9c0.8,0.3,3.9,0.6,2,2
			c-1.1,0.8-3.8-0.9-4.8,0.5c-1.4,2,2.3,2,3.3,2.6c1.7,1,0.3,3.4,0.4,5c0.2,2.5,1.7,2,2.2-0.1c0.4-1.8-0.1-4.5,2.7-3.8
			c4.5,1.2-2.5,6.9,0.8,8.4c2.1,1,2.4-4.1,2.6-5c0.6-3.3,2.4-2.5,5.2-2.4c3.2,0.1,4-2.2,0.6-2.9c-1.1-0.2-2.5,0.1-3.5-0.6
			C-100.8,93-101.6,91.6-100.3,91.7"/>
		<path id="Fill-16" class="st1" d="M12.2,6.4C10.9,5.9,9.3,5,7.8,5.3c-1.5,0.4-2.1,2-3.3,2.9c-3,2.6-4.9-1.3-6.5-3.3
			s-3.6-2.4-5.8-1.2c-0.9,0.5-4.7,2.7-4,4.1c0.4,1,2.4,0.1,3-0.1c1.4-0.5,2.7-0.9,4.1-0.2c2.7,1.3,3.4,5,6.6,5.5
			c3.3,0.6,3.4-2.6,5.8-3.8c1.6-0.8,2.7,0.6,4.3,0.3C13.3,9.2,13.9,7.1,12.2,6.4"/>
		<path id="Fill-19" class="st1" d="M-14.7,19.2c1.1,0.3,2-2,2.7-2.6c1.2-1,3.3-1.1,4.6-0.2c2.4,1.9,1.6,6,5,7
			c3.1,1,4.5-3.1,7.1-4.1c1.5-0.6,3.2-1,2.6-3.1c-0.4-1.5-1.6-1.8-2.9-1.3c-2.2,1-3,4.9-5.7,5C-4,20-4.4,16-5.6,14.3
			c-1.8-2.6-5.5-3.3-7.6-0.8C-13.6,14.3-16.9,18.7-14.7,19.2"/>
	</g>
</g>
<g id="Illustrations_x2F_sitting-reading">
	<g id="Ink_1_" transform="translate(67.995213, 33.042686)">
		<path id="ink-layer_1_" class="st1" d="M368,858.2c10.7,4.1,21.9,5.7,32.7,9.5c9.6,3.4,18.5,8,28,11.4c0.5-4.4,0.9-11.8-0.8-16
			c-2.3-5.8-8.3-6-14.3-8.1c-14.5-5.1-29.7-6.1-44-12.1C372,847.7,371,854,368,858.2 M552,842.9c-23,0.7-45,6-67.7,9.4
			c-11,1.6-22.1,3-33.1,4.5c-4.2,0.6-12-0.1-15.1,3.6c-2.6,3,0.2,13.5-0.9,17.9c4.6,0.3,12.9-4,17.9-4.7c7.9-1.1,15.6-2.7,23.6-3.2
			c12.6-0.8,24.9-1.4,37.5-2.8c12.8-1.4,25.1-4.1,38-5c6.3-0.5,8.8,0.7,9.2-5.9c0.1-2.6,0.5-6.9-0.2-9.5c1.2-3.1,0.1-4.6-3.1-4.6
			C556,842.3,554,842.4,552,842.9 M507.5,821.8c6.2-0.6,12.5-1.4,18.7-1.8c1.3,0,7.7,0.3,8.7-0.9c1.5-1.6-0.2-7.8-0.4-9.6
			c-0.9-6.4-1.9-10.1-8.9-10.1c-5.9,0-12,1.3-17.9,1.8c-26.7,2.6-53.2,3.7-79.5,8.7c1.6,6.8,3.4,13.9,1.5,20.9
			c12.6,0.7,26.5-1.8,38.9-4.3C481.1,823.9,494.5,822.7,507.5,821.8 M465.3,757.4c-9.5,0-19.6,4.2-29,3.3c-0.1,1.7,2.8,0.3,3.7,1.9
			c1.8,0,2.4,0.6,1.8,1.7c0,0.8-0.4,1.3-1.2,1.4c-0.4,0-0.8,0-1.3,0.1c-1.8,0-2.1,1.3-0.9,3.7c-0.5,3,0.2,6.8,0.4,9.7
			c16.9-2.3,33.3-4.7,50.3-5.7c8-0.5,16.1-0.5,24.1-1.2c8.8-0.7,18.5,0.8,27.1-0.8c4.6-0.9,4.1-0.8,3.8-6.8c-0.2-3.7-0.1-8-3.1-10.6
			c-5-4.4-16.3-1.9-22.1-1.7C501,753,482.9,754.6,465.3,757.4 M475,843.1c25.5-2.3,50.8-7.4,76.5-7.4c-1.8-1.8-5.8-2.3-8-3.3
			c-2.6-1.1-5-3.5-7.5-4.5c-5.1-2-10.2,0.8-15.4,2c-12.5,2.8-25.3,2.9-37.9,5.8c-13,2.9-26.1,5.6-39.3,7c-6.3,0.7-13,2.1-19.2,0.5
			c-0.5-0.3-1-0.7-1.5-1.1c-0.5-2.3-2-2.9-4.5-1.8c-3.1-0.6-7.1,0.2-10.3,0.2c-0.1,1.3,11.5,5.2,13.7,6.2c5.4,2.4,9,4.1,14.7,3.1
			C449.2,847.5,461.9,844.8,475,843.1 M385.2,768.5c1,3.9,5.2,2.1,8.8,2.6c4.8,0.6,9.6,2.2,14.3,3.5c8.5,2.3,17,4.5,25.5,6.9
			c-0.3-3.4,0.4-11.2-1.4-14.2c-1.9-3.2-10.9-4.6-15.1-5.5c-10.6-2.5-21.9-1.1-32.6-0.5C385,763.6,385.1,766,385.2,768.5
			 M486.7,792.8c10-0.9,20.1-1.5,30.1-1.9c11.5-0.4,3.1-2.2,2.9-9.3c-15.1,2.4-30.3,2.9-45.4,4.9c-12.5,1.7-27.4,6.2-40,3.8
			c-6-1.1-12.1-1.5-18.5-2.2c-6-0.6-11.7-3.4-17.7-4.1c-6.7-0.8-13.5,3-20.2,4c-2.8,0.4-3.5,2.3-4.8-1.1c-1.4-3.5,2.6-6.4,4.1-8.5
			c1.8-2.5,1.1,1.5,2.1-2.3c0.3-1.1-0.5-3.8-0.6-4.9c-0.3-2.9-1.3-6.1-1.4-9c-0.1-2.7-0.1-6.8,2.7-8.3c1.8-1,3,0.4,4.6,0.1
			c12.1-2.1,26.3-2.3,38.6-0.2c13.3,2.2,24.7-3.6,37.9-6c15.4-2.7,30.9-3.2,46.4-4.3c13.3-1,37.5-6.2,42.5,10.8
			c1.4,4.8,3.5,18-0.3,22.1c-5.1,5.4-16.7,3.7-23.3,5.1c1,2.8,3.9,4.7,2.9,8c9.2,0.4,10.8,9.1,12.2,17.1c1.5,8.3-1.4,11.7,6.6,16
			c11.1,6.1,22.9,12.2,22.7,26.6c-0.1,7.2-0.9,18.2-8.4,21.9c-7.3,3.7-19.1,3-27.2,4.4c-15.5,2.6-31.2,5.6-46.8,7.2
			c-16.6,1.6-33.6,3-50.3,3.8c-9.1,0.4-16.9,1.8-25.7-1.3c-8.6-3-17.1-5.2-26-7.4c-8.8-2.2-35.7-5.2-27.9-20.2
			c1.3-2.4,5.5-4.3,6.2-6.6c1.1-3.7-2.7-6.5-2.5-9.8c0.3-6.1,7.1-6.8,11.9-6.8c-8.1-5.1,2.7-11,2.7-15.4
			c-0.1-7.6-9.6-12.5-10.1-18.9c-1.3-15.5,47.8,0.6,55.3,4c-5.8,8.6-32.8,1.2-40.8-0.1c1.1,2.9,2.1,5.5,2.5,8.4
			c0.2,2.4-0.7,5.2,0.2,7.6c1.3,3.8,1.3,3.1,6,4.1c3.5,0.8,6.9,1.6,10.4,2.5c5.3,1.3,13.7,4.6,19,4.4c4.6-0.1,3.7,1.3,4.5-3.9
			c0.4-2.7-0.3-5.7-0.8-8.4c-1-5.6-2.4-11,2.6-15.1c4.7-3.9,14.7-5.7,20.5-7.1C458.7,793.4,473.5,792.7,486.7,792.8"/>
		<path id="ink-layer_3_" class="st1" d="M895.5,762.9c-6,6.7-11.7,13-18.2,18.9C882,781.6,897.3,771.2,895.5,762.9 M893.1,752
			c-3.3-4-6.6-3.6-10.7-4.8c-3.8-1.1-7.4-3-11.1-4.3c-2.9-1-5.8-2.4-8.8-3.3c-4.1-1.4-4.5,0.1-8.3,3.2
			c-13.5,10.9-28.6,18.3-42.8,27.2c4.2,5.2,13.6,5.4,18.8,7c3.8,1.2,7.4,2.8,11.1,4.8c3.4,1.8,8.9,5.9,12.4,6c3,0.1,5.5-4.1,8.1-6.4
			c3.4-3,6.8-5.9,10.3-8.8C879.4,766.5,886.2,759,893.1,752 M832.1,796c-1.5-2.1-6.3-2-8.2-2.7c-3.9-1.3-7.7-2.6-11.5-3.5
			c-6.3-1.5-16.4-2.2-17-13.8c-0.6-9.6,7.7-11.9,12.5-15.2c7.2-4.9,14.7-9.5,22.1-13.7c7-4.1,14-7.5,21.2-11
			c1.4-0.7,2.5-0.6,3.6-2.2c0.9-1.3,0.6-3.6,1.6-4.9c2.2-2.9,5.2-1.4,7.8-0.6c6.1,1.7,12.4,4,18.3,7.2c6.1,3.3,11.5,4,12.9,13.7
			c3.1-2,5.4-2.4,5.1,3.7c-0.1,1.8-1,3.7-1.3,5.5c-0.3,2.7,0.2,5.5-0.1,8.2c-1.2,9.8-10.5,17.1-16.4,20.9
			c-7.1,4.7-16.4,11.8-24.4,12.7C849.8,801.1,840.6,796.5,832.1,796"/>
		<path id="ink-layer_2_" class="st1" d="M549.5,695.4c-13.9-2.3-28.1-2.9-42.2-2.2c0.8,3.5,1.5,7,2.3,10.5
			C522.8,700.2,536.2,698.2,549.5,695.4L549.5,695.4z M436.2,722.4c-5.6-0.4-1.7,2.1-0.3,5.7c1.7,4.5,1.4,10.2,1.7,14.9
			c16.4-6.2,35.4-9.9,52.8-12c8.2-1,16.6-1.3,24.9-1.7c2.5-0.1,11.3,0.9,13.1-0.8c1.4-1.2,0.4-8-0.9-9.5c-6.9-8.1-33.9-1.1-43.6-0.4
			C467.9,720,452.2,722.8,436.2,722.4L436.2,722.4z M459.4,700.7c14.5,1.4,28.5,1.3,42.9,3.4c-1.1-9.2,0.2-11.6-10.2-12.1
			c-9.3-0.4-18.6-0.8-27.8-0.8c-20.8,0-41.6-0.4-62.5-0.4v9.4C421.1,698.3,440.1,701.8,459.4,700.7L459.4,700.7z M389.8,735.1
			c9.1,0,17.8,3.4,26.9,4.3c5.5,0.5,3.8,1.2,7.5,4c5.9,4.3,7.6,2,6.8-3.8c-2.5-19.7-27.4-15.2-41.8-16.4c1,4.7-1.2,8.7-4.4,11.9
			H389.8L389.8,735.1z M488.6,709.8c-13.1,0.2-26.3,1-39.4,0.7c-5.8-0.1-13.4-1.3-19.2-0.3c-4.2,0.7-7.7,2.8-12.3,3.7
			c6.8,3.6,10.2,1.2,17.3,0.3c7.1-0.8,14.3-0.8,21.4-1.3c11.7-0.7,24.2-3.5,35.7-2.7C492.4,708.6,491.2,708.5,488.6,709.8
			L488.6,709.8z M384.3,752.4c-6,0,2.3-6.8,3.4-7.6c-6.7,0-8.3-4-6.4-10.4c1.8-6.1,3.2-4.2-1.4-9.3c-3.5-3.8-4-6.6,0.1-10.9
			s12.5-3.1,16.2-6.7c6.3-6.1-1.8-18.2,6.8-22.8c5.8-3.1,15.3-2.7,21.8-3.4c6.2-0.6,12.7-0.8,19-0.9c13.7-0.2,27.9,2.1,41.6,3.4
			c5,0.5,10.6,2.5,15.5,2.5c5,0,10.2-1.1,15.4-1c6,0.1,11.8-0.3,17.9,0.7c4.7,0.8,15.8,1.2,19.4,4.7c12.1,11.7-16.5,17.1-21.5,18.4
			c5,5.5,4.8,12.7,4.1,19.7c2.4,0,6.5-1.1,7.7,1.6c1.5,3.3-4.1,4.2-5.5,4.6c-7.7,2.2-16.7,1.6-24.7,2.4c-15.9,1.6-31.6,2.6-47.4,5.5
			c-7.7,1.4-15.3,3.3-23,4.7c-1.3,0.2-2.7,0.4-4,0.6c-2.1-0.2-2.7,1.1-2,3.9c-2.1,1.1-10.1-1.5-12.5-1.9
			C410.8,748.1,398.2,749,384.3,752.4L384.3,752.4z"/>
		<path id="ink-layer_18_" class="st1" d="M305.4,787.8c1.2,0,2.3-0.1,3.4-0.1C307.7,787.7,306.6,787.8,305.4,787.8"/>
		<path id="ink-layer_24_" class="st1" d="M279.1,790.1c1.2,0,2.3,0,3.4,0C281.4,790,280.3,790,279.1,790.1"/>
		<path id="ink-layer_30_" class="st1" d="M264.3,920.6c1.2,0,2.3,0,3.4,0.1C266.7,920.7,265.5,920.7,264.3,920.6"/>
		<path id="ink-layer_31_" class="st1" d="M314.6,830.1c0.8,0,1.5,0,2.3,0C316.1,830,315.3,830,314.6,830.1"/>
		<path id="ink-layer_32_" class="st1" d="M286,833.5c0.8,0,1.5,0,2.3,0C287.5,833.5,286.7,833.5,286,833.5"/>
		<path id="ink-layer_34_" class="st1" d="M308.8,840c-1,1-2.3,0.4-3.4,0.5C306.6,840.4,307.7,840.2,308.8,840"/>
		<path id="ink-layer_36_" class="st1" d="M272.3,842.6c-1.5,0-3,0-4.6,0C269.2,842.6,270.7,842.6,272.3,842.6"/>
		<path id="ink-layer_40_" class="st1" d="M279.1,793.3c-1.5,0.1-3,0.2-4.6,0.4C276.1,793.6,277.6,793.4,279.1,793.3"/>
		<path id="ink-layer_47_" class="st1" d="M230,935.2c0.8,0,1.5,0,2.3,0C231.5,935.1,230.7,935.2,230,935.2"/>
		<path id="ink-layer_106_" class="st1" d="M337.4,911.4c2.7-0.1,5.4-0.3,8-0.4C342.7,911.1,340.1,911.3,337.4,911.4"/>
		<path id="ink-layer_107_" class="st1" d="M337.4,891.7c-1.5,0-3,0-4.6,0.1C334.3,891.8,335.9,891.7,337.4,891.7"/>
		<path id="ink-layer_108_" class="st1" d="M314.6,869.1c1.9-0.1,3.8-0.3,5.7-0.4C318.5,869.7,316.4,868.9,314.6,869.1"/>
		<path id="ink-layer_109_" class="st1" d="M292.8,871.4c1.9-0.1,3.8-0.3,5.7-0.4C296.6,871.1,294.7,871.3,292.8,871.4"/>
		<path id="ink-layer_110_" class="st1" d="M260.8,891.9c1.5-0.1,3-0.2,4.6-0.3C263.9,891.7,262.4,891.8,260.8,891.9"/>
		<path id="ink-layer_111_" class="st1" d="M268.8,891.9c1.5-0.1,3-0.2,4.6-0.4C271.9,891.7,270.4,891.8,268.8,891.9"/>
		<path id="ink-layer_112_" class="st1" d="M274.5,890.8c1.5-0.1,3-0.3,4.6-0.4C277.6,890.5,276.1,890.7,274.5,890.8"/>
		<path id="ink-layer_113_" class="st1" d="M282.5,851.7c-1.2,0-2.3,0-3.4,0C280.3,851.7,281.4,851.7,282.5,851.7"/>
		<path id="ink-layer_114_" class="st1" d="M311.1,914.7c1.5-0.1,3-0.2,4.6-0.4C314.3,915.3,312.6,914.7,311.1,914.7"/>
		<path id="ink-layer_115_" class="st1" d="M267.7,823.4c1.5-0.1,3-0.3,4.6-0.4C270.7,823.1,269.2,823.3,267.7,823.4"/>
		<path id="ink-layer_116_" class="st1" d="M262,804.9c-1.2,0-2.3,0-3.4,0C259.7,804.9,260.8,804.9,262,804.9"/>
		<path id="ink-layer_117_" class="st1" d="M250.6,807.2c-0.8,0-1.5,0-2.3,0C249.1,807.2,249.8,807.2,250.6,807.2"/>
		<path id="ink-layer_120_" class="st1" d="M325.9,820.7c1.2,0,2.3,0,3.4,0C328.3,821.5,327.1,821.3,325.9,820.7"/>
		<path id="ink-layer_121_" class="st1" d="M282.5,803.7c-0.8,0-1.5,0-2.3,0C281,803.8,281.8,803.7,282.5,803.7"/>
		<path id="ink-layer_122_" class="st1" d="M252.8,876c1.5-0.1,3-0.3,4.6-0.4C255.9,875.7,254.4,875.8,252.8,876"/>
		<path id="ink-layer_123_" class="st1" d="M234.5,878.2l4.6-0.4L234.5,878.2z"/>
		<path id="ink-layer_124_" class="st1" d="M323.7,912.5c1.5-0.1,3-0.3,4.6-0.4C326.7,912.2,325.2,912.4,323.7,912.5"/>
		<path id="ink-layer_125_" class="st1" d="M268.8,919.4c1.5-0.6,3-0.8,4.6,0C271.9,919.4,270.4,919.4,268.8,919.4"/>
		<path id="ink-layer_126_" class="st1" d="M266.4,761.9l-2.2-0.7c2.7,0,5.4,0,8-0.1C272.3,761.1,266.7,761.9,266.4,761.9"/>
		<path id="ink-layer_127_" class="st1" d="M246,742.1c-1.9,0-3.8,0-5.7,0C242.2,742.1,244.1,742.1,246,742.1"/>
		<path id="ink-layer_129_" class="st1" d="M289.4,767.2c-1.2,0-2.3,0-3.4,0C287.1,767.2,288.3,767.2,289.4,767.2"/>
		<path id="ink-layer_130_" class="st1" d="M265.4,752.2c1.9,0.1,3.8,0.2,5.7,0.4C269.2,752.4,267.3,752.3,265.4,752.2"/>
		<path id="ink-layer_131_" class="st1" d="M241.4,764c1.9-0.1,3.8-0.3,5.7-0.4C245.2,763.7,243.3,763.9,241.4,764"/>
		<path id="ink-layer_132_" class="st1" d="M256.2,761.7c1.5-0.1,3-0.2,4.6-0.4C259.3,761.4,257.8,761.5,256.2,761.7"/>
		<path id="ink-layer_133_" class="st1" d="M243.7,751c1.5,0.1,3,0.2,4.6,0.4C246.7,751.3,245.2,751.2,243.7,751"/>
		<path id="ink-layer_135_" class="st1" d="M246,761.5c-0.8,0-1.5-0.1-2.3-0.1C244.5,761.5,245.2,761.5,246,761.5"/>
		<path id="ink-layer_136_" class="st1" d="M231.1,761.5c-0.8,0-1.5,0-2.3,0C229.6,761.5,230.4,761.5,231.1,761.5"/>
		<path id="ink-layer_137_" class="st1" d="M272.3,760.5c0,0.3,3.4-1.2,3.4,0.2L272.3,760.5z"/>
		<path id="ink-layer_138_" class="st1" d="M259.7,742.1c-0.8,0-1.5,0-2.3,0C258.2,742.1,258.9,742.1,259.7,742.1"/>
		<path id="ink-layer_150_" class="st1" d="M294.3,877.5c-5.3-0.3-12.6-1.7-4.7-5.5c5.1-2.4,12.6-2.5,17.9-1.5
			c3.7,0.7,9.2,3.7,3.6,7.7C307.8,880.4,298.3,877.6,294.3,877.5"/>
		<path id="ink-layer_151_" class="st1" d="M379.7,941.5c-1.5-0.2-3-0.3-4.6-0.5C376.3,938.7,379.9,938.3,379.7,941.5"/>
		<path id="ink-layer_152_" class="st1" d="M295.2,877.2c1.5,0,3,0,4.6,0.1C298.3,877.3,296.8,877.3,295.2,877.2"/>
	</g>
</g>
<g id="Character_x2F_zombieing">
	<g id="Ink_2_" transform="translate(160.999594, 54.000301)">
		<path id="Fill-7_1_" class="st1" d="M743.7,82c0.3-0.5,0.6-1.1,1-1.6C745.1,81.3,745.2,81.7,743.7,82 M744.2,84.5
			c-0.7,0.1-0.4-1.5-0.4-1.8C745,83.2,744,83.8,744.2,84.5 M743.1,79.9c0.6-0.3,1.2-0.5,1.8-0.8c-0.8,1.1-0.5,0.4-0.2,1.2
			C744.1,80.4,743.5,80.3,743.1,79.9 M739.5,88.6c-2.3,5.9-9.4,10.5-16.9,12.9c-4.3,1.4-8.6,1.7-13.3,1.6c-1.8-0.1-3.9-0.5-5.7-0.4
			c-1.3,0.1-1.3,0.1-2.4,0.9c-0.5-0.6-0.1-1.1-1.1-1.5c-1.2-0.5-1.7,0.1-2.3,0.7c-0.8-0.6-1.1-0.9-2.2-1.3c0,0-1,0-0.9,0
			c-0.2,0-1.3-0.6-1.6-0.6c-1.4-0.4-3.1-0.5-4.4-1.1c-1.2-0.5-2.1-1.8-3.4-0.8c0-1.7-3.3-2.5-4.8-3.4c-2.4-1.4-4.3-3.5-5.5-5.5
			c-1.3-2.2-1.7-4.2-2.3-6.5c-0.4-1.6-3.1-3.8-1.5-5.4c0.4,0.7,0.2,1.3,0.9,1.9c0.6-0.8,0.9-1.7,1.2-2.6c0.1-0.4,0.9-1.7,0.8-2.1
			c-0.2-0.8-1.5-0.8-0.8-1.7c1.5,1.2,2.8-0.9,1.6-1.7c-0.6,0.5-0.8,1-1,1.5c-1.5-2.2,2.6-1.5,1.7-3.4c1.5-0.2,2.4-0.5,3-1.6
			c0.6-1.2,0.2-1.5,1.6-2.2c0.5-0.3,1.9-0.7,2.2-1.1c0.5-0.9-0.8-1.1,0.3-1.9c0.4,0.5,1.8,1.4,2.6,0.5c0.2-0.2-0.5-0.3,0-0.7
			c0.7-0.6,1.5-1.2,2.8-1.1c-1-1.7,5.3-1.9,6.8-2.3c1.6-0.4,3-0.7,4.6-0.8c1.7-0.1,1.8-0.5,3.2-1.2c0.1,1,0.5,0.8,1.5,1
			c0.2-0.3,0.5-0.3,0.8-0.1s0.6,0.3,1,0.3c0.6,0,1.2,0,1.8,0c1.4,0,2.8-0.1,4.2,0c0.4,0,0.7-0.1,1-0.3c0.1,0.2,0.3,0.3,0.4,0.5
			c0.7,0.1,0.8,0.7,1.7,0c0.3,0.9,1,0.4,1.8,0.7c0.7,0.2,0.8,0.6,1.5,0.8c0.4,0.3,0.9,0.3,1.4,0.1c0.5,0.3,1,0.5,1.5,0.8
			c0.9,0.4,2,0.6,3,0.9c0.6,0.2,1.3,0.4,1.9,0.6c0,0.6,0.4,0.7,1,0.6c0.6,0.4,0.8,0.3,1.4,1c1.3,1.4,2.5,2.5,4.2,3.7
			C740,73.7,742.3,81.4,739.5,88.6 M741.8,65.5c-3.3-3.2-8-6.8-12.1-8.8c-2.1-1-5.1-2.8-7.7-3.4c-0.6-0.1-1.3-0.1-1.9-0.3
			c-0.5-0.1-0.7-0.4-1.3-0.5c-0.4,0-0.4,0.6-0.8,0.5c-0.8-0.1-1.4-0.7-1.9-1.1c-1.3,1.6-1.9-1.1-3.8,0.7c-2.2-2.5-7.3-1.9-10.9-1.8
			c-1,0-1.5,0.3-2.4,0.5s-0.9,0.1-1.9,0.1c-2.3,0-4.4,0.2-6.6,0.9c-3.6,1.2-6.9,3.2-10.4,4.6c-3.8,1.7-7.3,3.8-10.3,6.2
			c-10.6,8.8-13.5,21.6-5,31.8c13.5,16.2,48.2,17.9,67.9,6.9C748,93.5,753.8,77,741.8,65.5"/>
		<path id="Fill-11_1_" class="st1" d="M770.5,110c-3.1-0.8-8.3-0.6-9.1,2.3c-0.3,1.2,0.3,2.5,1.5,3.4c1.3,1,3.5,1.1,3.4-0.7
			c-0.1-1.2-1.7-2.3,1.2-2.5c1.8-0.2,4.4,0.8,4.5,2.2c0.2,3.2-7.5,3.4-10.3,2.9c-5.6-1.1-4.1-5.3-0.2-7.2c1-0.5,3.8-1.3,4-2.3
			c0.2-1.4-2.2-1.1-3.3-0.9c-8.5,1.3-10.3,11.5-1.5,13.4c4,0.9,9.7,0,12.1-2.6C774.9,115.4,774.9,111.1,770.5,110"/>
		<path id="Fill-13_1_" class="st1" d="M658,37.9c-2.7,0.9-5.3,1.8-8,2.7c-0.9-1.3-2.4-5-4.6-5.5c-3.6-0.8-1.3,3.2-0.7,4.2
			c0.5,0.8,1.7,1.9,1.4,2.8c-0.4,1.2-2.8,1.6-4,2.3c-3.1,1.5-3.1,4.8,1.4,3.4c2.5-0.8,5.6-2.9,7.6-0.5c0.9,1.1,3,7.4,5.2,3.3
			c1.4-2.6-5.2-5.2-2-7.4c1-0.7,2.3-0.8,3.3-1.2C660.2,41.1,658.8,39.3,658,37.9"/>
	</g>
</g>
<g>
	<g>
		<path class="st2" d="M171,804.8l-43.6,15.8l0.3-0.2l0,0l-0.1,0.1l-0.1,0.1l-0.1,0.2c-0.1,0.1-0.3,0.3-0.3,0.4
			c-0.2,0.3-0.4,0.5-0.6,0.8c-0.4,0.6-0.7,1.2-1.1,1.8c-0.6,1.3-1.1,2.6-1.4,3.9c-0.6,2.8-0.5,5.6-0.1,8.5c0.3,1.4,0.6,2.7,1.2,4
			s1.3,2.5,2.2,3.5c0.9,1.1,1.8,2.1,3,3c0.5,0.4,1.2,0.8,1.7,1.2c0.3,0.2,0.6,0.3,1,0.5c0.1,0.1,0.3,0.1,0.4,0.3l0.3,0.1l0.2,0.1
			l0,0l-0.7-0.1L178,843c0.4-0.1,0.9,0.3,1,0.7s-0.3,0.8-0.7,1l-44.6,6.9c-0.3,0.1-0.4,0-0.6-0.1l0,0l0,0c-0.1-0.1-0.2-0.1-0.3-0.1
			l-0.3-0.1c-0.2-0.1-0.3-0.2-0.5-0.3c-0.3-0.2-0.7-0.4-1-0.6c-0.7-0.4-1.3-0.9-2-1.4c-1.2-1-2.4-2.2-3.4-3.4
			c-1-1.3-1.8-2.7-2.4-4.1c-0.6-1.5-1.1-3.1-1.3-4.6c-0.5-3.1-0.5-6.3,0.1-9.4c0.3-1.6,0.9-3.1,1.6-4.5c0.3-0.7,0.8-1.4,1.2-2
			c0.3-0.3,0.5-0.6,0.7-1c0.1-0.1,0.3-0.3,0.4-0.5c0.1-0.1,0.1-0.1,0.3-0.3l0.1-0.1l0.1-0.1l0.1-0.1l0,0l0,0
			c0.1-0.1,0.3-0.1,0.3-0.2l43.8-15.2c0.4-0.1,0.8,0.1,1,0.4C171.7,804.2,171.5,804.7,171,804.8z"/>
	</g>
	<g>
		<path class="st2" d="M161.7,847.2c-0.5,0.1-0.9-0.1-1.2-0.3c-0.3-0.3-0.6-0.4-1-0.7c-0.6-0.5-1.2-1-1.8-1.5
			c-1.2-1-2.2-2.2-3.2-3.4c-2-2.4-3.6-5.2-4.6-8.2c-0.5-1.5-0.8-3.1-1-4.6l-0.1-1.2c-0.1-0.4,0-0.8-0.1-1.2v-0.6l0.1-0.6
			c0.1-0.4,0.1-0.8,0.1-1.2c0.1-0.8,0.1-1.6,0.3-2.3c0.1-0.4,0.1-0.8,0.3-1.2l0.3-1.2l0.1-0.5c0.1-0.2,0.1-0.3,0.2-0.5l0.4-1.1
			c0.1-0.2,0.1-0.3,0.3-0.5l0.3-0.5c0.1-0.3,0.3-0.7,0.5-1c0.1-0.2,0.3-0.3,0.5-0.1c0.1,0.1,0.3,0.3,0.2,0.4l0,0
			c-0.1,0.3-0.2,0.7-0.3,1.1l-0.1,0.5c-0.1,0.2-0.1,0.3-0.1,0.5l-0.3,1.1l-0.1,0.5l-0.1,0.5l-0.3,1.1c-0.1,0.3-0.1,0.7-0.2,1.1
			c-0.1,0.7-0.1,1.5-0.3,2.2c0,0.3,0,0.7-0.1,1.1v0.5l0.1,0.5c0,0.3,0.1,0.7,0.1,1.1l0.1,1.1c0.3,1.4,0.6,2.9,1.1,4.2
			c1,2.7,2.5,5.2,4.4,7.4c1,1.2,2,2.2,3.1,3.1c0.5,0.5,1.2,1,1.6,1.4c0.3,0.3,0.6,0.4,0.9,0.6c0.3,0.2,0.6,0.4,0.7,1l0.1,0.1
			C162.5,846.7,162.2,847.2,161.7,847.2L161.7,847.2z"/>
	</g>
	<g>
		<path class="st2" d="M136.6,820.3c-0.1,0.7-0.3,1.4-0.4,2c-0.1,0.7-0.3,1.3-0.3,2c-0.2,1.3-0.4,2.7-0.4,4c-0.1,1.3,0.1,2.7,0.3,4
			s0.5,2.6,1,3.9c0.5,1.2,1.1,2.4,1.8,3.5s1.6,2.1,2.5,3.1c1,1,2,1.7,3.1,2.5l0.8,0.5c0.3,0.2,0.6,0.3,0.9,0.5l0.4,0.3l0.4,0.3
			l1,0.4h0.1c0.5,0.3,0.8,1,0.5,1.5s-0.9,0.7-1.4,0.5c-1.3-0.6-2.7-1.2-3.9-2s-2.4-1.7-3.5-2.7c-2.1-2-3.8-4.6-4.8-7.4
			c-0.5-1.4-0.8-2.9-1-4.3c-0.2-1.5-0.2-2.9-0.1-4.4c0.1-0.7,0.1-1.5,0.3-2.2c0.1-0.7,0.3-1.4,0.4-2.2c0.4-1.4,1-2.7,1.7-4
			c0.1-0.2,0.4-0.3,0.6-0.1C136.5,819.9,136.7,820.1,136.6,820.3L136.6,820.3z"/>
	</g>
	<g>
		<path class="st2" d="M171.4,805.4L171.4,805.4C171.3,805.4,171.3,805.4,171.4,805.4L171.4,805.4h-0.1c-0.1,0-0.1,0.1-0.1,0.1
			l-0.1,0.1l-0.1,0.1c-0.1,0.1-0.1,0.1-0.2,0.1c-0.3,0.3-0.5,0.5-0.8,0.9c-0.5,0.7-1,1.5-1.3,2.2c-0.7,1.6-1.2,3.4-1.6,5.2
			c-0.3,1.8-0.5,3.6-0.4,5.4c0,0.9,0.1,1.8,0.2,2.7c0.1,0.9,0.3,1.8,0.5,2.7c0.8,3.5,2.1,7.1,3.9,10.2c0.9,1.6,1.9,3.1,3.1,4.4
			c0.6,0.6,1.2,1.3,1.8,1.7c0.3,0.3,0.6,0.4,1,0.6c0.3,0.1,0.6,0.3,0.9,0.3c0.1,0,0.1,0,0.1,0h0.1h0.1c0.1,0,0.1-0.1,0.1-0.1
			l0.1-0.1c0.2-0.1,0.4-0.4,0.7-0.7c0.4-0.6,0.8-1.4,1.2-2.2c0.6-1.6,1-3.4,1.3-5.2c0.1-0.9,0.3-1.8,0.3-2.7c0.1-1,0.1-1.8,0.1-2.7
			c0-1.8-0.1-3.7-0.5-5.4c-0.6-3.5-1.8-7.1-3.5-10.3c-0.9-1.6-1.8-3.1-3-4.5c-0.6-0.7-1.2-1.3-1.8-1.8c-0.3-0.3-0.7-0.5-1-0.7
			C171.9,805.5,171.5,805.4,171.4,805.4z M171.3,803.2c0.4,0,0.8,0.1,1.1,0.1c0.1,0.1,0.3,0.1,0.4,0.1c0.1,0.1,0.3,0.1,0.4,0.2
			c0.5,0.3,1,0.6,1.4,0.9c0.8,0.6,1.5,1.4,2.2,2.2c1.3,1.5,2.4,3.1,3.3,4.8c1.8,3.4,3.3,7.1,4,10.9c0.3,1.9,0.5,3.9,0.6,5.8
			c0.1,2-0.1,3.9-0.3,5.8c-0.1,1-0.3,2-0.5,2.9c-0.3,1-0.5,1.9-0.9,2.9s-0.8,1.9-1.5,2.9c-0.3,0.4-0.8,1-1.4,1.3
			c-0.1,0.1-0.3,0.2-0.5,0.3s-0.3,0.1-0.5,0.2c-0.1,0-0.2,0.1-0.3,0.1s-0.2,0.1-0.3,0.1c-0.2,0-0.4,0.1-0.5,0
			c-0.7-0.1-1.3-0.3-1.8-0.5c-0.5-0.3-1-0.5-1.4-0.9c-0.9-0.6-1.6-1.4-2.2-2.1c-1.3-1.5-2.4-3.2-3.4-4.9c-1.8-3.4-3.2-7.1-3.9-10.9
			c-0.2-1-0.3-2-0.4-2.9c-0.1-1-0.1-2-0.1-2.9c0-2,0.2-3.9,0.6-5.8c0.4-1.9,1-3.8,1.8-5.6c0.4-1,0.9-1.8,1.5-2.7
			c0.3-0.4,0.7-0.8,1.1-1.2c0.1-0.1,0.2-0.2,0.3-0.3l0.2-0.1c0.1-0.1,0.1-0.1,0.2-0.1c0.1-0.1,0.1-0.1,0.3-0.1
			c0.1-0.1,0.2-0.1,0.3-0.1l0.1-0.1c0.1,0,0.1,0,0.1-0.1C171,803.3,171.1,803.3,171.3,803.2z"/>
	</g>
	<g>
		<path class="st2" d="M68.7,775.9l44.1-9.4l-0.6,0.3l0,0l0.1-0.1l0.1-0.2c0.1-0.1,0.2-0.3,0.3-0.4c0.2-0.3,0.3-0.5,0.5-0.8
			c0.3-0.5,0.6-1.1,1-1.6c0.5-1.2,1-2.3,1.3-3.5s0.5-2.5,0.6-3.7c0.1-1.3,0.1-2.5-0.1-3.8c-0.3-2.5-1-5-2.4-7.1
			c-0.6-1.1-1.4-2-2.4-3c-0.4-0.4-1-0.9-1.4-1.3c-0.3-0.2-0.5-0.4-0.7-0.6c-0.1-0.1-0.3-0.2-0.4-0.3l-0.2-0.1l-0.1-0.1l0,0l0.4,0.1
			c-3.5-0.1-6.9-0.2-10.3-0.3l-5.2-0.2l-5.2-0.2l-5.2-0.2l-5.2-0.3c-1.7-0.1-3.5-0.2-5.2-0.3c-0.9-0.1-1.7-0.1-2.6-0.1
			c-0.9-0.1-1.7-0.1-2.6-0.2c-0.3-0.1-0.6-0.3-0.6-0.7c0.1-0.3,0.3-0.6,0.6-0.6c0.9,0,1.7,0,2.6,0s1.7,0,2.6,0
			c1.7,0,3.5,0.1,5.2,0.1l5.2,0.1l5.2,0.1l5.2,0.1l5.2,0.2c3.5,0.1,6.9,0.3,10.3,0.4l0,0c0.1,0,0.3,0.1,0.4,0.1l0,0
			c0.1,0.1,0.2,0.1,0.3,0.1l0.3,0.1c0.1,0.1,0.3,0.2,0.5,0.3c0.3,0.2,0.6,0.4,0.9,0.6c0.6,0.4,1.2,0.9,1.6,1.4c1.1,1,2,2,2.9,3.3
			c0.2,0.3,0.4,0.6,0.6,1c0.2,0.3,0.3,0.6,0.5,1c0.3,0.6,0.6,1.3,0.9,2c0.5,1.4,0.8,2.8,1,4.3c0.1,1.4,0.2,2.9,0.1,4.3
			c-0.1,1.4-0.3,2.9-0.7,4.3c-0.4,1.4-1,2.7-1.6,4c-0.3,0.6-0.7,1.3-1.2,1.8c-0.2,0.3-0.4,0.6-0.6,0.9c-0.1,0.1-0.3,0.3-0.3,0.4
			l-0.2,0.2l-0.1,0.1l-0.1,0.1l0,0c-0.1,0.2-0.4,0.3-0.6,0.3l0,0l-43.8,9.9c-0.7,0.1-1.4-0.3-1.6-1C67.5,776.8,68,776,68.7,775.9
			L68.7,775.9z"/>
	</g>
	<g>
		<path class="st2" d="M87.2,772.8c-0.1-0.5,0-0.8,0.2-1.1c0.1-0.3,0.3-0.6,0.5-0.9c0.3-0.6,0.6-1.2,0.8-1.8
			c0.5-1.3,0.9-2.5,1.2-3.9c0.6-2.7,0.8-5.4,0.7-8.1c-0.1-2.7-0.6-5.4-1.6-8c-0.5-1.3-1.1-2.5-1.8-3.7c-0.7-1.2-1.5-2.3-2.4-3.4l0,0
			c-0.1-0.1-0.1-0.4,0.1-0.5c0.1-0.1,0.3-0.1,0.4,0c1.2,0.9,2.2,2,3,3.2s1.5,2.5,2.1,3.9c1.2,2.7,1.8,5.6,2,8.4
			c0.1,1.5,0.1,2.9,0.1,4.3c-0.1,1.5-0.3,2.9-0.6,4.3c-0.3,1.4-0.7,2.9-1.3,4.2c-0.3,0.7-0.6,1.4-0.9,2c-0.1,0.3-0.3,0.6-0.5,1
			c-0.1,0.1-0.2,0.3-0.3,0.4c-0.1,0.1-0.3,0.3-0.6,0.3C87.8,773.6,87.3,773.2,87.2,772.8L87.2,772.8z"/>
	</g>
	<g>
		<path class="st2" d="M97.7,739.1c0.6,0.3,1.3,0.7,1.8,1.2c0.1,0.1,0.3,0.2,0.4,0.3l0.4,0.3c0.3,0.3,0.5,0.5,0.8,0.8
			c1.1,1,2,2.2,2.7,3.5c1.5,2.5,2.5,5.4,2.9,8.4s0.3,6-0.4,9c-0.7,2.9-2,5.7-3.6,8.2c-0.3,0.5-1,0.6-1.5,0.3s-0.6-1-0.3-1.5l0,0
			c0.7-1.2,1.4-2.4,2-3.6c0.1-0.3,0.3-0.6,0.4-1l0.3-1l0.3-1c0.1-0.3,0.2-0.7,0.3-1c0.6-2.7,0.8-5.4,0.5-8.2
			c-0.3-2.7-1.1-5.4-2.4-7.9c-1.3-2.4-3-4.7-5.3-6.3l0,0c-0.1-0.1-0.2-0.3-0.1-0.5C97.3,739.1,97.5,739.1,97.7,739.1z"/>
	</g>
	<g>
		<path class="st2" d="M68.6,775.6L68.6,775.6c0,0,0.1-0.1,0.2-0.1c0.3-0.1,0.5-0.4,0.7-0.7c0.5-0.6,0.9-1.3,1.3-2
			c0.7-1.5,1.3-3.1,1.8-4.8c0.4-1.6,0.8-3.4,1-5.1c0.1-0.9,0.1-1.7,0.1-2.6c0-0.9,0-1.7-0.1-2.6c-0.1-1.8-0.3-3.5-0.6-5.2
			c-0.3-1.7-0.7-3.4-1.2-5.2c-0.5-1.6-1.1-3.3-1.8-4.8c-0.4-0.7-0.8-1.5-1.3-2.1c-0.3-0.3-0.5-0.6-0.8-0.8s-0.5-0.3-0.7-0.4
			c-0.1,0-0.1,0-0.1,0H67h-0.1c-0.1,0-0.2,0.1-0.3,0.1c-0.3,0.1-0.5,0.4-0.7,0.7c-0.4,0.6-0.8,1.4-1.2,2.2c-0.6,1.6-1.1,3.3-1.4,5
			c-0.3,1.7-0.6,3.5-0.7,5.2c-0.1,1.8-0.2,3.5-0.1,5.2c0.1,3.5,0.8,6.9,1.8,10.2c0.5,1.6,1.2,3.3,2,4.8c0.4,0.7,0.8,1.4,1.3,2
			c0.3,0.3,0.5,0.5,0.7,0.7C68.4,775.4,68.5,775.4,68.6,775.6C68.6,775.6,68.7,775.6,68.6,775.6z M68.5,778.5
			c-0.5-0.1-0.9-0.1-1.2-0.3c-0.3-0.1-0.6-0.3-0.8-0.5c-0.5-0.4-0.8-0.8-1.2-1.2c-0.6-0.8-1.2-1.6-1.6-2.5c-0.9-1.7-1.5-3.5-2-5.3
			s-0.9-3.6-1.2-5.4c-0.3-1.8-0.4-3.7-0.4-5.5c0-3.7,0.3-7.3,1.2-10.9c0.4-1.8,0.9-3.5,1.6-5.3c0.4-0.9,0.8-1.8,1.4-2.6
			c0.3-0.4,0.7-0.8,1.2-1.2c0.3-0.2,0.6-0.3,1-0.4c0.1,0,0.2-0.1,0.3-0.1s0.2,0,0.3,0c0.2,0,0.3,0,0.5,0.1c0.7,0.1,1.2,0.4,1.6,0.8
			c0.4,0.4,0.8,0.7,1.2,1.1c0.6,0.8,1.2,1.6,1.6,2.4c0.9,1.6,1.5,3.4,2.1,5.2c1.1,3.5,1.8,7.1,2.1,10.8c0.1,1,0.1,1.8,0.1,2.8
			s0,1.8-0.1,2.8c-0.1,1.8-0.4,3.7-0.8,5.5s-1,3.6-1.8,5.3c-0.4,0.9-0.9,1.7-1.5,2.5c-0.3,0.4-0.7,0.8-1.2,1.2
			c-0.3,0.2-0.5,0.4-0.9,0.5C69.5,778.4,69,778.5,68.5,778.5z"/>
	</g>
	<path class="st3" d="M117.4,752.3c19.5-0.3,41.9,5,41.2,12.7c-1.2,13.6-48.4,7.8-52.3,19.4c-1,2.9,1.6,5.8,4.2,7.4
		c2.7,1.6,5.6,2.7,8.8,3.3c1.3,0.3,2.7,0.3,4-0.2s2.2-1.8,2-3.2c-0.3-1.5-1.8-2.2-3.3-2.7c-3.1-0.9-6.5-1-9.3,0.6s-4.6,5.2-3.2,8.2
		c0.7,1.6,2.1,2.7,3.5,3.6c4.8,2.9,10.7,3.4,15.9,1.4c1-0.4,2.2-1.1,2.2-2.2c0.1-0.5-0.2-1-0.4-1.4c-1.4-2.4-4-3.9-6.5-5.3
		c-3.4-1.8-6.9-3.5-10.7-4.5c-2.8-0.7-5.8-1.1-8.4,0.1c-2.7,1.2-4.7,4-4,6.8c0.4,1.7,1.7,3.1,3.1,4.2c3.7,3.1,8.8,5.3,13.3,3.7
		c0.9-0.3,1.7-0.8,2.3-1.5c1.7-2,0.6-5.2,1.2-7.7c0.4-2.5,2.4-4.6,4.7-5.6c2.3-1.1,5-1.2,7.4-0.9c3.3,0.4,6.9,2,8,5.2
		c0.7,2.2-0.1,4.8-1.5,6.7c-1.5,1.8-3.5,3.1-5.6,4.1c-6.7,3.3-19.2,4.8-29.3,5.7c-15.6,1.5-28.5,7.2-27.5,14
		c1.5,10.2,28.1,15,46.1,12.5"/>
	<g>
		<path class="st2" d="M56.6,759.4c-1,0.3-2,0.5-2.9,0.6c-1,0.1-2,0.1-2.9,0.1s-2,0-2.9-0.1s-2-0.1-3-0.3c-0.3-0.1-0.4-0.3-0.4-0.5
			c0.1-0.2,0.1-0.3,0.3-0.3c1-0.3,2-0.4,2.9-0.5c1-0.1,2-0.2,2.9-0.3s2-0.1,2.9-0.1c1,0.1,2,0.1,3,0.3c0.3,0.1,0.4,0.3,0.3,0.5
			C56.8,759.3,56.7,759.4,56.6,759.4z"/>
	</g>
	<g>
		<path class="st2" d="M56.4,748.3c-0.8-0.1-1.5-0.3-2.2-0.5c-0.7-0.3-1.4-0.5-2-0.8c-0.7-0.3-1.3-0.6-2-1c-0.6-0.4-1.2-0.8-1.8-1.3
			c-0.3-0.2-0.3-0.6-0.1-0.8c0.1-0.1,0.3-0.2,0.5-0.2c0.8,0.1,1.5,0.3,2.2,0.6s1.4,0.5,2,0.9c0.7,0.3,1.3,0.7,2,1.1
			c0.6,0.4,1.2,0.8,1.8,1.4c0.2,0.2,0.2,0.4,0,0.6C56.6,748.3,56.5,748.4,56.4,748.3z"/>
	</g>
	<g>
		<path class="st2" d="M57.4,770.1c-0.5,0.5-1.1,0.9-1.6,1.3c-0.5,0.4-1.2,0.8-1.7,1.2c-0.6,0.3-1.2,0.7-1.8,1s-1.3,0.6-1.9,0.8
			c-0.3,0.1-0.5-0.1-0.5-0.3c-0.1-0.1,0-0.3,0.1-0.4c0.5-0.5,1-1,1.6-1.4c0.5-0.4,1.2-0.8,1.7-1.2c0.6-0.3,1.2-0.7,1.8-1
			s1.2-0.6,1.9-0.8c0.3-0.1,0.6,0.1,0.7,0.3C57.6,769.8,57.5,770,57.4,770.1z"/>
	</g>
	<g>
		<path class="st2" d="M187.3,820.5c1.1-0.5,2.2-1,3.3-1.2c1.2-0.3,2.2-0.5,3.4-0.7s2.3-0.4,3.5-0.5c0.6-0.1,1.2-0.1,1.8-0.1
			c0.6-0.1,1.2-0.1,1.8-0.1c0.3,0,0.4,0.2,0.4,0.4s-0.1,0.3-0.3,0.4c-0.5,0.3-1.2,0.4-1.6,0.6c-0.5,0.2-1.2,0.3-1.6,0.5
			c-1.2,0.3-2.2,0.6-3.4,0.9c-1.2,0.3-2.3,0.5-3.4,0.6c-1.2,0.1-2.4,0.3-3.5,0.1c-0.3,0-0.4-0.3-0.4-0.5
			C187.1,820.7,187.2,820.5,187.3,820.5z"/>
	</g>
	<g>
		<path class="st2" d="M183.6,809.2c0.3-0.8,0.7-1.4,1.2-2.1c0.4-0.6,1-1.3,1.5-1.8c0.5-0.6,1-1.2,1.6-1.8c0.5-0.6,1.2-1.2,1.8-1.6
			c0.2-0.1,0.4-0.1,0.6,0.1c0.1,0.1,0.1,0.3,0.1,0.5c-0.3,0.7-0.8,1.4-1.2,2.1c-0.4,0.7-0.9,1.3-1.4,2s-1,1.3-1.5,1.8
			c-0.5,0.6-1.2,1.2-1.8,1.6c-0.3,0.2-0.6,0.1-0.8-0.1C183.6,809.5,183.6,809.3,183.6,809.2z"/>
	</g>
	<g>
		<path class="st2" d="M188,832.8c0.8,0,1.6,0.1,2.4,0.2c0.8,0.1,1.5,0.3,2.2,0.5s1.5,0.4,2.2,0.7s1.5,0.5,2.2,1
			c0.3,0.1,0.4,0.5,0.3,0.7c-0.1,0.2-0.3,0.3-0.5,0.3c-0.8-0.1-1.6-0.1-2.4-0.3s-1.5-0.3-2.2-0.5s-1.5-0.4-2.2-0.7s-1.5-0.6-2.2-1
			c-0.2-0.1-0.3-0.4-0.1-0.6C187.6,832.9,187.8,832.8,188,832.8z"/>
	</g>
</g>
</svg>
