<svg width="1440" height="900" xmlns="http://www.w3.org/2000/svg">
  <defs>
    <pattern id="leaf-pattern" x="0" y="0" width="100" height="100" patternUnits="userSpaceOnUse">
      <path d="M50 0 C20 0 0 20 0 50 C0 80 20 100 50 100 C80 100 100 80 100 50 C100 20 80 0 50 0 Z M50 10 C70 10 90 25 90 50 C90 75 70 90 50 90 C30 90 10 75 10 50 C10 25 30 10 50 10 Z" fill="#e8f5e9" opacity="0.5"/>
      <path d="M50 10 Q50 50 90 50" stroke="#c8e6c9" stroke-width="2" fill="none"/>
      <path d="M50 10 Q50 50 10 50" stroke="#c8e6c9" stroke-width="2" fill="none"/>
    </pattern>
  </defs>
  <rect width="1440" height="900" fill="#f1f8e9"/>
  <rect width="1440" height="900" fill="url(#leaf-pattern)"/>
  <circle cx="100" cy="100" r="50" fill="#dcedc8" opacity="0.6"/>
  <circle cx="1300" cy="800" r="80" fill="#dcedc8" opacity="0.6"/>
  <path d="M0 800 Q360 700 720 800 T1440 800 V900 H0 Z" fill="#a5d6a7" opacity="0.3"/>
</svg>
