<svg xmlns="http://www.w3.org/2000/svg" viewBox="0 0 1440 520" preserveAspectRatio="none" role="img" aria-label="Hero background mesh for ecological evaluation page">
  <defs>
    <!-- Single linear background gradient -->
    <linearGradient id="bg" x1="0" y1="0" x2="1" y2="1">
      <stop offset="0%" stop-color="#00DE9F"></stop>
      <stop offset="100%" stop-color="#00A1C2"></stop>
    </linearGradient>

    <!-- Soft glow / blur -->
    <filter id="blur14" x="-30%" y="-30%" width="160%" height="160%">
      <feGaussianBlur stdDeviation="14"></feGaussianBlur>
    </filter>
    <filter id="blur26" x="-40%" y="-40%" width="180%" height="180%">
      <feGaussianBlur stdDeviation="26"></feGaussianBlur>
    </filter>

    <!-- Subtle noise -->
    <filter id="noise" x="0" y="0" width="100%" height="100%">
      <feTurbulence type="fractalNoise" baseFrequency=".75" numOctaves="2" stitchTiles="stitch"></feTurbulence>
      <feColorMatrix type="matrix" values="
        1 0 0 0 0
        0 1 0 0 0
        0 0 1 0 0
        0 0 0 .06 0"></feColorMatrix>
    </filter>

    <!-- Gentle highlight -->
    <radialGradient id="shine" cx="80%" cy="18%" r="60%">
      <stop offset="0%" stop-color="#FFFFFF" stop-opacity=".20"></stop>
      <stop offset="55%" stop-color="#FFFFFF" stop-opacity="0"></stop>
    </radialGradient>

    <!-- Leaf gradient (brand only) -->
    <linearGradient id="leafGrad" x1="0" y1="0" x2="1" y2="1">
      <stop offset="0%" stop-color="#00DE9F" stop-opacity=".55"></stop>
      <stop offset="100%" stop-color="#00A1C2" stop-opacity=".55"></stop>
    </linearGradient>

    <!-- Eco icons -->
    <symbol id="leafIcon" viewBox="0 0 120 120">
      <path d="M96 18C62 18 34 34 22 64c-10 24 4 44 30 44 30 0 54-24 54-54 0-12-4-24-10-36z"></path>
      <path d="M26 92c20-18 40-30 68-40" fill="none" stroke="currentColor" stroke-width="8" stroke-linecap="round"></path>
    </symbol>

    <symbol id="gauge" viewBox="0 0 200 120">
      <path d="M20 100a80 80 0 0 1 160 0" fill="none" stroke="currentColor" stroke-width="14" stroke-linecap="round" opacity=".9"></path>
      <path d="M100 96L146 52" fill="none" stroke="currentColor" stroke-width="10" stroke-linecap="round"></path>
      <circle cx="100" cy="100" r="10" fill="currentColor"></circle>
    </symbol>

    <symbol id="spark" viewBox="0 0 70 70">
      <path d="M35 6v18M35 46v18M6 35h18M46 35h18M14 14l12 12M44 44l12 12M56 14L44 26M26 44L14 56" fill="none" stroke="currentColor" stroke-width="4" stroke-linecap="round" opacity=".9"></path>
    </symbol>
  </defs>

  <!-- Background -->
  <rect width="1440" height="520" fill="url(#bg)"></rect>
  <rect width="1440" height="520" fill="url(#shine)"></rect>
  <rect width="1440" height="520" filter="url(#noise)" opacity=".22"></rect>

  <!-- LEFT 1/5 (eco evaluation visuals) -->
  <g>
    <!-- soft blobs -->
    <circle cx="120" cy="120" r="120" fill="#FFFFFF" opacity=".10" filter="url(#blur26)"></circle>
    <circle cx="210" cy="380" r="150" fill="#FFFFFF" opacity=".08" filter="url(#blur26)"></circle>
    </g></svg>