<?xml version="1.0" encoding="UTF-8"?>
<svg id="Calque_2"
     xmlns="http://www.w3.org/2000/svg"
     xmlns:xlink="http://www.w3.org/1999/xlink"
     viewBox="-15 -15 335.17 335.17">

  <defs>
    <style>
      .cls-1 { fill: url(#Dégradé_sans_nom_538); }
      .cls-2 { fill: #fff; }
    </style>

    <linearGradient id="Dégradé_sans_nom_538"
      x1="5.84" y1="5.84" x2="375.32" y2="375.32"
      gradientUnits="userSpaceOnUse">
      <stop offset=".03" stop-color="#00de9f"/>
      <stop offset=".27" stop-color="#00daa1"/>
      <stop offset=".5" stop-color="#00cea8"/>
      <stop offset=".74" stop-color="#00bab3"/>
      <stop offset=".96" stop-color="#00a1c2"/>
    </linearGradient>
  </defs>

  <g id="textes">

    <!-- 🔁 MIRRORED LEAF ONLY -->
    <g transform="translate(305.17, 0) scale(-1, 1)">
      <path class="cls-1"
        d="M179.59,270.39h-26.27c-65.47,0-118.55-53.08-118.55-118.55V34.78h117.07
           c65.47,0,118.55,53.08,118.55,118.55v88.33l-36.6-36.6v-52.08
           c0-45.06-36.53-81.59-81.59-81.59h-80.82v80.34
           c0,11.02,8.57,20.41,19.58,20.8
           c11.56.41,21.06-8.84,21.06-20.31v-40.18h40.18
           c22.61,0,40.94,18.33,40.94,40.94v60.55
           c0,5.36,2.13,10.49,5.91,14.28l72.73,72.73
           c2.87,2.87,7.17,3.81,10.97,2.37
           c13.1-4.99,22.41-17.66,22.41-32.51v-115.52
           c0-41.43-16.08-81.47-45.55-110.6
           C230.74,15.71,192.5,0,151.85,0H34.78
           C15.57,0,0,15.57,0,34.78v115.52
           c0,41.43,16.08,81.48,45.55,110.6
           c28.89,28.56,67.12,44.27,107.78,44.27h58.03
           c5.04,0,7.56-6.09,4-9.65l-17.61-17.61
           c-4.81-4.81-11.34-7.52-18.15-7.52Z"/>
    </g>

    <!-- LOGO ONLY -->

  </g>
</svg>
