<svg xmlns="http://www.w3.org/2000/svg" viewBox="0 0 73 40"><g fill="none" fill-rule="evenodd"><path fill="#FFF" d="M.56 0h15v39.2h-15z"/><path fill="#00a453" fill-rule="nonzero" d="M54.352.566H15.455v38.572h38.897L72.09 19.855z"/><path fill="#231F20" fill-rule="nonzero" d="M53.978 0H.572A.572.572 0 000 .572v38.566a.574.574 0 00.572.565h53.4a.582.582 0 00.41-.175l17.737-19.316a.55.55 0 00-.008-.77L54.387.188A.562.562 0 0053.978 0zM.572.565h53.394L71.7 19.831 53.97 39.14.572 39.138a.007.007 0 01-.007-.007V.572C.565.57.57.565.572.565z"/><g fill-rule="nonzero"><path fill="#FFF" d="M42.717 28.317c.092.275.16.556.207.842.04.162 0 .335-.11.462a.848.848 0 01-.531.193c-.255 0-.607.034-1.049.034h-1.082c-.201-.003-.4-.033-.593-.09a.49.49 0 01-.283-.179 1.076 1.076 0 01-.138-.31l-1.207-3.855h-6.62l-1.118 3.73a1.131 1.131 0 01-.145.346.586.586 0 01-.282.22c-.18.063-.369.1-.56.11h-.95a8.966 8.966 0 01-.98-.04.69.69 0 01-.49-.214.614.614 0 01-.096-.476c.046-.277.115-.549.207-.814l5.434-16.917a1.38 1.38 0 01.193-.407.62.62 0 01.345-.235c.224-.067.456-.102.69-.103h2.393c.251.003.501.038.745.103a.641.641 0 01.379.242c.092.134.16.283.2.441l5.441 16.917zm-8.09-13.986l-2.51 8.103h5l-2.49-8.103z"/><path fill="#000" d="M35.956 10.37c.27.005.538.043.792.111a.949.949 0 01.527.343c.082.119.147.248.193.377l.039.13 5.427 16.9c.095.288.167.582.212.86a.778.778 0 01-.194.716c-.194.16-.437.248-.656.248l-.141.016-.156.01-.313.008-1.559.002a2.437 2.437 0 01-.643-.095.747.747 0 01-.435-.282c-.055-.08-.1-.165-.132-.25l-1.171-3.787h-6.25l-1.105 3.687-.06.14-.076.14a.84.84 0 01-.408.316c-.153.053-.312.09-.478.11l-.169.014h-.942a9.156 9.156 0 01-.665-.015l-.32-.026a.95.95 0 01-.692-.321.857.857 0 01-.138-.659c.032-.196.075-.39.128-.581l.088-.283 5.425-16.902c.049-.172.126-.334.237-.493a.94.94 0 01.47-.32c.184-.055.374-.09.566-.105l.193-.008h2.406zm-.004.5h-2.399c-.21.002-.418.033-.62.094a.434.434 0 00-.21.137c-.047.068-.087.14-.119.219l-.042.122-5.429 16.915c-.087.256-.153.52-.199.798-.02.098 0 .2.033.252a.457.457 0 00.333.137c.211.02.423.034.635.039l1.252.002c.17-.01.337-.042.492-.096a.331.331 0 00.156-.116.975.975 0 00.087-.183l1.202-4.012h6.991l1.246 4.027c.019.08.053.157.092.215a.257.257 0 00.155.092c.114.033.231.056.348.069l.175.01 1.565-.002.322-.01.164-.013.078-.01a.613.613 0 00.344-.105.28.28 0 00.053-.259 5.303 5.303 0 00-.118-.54l-.08-.265-5.432-16.919a1.125 1.125 0 00-.154-.347.445.445 0 00-.248-.155 2.793 2.793 0 00-.448-.082l-.225-.013zm-4.173 11.821l2.834-9.209 2.843 9.21h-5.677zm2.835-7.512l-2.158 7.012h4.322l-2.164-7.012z"/></g><g fill="#231C1E" fill-rule="nonzero"><path d="M12.097 28.497v.365a1.434 1.434 0 01-.049.248.331.331 0 01-.076.131.166.166 0 01-.11.035.62.62 0 01-.283-.131 4.241 4.241 0 00-.524-.29 5.517 5.517 0 00-.78-.283 3.731 3.731 0 00-1.054-.138c-.4-.004-.795.079-1.159.242a2.441 2.441 0 00-.883.69 3.007 3.007 0 00-.565 1.048 4.455 4.455 0 00-.2 1.38c-.007.487.06.973.2 1.44.117.384.31.74.565 1.049.237.274.534.49.87.627.353.147.733.22 1.117.214.2.001.398-.022.593-.069.191-.046.375-.12.544-.22v-2.242H8.621c-.083 0-.145-.055-.187-.165a1.559 1.559 0 01-.068-.566v-.345a.786.786 0 01.055-.22.331.331 0 01.076-.131.172.172 0 01.11-.042h2.98a.441.441 0 01.192.042c.06.029.112.071.152.124a.566.566 0 01.097.193c.023.085.034.173.034.262v3.793a.98.98 0 01-.069.393.538.538 0 01-.296.262 6.686 6.686 0 01-.545.193 6.279 6.279 0 01-.69.18 9.472 9.472 0 01-.69.11c-.23.012-.46.012-.69 0a5.11 5.11 0 01-1.896-.324 3.883 3.883 0 01-1.414-.952 4.234 4.234 0 01-.882-1.517 6.207 6.207 0 01-.304-2.028 6.31 6.31 0 01.324-2.11 4.531 4.531 0 01.924-1.58c.402-.437.897-.779 1.449-1a4.903 4.903 0 011.89-.344c.348-.003.697.024 1.04.082.28.046.554.115.821.207.205.066.401.154.587.262.119.065.228.147.324.242a.628.628 0 01.13.29c.029.196.035.395.022.593zM8.786 15.19l.085.075 2.187 2.18a.766.766 0 01-.995 1.157l-.086-.074-.88-.877v6.418a.766.766 0 01-1.524.104l-.007-.104v-6.416l-.873.875a.766.766 0 01-.997.074l-.086-.074a.766.766 0 01-.074-.997l.074-.086 2.18-2.18a.766.766 0 01.996-.074zM12.655 12c.049.14.088.283.117.428a.255.255 0 01-.062.234.476.476 0 01-.29.097h-1.165a1.634 1.634 0 01-.33-.042.276.276 0 01-.153-.096.393.393 0 01-.075-.152l-.649-1.945H6.421l-.614 1.89a.69.69 0 01-.076.172.317.317 0 01-.159.117c-.098.031-.2.05-.303.056h-.524a5.18 5.18 0 01-.531 0 .407.407 0 01-.27-.11.276.276 0 01-.054-.235c.025-.143.062-.284.11-.42l2.98-8.546a.58.58 0 01.103-.207.366.366 0 01.193-.124c.118-.027.238-.044.358-.048H8.938c.137.005.273.02.407.048a.38.38 0 01.207.124.876.876 0 01.103.207l3 8.552zM8.228 4.917l-1.38 4.138h2.759l-1.38-4.138z"/></g></g></svg>