<svg xmlns="http://www.w3.org/2000/svg" viewBox="0 0 84 34"><g fill="none" fill-rule="evenodd"><path fill="#55B64E" d="M0 0v33.778h66.654l16.73-16.89L66.654 0z"/><g fill="#FEFEFE"><path d="M19.51 10.073h-.016l-2.912 8.752h5.84l-2.912-8.752zm9.453 15.102c.127.38.206.684.238.907.032.222-.01.389-.127.5-.117.113-.324.18-.62.208a14.8 14.8 0 01-1.226.04c-.54 0-.963-.008-1.265-.024a3.1 3.1 0 01-.692-.096c-.159-.048-.27-.114-.335-.2a1.106 1.106 0 01-.159-.333l-1.384-4.137H15.66l-1.305 4.026a1.268 1.268 0 01-.167.374.676.676 0 01-.334.238 2.396 2.396 0 01-.653.12 15.43 15.43 0 01-1.106.032c-.487 0-.87-.016-1.145-.048-.276-.032-.467-.11-.573-.231-.106-.122-.143-.294-.112-.517.033-.223.112-.52.24-.891l6.35-18.268c.062-.18.136-.326.221-.438.085-.112.22-.196.406-.255a3.23 3.23 0 01.772-.111c.33-.016.764-.024 1.305-.024.626 0 1.124.008 1.495.024.372.016.661.053.868.11.207.06.355.147.445.264.09.117.167.276.231.478l6.366 18.252zM40.537 11.8c0 .203-.011.373-.033.511a1.085 1.085 0 01-.098.332.437.437 0 01-.152.18.338.338 0 01-.185.054h-3.386v3.691a.334.334 0 01-.055.19.419.419 0 01-.185.142c-.087.04-.203.071-.348.093a3.883 3.883 0 01-.545.033c-.218 0-.4-.012-.544-.033a1.327 1.327 0 01-.348-.093.46.46 0 01-.191-.142.31.31 0 01-.06-.19v-3.69h-3.375a.315.315 0 01-.18-.056.47.47 0 01-.147-.179 1.197 1.197 0 01-.103-.332 2.832 2.832 0 01-.038-.512c0-.196.01-.365.032-.506.022-.14.053-.254.093-.338a.446.446 0 01.136-.179.288.288 0 01.174-.055h3.408v-3.68c0-.072.02-.139.06-.2a.43.43 0 01.19-.154c.088-.039.204-.07.349-.092.145-.022.326-.033.544-.033.218 0 .4.011.545.033.145.021.26.053.348.092.087.04.149.091.185.153a.394.394 0 01.055.201v3.68H40.1c.059 0 .115.018.169.055a.43.43 0 01.142.18c.04.083.07.196.092.337.022.141.033.31.033.506M51.914 11.8c0 .203-.01.373-.032.511a1.085 1.085 0 01-.099.332.437.437 0 01-.151.18.338.338 0 01-.185.054H48.06v3.691a.334.334 0 01-.055.19.419.419 0 01-.184.142c-.087.04-.203.071-.349.093a3.883 3.883 0 01-.544.033c-.218 0-.4-.012-.544-.033a1.327 1.327 0 01-.349-.093.46.46 0 01-.19-.142.31.31 0 01-.06-.19v-3.69H42.41a.315.315 0 01-.18-.056.47.47 0 01-.147-.179 1.197 1.197 0 01-.103-.332 2.832 2.832 0 01-.038-.512c0-.196.01-.365.032-.506.022-.14.053-.254.093-.338a.446.446 0 01.136-.179.288.288 0 01.173-.055h3.409v-3.68c0-.072.02-.139.06-.2a.43.43 0 01.19-.154c.088-.039.204-.07.349-.092.145-.022.325-.033.544-.033.218 0 .4.011.544.033.145.021.261.053.349.092.087.04.148.091.184.153a.394.394 0 01.055.201v3.68h3.418c.06 0 .115.018.17.055a.43.43 0 01.141.18c.04.083.07.196.093.337.022.141.032.31.032.506"/></g></g></svg>
