<svg xmlns="http://www.w3.org/2000/svg" viewBox="0 0 73 40"><g fill="none" fill-rule="evenodd"><path fill="#FFF" d="M.56 0h15v39.2h-15z"/><path fill="#55B64E" fill-rule="nonzero" d="M54.352.566H15.455v38.572h38.897L72.09 19.855z"/><path fill="#231F20" fill-rule="nonzero" d="M53.978 0H.572A.572.572 0 000 .572v38.566a.574.574 0 00.572.565h53.4a.582.582 0 00.41-.175l17.737-19.316a.55.55 0 00-.008-.77L54.387.188A.562.562 0 0053.978 0zM.572.565h53.394L71.7 19.831 53.97 39.14.572 39.138a.007.007 0 01-.007-.007V.572C.565.57.57.565.572.565z"/><g fill-rule="nonzero"><path fill="#FFF" d="M41.62 24.38a6.152 6.152 0 01-.261 1.827 5.069 5.069 0 01-.69 1.462c-.3.421-.669.79-1.09 1.09-.426.307-.89.56-1.379.751a8.676 8.676 0 01-1.628.435 11.82 11.82 0 01-1.93.138h-4.725a1.09 1.09 0 01-.758-.283 1.228 1.228 0 01-.304-.938V12.248c-.034-.339.076-.677.304-.93.204-.194.477-.298.758-.29h4.428c.928-.02 1.855.08 2.758.296a5.11 5.11 0 011.89.89c.514.396.92.915 1.18 1.51.29.68.43 1.413.413 2.152-.001.44-.062.879-.18 1.303a4.138 4.138 0 01-.475 1.11c-.21.335-.47.636-.772.89-.312.26-.664.467-1.042.614.484.098.95.273 1.38.517.423.246.797.57 1.103.952.33.41.582.878.745 1.38.187.56.28 1.147.276 1.737zm-4.661-8.035a3 3 0 00-.166-1.028 1.855 1.855 0 00-.49-.758 2.214 2.214 0 00-.82-.47 4.641 4.641 0 00-1.283-.158h-1.834v4.952h2.006a3.18 3.18 0 001.207-.2c.296-.12.56-.306.773-.545.208-.233.363-.508.455-.807a3.11 3.11 0 00.152-.986zm.91 8.165a3.366 3.366 0 00-.2-1.186 2.31 2.31 0 00-.6-.876 2.759 2.759 0 00-1.007-.545 5.655 5.655 0 00-1.6-.193h-2.096v5.428h2.593c.425.012.849-.047 1.255-.172.327-.103.63-.272.89-.497.251-.231.451-.513.586-.828.143-.36.214-.744.207-1.13h-.028z"/><path fill="#000" d="M29.924 10.764h4.402c.95-.02 1.898.082 2.822.303a5.363 5.363 0 011.984.935 4.1 4.1 0 011.257 1.61 5.4 5.4 0 01.426 2.247 5.22 5.22 0 01-.167 1.386 4.52 4.52 0 01-.506 1.172 3.988 3.988 0 01-1.098 1.15l-.144.096-.087.05.248.093.143.062.141.066.277.146c.45.262.849.605 1.173 1.012a4.6 4.6 0 01.789 1.462c.152.494.236 1.007.247 1.517l-.002.306a6.396 6.396 0 01-.272 1.913 5.325 5.325 0 01-.726 1.538 4.917 4.917 0 01-1.147 1.147 6.53 6.53 0 01-1.436.783 8.434 8.434 0 01-1.68.448c-.489.073-.982.117-1.475.134l-.493.007h-4.677a1.35 1.35 0 01-.951-.367 1.473 1.473 0 01-.374-.959l.007-.145.001-16.617a1.472 1.472 0 01.38-1.137c.218-.205.496-.329.79-.354l.148-.004zm4.798.499H29.91a.806.806 0 00-.565.207.968.968 0 00-.245.64l.005.124-.001 16.667a.972.972 0 00.223.728c.127.116.287.189.46.21l.13.008h4.684c.634.003 1.267-.042 1.89-.135a7.924 7.924 0 001.576-.42c.47-.185.915-.427 1.326-.723a4.413 4.413 0 001.028-1.028c.292-.425.513-.894.657-1.393.144-.477.227-.97.247-1.474l.004-.303a5.077 5.077 0 00-.222-1.666 4.096 4.096 0 00-.702-1.3 3.692 3.692 0 00-1.032-.891 4.419 4.419 0 00-1.033-.425l-.273-.065-.835-.17.795-.308a3.485 3.485 0 001.69-1.394c.198-.323.35-.673.448-1.035.106-.409.157-.83.15-1.262a4.913 4.913 0 00-.386-2.045 3.596 3.596 0 00-1.1-1.41 4.86 4.86 0 00-1.798-.847 10.6 10.6 0 00-2.31-.29zM34.49 21.46a5.816 5.816 0 011.663.203c.406.119.783.321 1.112.6.294.268.521.6.667.976.147.409.22.84.215 1.267a3.16 3.16 0 01-.228 1.234c-.148.345-.37.655-.65.91a2.7 2.7 0 01-.981.554 4.134 4.134 0 01-1.062.182l-3.11.002V21.46h2.374zm.006.5h-1.881v4.927l2.35.001c.398.01.795-.044 1.174-.161.295-.093.567-.247.796-.45.226-.205.405-.455.523-.728.13-.329.195-.68.189-1.042a3.11 3.11 0 00-.184-1.093 2.054 2.054 0 00-.528-.775 2.504 2.504 0 00-.918-.494 5.322 5.322 0 00-1.214-.183l-.307-.002zm-2.38-8.279h2.077c.474-.013.946.044 1.413.17.338.106.65.284.915.523.257.236.449.534.56.873.107.36.15.737.127 1.089a3.28 3.28 0 01-.133 1.057c-.198.693-.7 1.26-1.374 1.545a3.49 3.49 0 01-1.105.216h-2.48V13.68zm2.345.5h-1.846v4.472h1.766c.39.014.78-.048 1.136-.18.525-.222.92-.67 1.078-1.22.087-.292.125-.595.114-.923a2.742 2.742 0 00-.105-.935 1.534 1.534 0 00-.42-.65 1.956 1.956 0 00-.718-.414 4.364 4.364 0 00-1.005-.15z"/></g><g fill="#231C1E" fill-rule="nonzero"><path d="M12.097 28.497v.365a1.434 1.434 0 01-.049.248.331.331 0 01-.076.131.166.166 0 01-.11.035.62.62 0 01-.283-.131 4.241 4.241 0 00-.524-.29 5.517 5.517 0 00-.78-.283 3.731 3.731 0 00-1.054-.138c-.4-.004-.795.079-1.159.242a2.441 2.441 0 00-.883.69 3.007 3.007 0 00-.565 1.048 4.455 4.455 0 00-.2 1.38c-.007.487.06.973.2 1.44.117.384.31.74.565 1.049.237.274.534.49.87.627.353.147.733.22 1.117.214.2.001.398-.022.593-.069.191-.046.375-.12.544-.22v-2.242H8.621c-.083 0-.145-.055-.187-.165a1.559 1.559 0 01-.068-.566v-.345a.786.786 0 01.055-.22.331.331 0 01.076-.131.172.172 0 01.11-.042h2.98a.441.441 0 01.192.042c.06.029.112.071.152.124a.566.566 0 01.097.193c.023.085.034.173.034.262v3.793a.98.98 0 01-.069.393.538.538 0 01-.296.262 6.686 6.686 0 01-.545.193 6.279 6.279 0 01-.69.18 9.472 9.472 0 01-.69.11c-.23.012-.46.012-.69 0a5.11 5.11 0 01-1.896-.324 3.883 3.883 0 01-1.414-.952 4.234 4.234 0 01-.882-1.517 6.207 6.207 0 01-.304-2.028 6.31 6.31 0 01.324-2.11 4.531 4.531 0 01.924-1.58c.402-.437.897-.779 1.449-1a4.903 4.903 0 011.89-.344c.348-.003.697.024 1.04.082.28.046.554.115.821.207.205.066.401.154.587.262.119.065.228.147.324.242a.628.628 0 01.13.29c.029.196.035.395.022.593zM8.786 15.19l.085.075 2.187 2.18a.766.766 0 01-.995 1.157l-.086-.074-.88-.877v6.418a.766.766 0 01-1.524.104l-.007-.104v-6.416l-.873.875a.766.766 0 01-.997.074l-.086-.074a.766.766 0 01-.074-.997l.074-.086 2.18-2.18a.766.766 0 01.996-.074zM12.655 12c.049.14.088.283.117.428a.255.255 0 01-.062.234.476.476 0 01-.29.097h-1.165a1.634 1.634 0 01-.33-.042.276.276 0 01-.153-.096.393.393 0 01-.075-.152l-.649-1.945H6.421l-.614 1.89a.69.69 0 01-.076.172.317.317 0 01-.159.117c-.098.031-.2.05-.303.056h-.524a5.18 5.18 0 01-.531 0 .407.407 0 01-.27-.11.276.276 0 01-.054-.235c.025-.143.062-.284.11-.42l2.98-8.546a.58.58 0 01.103-.207.366.366 0 01.193-.124c.118-.027.238-.044.358-.048H8.938c.137.005.273.02.407.048a.38.38 0 01.207.124.876.876 0 01.103.207l3 8.552zM8.228 4.917l-1.38 4.138h2.759l-1.38-4.138z"/></g></g></svg>