<svg xmlns="http://www.w3.org/2000/svg" viewBox="0 0 73 40"><g fill="none" fill-rule="evenodd"><path fill="#FFF" d="M.56 0h15v39.2h-15z"/><path fill="#BFD541" fill-rule="nonzero" d="M54.352.566H15.455v38.572h38.897L72.09 19.855z"/><path fill="#231F20" fill-rule="nonzero" d="M53.978 0H.572A.572.572 0 000 .572v38.566a.574.574 0 00.572.565h53.4a.582.582 0 00.41-.175l17.737-19.316a.55.55 0 00-.008-.77L54.387.188A.562.562 0 0053.978 0zM.572.565h53.394L71.7 19.831 53.97 39.14.572 39.138a.007.007 0 01-.007-.007V.572C.565.57.57.565.572.565z"/><g fill-rule="nonzero"><path fill="#FFF" d="M41.193 27.214v.62c-.021.15-.054.297-.096.442-.021.11-.059.217-.11.317a1.38 1.38 0 01-.215.304c-.172.17-.367.316-.579.434-.335.199-.685.37-1.048.51-.462.174-.937.31-1.42.407a8.966 8.966 0 01-1.725.159 8.524 8.524 0 01-3.269-.6A6.455 6.455 0 0130.269 28a8.276 8.276 0 01-1.586-3 14.641 14.641 0 01-.545-4.186c-.023-1.462.18-2.918.6-4.317a9.255 9.255 0 011.676-3.173A7.007 7.007 0 0133 11.38a8.12 8.12 0 013.317-.69 7.88 7.88 0 011.38.132c.43.082.851.2 1.262.351a5.82 5.82 0 011.041.49c.237.13.455.293.648.483.1.097.183.209.249.33.053.107.09.221.11.339.03.16.051.32.062.483v1.44c-.01.17-.043.337-.097.497a.634.634 0 01-.158.283.31.31 0 01-.22.09.938.938 0 01-.518-.255 8.62 8.62 0 00-.814-.58 6.566 6.566 0 00-1.186-.572 4.628 4.628 0 00-1.642-.262 3.724 3.724 0 00-1.868.469 4.138 4.138 0 00-1.38 1.324 6.448 6.448 0 00-.876 2.069c-.21.904-.312 1.83-.303 2.759-.015.98.094 1.957.324 2.91.173.736.487 1.431.924 2.048.371.51.864.918 1.435 1.186a4.38 4.38 0 001.882.394 4.903 4.903 0 001.649-.2 6.207 6.207 0 001.193-.538c.283-.163.557-.34.82-.531a1.02 1.02 0 01.497-.235.345.345 0 01.214.062c.07.062.118.144.138.235.042.162.07.329.083.496.02.186.027.47.027.828z"/><path fill="#000" d="M36.387 10.467a8.371 8.371 0 00-3.419.711 7.256 7.256 0 00-2.678 2.014 9.509 9.509 0 00-1.723 3.26 14.477 14.477 0 00-.61 4.393 14.863 14.863 0 00.484 4.219 8.531 8.531 0 001.636 3.096 6.707 6.707 0 002.573 1.878 8.778 8.778 0 003.367.619 9.2 9.2 0 001.768-.163c.5-.1.987-.24 1.461-.419a7.027 7.027 0 001.09-.53c.224-.124.437-.284.626-.47.107-.116.192-.236.26-.367a1.43 1.43 0 00.095-.262l.027-.133c.03-.142.053-.301.064-.462v-.637c.032-.315.032-.616.006-.873a3.04 3.04 0 00-.09-.535.684.684 0 00-.213-.359.593.593 0 00-.395-.124c-.256.042-.47.143-.645.295-.24.173-.506.345-.782.503a5.8 5.8 0 01-1.146.517 4.628 4.628 0 01-1.565.236 4.143 4.143 0 01-1.785-.37 3.497 3.497 0 01-1.334-1.131 5.611 5.611 0 01-.87-1.94 11.36 11.36 0 01-.318-2.85c-.01-.915.09-1.82.297-2.706a6.2 6.2 0 01.842-1.99c.33-.51.773-.936 1.296-1.244a3.497 3.497 0 011.745-.434 4.38 4.38 0 011.555.247 6.31 6.31 0 011.14.55c.271.17.535.359.787.561.158.161.39.276.642.309a.55.55 0 00.427-.165c.106-.1.188-.24.227-.396.055-.162.091-.35.103-.54v-1.458a4.187 4.187 0 00-.066-.53 1.453 1.453 0 00-.132-.402 1.638 1.638 0 00-.297-.398 3.186 3.186 0 00-.514-.41l-.189-.113a6.016 6.016 0 00-1.018-.498 8.248 8.248 0 00-1.303-.363 8.138 8.138 0 00-1.067-.126l-.359-.01zm-.002.5a7.63 7.63 0 011.335.127c.415.08.823.194 1.221.34.245.093.484.203.715.33l.227.132c.228.125.427.274.604.448.08.08.15.17.203.27a.956.956 0 01.084.262c.03.155.05.306.06.458l-.001 1.425a1.72 1.72 0 01-.084.417.355.355 0 01-.1.18l-.027.02a.033.033 0 01-.011.002.637.637 0 01-.344-.182 8.678 8.678 0 00-.858-.615 6.821 6.821 0 00-1.234-.595 4.867 4.867 0 00-1.725-.277 3.991 3.991 0 00-1.992.5 4.394 4.394 0 00-1.468 1.407 6.697 6.697 0 00-.91 2.149c-.215.923-.319 1.869-.31 2.817a11.84 11.84 0 00.332 2.966c.178.758.5 1.475.949 2.113.392.555.919 1 1.53 1.295.63.287 1.31.429 1.995.418a5.108 5.108 0 001.724-.26c.431-.142.848-.33 1.24-.56.289-.166.57-.348.841-.545a.8.8 0 01.392-.19l.025.018c.011.011.032.047.04.086.041.157.067.309.078.461.023.231.023.5-.006.806l-.001.644a2.78 2.78 0 01-.031.256l-.026.133a.934.934 0 01-.078.263 1.121 1.121 0 01-.17.24c-.15.147-.327.28-.519.387-.328.196-.666.36-1.016.495-.448.168-.91.3-1.38.395a8.71 8.71 0 01-1.674.154 8.281 8.281 0 01-3.178-.582 6.202 6.202 0 01-2.377-1.736 8.024 8.024 0 01-1.537-2.908 14.384 14.384 0 01-.466-4.082 14.004 14.004 0 01.59-4.253 9.005 9.005 0 011.63-3.087 6.754 6.754 0 012.492-1.873 7.87 7.87 0 012.847-.662l.369-.007z"/></g><g fill="#231C1E" fill-rule="nonzero"><path d="M12.097 28.497v.365a1.434 1.434 0 01-.049.248.331.331 0 01-.076.131.166.166 0 01-.11.035.62.62 0 01-.283-.131 4.241 4.241 0 00-.524-.29 5.517 5.517 0 00-.78-.283 3.731 3.731 0 00-1.054-.138c-.4-.004-.795.079-1.159.242a2.441 2.441 0 00-.883.69 3.007 3.007 0 00-.565 1.048 4.455 4.455 0 00-.2 1.38c-.007.487.06.973.2 1.44.117.384.31.74.565 1.049.237.274.534.49.87.627.353.147.733.22 1.117.214.2.001.398-.022.593-.069.191-.046.375-.12.544-.22v-2.242H8.621c-.083 0-.145-.055-.187-.165a1.559 1.559 0 01-.068-.566v-.345a.786.786 0 01.055-.22.331.331 0 01.076-.131.172.172 0 01.11-.042h2.98a.441.441 0 01.192.042c.06.029.112.071.152.124a.566.566 0 01.097.193c.023.085.034.173.034.262v3.793a.98.98 0 01-.069.393.538.538 0 01-.296.262 6.686 6.686 0 01-.545.193 6.279 6.279 0 01-.69.18 9.472 9.472 0 01-.69.11c-.23.012-.46.012-.69 0a5.11 5.11 0 01-1.896-.324 3.883 3.883 0 01-1.414-.952 4.234 4.234 0 01-.882-1.517 6.207 6.207 0 01-.304-2.028 6.31 6.31 0 01.324-2.11 4.531 4.531 0 01.924-1.58c.402-.437.897-.779 1.449-1a4.903 4.903 0 011.89-.344c.348-.003.697.024 1.04.082.28.046.554.115.821.207.205.066.401.154.587.262.119.065.228.147.324.242a.628.628 0 01.13.29c.029.196.035.395.022.593zM8.786 15.19l.085.075 2.187 2.18a.766.766 0 01-.995 1.157l-.086-.074-.88-.877v6.418a.766.766 0 01-1.524.104l-.007-.104v-6.416l-.873.875a.766.766 0 01-.997.074l-.086-.074a.766.766 0 01-.074-.997l.074-.086 2.18-2.18a.766.766 0 01.996-.074zM12.655 12c.049.14.088.283.117.428a.255.255 0 01-.062.234.476.476 0 01-.29.097h-1.165a1.634 1.634 0 01-.33-.042.276.276 0 01-.153-.096.393.393 0 01-.075-.152l-.649-1.945H6.421l-.614 1.89a.69.69 0 01-.076.172.317.317 0 01-.159.117c-.098.031-.2.05-.303.056h-.524a5.18 5.18 0 01-.531 0 .407.407 0 01-.27-.11.276.276 0 01-.054-.235c.025-.143.062-.284.11-.42l2.98-8.546a.58.58 0 01.103-.207.366.366 0 01.193-.124c.118-.027.238-.044.358-.048H8.938c.137.005.273.02.407.048a.38.38 0 01.207.124.876.876 0 01.103.207l3 8.552zM8.228 4.917l-1.38 4.138h2.759l-1.38-4.138z"/></g></g></svg>