<svg xmlns="http://www.w3.org/2000/svg" viewBox="0 0 73 40"><g fill="none" fill-rule="evenodd"><path fill="#FFF" d="M.56 0h15v39.2h-15z"/><path fill="#FFF02A" fill-rule="nonzero" d="M54.352.566H15.455v38.572h38.897L72.09 19.855z"/><path fill="#231F20" fill-rule="nonzero" d="M53.978 0H.572A.572.572 0 000 .572v38.566a.574.574 0 00.572.565h53.4a.582.582 0 00.41-.175l17.737-19.316a.55.55 0 00-.008-.77L54.387.188A.562.562 0 0053.978 0zM.572.565h53.394L71.7 19.831 53.97 39.14.572 39.138a.007.007 0 01-.007-.007V.572C.565.57.57.565.572.565z"/><g fill-rule="nonzero"><path fill="#FFF" d="M44.172 20.283a14.062 14.062 0 01-.634 4.49 7.662 7.662 0 01-1.82 3.04 7.124 7.124 0 01-2.877 1.732c-1.31.395-2.673.581-4.041.552h-4.214a1.069 1.069 0 01-.752-.283 1.228 1.228 0 01-.31-.938V12.248c-.032-.34.08-.678.31-.93.204-.191.474-.293.752-.284h4.524c1.358-.033 2.712.17 4 .6A7.117 7.117 0 0141.87 13.4a7.655 7.655 0 011.71 2.897c.415 1.287.615 2.634.593 3.986zm-3.703.13c.005-.836-.095-1.67-.297-2.482a5.572 5.572 0 00-.938-2.069 4.38 4.38 0 00-1.662-1.331 6.207 6.207 0 00-2.662-.483h-1.813v12.986h1.869a6.517 6.517 0 002.475-.413 4.138 4.138 0 001.683-1.249 5.476 5.476 0 001.007-2.069c.237-.944.351-1.915.338-2.89z"/><path fill="#000" d="M35.104 10.778a12.16 12.16 0 014.09.607 7.46 7.46 0 012.857 1.837 7.904 7.904 0 011.766 2.99 12.41 12.41 0 01.605 4.065 14.313 14.313 0 01-.646 4.57 7.916 7.916 0 01-1.883 3.145 7.377 7.377 0 01-2.98 1.792 13.468 13.468 0 01-3.65.563h-4.67a1.328 1.328 0 01-.944-.366 1.474 1.474 0 01-.381-.959l.006-.146.001-16.604a1.47 1.47 0 01.387-1.136c.214-.204.491-.328.784-.354l.147-.004h4.511zm.45.498l-.444.002h-4.53a.792.792 0 00-.56.207.968.968 0 00-.25.64l.004.123-.001 16.651a.971.971 0 00.231.731.818.818 0 00.453.21l.13.007h4.218c1.341.025 2.68-.157 3.962-.54a6.87 6.87 0 002.771-1.668 7.411 7.411 0 001.761-2.941 13.82 13.82 0 00.625-3.92l-.002-.5a11.93 11.93 0 00-.58-3.912 7.401 7.401 0 00-1.652-2.799 6.952 6.952 0 00-2.658-1.709 11.657 11.657 0 00-3.477-.582zm-.358 2.531c.842.008 1.676.18 2.457.51.699.31 1.31.788 1.783 1.398.472.645.806 1.381.98 2.157.206.843.308 1.71.303 2.574a11.44 11.44 0 01-.345 2.917 5.729 5.729 0 01-1.055 2.166 4.393 4.393 0 01-1.79 1.326c-.72.27-1.48.416-2.243.43h-2.44V13.811h2.034l.316-.005zm-.296.505h-1.554v12.472h1.62c.712.021 1.422-.08 2.096-.296l.286-.1a3.885 3.885 0 001.58-1.17 5.227 5.227 0 00.96-1.976c.23-.912.341-1.85.331-2.795a10.107 10.107 0 00-.29-2.461 5.316 5.316 0 00-.892-1.97 4.125 4.125 0 00-1.582-1.24 5.957 5.957 0 00-2.555-.464z"/></g><g fill="#231C1E" fill-rule="nonzero"><path d="M12.097 28.497v.365a1.434 1.434 0 01-.049.248.331.331 0 01-.076.131.166.166 0 01-.11.035.62.62 0 01-.283-.131 4.241 4.241 0 00-.524-.29 5.517 5.517 0 00-.78-.283 3.731 3.731 0 00-1.054-.138c-.4-.004-.795.079-1.159.242a2.441 2.441 0 00-.883.69 3.007 3.007 0 00-.565 1.048 4.455 4.455 0 00-.2 1.38c-.007.487.06.973.2 1.44.117.384.31.74.565 1.049.237.274.534.49.87.627.353.147.733.22 1.117.214.2.001.398-.022.593-.069.191-.046.375-.12.544-.22v-2.242H8.621c-.083 0-.145-.055-.187-.165a1.559 1.559 0 01-.068-.566v-.345a.786.786 0 01.055-.22.331.331 0 01.076-.131.172.172 0 01.11-.042h2.98a.441.441 0 01.192.042c.06.029.112.071.152.124a.566.566 0 01.097.193c.023.085.034.173.034.262v3.793a.98.98 0 01-.069.393.538.538 0 01-.296.262 6.686 6.686 0 01-.545.193 6.279 6.279 0 01-.69.18 9.472 9.472 0 01-.69.11c-.23.012-.46.012-.69 0a5.11 5.11 0 01-1.896-.324 3.883 3.883 0 01-1.414-.952 4.234 4.234 0 01-.882-1.517 6.207 6.207 0 01-.304-2.028 6.31 6.31 0 01.324-2.11 4.531 4.531 0 01.924-1.58c.402-.437.897-.779 1.449-1a4.903 4.903 0 011.89-.344c.348-.003.697.024 1.04.082.28.046.554.115.821.207.205.066.401.154.587.262.119.065.228.147.324.242a.628.628 0 01.13.29c.029.196.035.395.022.593zM8.786 15.19l.085.075 2.187 2.18a.766.766 0 01-.995 1.157l-.086-.074-.88-.877v6.418a.766.766 0 01-1.524.104l-.007-.104v-6.416l-.873.875a.766.766 0 01-.997.074l-.086-.074a.766.766 0 01-.074-.997l.074-.086 2.18-2.18a.766.766 0 01.996-.074zM12.655 12c.049.14.088.283.117.428a.255.255 0 01-.062.234.476.476 0 01-.29.097h-1.165a1.634 1.634 0 01-.33-.042.276.276 0 01-.153-.096.393.393 0 01-.075-.152l-.649-1.945H6.421l-.614 1.89a.69.69 0 01-.076.172.317.317 0 01-.159.117c-.098.031-.2.05-.303.056h-.524a5.18 5.18 0 01-.531 0 .407.407 0 01-.27-.11.276.276 0 01-.054-.235c.025-.143.062-.284.11-.42l2.98-8.546a.58.58 0 01.103-.207.366.366 0 01.193-.124c.118-.027.238-.044.358-.048H8.938c.137.005.273.02.407.048a.38.38 0 01.207.124.876.876 0 01.103.207l3 8.552zM8.228 4.917l-1.38 4.138h2.759l-1.38-4.138z"/></g></g></svg>