<svg xmlns="http://www.w3.org/2000/svg" viewBox="0 0 73 40"><g fill="none" fill-rule="evenodd"><path fill="#FFF" d="M.56 0h15v39.2h-15z"/><path fill="#FCB731" fill-rule="nonzero" d="M54.352.566H15.455v38.572h38.897L72.09 19.855z"/><path fill="#231F20" fill-rule="nonzero" d="M53.978 0H.572A.572.572 0 000 .572v38.566a.574.574 0 00.572.565h53.4a.582.582 0 00.41-.175l17.737-19.316a.55.55 0 00-.008-.77L54.387.188A.562.562 0 0053.978 0zM.572.565h53.394L71.7 19.831 53.97 39.14.572 39.138a.007.007 0 01-.007-.007V.572C.565.57.57.565.572.565z"/><g fill-rule="nonzero"><path fill="#FFF" d="M41.393 28.131c.012.23.012.46 0 .69a1.703 1.703 0 01-.103.462.593.593 0 01-.166.262.359.359 0 01-.227.083h-8.89a1.062 1.062 0 01-.759-.29 1.255 1.255 0 01-.303-.938V11.807c-.031-.341.078-.68.303-.938.205-.193.478-.297.759-.29h8.8c.08.001.157.028.22.076a.524.524 0 01.16.255c.054.154.089.314.103.476.011.23.011.46 0 .69.012.23.012.46 0 .69a1.703 1.703 0 01-.104.462c-.03.099-.085.189-.158.262a.331.331 0 01-.221.076H34.51v4.71h5.331c.081 0 .16.03.221.083.08.064.14.15.172.248.057.146.092.3.104.455.023.23.035.46.034.69.001.23-.01.46-.034.69a1.593 1.593 0 01-.104.448.586.586 0 01-.172.248.366.366 0 01-.22.069H34.51v5.38h6.352c.083 0 .164.029.228.082.076.07.133.157.165.255.055.151.09.309.104.47.025.244.036.49.034.737z"/><path fill="#000" d="M40.81 10.378h-8.796c-.348-.01-.685.119-.937.358a1.514 1.514 0 00-.381 1.142l-.001 16.598c-.036.386.095.792.365 1.102.272.255.61.381.956.368h8.846a.597.597 0 00.383-.13.795.795 0 00.251-.39c.057-.15.097-.328.112-.51a7.644 7.644 0 000-1.471v-.024a2.085 2.085 0 00-.118-.555.78.78 0 00-.237-.359l-.088-.061a.606.606 0 00-.302-.082l-6.103-.001v-4.88l5.081.001a.612.612 0 00.367-.116c.13-.099.22-.23.265-.377.06-.15.1-.324.114-.502.024-.232.036-.471.035-.71 0-.238-.011-.477-.035-.715a1.83 1.83 0 00-.12-.52.728.728 0 00-.253-.356l-.078-.056a.593.593 0 00-.294-.079H34.76v-4.19h6.047a.576.576 0 00.38-.132.89.89 0 00.238-.382c.06-.155.1-.334.114-.515a6.803 6.803 0 000-.723c.012-.212.012-.45 0-.689a2.15 2.15 0 00-.117-.548.792.792 0 00-.225-.355.634.634 0 00-.387-.141zm-8.81.5h8.807a.12.12 0 01.07.025.316.316 0 01.07.126c.051.147.082.286.094.427.01.212.01.434-.001.656.012.246.012.468 0 .689-.01.127-.04.26-.088.387a.4.4 0 01-.1.172l-.038.004H34.26v5.19h5.581c.02 0 .041.007.057.021.053.04.082.084.097.133.054.14.084.27.094.4a6.445 6.445 0 010 1.335c-.01.135-.04.262-.087.383a.269.269 0 01-.092.141.113.113 0 01-.064.018H34.26v5.879h6.602c.024 0 .049.009.068.025.039.033.07.081.086.135.052.144.082.28.094.418l-.001.027c.045.483.045.945 0 1.403a1.462 1.462 0 01-.088.399.318.318 0 01-.095.161.103.103 0 01-.057.015h-8.862a.812.812 0 01-.588-.216 1 1 0 01-.225-.733V11.855a1.024 1.024 0 01.243-.774c.14-.13.348-.21.563-.204z"/></g><g fill="#231C1E" fill-rule="nonzero"><path d="M12.097 28.497v.365a1.434 1.434 0 01-.049.248.331.331 0 01-.076.131.166.166 0 01-.11.035.62.62 0 01-.283-.131 4.241 4.241 0 00-.524-.29 5.517 5.517 0 00-.78-.283 3.731 3.731 0 00-1.054-.138c-.4-.004-.795.079-1.159.242a2.441 2.441 0 00-.883.69 3.007 3.007 0 00-.565 1.048 4.455 4.455 0 00-.2 1.38c-.007.487.06.973.2 1.44.117.384.31.74.565 1.049.237.274.534.49.87.627.353.147.733.22 1.117.214.2.001.398-.022.593-.069.191-.046.375-.12.544-.22v-2.242H8.621c-.083 0-.145-.055-.187-.165a1.559 1.559 0 01-.068-.566v-.345a.786.786 0 01.055-.22.331.331 0 01.076-.131.172.172 0 01.11-.042h2.98a.441.441 0 01.192.042c.06.029.112.071.152.124a.566.566 0 01.097.193c.023.085.034.173.034.262v3.793a.98.98 0 01-.069.393.538.538 0 01-.296.262 6.686 6.686 0 01-.545.193 6.279 6.279 0 01-.69.18 9.472 9.472 0 01-.69.11c-.23.012-.46.012-.69 0a5.11 5.11 0 01-1.896-.324 3.883 3.883 0 01-1.414-.952 4.234 4.234 0 01-.882-1.517 6.207 6.207 0 01-.304-2.028 6.31 6.31 0 01.324-2.11 4.531 4.531 0 01.924-1.58c.402-.437.897-.779 1.449-1a4.903 4.903 0 011.89-.344c.348-.003.697.024 1.04.082.28.046.554.115.821.207.205.066.401.154.587.262.119.065.228.147.324.242a.628.628 0 01.13.29c.029.196.035.395.022.593zM8.786 15.19l.085.075 2.187 2.18a.766.766 0 01-.995 1.157l-.086-.074-.88-.877v6.418a.766.766 0 01-1.524.104l-.007-.104v-6.416l-.873.875a.766.766 0 01-.997.074l-.086-.074a.766.766 0 01-.074-.997l.074-.086 2.18-2.18a.766.766 0 01.996-.074zM12.655 12c.049.14.088.283.117.428a.255.255 0 01-.062.234.476.476 0 01-.29.097h-1.165a1.634 1.634 0 01-.33-.042.276.276 0 01-.153-.096.393.393 0 01-.075-.152l-.649-1.945H6.421l-.614 1.89a.69.69 0 01-.076.172.317.317 0 01-.159.117c-.098.031-.2.05-.303.056h-.524a5.18 5.18 0 01-.531 0 .407.407 0 01-.27-.11.276.276 0 01-.054-.235c.025-.143.062-.284.11-.42l2.98-8.546a.58.58 0 01.103-.207.366.366 0 01.193-.124c.118-.027.238-.044.358-.048H8.938c.137.005.273.02.407.048a.38.38 0 01.207.124.876.876 0 01.103.207l3 8.552zM8.228 4.917l-1.38 4.138h2.759l-1.38-4.138z"/></g></g></svg>