<svg xmlns="http://www.w3.org/2000/svg" viewBox="0 0 73 40"><g fill="none" fill-rule="evenodd"><path fill="#FFF" d="M.56 0h15v39.2h-15z"/><path fill="#F17030" fill-rule="nonzero" d="M54.352.566H15.455v38.572h38.897L72.09 19.855z"/><path fill="#231F20" fill-rule="nonzero" d="M53.978 0H.572A.572.572 0 000 .572v38.566a.574.574 0 00.572.565h53.4a.582.582 0 00.41-.175l17.737-19.316a.55.55 0 00-.008-.77L54.387.188A.562.562 0 0053.978 0zM.572.565h53.394L71.7 19.831 53.97 39.14.572 39.138a.007.007 0 01-.007-.007V.572C.565.57.57.565.572.565z"/><g fill-rule="nonzero"><path fill="#FFF" d="M41.952 11.883c0 .248-.01.497-.035.745a2.069 2.069 0 01-.13.475.69.69 0 01-.173.263.29.29 0 01-.214.09h-5.745v5.165h5.442a.352.352 0 01.22.069.69.69 0 01.173.255c.056.15.09.308.103.469.016.245.016.492 0 .738.016.245.016.492 0 .738a1.952 1.952 0 01-.103.482.759.759 0 01-.173.276.324.324 0 01-.22.083h-5.442v7.103a.469.469 0 01-.083.276.6.6 0 01-.29.2 2.352 2.352 0 01-.551.124c-.29.034-.583.05-.876.049a7.24 7.24 0 01-.862-.049 2.193 2.193 0 01-.552-.124.69.69 0 01-.296-.2.469.469 0 01-.083-.276V11.517a1.228 1.228 0 01.304-.938c.204-.193.477-.297.758-.29H41.4a.31.31 0 01.214.083.69.69 0 01.172.27c.057.158.094.322.11.489.042.207.056.462.056.752z"/><path fill="#000" d="M41.423 10.04h-8.271c-.348-.01-.685.119-.937.358-.29.324-.422.733-.381 1.144l-.001 17.265a.715.715 0 00.127.418c.125.146.265.24.42.294.194.071.4.117.61.137.29.034.589.05.887.05.3 0 .603-.016.903-.05.205-.021.41-.068.607-.138a.842.842 0 00.402-.28l.062-.105a.71.71 0 00.075-.331l-.001-6.849h5.172c.14.002.28-.05.387-.146a1.02 1.02 0 00.241-.378c.062-.177.102-.36.117-.546a5.888 5.888 0 000-.775 5.325 5.325 0 000-.738 2.021 2.021 0 00-.118-.54.943.943 0 00-.236-.35l-.095-.051a.572.572 0 00-.33-.056l-5.158-.003v-4.659l5.516.001c.147 0 .29-.059.393-.165.1-.115.167-.236.21-.366.06-.169.1-.35.121-.533a7.57 7.57 0 00.036-.773 4.384 4.384 0 00-.015-.769 2.32 2.32 0 00-.124-.549.938.938 0 00-.234-.365.58.58 0 00-.385-.152zm-8.285.5h8.283c.016 0 .033.007.047.019.043.041.08.1.103.165.05.14.083.285.097.432.024.24.03.468.014.702 0 .26-.01.5-.034.738a1.93 1.93 0 01-.098.424.545.545 0 01-.105.19l-.023.002h-6.017v5.659h5.692c.056-.006.08-.001.1.01l.06.126c.046.126.076.262.087.4.015.23.015.466 0 .7.015.268.015.504 0 .739-.012.139-.042.28-.09.416a.507.507 0 01-.115.184l-.021.006a.093.093 0 01-.018.001h-5.674v7.354a.224.224 0 01-.039.134.346.346 0 01-.159.103c-.168.06-.333.097-.501.114a7.087 7.087 0 01-.85.047 7.001 7.001 0 01-.834-.046 1.958 1.958 0 01-.495-.111.445.445 0 01-.194-.13.246.246 0 01-.021-.106V11.517a.998.998 0 01.24-.772.806.806 0 01.565-.205z"/></g><g fill="#231C1E" fill-rule="nonzero"><path d="M12.097 28.497v.365a1.434 1.434 0 01-.049.248.331.331 0 01-.076.131.166.166 0 01-.11.035.62.62 0 01-.283-.131 4.241 4.241 0 00-.524-.29 5.517 5.517 0 00-.78-.283 3.731 3.731 0 00-1.054-.138c-.4-.004-.795.079-1.159.242a2.441 2.441 0 00-.883.69 3.007 3.007 0 00-.565 1.048 4.455 4.455 0 00-.2 1.38c-.007.487.06.973.2 1.44.117.384.31.74.565 1.049.237.274.534.49.87.627.353.147.733.22 1.117.214.2.001.398-.022.593-.069.191-.046.375-.12.544-.22v-2.242H8.621c-.083 0-.145-.055-.187-.165a1.559 1.559 0 01-.068-.566v-.345a.786.786 0 01.055-.22.331.331 0 01.076-.131.172.172 0 01.11-.042h2.98a.441.441 0 01.192.042c.06.029.112.071.152.124a.566.566 0 01.097.193c.023.085.034.173.034.262v3.793a.98.98 0 01-.069.393.538.538 0 01-.296.262 6.686 6.686 0 01-.545.193 6.279 6.279 0 01-.69.18 9.472 9.472 0 01-.69.11c-.23.012-.46.012-.69 0a5.11 5.11 0 01-1.896-.324 3.883 3.883 0 01-1.414-.952 4.234 4.234 0 01-.882-1.517 6.207 6.207 0 01-.304-2.028 6.31 6.31 0 01.324-2.11 4.531 4.531 0 01.924-1.58c.402-.437.897-.779 1.449-1a4.903 4.903 0 011.89-.344c.348-.003.697.024 1.04.082.28.046.554.115.821.207.205.066.401.154.587.262.119.065.228.147.324.242a.628.628 0 01.13.29c.029.196.035.395.022.593zM8.786 15.19l.085.075 2.187 2.18a.766.766 0 01-.995 1.157l-.086-.074-.88-.877v6.418a.766.766 0 01-1.524.104l-.007-.104v-6.416l-.873.875a.766.766 0 01-.997.074l-.086-.074a.766.766 0 01-.074-.997l.074-.086 2.18-2.18a.766.766 0 01.996-.074zM12.655 12c.049.14.088.283.117.428a.255.255 0 01-.062.234.476.476 0 01-.29.097h-1.165a1.634 1.634 0 01-.33-.042.276.276 0 01-.153-.096.393.393 0 01-.075-.152l-.649-1.945H6.421l-.614 1.89a.69.69 0 01-.076.172.317.317 0 01-.159.117c-.098.031-.2.05-.303.056h-.524a5.18 5.18 0 01-.531 0 .407.407 0 01-.27-.11.276.276 0 01-.054-.235c.025-.143.062-.284.11-.42l2.98-8.546a.58.58 0 01.103-.207.366.366 0 01.193-.124c.118-.027.238-.044.358-.048H8.938c.137.005.273.02.407.048a.38.38 0 01.207.124.876.876 0 01.103.207l3 8.552zM8.228 4.917l-1.38 4.138h2.759l-1.38-4.138z"/></g></g></svg>