<svg xmlns="http://www.w3.org/2000/svg" viewBox="0 0 73 40"><g fill="none" fill-rule="evenodd"><path fill="#FFF" d="M.56 0h15v39.2h-15z"/><path fill="#EB212E" fill-rule="nonzero" d="M54.352.566H15.455v38.572h38.897L72.09 19.855z"/><path fill="#231F20" fill-rule="nonzero" d="M53.978 0H.572A.572.572 0 000 .572v38.566a.574.574 0 00.572.565h53.4a.582.582 0 00.41-.175l17.737-19.316a.55.55 0 00-.008-.77L54.387.188A.562.562 0 0053.978 0zM.572.565h53.394L71.7 19.831 53.97 39.14.572 39.138a.007.007 0 01-.007-.007V.572C.565.57.57.565.572.565z"/><g fill-rule="nonzero"><path fill="#FFF" d="M42.31 13.972v.738a2.18 2.18 0 01-.096.49.607.607 0 01-.145.262.331.331 0 01-.214.069 1.228 1.228 0 01-.572-.262 7.31 7.31 0 00-1.049-.572 11.034 11.034 0 00-1.558-.58 7.745 7.745 0 00-2.11-.262 5.469 5.469 0 00-2.31.476 5.103 5.103 0 00-1.773 1.38 6.159 6.159 0 00-1.131 2.103 8.966 8.966 0 00-.4 2.724 9.303 9.303 0 00.407 2.876 5.931 5.931 0 001.124 2.069c.466.55 1.054.984 1.717 1.269a5.745 5.745 0 002.241.427c.407 0 .813-.051 1.207-.151.383-.094.75-.243 1.09-.442v-4.42h-3.372c-.166 0-.297-.11-.387-.332a3.317 3.317 0 01-.138-1.13 6.366 6.366 0 010-.69 2.29 2.29 0 01.104-.448.69.69 0 01.165-.256.359.359 0 01.221-.076h5.952a.966.966 0 01.386.076.862.862 0 01.303.249c.09.114.156.245.194.386.048.17.072.347.068.524v7.586c.006.265-.043.528-.144.773-.12.245-.33.433-.587.524-.358.151-.724.285-1.096.4-.453.141-.914.259-1.38.351-.455.104-.915.185-1.379.242-.476.05-.955.075-1.434.076a10.345 10.345 0 01-3.78-.69 7.641 7.641 0 01-2.827-1.903 8.38 8.38 0 01-1.752-3 12.566 12.566 0 01-.614-4.062c-.009-1.432.224-2.854.69-4.207a9.028 9.028 0 011.855-3.173 7.897 7.897 0 012.89-1.993 9.924 9.924 0 013.786-.69c.693-.002 1.386.056 2.069.173.558.093 1.107.231 1.641.414.406.132.797.308 1.166.524.237.13.455.293.648.483.134.17.224.372.262.586.057.36.078.725.062 1.09z"/><path fill="#000" d="M36.864 10.437l-.424-.003c-1.322-.021-2.641.22-3.876.706a8.148 8.148 0 00-2.983 2.056 9.28 9.28 0 00-1.921 3.276 12.923 12.923 0 00-.703 4.288 12.845 12.845 0 00.661 4.147 8.572 8.572 0 001.825 3.124 7.84 7.84 0 002.923 1.961 10.42 10.42 0 003.87.706 14.438 14.438 0 004.309-.667c.377-.11.752-.245 1.118-.401.304-.11.563-.342.713-.643.121-.292.177-.59.17-.89v-7.58c.005-.197-.022-.399-.078-.594a1.311 1.311 0 00-.237-.47 1.175 1.175 0 00-.386-.317 1.249 1.249 0 00-.502-.103H35.36a.604.604 0 00-.37.13 1.008 1.008 0 00-.243.36c-.05.153-.083.296-.104.442a6.5 6.5 0 00-.002.738c-.021.385.03.796.148 1.19l.053.115c.132.254.324.394.566.394h3.095v4.022l.123-.067c-.32.188-.667.327-1.028.414a4.638 4.638 0 01-1.121.138 5.504 5.504 0 01-2.183-.39 4.364 4.364 0 01-1.657-1.167 5.675 5.675 0 01-1.073-1.977 9.066 9.066 0 01-.389-2.798 8.73 8.73 0 01.382-2.655 5.84 5.84 0 011.085-2.018 4.718 4.718 0 011.685-1.312 5.216 5.216 0 012.201-.452 7.512 7.512 0 012.05.253c.516.15 1.025.34 1.519.565.353.16.692.346 1.017.555.175.147.412.255.665.299a.567.567 0 00.409-.123.85.85 0 00.234-.39c.052-.167.088-.348.104-.532v-.76c.025-.387.008-.79-.05-1.188a1.589 1.589 0 00-.313-.698 3.176 3.176 0 00-.724-.547 5.85 5.85 0 00-1.21-.543 10.574 10.574 0 00-1.677-.422 11.643 11.643 0 00-1.687-.172zm-.42.496c.678-.006 1.355.05 2.023.168.546.091 1.082.226 1.604.405.394.125.767.293 1.118.502.225.123.425.272.601.446.087.114.16.275.192.447.051.354.066.723.044 1.09v.754a2.132 2.132 0 01-.085.415.348.348 0 01-.09.16l.001-.005h-.02a.98.98 0 01-.425-.205 8.204 8.204 0 00-1.104-.607 11.578 11.578 0 00-1.592-.591 8.002 8.002 0 00-2.184-.272 5.71 5.71 0 00-2.408.497 5.219 5.219 0 00-1.865 1.45 6.337 6.337 0 00-1.176 2.188 9.215 9.215 0 00-.404 2.8c-.018.993.12 1.989.41 2.946.244.79.642 1.524 1.173 2.157a4.87 4.87 0 001.85 1.306 5.995 5.995 0 002.375.425c.412 0 .828-.052 1.234-.153a4.26 4.26 0 001.162-.468l.124-.072v-4.814h-3.595c-.045 0-.094-.043-.148-.175a3.065 3.065 0 01-.12-1.025 6.595 6.595 0 010-.688c.015-.096.042-.21.078-.323a.49.49 0 01.105-.156l.003.002.037-.004h5.983c.1 0 .199.018.29.056a.671.671 0 01.204.173.818.818 0 01.147.295c.044.152.064.303.06.455v7.591c.006.236-.037.465-.125.677a.806.806 0 01-.441.385c-.361.153-.718.281-1.082.388a13.946 13.946 0 01-4.164.645 9.925 9.925 0 01-3.688-.672 7.338 7.338 0 01-2.736-1.835 8.07 8.07 0 01-1.717-2.941 12.352 12.352 0 01-.636-3.99c-.01-1.406.22-2.8.676-4.127a8.78 8.78 0 011.818-3.1 7.645 7.645 0 012.797-1.928 9.681 9.681 0 013.695-.672z"/></g><g fill="#231C1E" fill-rule="nonzero"><path d="M12.097 28.497v.365a1.434 1.434 0 01-.049.248.331.331 0 01-.076.131.166.166 0 01-.11.035.62.62 0 01-.283-.131 4.241 4.241 0 00-.524-.29 5.517 5.517 0 00-.78-.283 3.731 3.731 0 00-1.054-.138c-.4-.004-.795.079-1.159.242a2.441 2.441 0 00-.883.69 3.007 3.007 0 00-.565 1.048 4.455 4.455 0 00-.2 1.38c-.007.487.06.973.2 1.44.117.384.31.74.565 1.049.237.274.534.49.87.627.353.147.733.22 1.117.214.2.001.398-.022.593-.069.191-.046.375-.12.544-.22v-2.242H8.621c-.083 0-.145-.055-.187-.165a1.559 1.559 0 01-.068-.566v-.345a.786.786 0 01.055-.22.331.331 0 01.076-.131.172.172 0 01.11-.042h2.98a.441.441 0 01.192.042c.06.029.112.071.152.124a.566.566 0 01.097.193c.023.085.034.173.034.262v3.793a.98.98 0 01-.069.393.538.538 0 01-.296.262 6.686 6.686 0 01-.545.193 6.279 6.279 0 01-.69.18 9.472 9.472 0 01-.69.11c-.23.012-.46.012-.69 0a5.11 5.11 0 01-1.896-.324 3.883 3.883 0 01-1.414-.952 4.234 4.234 0 01-.882-1.517 6.207 6.207 0 01-.304-2.028 6.31 6.31 0 01.324-2.11 4.531 4.531 0 01.924-1.58c.402-.437.897-.779 1.449-1a4.903 4.903 0 011.89-.344c.348-.003.697.024 1.04.082.28.046.554.115.821.207.205.066.401.154.587.262.119.065.228.147.324.242a.628.628 0 01.13.29c.029.196.035.395.022.593zM8.786 15.19l.085.075 2.187 2.18a.766.766 0 01-.995 1.157l-.086-.074-.88-.877v6.418a.766.766 0 01-1.524.104l-.007-.104v-6.416l-.873.875a.766.766 0 01-.997.074l-.086-.074a.766.766 0 01-.074-.997l.074-.086 2.18-2.18a.766.766 0 01.996-.074zM12.655 12c.049.14.088.283.117.428a.255.255 0 01-.062.234.476.476 0 01-.29.097h-1.165a1.634 1.634 0 01-.33-.042.276.276 0 01-.153-.096.393.393 0 01-.075-.152l-.649-1.945H6.421l-.614 1.89a.69.69 0 01-.076.172.317.317 0 01-.159.117c-.098.031-.2.05-.303.056h-.524a5.18 5.18 0 01-.531 0 .407.407 0 01-.27-.11.276.276 0 01-.054-.235c.025-.143.062-.284.11-.42l2.98-8.546a.58.58 0 01.103-.207.366.366 0 01.193-.124c.118-.027.238-.044.358-.048H8.938c.137.005.273.02.407.048a.38.38 0 01.207.124.876.876 0 01.103.207l3 8.552zM8.228 4.917l-1.38 4.138h2.759l-1.38-4.138z"/></g></g></svg>