<?xml version="1.0" encoding="UTF-8" standalone="no"?><!DOCTYPE svg PUBLIC "-//W3C//DTD SVG 1.1//EN" "http://www.w3.org/Graphics/SVG/1.1/DTD/svg11.dtd"><svg width="100%" height="100%" viewBox="0 0 1114 269" version="1.1" xmlns="http://www.w3.org/2000/svg" xmlns:xlink="http://www.w3.org/1999/xlink" xml:space="preserve" xmlns:serif="http://www.serif.com/" style="fill-rule:evenodd;clip-rule:evenodd;stroke-linejoin:round;stroke-miterlimit:1.41421;"><g><path d="M317.87,0.676l0,3.608l-31.593,0l0,25.229l27.353,0l0,3.604l-27.353,0l0,27.565l-4.367,0l0,-60.006l35.96,0Z" style="fill:#004c4a;fill-rule:nonzero;"/><path d="M387.923,30.659c0,-4.186 -0.573,-7.945 -1.736,-11.283c-1.159,-3.331 -2.795,-6.159 -4.899,-8.479c-2.105,-2.317 -4.641,-4.093 -7.61,-5.323c-2.972,-1.231 -6.262,-1.844 -9.881,-1.844c-3.564,0 -6.821,0.613 -9.774,1.844c-2.955,1.23 -5.5,3.006 -7.633,5.323c-2.136,2.319 -3.788,5.148 -4.962,8.479c-1.174,3.338 -1.762,7.098 -1.762,11.283c0,4.212 0.587,7.979 1.762,11.3c1.174,3.324 2.826,6.141 4.962,8.462c2.133,2.316 4.678,4.083 7.633,5.298c2.953,1.218 6.209,1.823 9.774,1.823c3.619,0 6.909,-0.605 9.881,-1.823c2.969,-1.215 5.505,-2.982 7.61,-5.298c2.104,-2.322 3.74,-5.139 4.899,-8.462c1.163,-3.321 1.736,-7.088 1.736,-11.3m4.498,0c0,4.639 -0.693,8.841 -2.076,12.617c-1.389,3.771 -3.336,6.996 -5.853,9.665c-2.519,2.672 -5.528,4.737 -9.036,6.191c-3.502,1.456 -7.391,2.186 -11.66,2.186c-4.214,0 -8.074,-0.73 -11.576,-2.186c-3.507,-1.454 -6.517,-3.519 -9.031,-6.191c-2.521,-2.669 -4.479,-5.894 -5.875,-9.665c-1.399,-3.776 -2.102,-7.979 -2.102,-12.617c0,-4.61 0.703,-8.8 2.102,-12.576c1.395,-3.771 3.353,-6.996 5.875,-9.665c2.514,-2.674 5.523,-4.743 9.031,-6.214c3.502,-1.472 7.362,-2.206 11.576,-2.206c4.269,0 8.158,0.727 11.66,2.186c3.507,1.453 6.517,3.521 9.036,6.207c2.517,2.691 4.464,5.92 5.853,9.691c1.383,3.778 2.076,7.968 2.076,12.577" style="fill:#004c4a;fill-rule:nonzero;"/><path d="M418.076,0.825c0.224,0.101 0.47,0.32 0.722,0.661l38.846,51.988c-0.086,-0.85 -0.129,-1.665 -0.129,-2.458l0,-50.337l3.817,0l0,60.004l-2.081,0c-0.65,0 -1.17,-0.282 -1.566,-0.847l-39.015,-52.075c0.088,0.845 0.129,1.653 0.129,2.417l0,50.505l-3.776,0l0,-60.004l2.121,0c0.391,-0.001 0.704,0.046 0.932,0.146" style="fill:#004c4a;fill-rule:nonzero;"/><path d="M533.636,30.659c0,-4.186 -0.581,-7.916 -1.742,-11.194c-1.159,-3.279 -2.794,-6.053 -4.899,-8.315c-2.105,-2.259 -4.641,-3.983 -7.61,-5.173c-2.967,-1.186 -6.261,-1.779 -9.88,-1.779l-17.512,0l0,52.965l17.512,0c3.619,0 6.914,-0.593 9.88,-1.779c2.969,-1.19 5.505,-2.915 7.61,-5.179c2.104,-2.257 3.74,-5.031 4.899,-8.309c1.161,-3.279 1.742,-7.025 1.742,-11.237m4.493,0c0,4.639 -0.693,8.808 -2.076,12.511c-1.386,3.704 -3.335,6.854 -5.853,9.456c-2.521,2.601 -5.528,4.594 -9.036,5.977c-3.501,1.386 -7.391,2.081 -11.659,2.081l-21.881,0l0,-60.008l21.881,0c4.269,0 8.158,0.695 11.659,2.081c3.508,1.384 6.515,3.376 9.036,5.976c2.517,2.603 4.467,5.752 5.853,9.46c1.383,3.7 2.076,7.857 2.076,12.466" style="fill:#004c4a;fill-rule:nonzero;"/><path d="M564.292,38.886l26.889,0l-12.258,-30.319c-0.195,-0.481 -0.396,-1.024 -0.591,-1.633c-0.2,-0.609 -0.4,-1.252 -0.596,-1.931c-0.195,0.679 -0.395,1.322 -0.595,1.931c-0.2,0.609 -0.391,1.164 -0.591,1.674l-12.258,30.278Zm40.161,21.797l-3.349,0c-0.399,0 -0.721,-0.107 -0.981,-0.318c-0.251,-0.211 -0.451,-0.488 -0.591,-0.824l-7.082,-17.431l-29.469,0l-7.04,17.431c-0.116,0.311 -0.316,0.579 -0.597,0.803c-0.282,0.228 -0.621,0.339 -1.014,0.339l-3.307,0l24.551,-60.004l4.325,0l24.554,60.004Z" style="fill:#004c4a;fill-rule:nonzero;"/><path d="M656.741,0.676l0,3.689l-21.08,0l0,56.317l-4.32,0l0,-56.317l-21.205,0l0,-3.689l46.605,0Z" style="fill:#004c4a;fill-rule:nonzero;"/><rect x="677.18" y="0.677" width="4.366" height="60.004" style="fill:#004c4a;"/><path d="M758.472,30.659c0,-4.186 -0.576,-7.945 -1.739,-11.283c-1.162,-3.331 -2.795,-6.159 -4.901,-8.479c-2.102,-2.317 -4.641,-4.093 -7.607,-5.323c-2.967,-1.231 -6.265,-1.844 -9.883,-1.844c-3.557,0 -6.821,0.613 -9.774,1.844c-2.953,1.23 -5.497,3.006 -7.631,5.323c-2.135,2.319 -3.79,5.148 -4.962,8.479c-1.172,3.338 -1.763,7.098 -1.763,11.283c0,4.212 0.591,7.979 1.763,11.3c1.172,3.324 2.827,6.141 4.962,8.462c2.134,2.316 4.678,4.083 7.631,5.298c2.953,1.218 6.218,1.823 9.774,1.823c3.618,0 6.916,-0.605 9.883,-1.823c2.967,-1.215 5.506,-2.982 7.607,-5.298c2.106,-2.322 3.739,-5.139 4.901,-8.462c1.163,-3.321 1.739,-7.088 1.739,-11.3m4.492,0c0,4.639 -0.688,8.841 -2.074,12.617c-1.386,3.771 -3.339,6.996 -5.854,9.665c-2.516,2.672 -5.529,4.737 -9.035,6.191c-3.502,1.456 -7.39,2.186 -11.659,2.186c-4.208,0 -8.068,-0.73 -11.574,-2.186c-3.506,-1.454 -6.515,-3.519 -9.031,-6.191c-2.521,-2.669 -4.478,-5.894 -5.873,-9.665c-1.404,-3.776 -2.102,-7.979 -2.102,-12.617c0,-4.61 0.697,-8.8 2.102,-12.576c1.396,-3.771 3.353,-6.996 5.873,-9.665c2.517,-2.674 5.525,-4.743 9.031,-6.214c3.506,-1.472 7.366,-2.206 11.574,-2.206c4.27,0 8.157,0.727 11.659,2.186c3.506,1.453 6.52,3.521 9.035,6.207c2.516,2.691 4.469,5.92 5.854,9.691c1.386,3.778 2.074,7.968 2.074,12.577" style="fill:#004c4a;fill-rule:nonzero;"/><path d="M788.62,0.825c0.228,0.101 0.47,0.32 0.721,0.661l38.849,51.988c-0.088,-0.85 -0.13,-1.665 -0.13,-2.458l0,-50.337l3.818,0l0,60.004l-2.079,0c-0.651,0 -1.177,-0.282 -1.567,-0.847l-39.016,-52.075c0.088,0.845 0.125,1.653 0.125,2.417l0,50.505l-3.776,0l0,-60.004l2.126,0c0.394,-0.001 0.702,0.046 0.929,0.146" style="fill:#004c4a;fill-rule:nonzero;"/><path d="M82.177,249.982c4.396,0 8.431,-0.204 12.105,-0.618c3.674,-0.419 7.143,-1.042 10.402,-1.879c3.254,-0.832 6.324,-1.837 9.202,-3.009c2.881,-1.177 5.757,-2.521 8.642,-4.041l0,-35.919l-25.234,0c-1.44,0 -2.593,-0.414 -3.467,-1.242c-0.872,-0.837 -1.307,-1.859 -1.307,-3.073l0,-12.501l50.012,0l0,62.511c-4.093,2.957 -8.355,5.533 -12.789,7.733c-4.433,2.199 -9.171,4.031 -14.209,5.511c-5.039,1.479 -10.437,2.571 -16.196,3.292c-5.757,0.721 -12.007,1.084 -18.752,1.084c-11.824,0 -22.658,-2.028 -32.505,-6.083c-9.853,-4.056 -18.343,-9.733 -25.465,-17.048c-7.118,-7.311 -12.671,-16.081 -16.647,-26.312c-3.976,-10.227 -5.97,-21.48 -5.97,-33.757c0,-12.426 1.951,-23.759 5.853,-33.985c3.905,-10.23 9.474,-19 16.71,-26.313c7.236,-7.313 15.989,-12.977 26.258,-16.996c10.267,-4.015 21.764,-6.024 34.493,-6.024c6.443,0 12.429,0.479 17.959,1.426c5.528,0.947 10.667,2.307 15.403,4.088c4.735,1.783 9.109,3.941 13.128,6.481c4.014,2.538 7.765,5.396 11.252,8.579l-6.252,10c-1.292,2.048 -2.958,3.072 -5,3.072c-1.216,0 -2.538,-0.415 -3.981,-1.25c-1.895,-1.063 -4.014,-2.351 -6.361,-3.867c-2.353,-1.514 -5.214,-2.974 -8.586,-4.376c-3.369,-1.4 -7.349,-2.595 -11.934,-3.581c-4.585,-0.981 -10.019,-1.477 -16.312,-1.477c-9.165,0 -17.464,1.498 -24.889,4.487c-7.428,3 -13.752,7.278 -18.98,12.843c-5.229,5.576 -9.249,12.314 -12.05,20.233c-2.805,7.924 -4.205,16.802 -4.205,26.656c0,10.305 1.457,19.489 4.374,27.563c2.919,8.072 7.029,14.908 12.336,20.513c5.305,5.612 11.594,9.891 18.869,12.844c7.274,2.961 15.305,4.435 24.093,4.435" style="fill:#004c4a;fill-rule:nonzero;"/><path d="M214.898,251.8c11.367,0 19.852,-3.804 25.459,-11.421c5.607,-7.617 8.41,-18.243 8.41,-31.883c0,-13.709 -2.803,-24.396 -8.41,-32.05c-5.607,-7.655 -14.093,-11.478 -25.459,-11.478c-5.76,0 -10.762,0.981 -15.002,2.953c-4.246,1.972 -7.786,4.813 -10.629,8.524c-2.84,3.711 -4.962,8.277 -6.364,13.695c-1.404,5.422 -2.104,11.537 -2.104,18.354c0,6.822 0.7,12.923 2.104,18.304c1.402,5.38 3.524,9.905 6.364,13.579c2.844,3.678 6.384,6.501 10.629,8.468c4.24,1.974 9.242,2.955 15.002,2.955m0,-102.744c8.41,0 16.005,1.399 22.789,4.208c6.778,2.8 12.54,6.775 17.276,11.929c4.735,5.152 8.372,11.389 10.914,18.698c2.536,7.315 3.808,15.477 3.808,24.494c0,9.091 -1.272,17.275 -3.808,24.549c-2.542,7.273 -6.179,13.49 -10.914,18.644c-4.736,5.157 -10.498,9.114 -17.276,11.877c-6.783,2.767 -14.379,4.147 -22.789,4.147c-8.409,0 -16.01,-1.381 -22.788,-4.147c-6.784,-2.763 -12.563,-6.72 -17.334,-11.877c-4.773,-5.153 -8.45,-11.37 -11.024,-18.644c-2.576,-7.273 -3.864,-15.458 -3.864,-24.549c0,-9.018 1.288,-17.179 3.864,-24.494c2.574,-7.31 6.25,-13.546 11.024,-18.698c4.771,-5.153 10.55,-9.129 17.334,-11.929c6.778,-2.809 14.379,-4.208 22.788,-4.208" style="fill:#004c4a;fill-rule:nonzero;"/><path d="M339.541,251.8c11.367,0 19.853,-3.804 25.459,-11.421c5.607,-7.617 8.41,-18.243 8.41,-31.883c0,-13.709 -2.803,-24.396 -8.41,-32.05c-5.607,-7.655 -14.093,-11.478 -25.459,-11.478c-5.759,0 -10.762,0.981 -15.002,2.953c-4.243,1.972 -7.786,4.813 -10.629,8.524c-2.84,3.711 -4.962,8.277 -6.364,13.695c-1.399,5.422 -2.1,11.537 -2.1,18.354c0,6.822 0.7,12.923 2.1,18.304c1.402,5.38 3.524,9.905 6.364,13.579c2.844,3.678 6.386,6.501 10.629,8.468c4.24,1.974 9.242,2.955 15.002,2.955m0,-102.744c8.41,0 16.005,1.399 22.789,4.208c6.78,2.8 12.54,6.775 17.276,11.929c4.735,5.152 8.372,11.389 10.915,18.698c2.536,7.315 3.807,15.477 3.807,24.494c0,9.091 -1.271,17.275 -3.807,24.549c-2.542,7.273 -6.179,13.49 -10.915,18.644c-4.736,5.157 -10.496,9.114 -17.276,11.877c-6.784,2.767 -14.379,4.147 -22.789,4.147c-8.409,0 -16.01,-1.381 -22.788,-4.147c-6.779,-2.763 -12.563,-6.72 -17.336,-11.877c-4.769,-5.153 -8.447,-11.37 -11.021,-18.644c-2.576,-7.273 -3.864,-15.458 -3.864,-24.549c0,-9.018 1.288,-17.179 3.864,-24.494c2.574,-7.31 6.252,-13.546 11.021,-18.698c4.773,-5.153 10.557,-9.129 17.336,-11.929c6.778,-2.809 14.379,-4.208 22.788,-4.208" style="fill:#004c4a;fill-rule:nonzero;"/><path d="M461.161,251.233c6.587,0 12.366,-1.511 17.331,-4.543c4.965,-3.032 9.528,-7.315 13.695,-12.845l0,-55.696c-3.712,-5 -7.786,-8.501 -12.214,-10.515c-4.438,-2.005 -9.341,-3.009 -14.72,-3.009c-10.762,0 -19.021,3.827 -24.784,11.481c-5.759,7.654 -8.636,18.564 -8.636,32.733c0,7.501 0.641,13.924 1.934,19.262c1.283,5.348 3.178,9.738 5.684,13.188c2.5,3.45 5.569,5.967 9.205,7.557c3.638,1.597 7.802,2.387 12.505,2.387m39.212,16.197c-2.881,0 -4.703,-1.399 -5.457,-4.209l-1.82,-15.393c-4.923,5.98 -10.549,10.775 -16.878,14.379c-6.326,3.595 -13.582,5.395 -21.765,5.395c-6.593,0 -12.578,-1.27 -17.959,-3.804c-5.378,-2.544 -9.967,-6.273 -13.75,-11.198c-3.792,-4.925 -6.707,-11.063 -8.752,-18.415c-2.048,-7.348 -3.071,-15.797 -3.071,-25.345c0,-8.486 1.138,-16.383 3.409,-23.698c2.274,-7.314 5.55,-13.657 9.834,-19.038c4.28,-5.381 9.49,-9.603 15.631,-12.677c6.135,-3.069 13.107,-4.6 20.909,-4.6c7.045,0 13.074,1.19 18.074,3.581c5.003,2.386 9.47,5.738 13.409,10.054l0,-59.327l20.236,0l0,164.295l-12.05,0Z" style="fill:#004c4a;fill-rule:nonzero;"/><path d="M557.917,187.588l26.145,0c6.287,0 11.835,-0.837 16.647,-2.502c4.813,-1.669 8.85,-3.999 12.105,-6.994c3.26,-2.99 5.72,-6.57 7.389,-10.737c1.665,-4.171 2.502,-8.757 2.502,-13.751c0,-10.38 -3.204,-18.49 -9.607,-24.327c-6.403,-5.834 -16.081,-8.75 -29.036,-8.75l-26.145,0l0,67.061Zm0,17.499l0.145,62.515l-21.934,0l-0.15,-164.468l48.084,0c10.3,0 19.262,1.195 26.879,3.581c7.612,2.391 13.923,5.782 18.922,10.172c5.004,4.4 8.733,9.703 11.198,15.918c2.46,6.212 3.692,13.141 3.692,20.8c0,7.575 -1.326,14.504 -3.98,20.792c-2.646,6.296 -6.529,11.709 -11.649,16.262c-5.115,4.544 -11.459,8.087 -19.039,10.626c-7.575,2.539 -16.248,3.804 -26.022,3.804l-26.146,0l0,-0.002Z" style="fill:#004c4a;fill-rule:nonzero;"/><path d="M663.587,103.133l-0.033,164.464l20.234,0l0.032,-164.464l-20.233,0Z" style="fill:#004c4a;fill-rule:nonzero;"/><path d="M742.094,253.618c3.562,0 6.817,-0.354 9.774,-1.079c2.958,-0.716 5.738,-1.739 8.353,-3.069c2.618,-1.32 5.115,-2.934 7.501,-4.827c2.386,-1.893 4.72,-4.055 6.989,-6.478l0,-23.759c-9.319,0 -17.239,0.596 -23.754,1.776c-6.515,1.182 -11.821,2.721 -15.913,4.632c-4.093,1.902 -7.064,4.148 -8.925,6.743c-1.855,2.591 -2.78,5.487 -2.78,8.687c0,3.047 0.492,5.679 1.479,7.892c0.981,2.209 2.307,4.019 3.977,5.428c1.669,1.413 3.641,2.437 5.915,3.088c2.268,0.645 4.729,0.966 7.384,0.966m52.497,13.984l-8.979,0c-1.967,0 -3.563,-0.302 -4.771,-0.911c-1.218,-0.604 -2.009,-1.893 -2.39,-3.864l-2.256,-12.277c-3.037,2.734 -5.994,5.171 -8.868,7.334c-2.879,2.162 -5.911,3.98 -9.092,5.455c-3.181,1.479 -6.575,2.599 -10.179,3.353c-3.596,0.758 -7.59,1.14 -11.989,1.14c-4.469,0 -8.654,-0.628 -12.556,-1.879c-3.906,-1.256 -7.297,-3.144 -10.17,-5.65c-2.889,-2.512 -5.176,-5.683 -6.878,-9.52c-1.707,-3.846 -2.558,-8.385 -2.558,-13.63c0,-4.562 1.246,-8.952 3.748,-13.17c2.497,-4.223 6.533,-7.971 12.104,-11.239c5.571,-3.27 12.863,-5.953 21.88,-8.041c9.017,-2.093 20.043,-3.134 33.073,-3.134l0,-9.036c0,-8.998 -1.911,-15.802 -5.738,-20.415c-3.827,-4.617 -9.487,-6.924 -16.992,-6.924c-4.925,0 -9.078,0.623 -12.444,1.874c-3.377,1.251 -6.292,2.655 -8.757,4.208c-2.46,1.554 -4.581,2.953 -6.362,4.204c-1.78,1.251 -3.543,1.879 -5.282,1.879c-1.367,0 -2.558,-0.363 -3.581,-1.079c-1.022,-0.726 -1.842,-1.613 -2.445,-2.674l-3.637,-6.482c6.361,-6.134 13.226,-10.719 20.572,-13.751c7.353,-3.027 15.495,-4.544 24.438,-4.544c6.441,0 12.161,1.061 17.16,3.177c5.004,2.125 9.208,5.078 12.621,8.868c3.408,3.795 5.985,8.375 7.729,13.756c1.739,5.38 2.613,11.291 2.613,17.727l-0.014,75.245Z" style="fill:#004c4a;fill-rule:nonzero;"/><path d="M814.686,267.453l0,-116.584l12.049,0c2.874,0 4.696,1.404 5.45,4.209l1.595,12.504c4.999,-5.533 10.589,-10.003 16.765,-13.416c6.176,-3.408 13.313,-5.115 21.424,-5.115c6.292,0 11.84,1.042 16.653,3.13c4.809,2.083 8.826,5.036 12.049,8.868c3.218,3.822 5.664,8.426 7.329,13.807c1.669,5.381 2.502,11.328 2.502,17.844l0,74.81l-20.229,0l0,-74.81c0,-8.715 -1.99,-15.477 -5.971,-20.29c-3.977,-4.809 -10.059,-7.217 -18.239,-7.217c-5.989,0 -11.579,1.441 -16.764,4.32c-5.194,2.878 -9.989,6.784 -14.379,11.709l0,86.231l-20.234,0Z" style="fill:#004c4a;fill-rule:nonzero;"/><path d="M1085.94,267.83c-9.091,0 -16.08,-2.539 -20.973,-7.617c-4.883,-5.079 -7.329,-12.385 -7.329,-21.937l0,-70.47l-13.867,0c-1.214,0 -2.236,-0.358 -3.069,-1.079c-0.837,-0.721 -1.251,-1.837 -1.251,-3.353l0,-8.068l18.871,-2.391l4.66,-35.575c0.148,-1.134 0.642,-2.06 1.474,-2.781c0.837,-0.722 1.893,-1.083 3.186,-1.083l10.231,0l0,39.672l32.961,0l0,14.658l-32.961,0l0,69.108c0,4.851 1.172,8.45 3.52,10.798c2.349,2.344 5.381,3.525 9.092,3.525c2.12,0 3.957,-0.288 5.516,-0.855c1.548,-0.563 2.896,-1.195 4.031,-1.879c1.14,-0.675 2.106,-1.302 2.897,-1.869c0.8,-0.572 1.497,-0.856 2.106,-0.856c1.061,0 2.009,0.646 2.842,1.935l5.905,9.659c-3.487,3.265 -7.687,5.817 -12.611,7.673c-4.924,1.856 -10.003,2.785 -15.231,2.785" style="fill:#004c4a;fill-rule:nonzero;"/><path d="M949.089,190.713l0.061,0.005c1.768,-7.338 4.893,-13.276 9.398,-17.811c5.608,-5.646 13.295,-8.469 23.07,-8.469c4.623,0 8.733,0.781 12.338,2.33c3.594,1.558 6.645,3.753 9.146,6.59c2.502,2.846 4.395,6.217 5.683,10.119c1.172,3.558 1.805,7.449 1.907,11.663l-62.971,20.513c-1.491,-13.309 1.368,-24.94 1.368,-24.94m79.8,11.198c0.01,-0.283 0.015,-0.567 0.015,-0.874c0,-8.18 -1.195,-15.472 -3.581,-21.88c-2.391,-6.403 -5.701,-11.779 -9.942,-16.142c-4.246,-4.348 -9.287,-7.683 -15.118,-9.998c-5.837,-2.312 -12.203,-3.465 -19.095,-3.465c-8.338,0 -15.839,1.456 -22.508,4.376c-6.668,2.916 -12.313,6.93 -16.937,12.045c-4.617,5.12 -8.166,11.16 -10.626,18.132c-2.465,6.971 -3.692,14.472 -3.692,22.503c0,9.928 1.363,18.717 4.093,26.367c2.725,7.654 6.533,14.081 11.421,19.271c4.888,5.186 10.687,9.129 17.393,11.816c6.701,2.693 14.034,4.037 21.991,4.037c4.167,0 8.371,-0.363 12.616,-1.079c4.241,-0.721 8.356,-1.8 12.333,-3.241c3.98,-1.438 7.71,-3.273 11.193,-5.511c3.487,-2.237 6.482,-4.869 8.984,-7.901l-5.688,-7.385c-0.906,-1.292 -2.199,-1.934 -3.864,-1.934c-1.288,0 -2.823,0.59 -4.604,1.762c-1.776,1.172 -4,2.441 -6.646,3.805c-2.655,1.367 -5.817,2.632 -9.496,3.813c-3.674,1.172 -8.05,1.758 -13.123,1.758c-5.46,0 -10.385,-0.888 -14.774,-2.674c-4.395,-1.776 -8.185,-4.464 -11.37,-8.068c-2.702,-3.055 -4.91,-6.757 -6.627,-11.1l72.066,-23.476c3.064,-1 5.046,-1.65 5.497,-3.794l0.042,0.022c0.009,-0.153 0.014,-0.32 0.022,-0.479c0.025,-0.222 0.03,-0.455 0.025,-0.706" style="fill:#004c4a;fill-rule:nonzero;"/></g></svg>