<?xml version="1.0" encoding="UTF-8" standalone="no"?>
<svg
   id="Calque_2"
   viewBox="0 0 1254.22 305.17"
   version="1.1"
   sodipodi:docname="variant.svg"
   inkscape:version="1.2.2 (b0a8486541, 2022-12-01)"
   xmlns:inkscape="http://www.inkscape.org/namespaces/inkscape"
   xmlns:sodipodi="http://sodipodi.sourceforge.net/DTD/sodipodi-0.dtd"
   xmlns="http://www.w3.org/2000/svg"
   xmlns:svg="http://www.w3.org/2000/svg">
  <sodipodi:namedview
     id="namedview41"
     pagecolor="#ffffff"
     bordercolor="#000000"
     borderopacity="0.25"
     inkscape:showpageshadow="2"
     inkscape:pageopacity="0.0"
     inkscape:pagecheckerboard="0"
     inkscape:deskcolor="#d1d1d1"
     showgrid="false"
     inkscape:zoom="0.77333942"
     inkscape:cx="627.15024"
     inkscape:cy="153.23155"
     inkscape:window-width="1614"
     inkscape:window-height="981"
     inkscape:window-x="66"
     inkscape:window-y="32"
     inkscape:window-maximized="1"
     inkscape:current-layer="g37" />
  <defs
     id="defs15">
    <style
       id="style2">
      .cls-1 {
        fill: url(#Dégradé_sans_nom_538);
      }

      .cls-2 {
        fill: #fff;
      }
    </style>
    <linearGradient
       id="Dégradé_sans_nom_538"
       data-name="Dégradé sans nom 538"
       x1="5.84"
       y1="5.84"
       x2="375.32"
       y2="375.32"
       gradientUnits="userSpaceOnUse">
      <stop
         offset=".03"
         stop-color="#00de9f"
         id="stop4" />
      <stop
         offset=".27"
         stop-color="#00daa1"
         id="stop6" />
      <stop
         offset=".5"
         stop-color="#00cea8"
         id="stop8" />
      <stop
         offset=".74"
         stop-color="#00bab3"
         id="stop10" />
      <stop
         offset=".96"
         stop-color="#00a1c2"
         id="stop12" />
    </linearGradient>
    <linearGradient
       id="Dégradé_sans_nom_384"
       data-name="Dégradé sans nom 384"
       x1="-4928.8198"
       y1="-2721.0801"
       x2="-4565.6099"
       y2="-2357.8701"
       gradientTransform="translate(4934.57,2726.82)"
       gradientUnits="userSpaceOnUse">
      <stop
         offset="0"
         stop-color="#ffcd90"
         id="stop340" />
      <stop
         offset=".23"
         stop-color="#ffc98e"
         id="stop342" />
      <stop
         offset=".42"
         stop-color="#ffbf8b"
         id="stop344" />
      <stop
         offset=".6"
         stop-color="#ffad86"
         id="stop346" />
      <stop
         offset=".77"
         stop-color="#ff957e"
         id="stop348" />
      <stop
         offset=".87"
         stop-color="#ff8479"
         id="stop350" />
    </linearGradient>
  </defs>
  <g
     id="textes">
    <g
       id="g37">
      <g
         id="g35">
        <path
           class="cls-2"
           d="M464.98,93.25c-26.04,0-39.53,10.46-45.34,32.32h-.47l1.4-30.46h-35.34v114.87h35.34v-54.64c0-21.86,11.16-32.79,29.76-32.79,15.58,0,24.88,7.21,24.88,23.49v63.95h35.34v-71.85c0-29.76-17.91-44.88-45.58-44.88Z"
           id="path19" />
        <path
           class="cls-2"
           d="M615.66,144.87c0,25.11-11.39,37.67-30.46,37.67-15.11,0-23.95-7.44-23.95-23.49v-63.95h-35.34v68.13c0,33.72,18.6,48.6,48.37,48.6,21.86,0,37.44-9.77,42.55-31.86h.46c-.23,12.56-.93,22.09-1.63,30h35.34v-114.87h-35.34v49.76Z"
           id="path21" />
        <path
           class="cls-2"
           d="M758.2,112.09h-.23c-5.12-11.86-17.21-18.83-35.81-18.83-33.48,0-55.34,23.25-55.34,58.37s20.7,60.22,53.95,60.22c20.93,0,33.95-10.23,38.37-26.51h.46c-.7,12.32-1.16,22.32-1.4,24.65h35.34V48.84h-35.34v63.25ZM758.2,153.47c0,18.83-11.63,31.39-29.3,31.39-16.28,0-26.97-13.49-26.97-33.02s10.93-31.62,27.44-31.62,28.83,11.16,28.83,27.67v5.58Z"
           id="path23" />
        <path
           class="cls-2"
           d="M901.21,113.95h-.23c-4.88-13.02-16.74-20.7-36.04-20.7-31.39,0-55.34,23.25-55.34,57.9,0,36.51,20.7,60.69,54.18,60.69,20.69,0,33.02-9.77,36.97-24.88h.23v17.67c0,22.79-10.46,30.46-27.9,30.46-13.95,0-23.72-5.35-23.72-14.42,0-.46,0-1.63.23-3.49h-32.55c-.23,1.16-.47,3.72-.47,4.88,0,23.95,22.32,37.67,56.5,37.67,42.09,0,63.25-22.55,63.25-60.92v-103.71h-35.11v18.83ZM900.97,153.71c0,18.6-11.63,31.16-29.3,31.16-16.28,0-26.97-13.49-26.97-33.48,0-18.6,11.16-31.16,27.67-31.16s28.6,11.16,28.6,27.67v5.81Z"
           id="path25" />
        <path
           class="cls-2"
           d="M1119.56,130.44h-.47l1.4-35.35h-35.35v114.89h35.35v-34.88c0-32.09,11.4-52.09,38.14-52.09,6.28,0,11.4,1.16,15.35,2.33v-29.07c-3.02-.93-8.14-2.56-16.51-2.56-20.93,0-33.49,10.7-37.91,36.74Z"
           id="path27" />
        <path
           class="cls-2"
           d="M1014.92,93.25c-38.83,0-62.55,22.56-62.55,60.46s23.72,58.13,61.85,58.13c32.38,0,54.09-14.98,55.29-40.66h.05s0-5.1,0-5.1l-31.16,4.14c-.93,11.16-9.87,17.54-23.59,17.54-15.61,0-23.93-8.27-26.38-24.44l81.13-10.24v-3.8c0-37.67-22.55-56.04-54.64-56.04ZM1014.39,115.76c12.64,0,21.48,8.09,23.53,17.83l-49.04,6.86c2.79-15.11,10.63-24.69,25.51-24.69Z"
           id="path33" />
      </g>
      <g
         id="couleurs"
         transform="translate(3.06171,1.567003)">
        <path
           class="cls-1"
           d="M 176.55,265.81 H 150.73 C 86.37,265.81 34.19,213.63 34.19,149.27 V 34.19 h 115.08 c 64.36,0 116.54,52.18 116.54,116.54 v 86.83 c 0,0 -35.98,-35.98 -35.98,-35.98 v -51.2 c 0,-44.3 -35.91,-80.2 -80.2,-80.2 H 70.18 c 0,0 0,78.97 0,78.97 0,10.83 8.42,20.06 19.25,20.45 11.37,0.4 20.71,-8.69 20.71,-19.97 v -39.49 h 39.49 c 22.23,0 40.25,18.02 40.25,40.25 v 59.53 c 0,5.27 2.09,10.31 5.81,14.04 l 71.5,71.5 c 2.83,2.83 7.05,3.75 10.79,2.33 12.88,-4.9 22.03,-17.36 22.03,-31.96 V 152.27 C 300.01,111.54 284.2,72.18 255.23,43.54 226.83,15.45 189.24,0 149.27,0 H 34.19 C 15.31,0 0,15.31 0,34.19 v 113.56 c 0,40.73 15.81,80.09 44.78,108.73 28.4,28.07 65.99,43.52 105.95,43.52 h 57.05 c 4.95,0 7.43,-5.99 3.93,-9.49 L 194.4,273.2 c -4.73,-4.73 -11.15,-7.39 -17.84,-7.39 z"
           id="path355"
           style="fill:url(#D%C3%A9grad%C3%A9_sans_nom_384)" />
      </g>
    </g>
  </g>
</svg>
