<?xml version="1.0" encoding="UTF-8" standalone="no"?>
<svg
   id="Calque_2"
   viewBox="0 0 1254.22 305.17"
   version="1.1"
   sodipodi:docname="NUDGER logo 2_1.svg"
   inkscape:version="1.2.2 (b0a8486541, 2022-12-01)"
   xmlns:inkscape="http://www.inkscape.org/namespaces/inkscape"
   xmlns:sodipodi="http://sodipodi.sourceforge.net/DTD/sodipodi-0.dtd"
   xmlns="http://www.w3.org/2000/svg"
   xmlns:svg="http://www.w3.org/2000/svg">
  <sodipodi:namedview
     id="namedview41"
     pagecolor="#ffffff"
     bordercolor="#000000"
     borderopacity="0.25"
     inkscape:showpageshadow="2"
     inkscape:pageopacity="0.0"
     inkscape:pagecheckerboard="0"
     inkscape:deskcolor="#d1d1d1"
     showgrid="false"
     inkscape:zoom="0.77333942"
     inkscape:cx="627.15024"
     inkscape:cy="153.23155"
     inkscape:window-width="1614"
     inkscape:window-height="981"
     inkscape:window-x="66"
     inkscape:window-y="32"
     inkscape:window-maximized="1"
     inkscape:current-layer="g35" />
  <defs
     id="defs15">
    <style
       id="style2">
      .cls-1 {
        fill: url(#Dégradé_sans_nom_538);
      }

      .cls-2 {
        fill: #fff;
      }
    </style>
    <linearGradient
       id="Dégradé_sans_nom_538"
       data-name="Dégradé sans nom 538"
       x1="5.84"
       y1="5.84"
       x2="375.32"
       y2="375.32"
       gradientUnits="userSpaceOnUse">
      <stop
         offset=".03"
         stop-color="#00de9f"
         id="stop4" />
      <stop
         offset=".27"
         stop-color="#00daa1"
         id="stop6" />
      <stop
         offset=".5"
         stop-color="#00cea8"
         id="stop8" />
      <stop
         offset=".74"
         stop-color="#00bab3"
         id="stop10" />
      <stop
         offset=".96"
         stop-color="#00a1c2"
         id="stop12" />
    </linearGradient>
  </defs>
  <g
     id="textes">
    <g
       id="g37">
      <path
         class="cls-1"
         d="M179.59,270.39h-26.27c-65.47,0-118.55-53.08-118.55-118.55V34.78h117.07c65.47,0,118.55,53.08,118.55,118.55v88.33l-36.6-36.6v-52.08c0-45.06-36.53-81.59-81.59-81.59h-80.82v80.34c0,11.02,8.57,20.41,19.58,20.8,11.56.41,21.06-8.84,21.06-20.31v-40.18h40.18c22.61,0,40.94,18.33,40.94,40.94v60.55c0,5.36,2.13,10.49,5.91,14.28l72.73,72.73c2.87,2.87,7.17,3.81,10.97,2.37,13.1-4.99,22.41-17.66,22.41-32.51v-115.52c0-41.43-16.08-81.47-45.55-110.6C230.74,15.71,192.5,0,151.85,0H34.78C15.57,0,0,15.57,0,34.78v115.52c0,41.43,16.08,81.48,45.55,110.6,28.89,28.56,67.12,44.27,107.78,44.27h58.03c5.04,0,7.56-6.09,4-9.65l-17.61-17.61c-4.81-4.81-11.34-7.52-18.15-7.52Z"
         id="path17" />
      <g
         id="g35">
        <path
           class="cls-2"
           d="M464.98,93.25c-26.04,0-39.53,10.46-45.34,32.32h-.47l1.4-30.46h-35.34v114.87h35.34v-54.64c0-21.86,11.16-32.79,29.76-32.79,15.58,0,24.88,7.21,24.88,23.49v63.95h35.34v-71.85c0-29.76-17.91-44.88-45.58-44.88Z"
           id="path19" />
        <path
           class="cls-2"
           d="M615.66,144.87c0,25.11-11.39,37.67-30.46,37.67-15.11,0-23.95-7.44-23.95-23.49v-63.95h-35.34v68.13c0,33.72,18.6,48.6,48.37,48.6,21.86,0,37.44-9.77,42.55-31.86h.46c-.23,12.56-.93,22.09-1.63,30h35.34v-114.87h-35.34v49.76Z"
           id="path21" />
        <path
           class="cls-2"
           d="M758.2,112.09h-.23c-5.12-11.86-17.21-18.83-35.81-18.83-33.48,0-55.34,23.25-55.34,58.37s20.7,60.22,53.95,60.22c20.93,0,33.95-10.23,38.37-26.51h.46c-.7,12.32-1.16,22.32-1.4,24.65h35.34V48.84h-35.34v63.25ZM758.2,153.47c0,18.83-11.63,31.39-29.3,31.39-16.28,0-26.97-13.49-26.97-33.02s10.93-31.62,27.44-31.62,28.83,11.16,28.83,27.67v5.58Z"
           id="path23" />
        <path
           class="cls-2"
           d="M901.21,113.95h-.23c-4.88-13.02-16.74-20.7-36.04-20.7-31.39,0-55.34,23.25-55.34,57.9,0,36.51,20.7,60.69,54.18,60.69,20.69,0,33.02-9.77,36.97-24.88h.23v17.67c0,22.79-10.46,30.46-27.9,30.46-13.95,0-23.72-5.35-23.72-14.42,0-.46,0-1.63.23-3.49h-32.55c-.23,1.16-.47,3.72-.47,4.88,0,23.95,22.32,37.67,56.5,37.67,42.09,0,63.25-22.55,63.25-60.92v-103.71h-35.11v18.83ZM900.97,153.71c0,18.6-11.63,31.16-29.3,31.16-16.28,0-26.97-13.49-26.97-33.48,0-18.6,11.16-31.16,27.67-31.16s28.6,11.16,28.6,27.67v5.81Z"
           id="path25" />
        <path
           class="cls-2"
           d="M1119.56,130.44h-.47l1.4-35.35h-35.35v114.89h35.35v-34.88c0-32.09,11.4-52.09,38.14-52.09,6.28,0,11.4,1.16,15.35,2.33v-29.07c-3.02-.93-8.14-2.56-16.51-2.56-20.93,0-33.49,10.7-37.91,36.74Z"
           id="path27" />
        <path
           class="cls-2"
           d="M1014.92,93.25c-38.83,0-62.55,22.56-62.55,60.46s23.72,58.13,61.85,58.13c32.38,0,54.09-14.98,55.29-40.66h.05s0-5.1,0-5.1l-31.16,4.14c-.93,11.16-9.87,17.54-23.59,17.54-15.61,0-23.93-8.27-26.38-24.44l81.13-10.24v-3.8c0-37.67-22.55-56.04-54.64-56.04ZM1014.39,115.76c12.64,0,21.48,8.09,23.53,17.83l-49.04,6.86c2.79-15.11,10.63-24.69,25.51-24.69Z"
           id="path33" />
      </g>
    </g>
  </g>
</svg>
