<svg width="282" height="159" viewBox="0 0 282 159" fill="none" xmlns="http://www.w3.org/2000/svg">
<g clip-path="url(#clip0_1094_44788)">
<rect x="33" y="50" width="216" height="60" fill="#000091"/>
<path d="M107.085 76.2993C107.602 76.2993 108.083 76.2205 108.528 76.063C108.972 75.9054 109.355 75.6804 109.675 75.3878C109.996 75.0952 110.249 74.7436 110.435 74.3329C110.621 73.9222 110.714 73.4693 110.714 72.9741C110.714 72.0289 110.421 71.3032 109.836 70.7968C109.251 70.2904 108.612 69.86 107.92 69.5056C107.228 69.1511 106.59 68.7967 106.004 68.4422C105.419 68.0878 105.127 67.5955 105.127 66.9653C105.127 66.4815 105.293 66.0736 105.625 65.7416C105.957 65.4097 106.398 65.2437 106.95 65.2437C107.467 65.2437 107.937 65.3759 108.359 65.6403C108.781 65.9048 109.166 66.2845 109.515 66.7797L110.697 65.75C110.258 65.1762 109.729 64.712 109.11 64.3576C108.491 64.0031 107.765 63.8259 106.933 63.8259C106.438 63.8259 105.979 63.9103 105.557 64.0791C105.135 64.2478 104.772 64.4757 104.468 64.7626C104.165 65.0496 103.928 65.3872 103.759 65.7754C103.591 66.1636 103.506 66.5715 103.506 66.9991C103.506 67.933 103.799 68.6532 104.384 69.1596C104.969 69.6659 105.608 70.0963 106.3 70.4508C106.992 70.8052 107.63 71.1597 108.215 71.5141C108.801 71.8686 109.093 72.3609 109.093 72.991C109.093 73.5311 108.916 73.9812 108.562 74.3413C108.207 74.7014 107.709 74.8814 107.068 74.8814C106.516 74.8814 105.996 74.7464 105.507 74.4764C105.017 74.2063 104.564 73.8125 104.148 73.2948L103 74.3582C103.518 74.9996 104.108 75.4835 104.772 75.8098C105.436 76.1361 106.207 76.2993 107.085 76.2993ZM113.735 68.6869L115.473 64.1634H113.836L112.401 68.6869H113.735ZM118.528 65.2606C118.81 65.2606 119.046 65.1621 119.237 64.9652C119.429 64.7683 119.524 64.5292 119.524 64.2478C119.524 63.9778 119.429 63.7443 119.237 63.5474C119.046 63.3505 118.81 63.252 118.528 63.252C118.247 63.252 118.008 63.3505 117.811 63.5474C117.614 63.7443 117.516 63.9778 117.516 64.2478C117.516 64.5292 117.614 64.7683 117.811 64.9652C118.008 65.1621 118.247 65.2606 118.528 65.2606ZM119.237 75.9786V67.4717H117.803V75.9786H119.237ZM125.921 76.3161C126.529 76.3161 127.089 76.2064 127.601 75.987C128.113 75.7676 128.56 75.4497 128.943 75.0334V75.9786H130.377V63.3195H128.943V68.4169C128.56 68.0005 128.113 67.6827 127.601 67.4632C127.089 67.2438 126.529 67.1341 125.921 67.1341C125.257 67.1341 124.655 67.2579 124.115 67.5054C123.575 67.753 123.117 68.0849 122.74 68.5013C122.363 68.9176 122.07 69.4043 121.862 69.9613C121.654 70.5183 121.55 71.1062 121.55 71.7251C121.55 72.344 121.654 72.9319 121.862 73.4889C122.07 74.0459 122.363 74.5326 122.74 74.949C123.117 75.3653 123.575 75.6972 124.115 75.9448C124.655 76.1924 125.257 76.3161 125.921 76.3161ZM126.09 74.9658C125.64 74.9658 125.229 74.8814 124.858 74.7127C124.487 74.5439 124.169 74.3132 123.904 74.0206C123.64 73.7281 123.434 73.3849 123.288 72.991C123.142 72.5972 123.069 72.1752 123.069 71.7251C123.069 71.275 123.142 70.8531 123.288 70.4592C123.434 70.0654 123.64 69.7222 123.904 69.4296C124.169 69.137 124.487 68.9064 124.858 68.7376C125.229 68.5688 125.64 68.4844 126.09 68.4844C126.664 68.4844 127.198 68.6194 127.694 68.8895C128.189 69.1596 128.605 69.5534 128.943 70.071V73.3792C128.616 73.8856 128.206 74.2766 127.71 74.5523C127.215 74.828 126.675 74.9658 126.09 74.9658ZM137.314 76.3161C138.102 76.3161 138.808 76.1586 139.433 75.8435C140.057 75.5285 140.566 75.1065 140.96 74.5776L139.897 73.7506C139.616 74.1332 139.256 74.4398 138.817 74.6705C138.378 74.9011 137.888 75.0165 137.348 75.0165C136.403 75.0165 135.635 74.7098 135.044 74.0966C134.454 73.4833 134.158 72.7097 134.158 71.7758V71.742H140.673C140.696 71.6295 140.718 71.4916 140.741 71.3285C140.763 71.1653 140.775 70.9993 140.775 70.8305C140.775 70.3017 140.685 69.8094 140.505 69.3537C140.325 68.8979 140.069 68.5069 139.737 68.1806C139.405 67.8543 139.002 67.5983 138.53 67.4126C138.057 67.2269 137.534 67.1341 136.96 67.1341C136.307 67.1341 135.714 67.2523 135.179 67.4886C134.645 67.7249 134.195 68.0484 133.829 68.4591C133.463 68.8698 133.179 69.3565 132.977 69.9191C132.774 70.4817 132.673 71.0837 132.673 71.7251C132.673 72.344 132.78 72.9319 132.994 73.4889C133.207 74.0459 133.514 74.5326 133.913 74.949C134.313 75.3653 134.802 75.6972 135.382 75.9448C135.961 76.1924 136.606 76.3161 137.314 76.3161ZM139.323 70.6111H134.276C134.445 69.8797 134.766 69.3227 135.238 68.9401C135.711 68.5575 136.29 68.3663 136.977 68.3663C137.675 68.3663 138.234 68.5885 138.656 69.033C139.078 69.4774 139.301 70.0035 139.323 70.6111ZM144.64 75.9786V70.0879C144.91 69.6378 145.25 69.258 145.661 68.9486C146.072 68.6391 146.581 68.4844 147.189 68.4844C147.841 68.4844 148.364 68.6954 148.758 69.1174C149.152 69.5393 149.349 70.1273 149.349 70.8812V75.9786H150.801V70.8305C150.801 69.6265 150.483 68.7095 149.847 68.0793C149.211 67.4492 148.421 67.1341 147.475 67.1341C146.845 67.1341 146.302 67.2551 145.847 67.497C145.391 67.7389 144.989 68.0512 144.64 68.4338V67.4717H143.205V75.9786H144.64ZM157.13 76.1473C157.434 76.1473 157.704 76.1277 157.94 76.0883C158.177 76.0489 158.396 75.9898 158.599 75.911V74.6283C158.441 74.6958 158.261 74.7464 158.058 74.7802C157.856 74.8139 157.614 74.8308 157.333 74.8308C156.815 74.8308 156.402 74.7127 156.092 74.4764C155.783 74.2401 155.628 73.79 155.628 73.1261V68.7882H158.582V67.4717H155.628V65.345H154.176V67.4717H152.573V68.7882H154.176V73.1261C154.176 74.1613 154.432 74.9236 154.944 75.4131C155.456 75.9026 156.185 76.1473 157.13 76.1473ZM161.502 65.2606C161.783 65.2606 162.019 65.1621 162.211 64.9652C162.402 64.7683 162.498 64.5292 162.498 64.2478C162.498 63.9778 162.402 63.7443 162.211 63.5474C162.019 63.3505 161.783 63.252 161.502 63.252C161.22 63.252 160.981 63.3505 160.784 63.5474C160.587 63.7443 160.489 63.9778 160.489 64.2478C160.489 64.5292 160.587 64.7683 160.784 64.9652C160.981 65.1621 161.22 65.2606 161.502 65.2606ZM162.211 75.9786V67.4717H160.776V75.9786H162.211ZM167.19 75.9786V68.7882H170.144V67.4717H167.19V66.3914C167.19 65.8401 167.339 65.4068 167.637 65.0918C167.935 64.7767 168.315 64.6192 168.776 64.6192C169.069 64.6192 169.319 64.6726 169.528 64.7795C169.736 64.8864 169.913 65.0243 170.059 65.1931L170.954 64.1466C170.706 63.899 170.397 63.6993 170.025 63.5474C169.654 63.3955 169.232 63.3195 168.76 63.3195C167.848 63.3195 167.117 63.6093 166.565 64.1888C166.014 64.7683 165.738 65.5137 165.738 66.4252V67.4717H164.135V68.7882H165.738V75.9786H167.19ZM172.625 65.2606C172.906 65.2606 173.142 65.1621 173.334 64.9652C173.525 64.7683 173.621 64.5292 173.621 64.2478C173.621 63.9778 173.525 63.7443 173.334 63.5474C173.142 63.3505 172.906 63.252 172.625 63.252C172.343 63.252 172.104 63.3505 171.907 63.5474C171.711 63.7443 171.612 63.9778 171.612 64.2478C171.612 64.5292 171.711 64.7683 171.907 64.9652C172.104 65.1621 172.343 65.2606 172.625 65.2606ZM173.334 75.9786V67.4717H171.899V75.9786H173.334ZM180.288 76.3161C181.075 76.3161 181.781 76.1586 182.406 75.8435C183.031 75.5285 183.54 75.1065 183.934 74.5776L182.87 73.7506C182.589 74.1332 182.229 74.4398 181.79 74.6705C181.351 74.9011 180.862 75.0165 180.321 75.0165C179.376 75.0165 178.608 74.7098 178.018 74.0966C177.427 73.4833 177.131 72.7097 177.131 71.7758V71.742H183.647C183.669 71.6295 183.692 71.4916 183.714 71.3285C183.737 71.1653 183.748 70.9993 183.748 70.8305C183.748 70.3017 183.658 69.8094 183.478 69.3537C183.298 68.8979 183.042 68.5069 182.71 68.1806C182.378 67.8543 181.976 67.5983 181.503 67.4126C181.03 67.2269 180.507 67.1341 179.933 67.1341C179.281 67.1341 178.687 67.2523 178.153 67.4886C177.618 67.7249 177.168 68.0484 176.802 68.4591C176.437 68.8698 176.152 69.3565 175.95 69.9191C175.747 70.4817 175.646 71.0837 175.646 71.7251C175.646 72.344 175.753 72.9319 175.967 73.4889C176.181 74.0459 176.487 74.5326 176.887 74.949C177.286 75.3653 177.776 75.6972 178.355 75.9448C178.935 76.1924 179.579 76.3161 180.288 76.3161ZM182.296 70.6111H177.25C177.418 69.8797 177.739 69.3227 178.212 68.9401C178.684 68.5575 179.264 68.3663 179.95 68.3663C180.648 68.3663 181.208 68.5885 181.63 69.033C182.052 69.4774 182.274 70.0035 182.296 70.6111ZM187.613 75.9786V70.206C187.872 69.7784 188.193 69.4324 188.575 69.168C188.958 68.9036 189.425 68.7713 189.976 68.7713C190.145 68.7713 190.297 68.7826 190.432 68.8051C190.567 68.8276 190.696 68.8557 190.82 68.8895V67.4042C190.719 67.3704 190.606 67.3451 190.482 67.3282C190.359 67.3113 190.229 67.3029 190.094 67.3029C189.554 67.3029 189.084 67.4154 188.685 67.6405C188.285 67.8655 187.928 68.1637 187.613 68.535V67.4717H186.178V75.9786H187.613ZM199.766 76.3161C200.34 76.3161 200.88 76.1924 201.386 75.9448C201.892 75.6972 202.303 75.3484 202.618 74.8983V75.9786H204.053V70.2735C204.053 69.3396 203.749 68.5829 203.142 68.0034C202.534 67.4239 201.69 67.1341 200.61 67.1341C199.867 67.1341 199.203 67.2804 198.618 67.573C198.033 67.8655 197.555 68.265 197.183 68.7713L198.264 69.5984C198.511 69.2271 198.835 68.9373 199.234 68.7291C199.634 68.521 200.081 68.4169 200.576 68.4169C201.172 68.4169 201.662 68.5801 202.044 68.9064C202.427 69.2327 202.618 69.6884 202.618 70.2735V70.8643L199.766 71.3369C198.854 71.4832 198.159 71.7814 197.681 72.2315C197.203 72.6816 196.964 73.233 196.964 73.8856C196.964 74.6283 197.223 75.219 197.74 75.6579C198.258 76.0967 198.933 76.3161 199.766 76.3161ZM200.002 75.1177C199.518 75.1177 199.13 74.994 198.837 74.7464C198.545 74.4989 198.399 74.195 198.399 73.835C198.399 73.4636 198.536 73.1486 198.812 72.8898C199.088 72.6309 199.518 72.4565 200.103 72.3665L202.618 71.9277V73.548C202.326 74.0319 201.957 74.4145 201.513 74.6958C201.068 74.9771 200.565 75.1177 200.002 75.1177ZM210.804 75.9786L214.13 67.4717H212.577L209.859 74.4764L207.142 67.4717H205.589L208.914 75.9786H210.804ZM219.666 76.3161C220.453 76.3161 221.16 76.1586 221.784 75.8435C222.409 75.5285 222.918 75.1065 223.312 74.5776L222.248 73.7506C221.967 74.1332 221.607 74.4398 221.168 74.6705C220.729 74.9011 220.24 75.0165 219.7 75.0165C218.754 75.0165 217.986 74.7098 217.396 74.0966C216.805 73.4833 216.509 72.7097 216.509 71.7758V71.742H223.025C223.047 71.6295 223.07 71.4916 223.092 71.3285C223.115 71.1653 223.126 70.9993 223.126 70.8305C223.126 70.3017 223.036 69.8094 222.856 69.3537C222.676 68.8979 222.42 68.5069 222.088 68.1806C221.756 67.8543 221.354 67.5983 220.881 67.4126C220.408 67.2269 219.885 67.1341 219.311 67.1341C218.659 67.1341 218.065 67.2523 217.531 67.4886C216.996 67.7249 216.546 68.0484 216.18 68.4591C215.815 68.8698 215.531 69.3565 215.328 69.9191C215.125 70.4817 215.024 71.0837 215.024 71.7251C215.024 72.344 215.131 72.9319 215.345 73.4889C215.559 74.0459 215.865 74.5326 216.265 74.949C216.664 75.3653 217.154 75.6972 217.733 75.9448C218.313 76.1924 218.957 76.3161 219.666 76.3161ZM221.674 70.6111H216.628C216.796 69.8797 217.117 69.3227 217.59 68.9401C218.062 68.5575 218.642 68.3663 219.328 68.3663C220.026 68.3663 220.586 68.5885 221.008 69.033C221.43 69.4774 221.652 70.0035 221.674 70.6111ZM229.422 76.3161C230.198 76.3161 230.89 76.1586 231.498 75.8435C232.105 75.5285 232.606 75.1065 233 74.5776L231.852 73.6999C231.593 74.0825 231.256 74.3891 230.84 74.6198C230.423 74.8505 229.956 74.9658 229.439 74.9658C228.977 74.9658 228.555 74.8814 228.173 74.7127C227.79 74.5439 227.461 74.316 227.185 74.0291C226.91 73.7421 226.693 73.3989 226.535 72.9995C226.378 72.6 226.299 72.1752 226.299 71.7251C226.299 71.275 226.378 70.8531 226.535 70.4592C226.693 70.0654 226.907 69.7222 227.177 69.4296C227.447 69.137 227.776 68.9064 228.164 68.7376C228.552 68.5688 228.972 68.4844 229.422 68.4844C229.939 68.4844 230.409 68.5997 230.831 68.8304C231.253 69.0611 231.593 69.3677 231.852 69.7503L233 68.8726C232.606 68.355 232.103 67.9358 231.489 67.6151C230.876 67.2945 230.187 67.1341 229.422 67.1341C228.724 67.1341 228.088 67.2579 227.514 67.5054C226.941 67.753 226.454 68.0849 226.054 68.5013C225.655 68.9176 225.345 69.4043 225.126 69.9613C224.907 70.5183 224.797 71.1062 224.797 71.7251C224.797 72.344 224.907 72.9319 225.126 73.4889C225.345 74.0459 225.655 74.5326 226.054 74.949C226.454 75.3653 226.941 75.6972 227.514 75.9448C228.088 76.1924 228.724 76.3161 229.422 76.3161Z" fill="white"/>
<path d="M105.56 95.0184V89.6829H109.633V87.5018H105.56V84.5816H110.354V82.4005H103V95.0184H105.56ZM114.212 95.0184V89.3223C114.38 89.046 114.648 88.7816 115.014 88.5292C115.38 88.2769 115.84 88.1507 116.393 88.1507C116.597 88.1507 116.781 88.1627 116.943 88.1867C117.105 88.2108 117.258 88.2408 117.402 88.2769V85.8795C117.294 85.8434 117.174 85.8134 117.042 85.7893C116.91 85.7653 116.765 85.7533 116.609 85.7533C116.092 85.7533 115.639 85.8584 115.248 86.0687C114.858 86.279 114.512 86.5344 114.212 86.8348V85.9335H111.923V95.0184H114.212ZM121.404 95.3789C121.933 95.3789 122.444 95.2678 122.936 95.0454C123.429 94.8231 123.82 94.5317 124.108 94.1712V95.0184H126.415V89.1421C126.415 88.6494 126.331 88.1837 126.163 87.7451C125.995 87.3065 125.745 86.928 125.415 86.6095C125.084 86.2911 124.667 86.0387 124.162 85.8524C123.657 85.6662 123.08 85.573 122.432 85.573C121.614 85.573 120.878 85.7353 120.223 86.0597C119.568 86.3842 119.037 86.8228 118.628 87.3756L120.323 88.6554C120.527 88.3069 120.806 88.0395 121.161 87.8533C121.515 87.667 121.915 87.5739 122.359 87.5739C122.876 87.5739 123.297 87.7151 123.621 87.9975C123.946 88.2799 124.108 88.6614 124.108 89.1421V89.3764L121.368 89.8451C120.395 90.0013 119.647 90.3318 119.124 90.8365C118.601 91.3412 118.34 91.936 118.34 92.621C118.34 93.4742 118.625 94.1472 119.196 94.6399C119.767 95.1326 120.503 95.3789 121.404 95.3789ZM121.873 93.5403C121.488 93.5403 121.182 93.4442 120.953 93.2519C120.725 93.0596 120.611 92.8193 120.611 92.5309C120.611 92.2425 120.716 92.0021 120.926 91.8099C121.137 91.6176 121.482 91.4794 121.963 91.3953L124.108 91.0167V92.2605C123.88 92.633 123.579 92.9395 123.207 93.1798C122.834 93.4201 122.389 93.5403 121.873 93.5403ZM131.318 95.0184V89.088C131.486 88.7996 131.736 88.5022 132.066 88.1958C132.397 87.8893 132.85 87.7361 133.427 87.7361C133.98 87.7361 134.415 87.9134 134.734 88.2679C135.052 88.6224 135.212 89.1 135.212 89.7009V95.0184H137.537V89.6108C137.537 88.9378 137.444 88.349 137.257 87.8443C137.071 87.3395 136.819 86.9189 136.5 86.5825C136.182 86.246 135.809 85.9936 135.383 85.8254C134.956 85.6572 134.497 85.573 134.004 85.573C133.403 85.573 132.883 85.6782 132.445 85.8885C132.006 86.0988 131.631 86.3541 131.318 86.6546V85.9335H129.029V95.0184H131.318ZM144.495 95.3789C145.324 95.3789 146.066 95.2107 146.721 94.8742C147.376 94.5377 147.914 94.0931 148.334 93.5403L146.514 92.1524C146.297 92.4648 146.018 92.7202 145.675 92.9184C145.333 93.1167 144.939 93.2159 144.495 93.2159C143.738 93.2159 143.11 92.9575 142.611 92.4408C142.112 91.924 141.863 91.2691 141.863 90.476C141.863 89.6829 142.109 89.0279 142.602 88.5112C143.095 87.9945 143.714 87.7361 144.459 87.7361C144.927 87.7361 145.333 87.8352 145.675 88.0335C146.018 88.2318 146.297 88.4872 146.514 88.7996L148.334 87.4116C147.914 86.8589 147.376 86.4142 146.721 86.0778C146.066 85.7413 145.324 85.573 144.495 85.573C143.714 85.573 143.011 85.7052 142.386 85.9696C141.761 86.234 141.235 86.5885 140.809 87.0331C140.382 87.4777 140.054 87.9975 139.826 88.5923C139.598 89.1872 139.484 89.815 139.484 90.476C139.484 91.1369 139.598 91.7648 139.826 92.3596C140.054 92.9545 140.382 93.4742 140.809 93.9189C141.235 94.3635 141.761 94.718 142.386 94.9824C143.011 95.2467 143.714 95.3789 144.495 95.3789ZM154.084 95.3789C154.938 95.3789 155.707 95.2137 156.392 94.8832C157.077 94.5528 157.629 94.1051 158.05 93.5403L156.41 92.2425C156.169 92.5669 155.851 92.8283 155.454 93.0266C155.058 93.2249 154.613 93.324 154.12 93.324C153.351 93.324 152.72 93.1137 152.228 92.6931C151.735 92.2725 151.453 91.6897 151.38 90.9446H157.743C157.78 90.7884 157.813 90.5961 157.843 90.3678C157.873 90.1395 157.888 89.8992 157.888 89.6468C157.888 88.4571 157.503 87.4807 156.734 86.7177C155.965 85.9546 154.956 85.573 153.706 85.573C152.961 85.573 152.3 85.7022 151.723 85.9606C151.146 86.219 150.659 86.5704 150.263 87.0151C149.866 87.4597 149.563 87.9794 149.353 88.5743C149.142 89.1691 149.037 89.803 149.037 90.476C149.037 91.1369 149.148 91.7648 149.371 92.3596C149.593 92.9545 149.917 93.4742 150.344 93.9189C150.771 94.3635 151.299 94.718 151.93 94.9824C152.561 95.2467 153.279 95.3789 154.084 95.3789ZM155.616 89.2142H151.525C151.681 88.6254 151.945 88.1897 152.318 87.9073C152.69 87.6249 153.153 87.4837 153.706 87.4837C154.307 87.4837 154.772 87.661 155.103 88.0155C155.433 88.37 155.604 88.7696 155.616 89.2142ZM166.306 95.3789C167.447 95.3789 168.475 95.1446 169.388 94.6759C170.301 94.2073 171.046 93.5824 171.623 92.8013L169.604 91.2511C169.244 91.7678 168.784 92.1854 168.225 92.5038C167.667 92.8223 167.027 92.9815 166.306 92.9815C165.717 92.9815 165.17 92.8704 164.665 92.6481C164.161 92.4257 163.731 92.1253 163.376 91.7468C163.022 91.3682 162.743 90.9176 162.538 90.3949C162.334 89.8721 162.232 89.3103 162.232 88.7095C162.232 88.1086 162.334 87.5468 162.538 87.0241C162.743 86.5014 163.022 86.0507 163.376 85.6722C163.731 85.2936 164.161 84.9932 164.665 84.7709C165.17 84.5486 165.717 84.4374 166.306 84.4374C167.027 84.4374 167.667 84.5967 168.225 84.9151C168.784 85.2336 169.244 85.6511 169.604 86.1679L171.623 84.5997C171.046 83.8426 170.301 83.2267 169.388 82.752C168.475 82.2774 167.447 82.04 166.306 82.04C165.32 82.04 164.413 82.2203 163.584 82.5808C162.755 82.9413 162.046 83.422 161.457 84.0228C160.868 84.6237 160.411 85.3297 160.087 86.1408C159.762 86.952 159.6 87.8082 159.6 88.7095C159.6 89.6108 159.762 90.467 160.087 91.2781C160.411 92.0893 160.868 92.7953 161.457 93.3961C162.046 93.997 162.755 94.4776 163.584 94.8382C164.413 95.1987 165.32 95.3789 166.306 95.3789ZM177.68 95.3789C178.413 95.3789 179.086 95.2497 179.699 94.9914C180.311 94.733 180.837 94.3845 181.276 93.9459C181.714 93.5073 182.054 92.9875 182.294 92.3867C182.535 91.7858 182.655 91.1489 182.655 90.476C182.655 89.803 182.535 89.1661 182.294 88.5653C182.054 87.9644 181.714 87.4447 181.276 87.0061C180.837 86.5674 180.311 86.219 179.699 85.9606C179.086 85.7022 178.413 85.573 177.68 85.573C176.947 85.573 176.274 85.7022 175.661 85.9606C175.048 86.219 174.522 86.5674 174.084 87.0061C173.645 87.4447 173.306 87.9644 173.065 88.5653C172.825 89.1661 172.705 89.803 172.705 90.476C172.705 91.1489 172.825 91.7858 173.065 92.3867C173.306 92.9875 173.645 93.5073 174.084 93.9459C174.522 94.3845 175.048 94.733 175.661 94.9914C176.274 95.2497 176.947 95.3789 177.68 95.3789ZM177.716 93.2159C176.959 93.2159 176.331 92.9575 175.832 92.4408C175.333 91.924 175.084 91.2691 175.084 90.476C175.084 89.6829 175.333 89.0279 175.832 88.5112C176.331 87.9945 176.959 87.7361 177.716 87.7361C178.437 87.7361 179.044 87.9945 179.536 88.5112C180.029 89.0279 180.275 89.6829 180.275 90.476C180.275 91.2571 180.029 91.909 179.536 92.4317C179.044 92.9545 178.437 93.2159 177.716 93.2159ZM187.035 95.0184V89.088C187.203 88.7996 187.453 88.5022 187.783 88.1958C188.113 87.8893 188.567 87.7361 189.144 87.7361C189.697 87.7361 190.132 87.9134 190.451 88.2679C190.769 88.6224 190.928 89.1 190.928 89.7009V95.0184H193.254V89.6108C193.254 88.9378 193.161 88.349 192.974 87.8443C192.788 87.3395 192.536 86.9189 192.217 86.5825C191.899 86.246 191.526 85.9936 191.1 85.8254C190.673 85.6572 190.213 85.573 189.721 85.573C189.12 85.573 188.6 85.6782 188.162 85.8885C187.723 86.0988 187.347 86.3541 187.035 86.6546V85.9335H184.746V95.0184H187.035ZM198.139 95.0184V89.088C198.307 88.7996 198.556 88.5022 198.887 88.1958C199.217 87.8893 199.671 87.7361 200.248 87.7361C200.8 87.7361 201.236 87.9134 201.554 88.2679C201.873 88.6224 202.032 89.1 202.032 89.7009V95.0184H204.357V89.6108C204.357 88.9378 204.264 88.349 204.078 87.8443C203.892 87.3395 203.639 86.9189 203.321 86.5825C203.003 86.246 202.63 85.9936 202.203 85.8254C201.777 85.6572 201.317 85.573 200.824 85.573C200.224 85.573 199.704 85.6782 199.265 85.8885C198.827 86.0988 198.451 86.3541 198.139 86.6546V85.9335H195.849V95.0184H198.139ZM211.351 95.3789C212.205 95.3789 212.974 95.2137 213.659 94.8832C214.344 94.5528 214.896 94.1051 215.317 93.5403L213.677 92.2425C213.436 92.5669 213.118 92.8283 212.721 93.0266C212.325 93.2249 211.88 93.324 211.387 93.324C210.618 93.324 209.987 93.1137 209.495 92.6931C209.002 92.2725 208.72 91.6897 208.648 90.9446H215.011C215.047 90.7884 215.08 90.5961 215.11 90.3678C215.14 90.1395 215.155 89.8992 215.155 89.6468C215.155 88.4571 214.77 87.4807 214.001 86.7177C213.232 85.9546 212.223 85.573 210.973 85.573C210.228 85.573 209.567 85.7022 208.99 85.9606C208.413 86.219 207.927 86.5704 207.53 87.0151C207.133 87.4597 206.83 87.9794 206.62 88.5743C206.409 89.1691 206.304 89.803 206.304 90.476C206.304 91.1369 206.415 91.7648 206.638 92.3596C206.86 92.9545 207.184 93.4742 207.611 93.9189C208.038 94.3635 208.566 94.718 209.197 94.9824C209.828 95.2467 210.546 95.3789 211.351 95.3789ZM212.884 89.2142H208.792C208.948 88.6254 209.212 88.1897 209.585 87.9073C209.957 87.6249 210.42 87.4837 210.973 87.4837C211.574 87.4837 212.039 87.661 212.37 88.0155C212.7 88.37 212.872 88.7696 212.884 89.2142ZM221.68 95.3789C222.509 95.3789 223.251 95.2107 223.906 94.8742C224.561 94.5377 225.099 94.0931 225.519 93.5403L223.699 92.1524C223.483 92.4648 223.203 92.7202 222.861 92.9184C222.518 93.1167 222.125 93.2159 221.68 93.2159C220.923 93.2159 220.295 92.9575 219.796 92.4408C219.298 91.924 219.048 91.2691 219.048 90.476C219.048 89.6829 219.295 89.0279 219.787 88.5112C220.28 87.9945 220.899 87.7361 221.644 87.7361C222.113 87.7361 222.518 87.8352 222.861 88.0335C223.203 88.2318 223.483 88.4872 223.699 88.7996L225.519 87.4116C225.099 86.8589 224.561 86.4142 223.906 86.0778C223.251 85.7413 222.509 85.573 221.68 85.573C220.899 85.573 220.196 85.7052 219.571 85.9696C218.946 86.234 218.42 86.5885 217.994 87.0331C217.567 87.4777 217.24 87.9975 217.011 88.5923C216.783 89.1872 216.669 89.815 216.669 90.476C216.669 91.1369 216.783 91.7648 217.011 92.3596C217.24 92.9545 217.567 93.4742 217.994 93.9189C218.42 94.3635 218.946 94.718 219.571 94.9824C220.196 95.2467 220.899 95.3789 221.68 95.3789ZM231.252 95.1987C231.624 95.1987 231.952 95.1746 232.234 95.1266C232.516 95.0785 232.772 95.0064 233 94.9103V92.9094C232.844 92.9695 232.658 93.0176 232.441 93.0536C232.225 93.0897 231.961 93.1077 231.648 93.1077C231.203 93.1077 230.852 92.9996 230.594 92.7832C230.335 92.5669 230.206 92.2064 230.206 91.7017V88.0245H232.982V85.9335H230.206V83.6623H227.899V85.9335H226.204V88.0245H227.899V91.7017C227.899 92.8073 228.175 93.6665 228.728 94.2794C229.281 94.8922 230.122 95.1987 231.252 95.1987Z" fill="white"/>
<path d="M68.3645 54.8672C68.1222 54.7226 67.6859 54.7226 67.4435 54.8672L46.2117 67.06C45.9693 67.2046 45.7754 67.5419 45.7754 67.8311V92.1684C45.7754 92.4576 45.9693 92.7949 46.2117 92.9395L67.4435 105.132C67.6859 105.277 68.1222 105.277 68.3645 105.132L89.5964 92.9395C89.8388 92.7949 90.0327 92.4576 90.0327 92.1684V67.8311C90.0327 67.5419 89.8388 67.2046 89.5964 67.06L68.3645 54.8672Z" fill="white"/>
<path d="M67.8718 99.6779L51.2819 90.1571C51.0885 90.0604 50.9434 89.7704 50.9434 89.5771V70.8253C50.9434 70.5837 51.0885 70.3421 51.2819 70.2454L67.8718 60.5518" fill="#0063CB"/>
<path d="M50.9452 89.4935L50.9434 70.7159C50.9434 70.4739 51.0885 70.2319 51.2819 70.1351L67.8718 60.5527" fill="#000091"/>
<path d="M57.4863 66.7842L51.4824 70.3887L51.3389 70.0996L57.3018 66.6553L57.4863 66.7842Z" fill="#E1000F"/>
<path d="M67.8691 99.6781L84.4613 90.0444C84.6548 89.9479 84.7999 89.6583 84.7999 89.4652V70.7366C84.7999 70.4953 84.6548 70.2539 84.4613 70.1574L67.8715 60.5518" fill="#000091"/>
<path d="M84.7991 89.4925L84.8005 70.7293C84.8005 70.4881 84.6554 70.2469 84.4619 70.1505L67.8721 60.5518" fill="#E1000F"/>
<path d="M84.2812 70.0459L84.1406 70.333L78.0586 66.6758L78.2393 66.5508L84.2812 70.0459Z" fill="#0063CB"/>
<path fill-rule="evenodd" clip-rule="evenodd" d="M74.1598 69.5674C74.5494 69.7626 74.9113 70.0135 75.1619 70.4041C75.2731 70.5717 75.4125 70.8786 75.3289 71.1019C75.2173 71.3528 75.1619 71.7993 74.9113 71.883C74.6052 72.0506 74.1875 72.0506 73.7979 71.9946C73.5754 71.9946 73.3806 71.939 73.1577 71.883C73.9373 72.1899 74.6887 72.5804 75.2173 73.3062C75.2731 73.4175 75.4679 73.4735 75.6905 73.4735C75.7463 73.4735 75.7463 73.5851 75.7463 73.6408C75.635 73.7524 75.5237 73.8084 75.5792 73.9477H75.7463C75.9969 73.836 75.9691 73.3062 76.3307 73.4735C76.5813 73.6408 76.6925 74.0037 76.5535 74.2549C76.3307 74.4779 76.1359 74.6175 75.9133 74.7848C75.8575 74.8964 75.8575 75.036 75.9133 75.1477C76.0804 75.3709 76.1359 75.5662 76.1636 75.7895C76.3307 76.152 76.3865 76.5706 76.5258 76.9611C76.7483 77.7425 76.9431 78.5516 76.8873 79.3331C76.8873 79.7516 76.6648 80.1142 76.8319 80.5327C76.9431 80.9512 77.1934 81.2581 77.4163 81.6487C77.6388 81.9559 77.8336 82.1789 78.0007 82.4861C78.0685 82.6038 78.1503 82.7214 78.2338 82.8402L78.3174 82.9592C78.5797 83.3374 78.8172 83.7283 78.6409 84.1599C78.4738 84.5228 77.9171 84.4672 77.5275 84.6901C77.2215 84.9414 77.4721 85.3879 77.6388 85.6388C77.8894 86.1133 77.3327 86.4203 76.9431 86.5875C77.0544 86.7552 77.2492 86.6992 77.3046 86.8108C77.3605 87.0617 77.6111 87.2293 77.4721 87.5082C77.4081 87.5961 77.3128 87.6723 77.2161 87.7475L77.1436 87.8042C76.9289 87.9739 76.7462 88.1518 76.9431 88.457C77.1657 88.8199 77.0267 89.238 76.8873 89.6289C76.7203 90.1031 76.3029 90.3264 75.9411 90.4104C75.635 90.5217 75.2451 90.5217 74.9394 90.466C74.8277 90.4104 74.7165 90.3544 74.6329 90.3544C73.7421 90.2428 72.8517 89.9915 71.9612 89.9915C71.7106 90.0475 71.4323 90.1031 71.2375 90.1871C70.9869 90.3544 70.7921 90.5497 70.5973 90.7449C70.5696 90.8009 70.5138 90.8286 70.486 90.8846C70.4583 90.9126 70.4306 90.9402 70.4306 90.9682L70.4139 90.9849L70.3911 91.0075C70.3869 91.0118 70.3815 91.0171 70.3748 91.0238C70.2077 91.2195 70.0964 91.4147 69.9574 91.6377C69.9574 91.6657 69.9294 91.6657 69.9294 91.6657C69.9294 91.6936 69.9016 91.7216 69.8739 91.7493C69.7065 92.0565 69.5675 92.3911 69.484 92.726C69.1221 93.9256 69.2892 94.9583 69.5398 95.2096C69.7065 95.3769 71.711 95.997 73.4738 96.5737C70.3937 99.1406 67.9043 100.424 66.0054 100.424C63.3831 100.424 58.985 98.6852 52.8111 95.2073C54.3055 95.2073 54.0928 95.805 55.4845 95.1093C56.1524 94.8311 57.6554 94.1354 58.1566 93.6347C58.4626 93.3285 58.7687 93.0226 59.047 92.6888C59.6037 92.0488 60.1603 91.4644 60.8006 90.9076C60.9953 90.741 61.1901 90.5738 61.3849 90.4625C61.4408 90.4068 61.4408 90.2956 61.4962 90.2399C61.246 90.3512 61.0785 90.5461 60.8006 90.6574C60.7447 90.6574 60.6893 90.6018 60.7447 90.5461C60.9395 90.4068 61.1343 90.2679 61.3014 90.1286H61.2737C61.2179 90.1286 61.2179 90.073 61.2179 90.0174C60.5222 89.9061 60.021 90.3792 59.5479 90.7963C59.4366 90.8523 59.3254 90.741 59.2976 90.741C58.5181 90.9912 57.9337 91.6869 57.1545 91.9931V91.8815C56.8484 91.9931 56.542 92.1877 56.2082 92.2433C55.7351 92.3546 55.3174 92.299 54.9001 92.299C54.2599 92.3546 53.6197 92.4939 52.9795 92.6331C52.9518 92.6331 52.9518 92.6332 52.9241 92.6608C52.5899 92.7441 52.2561 92.8834 51.9497 93.0503L51.922 93.0783C51.8943 93.1059 51.8662 93.1339 51.8385 93.1616C51.7272 93.2728 51.6159 93.4121 51.4766 93.4677C51.1428 93.6347 50.8922 93.9129 50.6139 94.1634C50.5861 94.1911 50.5584 94.1911 50.5303 94.1911C50.252 94.4696 50.5861 93.6347 50.8922 93.4397C50.8645 93.4397 50.8087 93.4121 50.8364 93.3845C50.8645 93.3285 50.8922 93.3008 50.9199 93.2452C50.9199 93.2172 50.9199 93.2172 50.9476 93.1895L50.9434 93.1729L50.9245 93.1502C50.9217 93.146 50.9199 93.141 50.9199 93.1339C50.8364 93.1895 50.7532 93.2452 50.6697 93.3008C50.5303 93.4121 50.5861 92.7721 50.7251 92.6888H50.6974C50.8922 92.5772 51.1151 92.4659 51.3099 92.3546L51.3931 92.2713C51.087 92.3826 50.8364 92.5219 50.5584 92.6888C50.5584 92.6888 50.5584 92.4939 50.6419 92.4106C50.6974 92.4106 50.7532 92.4106 50.7532 92.4659C51.7624 91.6883 52.9884 91.4814 54.2261 91.301L54.5638 91.2521C55.2954 91.1454 56.0245 91.0309 56.7091 90.7963C56.8762 90.685 57.0152 90.5738 57.1822 90.4905C57.4328 90.3792 57.6554 90.1286 57.9614 89.9617C58.3791 89.6555 58.6852 89.266 58.8522 88.7653C58.8522 88.7096 58.7968 88.654 58.7968 88.654C58.1008 89.3773 57.3216 89.9617 56.4866 90.3792C55.3732 90.9636 54.1764 90.8523 53.0076 91.0192C53.063 90.9076 53.1747 90.9076 53.2578 90.9076C53.2578 90.741 53.3691 90.685 53.4804 90.6018H53.6478C53.7032 90.6018 53.7032 90.4905 53.7591 90.4905C53.8703 90.4905 54.037 90.4348 53.9816 90.4348C53.8145 90.2119 53.5085 90.6018 53.2578 90.4348C53.3691 90.3236 53.3137 90.1843 53.4249 90.1286H53.6478C53.6478 90.0174 53.7591 89.9061 53.7591 89.9061C54.5382 89.433 55.2897 89.0715 56.0131 88.654C55.8464 88.654 55.7628 88.8209 55.5958 88.7096C55.7074 88.7096 55.5958 88.5427 55.7074 88.5427C56.2918 88.3758 56.7649 88.0696 57.3493 87.847C57.1268 87.847 56.9874 88.014 56.7649 87.847C56.8762 87.7914 56.9316 87.6801 57.071 87.6801V87.5132C57.071 87.4572 57.1268 87.4572 57.1822 87.4572C57.1268 87.4572 57.071 87.4019 57.071 87.4019C57.1268 87.2903 57.2938 87.3463 57.377 87.235C57.3216 87.235 57.2103 87.235 57.2103 87.179C57.377 86.9565 57.6276 86.9288 57.906 86.8732C57.8502 86.7619 57.6834 86.8732 57.6834 86.7619C57.6834 86.714 57.724 86.7073 57.7709 86.7062H57.6834C57.5718 86.6506 57.6276 86.5393 57.6276 86.4833C57.9337 86.1219 57.9337 85.6487 58.1008 85.2313C58.045 85.2313 57.9895 85.2313 57.9895 85.176C57.4606 85.76 56.6256 85.9549 55.8464 86.1775H55.4845C55.2343 86.2888 54.8443 86.2888 54.5941 86.1219C54.3712 86.0106 54.2876 85.8713 54.0651 85.7044C53.6478 85.4542 53.2301 85.2313 52.757 85.0647C51.4489 84.6472 50.0853 84.4243 48.7213 84.4803C49.3057 84.1741 49.9459 84.1461 50.5584 83.9515C51.4489 83.701 52.2839 83.3671 53.2301 83.4228C53.063 83.3671 52.8682 83.4228 52.7015 83.4228C51.9774 83.3671 51.2263 83.5897 50.4468 83.729C49.9179 83.8399 49.4447 84.0348 48.9161 84.1461C48.6101 84.2574 48.443 84.5636 48.0811 84.5079V84.341C48.6101 83.701 49.2503 83.0889 50.0853 83.0333C51.0315 82.866 51.922 83.0333 52.8682 83.1446C53.5643 83.2002 54.1764 83.3671 54.872 83.5064C55.1226 83.5064 55.1784 83.9235 55.401 83.9792C55.7074 84.0905 56.0412 83.9792 56.3472 84.2017C56.3472 84.0905 56.2918 83.9792 56.3472 83.8959C56.5698 83.6733 56.8204 83.9515 57.0429 83.8399C57.4606 83.5897 56.6814 83.1166 56.4585 82.7271C56.4585 82.6715 56.5143 82.6158 56.5143 82.6158C56.9316 82.9777 57.238 83.3951 57.767 83.6733C58.0172 83.7846 58.6574 83.9235 58.5458 83.6177C58.2956 83.0333 57.767 82.5602 57.3216 82.0314V81.8089C57.2103 81.8089 57.2103 81.7532 57.1545 81.6976V81.475C56.9316 81.3637 56.9874 81.1688 56.9039 81.0019C56.7372 80.7517 56.8484 80.3619 56.7372 80.056C56.6256 79.7498 56.5698 79.4716 56.5143 79.1654C56.3472 78.2752 56.1524 77.4959 56.0412 76.6333C55.9299 75.6318 56.6256 74.8525 57.0987 73.9622C57.4606 73.3222 57.8782 72.7101 58.5739 72.2927C58.741 71.6526 59.1583 71.1239 59.5756 70.6231C59.9933 70.122 60.6893 69.7885 61.1901 69.5656C61.862 69.2559 62.2178 69.1463 62.5719 69.04C62.574 69.0393 62.5793 69.0379 62.5815 69.0368C63.0958 68.8114 69.8497 67.3939 73.13 69.0368C73.1997 69.0719 73.1858 69.0368 73.4083 69.1765C73.6589 69.3161 73.965 69.4834 74.1598 69.5674ZM48.6771 84.8285C48.6771 85.0731 48.5123 85.2911 48.2655 85.3452C48.6771 85.454 49.0887 85.454 49.5007 85.6445C49.4456 85.7533 49.3359 85.6989 49.2812 85.6989C49.528 85.8622 49.8576 85.7533 50.1048 85.9439C49.94 86.1071 49.8029 85.9439 49.6381 85.9439C51.2576 86.4062 52.9595 86.76 54.3048 87.794C53.152 88.3654 51.9715 88.61 50.7363 88.882C50.5715 88.882 50.4891 88.882 50.3243 88.8276C50.3243 88.882 50.3243 88.9908 50.2696 88.9908C50.0497 88.9908 49.9123 88.9908 49.7479 89.0996C49.5554 89.2628 49.2538 89.3176 49.0887 89.154C49.034 89.0996 49.2538 89.154 49.3085 89.0456H48.8969C48.8419 89.0456 48.8419 88.9908 48.8419 88.9367C48.5947 88.9908 48.2655 89.0996 48.0183 89.154C47.6613 89.2628 47.8261 87.4946 48.0733 87.3858C48.0183 87.3314 47.9085 87.3314 47.9085 87.2226C47.689 87.2226 47.6066 86.6782 47.7437 86.6512C47.9632 86.5968 48.2104 86.5968 48.3752 86.4335C48.0183 86.3791 47.9085 85.1005 48.5123 84.7738C48.5673 84.7738 48.6771 84.7738 48.6771 84.8285ZM51.0685 89.6342C50.7355 89.9751 50.3192 89.82 49.9589 89.9751C49.8476 89.9751 49.6535 90.037 49.7091 89.9131C49.7438 89.7387 49.8976 89.6736 50.0623 89.6188L50.1615 89.5864C50.2274 89.5643 50.2916 89.5414 50.3472 89.5103C50.4581 89.4483 50.5966 89.3244 50.7075 89.3864C50.8184 89.5722 50.9573 89.5103 51.0685 89.6342ZM49.1796 82.5065C49.1238 82.5065 49.0676 82.5065 49.0114 82.4505C49.0676 82.3946 49.0676 82.3386 49.0676 82.2826C48.5353 82.8701 47.331 82.6744 48.4513 82.1425C48.8716 81.9746 49.4035 82.0306 49.8238 82.1985C49.6557 82.4227 49.4035 82.3664 49.1796 82.5065ZM74.8118 79.0094C74.7633 79.0195 74.7144 79.0293 74.6662 79.0377C74.4112 79.0377 74.1275 79.2022 73.8722 79.257C73.5034 79.3667 73.1633 79.5588 72.8514 79.7781C73.2198 79.6136 73.5885 79.5588 74.0142 79.4764C74.326 79.4215 74.5814 79.3667 74.9215 79.4215C75.1483 79.4764 75.4605 79.4764 75.4605 79.586C75.3472 79.9975 74.723 80.1072 74.3829 80.5186H74.2127C74.0424 80.6283 74.0993 80.8749 73.9573 80.8749C73.787 80.8204 73.6454 80.8749 73.4752 80.9301C73.7019 81.1494 73.9573 81.2863 74.2692 81.2315C74.326 81.2315 74.4394 81.3412 74.4394 81.4508C74.4394 81.4508 74.4963 81.4508 74.5528 81.396C74.6097 81.396 74.6662 81.396 74.6662 81.4508V81.6702C74.5644 81.8019 74.4315 81.8151 74.2927 81.8165L74.1993 81.8169C74.1373 81.8172 74.0747 81.82 74.0142 81.8347C74.4394 81.9444 74.865 81.9444 75.2617 81.8347C75.5739 81.725 75.2617 81.2042 75.4888 80.9573C75.3754 80.9573 75.4888 80.7928 75.3754 80.7928C75.4888 80.6831 75.6022 80.5458 75.6873 80.491C75.8007 80.491 75.9427 80.4362 75.9995 80.3265C75.9995 80.2168 75.7724 80.162 75.8293 80.0799C76.1412 79.8606 76.4248 79.5588 76.3111 79.257C76.2545 79.0925 75.8293 79.0925 75.5739 78.9828C75.3972 78.907 75.1798 78.936 74.9592 78.9793L74.8118 79.0094Z" fill="white"/>
<path d="M228.637 113.672H228.477C227.872 113.671 227.272 113.793 226.715 114.029C226.586 112.468 225.653 111.086 224.254 110.384C222.854 109.681 221.189 109.758 219.86 110.587C219.311 109.645 218.437 108.934 217.401 108.589C216.366 108.244 215.24 108.288 214.235 108.712V102.533C214.235 100.913 213.37 99.417 211.968 98.6073C210.565 97.7976 208.837 97.7976 207.434 98.6073C206.032 99.417 205.168 100.913 205.168 102.533V119.223L204.971 118.923L204.878 118.791H204.877C204.107 117.852 202.986 117.267 201.775 117.175C200.563 117.083 199.367 117.491 198.464 118.304C197.641 119.051 197.126 120.078 197.02 121.185C196.914 122.291 197.226 123.397 197.892 124.286L207.934 139.87V146.33V146.33C207.934 147.107 208.564 147.736 209.34 147.736H227.971C228.747 147.736 229.377 147.107 229.377 146.33V139.898L232.949 134.872C233.12 134.634 233.212 134.349 233.212 134.056V118.201C233.21 116.992 232.725 115.835 231.866 114.985C231.007 114.135 229.845 113.662 228.637 113.672L228.637 113.672Z" fill="white"/>
<path d="M228.637 113.672H228.477C227.872 113.671 227.272 113.793 226.715 114.029C226.586 112.468 225.653 111.086 224.254 110.384C222.854 109.681 221.189 109.758 219.86 110.587C219.311 109.645 218.437 108.934 217.401 108.589C216.366 108.244 215.24 108.288 214.235 108.712V102.533C214.235 100.913 213.37 99.417 211.968 98.6073C210.565 97.7976 208.837 97.7976 207.434 98.6073C206.032 99.417 205.168 100.913 205.168 102.533V119.223L204.971 118.923L204.878 118.791H204.877C204.107 117.852 202.986 117.267 201.775 117.175C200.563 117.083 199.367 117.491 198.464 118.304C197.641 119.051 197.126 120.078 197.02 121.185C196.914 122.291 197.226 123.397 197.892 124.286L207.934 139.87V146.33V146.33C207.934 147.107 208.564 147.736 209.34 147.736H227.971C228.747 147.736 229.377 147.107 229.377 146.33V139.898L232.949 134.872C233.12 134.634 233.212 134.349 233.212 134.056V118.201C233.21 116.992 232.725 115.835 231.866 114.985C231.007 114.135 229.845 113.662 228.637 113.672L228.637 113.672ZM230.352 133.615L226.78 138.641C226.61 138.879 226.518 139.164 226.518 139.457V144.923H210.747V139.457C210.746 139.187 210.668 138.924 210.522 138.697L200.208 122.758L200.133 122.654C199.732 122.144 199.671 121.445 199.978 120.873C200.285 120.302 200.902 119.966 201.549 120.019C201.972 120.049 202.365 120.245 202.645 120.563L205.374 124.821V124.82C205.698 125.389 206.373 125.659 207 125.471C207.627 125.282 208.042 124.687 207.999 124.032V102.532C207.999 101.582 208.77 100.812 209.72 100.812C210.67 100.812 211.44 101.582 211.44 102.532V119.607C211.44 120.384 212.07 121.013 212.847 121.013C213.623 121.013 214.253 120.384 214.253 119.607V112.884C214.253 111.934 215.024 111.164 215.974 111.164C216.924 111.164 217.694 111.934 217.694 112.884V119.607C217.694 120.384 218.324 121.013 219.101 121.013C219.878 121.013 220.507 120.384 220.507 119.607V114.431C220.507 113.481 221.277 112.71 222.228 112.71C223.178 112.71 223.948 113.481 223.948 114.431V121.735C223.948 122.512 224.577 123.142 225.354 123.142C226.131 123.142 226.761 122.512 226.761 121.735V120.142V120.076V118.2C226.761 117.253 227.529 116.485 228.477 116.485H228.636C229.584 116.485 230.352 117.253 230.352 118.2L230.352 133.615Z" fill="black"/>
</g>
<defs>
<clipPath id="clip0_1094_44788">
<rect width="282" height="159" fill="white"/>
</clipPath>
</defs>
</svg>
