<svg xmlns="http://www.w3.org/2000/svg" width="1200" height="630" viewBox="0 0 1200 630">
      <defs>
        <radialGradient id="r" cx="70%" cy="20%" r="80%"><stop offset="0" stop-color="#123A68"/><stop offset="0.45" stop-color="#0C1628"/><stop offset="1" stop-color="#07111F"/></radialGradient>
        <linearGradient id="scan" x1="0" y1="0" x2="1" y2="1"><stop offset="0" stop-color="#2E6BFF" stop-opacity=".28"/><stop offset="1" stop-color="#18D8FF" stop-opacity=".06"/></linearGradient>
        <pattern id="grid" width="40" height="40" patternUnits="userSpaceOnUse"><path d="M40 0H0V40" fill="none" stroke="#EAF2FF" stroke-opacity="0.06" stroke-width="1"/></pattern>
      </defs>
      <rect width="1200" height="630" fill="url(#r)"/>
      <rect width="1200" height="630" fill="url(#grid)"/>
      <circle cx="850" cy="180" r="360" fill="url(#scan)"/>
      <g><line x1="100" y1="120" x2="260" y2="80" stroke="#18D8FF" stroke-opacity="0.16" stroke-width="2"/><line x1="260" y1="80" x2="430" y2="160" stroke="#18D8FF" stroke-opacity="0.16" stroke-width="2"/><line x1="430" y1="160" x2="610" y2="90" stroke="#18D8FF" stroke-opacity="0.16" stroke-width="2"/><line x1="610" y1="90" x2="780" y2="150" stroke="#18D8FF" stroke-opacity="0.16" stroke-width="2"/><line x1="780" y1="150" x2="960" y2="80" stroke="#18D8FF" stroke-opacity="0.16" stroke-width="2"/><line x1="960" y1="80" x2="1120" y2="140" stroke="#18D8FF" stroke-opacity="0.16" stroke-width="2"/><line x1="100" y1="120" x2="180" y2="320" stroke="#18D8FF" stroke-opacity="0.16" stroke-width="2"/><line x1="180" y1="320" x2="360" y2="280" stroke="#18D8FF" stroke-opacity="0.16" stroke-width="2"/><line x1="360" y1="280" x2="430" y2="160" stroke="#18D8FF" stroke-opacity="0.16" stroke-width="2"/><line x1="360" y1="280" x2="560" y2="360" stroke="#18D8FF" stroke-opacity="0.16" stroke-width="2"/><line x1="560" y1="360" x2="750" y2="300" stroke="#18D8FF" stroke-opacity="0.16" stroke-width="2"/><line x1="750" y1="300" x2="780" y2="150" stroke="#18D8FF" stroke-opacity="0.16" stroke-width="2"/><line x1="750" y1="300" x2="1000" y2="340" stroke="#18D8FF" stroke-opacity="0.16" stroke-width="2"/><line x1="1000" y1="340" x2="1180" y2="260" stroke="#18D8FF" stroke-opacity="0.16" stroke-width="2"/><line x1="180" y1="320" x2="130" y2="520" stroke="#18D8FF" stroke-opacity="0.16" stroke-width="2"/><line x1="130" y1="520" x2="330" y2="470" stroke="#18D8FF" stroke-opacity="0.16" stroke-width="2"/><line x1="330" y1="470" x2="520" y2="560" stroke="#18D8FF" stroke-opacity="0.16" stroke-width="2"/><line x1="520" y1="560" x2="560" y2="360" stroke="#18D8FF" stroke-opacity="0.16" stroke-width="2"/><line x1="520" y1="560" x2="760" y2="500" stroke="#18D8FF" stroke-opacity="0.16" stroke-width="2"/><line x1="760" y1="500" x2="940" y2="560" stroke="#18D8FF" stroke-opacity="0.16" stroke-width="2"/><line x1="940" y1="560" x2="1000" y2="340" stroke="#18D8FF" stroke-opacity="0.16" stroke-width="2"/><line x1="940" y1="560" x2="1110" y2="480" stroke="#18D8FF" stroke-opacity="0.16" stroke-width="2"/><circle cx="100" cy="120" r="5" fill="#2E6BFF" fill-opacity="0.8"/><circle cx="260" cy="80" r="5" fill="#18D8FF" fill-opacity="0.8"/><circle cx="430" cy="160" r="5" fill="#18D8FF" fill-opacity="0.8"/><circle cx="610" cy="90" r="5" fill="#2E6BFF" fill-opacity="0.8"/><circle cx="780" cy="150" r="5" fill="#18D8FF" fill-opacity="0.8"/><circle cx="960" cy="80" r="5" fill="#18D8FF" fill-opacity="0.8"/><circle cx="1120" cy="140" r="5" fill="#2E6BFF" fill-opacity="0.8"/><circle cx="180" cy="320" r="5" fill="#18D8FF" fill-opacity="0.8"/><circle cx="360" cy="280" r="5" fill="#18D8FF" fill-opacity="0.8"/><circle cx="560" cy="360" r="5" fill="#2E6BFF" fill-opacity="0.8"/><circle cx="750" cy="300" r="5" fill="#18D8FF" fill-opacity="0.8"/><circle cx="1000" cy="340" r="5" fill="#18D8FF" fill-opacity="0.8"/><circle cx="1180" cy="260" r="5" fill="#2E6BFF" fill-opacity="0.8"/><circle cx="130" cy="520" r="5" fill="#18D8FF" fill-opacity="0.8"/><circle cx="330" cy="470" r="5" fill="#18D8FF" fill-opacity="0.8"/><circle cx="520" cy="560" r="5" fill="#2E6BFF" fill-opacity="0.8"/><circle cx="760" cy="500" r="5" fill="#18D8FF" fill-opacity="0.8"/><circle cx="940" cy="560" r="5" fill="#18D8FF" fill-opacity="0.8"/><circle cx="1110" cy="480" r="5" fill="#2E6BFF" fill-opacity="0.8"/></g>
    </svg>