<svg xmlns="http://www.w3.org/2000/svg" width="1200" height="630" viewBox="0 0 1200 630">
      <rect width="1200" height="630" fill="#07111F"/>
      <g><path d="M-60 50 C 180 -20 250 120 470 50 S 800 -20 1040 50 S 1300 130 1460 30" fill="none" stroke="#18D8FF" stroke-width="2" stroke-opacity="0.080"/><path d="M-60 98 C 180 28 250 168 470 98 S 800 28 1040 98 S 1300 178 1460 78" fill="none" stroke="#18D8FF" stroke-width="2" stroke-opacity="0.086"/><path d="M-60 146 C 180 76 250 216 470 146 S 800 76 1040 146 S 1300 226 1460 126" fill="none" stroke="#18D8FF" stroke-width="2" stroke-opacity="0.092"/><path d="M-60 194 C 180 124 250 264 470 194 S 800 124 1040 194 S 1300 274 1460 174" fill="none" stroke="#18D8FF" stroke-width="2" stroke-opacity="0.098"/><path d="M-60 242 C 180 172 250 312 470 242 S 800 172 1040 242 S 1300 322 1460 222" fill="none" stroke="#18D8FF" stroke-width="2" stroke-opacity="0.104"/><path d="M-60 290 C 180 220 250 360 470 290 S 800 220 1040 290 S 1300 370 1460 270" fill="none" stroke="#18D8FF" stroke-width="2" stroke-opacity="0.110"/><path d="M-60 338 C 180 268 250 408 470 338 S 800 268 1040 338 S 1300 418 1460 318" fill="none" stroke="#18D8FF" stroke-width="2" stroke-opacity="0.116"/><path d="M-60 386 C 180 316 250 456 470 386 S 800 316 1040 386 S 1300 466 1460 366" fill="none" stroke="#18D8FF" stroke-width="2" stroke-opacity="0.122"/><path d="M-60 434 C 180 364 250 504 470 434 S 800 364 1040 434 S 1300 514 1460 414" fill="none" stroke="#18D8FF" stroke-width="2" stroke-opacity="0.128"/><path d="M-60 482 C 180 412 250 552 470 482 S 800 412 1040 482 S 1300 562 1460 462" fill="none" stroke="#18D8FF" stroke-width="2" stroke-opacity="0.134"/><path d="M-60 530 C 180 460 250 600 470 530 S 800 460 1040 530 S 1300 610 1460 510" fill="none" stroke="#18D8FF" stroke-width="2" stroke-opacity="0.140"/><path d="M-60 578 C 180 508 250 648 470 578 S 800 508 1040 578 S 1300 658 1460 558" fill="none" stroke="#18D8FF" stroke-width="2" stroke-opacity="0.146"/><path d="M-60 626 C 180 556 250 696 470 626 S 800 556 1040 626 S 1300 706 1460 606" fill="none" stroke="#18D8FF" stroke-width="2" stroke-opacity="0.152"/></g>
    </svg>