<svg width="800" height="600" viewBox="0 0 800 600" xmlns="http://www.w3.org/2000/svg" role="img" aria-labelledby="title desc">
  <title id="title">Illustration d'un tableau de bord de consommation responsable</title>
  <desc id="desc">Une composition abstraite représentant des cartes de produits, un graphique d'impact environnemental et un comparateur de prix.</desc>
  <defs>
    <linearGradient id="bg" x1="0" y1="0" x2="1" y2="1">
      <stop offset="0%" stop-color="#E3F2FD" />
      <stop offset="50%" stop-color="#E8F5E9" />
      <stop offset="100%" stop-color="#F3E5F5" />
    </linearGradient>
    <linearGradient id="card" x1="0" y1="0" x2="1" y2="1">
      <stop offset="0%" stop-color="#FFFFFF" stop-opacity="0.95" />
      <stop offset="100%" stop-color="#F1F5F9" stop-opacity="0.9" />
    </linearGradient>
    <linearGradient id="accent" x1="0" y1="0" x2="1" y2="1">
      <stop offset="0%" stop-color="#1976D2" />
      <stop offset="100%" stop-color="#43A047" />
    </linearGradient>
  </defs>
  <rect width="800" height="600" rx="48" fill="url(#bg)" />
  <g transform="translate(80 80)">
    <rect width="280" height="180" rx="20" fill="url(#card)" />
    <rect x="24" y="36" width="100" height="16" rx="8" fill="#1976D2" opacity="0.85" />
    <rect x="24" y="64" width="160" height="16" rx="8" fill="#43A047" opacity="0.75" />
    <rect x="24" y="100" width="220" height="16" rx="8" fill="#101828" opacity="0.12" />
    <rect x="24" y="132" width="160" height="16" rx="8" fill="#101828" opacity="0.12" />
    <circle cx="240" cy="48" r="32" fill="#FFFFFF" opacity="0.9" />
  </g>
  <g transform="translate(380 140)">
    <rect width="320" height="260" rx="28" fill="url(#card)" />
    <rect x="32" y="40" width="160" height="20" rx="10" fill="#101828" opacity="0.12" />
    <rect x="32" y="72" width="200" height="20" rx="10" fill="#101828" opacity="0.12" />
    <g transform="translate(32 120)">
      <polyline points="0,80 60,32 120,64 180,16" fill="none" stroke="url(#accent)" stroke-width="8" stroke-linecap="round" stroke-linejoin="round" />
      <circle cx="0" cy="80" r="8" fill="#1976D2" />
      <circle cx="60" cy="32" r="8" fill="#2196F3" />
      <circle cx="120" cy="64" r="8" fill="#43A047" />
      <circle cx="180" cy="16" r="8" fill="#4CAF50" />
    </g>
    <rect x="32" y="196" width="256" height="24" rx="12" fill="#1976D2" opacity="0.85" />
  </g>
  <g transform="translate(120 320)">
    <rect width="240" height="180" rx="24" fill="url(#card)" />
    <rect x="24" y="40" width="120" height="16" rx="8" fill="#101828" opacity="0.12" />
    <rect x="24" y="72" width="80" height="16" rx="8" fill="#43A047" opacity="0.7" />
    <rect x="24" y="112" width="160" height="16" rx="8" fill="#1976D2" opacity="0.7" />
  </g>
  <circle cx="660" cy="420" r="90" fill="url(#accent)" opacity="0.16" />
  <circle cx="620" cy="160" r="36" fill="#1976D2" opacity="0.2" />
  <circle cx="200" cy="520" r="28" fill="#43A047" opacity="0.18" />
</svg>
