<svg width="520" height="520" viewBox="0 0 520 520" fill="none" xmlns="http://www.w3.org/2000/svg">
  <rect width="520" height="520" rx="72" fill="#EEF4FA" />
  <rect x="60" y="86" width="280" height="64" rx="18" fill="#FFFFFF" stroke="#D2E4F5" stroke-width="2" />
  <rect x="60" y="170" width="400" height="64" rx="18" fill="#FFFFFF" stroke="#D2E4F5" stroke-width="2" />
  <rect x="60" y="254" width="340" height="64" rx="18" fill="#FFFFFF" stroke="#D2E4F5" stroke-width="2" />
  <rect x="60" y="338" width="280" height="64" rx="18" fill="#FFFFFF" stroke="#D2E4F5" stroke-width="2" />
  <circle cx="118" cy="118" r="16" fill="#7C3AED" opacity="0.18" />
  <circle cx="118" cy="202" r="16" fill="#DB2777" opacity="0.18" />
  <circle cx="118" cy="286" r="16" fill="#FB923C" opacity="0.22" />
  <circle cx="118" cy="370" r="16" fill="#0EA5E9" opacity="0.2" />
  <path d="M118 110L118 126" stroke="#7C3AED" stroke-width="4" stroke-linecap="round" />
  <path d="M118 194L118 210" stroke="#DB2777" stroke-width="4" stroke-linecap="round" />
  <path d="M118 278L118 294" stroke="#FB923C" stroke-width="4" stroke-linecap="round" />
  <path d="M118 362L118 378" stroke="#0EA5E9" stroke-width="4" stroke-linecap="round" />
  <rect x="150" y="108" width="140" height="20" rx="10" fill="#D4E3F5" />
  <rect x="150" y="192" width="220" height="20" rx="10" fill="#E9D5FF" />
  <rect x="150" y="276" width="260" height="20" rx="10" fill="#FEF3C7" />
  <rect x="150" y="360" width="200" height="20" rx="10" fill="#CFFAFE" />
  <rect x="250" y="36" width="210" height="48" rx="24" fill="#1976D2" opacity="0.12" />
  <rect x="250" y="36" width="210" height="48" rx="24" stroke="#1976D2" stroke-width="2" opacity="0.4" />
  <rect x="250" y="436" width="210" height="48" rx="24" fill="#1976D2" opacity="0.08" />
  <rect x="250" y="436" width="210" height="48" rx="24" stroke="#1976D2" stroke-width="2" opacity="0.4" />
  <circle cx="410" cy="258" r="70" fill="#FEE2E2" />
  <path d="M378 290L442 226" stroke="#EF4444" stroke-width="20" stroke-linecap="round" />
  <path d="M442 290L378 226" stroke="#EF4444" stroke-width="20" stroke-linecap="round" />
</svg>
