<?xml version="1.0" encoding="UTF-8"?>
<svg id="Calque_2" data-name="Calque 2" xmlns="http://www.w3.org/2000/svg" viewBox="0 0 372.12 312.07">
  <defs>
    <style>
      .cls-1 {
        opacity: .5;
      }

      .cls-1, .cls-2, .cls-3 {
        fill: #fff;
      }

      .cls-2 {
        opacity: .25;
      }

      .cls-3 {
        opacity: .75;
      }
    </style>
  </defs>
  <g id="_02_-_4_Boutons" data-name="02 - 4 Boutons">
    <g>
      <path class="cls-2" d="M39.16,172.15C46.35,96.78,110.33,37.97,187.84,39.02c80.84,1.09,145.28,66.46,145.28,147.31,0,35.61-12.64,68.27-33.67,93.73-5.18,6.27-5.94,15.07-1.84,22.09.07.12.14.23.2.35,6.77,11.63,23.03,12.89,31.61,2.52,26.87-32.46,42.94-74.19,42.71-119.67C371.6,82.44,286.84-1,183.93,0,86.64.96,7.2,76.48,0,172.15h39.16Z"/>
      <path class="cls-1" d="M356.25,110.98C327.32,45.61,261.88,0,185.8,0,87.66,0,7.24,75.87,0,172.15h39.16C46.29,97.44,109.21,39.01,185.8,39.01c60.69,0,112.81,36.71,135.37,89.13,2.71,7.63,9.97,13.1,18.52,13.1,10.86,0,19.67-8.81,19.67-19.67,0-3.9-1.15-7.53-3.11-10.58Z"/>
      <path class="cls-3" d="M183.86,20.89c0-10.78-8.74-19.51-19.51-19.51-1.7,0-3.34.24-4.91.65l-.04-.17C73.58,14.04,6.58,84.66,0,172.15h39.16c6.51-68.22,59.55-122.86,127.03-131.84.22-.02.43-.06.64-.08.56-.07,1.11-.15,1.67-.21v-.06c8.77-1.9,15.36-9.71,15.36-19.06Z"/>
    </g>
  </g>
</svg>