<?xml version="1.0" encoding="UTF-8"?>
<svg xmlns="http://www.w3.org/2000/svg" viewBox="0 0 310.8 323.07">
  <defs>
    <style>
      .cls-1, .cls-2, .cls-3 {
        fill: #fff;
      }

      .cls-2 {
        opacity: .25;
      }

      .cls-3 {
        opacity: .75;
      }

      .cls-4 {
        opacity: .5;
      }
    </style>
  </defs>
  <g id="_02_-_4_Boutons" data-name="02 - 4 Boutons">
    <g>
      <path class="cls-3" d="M253.39,0h-50.85c-11.43,0-21.99,6.1-27.7,15.99l-25.43,44.04c-5.71,9.9-5.71,22.09,0,31.98l25.43,44.04c5.71,9.9,16.27,15.99,27.7,15.99h50.85c11.43,0,21.99-6.1,27.7-15.99l25.43-44.04c5.71-9.9,5.71-22.09,0-31.98l-25.43-44.04c-5.71-9.9-16.27-15.99-27.7-15.99Z"/>
      <g class="cls-4">
        <path class="cls-1" d="M105.94,118.59l23.11,40.02-23.11,40.02h-46.21l-23.11-40.02,23.11-40.02h46.21M108.26,82.59h-50.85c-11.43,0-21.99,6.1-27.7,15.99l-25.43,44.04c-5.71,9.9-5.71,22.09,0,31.98l25.43,44.04c5.71,9.9,16.27,15.99,27.7,15.99h50.85c11.43,0,21.99-6.1,27.7-15.99l25.43-44.04c5.71-9.9,5.71-22.09,0-31.98l-25.43-44.04c-5.71-9.9-16.27-15.99-27.7-15.99h0Z"/>
      </g>
      <path class="cls-2" d="M253.39,171.03h-50.85c-11.43,0-21.99,6.1-27.7,15.99l-25.43,44.04c-5.71,9.9-5.71,22.09,0,31.98l25.43,44.04c5.71,9.9,16.27,15.99,27.7,15.99h50.85c11.43,0,21.99-6.1,27.7-15.99l25.43-44.04c5.71-9.9,5.71-22.09,0-31.98l-25.43-44.04c-5.71-9.9-16.27-15.99-27.7-15.99Z"/>
    </g>
  </g>
</svg>