<?xml version="1.0" encoding="UTF-8"?>
<svg xmlns="http://www.w3.org/2000/svg" viewBox="0 0 242.49 242.44">
  <defs>
    <style>
      .cls-1 {
        fill: #fff;
        opacity: .75;
      }
    </style>
  </defs>
  <g id="_02_-_4_Boutons" data-name="02 - 4 Boutons">
    <path class="cls-1" d="M34.24,208.2c-10.7-10.7-19.08-23.07-25.15-37.1C3.03,157.08,0,142.57,0,127.59s2.85-29.78,8.56-44.41c5.71-14.62,14.98-28.36,27.82-41.2,8.32-8.32,18.61-15.46,30.85-21.4,12.25-5.94,26.75-10.64,43.52-14.09C127.52,3.04,146.66.96,168.18.25c21.52-.71,45.6.12,72.23,2.5,1.9,25.21,2.5,48.39,1.78,69.56-.71,21.16-2.68,40.25-5.89,57.25s-7.73,31.87-13.55,44.59c-5.83,12.72-13.02,23.36-21.58,31.92-12.6,12.6-25.98,21.82-40.13,27.64-14.15,5.83-28.6,8.74-43.34,8.74s-30.56-3.03-45.3-9.1c-14.74-6.06-27.47-14.45-38.17-25.15ZM74.19,202.49c6.9,4.04,13.97,6.96,21.22,8.74,7.25,1.78,14.68,2.68,22.29,2.68,10.94,0,21.76-2.2,32.46-6.6,10.7-4.4,20.93-11.47,30.68-21.22,4.28-4.28,8.62-10.28,13.02-18.01,4.4-7.73,8.2-17.83,11.41-30.32s5.65-27.58,7.31-45.3c1.66-17.72,1.9-38.82.71-63.31-11.65-.48-24.79-.65-39.42-.54-14.62.12-29.19,1.25-43.7,3.39-14.51,2.14-28.3,5.59-41.38,10.34-13.08,4.76-23.78,11.3-32.1,19.62-10.7,10.7-18.07,21.28-22.12,31.75-4.04,10.46-6.06,20.57-6.06,30.32,0,14.03,2.68,26.34,8.03,36.92,5.35,10.58,10.05,18.01,14.09,22.29,9.99-19.02,23.19-37.27,39.59-54.75,16.41-17.48,35.55-31.81,57.43-42.98-17.12,14.98-32.04,31.92-44.77,50.83-12.72,18.9-22.29,40.96-28.71,66.17Z"/>
  </g>
</svg>