<?xml version="1.0" encoding="UTF-8"?>
<svg id="Calque_2" data-name="Calque 2" xmlns="http://www.w3.org/2000/svg" viewBox="0 0 37.39 37.34">
  <defs>
    <style>
      .cls-1 {
        fill: #004b64;
      }
    </style>
  </defs>
  <g id="_01_-_tuiles" data-name="01 - tuiles">
    <path class="cls-1" d="M16.8,9.34v-4.67c0-1.31.45-2.41,1.35-3.31s2.01-1.35,3.31-1.35h4.67v4.67c0,1.31-.45,2.41-1.35,3.31s-2.01,1.35-3.31,1.35h-4.67ZM6.54,20.54c-1.8,0-3.35-.64-4.62-1.91-1.28-1.28-1.91-2.82-1.91-4.62v-6.54h6.54c1.8,0,3.35.64,4.62,1.91,1.28,1.28,1.91,2.82,1.91,4.62v6.54h-6.54ZM26.14,37.34c-1.21,0-2.37-.19-3.48-.56s-2.11-.89-3.01-1.54l-1.54,1.54c-.34.34-.78.51-1.31.51s-.96-.17-1.31-.51-.51-.78-.51-1.31.17-.96.51-1.31l1.54-1.54c-.65-.9-1.17-1.91-1.54-3.01-.37-1.1-.56-2.26-.56-3.48,0-3.11,1.09-5.77,3.27-7.96,2.18-2.19,4.82-3.29,7.94-3.29h11.25v11.25c0,3.11-1.1,5.76-3.29,7.94-2.19,2.18-4.85,3.27-7.96,3.27ZM26.14,33.61c2.09,0,3.84-.73,5.27-2.19s2.15-3.22,2.15-5.27v-7.47h-7.42c-2.05,0-3.81.72-5.27,2.17-1.46,1.45-2.19,3.21-2.19,5.3,0,.72.09,1.39.26,2.03s.43,1.24.77,1.8l5.13-5.13c.34-.34.78-.51,1.31-.51s.96.17,1.31.51.51.78.51,1.31-.17.96-.51,1.31l-5.13,5.13c.56.34,1.16.6,1.8.77s1.31.26,2.03.26Z"/>
  </g>
</svg>