<?xml version="1.0" encoding="UTF-8"?>
<svg id="Calque_2" data-name="Calque 2" xmlns="http://www.w3.org/2000/svg" viewBox="0 0 42.95 35.48">
  <defs>
    <style>
      .cls-1 {
        fill: #004b64;
      }
    </style>
  </defs>
  <g id="_01_-_tuiles" data-name="01 - tuiles">
    <path class="cls-1" d="M30.25,23.34l7.1-6.07,5.6.47-8.22,7.14,2.43,10.6-4.76-2.89-2.15-9.24ZM25.86,9.71l-1.96-4.57,2.15-5.13,4.29,10.13-4.48-.42ZM12.79,27.68l5.88-3.55,5.88,3.59-1.54-6.72,5.18-4.48-6.82-.61-2.71-6.35-2.71,6.3-6.82.61,5.18,4.53-1.54,6.68ZM7.14,35.48l3.03-13.12L0,13.54l13.44-1.17L18.67,0l5.23,12.37,13.44,1.17-10.18,8.82,3.03,13.12-11.53-6.96-11.53,6.96Z"/>
  </g>
</svg>