<?xml version="1.0" encoding="UTF-8"?>
<svg id="Calque_2" data-name="Calque 2" xmlns="http://www.w3.org/2000/svg" viewBox="0 0 34.42 34.42">
  <defs>
    <style>
      .cls-1 {
        fill: #004b64;
      }
    </style>
  </defs>
  <g id="_01_-_tuiles" data-name="01 - tuiles">
    <path class="cls-1" d="M17.21,34.42c-2.38,0-4.62-.45-6.71-1.36s-3.91-2.13-5.46-3.68-2.77-3.37-3.68-5.46c-.9-2.09-1.36-4.33-1.36-6.71s.45-4.62,1.36-6.71c.9-2.09,2.13-3.91,3.68-5.46s3.37-2.77,5.46-3.68,4.33-1.36,6.71-1.36,4.62.45,6.71,1.36,3.91,2.13,5.46,3.68,2.77,3.37,3.68,5.46,1.36,4.33,1.36,6.71-.45,4.62-1.36,6.71-2.13,3.91-3.68,5.46-3.37,2.77-5.46,3.68-4.33,1.36-6.71,1.36ZM15.49,30.89v-3.36c-.95,0-1.76-.34-2.43-1.01-.67-.67-1.01-1.48-1.01-2.43v-1.72L3.79,14.11c-.09.52-.16,1.03-.24,1.55s-.11,1.03-.11,1.55c0,3.47,1.14,6.51,3.42,9.12,2.28,2.61,5.16,4.13,8.63,4.56ZM27.36,26.5c.57-.63,1.09-1.31,1.55-2.04.46-.73.84-1.49,1.14-2.28s.53-1.6.69-2.43.24-1.68.24-2.54c0-2.81-.78-5.38-2.34-7.7-1.56-2.32-3.65-4-6.26-5.03v.69c0,.95-.34,1.76-1.01,2.43s-1.48,1.01-2.43,1.01h-3.44v3.44c0,.49-.16.9-.49,1.23s-.74.49-1.23.49h-3.44v3.44h10.32c.49,0,.9.16,1.23.49s.49.74.49,1.23v5.16h1.72c.75,0,1.42.22,2.02.67s1.02,1.03,1.25,1.74Z"/>
  </g>
</svg>