<?xml version="1.0" encoding="UTF-8"?>
<svg xmlns="http://www.w3.org/2000/svg" viewBox="0 0 35.56 41.49">
  <defs>
    <style>
      .cls-1 {
        fill: #004b64;
      }
    </style>
  </defs>
  <g id="_01_-_Recherche_Boutons" data-name="01 - Recherche &amp;amp; Boutons">
    <path class="cls-1" d="M7.51,23.71l10.27,5.93,10.27-5.93-8.3-4.79v6.77h-3.95v-6.77l-8.3,4.79ZM15.81,14.37v-.84c-1.45-.43-2.63-1.24-3.56-2.44s-1.38-2.59-1.38-4.17c0-1.91.68-3.54,2.03-4.89,1.35-1.35,2.98-2.03,4.89-2.03s3.54.68,4.89,2.03,2.03,2.98,2.03,4.89c0,1.58-.46,2.97-1.38,4.17-.92,1.2-2.11,2.02-3.56,2.44v.84l13.83,7.95c.63.36,1.11.85,1.46,1.46s.52,1.28.52,2v3.75c0,.72-.17,1.39-.52,2s-.83,1.09-1.46,1.46l-13.83,7.95c-.63.36-1.28.54-1.98.54s-1.35-.18-1.98-.54l-13.83-7.95c-.63-.36-1.11-.85-1.46-1.46s-.52-1.28-.52-2v-3.75c0-.72.17-1.39.52-2s.83-1.09,1.46-1.46l13.83-7.95ZM15.81,33.04l-11.85-6.82v3.31l13.83,8,13.83-8v-3.31l-11.85,6.82c-.63.36-1.28.54-1.98.54s-1.35-.18-1.98-.54ZM17.78,9.88c.82,0,1.52-.29,2.1-.86.58-.58.86-1.28.86-2.1s-.29-1.52-.86-2.1c-.58-.58-1.28-.86-2.1-.86s-1.52.29-2.1.86-.86,1.28-.86,2.1.29,1.52.86,2.1,1.28.86,2.1.86Z"/>
  </g>
</svg>