<?xml version="1.0" encoding="UTF-8"?>
<svg id="Calque_2" data-name="Calque 2" xmlns="http://www.w3.org/2000/svg" viewBox="0 0 47.42 33.59">
  <defs>
    <style>
      .cls-1 {
        fill: #004b64;
      }
    </style>
  </defs>
  <g id="_01_-_Recherche_Boutons" data-name="01 - Recherche &amp;amp; Boutons">
    <path class="cls-1" d="M3.95,33.59c-1.09,0-2.02-.39-2.79-1.16-.77-.77-1.16-1.7-1.16-2.79h7.9c-1.09,0-2.02-.39-2.79-1.16-.77-.77-1.16-1.7-1.16-2.79V3.95c0-1.09.39-2.02,1.16-2.79s1.7-1.16,2.79-1.16h31.61c1.09,0,2.02.39,2.79,1.16s1.16,1.7,1.16,2.79v21.73c0,1.09-.39,2.02-1.16,2.79-.77.77-1.7,1.16-2.79,1.16h7.9c0,1.09-.39,2.02-1.16,2.79-.77.77-1.7,1.16-2.79,1.16H3.95ZM23.71,31.61c.56,0,1.03-.19,1.41-.57.38-.38.57-.85.57-1.41s-.19-1.03-.57-1.41c-.38-.38-.85-.57-1.41-.57s-1.03.19-1.41.57-.57.85-.57,1.41.19,1.03.57,1.41.85.57,1.41.57ZM7.9,25.68h31.61V3.95H7.9v21.73ZM7.9,25.68V3.95v21.73Z"/>
  </g>
</svg>