<?xml version="1.0" encoding="UTF-8"?>
<svg xmlns="http://www.w3.org/2000/svg" viewBox="0 0 26.4 41.49">
  <defs>
    <style>
      .cls-1 {
        fill: #004b64;
      }
    </style>
  </defs>
  <g id="_01_-_Recherche_Boutons" data-name="01 - Recherche &amp;amp; Boutons">
    <path class="cls-1" d="M3.77,41.49c-1.04,0-1.93-.37-2.66-1.11-.74-.74-1.11-1.63-1.11-2.66V3.77c0-1.04.37-1.93,1.11-2.66S2.73,0,3.77,0h18.86c1.04,0,1.93.37,2.66,1.11.74.74,1.11,1.63,1.11,2.66v33.95c0,1.04-.37,1.93-1.11,2.66-.74.74-1.63,1.11-2.66,1.11H3.77ZM3.77,32.06v5.66h18.86v-5.66H3.77ZM13.2,36.78c.53,0,.98-.18,1.34-.54.36-.36.54-.81.54-1.34s-.18-.98-.54-1.34c-.36-.36-.81-.54-1.34-.54s-.98.18-1.34.54-.54.81-.54,1.34.18.98.54,1.34.81.54,1.34.54ZM3.77,28.29h18.86V9.43H3.77v18.86ZM3.77,5.66h18.86v-1.89H3.77v1.89ZM3.77,32.06v5.66-5.66ZM3.77,5.66v-1.89,1.89Z"/>
  </g>
</svg>