<?xml version="1.0" encoding="UTF-8"?>
<svg xmlns="http://www.w3.org/2000/svg" viewBox="0 0 29.64 39.51">
  <defs>
    <style>
      .cls-1 {
        fill: #004b64;
      }
    </style>
  </defs>
  <g id="_01_-_Recherche_Boutons" data-name="01 - Recherche &amp;amp; Boutons">
    <path class="cls-1" d="M9.88,39.51c-1.09,0-2.02-.39-2.79-1.16-.77-.77-1.16-1.7-1.16-2.79v-1.98c0-1.55.34-2.98,1.01-4.3.68-1.32,1.56-2.42,2.64-3.31l-1.23-8.2H3.95c-1.09,0-2.02-.39-2.79-1.16-.77-.77-1.16-1.7-1.16-2.79v-7.9c0-1.09.39-2.02,1.16-2.79.77-.77,1.7-1.16,2.79-1.16h9.88V0h7.9v1.98h7.85l-3.61,24c1.09.89,1.97,1.99,2.64,3.31.68,1.32,1.01,2.75,1.01,4.3v1.98c0,1.09-.39,2.02-1.16,2.79s-1.7,1.16-2.79,1.16h-15.81ZM7.75,13.83l-1.19-7.9h-2.62v7.9h3.8ZM17.78,33.59c.56,0,1.03-.19,1.41-.57.38-.38.57-.85.57-1.41s-.19-1.03-.57-1.41c-.38-.38-.85-.57-1.41-.57s-1.03.19-1.41.57-.57.85-.57,1.41.19,1.03.57,1.41.85.57,1.41.57ZM13.24,23.71h9.09l2.67-17.78h-14.42l2.67,17.78ZM9.88,35.56h15.81v-1.98c0-1.65-.58-3.05-1.73-4.2-1.15-1.15-2.55-1.73-4.2-1.73h-3.95c-1.65,0-3.05.58-4.2,1.73s-1.73,2.55-1.73,4.2v1.98Z"/>
  </g>
</svg>