<svg xmlns="http://www.w3.org/2000/svg" viewBox="0 0 720 520" role="img" aria-label="Minimal fireworks illustration">
  <defs>
    <linearGradient id="sky" x1="0" y1="0" x2="0" y2="1">
      <stop offset="0%" stop-color="#0e1b3f" />
      <stop offset="100%" stop-color="#0b102c" />
    </linearGradient>
  </defs>
  <rect width="720" height="520" fill="url(#sky)" />
  <g stroke-width="6" stroke-linecap="round" fill="none">
    <g stroke="#ff3355">
      <path d="M180 170 l-10 -70" />
      <path d="M180 170 l70 -20" />
      <path d="M180 170 l-40 60" />
      <path d="M180 170 l10 80" />
    </g>
    <g stroke="#35c1ff">
      <path d="M360 140 l-20 -60" />
      <path d="M360 140 l70 10" />
      <path d="M360 140 l30 80" />
      <path d="M360 140 l-60 40" />
    </g>
    <g stroke="#ffffff">
      <path d="M540 190 l-30 -65" />
      <path d="M540 190 l60 -15" />
      <path d="M540 190 l15 80" />
      <path d="M540 190 l-75 35" />
    </g>
  </g>
  <g fill="#ffffff">
    <circle cx="120" cy="280" r="6" opacity="0.6" />
    <circle cx="170" cy="320" r="5" opacity="0.5" />
    <circle cx="240" cy="300" r="8" opacity="0.6" />
    <circle cx="300" cy="330" r="10" opacity="0.35" />
    <circle cx="420" cy="310" r="7" opacity="0.5" />
    <circle cx="500" cy="320" r="10" opacity="0.4" />
    <circle cx="580" cy="300" r="8" opacity="0.5" />
  </g>
  <rect y="360" width="720" height="70" fill="#111a35" />
  <rect y="430" width="720" height="90" fill="#0f162d" />
  <rect y="470" width="720" height="50" fill="#1a2f66" opacity="0.8" />
</svg>
