<?xml version="1.0" encoding="UTF-8"?><svg id="a" xmlns="http://www.w3.org/2000/svg" viewBox="0 0 141.7 85"><defs><style>.e{fill:#fff;}.f{isolation:isolate;}.g{fill:#e07329;}.h{fill:none;}.i{fill:#222221;}</style></defs><g id="b"><path class="i" d="m136.3,83.8h4.4v-1h-3.3v-2.7h2.8v-.9h-2.8v-2.6h3.3v-1h-4.4v8.2Zm2.7-8.9l1.5-1.6h-1.2l-1.3,1.6h1Zm-10.9,1.7h2.7v7.1h1.1v-7.1h2.7v-1h-6.5v1h0Zm-2.8,7.2h1.1v-8.1h-1.1v8.1Zm-6.1,0h4.4v-1h-3.3v-7.1h-1.1v8.1h0Zm-3.6,0h1.1v-8.1h-1.1v8.1Zm-4.8-3.9c1,0,1.6.5,1.6,1.4s-.6,1.4-1.6,1.4h-1.1v-2.9h1.1v.1Zm-.2-3.3c.9,0,1.4.4,1.4,1.2s-.5,1.2-1.4,1.2h-.9v-2.4s.9,0,.9,0Zm-2,7.2h2.2c1.7,0,2.8-.9,2.8-2.3,0-.9-.5-1.7-1.5-2,.6-.3,1-.9,1-1.7,0-1.3-.9-2.1-2.5-2.1h-2c0-.1,0,8.1,0,8.1Zm-7.1-3.4l1.5-3.9,1.5,3.9h-3Zm-2.5,3.4h1.2l.9-2.4h3.7l.9,2.4h1.2l-3.2-8.1h-1.5l-3.2,8.1Zm-4.4-7.2c.9,0,1.5.5,1.5,1.3,0,.9-.5,1.4-1.5,1.4h-1.1v-2.7h1.1Zm-2.2,7.2h1.1v-3.6h1.4l2.4,3.6h1.3l-2.6-3.8c.9-.3,1.4-1.1,1.4-2,0-1.4-1-2.3-2.7-2.3h-2.2l-.1,8.1h0Zm-7.1-3.4l1.5-3.9,1.5,3.9h-3Zm-2.5,3.4h1.2l.9-2.4h3.7l.9,2.4h1.2l-3.2-8.1h-1.5l-3.2,8.1Zm-2.5-7.2c.9,0,1.5.5,1.5,1.3,0,.9-.6,1.4-1.5,1.4h-1.3v-2.7h1.3Zm-2.4,7.2h1.1v-3.6h1.3c1.6,0,2.6-.9,2.6-2.3s-1-2.3-2.6-2.3h-2.4v8.2h0Zm-6.5,0h4.4v-1h-3.3v-2.7h2.8v-.9h-2.8v-2.6h3.3v-1h-4.4v8.2Zm2.7-8.9l1.5-1.6h-1.2l-1.3,1.6h1Zm-8,1.7c.9,0,1.5.5,1.5,1.3,0,.9-.5,1.4-1.5,1.4h-1.1v-2.7h1.1Zm-2.2,7.2h1.1v-3.6h1.4l2.4,3.6h1.2l-2.6-3.8c.9-.3,1.4-1.1,1.4-2,0-1.4-1-2.3-2.7-2.3h-2.2v8.1h0Zm-9.7,0h4.4v-1h-3.3v-2.7h2.8v-.9h-2.8v-2.6h3.3v-1h-4.4v8.2Zm-6.1-7.2c1.8,0,3.1,1.4,3.1,3.1s-1.3,3.1-3.1,3.1h-2.1v-6.1l2.1-.1h0Zm-3.2,7.2h3.1c2.6,0,4.3-1.9,4.3-4.1s-1.7-4.1-4.3-4.1h-3.1v8.2Zm-9.7,0h4.4v-1h-3.3v-2.7h2.8v-.9h-2.8v-2.6h3.3v-1h-4.4v8.2h0Zm-5.2-.8c-1.8,0-3.2-1.5-3.2-3.3s1.3-3.3,3.2-3.3c1.1,0,2,.5,2.5,1.3l.9-.7c-.7-1-1.9-1.7-3.4-1.7-2.5,0-4.3,2-4.3,4.3s1.7,4.3,4.3,4.3c1.5,0,2.7-.7,3.4-1.7l-.9-.7c-.5.9-1.4,1.5-2.5,1.5m-7.3.8h1.1v-8.1h-1.1v8.1Zm-6.1-7.2c1.8,0,3.1,1.4,3.1,3.1s-1.3,3.1-3.1,3.1h-2.1v-6.1l2.1-.1h0Zm-3.2,7.2h3.1c2.6,0,4.3-1.9,4.3-4.1s-1.7-4.1-4.3-4.1h-3.1s0,8.2,0,8.2Zm-9.7,0h1.1v-6.8l4.6,6.8h1.4v-8.1h-1.1v6.8l-4.6-6.8h-1.4v8.1Zm-3.7,0h1.1v-8.1H0v8.1Z"/></g><g id="c"><path class="i" d="m132.8,57.3c1.5,0,2.3,1.7,2.3,4s-.8,4-2.3,4-2.3-1.7-2.3-4,.8-4,2.3-4m0-1.5c-2.7,0-4,2.4-4,5.5s1.3,5.5,4,5.5,4-2.4,4-5.5-1.3-5.5-4-5.5m-8,10.8h1.6v-10.5h-1.6l-3.4,1.9.8,1.2,2.5-1.4v8.8h.1Zm-8.7,1.1h1.6l3.5-14.2h-1.6l-3.5,14.2Z"/></g><g id="d"><path class="g" d="m59.7,70.9H11.4c-6.2,0-11.2-5-11.2-11.2V11.4C.2,5.2,5.2.2,11.4.2h48.3c6.2,0,11.2,5,11.2,11.2v48.3c0,6.2-5,11.2-11.2,11.2"/><path class="g" d="m130.1,71.1H11.4c-6.3,0-11.4-5.1-11.4-11.4V11.4C0,5.1,5.1,0,11.4,0h118.7c6.3,0,11.4,5.1,11.4,11.4v48.3c0,6.3-5.1,11.4-11.4,11.4ZM11.4.5C5.4.5.5,5.4.5,11.4v48.3c0,6,4.9,10.9,10.9,10.9h118.7c6,0,10.9-4.9,10.9-10.9V11.4c0-6-4.9-10.9-10.9-10.9H11.4Z"/></g><path class="e" d="m61.5,30.2l-5.1-.8c-.5-2.3-1.4-4.4-2.6-6.4l3.1-4.3c.4-.5.3-1.4-.1-1.8l-4.3-4.3c-.5-.6-1.3-.6-1.9-.2l-4.3,3.1c-2-1.2-4.1-2.1-6.5-2.7l-.8-5.1c-.1-.7-.7-1.2-1.4-1.2h-6.1c-.7,0-1.3.5-1.4,1.2l-.8,5.1c-2.3.6-4.5,1.5-6.5,2.7l-4.3-3.1c-.5-.4-1.4-.3-1.8.1l-4.3,4.3c-.5.5-.5,1.3-.1,1.8l3.1,4.3c-1.2,2-2.1,4.1-2.7,6.5l-5.1.8c-.6.1-1.1.8-1.1,1.4v6.1c0,.7.5,1.3,1.2,1.4l5.1.8c.6,2.3,1.5,4.5,2.7,6.5l-3.1,4.3c-.4.5-.3,1.4.1,1.8l4.3,4.3c.5.5,1.3.5,1.8.1l4.3-3.1c2,1.2,4.1,2.1,6.5,2.7l.8,5.1c.1.7.7,1.2,1.4,1.2h6.1c.7,0,1.3-.5,1.4-1.2l.8-5.1c.8-.2,1.6-.4,2.3-.7l-4.9-4.8c-.9.1-1.8.2-2.7.2-9.1,0-16.5-7.4-16.5-16.5s7.4-16.5,16.5-16.5,16.5,7.4,16.5,16.5c0,1.1-.1,2.2-.3,3.3l4.8,4.8c.3-.9.6-1.8.9-2.8l5.1-.8c.7-.1,1.2-.7,1.2-1.4v-6.1c0-.7-.6-1.4-1.3-1.5m-5.9,17.9c2.2,2.2,2.2,5.7,0,7.8-2.2,2.2-5.7,2.2-7.8,0l-10.8-10.7c-3.4.8-7-.2-9.6-2.8-3-3-3.6-7.3-2.5-10.7.1-.3.6-.3.7-.2l6.2,6.2c.8.8,2.2.8,3.1,0l2.6-2.6c.8-.8.8-2.2,0-3.1l-6.2-6.2c-.2-.2-.1-.6.2-.7,3.4-1.2,7.7-.5,10.7,2.5,2.6,2.6,3.5,6.3,2.8,9.6l10.6,10.9Z"/><rect class="h" x="70.9" y="8.06" width="70.1" height="39.45"/><g class="f"><path d="m76.35,33.18l10.12-9.7c1.43-1.34,2.77-2.9,2.77-4.79s-1.3-3.07-3.11-3.07c-2.6,0-4.07,1.81-5.54,4.24l-5.71-3.53c2.56-4.2,6.43-7.01,11.97-7.01s9.58,3.36,9.58,8.61c0,4.03-2.69,7.18-5.08,9.41l-6.26,5.84h12.1v6.38h-20.83v-6.38Z"/><path d="m99.37,46.29l3.99-13.65h7.48l-5.29,13.65h-6.18Z"/><path d="m123.1,40.4c-5.84,0-9.54-2.69-12.01-7.14l6.22-3.82c1.51,3.19,3.15,4.66,5.8,4.66,2.27,0,3.91-1.39,3.91-3.44,0-2.27-1.85-3.45-4.41-3.45h-4.71v-6.3h4.5c1.81,0,3.36-.88,3.36-2.73,0-1.64-1.26-2.56-3.07-2.56-2.14,0-3.4,1.18-4.45,2.9l-5.76-3.57c2.23-3.49,5.63-5.63,10.75-5.63,5.63,0,9.75,3.07,9.75,7.98,0,2.69-1.05,4.92-3.02,6.47,2.73,1.55,4.24,4.08,4.24,7.18,0,5.75-4.75,9.45-11.09,9.45Z"/></g></svg>